%TF.GenerationSoftware,KiCad,Pcbnew,7.0.7*%
%TF.CreationDate,2024-02-15T01:29:39-05:00*%
%TF.ProjectId,3374_VCO,33333734-5f56-4434-9f2e-6b696361645f,0*%
%TF.SameCoordinates,PX640ad70PY37b6b20*%
%TF.FileFunction,Paste,Top*%
%TF.FilePolarity,Positive*%
%FSLAX46Y46*%
G04 Gerber Fmt 4.6, Leading zero omitted, Abs format (unit mm)*
G04 Created by KiCad (PCBNEW 7.0.7) date 2024-02-15 01:29:39*
%MOMM*%
%LPD*%
G01*
G04 APERTURE LIST*
G04 Aperture macros list*
%AMRoundRect*
0 Rectangle with rounded corners*
0 $1 Rounding radius*
0 $2 $3 $4 $5 $6 $7 $8 $9 X,Y pos of 4 corners*
0 Add a 4 corners polygon primitive as box body*
4,1,4,$2,$3,$4,$5,$6,$7,$8,$9,$2,$3,0*
0 Add four circle primitives for the rounded corners*
1,1,$1+$1,$2,$3*
1,1,$1+$1,$4,$5*
1,1,$1+$1,$6,$7*
1,1,$1+$1,$8,$9*
0 Add four rect primitives between the rounded corners*
20,1,$1+$1,$2,$3,$4,$5,0*
20,1,$1+$1,$4,$5,$6,$7,0*
20,1,$1+$1,$6,$7,$8,$9,0*
20,1,$1+$1,$8,$9,$2,$3,0*%
G04 Aperture macros list end*
%ADD10RoundRect,0.079500X-0.079500X-0.100500X0.079500X-0.100500X0.079500X0.100500X-0.079500X0.100500X0*%
%ADD11RoundRect,0.079500X0.079500X0.100500X-0.079500X0.100500X-0.079500X-0.100500X0.079500X-0.100500X0*%
%ADD12RoundRect,0.079500X0.100500X-0.079500X0.100500X0.079500X-0.100500X0.079500X-0.100500X-0.079500X0*%
%ADD13RoundRect,0.079500X-0.100500X0.079500X-0.100500X-0.079500X0.100500X-0.079500X0.100500X0.079500X0*%
%ADD14R,0.774700X0.254000*%
%ADD15R,0.400000X0.650000*%
%ADD16RoundRect,0.135000X0.135000X0.185000X-0.135000X0.185000X-0.135000X-0.185000X0.135000X-0.185000X0*%
%ADD17R,0.558800X0.240000*%
%ADD18R,0.457200X0.240000*%
%ADD19R,0.240000X0.457200*%
G04 APERTURE END LIST*
D10*
%TO.C,R8*%
X9078400Y16814800D03*
X9768400Y16814800D03*
%TD*%
D11*
%TO.C,R3*%
X5933000Y19859600D03*
X5243000Y19859600D03*
%TD*%
D12*
%TO.C,R5*%
X762000Y18614600D03*
X762000Y19304600D03*
%TD*%
%TO.C,R11*%
X3098800Y15490400D03*
X3098800Y16180400D03*
%TD*%
D10*
%TO.C,R16*%
X8900600Y11125200D03*
X9590600Y11125200D03*
%TD*%
D13*
%TO.C,R4*%
X8077200Y20015800D03*
X8077200Y19325800D03*
%TD*%
D14*
%TO.C,U3*%
X7029450Y15609222D03*
X7029450Y16109348D03*
X7029450Y16609474D03*
X7029450Y17109600D03*
X7029450Y17609726D03*
X7029450Y18109852D03*
X7029450Y18609978D03*
X4146550Y18609978D03*
X4146550Y18109852D03*
X4146550Y17609726D03*
X4146550Y17109600D03*
X4146550Y16609474D03*
X4146550Y16109348D03*
X4146550Y15609222D03*
%TD*%
D13*
%TO.C,R6*%
X8077200Y18695000D03*
X8077200Y18005000D03*
%TD*%
D10*
%TO.C,R10*%
X9078400Y16200800D03*
X9768400Y16200800D03*
%TD*%
%TO.C,C6*%
X8849800Y21285200D03*
X9539800Y21285200D03*
%TD*%
%TO.C,C14*%
X9053000Y3505200D03*
X9743000Y3505200D03*
%TD*%
D11*
%TO.C,C5*%
X9539800Y21894800D03*
X8849800Y21894800D03*
%TD*%
D10*
%TO.C,R19*%
X1433000Y4114800D03*
X2123000Y4114800D03*
%TD*%
D11*
%TO.C,R20*%
X9743000Y4114800D03*
X9053000Y4114800D03*
%TD*%
D13*
%TO.C,C9*%
X8077200Y16053400D03*
X8077200Y15363400D03*
%TD*%
D15*
%TO.C,Q6*%
X3588000Y609600D03*
X4238000Y609600D03*
X4888000Y609600D03*
X4888000Y2509600D03*
X4238000Y2509600D03*
X3588000Y2509600D03*
%TD*%
%TO.C,D1*%
X3588000Y9609600D03*
X4238000Y9609600D03*
X4888000Y9609600D03*
X4888000Y11509600D03*
X4238000Y11509600D03*
X3588000Y11509600D03*
%TD*%
D11*
%TO.C,R18*%
X9590600Y8585200D03*
X8900600Y8585200D03*
%TD*%
D16*
%TO.C,R22*%
X9933400Y1422400D03*
X8913400Y1422400D03*
%TD*%
D10*
%TO.C,C11*%
X8900600Y9194800D03*
X9590600Y9194800D03*
%TD*%
D17*
%TO.C,U1*%
X3339892Y23400150D03*
D18*
X3288000Y23000100D03*
X3288000Y22600050D03*
X3288000Y22200000D03*
D19*
X3412925Y21675076D03*
X3812975Y21675076D03*
X4213025Y21675076D03*
X4613075Y21675076D03*
D18*
X4738000Y22200000D03*
X4738000Y22600050D03*
X4738000Y23000100D03*
X4738000Y23400150D03*
D19*
X4613075Y23925074D03*
X4213025Y23925074D03*
X3812975Y23925074D03*
X3412925Y23925074D03*
%TD*%
D11*
%TO.C,R9*%
X2326200Y16205200D03*
X1636200Y16205200D03*
%TD*%
D15*
%TO.C,Q7*%
X6288000Y609600D03*
X6938000Y609600D03*
X7588000Y609600D03*
X7588000Y2509600D03*
X6938000Y2509600D03*
X6288000Y2509600D03*
%TD*%
%TO.C,Q3*%
X6288000Y6609600D03*
X6938000Y6609600D03*
X7588000Y6609600D03*
X7588000Y8509600D03*
X6938000Y8509600D03*
X6288000Y8509600D03*
%TD*%
%TO.C,Q5*%
X6288000Y3609600D03*
X6938000Y3609600D03*
X7588000Y3609600D03*
X7588000Y5509600D03*
X6938000Y5509600D03*
X6288000Y5509600D03*
%TD*%
D10*
%TO.C,R21*%
X1433000Y3505200D03*
X2123000Y3505200D03*
%TD*%
D13*
%TO.C,C7*%
X3098800Y17780600D03*
X3098800Y17090600D03*
%TD*%
D17*
%TO.C,U2*%
X7836108Y22200000D03*
D18*
X7888000Y22600050D03*
X7888000Y23000100D03*
X7888000Y23400150D03*
D19*
X7763075Y23925074D03*
X7363025Y23925074D03*
X6962975Y23925074D03*
X6562925Y23925074D03*
D18*
X6438000Y23400150D03*
X6438000Y23000100D03*
X6438000Y22600050D03*
X6438000Y22200000D03*
D19*
X6562925Y21675076D03*
X6962975Y21675076D03*
X7363025Y21675076D03*
X7763075Y21675076D03*
%TD*%
D11*
%TO.C,R15*%
X9539800Y13665200D03*
X8849800Y13665200D03*
%TD*%
D15*
%TO.C,Q4*%
X3588000Y3609600D03*
X4238000Y3609600D03*
X4888000Y3609600D03*
X4888000Y5509600D03*
X4238000Y5509600D03*
X3588000Y5509600D03*
%TD*%
D11*
%TO.C,R12*%
X2326200Y14274800D03*
X1636200Y14274800D03*
%TD*%
D10*
%TO.C,C3*%
X1382200Y23900000D03*
X2072200Y23900000D03*
%TD*%
%TO.C,C10*%
X8900600Y11734800D03*
X9590600Y11734800D03*
%TD*%
D11*
%TO.C,R2*%
X4612200Y19859600D03*
X3922200Y19859600D03*
%TD*%
D10*
%TO.C,C13*%
X9053000Y6654800D03*
X9743000Y6654800D03*
%TD*%
D13*
%TO.C,C8*%
X8077200Y17374200D03*
X8077200Y16684200D03*
%TD*%
D15*
%TO.C,Q1*%
X6288000Y9609600D03*
X6938000Y9609600D03*
X7588000Y9609600D03*
X7588000Y11509600D03*
X6938000Y11509600D03*
X6288000Y11509600D03*
%TD*%
D11*
%TO.C,C4*%
X2123000Y21894800D03*
X1433000Y21894800D03*
%TD*%
%TO.C,R17*%
X2123000Y9194800D03*
X1433000Y9194800D03*
%TD*%
D10*
%TO.C,R1*%
X1433000Y21285200D03*
X2123000Y21285200D03*
%TD*%
%TO.C,C2*%
X8951400Y24028400D03*
X9641400Y24028400D03*
%TD*%
%TO.C,R13*%
X8849800Y14274800D03*
X9539800Y14274800D03*
%TD*%
D11*
%TO.C,C1*%
X2072200Y24500000D03*
X1382200Y24500000D03*
%TD*%
%TO.C,R7*%
X2326200Y16814800D03*
X1636200Y16814800D03*
%TD*%
%TO.C,C12*%
X2123000Y8585200D03*
X1433000Y8585200D03*
%TD*%
D15*
%TO.C,Q2*%
X3588000Y6609600D03*
X4238000Y6609600D03*
X4888000Y6609600D03*
X4888000Y8509600D03*
X4238000Y8509600D03*
X3588000Y8509600D03*
%TD*%
D10*
%TO.C,R14*%
X1636200Y13665200D03*
X2326200Y13665200D03*
%TD*%
M02*
