%TF.GenerationSoftware,KiCad,Pcbnew,8.0.3*%
%TF.CreationDate,2024-12-12T22:43:46-05:00*%
%TF.ProjectId,3374_VCO,33333734-5f56-4434-9f2e-6b696361645f,0*%
%TF.SameCoordinates,PX640ad70PY37b6b20*%
%TF.FileFunction,Copper,L1,Top*%
%TF.FilePolarity,Positive*%
%FSLAX46Y46*%
G04 Gerber Fmt 4.6, Leading zero omitted, Abs format (unit mm)*
G04 Created by KiCad (PCBNEW 8.0.3) date 2024-12-12 22:43:46*
%MOMM*%
%LPD*%
G01*
G04 APERTURE LIST*
G04 Aperture macros list*
%AMRoundRect*
0 Rectangle with rounded corners*
0 $1 Rounding radius*
0 $2 $3 $4 $5 $6 $7 $8 $9 X,Y pos of 4 corners*
0 Add a 4 corners polygon primitive as box body*
4,1,4,$2,$3,$4,$5,$6,$7,$8,$9,$2,$3,0*
0 Add four circle primitives for the rounded corners*
1,1,$1+$1,$2,$3*
1,1,$1+$1,$4,$5*
1,1,$1+$1,$6,$7*
1,1,$1+$1,$8,$9*
0 Add four rect primitives between the rounded corners*
20,1,$1+$1,$2,$3,$4,$5,0*
20,1,$1+$1,$4,$5,$6,$7,0*
20,1,$1+$1,$6,$7,$8,$9,0*
20,1,$1+$1,$8,$9,$2,$3,0*%
G04 Aperture macros list end*
%TA.AperFunction,SMDPad,CuDef*%
%ADD10RoundRect,0.100000X0.130000X0.100000X-0.130000X0.100000X-0.130000X-0.100000X0.130000X-0.100000X0*%
%TD*%
%TA.AperFunction,SMDPad,CuDef*%
%ADD11RoundRect,0.100000X0.100000X-0.130000X0.100000X0.130000X-0.100000X0.130000X-0.100000X-0.130000X0*%
%TD*%
%TA.AperFunction,SMDPad,CuDef*%
%ADD12R,0.774700X0.254000*%
%TD*%
%TA.AperFunction,SMDPad,CuDef*%
%ADD13RoundRect,0.100000X-0.130000X-0.100000X0.130000X-0.100000X0.130000X0.100000X-0.130000X0.100000X0*%
%TD*%
%TA.AperFunction,SMDPad,CuDef*%
%ADD14RoundRect,0.100000X-0.100000X0.130000X-0.100000X-0.130000X0.100000X-0.130000X0.100000X0.130000X0*%
%TD*%
%TA.AperFunction,SMDPad,CuDef*%
%ADD15R,0.400000X0.650000*%
%TD*%
%TA.AperFunction,SMDPad,CuDef*%
%ADD16R,0.558800X0.240000*%
%TD*%
%TA.AperFunction,SMDPad,CuDef*%
%ADD17R,0.457200X0.240000*%
%TD*%
%TA.AperFunction,SMDPad,CuDef*%
%ADD18R,0.240000X0.457200*%
%TD*%
%TA.AperFunction,ComponentPad*%
%ADD19C,1.016000*%
%TD*%
%TA.AperFunction,FiducialPad,Local*%
%ADD20C,1.016000*%
%TD*%
%TA.AperFunction,ViaPad*%
%ADD21C,0.604800*%
%TD*%
%TA.AperFunction,Conductor*%
%ADD22C,0.152400*%
%TD*%
G04 APERTURE END LIST*
D10*
%TO.P,R5,1*%
%TO.N,TRIANGLE_A*%
X5908000Y17458378D03*
%TO.P,R5,2*%
%TO.N,Net-(U3C--)*%
X5268000Y17458378D03*
%TD*%
D11*
%TO.P,R14,1*%
%TO.N,Net-(U3D--)*%
X2794000Y12075200D03*
%TO.P,R14,2*%
%TO.N,GND*%
X2794000Y12715200D03*
%TD*%
D10*
%TO.P,R17,1*%
%TO.N,Net-(U3D--)*%
X2098000Y11430000D03*
%TO.P,R17,2*%
%TO.N,+5V*%
X1458000Y11430000D03*
%TD*%
D11*
%TO.P,R1,1*%
%TO.N,Net-(C4-Pad1)*%
X1388000Y23810000D03*
%TO.P,R1,2*%
%TO.N,GND*%
X1388000Y24450000D03*
%TD*%
D12*
%TO.P,U3,1*%
%TO.N,Net-(C10-Pad2)*%
X7029450Y13208000D03*
%TO.P,U3,2,-*%
%TO.N,Net-(Q11A-C1)*%
X7029450Y13708126D03*
%TO.P,U3,3,+*%
%TO.N,GND*%
X7029450Y14208252D03*
%TO.P,U3,4,V+*%
%TO.N,+12V*%
X7029450Y14708378D03*
%TO.P,U3,5,+*%
%TO.N,CF_A*%
X7029450Y15208504D03*
%TO.P,U3,6,-*%
%TO.N,TRIANGLE_A*%
X7029450Y15708630D03*
%TO.P,U3,7*%
X7029450Y16208756D03*
%TO.P,U3,8*%
%TO.N,SAWTOOTH_A*%
X4146550Y16208756D03*
%TO.P,U3,9,-*%
%TO.N,Net-(U3C--)*%
X4146550Y15708630D03*
%TO.P,U3,10,+*%
%TO.N,Net-(U3C-+)*%
X4146550Y15208504D03*
%TO.P,U3,11,V-*%
%TO.N,-5V*%
X4146550Y14708378D03*
%TO.P,U3,12,+*%
%TO.N,Net-(U3D-+)*%
X4146550Y14208252D03*
%TO.P,U3,13,-*%
%TO.N,Net-(U3D--)*%
X4146550Y13708126D03*
%TO.P,U3,14*%
%TO.N,/VCO A/SHIFTED_TRI_A*%
X4146550Y13208000D03*
%TD*%
D10*
%TO.P,C6,1*%
%TO.N,+5V*%
X7127200Y19812000D03*
%TO.P,C6,2*%
%TO.N,GND*%
X6487200Y19812000D03*
%TD*%
D13*
%TO.P,C11,1*%
%TO.N,VTC*%
X9078000Y3810000D03*
%TO.P,C11,2*%
%TO.N,GND*%
X9718000Y3810000D03*
%TD*%
%TO.P,C3,1*%
%TO.N,GND*%
X7300000Y24384000D03*
%TO.P,C3,2*%
%TO.N,-5V*%
X7940000Y24384000D03*
%TD*%
%TO.P,R20,1*%
%TO.N,IREF_A*%
X1458000Y6350000D03*
%TO.P,R20,2*%
%TO.N,Net-(Q11A-C1)*%
X2098000Y6350000D03*
%TD*%
D10*
%TO.P,R21,1*%
%TO.N,IREF_B*%
X9718000Y6350000D03*
%TO.P,R21,2*%
%TO.N,Net-(Q10A-C1)*%
X9078000Y6350000D03*
%TD*%
D13*
%TO.P,R18,1*%
%TO.N,Net-(U6D--)*%
X8773200Y11125200D03*
%TO.P,R18,2*%
%TO.N,+5V*%
X9413200Y11125200D03*
%TD*%
D14*
%TO.P,C10,1*%
%TO.N,Net-(Q11A-C1)*%
X8077200Y13627178D03*
%TO.P,C10,2*%
%TO.N,Net-(C10-Pad2)*%
X8077200Y12987178D03*
%TD*%
D13*
%TO.P,R16,1*%
%TO.N,Net-(U6D--)*%
X8773200Y11734800D03*
%TO.P,R16,2*%
%TO.N,GND*%
X9413200Y11734800D03*
%TD*%
D15*
%TO.P,Q4,1,B2*%
%TO.N,Net-(Q4A-B1)*%
X3588000Y609600D03*
%TO.P,Q4,2,B1*%
X4238000Y609600D03*
%TO.P,Q4,3,C1*%
X4888000Y609600D03*
%TO.P,Q4,4,E1*%
%TO.N,Net-(Q2A-C1)*%
X4888000Y2509600D03*
%TO.P,Q4,5,E2*%
%TO.N,Net-(Q2A-B1)*%
X4238000Y2509600D03*
%TO.P,Q4,6,C2*%
%TO.N,CF_A*%
X3588000Y2509600D03*
%TD*%
D13*
%TO.P,R19,1*%
%TO.N,Net-(C14-Pad2)*%
X7300000Y9017000D03*
%TO.P,R19,2*%
%TO.N,Net-(Q10A-E1)*%
X7940000Y9017000D03*
%TD*%
D10*
%TO.P,R23,1*%
%TO.N,+5V*%
X9743400Y1397000D03*
%TO.P,R23,2*%
%TO.N,VTC*%
X9103400Y1397000D03*
%TD*%
D16*
%TO.P,U1,1*%
%TO.N,Net-(Q4A-B1)*%
X3339892Y22892150D03*
D17*
%TO.P,U1,2*%
%TO.N,Net-(Q5B-C2)*%
X3288000Y22492100D03*
%TO.P,U1,3*%
%TO.N,CF_A*%
X3288000Y22092050D03*
%TO.P,U1,4,/EN*%
%TO.N,GND*%
X3288000Y21692000D03*
D18*
%TO.P,U1,5,V-*%
%TO.N,-5V*%
X3412925Y21167076D03*
%TO.P,U1,6,GND*%
%TO.N,GND*%
X3812975Y21167076D03*
%TO.P,U1,7*%
%TO.N,/VCO A/SQUARE_A*%
X4213025Y21167076D03*
%TO.P,U1,8*%
X4613075Y21167076D03*
D17*
%TO.P,U1,9*%
X4738000Y21692000D03*
%TO.P,U1,10*%
%TO.N,VTH_A*%
X4738000Y22092050D03*
%TO.P,U1,11*%
%TO.N,GND*%
X4738000Y22492100D03*
%TO.P,U1,12*%
%TO.N,Net-(U5A--)*%
X4738000Y22892150D03*
D18*
%TO.P,U1,13*%
%TO.N,Net-(U3C-+)*%
X4613075Y23417074D03*
%TO.P,U1,14,V+*%
%TO.N,+5V*%
X4213025Y23417074D03*
%TO.P,U1,15*%
%TO.N,VTH_A*%
X3812975Y23417074D03*
%TO.P,U1,16*%
%TO.N,Net-(C4-Pad1)*%
X3412925Y23417074D03*
%TD*%
D10*
%TO.P,R12,1*%
%TO.N,Net-(U3D-+)*%
X2098000Y13665200D03*
%TO.P,R12,2*%
%TO.N,TRIANGLE_A*%
X1458000Y13665200D03*
%TD*%
D15*
%TO.P,Q5,1,B2*%
%TO.N,Net-(Q11B-C2)*%
X6288000Y609600D03*
%TO.P,Q5,2,B1*%
X6938000Y609600D03*
%TO.P,Q5,3,C1*%
X7588000Y609600D03*
%TO.P,Q5,4,E1*%
%TO.N,Net-(Q3A-C1)*%
X7588000Y2509600D03*
%TO.P,Q5,5,E2*%
%TO.N,Net-(Q3A-B1)*%
X6938000Y2509600D03*
%TO.P,Q5,6,C2*%
%TO.N,Net-(Q5B-C2)*%
X6288000Y2509600D03*
%TD*%
%TO.P,Q3,1,B2*%
%TO.N,Net-(Q3A-B1)*%
X6288000Y3609600D03*
%TO.P,Q3,2,B1*%
X6938000Y3609600D03*
%TO.P,Q3,3,C1*%
%TO.N,Net-(Q3A-C1)*%
X7588000Y3609600D03*
%TO.P,Q3,4,E1*%
%TO.N,+12V*%
X7588000Y5509600D03*
%TO.P,Q3,5,E2*%
X6938000Y5509600D03*
%TO.P,Q3,6,C2*%
%TO.N,Net-(Q3A-B1)*%
X6288000Y5509600D03*
%TD*%
D13*
%TO.P,R22,1*%
%TO.N,Net-(C10-Pad2)*%
X1458000Y3860800D03*
%TO.P,R22,2*%
%TO.N,Net-(Q11A-E1)*%
X2098000Y3860800D03*
%TD*%
D14*
%TO.P,C8,1*%
%TO.N,GND*%
X3098800Y15204400D03*
%TO.P,C8,2*%
%TO.N,-5V*%
X3098800Y14564400D03*
%TD*%
D16*
%TO.P,U2,1*%
%TO.N,Net-(Q9A-B1)*%
X7836108Y21692000D03*
D17*
%TO.P,U2,2*%
%TO.N,Net-(Q8B-C2)*%
X7888000Y22092050D03*
%TO.P,U2,3*%
%TO.N,CF_B*%
X7888000Y22492100D03*
%TO.P,U2,4,/EN*%
%TO.N,GND*%
X7888000Y22892150D03*
D18*
%TO.P,U2,5,V-*%
%TO.N,-5V*%
X7763075Y23417074D03*
%TO.P,U2,6,GND*%
%TO.N,GND*%
X7363025Y23417074D03*
%TO.P,U2,7*%
%TO.N,/VCO B/SQUARE_B*%
X6962975Y23417074D03*
%TO.P,U2,8*%
X6562925Y23417074D03*
D17*
%TO.P,U2,9*%
X6438000Y22892150D03*
%TO.P,U2,10*%
%TO.N,VTH_B*%
X6438000Y22492100D03*
%TO.P,U2,11*%
%TO.N,GND*%
X6438000Y22092050D03*
%TO.P,U2,12*%
%TO.N,Net-(U5B--)*%
X6438000Y21692000D03*
D18*
%TO.P,U2,13*%
%TO.N,Net-(U6C-+)*%
X6562925Y21167076D03*
%TO.P,U2,14,V+*%
%TO.N,+5V*%
X6962975Y21167076D03*
%TO.P,U2,15*%
%TO.N,VTH_B*%
X7363025Y21167076D03*
%TO.P,U2,16*%
%TO.N,Net-(C7-Pad1)*%
X7763075Y21167076D03*
%TD*%
D10*
%TO.P,R9,1*%
%TO.N,+12V*%
X9489400Y16205200D03*
%TO.P,R9,2*%
%TO.N,VTH_B*%
X8849400Y16205200D03*
%TD*%
D15*
%TO.P,Q2,1,B2*%
%TO.N,Net-(Q2A-B1)*%
X3588000Y3609600D03*
%TO.P,Q2,2,B1*%
X4238000Y3609600D03*
%TO.P,Q2,3,C1*%
%TO.N,Net-(Q2A-C1)*%
X4888000Y3609600D03*
%TO.P,Q2,4,E1*%
%TO.N,/VCO A/SHIFTED_TRI_A*%
X4888000Y5509600D03*
%TO.P,Q2,5,E2*%
X4238000Y5509600D03*
%TO.P,Q2,6,C2*%
%TO.N,Net-(Q2A-B1)*%
X3588000Y5509600D03*
%TD*%
D13*
%TO.P,C1,1*%
%TO.N,+5V*%
X4658000Y24840000D03*
%TO.P,C1,2*%
%TO.N,GND*%
X5298000Y24840000D03*
%TD*%
D10*
%TO.P,R8,1*%
%TO.N,VTH_A*%
X2402800Y16205200D03*
%TO.P,R8,2*%
%TO.N,GND*%
X1762800Y16205200D03*
%TD*%
%TO.P,C5,1*%
%TO.N,GND*%
X4130000Y20066000D03*
%TO.P,C5,2*%
%TO.N,-5V*%
X3490000Y20066000D03*
%TD*%
D13*
%TO.P,R13,1*%
%TO.N,Net-(U6D-+)*%
X9078000Y13665200D03*
%TO.P,R13,2*%
%TO.N,TRIANGLE_B*%
X9718000Y13665200D03*
%TD*%
D10*
%TO.P,R4,1*%
%TO.N,Net-(U3C--)*%
X4587200Y17458378D03*
%TO.P,R4,2*%
%TO.N,SAWTOOTH_A*%
X3947200Y17458378D03*
%TD*%
D14*
%TO.P,C9,1*%
%TO.N,+12V*%
X8077200Y14947978D03*
%TO.P,C9,2*%
%TO.N,GND*%
X8077200Y14307978D03*
%TD*%
D11*
%TO.P,C4,1*%
%TO.N,Net-(C4-Pad1)*%
X2032000Y23810000D03*
%TO.P,C4,2*%
%TO.N,GND*%
X2032000Y24450000D03*
%TD*%
D13*
%TO.P,R11,1*%
%TO.N,Net-(U6D-+)*%
X9078000Y14274800D03*
%TO.P,R11,2*%
%TO.N,GND*%
X9718000Y14274800D03*
%TD*%
D10*
%TO.P,R3,1*%
%TO.N,TRIANGLE_A*%
X4587200Y18110000D03*
%TO.P,R3,2*%
%TO.N,Net-(C4-Pad1)*%
X3947200Y18110000D03*
%TD*%
D13*
%TO.P,C7,1*%
%TO.N,Net-(C7-Pad1)*%
X9078000Y18745200D03*
%TO.P,C7,2*%
%TO.N,GND*%
X9718000Y18745200D03*
%TD*%
%TO.P,R7,1*%
%TO.N,VTH_B*%
X8849400Y16814800D03*
%TO.P,R7,2*%
%TO.N,GND*%
X9489400Y16814800D03*
%TD*%
D11*
%TO.P,R15,1*%
%TO.N,/VCO A/SHIFTED_TRI_A*%
X3448000Y11760000D03*
%TO.P,R15,2*%
%TO.N,Net-(U3D--)*%
X3448000Y12400000D03*
%TD*%
D10*
%TO.P,C2,1*%
%TO.N,+5V*%
X3748000Y24390000D03*
%TO.P,C2,2*%
%TO.N,GND*%
X3108000Y24390000D03*
%TD*%
%TO.P,R10,1*%
%TO.N,Net-(U3D-+)*%
X2098000Y14274800D03*
%TO.P,R10,2*%
%TO.N,GND*%
X1458000Y14274800D03*
%TD*%
D15*
%TO.P,Q1,1,E2*%
%TO.N,GND*%
X3588000Y6609600D03*
%TO.P,Q1,2,B2*%
%TO.N,Net-(Q1A-C1)*%
X4238000Y6609600D03*
%TO.P,Q1,3,C1*%
X4888000Y6609600D03*
%TO.P,Q1,4,E1*%
%TO.N,+12V*%
X4888000Y8509600D03*
%TO.P,Q1,5,B1*%
%TO.N,SYNC_A*%
X4238000Y8509600D03*
%TO.P,Q1,6,C2*%
%TO.N,CF_A*%
X3588000Y8509600D03*
%TD*%
D13*
%TO.P,R6,1*%
%TO.N,+12V*%
X1762800Y16814800D03*
%TO.P,R6,2*%
%TO.N,VTH_A*%
X2402800Y16814800D03*
%TD*%
%TO.P,R2,1*%
%TO.N,Net-(C7-Pad1)*%
X9078000Y19354800D03*
%TO.P,R2,2*%
%TO.N,GND*%
X9718000Y19354800D03*
%TD*%
D19*
%TO.P,J2,1,Pin_1*%
%TO.N,-5V*%
X1778000Y22860000D03*
%TO.P,J2,2,Pin_2*%
%TO.N,SAWTOOTH_A*%
X1778000Y20320000D03*
%TO.P,J2,3,Pin_3*%
%TO.N,SYNC_A*%
X1778000Y17780000D03*
%TO.P,J2,4,Pin_4*%
%TO.N,VTH_A*%
X1778000Y15240000D03*
%TO.P,J2,5,Pin_5*%
%TO.N,TRIANGLE_A*%
X1778000Y12700000D03*
%TO.P,J2,6,Pin_6*%
%TO.N,CF_A*%
X1778000Y10160000D03*
D20*
%TO.P,J2,7,Pin_7*%
%TO.N,CV_A*%
X1778000Y7620000D03*
D19*
%TO.P,J2,8,Pin_8*%
%TO.N,IREF_A*%
X1778000Y5080000D03*
%TO.P,J2,9,Pin_9*%
%TO.N,GND*%
X1778000Y2540000D03*
%TD*%
%TO.P,J1,1,Pin_1*%
%TO.N,+12V*%
X9398000Y22860000D03*
%TO.P,J1,2,Pin_2*%
%TO.N,SAWTOOTH_B*%
X9398000Y20320000D03*
%TO.P,J1,3,Pin_3*%
%TO.N,unconnected-(J1-Pin_3-Pad3)*%
X9398000Y17780000D03*
%TO.P,J1,4,Pin_4*%
%TO.N,VTH_B*%
X9398000Y15240000D03*
%TO.P,J1,5,Pin_5*%
%TO.N,TRIANGLE_B*%
X9398000Y12700000D03*
%TO.P,J1,6,Pin_6*%
%TO.N,CF_B*%
X9398000Y10160000D03*
%TO.P,J1,7,Pin_7*%
%TO.N,CV_B*%
X9398000Y7620000D03*
%TO.P,J1,8,Pin_8*%
%TO.N,IREF_B*%
X9398000Y5080000D03*
%TO.P,J1,9,Pin_9*%
%TO.N,VTC*%
X9398000Y2540000D03*
%TD*%
D21*
%TO.N,+12V*%
X5613194Y13836165D03*
X1229963Y16988391D03*
X6934200Y7569200D03*
X4684000Y7719600D03*
X10010000Y15983262D03*
%TO.N,GND*%
X10007600Y17018000D03*
X1219208Y16103608D03*
X6385715Y20471744D03*
X3680600Y7399600D03*
X2997200Y15748006D03*
X4218000Y1409600D03*
X10007600Y584200D03*
X4485660Y19610580D03*
X9194800Y24831464D03*
X10151962Y3137969D03*
X9956800Y11887200D03*
X5478400Y23681699D03*
X2898000Y13319881D03*
X5846313Y13075856D03*
X2554113Y24505373D03*
X2838123Y21230000D03*
X4411340Y12526739D03*
X7328000Y1399600D03*
%TO.N,-5V*%
X8439859Y23889299D03*
X3298000Y20580000D03*
X5440793Y15742404D03*
%TO.N,+5V*%
X2751684Y23774400D03*
X4928176Y24201901D03*
X1200318Y11929758D03*
X9956800Y10972800D03*
X7128962Y20327037D03*
X10617200Y1422400D03*
%TO.N,CF_A*%
X3775116Y10990180D03*
X1393102Y18723698D03*
%TO.N,CF_B*%
X5691644Y14640416D03*
%TO.N,SAWTOOTH_A*%
X3403600Y17627600D03*
%TO.N,SYNC_A*%
X2667844Y10737000D03*
%TO.N,TRIANGLE_A*%
X5183317Y16802601D03*
X5220954Y18327046D03*
%TO.N,Net-(Q9A-B1)*%
X10238361Y21844006D03*
%TO.N,/VCO A/SQUARE_A*%
X4977316Y20656916D03*
%TO.N,/VCO B/SQUARE_B*%
X6009387Y24461765D03*
%TO.N,Net-(C10-Pad2)*%
X7087468Y10916272D03*
X1320800Y8483600D03*
%TO.N,Net-(Q11A-C1)*%
X1752600Y1272400D03*
X2553424Y9471800D03*
X6328000Y10790000D03*
%TO.N,Net-(C4-Pad1)*%
X914400Y23317186D03*
X3048355Y18379829D03*
%TO.N,Net-(C14-Pad2)*%
X5070400Y10988745D03*
%TO.N,Net-(Q10A-C1)*%
X4597400Y10210800D03*
X6558355Y1641714D03*
%TO.N,Net-(C7-Pad1)*%
X8549916Y19847284D03*
%TO.N,Net-(Q11B-C2)*%
X5858743Y1328857D03*
%TO.N,Net-(Q11A-E1)*%
X2626162Y2058702D03*
%TO.N,Net-(Q10A-E1)*%
X8887600Y8436381D03*
%TO.N,Net-(Q8B-C2)*%
X8523334Y22013297D03*
%TO.N,Net-(U6D--)*%
X8308000Y12140000D03*
%TO.N,Net-(U6D-+)*%
X8185358Y15951042D03*
%TO.N,Net-(U6C-+)*%
X7933776Y17991401D03*
%TO.N,Net-(U3C-+)*%
X1034796Y21800507D03*
X3098800Y16916400D03*
%TO.N,Net-(U5A--)*%
X5424498Y22926419D03*
%TO.N,Net-(U5B--)*%
X5827800Y21477649D03*
%TD*%
D22*
%TO.N,CF_A*%
X5438126Y15208504D02*
X7029450Y15208504D01*
X5067300Y14837678D02*
X5438126Y15208504D01*
X5067300Y14726652D02*
X5067300Y14837678D01*
X4762500Y12926527D02*
X4762500Y14421852D01*
X4942340Y12746687D02*
X4762500Y12926527D01*
X4942340Y12157404D02*
X4942340Y12746687D01*
X3775116Y10990180D02*
X4942340Y12157404D01*
X4762500Y14421852D02*
X5067300Y14726652D01*
%TO.N,+12V*%
X6938000Y5509600D02*
X6938000Y7565400D01*
X9853262Y16140000D02*
X9538000Y16140000D01*
X7029450Y14708378D02*
X7446400Y14708378D01*
X10010000Y15983262D02*
X9853262Y16140000D01*
X5637635Y13836165D02*
X5613194Y13836165D01*
X6509848Y14708378D02*
X5637635Y13836165D01*
X4888000Y7923600D02*
X4684000Y7719600D01*
X1403554Y16814800D02*
X1559600Y16814800D01*
X6938000Y7565400D02*
X6934200Y7569200D01*
X7029450Y14708378D02*
X6509848Y14708378D01*
X1229963Y16988391D02*
X1403554Y16814800D01*
X7588000Y5509600D02*
X6938000Y5509600D01*
X7446400Y14708378D02*
X7686000Y14947978D01*
X7686000Y14947978D02*
X8026400Y14947978D01*
X4888000Y8509600D02*
X4888000Y7923600D01*
%TO.N,GND*%
X3812975Y21572826D02*
X3693801Y21692000D01*
X5478400Y24458000D02*
X5298400Y24638000D01*
X7363025Y23417074D02*
X7363025Y24320975D01*
X1559600Y16205200D02*
X1320800Y16205200D01*
X4738000Y22492100D02*
X5119000Y22492100D01*
X5846313Y13283238D02*
X5846313Y13075856D01*
X3812975Y21167076D02*
X3812975Y21572826D01*
X5980800Y22131050D02*
X6019800Y22092050D01*
X9804400Y11734800D02*
X9956800Y11887200D01*
X10176600Y13944599D02*
X10176600Y12107000D01*
X9718000Y18745200D02*
X9718000Y19354800D01*
X10134600Y18293400D02*
X10134600Y17145000D01*
X9804400Y16814800D02*
X10007600Y17018000D01*
X6019800Y22092050D02*
X6438000Y22092050D01*
X5980800Y23179299D02*
X5980800Y22352000D01*
X7300000Y24583999D02*
X7547465Y24831464D01*
X2539990Y24384000D02*
X2403990Y24520000D01*
X4130000Y20469051D02*
X4130000Y20066000D01*
X10151962Y3137969D02*
X9718000Y3571931D01*
X9718000Y3571931D02*
X9718000Y3810000D01*
X1041400Y15925800D02*
X1219208Y16103608D01*
X5265700Y22345400D02*
X5974200Y22345400D01*
X7363025Y23011324D02*
X7363025Y23417074D01*
X3588000Y7307000D02*
X3680600Y7399600D01*
X5980800Y22352000D02*
X5980800Y22131050D01*
X3236000Y24384000D02*
X2539990Y24384000D01*
X2078000Y24520000D02*
X1408000Y24520000D01*
X6144204Y13581129D02*
X5846313Y13283238D01*
X9708000Y18720000D02*
X10134600Y18293400D01*
X5119000Y22492100D02*
X5265700Y22345400D01*
X3588000Y6609600D02*
X3588000Y7307000D01*
X7888000Y22892150D02*
X7482199Y22892150D01*
X1041400Y14691400D02*
X1041400Y15925800D01*
X6385715Y20471744D02*
X6385715Y19913485D01*
X7547465Y24831464D02*
X9194800Y24831464D01*
X2403990Y24520000D02*
X2078000Y24520000D01*
X7482199Y22892150D02*
X7363025Y23011324D01*
X3693801Y21692000D02*
X3288000Y21692000D01*
X3098800Y15354378D02*
X3098800Y15646406D01*
X7029450Y14208252D02*
X6489700Y14208252D01*
X5478400Y23681699D02*
X5478400Y24458000D01*
X10134600Y17145000D02*
X10007600Y17018000D01*
X3812975Y21167076D02*
X3812975Y20786076D01*
X3812975Y20786076D02*
X4130000Y20469051D01*
X7300000Y24384000D02*
X7300000Y24583999D01*
X3098800Y15646406D02*
X2997200Y15748006D01*
X9616400Y16814800D02*
X9804400Y16814800D01*
X6489700Y14208252D02*
X6144204Y13862756D01*
X1320800Y16205200D02*
X1219208Y16103608D01*
X9846399Y14274800D02*
X10176600Y13944599D01*
X5974200Y22345400D02*
X5980800Y22352000D01*
X7926674Y14208252D02*
X8026400Y14307978D01*
X2768600Y13190481D02*
X2768600Y12588200D01*
X10176600Y12107000D02*
X9956800Y11887200D01*
X6144204Y13862756D02*
X6144204Y13581129D01*
X1458000Y14274800D02*
X1041400Y14691400D01*
X4485660Y19710340D02*
X4130000Y20066000D01*
X7029450Y14208252D02*
X7926674Y14208252D01*
X2898000Y13319881D02*
X2768600Y13190481D01*
X4485660Y19610580D02*
X4485660Y19710340D01*
X9413200Y11734800D02*
X9804400Y11734800D01*
X5478400Y23681699D02*
X5980800Y23179299D01*
%TO.N,-5V*%
X3338000Y20620000D02*
X3298000Y20580000D01*
X3412925Y20620000D02*
X3412925Y20143075D01*
X4146550Y14708378D02*
X4617974Y14708378D01*
X3412925Y21167076D02*
X3412925Y20620000D01*
X4762500Y14852904D02*
X4762500Y15064111D01*
X7763075Y23417074D02*
X7763075Y24207075D01*
X3242778Y14708378D02*
X3098800Y14564400D01*
X4617974Y14708378D02*
X4762500Y14852904D01*
X8439859Y23889299D02*
X7945158Y24384000D01*
X4762500Y15064111D02*
X5440793Y15742404D01*
X7763075Y24207075D02*
X7940000Y24384000D01*
X4146550Y14708378D02*
X3242778Y14708378D01*
X3412925Y20620000D02*
X3338000Y20620000D01*
%TO.N,+5V*%
X9413200Y11125200D02*
X9804400Y11125200D01*
X4928176Y24201901D02*
X4928176Y24368224D01*
X2751684Y23774400D02*
X2851558Y23874274D01*
X3748000Y24160000D02*
X3748000Y24390000D01*
X6962975Y20493024D02*
X6962975Y21167076D01*
X3432273Y23874274D02*
X3748000Y24190001D01*
X7128962Y20327037D02*
X7125395Y20330604D01*
X7128962Y20327037D02*
X6962975Y20493024D01*
X3748000Y24190001D02*
X3748000Y24390000D01*
X10464800Y1422400D02*
X10617200Y1422400D01*
X9933400Y1422400D02*
X10464800Y1422400D01*
X7127200Y20325275D02*
X7127200Y19812000D01*
X4213025Y23417074D02*
X4213025Y23694975D01*
X1458000Y11531600D02*
X1200318Y11789282D01*
X9804400Y11125200D02*
X9956800Y10972800D01*
X4928176Y24368224D02*
X4658400Y24638000D01*
X7128962Y20327037D02*
X7127200Y20325275D01*
X4213025Y23694975D02*
X3748000Y24160000D01*
X1200318Y11789282D02*
X1200318Y11929758D01*
X2851558Y23874274D02*
X3432273Y23874274D01*
%TO.N,VTC*%
X9103400Y1422400D02*
X9103400Y2245400D01*
X9398000Y2540000D02*
X9078000Y2860000D01*
X9078000Y2860000D02*
X9078000Y3810000D01*
%TO.N,CF_A*%
X2514600Y19845196D02*
X1393102Y18723698D01*
X2205523Y20967968D02*
X2514600Y20658891D01*
X3588000Y2685587D02*
X3159400Y3114187D01*
X3288000Y22092050D02*
X2939392Y22092050D01*
X2759856Y10160000D02*
X1778000Y10160000D01*
X2939392Y22092050D02*
X2205523Y21358181D01*
X3588000Y8509600D02*
X3588000Y9331856D01*
X3588000Y9331856D02*
X2759856Y10160000D01*
X3149600Y7179652D02*
X3149600Y8071200D01*
X3149600Y8071200D02*
X3588000Y8509600D01*
X2514600Y20658891D02*
X2514600Y19845196D01*
X3159400Y3114187D02*
X3159400Y7169852D01*
X2205523Y21358181D02*
X2205523Y20967968D01*
X3159400Y7169852D02*
X3149600Y7179652D01*
%TO.N,CF_B*%
X10843400Y10761568D02*
X10843400Y22938600D01*
X9092890Y23596600D02*
X8388000Y22891710D01*
X8293750Y22492100D02*
X7888000Y22492100D01*
X10843400Y22938600D02*
X10185400Y23596600D01*
X5666507Y14640416D02*
X5082204Y14056113D01*
X9398000Y10160000D02*
X10241832Y10160000D01*
X5611676Y12508403D02*
X5611676Y10736324D01*
X5691644Y14640416D02*
X5666507Y14640416D01*
X5082204Y13037875D02*
X5611676Y12508403D01*
X5082204Y14056113D02*
X5082204Y13037875D01*
X10185400Y23596600D02*
X9092890Y23596600D01*
X10241832Y10160000D02*
X10843400Y10761568D01*
X5611676Y10736324D02*
X6188000Y10160000D01*
X8388000Y22586350D02*
X8293750Y22492100D01*
X8388000Y22891710D02*
X8388000Y22586350D01*
X6188000Y10160000D02*
X9398000Y10160000D01*
%TO.N,SAWTOOTH_A*%
X4146550Y16882228D02*
X4146550Y16558378D01*
X3947200Y17458378D02*
X3572822Y17458378D01*
X3947200Y17458378D02*
X3947200Y17081578D01*
X4146550Y16558378D02*
X4146550Y16208756D01*
X3572822Y17458378D02*
X3403600Y17627600D01*
X3947200Y17081578D02*
X4146550Y16882228D01*
%TO.N,SYNC_A*%
X4238000Y8509600D02*
X4238000Y9166844D01*
X4238000Y9166844D02*
X2667844Y10737000D01*
%TO.N,VTH_A*%
X2402800Y16205200D02*
X2402800Y16814800D01*
X5508316Y19680316D02*
X4840429Y19012429D01*
X4789450Y22040600D02*
X5195200Y22040600D01*
X2402800Y17114051D02*
X2402800Y16814800D01*
X1778000Y15240000D02*
X2402800Y15864800D01*
X5508316Y20876864D02*
X5508316Y19680316D01*
X4840429Y19012429D02*
X2786323Y19012429D01*
X3864425Y23365624D02*
X3812975Y23417074D01*
X5195200Y21189980D02*
X5508316Y20876864D01*
X2786323Y19012429D02*
X2514600Y18740706D01*
X2402800Y15864800D02*
X2402800Y16205200D01*
X2514600Y18740706D02*
X2514600Y17225851D01*
X3864425Y22559875D02*
X3864425Y23365624D01*
X2514600Y17225851D02*
X2402800Y17114051D01*
X4738000Y22092050D02*
X4789450Y22040600D01*
X4332250Y22092050D02*
X3864425Y22559875D01*
X5195200Y22040600D02*
X5195200Y21189980D01*
X4738000Y22092050D02*
X4332250Y22092050D01*
%TO.N,TRIANGLE_A*%
X5908000Y17403667D02*
X5306934Y16802601D01*
X5908000Y17640000D02*
X5220954Y18327046D01*
X5306934Y16802601D02*
X5183317Y16802601D01*
X7029450Y16208756D02*
X7029450Y16437728D01*
X5003908Y18110000D02*
X5220954Y18327046D01*
X1778000Y12700000D02*
X1432600Y13045400D01*
X7029450Y15708630D02*
X7029450Y16208756D01*
X5908000Y17458378D02*
X5908000Y17640000D01*
X4578000Y18110000D02*
X5003908Y18110000D01*
X7029450Y16437728D02*
X6008800Y17458378D01*
X1432600Y13045400D02*
X1432600Y13639800D01*
%TO.N,IREF_A*%
X1458000Y6299200D02*
X1458000Y5400000D01*
X1458000Y5400000D02*
X1778000Y5080000D01*
%TO.N,VTH_B*%
X8773200Y16205200D02*
X8773200Y16814800D01*
X7890600Y20316347D02*
X7363025Y20843922D01*
X8773200Y16814800D02*
X8467000Y17121000D01*
X6438000Y22492100D02*
X6843750Y22492100D01*
X7328108Y22007742D02*
X7328108Y21201993D01*
X6843750Y22492100D02*
X7328108Y22007742D01*
X8898000Y16230400D02*
X8898000Y16021549D01*
X7363025Y20843922D02*
X7363025Y21167076D01*
X7890600Y19199918D02*
X7890600Y20316347D01*
X8467000Y18623518D02*
X7890600Y19199918D01*
X8898000Y16021549D02*
X9398000Y15521549D01*
X8467000Y17121000D02*
X8467000Y18623518D01*
%TO.N,TRIANGLE_B*%
X9718000Y13665200D02*
X9718000Y13020000D01*
X9718000Y13020000D02*
X9398000Y12700000D01*
%TO.N,IREF_B*%
X9398000Y5080000D02*
X9718000Y5400000D01*
X9718000Y5400000D02*
X9718000Y6400800D01*
%TO.N,/VCO A/SHIFTED_TRI_A*%
X3223400Y10618854D02*
X3223400Y11351400D01*
X4569600Y9679800D02*
X4162454Y9679800D01*
X5316600Y8932800D02*
X4569600Y9679800D01*
X4146550Y13208000D02*
X3876600Y12938050D01*
X3876600Y12938050D02*
X3876600Y11978600D01*
X4162454Y9679800D02*
X3223400Y10618854D01*
X5316600Y5938200D02*
X5316600Y8932800D01*
X3223400Y11351400D02*
X3429000Y11557000D01*
X4888000Y5509600D02*
X5316600Y5938200D01*
X3876600Y11978600D02*
X3658000Y11760000D01*
X3658000Y11760000D02*
X3448000Y11760000D01*
X4888000Y5509600D02*
X4238000Y5509600D01*
%TO.N,Net-(Q3A-C1)*%
X7588000Y2509600D02*
X7588000Y3609600D01*
%TO.N,Net-(Q4A-B1)*%
X3588000Y609600D02*
X3415000Y436600D01*
X355600Y20370362D02*
X2877388Y22892150D01*
X2877388Y22892150D02*
X3339892Y22892150D01*
X355600Y1487400D02*
X355600Y20370362D01*
X4238000Y609600D02*
X3588000Y609600D01*
X1406400Y436600D02*
X355600Y1487400D01*
X3415000Y436600D02*
X1406400Y436600D01*
X4888000Y609600D02*
X4238000Y609600D01*
%TO.N,Net-(Q9A-B1)*%
X9813955Y21419600D02*
X10238361Y21844006D01*
X7988508Y21692000D02*
X7988508Y21641492D01*
X7995508Y21692000D02*
X8267908Y21419600D01*
X8267908Y21419600D02*
X9813955Y21419600D01*
%TO.N,/VCO A/SQUARE_A*%
X4613075Y21167076D02*
X4977316Y20802835D01*
X4213025Y21167076D02*
X4613075Y21167076D01*
X4738000Y21692000D02*
X4738000Y21292001D01*
X4977316Y20802835D02*
X4977316Y20656916D01*
X4738000Y21292001D02*
X4613075Y21167076D01*
%TO.N,/VCO B/SQUARE_B*%
X6562925Y23017075D02*
X6438000Y22892150D01*
X6562925Y23417074D02*
X6562925Y23017075D01*
X6562925Y23908227D02*
X6562925Y23417074D01*
X6009387Y24461765D02*
X6562925Y23908227D01*
X6962975Y23417074D02*
X6562925Y23417074D01*
%TO.N,Net-(C10-Pad2)*%
X7029450Y13208000D02*
X7029450Y10974290D01*
X999400Y4319400D02*
X999400Y8162200D01*
X7515978Y13208000D02*
X7736800Y12987178D01*
X999400Y8162200D02*
X1320800Y8483600D01*
X7736800Y12987178D02*
X8026400Y12987178D01*
X7029450Y10974290D02*
X7087468Y10916272D01*
X7029450Y13208000D02*
X7515978Y13208000D01*
X1458000Y3860800D02*
X999400Y4319400D01*
%TO.N,Net-(Q11A-C1)*%
X8026400Y13627178D02*
X7110398Y13627178D01*
X3159400Y2683135D02*
X2565400Y3277135D01*
X6683359Y13708126D02*
X6413500Y13438267D01*
X2565400Y6350000D02*
X2565400Y9459824D01*
X7029450Y13708126D02*
X6683359Y13708126D01*
X2098000Y6350000D02*
X2565400Y6350000D01*
X1752600Y1272400D02*
X2619348Y1272400D01*
X2565400Y3277135D02*
X2565400Y6350000D01*
X6413500Y10875500D02*
X6328000Y10790000D01*
X2565400Y9459824D02*
X2553424Y9471800D01*
X6413500Y13438267D02*
X6413500Y10875500D01*
X3159400Y1812452D02*
X3159400Y2683135D01*
X2619348Y1272400D02*
X3159400Y1812452D01*
X7110398Y13627178D02*
X7029450Y13708126D01*
%TO.N,Net-(C4-Pad1)*%
X1278815Y23681601D02*
X914400Y23317186D01*
X3668171Y18379829D02*
X3048355Y18379829D01*
X3412925Y23417074D02*
X3239251Y23243400D01*
X2082800Y23681601D02*
X1278815Y23681601D01*
X3938000Y18110000D02*
X3668171Y18379829D01*
X3239251Y23243400D02*
X2521001Y23243400D01*
X2521001Y23243400D02*
X2082800Y23681601D01*
%TO.N,Net-(C14-Pad2)*%
X6685832Y9017000D02*
X5070400Y10632432D01*
X5070400Y10632432D02*
X5070400Y10988745D01*
X7300000Y9017000D02*
X6685832Y9017000D01*
%TO.N,Net-(Q10A-C1)*%
X6708000Y8100200D02*
X7378600Y8100200D01*
X9078000Y6400800D02*
X8619400Y5942200D01*
X7378600Y8100200D02*
X9078000Y6400800D01*
X4597400Y10210800D02*
X6708000Y8100200D01*
X8619400Y5942200D02*
X8619400Y2687000D01*
X7888200Y1955800D02*
X6872441Y1955800D01*
X8619400Y2687000D02*
X7888200Y1955800D01*
X6872441Y1955800D02*
X6558355Y1641714D01*
%TO.N,Net-(C7-Pad1)*%
X7763075Y20874924D02*
X7763075Y21167076D01*
X8549916Y19847284D02*
X8925600Y19471600D01*
X8549916Y20088083D02*
X7763075Y20874924D01*
X8925600Y19471600D02*
X8925600Y19354800D01*
X8549916Y19847284D02*
X8549916Y20088083D01*
X9078000Y18745200D02*
X9078000Y19354800D01*
%TO.N,Net-(Q11B-C2)*%
X5858743Y1328857D02*
X6288000Y899600D01*
X6288000Y899600D02*
X6288000Y609600D01*
X6938000Y609600D02*
X7588000Y609600D01*
X6288000Y609600D02*
X6938000Y609600D01*
%TO.N,Net-(Q11A-E1)*%
X2098000Y3286800D02*
X2098000Y3860800D01*
X2626162Y2758638D02*
X2626162Y2058702D01*
X2626162Y2758638D02*
X2098000Y3286800D01*
%TO.N,Net-(Q3A-B1)*%
X6938000Y2509600D02*
X6938000Y3609600D01*
X6288000Y3609600D02*
X6288000Y5509600D01*
X6938000Y3659600D02*
X6288000Y3659600D01*
%TO.N,Net-(Q5B-C2)*%
X660400Y1613652D02*
X660400Y20244110D01*
X2519400Y741400D02*
X1532652Y741400D01*
X1532652Y741400D02*
X660400Y1613652D01*
X2908390Y22492100D02*
X3288000Y22492100D01*
X5734400Y1956000D02*
X3734000Y1956000D01*
X6288000Y2509600D02*
X5734400Y1956000D01*
X3734000Y1956000D02*
X2519400Y741400D01*
X660400Y20244110D02*
X2908390Y22492100D01*
%TO.N,Net-(Q2A-B1)*%
X4238000Y3659600D02*
X3588000Y3659600D01*
X4238000Y2509600D02*
X4238000Y3609600D01*
X3588000Y3659600D02*
X3588000Y5559600D01*
%TO.N,Net-(Q2A-C1)*%
X4888000Y2509600D02*
X4888000Y3609600D01*
%TO.N,Net-(Q1A-C1)*%
X4888000Y6609600D02*
X4238000Y6609600D01*
%TO.N,Net-(Q10A-E1)*%
X8520619Y8436381D02*
X7940000Y9017000D01*
X8887600Y8436381D02*
X8520619Y8436381D01*
X8887600Y8453421D02*
X8887600Y8436381D01*
%TO.N,Net-(Q8B-C2)*%
X8444581Y22092050D02*
X7888000Y22092050D01*
X8523334Y22013297D02*
X8444581Y22092050D01*
%TO.N,Net-(U3D--)*%
X3448000Y12400000D02*
X3248001Y12400000D01*
X3448000Y13481000D02*
X3448000Y12400000D01*
X3530600Y13563600D02*
X3448000Y13481000D01*
X2362200Y11531600D02*
X2098000Y11531600D01*
X2768600Y11938000D02*
X2362200Y11531600D01*
X3248001Y12400000D02*
X2948601Y12100600D01*
X3530600Y13563600D02*
X3860800Y13563600D01*
X2948601Y12100600D02*
X2768600Y12100600D01*
%TO.N,Net-(U3D-+)*%
X2267000Y14105800D02*
X2098000Y14274800D01*
X4146550Y14208252D02*
X4044098Y14105800D01*
X2072600Y13639800D02*
X2072600Y14274800D01*
X4044098Y14105800D02*
X2267000Y14105800D01*
%TO.N,Net-(U3C--)*%
X4146550Y15708630D02*
X4536780Y15708630D01*
X4587200Y16644490D02*
X4587200Y17458378D01*
X4762500Y16469190D02*
X4587200Y16644490D01*
X5268000Y17458378D02*
X4587200Y17458378D01*
X4536780Y15708630D02*
X4762500Y15934350D01*
X4762500Y15934350D02*
X4762500Y16469190D01*
%TO.N,Net-(U6D--)*%
X8698000Y11750000D02*
X8308000Y12140000D01*
X8773200Y11734800D02*
X8773200Y11125200D01*
%TO.N,Net-(U6D-+)*%
X9078000Y13650000D02*
X9078000Y14290000D01*
X8505800Y15630600D02*
X8505800Y14862200D01*
X8185358Y15951042D02*
X8505800Y15630600D01*
X8505800Y14862200D02*
X9078000Y14290000D01*
%TO.N,Net-(U6C-+)*%
X5854715Y20731266D02*
X5854715Y19088085D01*
X6951399Y17991401D02*
X7933776Y17991401D01*
X6562925Y21167076D02*
X6290525Y21167076D01*
X5854715Y19088085D02*
X6951399Y17991401D01*
X6290525Y21167076D02*
X5854715Y20731266D01*
%TO.N,Net-(U3C-+)*%
X3530600Y15586189D02*
X3527400Y15582989D01*
X3606800Y15208504D02*
X4146550Y15208504D01*
X4613075Y23766054D02*
X4613075Y23417074D01*
X3527400Y15287904D02*
X3606800Y15208504D01*
X4206600Y24628882D02*
X4206600Y24172529D01*
X355600Y24130000D02*
X1261973Y25036373D01*
X1034796Y21800507D02*
X355600Y22479703D01*
X3530600Y16484600D02*
X3530600Y15586189D01*
X355600Y22479703D02*
X355600Y24130000D01*
X3799109Y25036373D02*
X4206600Y24628882D01*
X1261973Y25036373D02*
X3799109Y25036373D01*
X4206600Y24172529D02*
X4613075Y23766054D01*
X3098800Y16916400D02*
X3530600Y16484600D01*
X3527400Y15582989D02*
X3527400Y15287904D01*
%TO.N,Net-(U5A--)*%
X5390229Y22892150D02*
X4738000Y22892150D01*
X5424498Y22926419D02*
X5390229Y22892150D01*
%TO.N,Net-(U5B--)*%
X6438000Y21692000D02*
X6042151Y21692000D01*
X6042151Y21692000D02*
X5827800Y21477649D01*
%TD*%
%TA.AperFunction,Conductor*%
%TO.N,+5V*%
G36*
X10407141Y1543168D02*
G01*
X10413255Y1536625D01*
X10414000Y1532517D01*
X10414000Y1312283D01*
X10410573Y1304010D01*
X10402300Y1300583D01*
X10398192Y1301328D01*
X10218392Y1368753D01*
X10211849Y1374867D01*
X10210800Y1379708D01*
X10210800Y1465092D01*
X10214227Y1473365D01*
X10218392Y1476047D01*
X10398192Y1543472D01*
X10407141Y1543168D01*
G37*
%TD.AperFunction*%
%TD*%
%TA.AperFunction,Conductor*%
%TO.N,GND*%
G36*
X9938680Y3451280D02*
G01*
X10093316Y3385008D01*
X10099570Y3378599D01*
X10099461Y3369645D01*
X10096980Y3365981D01*
X9987801Y3256802D01*
X9979528Y3253375D01*
X9974919Y3254321D01*
X9820283Y3320593D01*
X9814029Y3327002D01*
X9814138Y3335956D01*
X9816616Y3339617D01*
X9925799Y3448800D01*
X9934071Y3452226D01*
X9938680Y3451280D01*
G37*
%TD.AperFunction*%
%TD*%
%TA.AperFunction,Conductor*%
%TO.N,VTC*%
G36*
X9136898Y3205215D02*
G01*
X9311165Y3009164D01*
X9314100Y3000704D01*
X9310193Y2992646D01*
X9307172Y2990699D01*
X9111122Y2903566D01*
X9102170Y2903338D01*
X9095678Y2909506D01*
X9094704Y2915155D01*
X9101285Y3000704D01*
X9116487Y3198341D01*
X9120539Y3206325D01*
X9129050Y3209108D01*
X9136898Y3205215D01*
G37*
%TD.AperFunction*%
%TD*%
%TA.AperFunction,Conductor*%
%TO.N,CF_A*%
G36*
X6920995Y15244299D02*
G01*
X6996446Y15219624D01*
X7003244Y15213796D01*
X7003929Y15204867D01*
X6998101Y15198069D01*
X6996446Y15197384D01*
X6646138Y15082825D01*
X6638156Y15083082D01*
X6522455Y15129362D01*
X6516046Y15135616D01*
X6515100Y15140225D01*
X6515100Y15276783D01*
X6518527Y15285056D01*
X6522455Y15287646D01*
X6638157Y15333928D01*
X6646136Y15334184D01*
X6920995Y15244299D01*
G37*
%TD.AperFunction*%
%TD*%
%TA.AperFunction,Conductor*%
%TO.N,CF_A*%
G36*
X4156928Y11463683D02*
G01*
X4248617Y11371994D01*
X4252044Y11363721D01*
X4248853Y11355691D01*
X4186743Y11289880D01*
X4129783Y11220414D01*
X4129777Y11220406D01*
X4088364Y11158134D01*
X4065088Y11105631D01*
X4065086Y11105625D01*
X4063072Y11073892D01*
X4059128Y11065852D01*
X4054380Y11063320D01*
X3793827Y10994596D01*
X3784953Y10995799D01*
X3779530Y11002925D01*
X3779530Y11008889D01*
X3848255Y11269448D01*
X3853678Y11276573D01*
X3858826Y11278139D01*
X3862904Y11278398D01*
X3890558Y11280154D01*
X3890560Y11280155D01*
X3890563Y11280155D01*
X3943068Y11303432D01*
X4005338Y11344842D01*
X4005339Y11344844D01*
X4005342Y11344845D01*
X4074809Y11401804D01*
X4140628Y11463921D01*
X4148993Y11467105D01*
X4156928Y11463683D01*
G37*
%TD.AperFunction*%
%TD*%
%TA.AperFunction,Conductor*%
%TO.N,+12V*%
G36*
X7015955Y6031173D02*
G01*
X7017630Y6029058D01*
X7134204Y5840731D01*
X7135645Y5831893D01*
X7134229Y5828455D01*
X6947973Y5524856D01*
X6940726Y5519596D01*
X6931882Y5521001D01*
X6928027Y5524856D01*
X6741770Y5828455D01*
X6740365Y5837299D01*
X6741795Y5840731D01*
X6858370Y6029058D01*
X6865638Y6034289D01*
X6868318Y6034600D01*
X7007682Y6034600D01*
X7015955Y6031173D01*
G37*
%TD.AperFunction*%
%TD*%
%TA.AperFunction,Conductor*%
%TO.N,+12V*%
G36*
X6940174Y7557106D02*
G01*
X6944422Y7552913D01*
X7081527Y7321048D01*
X7082788Y7312183D01*
X7080301Y7307435D01*
X7059536Y7283452D01*
X7059531Y7283444D01*
X7039422Y7229763D01*
X7039419Y7229754D01*
X7025283Y7156375D01*
X7025283Y7156373D01*
X7016939Y7066955D01*
X7014506Y6976541D01*
X7010858Y6968363D01*
X7002810Y6965156D01*
X6873140Y6965156D01*
X6864867Y6968583D01*
X6861446Y6976490D01*
X6858630Y7066551D01*
X6858630Y7066555D01*
X6858629Y7066562D01*
X6858629Y7066571D01*
X6849248Y7155560D01*
X6833855Y7228491D01*
X6833351Y7229755D01*
X6812647Y7281726D01*
X6812646Y7281729D01*
X6791467Y7305343D01*
X6788495Y7313788D01*
X6790030Y7318976D01*
X6924204Y7552783D01*
X6931293Y7558251D01*
X6940174Y7557106D01*
G37*
%TD.AperFunction*%
%TD*%
%TA.AperFunction,Conductor*%
%TO.N,+12V*%
G36*
X9711478Y16348464D02*
G01*
X9944037Y16155314D01*
X9948212Y16147391D01*
X9945563Y16138838D01*
X9944835Y16138040D01*
X9848871Y16042076D01*
X9842341Y16038779D01*
X9626840Y16006321D01*
X9618148Y16008478D01*
X9615293Y16011506D01*
X9532370Y16138838D01*
X9494924Y16196338D01*
X9493282Y16205140D01*
X9498108Y16212368D01*
X9697385Y16349111D01*
X9706144Y16350966D01*
X9711478Y16348464D01*
G37*
%TD.AperFunction*%
%TD*%
%TA.AperFunction,Conductor*%
%TO.N,+12V*%
G36*
X9550235Y16215614D02*
G01*
X9615444Y16212489D01*
X9616199Y16212427D01*
X9683880Y16204655D01*
X9683879Y16204652D01*
X9683940Y16204648D01*
X9740382Y16197823D01*
X9758877Y16197488D01*
X9783534Y16197040D01*
X9783534Y16197041D01*
X9783538Y16197040D01*
X9804072Y16204612D01*
X9813020Y16204260D01*
X9816860Y16201413D01*
X9997600Y15998319D01*
X10000540Y15989861D01*
X9996638Y15981801D01*
X9991279Y15979094D01*
X9729672Y15923802D01*
X9720869Y15925444D01*
X9716302Y15931129D01*
X9709064Y15950370D01*
X9685753Y15987339D01*
X9685749Y15987344D01*
X9649645Y16024193D01*
X9600481Y16052493D01*
X9547616Y16062060D01*
X9540086Y16066905D01*
X9538000Y16073573D01*
X9538000Y16203926D01*
X9541427Y16212199D01*
X9549700Y16215626D01*
X9550235Y16215614D01*
G37*
%TD.AperFunction*%
%TD*%
%TA.AperFunction,Conductor*%
%TO.N,+12V*%
G36*
X7457201Y14831530D02*
G01*
X7464365Y14828156D01*
X7558400Y14734121D01*
X7561827Y14725848D01*
X7558400Y14717575D01*
X7556003Y14715731D01*
X7420559Y14637059D01*
X7412526Y14635677D01*
X7073463Y14699282D01*
X7065963Y14704175D01*
X7064121Y14712938D01*
X7069014Y14720438D01*
X7071959Y14721894D01*
X7414476Y14834614D01*
X7419238Y14835146D01*
X7457201Y14831530D01*
G37*
%TD.AperFunction*%
%TD*%
%TA.AperFunction,Conductor*%
%TO.N,+12V*%
G36*
X6008154Y14291659D02*
G01*
X6096410Y14203403D01*
X6099837Y14195130D01*
X6096572Y14187022D01*
X6034006Y14121940D01*
X6033995Y14121927D01*
X5975369Y14054022D01*
X5975364Y14054015D01*
X5931779Y13993541D01*
X5906380Y13942479D01*
X5906380Y13942478D01*
X5903181Y13911150D01*
X5898932Y13903268D01*
X5894191Y13900943D01*
X5632060Y13840008D01*
X5623226Y13841472D01*
X5618015Y13848755D01*
X5618193Y13854726D01*
X5644180Y13942479D01*
X5694870Y14113649D01*
X5700504Y14120607D01*
X5705831Y14122022D01*
X5737272Y14122705D01*
X5790367Y14143124D01*
X5853421Y14181231D01*
X5860922Y14187022D01*
X5882138Y14203403D01*
X5923272Y14235162D01*
X5968399Y14276853D01*
X5969982Y14278078D01*
X5992868Y14292785D01*
X5992872Y14292791D01*
X5993555Y14293229D01*
X6002368Y14294819D01*
X6008154Y14291659D01*
G37*
%TD.AperFunction*%
%TD*%
%TA.AperFunction,Conductor*%
%TO.N,+12V*%
G36*
X1600350Y17000540D02*
G01*
X1756074Y16822587D01*
X1758943Y16814104D01*
X1755286Y16806360D01*
X1580831Y16642232D01*
X1572457Y16639059D01*
X1566527Y16640887D01*
X1391207Y16752603D01*
X1311933Y16803118D01*
X1306798Y16810453D01*
X1308354Y16819271D01*
X1309943Y16821252D01*
X1405971Y16917280D01*
X1409236Y16919579D01*
X1586545Y17003413D01*
X1595488Y17003851D01*
X1600350Y17000540D01*
G37*
%TD.AperFunction*%
%TD*%
%TA.AperFunction,Conductor*%
%TO.N,+12V*%
G36*
X1524911Y16996074D02*
G01*
X1528646Y16987935D01*
X1528580Y16986181D01*
X1528037Y16981392D01*
X1524570Y16953560D01*
X1525089Y16924015D01*
X1525089Y16924014D01*
X1525089Y16924012D01*
X1525090Y16924011D01*
X1534975Y16900555D01*
X1552132Y16893898D01*
X1558606Y16887710D01*
X1559600Y16882990D01*
X1559600Y16750582D01*
X1556173Y16742309D01*
X1547900Y16738882D01*
X1547623Y16738885D01*
X1510773Y16739759D01*
X1510438Y16739772D01*
X1468076Y16741990D01*
X1450338Y16742700D01*
X1432662Y16743407D01*
X1432660Y16743407D01*
X1432659Y16743407D01*
X1432656Y16743407D01*
X1405221Y16742129D01*
X1405216Y16742128D01*
X1395110Y16738969D01*
X1386191Y16739772D01*
X1381697Y16743936D01*
X1239668Y16971258D01*
X1238191Y16980091D01*
X1243391Y16987381D01*
X1249148Y16989149D01*
X1516516Y16999188D01*
X1524911Y16996074D01*
G37*
%TD.AperFunction*%
%TD*%
%TA.AperFunction,Conductor*%
%TO.N,+12V*%
G36*
X6920995Y14744173D02*
G01*
X6996446Y14719498D01*
X7003244Y14713670D01*
X7003929Y14704741D01*
X6998101Y14697943D01*
X6996446Y14697258D01*
X6646138Y14582699D01*
X6638156Y14582956D01*
X6522455Y14629236D01*
X6516046Y14635490D01*
X6515100Y14640099D01*
X6515100Y14776657D01*
X6518527Y14784930D01*
X6522455Y14787520D01*
X6638157Y14833802D01*
X6646136Y14834058D01*
X6920995Y14744173D01*
G37*
%TD.AperFunction*%
%TD*%
%TA.AperFunction,Conductor*%
%TO.N,+12V*%
G36*
X7145857Y5704737D02*
G01*
X7332458Y5589231D01*
X7337689Y5581963D01*
X7338000Y5579283D01*
X7338000Y5439918D01*
X7334573Y5431645D01*
X7332458Y5429970D01*
X7145858Y5314465D01*
X7137020Y5313024D01*
X7131448Y5316119D01*
X7017028Y5429970D01*
X6945334Y5501307D01*
X6941887Y5509571D01*
X6945293Y5517852D01*
X7131451Y5703084D01*
X7139729Y5706488D01*
X7145857Y5704737D01*
G37*
%TD.AperFunction*%
%TD*%
%TA.AperFunction,Conductor*%
%TO.N,+12V*%
G36*
X7394548Y5703084D02*
G01*
X7518969Y5579283D01*
X7580665Y5517894D01*
X7584112Y5509629D01*
X7580706Y5501347D01*
X7580664Y5501306D01*
X7394551Y5316119D01*
X7386270Y5312713D01*
X7380141Y5314465D01*
X7193542Y5429970D01*
X7188311Y5437238D01*
X7188000Y5439918D01*
X7188000Y5579283D01*
X7191427Y5587556D01*
X7193539Y5589229D01*
X7380142Y5704737D01*
X7388979Y5706177D01*
X7394548Y5703084D01*
G37*
%TD.AperFunction*%
%TD*%
%TA.AperFunction,Conductor*%
%TO.N,+12V*%
G36*
X7910632Y15138719D02*
G01*
X8071215Y14956287D01*
X8074109Y14947812D01*
X8071343Y14940973D01*
X7913905Y14755982D01*
X7905933Y14751903D01*
X7897612Y14754489D01*
X7734119Y14887499D01*
X7733230Y14888302D01*
X7637013Y14984519D01*
X7633586Y14992792D01*
X7637013Y15001065D01*
X7639732Y15003089D01*
X7896303Y15141290D01*
X7905210Y15142195D01*
X7910632Y15138719D01*
G37*
%TD.AperFunction*%
%TD*%
%TA.AperFunction,Conductor*%
%TO.N,+12V*%
G36*
X4894118Y8498200D02*
G01*
X4897971Y8494347D01*
X5005178Y8319600D01*
X5084229Y8190746D01*
X5085634Y8181902D01*
X5084204Y8178470D01*
X4967630Y7990142D01*
X4960362Y7984911D01*
X4957682Y7984600D01*
X4818318Y7984600D01*
X4810045Y7988027D01*
X4808370Y7990142D01*
X4691795Y8178470D01*
X4690354Y8187308D01*
X4691768Y8190744D01*
X4878028Y8494346D01*
X4885274Y8499605D01*
X4894118Y8498200D01*
G37*
%TD.AperFunction*%
%TD*%
%TA.AperFunction,Conductor*%
%TO.N,+12V*%
G36*
X4959745Y8238969D02*
G01*
X4963172Y8230696D01*
X4963131Y8229713D01*
X4956120Y8146569D01*
X4955895Y8145074D01*
X4937961Y8062336D01*
X4937820Y8061754D01*
X4919115Y7992717D01*
X4919109Y7992692D01*
X4909113Y7939569D01*
X4915626Y7911492D01*
X4914158Y7902658D01*
X4911515Y7899694D01*
X4699713Y7731108D01*
X4691106Y7728637D01*
X4683273Y7732976D01*
X4680870Y7738439D01*
X4655431Y7899694D01*
X4639100Y8003216D01*
X4641196Y8011920D01*
X4646695Y8016046D01*
X4673214Y8025588D01*
X4718605Y8055211D01*
X4763607Y8101389D01*
X4798058Y8163868D01*
X4810106Y8232713D01*
X4814908Y8240271D01*
X4821631Y8242396D01*
X4951472Y8242396D01*
X4959745Y8238969D01*
G37*
%TD.AperFunction*%
%TD*%
%TA.AperFunction,Conductor*%
%TO.N,GND*%
G36*
X7308304Y24379800D02*
G01*
X7514700Y24250547D01*
X7519893Y24243252D01*
X7519641Y24237088D01*
X7441817Y23992157D01*
X7436045Y23985310D01*
X7430666Y23984000D01*
X7292641Y23984000D01*
X7284368Y23987427D01*
X7283313Y23988638D01*
X7133345Y24186716D01*
X7131083Y24195380D01*
X7133999Y24201630D01*
X7293424Y24377736D01*
X7301515Y24381569D01*
X7308304Y24379800D01*
G37*
%TD.AperFunction*%
%TD*%
%TA.AperFunction,Conductor*%
%TO.N,GND*%
G36*
X7439313Y23762247D02*
G01*
X7442031Y23757986D01*
X7481253Y23650527D01*
X7480870Y23641580D01*
X7480631Y23641096D01*
X7373394Y23435914D01*
X7366525Y23430169D01*
X7357606Y23430964D01*
X7352656Y23435914D01*
X7245418Y23641096D01*
X7244623Y23650015D01*
X7244796Y23650527D01*
X7284019Y23757986D01*
X7290075Y23764582D01*
X7295010Y23765674D01*
X7431040Y23765674D01*
X7439313Y23762247D01*
G37*
%TD.AperFunction*%
%TD*%
%TA.AperFunction,Conductor*%
%TO.N,GND*%
G36*
X1600209Y16391136D02*
G01*
X1757000Y16212928D01*
X1759892Y16204454D01*
X1757000Y16197472D01*
X1600209Y16019265D01*
X1592171Y16015317D01*
X1586678Y16016299D01*
X1339753Y16125914D01*
X1333582Y16132403D01*
X1332800Y16136608D01*
X1332800Y16273793D01*
X1336227Y16282066D01*
X1339751Y16284486D01*
X1586679Y16394103D01*
X1595630Y16394326D01*
X1600209Y16391136D01*
G37*
%TD.AperFunction*%
%TD*%
%TA.AperFunction,Conductor*%
%TO.N,GND*%
G36*
X1434529Y16315706D02*
G01*
X1439690Y16311803D01*
X1460175Y16300986D01*
X1480613Y16293607D01*
X1487254Y16291209D01*
X1493092Y16289968D01*
X1520531Y16284129D01*
X1548716Y16282161D01*
X1556729Y16278166D01*
X1559600Y16270489D01*
X1559600Y16137530D01*
X1556173Y16129257D01*
X1551479Y16126391D01*
X1533664Y16120668D01*
X1518951Y16100174D01*
X1518951Y16100173D01*
X1512004Y16074265D01*
X1512002Y16074250D01*
X1509373Y16049700D01*
X1509373Y16049696D01*
X1509030Y16046503D01*
X1504739Y16038644D01*
X1496147Y16036120D01*
X1494632Y16036384D01*
X1237872Y16098826D01*
X1230643Y16104111D01*
X1229268Y16112960D01*
X1232163Y16118262D01*
X1419001Y16314444D01*
X1427187Y16318071D01*
X1434529Y16315706D01*
G37*
%TD.AperFunction*%
%TD*%
%TA.AperFunction,Conductor*%
%TO.N,GND*%
G36*
X4971452Y22610329D02*
G01*
X5078913Y22571106D01*
X5085508Y22565051D01*
X5086600Y22560116D01*
X5086600Y22424085D01*
X5083173Y22415812D01*
X5078912Y22413094D01*
X4971452Y22373872D01*
X4962505Y22374255D01*
X4962021Y22374494D01*
X4756839Y22481731D01*
X4751094Y22488600D01*
X4751889Y22497519D01*
X4756839Y22502469D01*
X4867137Y22560116D01*
X4962021Y22609708D01*
X4970940Y22610502D01*
X4971452Y22610329D01*
G37*
%TD.AperFunction*%
%TD*%
%TA.AperFunction,Conductor*%
%TO.N,GND*%
G36*
X3889263Y21512249D02*
G01*
X3891981Y21507988D01*
X3931203Y21400529D01*
X3930820Y21391582D01*
X3930581Y21391098D01*
X3823344Y21185916D01*
X3816475Y21180171D01*
X3807556Y21180966D01*
X3802606Y21185916D01*
X3695368Y21391098D01*
X3694573Y21400017D01*
X3694746Y21400529D01*
X3733969Y21507988D01*
X3740025Y21514584D01*
X3744960Y21515676D01*
X3880990Y21515676D01*
X3889263Y21512249D01*
G37*
%TD.AperFunction*%
%TD*%
%TA.AperFunction,Conductor*%
%TO.N,GND*%
G36*
X9795501Y19141773D02*
G01*
X9797518Y19139068D01*
X9913515Y18924675D01*
X9914438Y18915767D01*
X9910859Y18910240D01*
X9725634Y18750773D01*
X9717128Y18747973D01*
X9710366Y18750773D01*
X9525140Y18910240D01*
X9521107Y18918235D01*
X9522484Y18924675D01*
X9638482Y19139068D01*
X9645433Y19144713D01*
X9648772Y19145200D01*
X9787228Y19145200D01*
X9795501Y19141773D01*
G37*
%TD.AperFunction*%
%TD*%
%TA.AperFunction,Conductor*%
%TO.N,GND*%
G36*
X9725634Y19349228D02*
G01*
X9910859Y19189762D01*
X9914892Y19181767D01*
X9913515Y19175327D01*
X9797518Y18960932D01*
X9790568Y18955287D01*
X9787228Y18954800D01*
X9648772Y18954800D01*
X9640499Y18958227D01*
X9638482Y18960932D01*
X9522484Y19175327D01*
X9521561Y19184235D01*
X9525138Y19189760D01*
X9710366Y19349229D01*
X9718872Y19352028D01*
X9725634Y19349228D01*
G37*
%TD.AperFunction*%
%TD*%
%TA.AperFunction,Conductor*%
%TO.N,GND*%
G36*
X10206888Y17588819D02*
G01*
X10210315Y17580546D01*
X10210305Y17580070D01*
X10206713Y17491780D01*
X10206673Y17491176D01*
X10198480Y17402829D01*
X10192263Y17329372D01*
X10194158Y17273865D01*
X10194159Y17273862D01*
X10206990Y17246342D01*
X10207380Y17237396D01*
X10205031Y17233515D01*
X10021260Y17031982D01*
X10013154Y17028177D01*
X10004732Y17031220D01*
X10001465Y17036323D01*
X9937026Y17239276D01*
X9919759Y17293660D01*
X9920521Y17302583D01*
X9924781Y17307166D01*
X9950696Y17323097D01*
X9988141Y17364779D01*
X10022873Y17425088D01*
X10048443Y17501689D01*
X10057254Y17581826D01*
X10061565Y17589674D01*
X10068884Y17592246D01*
X10198615Y17592246D01*
X10206888Y17588819D01*
G37*
%TD.AperFunction*%
%TD*%
%TA.AperFunction,Conductor*%
%TO.N,GND*%
G36*
X6213494Y22209896D02*
G01*
X6213978Y22209657D01*
X6419160Y22102419D01*
X6424905Y22095550D01*
X6424110Y22086631D01*
X6419160Y22081681D01*
X6213978Y21974444D01*
X6205059Y21973649D01*
X6204547Y21973822D01*
X6097088Y22013044D01*
X6090492Y22019100D01*
X6089400Y22024035D01*
X6089400Y22160066D01*
X6092827Y22168339D01*
X6097084Y22171055D01*
X6204547Y22210279D01*
X6213494Y22209896D01*
G37*
%TD.AperFunction*%
%TD*%
%TA.AperFunction,Conductor*%
%TO.N,GND*%
G36*
X7395320Y24771522D02*
G01*
X7492732Y24674110D01*
X7495964Y24667965D01*
X7528309Y24493135D01*
X7526444Y24484377D01*
X7521485Y24480284D01*
X7308263Y24387209D01*
X7299310Y24387040D01*
X7293855Y24391431D01*
X7171424Y24574661D01*
X7169678Y24583443D01*
X7173400Y24589923D01*
X7379299Y24772015D01*
X7387764Y24774927D01*
X7395320Y24771522D01*
G37*
%TD.AperFunction*%
%TD*%
%TA.AperFunction,Conductor*%
%TO.N,GND*%
G36*
X4207501Y20462573D02*
G01*
X4209518Y20459868D01*
X4325515Y20245475D01*
X4326438Y20236567D01*
X4322859Y20231040D01*
X4137634Y20071573D01*
X4129128Y20068773D01*
X4122366Y20071573D01*
X3937140Y20231040D01*
X3933107Y20239035D01*
X3934484Y20245475D01*
X4050482Y20459868D01*
X4057433Y20465513D01*
X4060772Y20466000D01*
X4199228Y20466000D01*
X4207501Y20462573D01*
G37*
%TD.AperFunction*%
%TD*%
%TA.AperFunction,Conductor*%
%TO.N,GND*%
G36*
X9786451Y3611707D02*
G01*
X9834961Y3565926D01*
X9852267Y3549593D01*
X9852276Y3549586D01*
X9921729Y3492638D01*
X9921737Y3492631D01*
X9984007Y3451221D01*
X10025821Y3432684D01*
X10036512Y3427944D01*
X10036513Y3427944D01*
X10036516Y3427943D01*
X10065751Y3426087D01*
X10068249Y3425928D01*
X10076289Y3421984D01*
X10078821Y3417236D01*
X10086557Y3387905D01*
X10086558Y3387905D01*
X10093309Y3362311D01*
X10093308Y3362310D01*
X10147546Y3156682D01*
X10146343Y3147808D01*
X10139217Y3142385D01*
X10133249Y3142385D01*
X9872695Y3211110D01*
X9865569Y3216533D01*
X9864003Y3221682D01*
X9861988Y3253415D01*
X9861986Y3253421D01*
X9838710Y3305924D01*
X9832411Y3315394D01*
X9832410Y3315396D01*
X9816427Y3339430D01*
X9816428Y3339430D01*
X9797300Y3368194D01*
X9797293Y3368202D01*
X9757088Y3417236D01*
X9740338Y3437664D01*
X9724005Y3454970D01*
X9678224Y3503480D01*
X9675038Y3511848D01*
X9678459Y3519782D01*
X9770149Y3611472D01*
X9778421Y3614898D01*
X9786451Y3611707D01*
G37*
%TD.AperFunction*%
%TD*%
%TA.AperFunction,Conductor*%
%TO.N,GND*%
G36*
X9726460Y3804997D02*
G01*
X9731233Y3802023D01*
X9932532Y3676626D01*
X9937742Y3669343D01*
X9937435Y3662962D01*
X9887258Y3513910D01*
X9884442Y3509370D01*
X9786941Y3411869D01*
X9778668Y3408442D01*
X9770395Y3411869D01*
X9578338Y3606198D01*
X9574960Y3614491D01*
X9577252Y3621377D01*
X9710870Y3802024D01*
X9718543Y3806636D01*
X9726460Y3804997D01*
G37*
%TD.AperFunction*%
%TD*%
%TA.AperFunction,Conductor*%
%TO.N,GND*%
G36*
X7368444Y23403185D02*
G01*
X7373394Y23398235D01*
X7480631Y23193053D01*
X7481426Y23184134D01*
X7481253Y23183622D01*
X7442031Y23076162D01*
X7435975Y23069566D01*
X7431040Y23068474D01*
X7295010Y23068474D01*
X7286737Y23071901D01*
X7284019Y23076162D01*
X7244796Y23183622D01*
X7245179Y23192569D01*
X7245418Y23193053D01*
X7352656Y23398235D01*
X7359525Y23403980D01*
X7368444Y23403185D01*
G37*
%TD.AperFunction*%
%TD*%
%TA.AperFunction,Conductor*%
%TO.N,GND*%
G36*
X2945522Y24575807D02*
G01*
X3102200Y24397728D01*
X3105092Y24389254D01*
X3102200Y24382272D01*
X2945294Y24203935D01*
X2937256Y24199987D01*
X2931970Y24200880D01*
X2685160Y24304786D01*
X2678865Y24311154D01*
X2678000Y24315569D01*
X2678000Y24452750D01*
X2681427Y24461023D01*
X2684749Y24463351D01*
X2931791Y24578682D01*
X2940735Y24579075D01*
X2945522Y24575807D01*
G37*
%TD.AperFunction*%
%TD*%
%TA.AperFunction,Conductor*%
%TO.N,GND*%
G36*
X2838180Y24595419D02*
G01*
X2842781Y24591245D01*
X2859188Y24565387D01*
X2901716Y24528589D01*
X2901718Y24528587D01*
X2963014Y24494696D01*
X2963016Y24494695D01*
X2963020Y24494693D01*
X2971862Y24491863D01*
X3040640Y24469848D01*
X3040647Y24469847D01*
X3077777Y24465932D01*
X3121646Y24461305D01*
X3129514Y24457030D01*
X3132119Y24449670D01*
X3132119Y24319951D01*
X3128692Y24311678D01*
X3120419Y24308251D01*
X3119978Y24308259D01*
X3030955Y24311618D01*
X3030410Y24311652D01*
X2941486Y24319174D01*
X2867469Y24324546D01*
X2811655Y24321844D01*
X2784092Y24308566D01*
X2775151Y24308063D01*
X2771216Y24310385D01*
X2568225Y24491863D01*
X2564341Y24499931D01*
X2567301Y24508383D01*
X2572367Y24511699D01*
X2829251Y24596093D01*
X2838180Y24595419D01*
G37*
%TD.AperFunction*%
%TD*%
%TA.AperFunction,Conductor*%
%TO.N,GND*%
G36*
X1894141Y24668939D02*
G01*
X1898426Y24664893D01*
X2027721Y24458429D01*
X2029208Y24449598D01*
X2025531Y24443433D01*
X1847660Y24287016D01*
X1839185Y24284126D01*
X1832720Y24286591D01*
X1832177Y24287016D01*
X1760944Y24342808D01*
X1636486Y24440287D01*
X1632086Y24448086D01*
X1632000Y24449498D01*
X1632000Y24587420D01*
X1635427Y24595693D01*
X1640430Y24598654D01*
X1885242Y24669917D01*
X1894141Y24668939D01*
G37*
%TD.AperFunction*%
%TD*%
%TA.AperFunction,Conductor*%
%TO.N,GND*%
G36*
X1534756Y24669918D02*
G01*
X1779570Y24598654D01*
X1786556Y24593051D01*
X1788000Y24587420D01*
X1788000Y24449498D01*
X1784573Y24441225D01*
X1783514Y24440287D01*
X1587278Y24286591D01*
X1578652Y24284188D01*
X1572338Y24287016D01*
X1394468Y24443433D01*
X1390518Y24451470D01*
X1392277Y24458428D01*
X1521575Y24664895D01*
X1528868Y24670086D01*
X1534756Y24669918D01*
G37*
%TD.AperFunction*%
%TD*%
%TA.AperFunction,Conductor*%
%TO.N,GND*%
G36*
X6093787Y13621906D02*
G01*
X6094220Y13621494D01*
X6185978Y13529736D01*
X6189405Y13521463D01*
X6186947Y13514288D01*
X6139260Y13452863D01*
X6107436Y13381411D01*
X6107434Y13381403D01*
X6093838Y13314688D01*
X6093837Y13314673D01*
X6094503Y13259291D01*
X6094503Y13259288D01*
X6102861Y13230757D01*
X6101898Y13221854D01*
X6097385Y13217279D01*
X5863290Y13085133D01*
X5854400Y13084051D01*
X5847349Y13089570D01*
X5845839Y13095454D01*
X5849002Y13369994D01*
X5852524Y13378226D01*
X5856210Y13380662D01*
X5883566Y13392025D01*
X5921422Y13431139D01*
X5965681Y13488342D01*
X5965698Y13488329D01*
X5965719Y13488392D01*
X6019121Y13556614D01*
X6019644Y13557235D01*
X6077262Y13621061D01*
X6085350Y13624906D01*
X6093787Y13621906D01*
G37*
%TD.AperFunction*%
%TD*%
%TA.AperFunction,Conductor*%
%TO.N,GND*%
G36*
X9947198Y18784435D02*
G01*
X9951473Y18778994D01*
X10069612Y18470525D01*
X10069371Y18461573D01*
X10066959Y18458067D01*
X9970847Y18361955D01*
X9962574Y18358528D01*
X9956826Y18360037D01*
X9637790Y18539986D01*
X9632268Y18547036D01*
X9632836Y18554907D01*
X9714789Y18740246D01*
X9721268Y18746424D01*
X9723379Y18747020D01*
X9938444Y18786318D01*
X9947198Y18784435D01*
G37*
%TD.AperFunction*%
%TD*%
%TA.AperFunction,Conductor*%
%TO.N,GND*%
G36*
X3665955Y7131173D02*
G01*
X3667630Y7129058D01*
X3784204Y6940731D01*
X3785645Y6931893D01*
X3784229Y6928455D01*
X3597973Y6624856D01*
X3590726Y6619596D01*
X3581882Y6621001D01*
X3578027Y6624856D01*
X3576817Y6626828D01*
X3391768Y6928458D01*
X3390364Y6937299D01*
X3391791Y6940726D01*
X3508369Y7129059D01*
X3515637Y7134289D01*
X3518317Y7134600D01*
X3657682Y7134600D01*
X3665955Y7131173D01*
G37*
%TD.AperFunction*%
%TD*%
%TA.AperFunction,Conductor*%
%TO.N,GND*%
G36*
X3684264Y7386558D02*
G01*
X3687818Y7381642D01*
X3781730Y7134999D01*
X3784802Y7126933D01*
X3784544Y7117982D01*
X3780741Y7113302D01*
X3755938Y7095299D01*
X3755931Y7095292D01*
X3722836Y7050284D01*
X3693388Y6986375D01*
X3672277Y6906401D01*
X3667020Y6845756D01*
X3665215Y6824919D01*
X3665127Y6823909D01*
X3660999Y6815962D01*
X3653471Y6813219D01*
X3523757Y6813219D01*
X3515484Y6816646D01*
X3512057Y6824919D01*
X3512060Y6825174D01*
X3514018Y6915095D01*
X3517671Y7004872D01*
X3518254Y7079267D01*
X3511265Y7134998D01*
X3496118Y7161838D01*
X3495037Y7170726D01*
X3497228Y7174966D01*
X3667806Y7384858D01*
X3675682Y7389116D01*
X3684264Y7386558D01*
G37*
%TD.AperFunction*%
%TD*%
%TA.AperFunction,Conductor*%
%TO.N,GND*%
G36*
X7663494Y23009996D02*
G01*
X7663978Y23009757D01*
X7869160Y22902519D01*
X7874905Y22895650D01*
X7874110Y22886731D01*
X7869160Y22881781D01*
X7663978Y22774544D01*
X7655059Y22773749D01*
X7654547Y22773922D01*
X7547088Y22813144D01*
X7540492Y22819200D01*
X7539400Y22824135D01*
X7539400Y22960166D01*
X7542827Y22968439D01*
X7547084Y22971155D01*
X7654547Y23010379D01*
X7663494Y23009996D01*
G37*
%TD.AperFunction*%
%TD*%
%TA.AperFunction,Conductor*%
%TO.N,GND*%
G36*
X1220705Y16090247D02*
G01*
X1223428Y16084893D01*
X1279511Y15822893D01*
X1277892Y15814086D01*
X1272813Y15809749D01*
X1246483Y15798073D01*
X1246476Y15798069D01*
X1203585Y15764238D01*
X1161814Y15713144D01*
X1130151Y15645817D01*
X1119112Y15573251D01*
X1114480Y15565588D01*
X1107545Y15563311D01*
X977732Y15563311D01*
X969459Y15566738D01*
X966032Y15575011D01*
X966060Y15575814D01*
X970875Y15645819D01*
X971850Y15659997D01*
X971988Y15661149D01*
X986461Y15745319D01*
X986525Y15745655D01*
X1000777Y15815841D01*
X1006544Y15869549D01*
X997835Y15897259D01*
X998624Y15906178D01*
X1001191Y15909481D01*
X1204185Y16091163D01*
X1212634Y16094126D01*
X1220705Y16090247D01*
G37*
%TD.AperFunction*%
%TD*%
%TA.AperFunction,Conductor*%
%TO.N,GND*%
G36*
X6464926Y20208573D02*
G01*
X6465407Y20208062D01*
X6637439Y20014054D01*
X6640364Y20005591D01*
X6637816Y19998976D01*
X6492814Y19818007D01*
X6484966Y19813694D01*
X6478979Y19814610D01*
X6265597Y19908313D01*
X6259400Y19914777D01*
X6258775Y19921034D01*
X6307825Y20202311D01*
X6312622Y20209871D01*
X6319351Y20212000D01*
X6456653Y20212000D01*
X6464926Y20208573D01*
G37*
%TD.AperFunction*%
%TD*%
%TA.AperFunction,Conductor*%
%TO.N,GND*%
G36*
X6391605Y20459611D02*
G01*
X6395823Y20455393D01*
X6531356Y20222750D01*
X6532559Y20213876D01*
X6529833Y20208913D01*
X6511532Y20189141D01*
X6491168Y20142920D01*
X6491167Y20142916D01*
X6475514Y20079587D01*
X6465463Y20002109D01*
X6462365Y19924717D01*
X6458610Y19916587D01*
X6450674Y19913485D01*
X6320756Y19913485D01*
X6312483Y19916912D01*
X6309065Y19924717D01*
X6305966Y20002107D01*
X6295916Y20079578D01*
X6280261Y20142917D01*
X6259895Y20189141D01*
X6241595Y20208914D01*
X6238492Y20217311D01*
X6240072Y20222747D01*
X6375605Y20455392D01*
X6382731Y20460814D01*
X6391605Y20459611D01*
G37*
%TD.AperFunction*%
%TD*%
%TA.AperFunction,Conductor*%
%TO.N,GND*%
G36*
X8945609Y24977219D02*
G01*
X8947892Y24975889D01*
X9178445Y24841574D01*
X9183868Y24834448D01*
X9182665Y24825574D01*
X9178445Y24821354D01*
X8945611Y24685711D01*
X8936737Y24684508D01*
X8931991Y24687039D01*
X8908123Y24708057D01*
X8908121Y24708058D01*
X8908122Y24708058D01*
X8854543Y24728722D01*
X8854537Y24728724D01*
X8781233Y24743473D01*
X8781212Y24743476D01*
X8691821Y24752319D01*
X8601362Y24754936D01*
X8593191Y24758601D01*
X8590000Y24766631D01*
X8590000Y24896298D01*
X8593427Y24904571D01*
X8601361Y24907993D01*
X8691821Y24910611D01*
X8781219Y24919455D01*
X8854537Y24934206D01*
X8908123Y24954873D01*
X8931991Y24975890D01*
X8940462Y24978784D01*
X8945609Y24977219D01*
G37*
%TD.AperFunction*%
%TD*%
%TA.AperFunction,Conductor*%
%TO.N,GND*%
G36*
X2182353Y24666846D02*
G01*
X2460815Y24560514D01*
X2467320Y24554363D01*
X2467570Y24545411D01*
X2464913Y24541312D01*
X2369912Y24446311D01*
X2226390Y24281910D01*
X2218367Y24277932D01*
X2209881Y24280791D01*
X2209511Y24281129D01*
X2038325Y24444016D01*
X2034694Y24452201D01*
X2036571Y24458854D01*
X2089993Y24541312D01*
X2168363Y24662278D01*
X2175736Y24667357D01*
X2182353Y24666846D01*
G37*
%TD.AperFunction*%
%TD*%
%TA.AperFunction,Conductor*%
%TO.N,GND*%
G36*
X2308894Y24657173D02*
G01*
X2538010Y24515917D01*
X2543254Y24508660D01*
X2541829Y24499819D01*
X2537501Y24495703D01*
X2300894Y24365782D01*
X2291993Y24364804D01*
X2287226Y24367535D01*
X2280815Y24373595D01*
X2264336Y24389171D01*
X2264334Y24389172D01*
X2212103Y24411907D01*
X2212098Y24411908D01*
X2140301Y24429106D01*
X2140282Y24429109D01*
X2052490Y24439997D01*
X2052479Y24439998D01*
X1963479Y24443374D01*
X1955342Y24447112D01*
X1952223Y24455066D01*
X1952223Y24584746D01*
X1955650Y24593019D01*
X1963673Y24596443D01*
X2053975Y24598351D01*
X2143445Y24605267D01*
X2216993Y24617645D01*
X2270981Y24636178D01*
X2295314Y24656241D01*
X2303875Y24658859D01*
X2308894Y24657173D01*
G37*
%TD.AperFunction*%
%TD*%
%TA.AperFunction,Conductor*%
%TO.N,GND*%
G36*
X3521452Y21810229D02*
G01*
X3628913Y21771006D01*
X3635508Y21764951D01*
X3636600Y21760016D01*
X3636600Y21623985D01*
X3633173Y21615712D01*
X3628912Y21612994D01*
X3521452Y21573772D01*
X3512505Y21574155D01*
X3512021Y21574394D01*
X3306839Y21681631D01*
X3301094Y21688500D01*
X3301889Y21697419D01*
X3306839Y21702369D01*
X3417137Y21760016D01*
X3512021Y21809608D01*
X3520940Y21810402D01*
X3521452Y21810229D01*
G37*
%TD.AperFunction*%
%TD*%
%TA.AperFunction,Conductor*%
%TO.N,GND*%
G36*
X3175666Y15630973D02*
G01*
X3178087Y15627447D01*
X3287701Y15380522D01*
X3287925Y15371570D01*
X3284735Y15366991D01*
X3106528Y15210200D01*
X3098054Y15207308D01*
X3091072Y15210200D01*
X2912864Y15366991D01*
X2908916Y15375029D01*
X2909897Y15380520D01*
X3019513Y15627448D01*
X3026002Y15633618D01*
X3030207Y15634400D01*
X3167393Y15634400D01*
X3175666Y15630973D01*
G37*
%TD.AperFunction*%
%TD*%
%TA.AperFunction,Conductor*%
%TO.N,GND*%
G36*
X3011347Y15734446D02*
G01*
X3016188Y15729463D01*
X3201423Y15538809D01*
X3204730Y15530487D01*
X3202840Y15524278D01*
X3199050Y15518450D01*
X3196424Y15514411D01*
X3187246Y15486700D01*
X3187245Y15486696D01*
X3180529Y15450067D01*
X3176405Y15405613D01*
X3176404Y15405603D01*
X3176404Y15405595D01*
X3176084Y15393913D01*
X3175312Y15365757D01*
X3171659Y15357581D01*
X3163616Y15354378D01*
X3031978Y15354378D01*
X3023705Y15357805D01*
X3020559Y15363531D01*
X3013782Y15393913D01*
X2991894Y15422889D01*
X2991890Y15422893D01*
X2963782Y15442831D01*
X2946349Y15450714D01*
X2936293Y15455261D01*
X2936290Y15455262D01*
X2936288Y15455263D01*
X2936278Y15455267D01*
X2927011Y15458249D01*
X2920185Y15464045D01*
X2919333Y15472557D01*
X2991695Y15729464D01*
X2997237Y15736497D01*
X3006129Y15737553D01*
X3011347Y15734446D01*
G37*
%TD.AperFunction*%
%TD*%
%TA.AperFunction,Conductor*%
%TO.N,GND*%
G36*
X6920995Y14244047D02*
G01*
X6996446Y14219372D01*
X7003244Y14213544D01*
X7003929Y14204615D01*
X6998101Y14197817D01*
X6996446Y14197132D01*
X6646138Y14082573D01*
X6638156Y14082830D01*
X6522455Y14129110D01*
X6516046Y14135364D01*
X6515100Y14139973D01*
X6515100Y14276531D01*
X6518527Y14284804D01*
X6522455Y14287394D01*
X6638157Y14333676D01*
X6646136Y14333932D01*
X6920995Y14244047D01*
G37*
%TD.AperFunction*%
%TD*%
%TA.AperFunction,Conductor*%
%TO.N,GND*%
G36*
X5551507Y24283072D02*
G01*
X5554929Y24275137D01*
X5557545Y24184678D01*
X5566388Y24095287D01*
X5566391Y24095266D01*
X5581140Y24021962D01*
X5581142Y24021956D01*
X5601806Y23968377D01*
X5601807Y23968376D01*
X5622824Y23944509D01*
X5625719Y23936037D01*
X5624153Y23930888D01*
X5488510Y23698054D01*
X5481384Y23692631D01*
X5472510Y23693834D01*
X5468290Y23698054D01*
X5332646Y23930888D01*
X5331443Y23939762D01*
X5333972Y23944507D01*
X5354991Y23968376D01*
X5375658Y24021962D01*
X5390409Y24095280D01*
X5399253Y24184678D01*
X5401871Y24275138D01*
X5405536Y24283308D01*
X5413566Y24286499D01*
X5543234Y24286499D01*
X5551507Y24283072D01*
G37*
%TD.AperFunction*%
%TD*%
%TA.AperFunction,Conductor*%
%TO.N,GND*%
G36*
X3818394Y21153187D02*
G01*
X3823344Y21148237D01*
X3930581Y20943055D01*
X3931376Y20934136D01*
X3931203Y20933624D01*
X3891981Y20826164D01*
X3885925Y20819568D01*
X3880990Y20818476D01*
X3744960Y20818476D01*
X3736687Y20821903D01*
X3733969Y20826164D01*
X3694746Y20933624D01*
X3695129Y20942571D01*
X3695368Y20943055D01*
X3802606Y21148237D01*
X3809475Y21153982D01*
X3818394Y21153187D01*
G37*
%TD.AperFunction*%
%TD*%
%TA.AperFunction,Conductor*%
%TO.N,GND*%
G36*
X9665021Y17004774D02*
G01*
X9829185Y16950868D01*
X9833807Y16948026D01*
X9930225Y16851608D01*
X9933652Y16843335D01*
X9930225Y16835062D01*
X9929135Y16834099D01*
X9703031Y16658257D01*
X9694396Y16655883D01*
X9688656Y16658264D01*
X9498462Y16806480D01*
X9494043Y16814269D01*
X9496425Y16822901D01*
X9496837Y16823400D01*
X9652570Y17001363D01*
X9660596Y17005331D01*
X9665021Y17004774D01*
G37*
%TD.AperFunction*%
%TD*%
%TA.AperFunction,Conductor*%
%TO.N,GND*%
G36*
X9988431Y17018878D02*
G01*
X9996547Y17015094D01*
X9999611Y17006680D01*
X9997811Y17000936D01*
X9854001Y16773483D01*
X9846683Y16768322D01*
X9841944Y16768239D01*
X9824534Y16771523D01*
X9787705Y16765500D01*
X9740399Y16754341D01*
X9739882Y16754232D01*
X9683394Y16743575D01*
X9682078Y16743403D01*
X9628953Y16739518D01*
X9620452Y16742332D01*
X9616431Y16750334D01*
X9616400Y16751187D01*
X9616400Y16882198D01*
X9619827Y16890471D01*
X9624854Y16893439D01*
X9657909Y16902973D01*
X9684364Y16932523D01*
X9699206Y16970095D01*
X9705873Y17006137D01*
X9706931Y17019817D01*
X9710986Y17027801D01*
X9719102Y17030603D01*
X9988431Y17018878D01*
G37*
%TD.AperFunction*%
%TD*%
%TA.AperFunction,Conductor*%
%TO.N,GND*%
G36*
X9948443Y14360013D02*
G01*
X9953235Y14356061D01*
X10137382Y14093972D01*
X10139335Y14085233D01*
X10136082Y14078973D01*
X10039991Y13982882D01*
X10031718Y13979455D01*
X10028809Y13979822D01*
X9954746Y13998830D01*
X9951155Y14000435D01*
X9946677Y14003427D01*
X9903223Y14012071D01*
X9902598Y14012213D01*
X9670435Y14071795D01*
X9663273Y14077171D01*
X9662010Y14086036D01*
X9662111Y14086405D01*
X9715664Y14269928D01*
X9721271Y14276907D01*
X9722713Y14277575D01*
X9939493Y14360267D01*
X9948443Y14360013D01*
G37*
%TD.AperFunction*%
%TD*%
%TA.AperFunction,Conductor*%
%TO.N,GND*%
G36*
X2846090Y13141773D02*
G01*
X2848114Y13139056D01*
X2903200Y13036920D01*
X2979828Y12894841D01*
X2980739Y12885933D01*
X2977393Y12880623D01*
X2801742Y12721226D01*
X2793312Y12718204D01*
X2786151Y12721106D01*
X2607513Y12878276D01*
X2603565Y12886314D01*
X2604186Y12890890D01*
X2689671Y13137335D01*
X2695620Y13144028D01*
X2700725Y13145200D01*
X2837817Y13145200D01*
X2846090Y13141773D01*
G37*
%TD.AperFunction*%
%TD*%
%TA.AperFunction,Conductor*%
%TO.N,GND*%
G36*
X2900806Y13306647D02*
G01*
X2904053Y13301528D01*
X2984601Y13043999D01*
X2983800Y13035080D01*
X2979499Y13030501D01*
X2953564Y13014779D01*
X2915852Y12973463D01*
X2915848Y12973458D01*
X2880759Y12913570D01*
X2854887Y12837409D01*
X2854886Y12837407D01*
X2845963Y12757638D01*
X2841638Y12749797D01*
X2834336Y12747239D01*
X2704601Y12747239D01*
X2696328Y12750666D01*
X2692901Y12758939D01*
X2692911Y12759429D01*
X2696601Y12847432D01*
X2696645Y12848063D01*
X2705120Y12936113D01*
X2711695Y13009357D01*
X2711696Y13009368D01*
X2710144Y13064741D01*
X2697501Y13092245D01*
X2697161Y13101191D01*
X2699518Y13105046D01*
X2884274Y13305956D01*
X2892396Y13309725D01*
X2900806Y13306647D01*
G37*
%TD.AperFunction*%
%TD*%
%TA.AperFunction,Conductor*%
%TO.N,GND*%
G36*
X10248222Y12397529D02*
G01*
X10251649Y12389256D01*
X10251598Y12388162D01*
X10243810Y12305257D01*
X10243525Y12303568D01*
X10223394Y12221363D01*
X10223194Y12220644D01*
X10201694Y12152104D01*
X10189086Y12099182D01*
X10189086Y12099181D01*
X10194325Y12070757D01*
X10192455Y12061999D01*
X10189795Y12059243D01*
X9972919Y11898172D01*
X9964234Y11895990D01*
X9956550Y11900589D01*
X9954332Y11906126D01*
X9921333Y12172622D01*
X9923717Y12181252D01*
X9929446Y12185222D01*
X9956204Y12193598D01*
X10003076Y12220887D01*
X10049938Y12264397D01*
X10085983Y12324347D01*
X10098605Y12391421D01*
X10103503Y12398916D01*
X10110103Y12400956D01*
X10239949Y12400956D01*
X10248222Y12397529D01*
G37*
%TD.AperFunction*%
%TD*%
%TA.AperFunction,Conductor*%
%TO.N,GND*%
G36*
X1195287Y14649021D02*
G01*
X1390066Y14550818D01*
X1531185Y14479669D01*
X1537030Y14472885D01*
X1536746Y14464791D01*
X1461014Y14279732D01*
X1454709Y14273373D01*
X1452765Y14272751D01*
X1237261Y14224051D01*
X1228436Y14225570D01*
X1224045Y14230590D01*
X1083357Y14537674D01*
X1083028Y14546621D01*
X1085720Y14550816D01*
X1181751Y14646847D01*
X1190023Y14650273D01*
X1195287Y14649021D01*
G37*
%TD.AperFunction*%
%TD*%
%TA.AperFunction,Conductor*%
%TO.N,GND*%
G36*
X4359563Y20115232D02*
G01*
X4363954Y20110212D01*
X4504641Y19803129D01*
X4504971Y19794180D01*
X4502277Y19789983D01*
X4406249Y19693955D01*
X4397976Y19690528D01*
X4392709Y19691781D01*
X4056814Y19861132D01*
X4050969Y19867916D01*
X4051253Y19876010D01*
X4126986Y20061071D01*
X4133290Y20067428D01*
X4135229Y20068049D01*
X4350740Y20116751D01*
X4359563Y20115232D01*
G37*
%TD.AperFunction*%
%TD*%
%TA.AperFunction,Conductor*%
%TO.N,GND*%
G36*
X4205516Y20079821D02*
G01*
X4208537Y20074603D01*
X4227003Y20006297D01*
X4278388Y19954002D01*
X4312471Y19937572D01*
X4343812Y19922463D01*
X4343813Y19922463D01*
X4343817Y19922461D01*
X4406751Y19907767D01*
X4440672Y19906415D01*
X4448802Y19902661D01*
X4451825Y19896096D01*
X4483280Y19629732D01*
X4480847Y19621114D01*
X4473033Y19616741D01*
X4467027Y19617617D01*
X4214124Y19726696D01*
X4207885Y19733119D01*
X4207210Y19735560D01*
X4201668Y19769710D01*
X4164555Y19823202D01*
X4115822Y19891103D01*
X4114867Y19892683D01*
X4108190Y19906017D01*
X4073000Y19976293D01*
X4071938Y19979516D01*
X4056198Y20069533D01*
X4058149Y20078273D01*
X4065708Y20083073D01*
X4067723Y20083248D01*
X4197243Y20083248D01*
X4205516Y20079821D01*
G37*
%TD.AperFunction*%
%TD*%
%TA.AperFunction,Conductor*%
%TO.N,GND*%
G36*
X7890337Y14459261D02*
G01*
X8071224Y14313596D01*
X8075519Y14305738D01*
X8074599Y14299779D01*
X7980909Y14086425D01*
X7974445Y14080228D01*
X7968121Y14079615D01*
X7686825Y14130318D01*
X7679290Y14135158D01*
X7677200Y14141832D01*
X7677200Y14279167D01*
X7680627Y14287440D01*
X7681166Y14287946D01*
X7701364Y14305738D01*
X7875266Y14458928D01*
X7883738Y14461825D01*
X7890337Y14459261D01*
G37*
%TD.AperFunction*%
%TD*%
%TA.AperFunction,Conductor*%
%TO.N,GND*%
G36*
X7420742Y14333676D02*
G01*
X7536445Y14287394D01*
X7542854Y14281140D01*
X7543800Y14276531D01*
X7543800Y14139973D01*
X7540373Y14131700D01*
X7536445Y14129110D01*
X7420743Y14082830D01*
X7412761Y14082573D01*
X7062452Y14197133D01*
X7055655Y14202960D01*
X7054970Y14211889D01*
X7060798Y14218687D01*
X7062450Y14219372D01*
X7412763Y14333932D01*
X7420742Y14333676D01*
G37*
%TD.AperFunction*%
%TD*%
%TA.AperFunction,Conductor*%
%TO.N,GND*%
G36*
X9589756Y11922503D02*
G01*
X9776568Y11816901D01*
X9779082Y11814990D01*
X9874644Y11719428D01*
X9878071Y11711155D01*
X9874644Y11702882D01*
X9871959Y11700876D01*
X9593775Y11549637D01*
X9584870Y11548696D01*
X9579566Y11552006D01*
X9441130Y11702882D01*
X9419580Y11726369D01*
X9416513Y11734781D01*
X9419397Y11741983D01*
X9575197Y11920023D01*
X9583223Y11923991D01*
X9589756Y11922503D01*
G37*
%TD.AperFunction*%
%TD*%
%TA.AperFunction,Conductor*%
%TO.N,GND*%
G36*
X9938159Y11892309D02*
G01*
X9945303Y11886910D01*
X9946537Y11878041D01*
X9943537Y11872763D01*
X9750564Y11677424D01*
X9742312Y11673947D01*
X9737945Y11674764D01*
X9711743Y11685107D01*
X9659469Y11683623D01*
X9659446Y11683621D01*
X9590787Y11674230D01*
X9590684Y11674216D01*
X9508229Y11663684D01*
X9507368Y11663606D01*
X9425521Y11659255D01*
X9417078Y11662238D01*
X9413216Y11670318D01*
X9413200Y11670939D01*
X9413200Y11800792D01*
X9416627Y11809065D01*
X9423314Y11812384D01*
X9495789Y11822301D01*
X9495791Y11822302D01*
X9495792Y11822302D01*
X9516788Y11831104D01*
X9564135Y11850951D01*
X9616798Y11889075D01*
X9652341Y11928796D01*
X9665061Y11953843D01*
X9671863Y11959667D01*
X9678436Y11959867D01*
X9938159Y11892309D01*
G37*
%TD.AperFunction*%
%TD*%
%TA.AperFunction,Conductor*%
%TO.N,GND*%
G36*
X5757665Y23608560D02*
G01*
X5764791Y23603137D01*
X5766357Y23597991D01*
X5768152Y23569704D01*
X5768372Y23566251D01*
X5791648Y23513747D01*
X5833061Y23451476D01*
X5833063Y23451473D01*
X5890023Y23382006D01*
X5890027Y23382002D01*
X5952137Y23316189D01*
X5955323Y23307821D01*
X5951901Y23299886D01*
X5860213Y23208198D01*
X5851940Y23204771D01*
X5843910Y23207962D01*
X5778097Y23270072D01*
X5778093Y23270076D01*
X5708626Y23327036D01*
X5708623Y23327038D01*
X5646352Y23368451D01*
X5593848Y23391727D01*
X5590395Y23391947D01*
X5562109Y23393742D01*
X5554071Y23397685D01*
X5551539Y23402434D01*
X5538604Y23451473D01*
X5482815Y23662988D01*
X5484018Y23671861D01*
X5491144Y23677284D01*
X5497112Y23677284D01*
X5757665Y23608560D01*
G37*
%TD.AperFunction*%
%TD*%
%TA.AperFunction,Conductor*%
%TO.N,-5V*%
G36*
X3491806Y20462573D02*
G01*
X3492637Y20461649D01*
X3650299Y20266338D01*
X3652829Y20257748D01*
X3650071Y20251366D01*
X3496557Y20072635D01*
X3488566Y20068592D01*
X3481471Y20070342D01*
X3274913Y20199696D01*
X3269720Y20206991D01*
X3269810Y20212596D01*
X3334424Y20457288D01*
X3339849Y20464411D01*
X3345736Y20466000D01*
X3483533Y20466000D01*
X3491806Y20462573D01*
G37*
%TD.AperFunction*%
%TD*%
%TA.AperFunction,Conductor*%
%TO.N,-5V*%
G36*
X3312214Y20566493D02*
G01*
X3503748Y20371010D01*
X3507090Y20362703D01*
X3505662Y20357219D01*
X3497731Y20342680D01*
X3491361Y20307856D01*
X3491360Y20307843D01*
X3488959Y20261908D01*
X3488794Y20206503D01*
X3489064Y20154836D01*
X3485680Y20146545D01*
X3477425Y20143075D01*
X3346473Y20143075D01*
X3338200Y20146502D01*
X3334965Y20152663D01*
X3327257Y20194662D01*
X3303589Y20234966D01*
X3272816Y20264517D01*
X3242055Y20283827D01*
X3242049Y20283830D01*
X3228041Y20289517D01*
X3221664Y20295805D01*
X3221166Y20303480D01*
X3222375Y20307845D01*
X3292581Y20561428D01*
X3298091Y20568486D01*
X3306979Y20569581D01*
X3312214Y20566493D01*
G37*
%TD.AperFunction*%
%TD*%
%TA.AperFunction,Conductor*%
%TO.N,-5V*%
G36*
X4537234Y14832868D02*
G01*
X4538712Y14831979D01*
X4593628Y14793190D01*
X4595151Y14791907D01*
X4690511Y14696547D01*
X4693938Y14688274D01*
X4690511Y14680001D01*
X4687283Y14677718D01*
X4537789Y14606275D01*
X4529736Y14605524D01*
X4183873Y14697552D01*
X4176759Y14702991D01*
X4175574Y14711867D01*
X4181013Y14718981D01*
X4183224Y14719973D01*
X4528305Y14833537D01*
X4537234Y14832868D01*
G37*
%TD.AperFunction*%
%TD*%
%TA.AperFunction,Conductor*%
%TO.N,-5V*%
G36*
X3418344Y21153187D02*
G01*
X3423294Y21148237D01*
X3530531Y20943055D01*
X3531326Y20934136D01*
X3531153Y20933624D01*
X3491931Y20826164D01*
X3485875Y20819568D01*
X3480940Y20818476D01*
X3344910Y20818476D01*
X3336637Y20821903D01*
X3333919Y20826164D01*
X3294696Y20933624D01*
X3295079Y20942571D01*
X3295318Y20943055D01*
X3402556Y21148237D01*
X3409425Y21153982D01*
X3418344Y21153187D01*
G37*
%TD.AperFunction*%
%TD*%
%TA.AperFunction,Conductor*%
%TO.N,-5V*%
G36*
X3485289Y21158513D02*
G01*
X3488716Y21150240D01*
X3488709Y21149838D01*
X3485627Y21060111D01*
X3485601Y21059635D01*
X3478859Y20970040D01*
X3476416Y20928466D01*
X3474480Y20895514D01*
X3478116Y20839410D01*
X3491895Y20811826D01*
X3492526Y20802894D01*
X3490237Y20798897D01*
X3311341Y20594262D01*
X3303315Y20590289D01*
X3294831Y20593154D01*
X3291458Y20598187D01*
X3221013Y20804805D01*
X3204052Y20854555D01*
X3204626Y20863491D01*
X3208698Y20868106D01*
X3234475Y20885042D01*
X3270508Y20928469D01*
X3303428Y20990821D01*
X3327434Y21069508D01*
X3335667Y21151410D01*
X3339904Y21159299D01*
X3347308Y21161940D01*
X3477016Y21161940D01*
X3485289Y21158513D01*
G37*
%TD.AperFunction*%
%TD*%
%TA.AperFunction,Conductor*%
%TO.N,-5V*%
G36*
X7941426Y24381695D02*
G01*
X7943854Y24378952D01*
X8062508Y24192777D01*
X8064064Y24183959D01*
X8060035Y24177422D01*
X7903277Y24049589D01*
X7843478Y24000823D01*
X7842504Y24000029D01*
X7835110Y23997396D01*
X7699339Y23997396D01*
X7691066Y24000823D01*
X7687639Y24009096D01*
X7687662Y24009835D01*
X7698683Y24183959D01*
X7709370Y24352820D01*
X7713313Y24360858D01*
X7719918Y24363724D01*
X7932861Y24384310D01*
X7941426Y24381695D01*
G37*
%TD.AperFunction*%
%TD*%
%TA.AperFunction,Conductor*%
%TO.N,-5V*%
G36*
X7839363Y23762247D02*
G01*
X7842081Y23757986D01*
X7881303Y23650527D01*
X7880920Y23641580D01*
X7880681Y23641096D01*
X7773444Y23435914D01*
X7766575Y23430169D01*
X7757656Y23430964D01*
X7752706Y23435914D01*
X7645468Y23641096D01*
X7644673Y23650015D01*
X7644846Y23650527D01*
X7684069Y23757986D01*
X7690125Y23764582D01*
X7695060Y23765674D01*
X7831090Y23765674D01*
X7839363Y23762247D01*
G37*
%TD.AperFunction*%
%TD*%
%TA.AperFunction,Conductor*%
%TO.N,-5V*%
G36*
X8169611Y24434648D02*
G01*
X8174017Y24429684D01*
X8317637Y24123234D01*
X8318045Y24114289D01*
X8315316Y24109996D01*
X8219297Y24013977D01*
X8211024Y24010550D01*
X8205831Y24011766D01*
X7867817Y24179185D01*
X7861924Y24185927D01*
X7862163Y24194056D01*
X7937014Y24379075D01*
X7943292Y24385457D01*
X7945206Y24386080D01*
X8160779Y24436116D01*
X8169611Y24434648D01*
G37*
%TD.AperFunction*%
%TD*%
%TA.AperFunction,Conductor*%
%TO.N,-5V*%
G36*
X8074348Y24363037D02*
G01*
X8122858Y24317256D01*
X8140164Y24300923D01*
X8140173Y24300916D01*
X8209626Y24243968D01*
X8209634Y24243961D01*
X8271904Y24202551D01*
X8313718Y24184014D01*
X8324409Y24179274D01*
X8324410Y24179274D01*
X8324413Y24179273D01*
X8353648Y24177417D01*
X8356146Y24177258D01*
X8364186Y24173314D01*
X8366718Y24168566D01*
X8435443Y23908012D01*
X8434240Y23899138D01*
X8427114Y23893715D01*
X8421146Y23893715D01*
X8160592Y23962440D01*
X8153466Y23967863D01*
X8151900Y23973012D01*
X8149885Y24004745D01*
X8149883Y24004751D01*
X8126607Y24057254D01*
X8085197Y24119524D01*
X8085190Y24119532D01*
X8044985Y24168566D01*
X8028235Y24188994D01*
X8011902Y24206300D01*
X7966121Y24254810D01*
X7962935Y24263178D01*
X7966356Y24271112D01*
X8058046Y24362802D01*
X8066318Y24366228D01*
X8074348Y24363037D01*
G37*
%TD.AperFunction*%
%TD*%
%TA.AperFunction,Conductor*%
%TO.N,-5V*%
G36*
X5430954Y15736787D02*
G01*
X5436377Y15729661D01*
X5436377Y15723693D01*
X5367653Y15463140D01*
X5362230Y15456014D01*
X5357081Y15454448D01*
X5325348Y15452434D01*
X5325342Y15452432D01*
X5272839Y15429156D01*
X5210567Y15387743D01*
X5210559Y15387737D01*
X5141093Y15330777D01*
X5075282Y15268667D01*
X5066914Y15265481D01*
X5058979Y15268903D01*
X4967290Y15360592D01*
X4963863Y15368865D01*
X4967052Y15376892D01*
X5029169Y15442711D01*
X5086128Y15512178D01*
X5127541Y15574452D01*
X5150818Y15626957D01*
X5150818Y15626960D01*
X5150819Y15626962D01*
X5152834Y15658693D01*
X5156778Y15666733D01*
X5161524Y15669265D01*
X5422083Y15737990D01*
X5430954Y15736787D01*
G37*
%TD.AperFunction*%
%TD*%
%TA.AperFunction,Conductor*%
%TO.N,-5V*%
G36*
X3484706Y14784952D02*
G01*
X3492862Y14781253D01*
X3496020Y14773258D01*
X3496020Y14636871D01*
X3492777Y14628786D01*
X3303633Y14430925D01*
X3295439Y14427313D01*
X3288416Y14429461D01*
X3105590Y14558886D01*
X3100817Y14566463D01*
X3101636Y14573138D01*
X3195616Y14787151D01*
X3202079Y14793346D01*
X3206711Y14794139D01*
X3484706Y14784952D01*
G37*
%TD.AperFunction*%
%TD*%
%TA.AperFunction,Conductor*%
%TO.N,-5V*%
G36*
X4038095Y14744173D02*
G01*
X4113546Y14719498D01*
X4120344Y14713670D01*
X4121029Y14704741D01*
X4115201Y14697943D01*
X4113546Y14697258D01*
X3763238Y14582699D01*
X3755256Y14582956D01*
X3639555Y14629236D01*
X3633146Y14635490D01*
X3632200Y14640099D01*
X3632200Y14776657D01*
X3635627Y14784930D01*
X3639555Y14787520D01*
X3755257Y14833802D01*
X3763236Y14834058D01*
X4038095Y14744173D01*
G37*
%TD.AperFunction*%
%TD*%
%TA.AperFunction,Conductor*%
%TO.N,+5V*%
G36*
X9593775Y11310365D02*
G01*
X9871959Y11159125D01*
X9877591Y11152163D01*
X9876650Y11143258D01*
X9874644Y11140573D01*
X9779082Y11045011D01*
X9776567Y11043099D01*
X9589759Y10937499D01*
X9580870Y10936411D01*
X9575196Y10939979D01*
X9419397Y11118018D01*
X9416528Y11126501D01*
X9419580Y11133632D01*
X9579568Y11307998D01*
X9587684Y11311775D01*
X9593775Y11310365D01*
G37*
%TD.AperFunction*%
%TD*%
%TA.AperFunction,Conductor*%
%TO.N,+5V*%
G36*
X9425494Y11200747D02*
G01*
X9507375Y11196396D01*
X9508226Y11196319D01*
X9590685Y11185786D01*
X9659463Y11176380D01*
X9711744Y11174896D01*
X9737946Y11185238D01*
X9746899Y11185088D01*
X9750564Y11182578D01*
X9943537Y10987238D01*
X9946914Y10978944D01*
X9943437Y10970692D01*
X9938159Y10967692D01*
X9678438Y10900135D01*
X9669569Y10901369D01*
X9665061Y10906160D01*
X9664700Y10906871D01*
X9652341Y10931206D01*
X9616799Y10970927D01*
X9616798Y10970928D01*
X9616796Y10970930D01*
X9564137Y11009049D01*
X9564136Y11009050D01*
X9495793Y11037700D01*
X9423314Y11047617D01*
X9415582Y11052134D01*
X9413200Y11059209D01*
X9413200Y11189062D01*
X9416627Y11197335D01*
X9424900Y11200762D01*
X9425494Y11200747D01*
G37*
%TD.AperFunction*%
%TD*%
%TA.AperFunction,Conductor*%
%TO.N,+5V*%
G36*
X3756553Y24384939D02*
G01*
X3962757Y24256486D01*
X3967967Y24249203D01*
X3967760Y24243136D01*
X3922941Y24096465D01*
X3920025Y24091611D01*
X3822530Y23994116D01*
X3814257Y23990689D01*
X3806053Y23994047D01*
X3611121Y24185741D01*
X3607625Y24193985D01*
X3609848Y24200944D01*
X3740892Y24381871D01*
X3748521Y24386560D01*
X3756553Y24384939D01*
G37*
%TD.AperFunction*%
%TD*%
%TA.AperFunction,Conductor*%
%TO.N,+5V*%
G36*
X6968394Y21153187D02*
G01*
X6973344Y21148237D01*
X7080581Y20943055D01*
X7081376Y20934136D01*
X7081203Y20933624D01*
X7041981Y20826164D01*
X7035925Y20819568D01*
X7030990Y20818476D01*
X6894960Y20818476D01*
X6886687Y20821903D01*
X6883969Y20826164D01*
X6844746Y20933624D01*
X6845129Y20942571D01*
X6845368Y20943055D01*
X6952606Y21148237D01*
X6959475Y21153982D01*
X6968394Y21153187D01*
G37*
%TD.AperFunction*%
%TD*%
%TA.AperFunction,Conductor*%
%TO.N,+5V*%
G36*
X7037292Y20871806D02*
G01*
X7040603Y20865179D01*
X7051155Y20790894D01*
X7081475Y20721401D01*
X7081476Y20721400D01*
X7103469Y20692268D01*
X7121699Y20668122D01*
X7163393Y20632425D01*
X7189634Y20619773D01*
X7195598Y20613093D01*
X7195933Y20606517D01*
X7133659Y20345710D01*
X7128405Y20338459D01*
X7119562Y20337047D01*
X7114250Y20339916D01*
X6915296Y20527606D01*
X6911630Y20535776D01*
X6912288Y20540001D01*
X6921999Y20567549D01*
X6918127Y20621469D01*
X6905849Y20692201D01*
X6905815Y20692417D01*
X6892902Y20777106D01*
X6892790Y20778147D01*
X6887545Y20862810D01*
X6890454Y20871279D01*
X6898500Y20875211D01*
X6899223Y20875233D01*
X7029019Y20875233D01*
X7037292Y20871806D01*
G37*
%TD.AperFunction*%
%TD*%
%TA.AperFunction,Conductor*%
%TO.N,+5V*%
G36*
X3754145Y24382569D02*
G01*
X3876574Y24199342D01*
X3878321Y24190559D01*
X3874597Y24184078D01*
X3668703Y24001988D01*
X3660236Y23999074D01*
X3652679Y24002479D01*
X3555267Y24099891D01*
X3552035Y24106035D01*
X3519690Y24280866D01*
X3521555Y24289624D01*
X3526512Y24293716D01*
X3739738Y24386793D01*
X3748689Y24386961D01*
X3754145Y24382569D01*
G37*
%TD.AperFunction*%
%TD*%
%TA.AperFunction,Conductor*%
%TO.N,+5V*%
G36*
X9919090Y1586814D02*
G01*
X10165534Y1501329D01*
X10172228Y1495380D01*
X10173400Y1490275D01*
X10173400Y1353184D01*
X10169973Y1344911D01*
X10167254Y1342886D01*
X9923039Y1211172D01*
X9914131Y1210261D01*
X9908821Y1213607D01*
X9789668Y1344911D01*
X9749424Y1389259D01*
X9746403Y1397688D01*
X9749304Y1404848D01*
X9906477Y1583488D01*
X9914513Y1587435D01*
X9919090Y1586814D01*
G37*
%TD.AperFunction*%
%TD*%
%TA.AperFunction,Conductor*%
%TO.N,+5V*%
G36*
X10368009Y1568155D02*
G01*
X10600845Y1432511D01*
X10606268Y1425385D01*
X10605065Y1416511D01*
X10600845Y1412291D01*
X10441844Y1319660D01*
X10414000Y1303439D01*
X10411302Y1301867D01*
X10411299Y1301871D01*
X10411268Y1301848D01*
X10405660Y1298581D01*
X10405659Y1298580D01*
X10368011Y1276647D01*
X10359138Y1275444D01*
X10354390Y1277976D01*
X10351841Y1280221D01*
X10330523Y1298993D01*
X10330521Y1298994D01*
X10330522Y1298994D01*
X10276943Y1319658D01*
X10276937Y1319660D01*
X10203633Y1334409D01*
X10203612Y1334412D01*
X10114221Y1343255D01*
X10023762Y1345872D01*
X10015591Y1349537D01*
X10012400Y1357567D01*
X10012400Y1487234D01*
X10015827Y1495507D01*
X10023761Y1498929D01*
X10114221Y1501547D01*
X10203619Y1510391D01*
X10276937Y1525142D01*
X10330523Y1545809D01*
X10354390Y1566826D01*
X10362864Y1569720D01*
X10368009Y1568155D01*
G37*
%TD.AperFunction*%
%TD*%
%TA.AperFunction,Conductor*%
%TO.N,+5V*%
G36*
X7204701Y20208573D02*
G01*
X7206718Y20205868D01*
X7322715Y19991475D01*
X7323638Y19982567D01*
X7320059Y19977040D01*
X7134834Y19817573D01*
X7126328Y19814773D01*
X7119566Y19817573D01*
X6934340Y19977040D01*
X6930307Y19985035D01*
X6931684Y19991475D01*
X7047682Y20205868D01*
X7054633Y20211513D01*
X7057972Y20212000D01*
X7196428Y20212000D01*
X7204701Y20208573D01*
G37*
%TD.AperFunction*%
%TD*%
%TA.AperFunction,Conductor*%
%TO.N,+5V*%
G36*
X7134804Y20314884D02*
G01*
X7139009Y20310649D01*
X7273604Y20077718D01*
X7274776Y20068840D01*
X7271778Y20063622D01*
X7256011Y20047738D01*
X7256008Y20047733D01*
X7235706Y20008514D01*
X7218959Y19954587D01*
X7207589Y19888309D01*
X7204007Y19823059D01*
X7200132Y19814986D01*
X7192325Y19812000D01*
X7062102Y19812000D01*
X7053829Y19815427D01*
X7050418Y19823087D01*
X7046984Y19888532D01*
X7046984Y19888536D01*
X7036035Y19955058D01*
X7019803Y20009228D01*
X6999937Y20048703D01*
X6984308Y20064754D01*
X6980992Y20073072D01*
X6982600Y20078837D01*
X7118792Y20310722D01*
X7125935Y20316119D01*
X7134804Y20314884D01*
G37*
%TD.AperFunction*%
%TD*%
%TA.AperFunction,Conductor*%
%TO.N,+5V*%
G36*
X4222362Y23787751D02*
G01*
X4224380Y23785045D01*
X4297237Y23650361D01*
X4298159Y23641454D01*
X4297900Y23640684D01*
X4222892Y23440782D01*
X4216777Y23434240D01*
X4207828Y23433938D01*
X4201585Y23439442D01*
X4095412Y23641139D01*
X4094591Y23650056D01*
X4094740Y23650504D01*
X4108268Y23688599D01*
X4111017Y23692952D01*
X4205817Y23787752D01*
X4214089Y23791178D01*
X4222362Y23787751D01*
G37*
%TD.AperFunction*%
%TD*%
%TA.AperFunction,Conductor*%
%TO.N,+5V*%
G36*
X1280052Y11819921D02*
G01*
X1491926Y11677244D01*
X1553452Y11635812D01*
X1558400Y11628348D01*
X1557318Y11620750D01*
X1461670Y11435047D01*
X1454836Y11429261D01*
X1452259Y11428746D01*
X1238343Y11410582D01*
X1229809Y11413297D01*
X1225896Y11419869D01*
X1223952Y11429261D01*
X1165577Y11711359D01*
X1167256Y11720155D01*
X1168756Y11721998D01*
X1265247Y11818489D01*
X1273519Y11821915D01*
X1280052Y11819921D01*
G37*
%TD.AperFunction*%
%TD*%
%TA.AperFunction,Conductor*%
%TO.N,+5V*%
G36*
X1217670Y11921254D02*
G01*
X1457628Y11798864D01*
X1463441Y11792052D01*
X1463439Y11784825D01*
X1457997Y11768082D01*
X1457995Y11768073D01*
X1453986Y11729316D01*
X1453986Y11729313D01*
X1458777Y11682802D01*
X1458780Y11682790D01*
X1476649Y11633274D01*
X1476651Y11633270D01*
X1499572Y11602178D01*
X1505909Y11593583D01*
X1508060Y11584890D01*
X1504765Y11578367D01*
X1412407Y11486009D01*
X1404134Y11482582D01*
X1395861Y11486009D01*
X1395845Y11486025D01*
X1355293Y11526734D01*
X1333905Y11547596D01*
X1311870Y11569089D01*
X1311862Y11569096D01*
X1311858Y11569100D01*
X1274002Y11602178D01*
X1273987Y11602190D01*
X1241763Y11623465D01*
X1223603Y11628186D01*
X1216458Y11633584D01*
X1214863Y11638898D01*
X1212566Y11682802D01*
X1200670Y11910221D01*
X1203660Y11918661D01*
X1211743Y11922515D01*
X1217670Y11921254D01*
G37*
%TD.AperFunction*%
%TD*%
%TA.AperFunction,Conductor*%
%TO.N,+5V*%
G36*
X4720353Y24683407D02*
G01*
X4720550Y24683205D01*
X4767319Y24634125D01*
X4767510Y24633921D01*
X4814693Y24581975D01*
X4820432Y24575994D01*
X4854997Y24539971D01*
X4889366Y24512079D01*
X4889367Y24512079D01*
X4889368Y24512078D01*
X4889367Y24512078D01*
X4902864Y24507652D01*
X4911004Y24504982D01*
X4917797Y24499148D01*
X4919051Y24494257D01*
X4928202Y24221466D01*
X4925055Y24213083D01*
X4916901Y24209381D01*
X4910994Y24210755D01*
X4818578Y24260150D01*
X4673700Y24337584D01*
X4668019Y24344506D01*
X4668040Y24351371D01*
X4674580Y24372430D01*
X4677377Y24417206D01*
X4669406Y24471034D01*
X4653045Y24512079D01*
X4646509Y24528476D01*
X4646506Y24528481D01*
X4646506Y24528482D01*
X4610648Y24575996D01*
X4608401Y24584662D01*
X4611714Y24591314D01*
X4703808Y24683408D01*
X4712080Y24686834D01*
X4720353Y24683407D01*
G37*
%TD.AperFunction*%
%TD*%
%TA.AperFunction,Conductor*%
%TO.N,+5V*%
G36*
X2987506Y23961961D02*
G01*
X3014589Y23947260D01*
X3070447Y23941361D01*
X3144888Y23943177D01*
X3144902Y23943178D01*
X3144913Y23943178D01*
X3189182Y23945477D01*
X3234550Y23947831D01*
X3234812Y23947842D01*
X3324616Y23950164D01*
X3332974Y23946952D01*
X3336614Y23938770D01*
X3336618Y23938468D01*
X3336618Y23810274D01*
X3333191Y23802001D01*
X3324918Y23798574D01*
X3277868Y23798574D01*
X3233267Y23789702D01*
X3233262Y23789700D01*
X3227172Y23785631D01*
X3223799Y23784085D01*
X3164140Y23767543D01*
X3164132Y23767540D01*
X3100730Y23736958D01*
X3100729Y23736958D01*
X3056231Y23702903D01*
X3038573Y23677783D01*
X3031011Y23672986D01*
X3024963Y23673531D01*
X2769715Y23767401D01*
X2763133Y23773473D01*
X2762772Y23782420D01*
X2766263Y23787370D01*
X2974444Y23960671D01*
X2982991Y23963328D01*
X2987506Y23961961D01*
G37*
%TD.AperFunction*%
%TD*%
%TA.AperFunction,Conductor*%
%TO.N,VTC*%
G36*
X9392600Y2513203D02*
G01*
X9397359Y2505618D01*
X9397522Y2503517D01*
X9391613Y2040175D01*
X9388081Y2031946D01*
X9385461Y2030023D01*
X9354567Y2013386D01*
X9354562Y2013383D01*
X9301971Y1958960D01*
X9300139Y1957064D01*
X9243005Y1870332D01*
X9205459Y1777792D01*
X9197909Y1759184D01*
X9181022Y1639682D01*
X9176471Y1631970D01*
X9169437Y1629619D01*
X9039872Y1629619D01*
X9031599Y1633046D01*
X9028172Y1641319D01*
X9028209Y1642251D01*
X9038980Y1777101D01*
X9039174Y1778473D01*
X9065905Y1910045D01*
X9066056Y1910689D01*
X9095151Y2019304D01*
X9113713Y2096535D01*
X9109396Y2129461D01*
X9111459Y2137754D01*
X9376287Y2510444D01*
X9383871Y2515202D01*
X9392600Y2513203D01*
G37*
%TD.AperFunction*%
%TD*%
%TA.AperFunction,Conductor*%
%TO.N,VTC*%
G36*
X9180901Y1793573D02*
G01*
X9182918Y1790868D01*
X9298915Y1576475D01*
X9299838Y1567567D01*
X9296259Y1562040D01*
X9111034Y1402573D01*
X9102528Y1399773D01*
X9095766Y1402573D01*
X8910540Y1562040D01*
X8906507Y1570035D01*
X8907884Y1576475D01*
X9023882Y1790868D01*
X9030833Y1796513D01*
X9034172Y1797000D01*
X9172628Y1797000D01*
X9180901Y1793573D01*
G37*
%TD.AperFunction*%
%TD*%
%TA.AperFunction,Conductor*%
%TO.N,VTC*%
G36*
X9085634Y3804428D02*
G01*
X9270859Y3644962D01*
X9274892Y3636967D01*
X9273515Y3630527D01*
X9157518Y3416132D01*
X9150568Y3410487D01*
X9147228Y3410000D01*
X9008772Y3410000D01*
X9000499Y3413427D01*
X8998482Y3416132D01*
X8882484Y3630527D01*
X8881561Y3639435D01*
X8885138Y3644960D01*
X9070366Y3804429D01*
X9078872Y3807228D01*
X9085634Y3804428D01*
G37*
%TD.AperFunction*%
%TD*%
%TA.AperFunction,Conductor*%
%TO.N,VTC*%
G36*
X9152434Y3429982D02*
G01*
X9155725Y3423486D01*
X9173690Y3306585D01*
X9173690Y3306584D01*
X9173691Y3306582D01*
X9221574Y3198873D01*
X9281964Y3115615D01*
X9338973Y3062136D01*
X9362979Y3050453D01*
X9370440Y3046822D01*
X9376379Y3040121D01*
X9377010Y3036795D01*
X9396423Y2576381D01*
X9393347Y2567971D01*
X9385226Y2564198D01*
X9376816Y2567274D01*
X9375411Y2568819D01*
X9119129Y2907125D01*
X9096393Y2937137D01*
X9096499Y2938508D01*
X9096333Y2940148D01*
X9099263Y2974699D01*
X9080463Y3040121D01*
X9077499Y3050437D01*
X9073659Y3062942D01*
X9044837Y3156814D01*
X9044627Y3157597D01*
X9015024Y3286610D01*
X9014777Y3288164D01*
X9002938Y3420670D01*
X9005615Y3429213D01*
X9013551Y3433363D01*
X9014592Y3433409D01*
X9144161Y3433409D01*
X9152434Y3429982D01*
G37*
%TD.AperFunction*%
%TD*%
%TA.AperFunction,Conductor*%
%TO.N,CF_A*%
G36*
X1774914Y19197201D02*
G01*
X1866603Y19105512D01*
X1870030Y19097239D01*
X1866839Y19089209D01*
X1804729Y19023398D01*
X1747769Y18953932D01*
X1747763Y18953924D01*
X1706350Y18891652D01*
X1683074Y18839149D01*
X1683072Y18839143D01*
X1681058Y18807410D01*
X1677114Y18799370D01*
X1672366Y18796838D01*
X1411813Y18728114D01*
X1402939Y18729317D01*
X1397516Y18736443D01*
X1397516Y18742407D01*
X1466241Y19002966D01*
X1471664Y19010091D01*
X1476812Y19011657D01*
X1480890Y19011916D01*
X1508544Y19013672D01*
X1508546Y19013673D01*
X1508549Y19013673D01*
X1561054Y19036950D01*
X1623324Y19078360D01*
X1623325Y19078362D01*
X1623328Y19078363D01*
X1692795Y19135322D01*
X1758614Y19197439D01*
X1766979Y19200623D01*
X1774914Y19197201D01*
G37*
%TD.AperFunction*%
%TD*%
%TA.AperFunction,Conductor*%
%TO.N,CF_A*%
G36*
X3359525Y3024058D02*
G01*
X3615917Y2838548D01*
X3620611Y2830922D01*
X3620701Y2827901D01*
X3589504Y2516843D01*
X3585268Y2508954D01*
X3581011Y2506743D01*
X3403349Y2457094D01*
X3394459Y2458167D01*
X3388932Y2465213D01*
X3388500Y2468362D01*
X3388500Y2728705D01*
X3388500Y2728706D01*
X3374052Y2763584D01*
X3353622Y2812909D01*
X3252310Y2914221D01*
X3248884Y2922493D01*
X3252310Y2930765D01*
X3344397Y3022852D01*
X3352669Y3026278D01*
X3359525Y3024058D01*
G37*
%TD.AperFunction*%
%TD*%
%TA.AperFunction,Conductor*%
%TO.N,CF_A*%
G36*
X3063494Y22209896D02*
G01*
X3063978Y22209657D01*
X3269160Y22102419D01*
X3274905Y22095550D01*
X3274110Y22086631D01*
X3269160Y22081681D01*
X3063978Y21974444D01*
X3055059Y21973649D01*
X3054547Y21973822D01*
X2947088Y22013044D01*
X2940492Y22019100D01*
X2939400Y22024035D01*
X2939400Y22160066D01*
X2942827Y22168339D01*
X2947084Y22171055D01*
X3054547Y22210279D01*
X3063494Y22209896D01*
G37*
%TD.AperFunction*%
%TD*%
%TA.AperFunction,Conductor*%
%TO.N,CF_A*%
G36*
X2528851Y10303291D02*
G01*
X2576690Y10289244D01*
X2602381Y10281700D01*
X2670069Y10281700D01*
X2672195Y10281505D01*
X2679276Y10280197D01*
X2696688Y10276978D01*
X2700756Y10275398D01*
X2782341Y10224433D01*
X2825403Y10197532D01*
X2830604Y10190242D01*
X2829127Y10181410D01*
X2827477Y10179336D01*
X2736246Y10088105D01*
X2727973Y10084678D01*
X2722470Y10086053D01*
X2616231Y10142674D01*
X2616230Y10142674D01*
X2492452Y10137704D01*
X2378007Y10094078D01*
X2377998Y10094073D01*
X2292100Y10038806D01*
X2259108Y10004290D01*
X2250914Y10000677D01*
X2246889Y10001295D01*
X1812672Y10148697D01*
X1805940Y10154601D01*
X1805354Y10163537D01*
X1811258Y10170269D01*
X1813199Y10171020D01*
X2255576Y10298075D01*
X2261221Y10298276D01*
X2303918Y10289244D01*
X2407886Y10299882D01*
X2408634Y10299933D01*
X2525184Y10303758D01*
X2528851Y10303291D01*
G37*
%TD.AperFunction*%
%TD*%
%TA.AperFunction,Conductor*%
%TO.N,CF_A*%
G36*
X3665955Y9031173D02*
G01*
X3667630Y9029058D01*
X3784204Y8840731D01*
X3785645Y8831893D01*
X3784229Y8828455D01*
X3597973Y8524856D01*
X3590726Y8519596D01*
X3581882Y8521001D01*
X3578027Y8524856D01*
X3391770Y8828455D01*
X3390365Y8837299D01*
X3391795Y8840731D01*
X3508370Y9029058D01*
X3515638Y9034289D01*
X3518318Y9034600D01*
X3657682Y9034600D01*
X3665955Y9031173D01*
G37*
%TD.AperFunction*%
%TD*%
%TA.AperFunction,Conductor*%
%TO.N,CF_A*%
G36*
X3397825Y8588423D02*
G01*
X3580361Y8513723D01*
X3586720Y8507418D01*
X3587530Y8501368D01*
X3546844Y8192207D01*
X3542367Y8184452D01*
X3538466Y8182487D01*
X3307084Y8116196D01*
X3298187Y8117211D01*
X3295589Y8119170D01*
X3198797Y8215962D01*
X3195370Y8224235D01*
X3196720Y8229690D01*
X3383048Y8583052D01*
X3389937Y8588771D01*
X3397825Y8588423D01*
G37*
%TD.AperFunction*%
%TD*%
%TA.AperFunction,Conductor*%
%TO.N,CF_B*%
G36*
X8121452Y22610329D02*
G01*
X8228913Y22571106D01*
X8235508Y22565051D01*
X8236600Y22560116D01*
X8236600Y22424085D01*
X8233173Y22415812D01*
X8228912Y22413094D01*
X8121452Y22373872D01*
X8112505Y22374255D01*
X8112021Y22374494D01*
X7906839Y22481731D01*
X7901094Y22488600D01*
X7901889Y22497519D01*
X7906839Y22502469D01*
X8017137Y22560116D01*
X8112021Y22609708D01*
X8120940Y22610502D01*
X8121452Y22610329D01*
G37*
%TD.AperFunction*%
%TD*%
%TA.AperFunction,Conductor*%
%TO.N,CF_B*%
G36*
X5681604Y14635117D02*
G01*
X5686809Y14627831D01*
X5686627Y14621859D01*
X5609720Y14362987D01*
X5604079Y14356032D01*
X5598744Y14354621D01*
X5567313Y14353976D01*
X5514202Y14333639D01*
X5451134Y14295630D01*
X5451126Y14295625D01*
X5401132Y14257092D01*
X5381269Y14241781D01*
X5381265Y14241778D01*
X5381258Y14241772D01*
X5334097Y14198229D01*
X5332486Y14196983D01*
X5311367Y14183409D01*
X5302555Y14181818D01*
X5296768Y14184978D01*
X5208150Y14273596D01*
X5204723Y14281869D01*
X5207990Y14289978D01*
X5270580Y14355051D01*
X5329259Y14422922D01*
X5372909Y14483350D01*
X5398364Y14534364D01*
X5401598Y14565682D01*
X5405856Y14573557D01*
X5410595Y14575876D01*
X5672771Y14636589D01*
X5681604Y14635117D01*
G37*
%TD.AperFunction*%
%TD*%
%TA.AperFunction,Conductor*%
%TO.N,CF_B*%
G36*
X9863352Y10363988D02*
G01*
X9895427Y10336540D01*
X9977522Y10295855D01*
X10085948Y10267997D01*
X10202679Y10274181D01*
X10301924Y10331164D01*
X10310805Y10332311D01*
X10316023Y10329290D01*
X10407408Y10237905D01*
X10410835Y10229632D01*
X10407408Y10221359D01*
X10405669Y10219926D01*
X10289766Y10141903D01*
X10286445Y10140359D01*
X10150235Y10101462D01*
X10148116Y10101063D01*
X10022149Y10089228D01*
X10021524Y10089186D01*
X9927654Y10085425D01*
X9891209Y10071466D01*
X9884937Y10070880D01*
X9498916Y10140868D01*
X9434085Y10152623D01*
X9426557Y10157469D01*
X9424661Y10166221D01*
X9429508Y10173750D01*
X9431321Y10174781D01*
X9850901Y10365746D01*
X9859850Y10366053D01*
X9863352Y10363988D01*
G37*
%TD.AperFunction*%
%TD*%
%TA.AperFunction,Conductor*%
%TO.N,CF_B*%
G36*
X8925301Y10308290D02*
G01*
X9192149Y10224754D01*
X9363331Y10171166D01*
X9370203Y10165424D01*
X9371002Y10156505D01*
X9365260Y10149633D01*
X9363331Y10148834D01*
X8925307Y10011713D01*
X8916388Y10012512D01*
X8915131Y10013274D01*
X8884700Y10034444D01*
X8884695Y10034446D01*
X8802776Y10054843D01*
X8802766Y10054845D01*
X8684631Y10070400D01*
X8540880Y10080316D01*
X8540844Y10080318D01*
X8393443Y10083550D01*
X8385247Y10087157D01*
X8382000Y10095247D01*
X8382000Y10224754D01*
X8385427Y10233027D01*
X8393442Y10236451D01*
X8540852Y10239684D01*
X8684634Y10249602D01*
X8802774Y10265159D01*
X8884699Y10285557D01*
X8915132Y10306728D01*
X8923879Y10308638D01*
X8925301Y10308290D01*
G37*
%TD.AperFunction*%
%TD*%
%TA.AperFunction,Conductor*%
%TO.N,SAWTOOTH_A*%
G36*
X3784971Y17643865D02*
G01*
X3940738Y17465863D01*
X3943607Y17457380D01*
X3940253Y17449932D01*
X3772969Y17280751D01*
X3764715Y17277277D01*
X3758697Y17278904D01*
X3492600Y17436152D01*
X3487221Y17443311D01*
X3488479Y17452177D01*
X3490275Y17454494D01*
X3586092Y17550311D01*
X3588978Y17552422D01*
X3770789Y17646551D01*
X3779709Y17647311D01*
X3784971Y17643865D01*
G37*
%TD.AperFunction*%
%TD*%
%TA.AperFunction,Conductor*%
%TO.N,SAWTOOTH_A*%
G36*
X3696355Y17691442D02*
G01*
X3697069Y17690954D01*
X3732766Y17664521D01*
X3815182Y17641596D01*
X3815757Y17641420D01*
X3909562Y17610061D01*
X3912653Y17608485D01*
X3987360Y17555043D01*
X3991629Y17549297D01*
X4018135Y17471414D01*
X4017556Y17462477D01*
X4010829Y17456568D01*
X4007059Y17455944D01*
X3878264Y17455944D01*
X3869991Y17459371D01*
X3867778Y17462454D01*
X3861348Y17475446D01*
X3846598Y17505248D01*
X3846597Y17505248D01*
X3787228Y17505137D01*
X3713639Y17475446D01*
X3646593Y17436020D01*
X3646579Y17436011D01*
X3615274Y17412921D01*
X3606582Y17410768D01*
X3599701Y17414436D01*
X3422020Y17608483D01*
X3417205Y17613742D01*
X3414145Y17622158D01*
X3417933Y17630272D01*
X3423246Y17633053D01*
X3687530Y17692956D01*
X3696355Y17691442D01*
G37*
%TD.AperFunction*%
%TD*%
%TA.AperFunction,Conductor*%
%TO.N,SAWTOOTH_A*%
G36*
X3954361Y17452389D02*
G01*
X4139407Y17294904D01*
X4143486Y17286932D01*
X4141079Y17278836D01*
X4017941Y17119643D01*
X4016959Y17118528D01*
X3920534Y17022103D01*
X3912261Y17018676D01*
X3903988Y17022103D01*
X3902114Y17024552D01*
X3758629Y17274549D01*
X3757482Y17283430D01*
X3760870Y17288998D01*
X3938876Y17452106D01*
X3947288Y17455168D01*
X3954361Y17452389D01*
G37*
%TD.AperFunction*%
%TD*%
%TA.AperFunction,Conductor*%
%TO.N,SAWTOOTH_A*%
G36*
X4223102Y16459329D02*
G01*
X4225692Y16455401D01*
X4270696Y16342890D01*
X4270587Y16333936D01*
X4268139Y16330304D01*
X4154856Y16216128D01*
X4146596Y16212669D01*
X4138309Y16216063D01*
X4138244Y16216128D01*
X4024960Y16330304D01*
X4021566Y16338591D01*
X4022402Y16342888D01*
X4067408Y16455401D01*
X4073662Y16461810D01*
X4078271Y16462756D01*
X4214829Y16462756D01*
X4223102Y16459329D01*
G37*
%TD.AperFunction*%
%TD*%
%TA.AperFunction,Conductor*%
%TO.N,SYNC_A*%
G36*
X4315955Y9031173D02*
G01*
X4317630Y9029058D01*
X4434204Y8840731D01*
X4435645Y8831893D01*
X4434229Y8828455D01*
X4247973Y8524856D01*
X4240726Y8519596D01*
X4231882Y8521001D01*
X4228027Y8524856D01*
X4041770Y8828455D01*
X4040365Y8837299D01*
X4041795Y8840731D01*
X4158370Y9029058D01*
X4165638Y9034289D01*
X4168318Y9034600D01*
X4307682Y9034600D01*
X4315955Y9031173D01*
G37*
%TD.AperFunction*%
%TD*%
%TA.AperFunction,Conductor*%
%TO.N,SYNC_A*%
G36*
X2947109Y10663861D02*
G01*
X2954235Y10658438D01*
X2955801Y10653292D01*
X2957596Y10625005D01*
X2957816Y10621552D01*
X2981092Y10569048D01*
X3020130Y10510347D01*
X3021197Y10508346D01*
X3025722Y10497422D01*
X3029178Y10489079D01*
X3029179Y10489078D01*
X3072303Y10445954D01*
X3073077Y10445100D01*
X3079467Y10437307D01*
X3079471Y10437303D01*
X3141581Y10371490D01*
X3144767Y10363122D01*
X3141345Y10355187D01*
X3049657Y10263499D01*
X3041384Y10260072D01*
X3033354Y10263263D01*
X2967541Y10325373D01*
X2967537Y10325377D01*
X2898070Y10382337D01*
X2898067Y10382339D01*
X2835796Y10423752D01*
X2783292Y10447028D01*
X2779839Y10447248D01*
X2751553Y10449043D01*
X2743515Y10452986D01*
X2740983Y10457735D01*
X2732715Y10489080D01*
X2672259Y10718289D01*
X2673462Y10727162D01*
X2680588Y10732585D01*
X2686556Y10732585D01*
X2947109Y10663861D01*
G37*
%TD.AperFunction*%
%TD*%
%TA.AperFunction,Conductor*%
%TO.N,VTH_A*%
G36*
X2410434Y16809228D02*
G01*
X2595659Y16649762D01*
X2599692Y16641767D01*
X2598315Y16635327D01*
X2482318Y16420932D01*
X2475368Y16415287D01*
X2472028Y16414800D01*
X2333572Y16414800D01*
X2325299Y16418227D01*
X2323282Y16420932D01*
X2207284Y16635327D01*
X2206361Y16644235D01*
X2209938Y16649760D01*
X2395166Y16809229D01*
X2403672Y16812028D01*
X2410434Y16809228D01*
G37*
%TD.AperFunction*%
%TD*%
%TA.AperFunction,Conductor*%
%TO.N,VTH_A*%
G36*
X2480301Y16601773D02*
G01*
X2482318Y16599068D01*
X2598315Y16384675D01*
X2599238Y16375767D01*
X2595659Y16370240D01*
X2410434Y16210773D01*
X2401928Y16207973D01*
X2395166Y16210773D01*
X2209940Y16370240D01*
X2205907Y16378235D01*
X2207284Y16384675D01*
X2323282Y16599068D01*
X2330233Y16604713D01*
X2333572Y16605200D01*
X2472028Y16605200D01*
X2480301Y16601773D01*
G37*
%TD.AperFunction*%
%TD*%
%TA.AperFunction,Conductor*%
%TO.N,VTH_A*%
G36*
X4970629Y22177422D02*
G01*
X4971252Y22177121D01*
X5080323Y22120083D01*
X5086065Y22113213D01*
X5086600Y22109716D01*
X5086600Y21976353D01*
X5083173Y21968080D01*
X5074900Y21964653D01*
X5074650Y21964656D01*
X4740538Y21971788D01*
X4732340Y21975390D01*
X4729091Y21983735D01*
X4729119Y21984339D01*
X4736456Y22084625D01*
X4740478Y22092624D01*
X4743956Y22094702D01*
X4961680Y22177678D01*
X4970629Y22177422D01*
G37*
%TD.AperFunction*%
%TD*%
%TA.AperFunction,Conductor*%
%TO.N,VTH_A*%
G36*
X2428437Y17230787D02*
G01*
X2429427Y17229903D01*
X2526728Y17132602D01*
X2528727Y17129931D01*
X2619900Y16962763D01*
X2620852Y16953859D01*
X2615814Y16947230D01*
X2410609Y16819399D01*
X2401775Y16817934D01*
X2395551Y16821702D01*
X2242155Y17000113D01*
X2239360Y17008621D01*
X2241868Y17015021D01*
X2411998Y17228915D01*
X2419829Y17233255D01*
X2428437Y17230787D01*
G37*
%TD.AperFunction*%
%TD*%
%TA.AperFunction,Conductor*%
%TO.N,VTH_A*%
G36*
X2472920Y15993773D02*
G01*
X2476347Y15985500D01*
X2476107Y15983142D01*
X2447535Y15844311D01*
X2446139Y15840702D01*
X2372695Y15716833D01*
X2371356Y15715004D01*
X2284967Y15618320D01*
X2284494Y15617822D01*
X2215873Y15549549D01*
X2215871Y15549547D01*
X2197734Y15513580D01*
X2193661Y15509037D01*
X1809453Y15259434D01*
X1800648Y15257800D01*
X1793268Y15262871D01*
X1791634Y15271676D01*
X1792255Y15273687D01*
X1968541Y15702631D01*
X1974854Y15708978D01*
X1978833Y15709868D01*
X2022185Y15711803D01*
X2112013Y15738549D01*
X2211959Y15792928D01*
X2293122Y15878094D01*
X2324201Y15988667D01*
X2329739Y15995703D01*
X2335465Y15997200D01*
X2464647Y15997200D01*
X2472920Y15993773D01*
G37*
%TD.AperFunction*%
%TD*%
%TA.AperFunction,Conductor*%
%TO.N,VTH_A*%
G36*
X2410332Y16198941D02*
G01*
X2547597Y16058842D01*
X2577475Y16028348D01*
X2580817Y16020040D01*
X2578834Y16013641D01*
X2422464Y15780591D01*
X2415008Y15775630D01*
X2406229Y15777394D01*
X2404475Y15778837D01*
X2307604Y15875708D01*
X2306128Y15877512D01*
X2192232Y16049174D01*
X2190513Y16057963D01*
X2195429Y16065337D01*
X2395427Y16200449D01*
X2404199Y16202240D01*
X2410332Y16198941D01*
G37*
%TD.AperFunction*%
%TD*%
%TA.AperFunction,Conductor*%
%TO.N,VTH_A*%
G36*
X3929187Y23423142D02*
G01*
X3933209Y23415141D01*
X3933237Y23414537D01*
X3940370Y23080424D01*
X3937121Y23072079D01*
X3928923Y23068477D01*
X3928673Y23068474D01*
X3795310Y23068474D01*
X3787037Y23071901D01*
X3784942Y23074752D01*
X3781976Y23080424D01*
X3727911Y23183809D01*
X3727115Y23192726D01*
X3727338Y23193373D01*
X3810323Y23411117D01*
X3816472Y23417626D01*
X3820399Y23418618D01*
X3920686Y23425956D01*
X3929187Y23423142D01*
G37*
%TD.AperFunction*%
%TD*%
%TA.AperFunction,Conductor*%
%TO.N,VTH_A*%
G36*
X4513494Y22209896D02*
G01*
X4513978Y22209657D01*
X4719160Y22102419D01*
X4724905Y22095550D01*
X4724110Y22086631D01*
X4719160Y22081681D01*
X4513978Y21974444D01*
X4505059Y21973649D01*
X4504547Y21973822D01*
X4397088Y22013044D01*
X4390492Y22019100D01*
X4389400Y22024035D01*
X4389400Y22160066D01*
X4392827Y22168339D01*
X4397084Y22171055D01*
X4504547Y22210279D01*
X4513494Y22209896D01*
G37*
%TD.AperFunction*%
%TD*%
%TA.AperFunction,Conductor*%
%TO.N,TRIANGLE_A*%
G36*
X5902521Y17460055D02*
G01*
X5910164Y17455388D01*
X5911331Y17453401D01*
X5996972Y17267944D01*
X5997329Y17258996D01*
X5992337Y17252987D01*
X5685531Y17070272D01*
X5676669Y17068983D01*
X5671271Y17072051D01*
X5581891Y17161431D01*
X5578464Y17169704D01*
X5580436Y17176204D01*
X5585304Y17183491D01*
X5636227Y17259701D01*
X5650900Y17333467D01*
X5650899Y17412625D01*
X5651506Y17416338D01*
X5674856Y17485897D01*
X5680737Y17492648D01*
X5687758Y17493731D01*
X5902521Y17460055D01*
G37*
%TD.AperFunction*%
%TD*%
%TA.AperFunction,Conductor*%
%TO.N,TRIANGLE_A*%
G36*
X5612777Y17203549D02*
G01*
X5614550Y17202094D01*
X5705938Y17110706D01*
X5709365Y17102433D01*
X5705938Y17094160D01*
X5705781Y17094005D01*
X5641017Y17031640D01*
X5640899Y17031529D01*
X5575457Y16970233D01*
X5523083Y16917443D01*
X5523075Y16917434D01*
X5489232Y16872611D01*
X5489230Y16872607D01*
X5481311Y16842815D01*
X5475874Y16835700D01*
X5471305Y16834194D01*
X5202779Y16804151D01*
X5194176Y16806636D01*
X5189851Y16814477D01*
X5190763Y16820476D01*
X5300457Y17070463D01*
X5306918Y17076660D01*
X5312877Y17077334D01*
X5334612Y17074124D01*
X5343175Y17072859D01*
X5343175Y17072860D01*
X5343177Y17072859D01*
X5398178Y17082023D01*
X5463869Y17107217D01*
X5478365Y17115831D01*
X5482037Y17117240D01*
X5496677Y17120151D01*
X5496678Y17120152D01*
X5496679Y17120152D01*
X5524688Y17138868D01*
X5580331Y17176047D01*
X5596551Y17200323D01*
X5603994Y17205296D01*
X5612777Y17203549D01*
G37*
%TD.AperFunction*%
%TD*%
%TA.AperFunction,Conductor*%
%TO.N,TRIANGLE_A*%
G36*
X5810293Y17846809D02*
G01*
X5925825Y17750128D01*
X6027615Y17664946D01*
X6031760Y17657008D01*
X6029998Y17649726D01*
X5914072Y17466167D01*
X5906757Y17461001D01*
X5899499Y17461691D01*
X5685703Y17555016D01*
X5679492Y17561467D01*
X5678728Y17566750D01*
X5693950Y17741674D01*
X5697332Y17748930D01*
X5794512Y17846110D01*
X5802784Y17849536D01*
X5810293Y17846809D01*
G37*
%TD.AperFunction*%
%TD*%
%TA.AperFunction,Conductor*%
%TO.N,TRIANGLE_A*%
G36*
X5500219Y18253907D02*
G01*
X5507345Y18248484D01*
X5508911Y18243338D01*
X5510706Y18215051D01*
X5510926Y18211598D01*
X5534202Y18159094D01*
X5575615Y18096823D01*
X5575617Y18096820D01*
X5632577Y18027353D01*
X5632581Y18027349D01*
X5694691Y17961536D01*
X5697877Y17953168D01*
X5694455Y17945233D01*
X5602767Y17853545D01*
X5594494Y17850118D01*
X5586464Y17853309D01*
X5520651Y17915419D01*
X5520647Y17915423D01*
X5451180Y17972383D01*
X5451177Y17972385D01*
X5388906Y18013798D01*
X5336402Y18037074D01*
X5332949Y18037294D01*
X5304663Y18039089D01*
X5296625Y18043032D01*
X5294093Y18047781D01*
X5281158Y18096820D01*
X5225369Y18308335D01*
X5226572Y18317208D01*
X5233698Y18322631D01*
X5239666Y18322631D01*
X5500219Y18253907D01*
G37*
%TD.AperFunction*%
%TD*%
%TA.AperFunction,Conductor*%
%TO.N,TRIANGLE_A*%
G36*
X7070449Y16497577D02*
G01*
X7072746Y16494321D01*
X7144617Y16342898D01*
X7145068Y16333954D01*
X7142645Y16329946D01*
X7038135Y16216695D01*
X7030006Y16212939D01*
X7021602Y16216032D01*
X7021555Y16216076D01*
X6902077Y16327571D01*
X6898366Y16335721D01*
X6901505Y16344107D01*
X6901671Y16344281D01*
X6957871Y16401544D01*
X7053904Y16497578D01*
X7062176Y16501004D01*
X7070449Y16497577D01*
G37*
%TD.AperFunction*%
%TD*%
%TA.AperFunction,Conductor*%
%TO.N,TRIANGLE_A*%
G36*
X5200488Y18329826D02*
G01*
X5202042Y18329624D01*
X5209807Y18325163D01*
X5212143Y18316519D01*
X5209894Y18310994D01*
X5047593Y18094953D01*
X5039884Y18090396D01*
X5036030Y18090491D01*
X5007705Y18095939D01*
X5007704Y18095939D01*
X4954769Y18083792D01*
X4954769Y18083791D01*
X4886251Y18062813D01*
X4885555Y18062623D01*
X4803328Y18042896D01*
X4801674Y18042622D01*
X4718832Y18034979D01*
X4710279Y18037632D01*
X4706106Y18045555D01*
X4706057Y18046630D01*
X4706057Y18176478D01*
X4709484Y18184751D01*
X4715614Y18187979D01*
X4756288Y18195551D01*
X4782872Y18200498D01*
X4782873Y18200499D01*
X4782875Y18200499D01*
X4843148Y18236261D01*
X4887024Y18282788D01*
X4914650Y18329381D01*
X4923196Y18356057D01*
X4928983Y18362890D01*
X4935837Y18364090D01*
X5200488Y18329826D01*
G37*
%TD.AperFunction*%
%TD*%
%TA.AperFunction,Conductor*%
%TO.N,TRIANGLE_A*%
G36*
X7037691Y16201450D02*
G01*
X7037756Y16201385D01*
X7151039Y16087209D01*
X7154433Y16078922D01*
X7153596Y16074623D01*
X7108592Y15962111D01*
X7102338Y15955702D01*
X7097729Y15954756D01*
X6961171Y15954756D01*
X6952898Y15958183D01*
X6950308Y15962111D01*
X6905303Y16074623D01*
X6905412Y16083577D01*
X6907860Y16087209D01*
X7021144Y16201385D01*
X7029404Y16204844D01*
X7037691Y16201450D01*
G37*
%TD.AperFunction*%
%TD*%
%TA.AperFunction,Conductor*%
%TO.N,TRIANGLE_A*%
G36*
X7106002Y15959203D02*
G01*
X7108592Y15955275D01*
X7153596Y15842764D01*
X7153487Y15833810D01*
X7151039Y15830178D01*
X7037756Y15716002D01*
X7029496Y15712543D01*
X7021209Y15715937D01*
X7021144Y15716002D01*
X6907860Y15830178D01*
X6904466Y15838465D01*
X6905302Y15842762D01*
X6950308Y15955275D01*
X6956562Y15961684D01*
X6961171Y15962630D01*
X7097729Y15962630D01*
X7106002Y15959203D01*
G37*
%TD.AperFunction*%
%TD*%
%TA.AperFunction,Conductor*%
%TO.N,TRIANGLE_A*%
G36*
X4763931Y18297031D02*
G01*
X4767378Y18294849D01*
X4958330Y18173974D01*
X4960345Y18172361D01*
X5055456Y18077250D01*
X5058883Y18068977D01*
X5055456Y18060704D01*
X5052199Y18058407D01*
X4763432Y17921391D01*
X4754488Y17920940D01*
X4749639Y17924224D01*
X4593288Y18101585D01*
X4590388Y18110057D01*
X4593259Y18117026D01*
X4748871Y18294850D01*
X4756897Y18298818D01*
X4763931Y18297031D01*
G37*
%TD.AperFunction*%
%TD*%
%TA.AperFunction,Conductor*%
%TO.N,TRIANGLE_A*%
G36*
X6138303Y17535272D02*
G01*
X6142987Y17531139D01*
X6323277Y17254434D01*
X6324922Y17245633D01*
X6321747Y17239775D01*
X6225723Y17143751D01*
X6217450Y17140324D01*
X6213914Y17140871D01*
X5902020Y17239775D01*
X5854522Y17254837D01*
X5847672Y17260605D01*
X5846906Y17269526D01*
X5905511Y17453495D01*
X5911287Y17460336D01*
X5912835Y17461000D01*
X6129365Y17535810D01*
X6138303Y17535272D01*
G37*
%TD.AperFunction*%
%TD*%
%TA.AperFunction,Conductor*%
%TO.N,TRIANGLE_A*%
G36*
X1507157Y13573011D02*
G01*
X1510425Y13566658D01*
X1529445Y13452248D01*
X1577145Y13353944D01*
X1580049Y13347960D01*
X1580051Y13347956D01*
X1643615Y13268203D01*
X1643616Y13268202D01*
X1643619Y13268200D01*
X1643621Y13268197D01*
X1703163Y13217593D01*
X1735204Y13203604D01*
X1741414Y13197154D01*
X1742191Y13193727D01*
X1775301Y12736278D01*
X1772481Y12727779D01*
X1764477Y12723764D01*
X1755978Y12726584D01*
X1754527Y12728085D01*
X1466049Y13085535D01*
X1463463Y13093332D01*
X1464716Y13125838D01*
X1464715Y13125839D01*
X1464716Y13125840D01*
X1439755Y13200150D01*
X1416100Y13268203D01*
X1403587Y13304201D01*
X1403314Y13305106D01*
X1370870Y13431600D01*
X1370564Y13433333D01*
X1357672Y13563587D01*
X1360267Y13572156D01*
X1368163Y13576381D01*
X1369315Y13576438D01*
X1498884Y13576438D01*
X1507157Y13573011D01*
G37*
%TD.AperFunction*%
%TD*%
%TA.AperFunction,Conductor*%
%TO.N,TRIANGLE_A*%
G36*
X1465157Y13659403D02*
G01*
X1640104Y13493262D01*
X1643743Y13485080D01*
X1641973Y13478583D01*
X1513127Y13272132D01*
X1512236Y13270705D01*
X1504948Y13265501D01*
X1502310Y13265200D01*
X1363991Y13265200D01*
X1355718Y13268627D01*
X1353307Y13272132D01*
X1326228Y13332814D01*
X1251446Y13500397D01*
X1251205Y13509346D01*
X1255123Y13514531D01*
X1450094Y13660291D01*
X1458773Y13662499D01*
X1465157Y13659403D01*
G37*
%TD.AperFunction*%
%TD*%
%TA.AperFunction,Conductor*%
%TO.N,IREF_A*%
G36*
X1532434Y5969982D02*
G01*
X1535725Y5963486D01*
X1553690Y5846585D01*
X1553690Y5846584D01*
X1553691Y5846582D01*
X1601574Y5738873D01*
X1661964Y5655615D01*
X1718973Y5602136D01*
X1742979Y5590453D01*
X1750440Y5586822D01*
X1756379Y5580121D01*
X1757010Y5576795D01*
X1776423Y5116381D01*
X1773347Y5107971D01*
X1765226Y5104198D01*
X1756816Y5107274D01*
X1755411Y5108819D01*
X1478820Y5473933D01*
X1476489Y5481985D01*
X1479263Y5514699D01*
X1460463Y5580121D01*
X1457499Y5590437D01*
X1453659Y5602942D01*
X1424837Y5696814D01*
X1424627Y5697597D01*
X1395024Y5826610D01*
X1394777Y5828164D01*
X1382938Y5960670D01*
X1385615Y5969213D01*
X1393551Y5973363D01*
X1394592Y5973409D01*
X1524161Y5973409D01*
X1532434Y5969982D01*
G37*
%TD.AperFunction*%
%TD*%
%TA.AperFunction,Conductor*%
%TO.N,IREF_A*%
G36*
X1465634Y6344428D02*
G01*
X1650859Y6184962D01*
X1654892Y6176967D01*
X1653515Y6170527D01*
X1537518Y5956132D01*
X1530568Y5950487D01*
X1527228Y5950000D01*
X1388772Y5950000D01*
X1380499Y5953427D01*
X1378482Y5956132D01*
X1262484Y6170527D01*
X1261561Y6179435D01*
X1265138Y6184960D01*
X1450366Y6344429D01*
X1458872Y6347228D01*
X1465634Y6344428D01*
G37*
%TD.AperFunction*%
%TD*%
%TA.AperFunction,Conductor*%
%TO.N,VTH_B*%
G36*
X8855958Y16808184D02*
G01*
X9009819Y16629495D01*
X9012621Y16620990D01*
X9010069Y16614527D01*
X8852912Y16419166D01*
X8845057Y16414868D01*
X8843796Y16414800D01*
X8705982Y16414800D01*
X8697709Y16418227D01*
X8694679Y16423478D01*
X8643592Y16614527D01*
X8629244Y16668185D01*
X8630417Y16677059D01*
X8634335Y16681118D01*
X8840882Y16810467D01*
X8849713Y16811953D01*
X8855958Y16808184D01*
G37*
%TD.AperFunction*%
%TD*%
%TA.AperFunction,Conductor*%
%TO.N,VTH_B*%
G36*
X8852069Y16601773D02*
G01*
X8852912Y16600834D01*
X9010069Y16405475D01*
X9012585Y16396880D01*
X9009819Y16390507D01*
X8855958Y16211817D01*
X8847963Y16207783D01*
X8840882Y16209535D01*
X8634337Y16338881D01*
X8629144Y16346176D01*
X8629243Y16351815D01*
X8694679Y16596523D01*
X8700127Y16603630D01*
X8705982Y16605200D01*
X8843796Y16605200D01*
X8852069Y16601773D01*
G37*
%TD.AperFunction*%
%TD*%
%TA.AperFunction,Conductor*%
%TO.N,VTH_B*%
G36*
X8549665Y17150536D02*
G01*
X8907895Y17018746D01*
X8914476Y17012674D01*
X8914928Y17003986D01*
X8852018Y16819693D01*
X8846102Y16812971D01*
X8844462Y16812314D01*
X8628155Y16744138D01*
X8619234Y16744920D01*
X8614636Y16749226D01*
X8439647Y17037506D01*
X8438284Y17046356D01*
X8441374Y17051848D01*
X8537355Y17147829D01*
X8545627Y17151255D01*
X8549665Y17150536D01*
G37*
%TD.AperFunction*%
%TD*%
%TA.AperFunction,Conductor*%
%TO.N,VTH_B*%
G36*
X6671452Y22610329D02*
G01*
X6778913Y22571106D01*
X6785508Y22565051D01*
X6786600Y22560116D01*
X6786600Y22424085D01*
X6783173Y22415812D01*
X6778912Y22413094D01*
X6671452Y22373872D01*
X6662505Y22374255D01*
X6662021Y22374494D01*
X6456839Y22481731D01*
X6451094Y22488600D01*
X6451889Y22497519D01*
X6456839Y22502469D01*
X6567137Y22560116D01*
X6662021Y22609708D01*
X6670940Y22610502D01*
X6671452Y22610329D01*
G37*
%TD.AperFunction*%
%TD*%
%TA.AperFunction,Conductor*%
%TO.N,VTH_B*%
G36*
X7405152Y21512249D02*
G01*
X7407467Y21508953D01*
X7419361Y21483638D01*
X7458463Y21400414D01*
X7458880Y21391469D01*
X7458640Y21390859D01*
X7372704Y21188833D01*
X7366313Y21182562D01*
X7357358Y21182647D01*
X7351570Y21187993D01*
X7244570Y21392720D01*
X7243271Y21399003D01*
X7243376Y21400414D01*
X7251106Y21504840D01*
X7255134Y21512837D01*
X7262774Y21515676D01*
X7396879Y21515676D01*
X7405152Y21512249D01*
G37*
%TD.AperFunction*%
%TD*%
%TA.AperFunction,Conductor*%
%TO.N,VTH_B*%
G36*
X7367888Y21152118D02*
G01*
X7373270Y21146977D01*
X7479408Y20945346D01*
X7480229Y20936429D01*
X7478101Y20932475D01*
X7435259Y20880250D01*
X7434486Y20879398D01*
X7339281Y20784193D01*
X7331008Y20780766D01*
X7322735Y20784193D01*
X7320281Y20787796D01*
X7256794Y20933625D01*
X7256633Y20942578D01*
X7256930Y20943266D01*
X7352327Y21146500D01*
X7358943Y21152532D01*
X7367888Y21152118D01*
G37*
%TD.AperFunction*%
%TD*%
%TA.AperFunction,Conductor*%
%TO.N,VTH_B*%
G36*
X9076958Y16207505D02*
G01*
X9080507Y16200252D01*
X9109079Y15923198D01*
X9106519Y15914617D01*
X9105714Y15913725D01*
X9008996Y15817007D01*
X9000723Y15813580D01*
X8993790Y15815855D01*
X8744713Y15999079D01*
X8740079Y16006742D01*
X8741435Y16014214D01*
X8845428Y16200072D01*
X8852457Y16205618D01*
X8855373Y16206055D01*
X9068613Y16210749D01*
X9076958Y16207505D01*
G37*
%TD.AperFunction*%
%TD*%
%TA.AperFunction,Conductor*%
%TO.N,VTH_B*%
G36*
X8973060Y16086132D02*
G01*
X8976215Y16080365D01*
X9002856Y15958865D01*
X9002856Y15958864D01*
X9072639Y15855395D01*
X9072640Y15855394D01*
X9072641Y15855393D01*
X9159264Y15780885D01*
X9159266Y15780884D01*
X9159267Y15780883D01*
X9238439Y15737078D01*
X9238443Y15737076D01*
X9278845Y15727391D01*
X9286090Y15722129D01*
X9287517Y15718639D01*
X9389614Y15275403D01*
X9388132Y15266572D01*
X9380839Y15261376D01*
X9372008Y15262858D01*
X9370347Y15264116D01*
X9357920Y15275403D01*
X9027399Y15575606D01*
X9023856Y15581679D01*
X9015589Y15618135D01*
X8966879Y15693662D01*
X8966698Y15693951D01*
X8902660Y15799897D01*
X8901894Y15801399D01*
X8846463Y15932707D01*
X8845681Y15935460D01*
X8823891Y16076067D01*
X8826010Y16084768D01*
X8833661Y16089421D01*
X8835453Y16089559D01*
X8964787Y16089559D01*
X8973060Y16086132D01*
G37*
%TD.AperFunction*%
%TD*%
%TA.AperFunction,Conductor*%
%TO.N,TRIANGLE_B*%
G36*
X9725634Y13659628D02*
G01*
X9910859Y13500162D01*
X9914892Y13492167D01*
X9913515Y13485727D01*
X9797518Y13271332D01*
X9790568Y13265687D01*
X9787228Y13265200D01*
X9648772Y13265200D01*
X9640499Y13268627D01*
X9638482Y13271332D01*
X9522484Y13485727D01*
X9521561Y13494635D01*
X9525138Y13500160D01*
X9710366Y13659629D01*
X9718872Y13662428D01*
X9725634Y13659628D01*
G37*
%TD.AperFunction*%
%TD*%
%TA.AperFunction,Conductor*%
%TO.N,TRIANGLE_B*%
G36*
X9789680Y13589982D02*
G01*
X9793107Y13581709D01*
X9793061Y13580668D01*
X9781222Y13448175D01*
X9780972Y13446599D01*
X9751375Y13317614D01*
X9751156Y13316797D01*
X9718498Y13210437D01*
X9696736Y13134703D01*
X9696735Y13134696D01*
X9699509Y13101985D01*
X9697177Y13093932D01*
X9420592Y12728823D01*
X9412865Y12724298D01*
X9404201Y12726562D01*
X9399676Y12734289D01*
X9399576Y12736381D01*
X9418988Y13196795D01*
X9422761Y13204916D01*
X9425555Y13206821D01*
X9457025Y13222136D01*
X9514034Y13275615D01*
X9574424Y13358873D01*
X9622308Y13466582D01*
X9640275Y13583486D01*
X9644919Y13591143D01*
X9651839Y13593409D01*
X9781407Y13593409D01*
X9789680Y13589982D01*
G37*
%TD.AperFunction*%
%TD*%
%TA.AperFunction,Conductor*%
%TO.N,IREF_B*%
G36*
X9789680Y5969982D02*
G01*
X9793107Y5961709D01*
X9793061Y5960668D01*
X9781222Y5828175D01*
X9780972Y5826599D01*
X9751375Y5697614D01*
X9751156Y5696797D01*
X9718498Y5590437D01*
X9696736Y5514703D01*
X9696735Y5514696D01*
X9699509Y5481985D01*
X9697177Y5473932D01*
X9420592Y5108823D01*
X9412865Y5104298D01*
X9404201Y5106562D01*
X9399676Y5114289D01*
X9399576Y5116381D01*
X9418988Y5576795D01*
X9422761Y5584916D01*
X9425555Y5586821D01*
X9457025Y5602136D01*
X9514034Y5655615D01*
X9574424Y5738873D01*
X9622308Y5846582D01*
X9640275Y5963486D01*
X9644919Y5971143D01*
X9651839Y5973409D01*
X9781407Y5973409D01*
X9789680Y5969982D01*
G37*
%TD.AperFunction*%
%TD*%
%TA.AperFunction,Conductor*%
%TO.N,IREF_B*%
G36*
X9725634Y6344428D02*
G01*
X9910859Y6184962D01*
X9914892Y6176967D01*
X9913515Y6170527D01*
X9797518Y5956132D01*
X9790568Y5950487D01*
X9787228Y5950000D01*
X9648772Y5950000D01*
X9640499Y5953427D01*
X9638482Y5956132D01*
X9522484Y6170527D01*
X9521561Y6179435D01*
X9525138Y6184960D01*
X9710366Y6344429D01*
X9718872Y6347228D01*
X9725634Y6344428D01*
G37*
%TD.AperFunction*%
%TD*%
%TA.AperFunction,Conductor*%
%TO.N,/VCO A/SHIFTED_TRI_A*%
G36*
X4151661Y13197868D02*
G01*
X4151696Y13197783D01*
X4195560Y13089845D01*
X4195500Y13080890D01*
X4191211Y13075705D01*
X3991609Y12942637D01*
X3982824Y12940899D01*
X3976846Y12944099D01*
X3875866Y13045079D01*
X3852310Y13068636D01*
X3848884Y13076907D01*
X3852311Y13085180D01*
X3856092Y13087710D01*
X4136368Y13204183D01*
X4145322Y13204193D01*
X4151661Y13197868D01*
G37*
%TD.AperFunction*%
%TD*%
%TA.AperFunction,Conductor*%
%TO.N,/VCO A/SHIFTED_TRI_A*%
G36*
X3260767Y11804046D02*
G01*
X3408561Y11769965D01*
X3443186Y11761980D01*
X3450478Y11756782D01*
X3451131Y11755586D01*
X3553164Y11540108D01*
X3553608Y11531164D01*
X3549967Y11526020D01*
X3322650Y11341351D01*
X3314068Y11338794D01*
X3307000Y11342159D01*
X3210685Y11438474D01*
X3207258Y11446747D01*
X3207331Y11448050D01*
X3246523Y11793962D01*
X3250860Y11801795D01*
X3259466Y11804269D01*
X3260767Y11804046D01*
G37*
%TD.AperFunction*%
%TD*%
%TA.AperFunction,Conductor*%
%TO.N,/VCO A/SHIFTED_TRI_A*%
G36*
X5177812Y5901990D02*
G01*
X5180410Y5900031D01*
X5277202Y5803239D01*
X5280629Y5794966D01*
X5279278Y5789509D01*
X5092952Y5436151D01*
X5086062Y5430431D01*
X5078172Y5430780D01*
X4895638Y5505478D01*
X4889279Y5511783D01*
X4888469Y5517831D01*
X4929157Y5826997D01*
X4933633Y5834749D01*
X4937530Y5836713D01*
X5168916Y5903005D01*
X5177812Y5901990D01*
G37*
%TD.AperFunction*%
%TD*%
%TA.AperFunction,Conductor*%
%TO.N,/VCO A/SHIFTED_TRI_A*%
G36*
X3735158Y11948974D02*
G01*
X3740867Y11945832D01*
X3838311Y11848388D01*
X3841738Y11840115D01*
X3838664Y11832211D01*
X3653374Y11629989D01*
X3645259Y11626204D01*
X3638125Y11628248D01*
X3531707Y11701325D01*
X3456515Y11752960D01*
X3451636Y11760467D01*
X3453207Y11768788D01*
X3581877Y11975341D01*
X3589160Y11980550D01*
X3594368Y11980570D01*
X3735158Y11948974D01*
G37*
%TD.AperFunction*%
%TD*%
%TA.AperFunction,Conductor*%
%TO.N,/VCO A/SHIFTED_TRI_A*%
G36*
X4445857Y5704737D02*
G01*
X4632458Y5589231D01*
X4637689Y5581963D01*
X4638000Y5579283D01*
X4638000Y5439918D01*
X4634573Y5431645D01*
X4632458Y5429970D01*
X4445858Y5314465D01*
X4437020Y5313024D01*
X4431448Y5316119D01*
X4317028Y5429970D01*
X4245334Y5501307D01*
X4241887Y5509571D01*
X4245293Y5517852D01*
X4431451Y5703084D01*
X4439729Y5706488D01*
X4445857Y5704737D01*
G37*
%TD.AperFunction*%
%TD*%
%TA.AperFunction,Conductor*%
%TO.N,/VCO A/SHIFTED_TRI_A*%
G36*
X4694548Y5703084D02*
G01*
X4818969Y5579283D01*
X4880665Y5517894D01*
X4884112Y5509629D01*
X4880706Y5501347D01*
X4880664Y5501306D01*
X4694551Y5316119D01*
X4686270Y5312713D01*
X4680141Y5314465D01*
X4493542Y5429970D01*
X4488311Y5437238D01*
X4488000Y5439918D01*
X4488000Y5579283D01*
X4491427Y5587556D01*
X4493539Y5589229D01*
X4680142Y5704737D01*
X4688979Y5706177D01*
X4694548Y5703084D01*
G37*
%TD.AperFunction*%
%TD*%
%TA.AperFunction,Conductor*%
%TO.N,Net-(Q3A-C1)*%
G36*
X7665955Y3031173D02*
G01*
X7667630Y3029058D01*
X7784204Y2840731D01*
X7785645Y2831893D01*
X7784229Y2828455D01*
X7597973Y2524856D01*
X7590726Y2519596D01*
X7581882Y2521001D01*
X7578027Y2524856D01*
X7391770Y2828455D01*
X7390365Y2837299D01*
X7391795Y2840731D01*
X7508370Y3029058D01*
X7515638Y3034289D01*
X7518318Y3034600D01*
X7657682Y3034600D01*
X7665955Y3031173D01*
G37*
%TD.AperFunction*%
%TD*%
%TA.AperFunction,Conductor*%
%TO.N,Net-(Q3A-C1)*%
G36*
X7594118Y3598200D02*
G01*
X7597971Y3594347D01*
X7705178Y3419600D01*
X7784229Y3290746D01*
X7785634Y3281902D01*
X7784204Y3278470D01*
X7667630Y3090142D01*
X7660362Y3084911D01*
X7657682Y3084600D01*
X7518318Y3084600D01*
X7510045Y3088027D01*
X7508370Y3090142D01*
X7391795Y3278470D01*
X7390354Y3287308D01*
X7391768Y3290744D01*
X7578028Y3594346D01*
X7585274Y3599605D01*
X7594118Y3598200D01*
G37*
%TD.AperFunction*%
%TD*%
%TA.AperFunction,Conductor*%
%TO.N,Net-(Q4A-B1)*%
G36*
X3064751Y23010328D02*
G01*
X3217134Y22945114D01*
X3315758Y22902906D01*
X3322016Y22896501D01*
X3321911Y22887547D01*
X3315758Y22881394D01*
X3064753Y22773974D01*
X3056138Y22773740D01*
X2948180Y22813144D01*
X2941584Y22819200D01*
X2940492Y22824135D01*
X2940492Y22960166D01*
X2943919Y22968439D01*
X2948176Y22971155D01*
X3056141Y23010562D01*
X3064751Y23010328D01*
G37*
%TD.AperFunction*%
%TD*%
%TA.AperFunction,Conductor*%
%TO.N,Net-(Q4A-B1)*%
G36*
X4044548Y803084D02*
G01*
X4168969Y679283D01*
X4230665Y617894D01*
X4234112Y609629D01*
X4230706Y601347D01*
X4230664Y601306D01*
X4044551Y416119D01*
X4036270Y412713D01*
X4030141Y414465D01*
X3843542Y529970D01*
X3838311Y537238D01*
X3838000Y539918D01*
X3838000Y679283D01*
X3841427Y687556D01*
X3843539Y689229D01*
X4030142Y804737D01*
X4038979Y806177D01*
X4044548Y803084D01*
G37*
%TD.AperFunction*%
%TD*%
%TA.AperFunction,Conductor*%
%TO.N,Net-(Q4A-B1)*%
G36*
X3795857Y804737D02*
G01*
X3982458Y689231D01*
X3987689Y681963D01*
X3988000Y679283D01*
X3988000Y539918D01*
X3984573Y531645D01*
X3982458Y529970D01*
X3795858Y414465D01*
X3787020Y413024D01*
X3781448Y416119D01*
X3667028Y529970D01*
X3595334Y601307D01*
X3591887Y609571D01*
X3595293Y617852D01*
X3781451Y803084D01*
X3789729Y806488D01*
X3795857Y804737D01*
G37*
%TD.AperFunction*%
%TD*%
%TA.AperFunction,Conductor*%
%TO.N,Net-(Q4A-B1)*%
G36*
X3396495Y735163D02*
G01*
X3579146Y616027D01*
X3584203Y608637D01*
X3582554Y599835D01*
X3582519Y599782D01*
X3392685Y312166D01*
X3385267Y307149D01*
X3379800Y307335D01*
X3196580Y358027D01*
X3189520Y363535D01*
X3188000Y369303D01*
X3188000Y508395D01*
X3190906Y516112D01*
X3264379Y599835D01*
X3381309Y733081D01*
X3389342Y737038D01*
X3396495Y735163D01*
G37*
%TD.AperFunction*%
%TD*%
%TA.AperFunction,Conductor*%
%TO.N,Net-(Q4A-B1)*%
G36*
X4445857Y804737D02*
G01*
X4632458Y689231D01*
X4637689Y681963D01*
X4638000Y679283D01*
X4638000Y539918D01*
X4634573Y531645D01*
X4632458Y529970D01*
X4445858Y414465D01*
X4437020Y413024D01*
X4431448Y416119D01*
X4317028Y529970D01*
X4245334Y601307D01*
X4241887Y609571D01*
X4245293Y617852D01*
X4431451Y803084D01*
X4439729Y806488D01*
X4445857Y804737D01*
G37*
%TD.AperFunction*%
%TD*%
%TA.AperFunction,Conductor*%
%TO.N,Net-(Q4A-B1)*%
G36*
X4694548Y803084D02*
G01*
X4818969Y679283D01*
X4880665Y617894D01*
X4884112Y609629D01*
X4880706Y601347D01*
X4880664Y601306D01*
X4694551Y416119D01*
X4686270Y412713D01*
X4680141Y414465D01*
X4493542Y529970D01*
X4488311Y537238D01*
X4488000Y539918D01*
X4488000Y679283D01*
X4491427Y687556D01*
X4493539Y689229D01*
X4680142Y804737D01*
X4688979Y806177D01*
X4694548Y803084D01*
G37*
%TD.AperFunction*%
%TD*%
%TA.AperFunction,Conductor*%
%TO.N,Net-(Q9A-B1)*%
G36*
X10228796Y21837755D02*
G01*
X10234173Y21830595D01*
X10234137Y21824638D01*
X10163472Y21562593D01*
X10158010Y21555497D01*
X10156317Y21554696D01*
X10120510Y21541146D01*
X10069614Y21489075D01*
X10069528Y21488988D01*
X10004928Y21424262D01*
X10003095Y21422764D01*
X9920840Y21368432D01*
X9916876Y21366762D01*
X9823539Y21346482D01*
X9814727Y21348074D01*
X9809622Y21355431D01*
X9809355Y21357915D01*
X9809355Y21487247D01*
X9812782Y21495520D01*
X9817501Y21498394D01*
X9884447Y21519710D01*
X9929271Y21578492D01*
X9950684Y21652726D01*
X9955544Y21722992D01*
X9951742Y21759845D01*
X9954301Y21768425D01*
X9960466Y21772376D01*
X10219931Y21839016D01*
X10228796Y21837755D01*
G37*
%TD.AperFunction*%
%TD*%
%TA.AperFunction,Conductor*%
%TO.N,Net-(Q9A-B1)*%
G36*
X8087920Y21674639D02*
G01*
X8111329Y21672964D01*
X8118547Y21669781D01*
X8167118Y21623695D01*
X8245529Y21549296D01*
X8249172Y21541117D01*
X8245963Y21532757D01*
X8245749Y21532537D01*
X8151967Y21438755D01*
X8143694Y21435328D01*
X8139288Y21436189D01*
X8006158Y21490306D01*
X8000836Y21494645D01*
X7993309Y21505910D01*
X7993308Y21505911D01*
X7942733Y21539704D01*
X7898132Y21548576D01*
X7898131Y21548576D01*
X7865098Y21548576D01*
X7860692Y21549437D01*
X7814596Y21568175D01*
X7808222Y21574465D01*
X7807652Y21581853D01*
X7833015Y21683178D01*
X7838348Y21690370D01*
X7845199Y21692006D01*
X8087920Y21674639D01*
G37*
%TD.AperFunction*%
%TD*%
%TA.AperFunction,Conductor*%
%TO.N,/VCO A/SQUARE_A*%
G36*
X4733339Y21213191D02*
G01*
X4738408Y21209068D01*
X4773812Y21157857D01*
X4866260Y21024132D01*
X4868146Y21015378D01*
X4864909Y21009206D01*
X4769128Y20913425D01*
X4760855Y20909998D01*
X4757216Y20910578D01*
X4678045Y20936488D01*
X4671248Y20942318D01*
X4670360Y20944665D01*
X4614948Y21157857D01*
X4616184Y21166726D01*
X4621870Y21171641D01*
X4724386Y21213255D01*
X4733339Y21213191D01*
G37*
%TD.AperFunction*%
%TD*%
%TA.AperFunction,Conductor*%
%TO.N,/VCO A/SQUARE_A*%
G36*
X4699052Y21188397D02*
G01*
X4699278Y21188165D01*
X4760981Y21122943D01*
X4761213Y21122691D01*
X4820990Y21055685D01*
X4871959Y21001352D01*
X4890224Y20986306D01*
X4915315Y20965636D01*
X4915316Y20965636D01*
X4915317Y20965635D01*
X4944796Y20956659D01*
X4951711Y20950972D01*
X4953044Y20946470D01*
X4976284Y20676410D01*
X4973579Y20667874D01*
X4965630Y20663750D01*
X4959663Y20664812D01*
X4953128Y20667874D01*
X4713627Y20780099D01*
X4707590Y20786712D01*
X4707080Y20792781D01*
X4712569Y20823019D01*
X4705657Y20878709D01*
X4682974Y20945372D01*
X4642759Y21017389D01*
X4642757Y21017391D01*
X4642753Y21017398D01*
X4590054Y21080935D01*
X4587410Y21089490D01*
X4590785Y21096676D01*
X4682507Y21188398D01*
X4690779Y21191824D01*
X4699052Y21188397D01*
G37*
%TD.AperFunction*%
%TD*%
%TA.AperFunction,Conductor*%
%TO.N,/VCO A/SQUARE_A*%
G36*
X4495045Y21284147D02*
G01*
X4498349Y21281846D01*
X4605698Y21175383D01*
X4609159Y21167124D01*
X4605766Y21158837D01*
X4605698Y21158769D01*
X4498349Y21052307D01*
X4490061Y21048914D01*
X4486098Y21049623D01*
X4380763Y21088070D01*
X4374167Y21094126D01*
X4373075Y21099061D01*
X4373075Y21235092D01*
X4376502Y21243365D01*
X4380759Y21246081D01*
X4486099Y21284530D01*
X4495045Y21284147D01*
G37*
%TD.AperFunction*%
%TD*%
%TA.AperFunction,Conductor*%
%TO.N,/VCO A/SQUARE_A*%
G36*
X4339999Y21284531D02*
G01*
X4445338Y21246082D01*
X4451933Y21240027D01*
X4453025Y21235092D01*
X4453025Y21099061D01*
X4449598Y21090788D01*
X4445337Y21088070D01*
X4340001Y21049623D01*
X4331054Y21050006D01*
X4327750Y21052307D01*
X4288948Y21090788D01*
X4220400Y21158770D01*
X4216940Y21167027D01*
X4220333Y21175315D01*
X4220401Y21175383D01*
X4327752Y21281847D01*
X4336037Y21285239D01*
X4339999Y21284531D01*
G37*
%TD.AperFunction*%
%TD*%
%TA.AperFunction,Conductor*%
%TO.N,/VCO A/SQUARE_A*%
G36*
X4746239Y21684692D02*
G01*
X4746307Y21684624D01*
X4852769Y21577275D01*
X4856162Y21568987D01*
X4855453Y21565024D01*
X4817006Y21459688D01*
X4810950Y21453092D01*
X4806015Y21452000D01*
X4669985Y21452000D01*
X4661712Y21455427D01*
X4658994Y21459688D01*
X4620546Y21565024D01*
X4620929Y21573971D01*
X4623226Y21577271D01*
X4729693Y21684625D01*
X4737952Y21688085D01*
X4746239Y21684692D01*
G37*
%TD.AperFunction*%
%TD*%
%TA.AperFunction,Conductor*%
%TO.N,/VCO A/SQUARE_A*%
G36*
X4806714Y21401609D02*
G01*
X4810141Y21393336D01*
X4809641Y21389951D01*
X4736285Y21147226D01*
X4730611Y21140298D01*
X4722294Y21139249D01*
X4718023Y21140298D01*
X4689818Y21147226D01*
X4621386Y21164035D01*
X4614169Y21169336D01*
X4612503Y21174615D01*
X4598421Y21384881D01*
X4601288Y21393365D01*
X4608403Y21397240D01*
X4660958Y21404913D01*
X4662648Y21405036D01*
X4798441Y21405036D01*
X4806714Y21401609D01*
G37*
%TD.AperFunction*%
%TD*%
%TA.AperFunction,Conductor*%
%TO.N,/VCO B/SQUARE_B*%
G36*
X6635452Y23126683D02*
G01*
X6638879Y23118410D01*
X6638876Y23118166D01*
X6636799Y23018562D01*
X6633201Y23010362D01*
X6631191Y23008816D01*
X6454655Y22901294D01*
X6448086Y22897293D01*
X6439238Y22895917D01*
X6432007Y22901200D01*
X6431951Y22901294D01*
X6370572Y23004228D01*
X6369278Y23013089D01*
X6372448Y23018591D01*
X6474736Y23118410D01*
X6483317Y23126784D01*
X6491488Y23130110D01*
X6627179Y23130110D01*
X6635452Y23126683D01*
G37*
%TD.AperFunction*%
%TD*%
%TA.AperFunction,Conductor*%
%TO.N,/VCO B/SQUARE_B*%
G36*
X6568344Y23403185D02*
G01*
X6573294Y23398235D01*
X6680531Y23193053D01*
X6681326Y23184134D01*
X6681153Y23183622D01*
X6641931Y23076162D01*
X6635875Y23069566D01*
X6630940Y23068474D01*
X6494910Y23068474D01*
X6486637Y23071901D01*
X6483919Y23076162D01*
X6444696Y23183622D01*
X6445079Y23192569D01*
X6445318Y23193053D01*
X6552556Y23398235D01*
X6559425Y23403980D01*
X6568344Y23403185D01*
G37*
%TD.AperFunction*%
%TD*%
%TA.AperFunction,Conductor*%
%TO.N,/VCO B/SQUARE_B*%
G36*
X6639213Y23762247D02*
G01*
X6641931Y23757986D01*
X6681153Y23650527D01*
X6680770Y23641580D01*
X6680531Y23641096D01*
X6573294Y23435914D01*
X6566425Y23430169D01*
X6557506Y23430964D01*
X6552556Y23435914D01*
X6445318Y23641096D01*
X6444523Y23650015D01*
X6444696Y23650527D01*
X6483919Y23757986D01*
X6489975Y23764582D01*
X6494910Y23765674D01*
X6630940Y23765674D01*
X6639213Y23762247D01*
G37*
%TD.AperFunction*%
%TD*%
%TA.AperFunction,Conductor*%
%TO.N,/VCO B/SQUARE_B*%
G36*
X6288652Y24388626D02*
G01*
X6295778Y24383203D01*
X6297344Y24378057D01*
X6299139Y24349770D01*
X6299359Y24346317D01*
X6322635Y24293813D01*
X6364048Y24231542D01*
X6364050Y24231539D01*
X6421010Y24162072D01*
X6421014Y24162068D01*
X6483124Y24096255D01*
X6486310Y24087887D01*
X6482888Y24079952D01*
X6391200Y23988264D01*
X6382927Y23984837D01*
X6374897Y23988028D01*
X6309084Y24050138D01*
X6309080Y24050142D01*
X6239613Y24107102D01*
X6239610Y24107104D01*
X6177339Y24148517D01*
X6124835Y24171793D01*
X6121382Y24172013D01*
X6093096Y24173808D01*
X6085058Y24177751D01*
X6082526Y24182500D01*
X6069591Y24231539D01*
X6013802Y24443054D01*
X6015005Y24451927D01*
X6022131Y24457350D01*
X6028099Y24457350D01*
X6288652Y24388626D01*
G37*
%TD.AperFunction*%
%TD*%
%TA.AperFunction,Conductor*%
%TO.N,/VCO B/SQUARE_B*%
G36*
X6689899Y23534529D02*
G01*
X6795238Y23496080D01*
X6801833Y23490025D01*
X6802925Y23485090D01*
X6802925Y23349059D01*
X6799498Y23340786D01*
X6795237Y23338068D01*
X6689901Y23299621D01*
X6680954Y23300004D01*
X6677650Y23302305D01*
X6638848Y23340786D01*
X6570300Y23408768D01*
X6566840Y23417025D01*
X6570233Y23425313D01*
X6570301Y23425381D01*
X6677652Y23531845D01*
X6685937Y23535237D01*
X6689899Y23534529D01*
G37*
%TD.AperFunction*%
%TD*%
%TA.AperFunction,Conductor*%
%TO.N,/VCO B/SQUARE_B*%
G36*
X6844945Y23534145D02*
G01*
X6848249Y23531844D01*
X6955598Y23425381D01*
X6959059Y23417122D01*
X6955666Y23408835D01*
X6955598Y23408767D01*
X6848249Y23302305D01*
X6839961Y23298912D01*
X6835998Y23299621D01*
X6730663Y23338068D01*
X6724067Y23344124D01*
X6722975Y23349059D01*
X6722975Y23485090D01*
X6726402Y23493363D01*
X6730659Y23496079D01*
X6835999Y23534528D01*
X6844945Y23534145D01*
G37*
%TD.AperFunction*%
%TD*%
%TA.AperFunction,Conductor*%
%TO.N,Net-(C10-Pad2)*%
G36*
X7037691Y13200694D02*
G01*
X7037756Y13200629D01*
X7151039Y13086453D01*
X7154433Y13078166D01*
X7153596Y13073867D01*
X7108592Y12961355D01*
X7102338Y12954946D01*
X7097729Y12954000D01*
X6961171Y12954000D01*
X6952898Y12957427D01*
X6950308Y12961355D01*
X6905303Y13073867D01*
X6905412Y13082821D01*
X6907860Y13086453D01*
X7021144Y13200629D01*
X7029404Y13204088D01*
X7037691Y13200694D01*
G37*
%TD.AperFunction*%
%TD*%
%TA.AperFunction,Conductor*%
%TO.N,Net-(C10-Pad2)*%
G36*
X7102959Y11506104D02*
G01*
X7106361Y11498590D01*
X7111868Y11413902D01*
X7128535Y11330952D01*
X7128539Y11330938D01*
X7152658Y11263893D01*
X7152662Y11263885D01*
X7181259Y11215905D01*
X7204665Y11195910D01*
X7208729Y11187930D01*
X7207732Y11182208D01*
X7095776Y10933714D01*
X7089254Y10927579D01*
X7080303Y10927853D01*
X7075624Y10931669D01*
X6917975Y11149924D01*
X6915909Y11158637D01*
X6917749Y11163300D01*
X6935046Y11189019D01*
X6947189Y11244061D01*
X6952413Y11318159D01*
X6953505Y11407816D01*
X6953279Y11497803D01*
X6956685Y11506083D01*
X6964950Y11509531D01*
X7094686Y11509531D01*
X7102959Y11506104D01*
G37*
%TD.AperFunction*%
%TD*%
%TA.AperFunction,Conductor*%
%TO.N,Net-(C10-Pad2)*%
G36*
X1318183Y8470341D02*
G01*
X1319317Y8464395D01*
X1299593Y8195587D01*
X1295570Y8187587D01*
X1288841Y8184779D01*
X1258178Y8182370D01*
X1258173Y8182369D01*
X1200626Y8166620D01*
X1141088Y8135105D01*
X1094454Y8084615D01*
X1094452Y8084610D01*
X1077873Y8020690D01*
X1072479Y8013543D01*
X1066548Y8011928D01*
X936869Y8011928D01*
X928596Y8015355D01*
X925169Y8023628D01*
X925309Y8025433D01*
X938669Y8111005D01*
X939511Y8113892D01*
X948797Y8135105D01*
X975087Y8195165D01*
X975830Y8196585D01*
X998372Y8233244D01*
X1016807Y8263221D01*
X1029226Y8284623D01*
X1047190Y8315576D01*
X1050054Y8347463D01*
X1054207Y8355394D01*
X1056611Y8356946D01*
X1302559Y8475787D01*
X1311498Y8476299D01*
X1318183Y8470341D01*
G37*
%TD.AperFunction*%
%TD*%
%TA.AperFunction,Conductor*%
%TO.N,Net-(C10-Pad2)*%
G36*
X7937336Y13194547D02*
G01*
X8072447Y12994553D01*
X8074239Y12985779D01*
X8070940Y12979646D01*
X7900346Y12812503D01*
X7892038Y12809161D01*
X7885639Y12811144D01*
X7652590Y12967514D01*
X7647629Y12974970D01*
X7649393Y12983749D01*
X7650831Y12985498D01*
X7747712Y13082379D01*
X7749506Y13083847D01*
X7921172Y13197747D01*
X7929961Y13199465D01*
X7937336Y13194547D01*
G37*
%TD.AperFunction*%
%TD*%
%TA.AperFunction,Conductor*%
%TO.N,Net-(C10-Pad2)*%
G36*
X7420715Y13318441D02*
G01*
X7574104Y13249175D01*
X7580234Y13242647D01*
X7579952Y13233697D01*
X7577562Y13230239D01*
X7482175Y13134852D01*
X7481335Y13134089D01*
X7421773Y13085092D01*
X7413207Y13082483D01*
X7410683Y13083014D01*
X7064816Y13196836D01*
X7058028Y13202678D01*
X7057359Y13211607D01*
X7063201Y13218395D01*
X7065235Y13219193D01*
X7412671Y13319022D01*
X7420715Y13318441D01*
G37*
%TD.AperFunction*%
%TD*%
%TA.AperFunction,Conductor*%
%TO.N,Net-(C10-Pad2)*%
G36*
X1195287Y4235021D02*
G01*
X1390066Y4136818D01*
X1531185Y4065669D01*
X1537030Y4058885D01*
X1536746Y4050791D01*
X1461014Y3865732D01*
X1454709Y3859373D01*
X1452765Y3858751D01*
X1237261Y3810051D01*
X1228436Y3811570D01*
X1224045Y3816590D01*
X1083357Y4123674D01*
X1083028Y4132621D01*
X1085720Y4136816D01*
X1181751Y4232847D01*
X1190023Y4236273D01*
X1195287Y4235021D01*
G37*
%TD.AperFunction*%
%TD*%
%TA.AperFunction,Conductor*%
%TO.N,Net-(Q11A-C1)*%
G36*
X7912161Y13820038D02*
G01*
X8071627Y13634812D01*
X8074427Y13626306D01*
X8071627Y13619544D01*
X7912161Y13434319D01*
X7904166Y13430286D01*
X7897726Y13431663D01*
X7683332Y13547661D01*
X7677687Y13554612D01*
X7677200Y13557951D01*
X7677200Y13696406D01*
X7680627Y13704679D01*
X7683330Y13706695D01*
X7897726Y13822695D01*
X7906633Y13823617D01*
X7912161Y13820038D01*
G37*
%TD.AperFunction*%
%TD*%
%TA.AperFunction,Conductor*%
%TO.N,Net-(Q11A-C1)*%
G36*
X7420451Y13773606D02*
G01*
X7537889Y13706743D01*
X7543383Y13699672D01*
X7543800Y13696576D01*
X7543800Y13563369D01*
X7540373Y13555096D01*
X7532100Y13551669D01*
X7531430Y13551688D01*
X7030460Y13580442D01*
X7022396Y13584338D01*
X7019449Y13592793D01*
X7019461Y13592985D01*
X7027743Y13699071D01*
X7031803Y13707049D01*
X7037399Y13709683D01*
X7412659Y13774964D01*
X7420451Y13773606D01*
G37*
%TD.AperFunction*%
%TD*%
%TA.AperFunction,Conductor*%
%TO.N,Net-(Q11A-C1)*%
G36*
X7020391Y13709456D02*
G01*
X7028429Y13705510D01*
X7031270Y13699111D01*
X7043474Y13592550D01*
X7041011Y13583941D01*
X7033382Y13579620D01*
X6611901Y13523940D01*
X6603251Y13526254D01*
X6602096Y13527266D01*
X6508182Y13621180D01*
X6504755Y13629453D01*
X6508182Y13637726D01*
X6509647Y13638968D01*
X6638714Y13731149D01*
X6646252Y13733303D01*
X7020391Y13709456D01*
G37*
%TD.AperFunction*%
%TD*%
%TA.AperFunction,Conductor*%
%TO.N,Net-(Q11A-C1)*%
G36*
X2559581Y9459787D02*
G01*
X2563889Y9455653D01*
X2704128Y9225867D01*
X2705513Y9217020D01*
X2703124Y9212276D01*
X2682891Y9188031D01*
X2682890Y9188030D01*
X2663971Y9134119D01*
X2663968Y9134110D01*
X2651161Y9060609D01*
X2643894Y8971135D01*
X2641858Y8880818D01*
X2638246Y8872624D01*
X2630161Y8869382D01*
X2500483Y8869382D01*
X2492210Y8872809D01*
X2488791Y8880658D01*
X2485551Y8969902D01*
X2485549Y8969930D01*
X2484448Y8979143D01*
X2475027Y9058026D01*
X2458266Y9130113D01*
X2458263Y9130119D01*
X2458262Y9130124D01*
X2447219Y9156036D01*
X2435902Y9182594D01*
X2414378Y9205661D01*
X2411239Y9214048D01*
X2412703Y9219322D01*
X2416337Y9225867D01*
X2543674Y9455239D01*
X2550684Y9460807D01*
X2559581Y9459787D01*
G37*
%TD.AperFunction*%
%TD*%
%TA.AperFunction,Conductor*%
%TO.N,Net-(Q11A-C1)*%
G36*
X2274120Y6538903D02*
G01*
X2521047Y6429287D01*
X2527218Y6422798D01*
X2528000Y6418593D01*
X2528000Y6281408D01*
X2524573Y6273135D01*
X2521047Y6270714D01*
X2274121Y6161099D01*
X2265169Y6160875D01*
X2260590Y6164065D01*
X2164627Y6273135D01*
X2103798Y6342273D01*
X2100907Y6350746D01*
X2103799Y6357728D01*
X2260592Y6535938D01*
X2268628Y6539884D01*
X2274120Y6538903D01*
G37*
%TD.AperFunction*%
%TD*%
%TA.AperFunction,Conductor*%
%TO.N,Net-(Q11A-C1)*%
G36*
X2015408Y1416827D02*
G01*
X2039276Y1395809D01*
X2092861Y1375142D01*
X2166180Y1360391D01*
X2255578Y1351547D01*
X2346038Y1348929D01*
X2354209Y1345264D01*
X2357400Y1337234D01*
X2357400Y1207567D01*
X2353973Y1199294D01*
X2346038Y1195872D01*
X2255577Y1193255D01*
X2166186Y1184412D01*
X2166165Y1184409D01*
X2092860Y1169660D01*
X2092854Y1169658D01*
X2039275Y1148994D01*
X2015409Y1127977D01*
X2006936Y1125082D01*
X2001787Y1126648D01*
X1768954Y1262290D01*
X1763531Y1269416D01*
X1764734Y1278290D01*
X1768954Y1282510D01*
X2001790Y1418155D01*
X2010662Y1419357D01*
X2015408Y1416827D01*
G37*
%TD.AperFunction*%
%TD*%
%TA.AperFunction,Conductor*%
%TO.N,Net-(Q11A-C1)*%
G36*
X6486063Y11374366D02*
G01*
X6489490Y11366093D01*
X6489488Y11365885D01*
X6487888Y11276064D01*
X6487885Y11275924D01*
X6485215Y11186219D01*
X6485831Y11111862D01*
X6493881Y11056270D01*
X6509467Y11029660D01*
X6510691Y11020790D01*
X6508535Y11016474D01*
X6340619Y10804901D01*
X6332792Y10800551D01*
X6324182Y10803010D01*
X6320567Y10807890D01*
X6238495Y11016474D01*
X6220552Y11062078D01*
X6220712Y11071030D01*
X6224427Y11075726D01*
X6248931Y11094076D01*
X6248930Y11094076D01*
X6248934Y11094078D01*
X6281093Y11139582D01*
X6309430Y11203978D01*
X6329610Y11284353D01*
X6336416Y11367054D01*
X6340510Y11375017D01*
X6348077Y11377793D01*
X6477790Y11377793D01*
X6486063Y11374366D01*
G37*
%TD.AperFunction*%
%TD*%
%TA.AperFunction,Conductor*%
%TO.N,Net-(C4-Pad1)*%
G36*
X1198184Y23885386D02*
G01*
X1383082Y23812912D01*
X1389533Y23806703D01*
X1390165Y23804843D01*
X1443796Y23589115D01*
X1442467Y23580259D01*
X1437654Y23575817D01*
X1132964Y23424202D01*
X1124031Y23423585D01*
X1119479Y23426404D01*
X1023486Y23522397D01*
X1020059Y23530670D01*
X1021175Y23535656D01*
X1183334Y23879485D01*
X1189961Y23885504D01*
X1198184Y23885386D01*
G37*
%TD.AperFunction*%
%TD*%
%TA.AperFunction,Conductor*%
%TO.N,Net-(C4-Pad1)*%
G36*
X1363213Y23753401D02*
G01*
X1368066Y23745875D01*
X1368255Y23743780D01*
X1368255Y23614228D01*
X1364828Y23605955D01*
X1359768Y23602978D01*
X1294837Y23584436D01*
X1294837Y23584435D01*
X1246769Y23532724D01*
X1219397Y23467072D01*
X1208050Y23404251D01*
X1208066Y23371157D01*
X1204643Y23362882D01*
X1198089Y23359579D01*
X933419Y23320168D01*
X924732Y23322339D01*
X920124Y23330017D01*
X920807Y23336019D01*
X1021457Y23591909D01*
X1027673Y23598351D01*
X1030020Y23599091D01*
X1063459Y23605860D01*
X1115187Y23644457D01*
X1180755Y23694452D01*
X1182379Y23695488D01*
X1263441Y23738178D01*
X1266790Y23739334D01*
X1354461Y23755291D01*
X1363213Y23753401D01*
G37*
%TD.AperFunction*%
%TD*%
%TA.AperFunction,Conductor*%
%TO.N,Net-(C4-Pad1)*%
G36*
X3311163Y18524256D02*
G01*
X3335031Y18503238D01*
X3388616Y18482571D01*
X3461935Y18467820D01*
X3551333Y18458976D01*
X3641793Y18456358D01*
X3649964Y18452693D01*
X3653155Y18444663D01*
X3653155Y18314996D01*
X3649728Y18306723D01*
X3641793Y18303301D01*
X3551332Y18300684D01*
X3461941Y18291841D01*
X3461920Y18291838D01*
X3388615Y18277089D01*
X3388609Y18277087D01*
X3335030Y18256423D01*
X3311164Y18235406D01*
X3302691Y18232511D01*
X3297542Y18234077D01*
X3064709Y18369719D01*
X3059286Y18376845D01*
X3060489Y18385719D01*
X3064709Y18389939D01*
X3297545Y18525584D01*
X3306417Y18526786D01*
X3311163Y18524256D01*
G37*
%TD.AperFunction*%
%TD*%
%TA.AperFunction,Conductor*%
%TO.N,Net-(C4-Pad1)*%
G36*
X3302279Y23469815D02*
G01*
X3403837Y23421840D01*
X3409854Y23415208D01*
X3409645Y23406773D01*
X3321441Y23194426D01*
X3315103Y23188100D01*
X3312617Y23187383D01*
X3208838Y23169551D01*
X3200104Y23171527D01*
X3195326Y23179101D01*
X3195157Y23181082D01*
X3195157Y23316212D01*
X3196968Y23322464D01*
X3287395Y23465487D01*
X3294712Y23470649D01*
X3302279Y23469815D01*
G37*
%TD.AperFunction*%
%TD*%
%TA.AperFunction,Conductor*%
%TO.N,Net-(C4-Pad1)*%
G36*
X1843340Y23950758D02*
G01*
X2025509Y23815559D01*
X2030110Y23807877D01*
X2029249Y23801460D01*
X1935363Y23587660D01*
X1928899Y23581463D01*
X1923663Y23580706D01*
X1642713Y23604494D01*
X1634758Y23608606D01*
X1632000Y23616152D01*
X1632000Y23752880D01*
X1635427Y23761153D01*
X1635518Y23761243D01*
X1676628Y23801460D01*
X1828186Y23949727D01*
X1836495Y23953062D01*
X1843340Y23950758D01*
G37*
%TD.AperFunction*%
%TD*%
%TA.AperFunction,Conductor*%
%TO.N,Net-(C4-Pad1)*%
G36*
X1591811Y23949728D02*
G01*
X1784483Y23761242D01*
X1787999Y23753008D01*
X1788000Y23752880D01*
X1788000Y23616152D01*
X1784573Y23607879D01*
X1777287Y23604494D01*
X1496336Y23580706D01*
X1487803Y23583422D01*
X1484636Y23587660D01*
X1476845Y23605401D01*
X1390749Y23801461D01*
X1390562Y23810413D01*
X1394490Y23815559D01*
X1576659Y23950759D01*
X1585344Y23952937D01*
X1591811Y23949728D01*
G37*
%TD.AperFunction*%
%TD*%
%TA.AperFunction,Conductor*%
%TO.N,Net-(C4-Pad1)*%
G36*
X3612107Y18450619D02*
G01*
X3961802Y18328898D01*
X4005126Y18313817D01*
X4011813Y18307861D01*
X4012359Y18299006D01*
X3950087Y18115560D01*
X3944183Y18108828D01*
X3942614Y18108191D01*
X3727179Y18038394D01*
X3718252Y18039104D01*
X3712901Y18044728D01*
X3597591Y18301342D01*
X3596563Y18306138D01*
X3596563Y18439568D01*
X3599990Y18447841D01*
X3608263Y18451268D01*
X3612107Y18450619D01*
G37*
%TD.AperFunction*%
%TD*%
%TA.AperFunction,Conductor*%
%TO.N,Net-(C4-Pad1)*%
G36*
X2230105Y23874707D02*
G01*
X2235925Y23868226D01*
X2305231Y23678532D01*
X2305823Y23676182D01*
X2310334Y23644810D01*
X2346243Y23566180D01*
X2346583Y23565350D01*
X2366917Y23509695D01*
X2366538Y23500749D01*
X2364201Y23497408D01*
X2268223Y23401430D01*
X2259950Y23398003D01*
X2253859Y23399714D01*
X1966032Y23575224D01*
X1960752Y23582457D01*
X1960969Y23588747D01*
X2029507Y23805071D01*
X2035272Y23811921D01*
X2036889Y23812611D01*
X2221171Y23875288D01*
X2230105Y23874707D01*
G37*
%TD.AperFunction*%
%TD*%
%TA.AperFunction,Conductor*%
%TO.N,Net-(C14-Pad2)*%
G36*
X5084736Y10976035D02*
G01*
X5091801Y10969733D01*
X5286561Y10796023D01*
X5290454Y10787958D01*
X5288685Y10781074D01*
X5273582Y10756995D01*
X5254712Y10705165D01*
X5246623Y10641673D01*
X5246623Y10641665D01*
X5256901Y10583877D01*
X5258614Y10574244D01*
X5294821Y10518554D01*
X5296458Y10509752D01*
X5293285Y10503905D01*
X5201492Y10412112D01*
X5193219Y10408685D01*
X5184946Y10412112D01*
X5184064Y10413099D01*
X5131624Y10478995D01*
X5130467Y10480755D01*
X5090056Y10556424D01*
X5089615Y10557349D01*
X5060870Y10625026D01*
X5060863Y10625041D01*
X5036216Y10675316D01*
X5036215Y10675317D01*
X5013387Y10694253D01*
X5009207Y10702172D01*
X5009411Y10705683D01*
X5065504Y10969734D01*
X5070576Y10977114D01*
X5079380Y10978747D01*
X5084736Y10976035D01*
G37*
%TD.AperFunction*%
%TD*%
%TA.AperFunction,Conductor*%
%TO.N,Net-(C14-Pad2)*%
G36*
X7137409Y9202936D02*
G01*
X7294200Y9024728D01*
X7297092Y9016254D01*
X7294200Y9009272D01*
X7137409Y8831065D01*
X7129371Y8827117D01*
X7123878Y8828099D01*
X6876953Y8937714D01*
X6870782Y8944203D01*
X6870000Y8948408D01*
X6870000Y9085593D01*
X6873427Y9093866D01*
X6876951Y9096286D01*
X7123879Y9205903D01*
X7132830Y9206126D01*
X7137409Y9202936D01*
G37*
%TD.AperFunction*%
%TD*%
%TA.AperFunction,Conductor*%
%TO.N,Net-(Q10A-C1)*%
G36*
X8856910Y6414012D02*
G01*
X9072964Y6352346D01*
X9079979Y6346780D01*
X9080748Y6345096D01*
X9147918Y6160521D01*
X9147527Y6151575D01*
X9141404Y6145712D01*
X8788642Y5999452D01*
X8779687Y5999449D01*
X8775888Y6001987D01*
X8679909Y6097966D01*
X8676482Y6106239D01*
X8677965Y6111939D01*
X8843484Y6408465D01*
X8850507Y6414017D01*
X8856910Y6414012D01*
G37*
%TD.AperFunction*%
%TD*%
%TA.AperFunction,Conductor*%
%TO.N,Net-(Q10A-C1)*%
G36*
X8852248Y6737521D02*
G01*
X9018600Y6639529D01*
X9161492Y6555356D01*
X9166881Y6548204D01*
X9166192Y6540405D01*
X9081306Y6354973D01*
X9074747Y6348877D01*
X9072540Y6348294D01*
X8857719Y6313467D01*
X8849004Y6315526D01*
X8844787Y6321198D01*
X8835232Y6348877D01*
X8739070Y6627440D01*
X8739610Y6636377D01*
X8741854Y6639526D01*
X8838041Y6735713D01*
X8846313Y6739139D01*
X8852248Y6737521D01*
G37*
%TD.AperFunction*%
%TD*%
%TA.AperFunction,Conductor*%
%TO.N,Net-(Q10A-C1)*%
G36*
X4876665Y10137661D02*
G01*
X4883791Y10132238D01*
X4885357Y10127092D01*
X4887152Y10098805D01*
X4887372Y10095352D01*
X4910648Y10042848D01*
X4952061Y9980577D01*
X4952063Y9980574D01*
X5009023Y9911107D01*
X5009027Y9911103D01*
X5071137Y9845290D01*
X5074323Y9836922D01*
X5070901Y9828987D01*
X4979213Y9737299D01*
X4970940Y9733872D01*
X4962910Y9737063D01*
X4897097Y9799173D01*
X4897093Y9799177D01*
X4827626Y9856137D01*
X4827623Y9856139D01*
X4765352Y9897552D01*
X4712848Y9920828D01*
X4709395Y9921048D01*
X4681109Y9922843D01*
X4673071Y9926786D01*
X4670539Y9931535D01*
X4657604Y9980574D01*
X4601815Y10192089D01*
X4603018Y10200962D01*
X4610144Y10206385D01*
X4616112Y10206385D01*
X4876665Y10137661D01*
G37*
%TD.AperFunction*%
%TD*%
%TA.AperFunction,Conductor*%
%TO.N,Net-(Q10A-C1)*%
G36*
X7028296Y2027813D02*
G01*
X7032925Y2020147D01*
X7033057Y2018392D01*
X7033057Y1888694D01*
X7029630Y1880421D01*
X7024245Y1877356D01*
X6960456Y1861108D01*
X6909545Y1815334D01*
X6909543Y1815332D01*
X6877337Y1756833D01*
X6860861Y1700170D01*
X6858061Y1669896D01*
X6853887Y1661974D01*
X6847120Y1659295D01*
X6577577Y1642941D01*
X6569111Y1645861D01*
X6565189Y1653911D01*
X6566397Y1659841D01*
X6688086Y1903775D01*
X6694845Y1909646D01*
X6697721Y1910220D01*
X6729364Y1912476D01*
X6781832Y1941547D01*
X6848688Y1981088D01*
X6850066Y1981783D01*
X6931445Y2016218D01*
X6934245Y2017010D01*
X7019605Y2029960D01*
X7028296Y2027813D01*
G37*
%TD.AperFunction*%
%TD*%
%TA.AperFunction,Conductor*%
%TO.N,Net-(C7-Pad1)*%
G36*
X7774104Y21145488D02*
G01*
X7880200Y20943937D01*
X7881021Y20935020D01*
X7880191Y20933020D01*
X7857694Y20890449D01*
X7855623Y20887643D01*
X7760528Y20792548D01*
X7752255Y20789121D01*
X7743982Y20792548D01*
X7741816Y20795537D01*
X7671870Y20933731D01*
X7671192Y20942659D01*
X7671459Y20943390D01*
X7752907Y21144432D01*
X7759190Y21150812D01*
X7768144Y21150882D01*
X7774104Y21145488D01*
G37*
%TD.AperFunction*%
%TD*%
%TA.AperFunction,Conductor*%
%TO.N,Net-(C7-Pad1)*%
G36*
X8794842Y19714205D02*
G01*
X9144354Y19559282D01*
X9150529Y19552797D01*
X9150559Y19544454D01*
X9080827Y19359711D01*
X9074700Y19353181D01*
X9072906Y19352541D01*
X8856998Y19294759D01*
X8848120Y19295930D01*
X8843636Y19300580D01*
X8816086Y19352541D01*
X8683793Y19602055D01*
X8682946Y19610969D01*
X8685856Y19615806D01*
X8781832Y19711782D01*
X8790104Y19715208D01*
X8794842Y19714205D01*
G37*
%TD.AperFunction*%
%TD*%
%TA.AperFunction,Conductor*%
%TO.N,Net-(C7-Pad1)*%
G36*
X8568852Y19841316D02*
G01*
X8825974Y19746694D01*
X8832554Y19740621D01*
X8833320Y19738404D01*
X8841332Y19704480D01*
X8841333Y19704479D01*
X8882448Y19652791D01*
X8935187Y19587275D01*
X8936316Y19585593D01*
X8958421Y19545489D01*
X8981171Y19504214D01*
X8982421Y19500737D01*
X8999181Y19411968D01*
X8997348Y19403202D01*
X8989855Y19398300D01*
X8987684Y19398097D01*
X8858172Y19398097D01*
X8849899Y19401524D01*
X8846941Y19406516D01*
X8841289Y19425862D01*
X8827878Y19471774D01*
X8827876Y19471776D01*
X8774842Y19519216D01*
X8774836Y19519219D01*
X8707579Y19545486D01*
X8707568Y19545489D01*
X8643371Y19555642D01*
X8643372Y19555642D01*
X8643365Y19555643D01*
X8643362Y19555643D01*
X8609597Y19554954D01*
X8601256Y19558212D01*
X8597822Y19564703D01*
X8553277Y19828388D01*
X8555278Y19837114D01*
X8562865Y19841872D01*
X8568852Y19841316D01*
G37*
%TD.AperFunction*%
%TD*%
%TA.AperFunction,Conductor*%
%TO.N,Net-(C7-Pad1)*%
G36*
X8346310Y20398351D02*
G01*
X8346825Y20397802D01*
X8402713Y20334218D01*
X8403398Y20333361D01*
X8453623Y20264075D01*
X8453785Y20263846D01*
X8494459Y20204806D01*
X8494462Y20204803D01*
X8494463Y20204801D01*
X8529315Y20163503D01*
X8553967Y20151322D01*
X8555442Y20150593D01*
X8561341Y20143856D01*
X8561950Y20139652D01*
X8551403Y19866762D01*
X8547659Y19858628D01*
X8539260Y19855523D01*
X8533503Y19857298D01*
X8306318Y19999558D01*
X8301124Y20006853D01*
X8301526Y20013459D01*
X8311410Y20040736D01*
X8316437Y20095295D01*
X8308166Y20161256D01*
X8281370Y20231626D01*
X8236872Y20291301D01*
X8234674Y20299980D01*
X8237977Y20306564D01*
X8329765Y20398352D01*
X8338037Y20401778D01*
X8346310Y20398351D01*
G37*
%TD.AperFunction*%
%TD*%
%TA.AperFunction,Conductor*%
%TO.N,Net-(C7-Pad1)*%
G36*
X9155501Y19141773D02*
G01*
X9157518Y19139068D01*
X9273515Y18924675D01*
X9274438Y18915767D01*
X9270859Y18910240D01*
X9085634Y18750773D01*
X9077128Y18747973D01*
X9070366Y18750773D01*
X8885140Y18910240D01*
X8881107Y18918235D01*
X8882484Y18924675D01*
X8998482Y19139068D01*
X9005433Y19144713D01*
X9008772Y19145200D01*
X9147228Y19145200D01*
X9155501Y19141773D01*
G37*
%TD.AperFunction*%
%TD*%
%TA.AperFunction,Conductor*%
%TO.N,Net-(C7-Pad1)*%
G36*
X9085634Y19349228D02*
G01*
X9270859Y19189762D01*
X9274892Y19181767D01*
X9273515Y19175327D01*
X9157518Y18960932D01*
X9150568Y18955287D01*
X9147228Y18954800D01*
X9008772Y18954800D01*
X9000499Y18958227D01*
X8998482Y18960932D01*
X8882484Y19175327D01*
X8881561Y19184235D01*
X8885138Y19189760D01*
X9070366Y19349229D01*
X9078872Y19352028D01*
X9085634Y19349228D01*
G37*
%TD.AperFunction*%
%TD*%
%TA.AperFunction,Conductor*%
%TO.N,Net-(Q11B-C2)*%
G36*
X6173717Y1122354D02*
G01*
X6373798Y939446D01*
X6377592Y931335D01*
X6377178Y927682D01*
X6290687Y616028D01*
X6285172Y608973D01*
X6281411Y607629D01*
X6100794Y576329D01*
X6092057Y578293D01*
X6087268Y585859D01*
X6087124Y587054D01*
X6058056Y1016837D01*
X6060916Y1025321D01*
X6061441Y1025883D01*
X6157551Y1121993D01*
X6165823Y1125419D01*
X6173717Y1122354D01*
G37*
%TD.AperFunction*%
%TD*%
%TA.AperFunction,Conductor*%
%TO.N,Net-(Q11B-C2)*%
G36*
X6138008Y1255718D02*
G01*
X6145134Y1250295D01*
X6146700Y1245149D01*
X6148495Y1216862D01*
X6148715Y1213409D01*
X6171991Y1160905D01*
X6213404Y1098634D01*
X6213406Y1098631D01*
X6270366Y1029164D01*
X6270370Y1029160D01*
X6332480Y963347D01*
X6335666Y954979D01*
X6332244Y947044D01*
X6240556Y855356D01*
X6232283Y851929D01*
X6224253Y855120D01*
X6158440Y917230D01*
X6158436Y917234D01*
X6088969Y974194D01*
X6088966Y974196D01*
X6026695Y1015609D01*
X5974191Y1038885D01*
X5970738Y1039105D01*
X5942452Y1040900D01*
X5934414Y1044843D01*
X5931882Y1049592D01*
X5918947Y1098631D01*
X5863158Y1310146D01*
X5864361Y1319019D01*
X5871487Y1324442D01*
X5877455Y1324442D01*
X6138008Y1255718D01*
G37*
%TD.AperFunction*%
%TD*%
%TA.AperFunction,Conductor*%
%TO.N,Net-(Q11B-C2)*%
G36*
X7145857Y804737D02*
G01*
X7332458Y689231D01*
X7337689Y681963D01*
X7338000Y679283D01*
X7338000Y539918D01*
X7334573Y531645D01*
X7332458Y529970D01*
X7145858Y414465D01*
X7137020Y413024D01*
X7131448Y416119D01*
X7017028Y529970D01*
X6945334Y601307D01*
X6941887Y609571D01*
X6945293Y617852D01*
X7131451Y803084D01*
X7139729Y806488D01*
X7145857Y804737D01*
G37*
%TD.AperFunction*%
%TD*%
%TA.AperFunction,Conductor*%
%TO.N,Net-(Q11B-C2)*%
G36*
X7394548Y803084D02*
G01*
X7518969Y679283D01*
X7580665Y617894D01*
X7584112Y609629D01*
X7580706Y601347D01*
X7580664Y601306D01*
X7394551Y416119D01*
X7386270Y412713D01*
X7380141Y414465D01*
X7193542Y529970D01*
X7188311Y537238D01*
X7188000Y539918D01*
X7188000Y679283D01*
X7191427Y687556D01*
X7193539Y689229D01*
X7380142Y804737D01*
X7388979Y806177D01*
X7394548Y803084D01*
G37*
%TD.AperFunction*%
%TD*%
%TA.AperFunction,Conductor*%
%TO.N,Net-(Q11B-C2)*%
G36*
X6495857Y804737D02*
G01*
X6682458Y689231D01*
X6687689Y681963D01*
X6688000Y679283D01*
X6688000Y539918D01*
X6684573Y531645D01*
X6682458Y529970D01*
X6495858Y414465D01*
X6487020Y413024D01*
X6481448Y416119D01*
X6367028Y529970D01*
X6295334Y601307D01*
X6291887Y609571D01*
X6295293Y617852D01*
X6481451Y803084D01*
X6489729Y806488D01*
X6495857Y804737D01*
G37*
%TD.AperFunction*%
%TD*%
%TA.AperFunction,Conductor*%
%TO.N,Net-(Q11B-C2)*%
G36*
X6744548Y803084D02*
G01*
X6868969Y679283D01*
X6930665Y617894D01*
X6934112Y609629D01*
X6930706Y601347D01*
X6930664Y601306D01*
X6744551Y416119D01*
X6736270Y412713D01*
X6730141Y414465D01*
X6543542Y529970D01*
X6538311Y537238D01*
X6538000Y539918D01*
X6538000Y679283D01*
X6541427Y687556D01*
X6543539Y689229D01*
X6730142Y804737D01*
X6738979Y806177D01*
X6744548Y803084D01*
G37*
%TD.AperFunction*%
%TD*%
%TA.AperFunction,Conductor*%
%TO.N,Net-(Q11A-E1)*%
G36*
X2105634Y3855228D02*
G01*
X2290859Y3695762D01*
X2294892Y3687767D01*
X2293515Y3681327D01*
X2177518Y3466932D01*
X2170568Y3461287D01*
X2167228Y3460800D01*
X2028772Y3460800D01*
X2020499Y3464227D01*
X2018482Y3466932D01*
X1902484Y3681327D01*
X1901561Y3690235D01*
X1905138Y3695760D01*
X2090366Y3855229D01*
X2098872Y3858028D01*
X2105634Y3855228D01*
G37*
%TD.AperFunction*%
%TD*%
%TA.AperFunction,Conductor*%
%TO.N,Net-(Q11A-E1)*%
G36*
X2699269Y2660075D02*
G01*
X2702691Y2652140D01*
X2705307Y2561681D01*
X2714150Y2472290D01*
X2714153Y2472269D01*
X2728902Y2398965D01*
X2728904Y2398959D01*
X2749568Y2345380D01*
X2749569Y2345379D01*
X2770586Y2321512D01*
X2773481Y2313040D01*
X2771915Y2307891D01*
X2636272Y2075057D01*
X2629146Y2069634D01*
X2620272Y2070837D01*
X2616052Y2075057D01*
X2480408Y2307891D01*
X2479205Y2316765D01*
X2481734Y2321510D01*
X2502753Y2345379D01*
X2523420Y2398965D01*
X2538171Y2472283D01*
X2547015Y2561681D01*
X2549633Y2652141D01*
X2553298Y2660311D01*
X2561328Y2663502D01*
X2690996Y2663502D01*
X2699269Y2660075D01*
G37*
%TD.AperFunction*%
%TD*%
%TA.AperFunction,Conductor*%
%TO.N,Net-(Q3A-B1)*%
G36*
X6944118Y3598200D02*
G01*
X6947971Y3594347D01*
X7055178Y3419600D01*
X7134229Y3290746D01*
X7135634Y3281902D01*
X7134204Y3278470D01*
X7017630Y3090142D01*
X7010362Y3084911D01*
X7007682Y3084600D01*
X6868318Y3084600D01*
X6860045Y3088027D01*
X6858370Y3090142D01*
X6741795Y3278470D01*
X6740354Y3287308D01*
X6741768Y3290744D01*
X6928028Y3594346D01*
X6935274Y3599605D01*
X6944118Y3598200D01*
G37*
%TD.AperFunction*%
%TD*%
%TA.AperFunction,Conductor*%
%TO.N,Net-(Q3A-B1)*%
G36*
X7015955Y3031173D02*
G01*
X7017630Y3029058D01*
X7134204Y2840731D01*
X7135645Y2831893D01*
X7134229Y2828455D01*
X6947973Y2524856D01*
X6940726Y2519596D01*
X6931882Y2521001D01*
X6928027Y2524856D01*
X6741770Y2828455D01*
X6740365Y2837299D01*
X6741795Y2840731D01*
X6858370Y3029058D01*
X6865638Y3034289D01*
X6868318Y3034600D01*
X7007682Y3034600D01*
X7015955Y3031173D01*
G37*
%TD.AperFunction*%
%TD*%
%TA.AperFunction,Conductor*%
%TO.N,Net-(Q3A-B1)*%
G36*
X6294118Y5498200D02*
G01*
X6297971Y5494347D01*
X6405178Y5319600D01*
X6484229Y5190746D01*
X6485634Y5181902D01*
X6484204Y5178470D01*
X6367630Y4990142D01*
X6360362Y4984911D01*
X6357682Y4984600D01*
X6218318Y4984600D01*
X6210045Y4988027D01*
X6208370Y4990142D01*
X6091795Y5178470D01*
X6090354Y5187308D01*
X6091768Y5190744D01*
X6278028Y5494346D01*
X6285274Y5499605D01*
X6294118Y5498200D01*
G37*
%TD.AperFunction*%
%TD*%
%TA.AperFunction,Conductor*%
%TO.N,Net-(Q3A-B1)*%
G36*
X6365955Y4131173D02*
G01*
X6367630Y4129058D01*
X6484204Y3940731D01*
X6485645Y3931893D01*
X6484229Y3928455D01*
X6297973Y3624856D01*
X6290726Y3619596D01*
X6281882Y3621001D01*
X6278027Y3624856D01*
X6091770Y3928455D01*
X6090365Y3937299D01*
X6091795Y3940731D01*
X6208370Y4129058D01*
X6215638Y4134289D01*
X6218318Y4134600D01*
X6357682Y4134600D01*
X6365955Y4131173D01*
G37*
%TD.AperFunction*%
%TD*%
%TA.AperFunction,Conductor*%
%TO.N,Net-(Q3A-B1)*%
G36*
X6743966Y3829485D02*
G01*
X6931196Y3618398D01*
X6934122Y3609934D01*
X6930207Y3601881D01*
X6930163Y3601842D01*
X6745146Y3439389D01*
X6736668Y3436506D01*
X6730397Y3438827D01*
X6542671Y3579891D01*
X6538116Y3587601D01*
X6538000Y3589245D01*
X6538000Y3728583D01*
X6541427Y3736856D01*
X6544446Y3739037D01*
X6729965Y3832178D01*
X6738895Y3832827D01*
X6743966Y3829485D01*
G37*
%TD.AperFunction*%
%TD*%
%TA.AperFunction,Conductor*%
%TO.N,Net-(Q3A-B1)*%
G36*
X6496034Y3832178D02*
G01*
X6681551Y3739038D01*
X6687406Y3732265D01*
X6688000Y3728583D01*
X6688000Y3589245D01*
X6684573Y3580972D01*
X6683329Y3579891D01*
X6495602Y3438827D01*
X6486929Y3436597D01*
X6480853Y3439389D01*
X6295836Y3601842D01*
X6291881Y3609876D01*
X6294763Y3618353D01*
X6482035Y3829486D01*
X6490086Y3833400D01*
X6496034Y3832178D01*
G37*
%TD.AperFunction*%
%TD*%
%TA.AperFunction,Conductor*%
%TO.N,Net-(Q5B-C2)*%
G36*
X3063494Y22609946D02*
G01*
X3063978Y22609707D01*
X3269160Y22502469D01*
X3274905Y22495600D01*
X3274110Y22486681D01*
X3269160Y22481731D01*
X3063978Y22374494D01*
X3055059Y22373699D01*
X3054547Y22373872D01*
X2947088Y22413094D01*
X2940492Y22419150D01*
X2939400Y22424085D01*
X2939400Y22560116D01*
X2942827Y22568389D01*
X2947084Y22571105D01*
X3054547Y22610329D01*
X3063494Y22609946D01*
G37*
%TD.AperFunction*%
%TD*%
%TA.AperFunction,Conductor*%
%TO.N,Net-(Q5B-C2)*%
G36*
X6097825Y2588423D02*
G01*
X6280361Y2513723D01*
X6286720Y2507418D01*
X6287530Y2501368D01*
X6246844Y2192207D01*
X6242367Y2184452D01*
X6238466Y2182487D01*
X6007084Y2116196D01*
X5998187Y2117211D01*
X5995589Y2119170D01*
X5898797Y2215962D01*
X5895370Y2224235D01*
X5896720Y2229690D01*
X6083048Y2583052D01*
X6089937Y2588771D01*
X6097825Y2588423D01*
G37*
%TD.AperFunction*%
%TD*%
%TA.AperFunction,Conductor*%
%TO.N,Net-(Q2A-B1)*%
G36*
X4043966Y3829485D02*
G01*
X4231196Y3618398D01*
X4234122Y3609934D01*
X4230207Y3601881D01*
X4230163Y3601842D01*
X4045146Y3439389D01*
X4036668Y3436506D01*
X4030397Y3438827D01*
X3842671Y3579891D01*
X3838116Y3587601D01*
X3838000Y3589245D01*
X3838000Y3728583D01*
X3841427Y3736856D01*
X3844446Y3739037D01*
X4029965Y3832178D01*
X4038895Y3832827D01*
X4043966Y3829485D01*
G37*
%TD.AperFunction*%
%TD*%
%TA.AperFunction,Conductor*%
%TO.N,Net-(Q2A-B1)*%
G36*
X3796034Y3832178D02*
G01*
X3981551Y3739038D01*
X3987406Y3732265D01*
X3988000Y3728583D01*
X3988000Y3589245D01*
X3984573Y3580972D01*
X3983329Y3579891D01*
X3795602Y3438827D01*
X3786929Y3436597D01*
X3780853Y3439389D01*
X3595836Y3601842D01*
X3591881Y3609876D01*
X3594763Y3618353D01*
X3782035Y3829486D01*
X3790086Y3833400D01*
X3796034Y3832178D01*
G37*
%TD.AperFunction*%
%TD*%
%TA.AperFunction,Conductor*%
%TO.N,Net-(Q2A-B1)*%
G36*
X4244118Y3598200D02*
G01*
X4247971Y3594347D01*
X4355178Y3419600D01*
X4434229Y3290746D01*
X4435634Y3281902D01*
X4434204Y3278470D01*
X4317630Y3090142D01*
X4310362Y3084911D01*
X4307682Y3084600D01*
X4168318Y3084600D01*
X4160045Y3088027D01*
X4158370Y3090142D01*
X4041795Y3278470D01*
X4040354Y3287308D01*
X4041768Y3290744D01*
X4228028Y3594346D01*
X4235274Y3599605D01*
X4244118Y3598200D01*
G37*
%TD.AperFunction*%
%TD*%
%TA.AperFunction,Conductor*%
%TO.N,Net-(Q2A-B1)*%
G36*
X4315955Y3031173D02*
G01*
X4317630Y3029058D01*
X4434204Y2840731D01*
X4435645Y2831893D01*
X4434229Y2828455D01*
X4247973Y2524856D01*
X4240726Y2519596D01*
X4231882Y2521001D01*
X4228027Y2524856D01*
X4041770Y2828455D01*
X4040365Y2837299D01*
X4041795Y2840731D01*
X4158370Y3029058D01*
X4165638Y3034289D01*
X4168318Y3034600D01*
X4307682Y3034600D01*
X4315955Y3031173D01*
G37*
%TD.AperFunction*%
%TD*%
%TA.AperFunction,Conductor*%
%TO.N,Net-(Q2A-B1)*%
G36*
X3594118Y5498200D02*
G01*
X3597971Y5494347D01*
X3705178Y5319600D01*
X3784229Y5190746D01*
X3785634Y5181902D01*
X3784204Y5178470D01*
X3667630Y4990142D01*
X3660362Y4984911D01*
X3657682Y4984600D01*
X3518318Y4984600D01*
X3510045Y4988027D01*
X3508370Y4990142D01*
X3391795Y5178470D01*
X3390354Y5187308D01*
X3391768Y5190744D01*
X3578028Y5494346D01*
X3585274Y5499605D01*
X3594118Y5498200D01*
G37*
%TD.AperFunction*%
%TD*%
%TA.AperFunction,Conductor*%
%TO.N,Net-(Q2A-B1)*%
G36*
X3665955Y4131173D02*
G01*
X3667630Y4129058D01*
X3784204Y3940731D01*
X3785645Y3931893D01*
X3784229Y3928455D01*
X3597973Y3624856D01*
X3590726Y3619596D01*
X3581882Y3621001D01*
X3578027Y3624856D01*
X3576817Y3626828D01*
X3391768Y3928458D01*
X3390364Y3937299D01*
X3391791Y3940726D01*
X3508369Y4129059D01*
X3515637Y4134289D01*
X3518317Y4134600D01*
X3657682Y4134600D01*
X3665955Y4131173D01*
G37*
%TD.AperFunction*%
%TD*%
%TA.AperFunction,Conductor*%
%TO.N,Net-(Q2A-C1)*%
G36*
X4965955Y3031173D02*
G01*
X4967630Y3029058D01*
X5084204Y2840731D01*
X5085645Y2831893D01*
X5084229Y2828455D01*
X4897973Y2524856D01*
X4890726Y2519596D01*
X4881882Y2521001D01*
X4878027Y2524856D01*
X4691770Y2828455D01*
X4690365Y2837299D01*
X4691795Y2840731D01*
X4808370Y3029058D01*
X4815638Y3034289D01*
X4818318Y3034600D01*
X4957682Y3034600D01*
X4965955Y3031173D01*
G37*
%TD.AperFunction*%
%TD*%
%TA.AperFunction,Conductor*%
%TO.N,Net-(Q2A-C1)*%
G36*
X4894118Y3598200D02*
G01*
X4897971Y3594347D01*
X5005178Y3419600D01*
X5084229Y3290746D01*
X5085634Y3281902D01*
X5084204Y3278470D01*
X4967630Y3090142D01*
X4960362Y3084911D01*
X4957682Y3084600D01*
X4818318Y3084600D01*
X4810045Y3088027D01*
X4808370Y3090142D01*
X4691795Y3278470D01*
X4690354Y3287308D01*
X4691768Y3290744D01*
X4878028Y3594346D01*
X4885274Y3599605D01*
X4894118Y3598200D01*
G37*
%TD.AperFunction*%
%TD*%
%TA.AperFunction,Conductor*%
%TO.N,Net-(Q1A-C1)*%
G36*
X4694548Y6803084D02*
G01*
X4818969Y6679283D01*
X4880665Y6617894D01*
X4884112Y6609629D01*
X4880706Y6601347D01*
X4880664Y6601306D01*
X4694551Y6416119D01*
X4686270Y6412713D01*
X4680141Y6414465D01*
X4493542Y6529970D01*
X4488311Y6537238D01*
X4488000Y6539918D01*
X4488000Y6679283D01*
X4491427Y6687556D01*
X4493539Y6689229D01*
X4680142Y6804737D01*
X4688979Y6806177D01*
X4694548Y6803084D01*
G37*
%TD.AperFunction*%
%TD*%
%TA.AperFunction,Conductor*%
%TO.N,Net-(Q1A-C1)*%
G36*
X4445857Y6804737D02*
G01*
X4632458Y6689231D01*
X4637689Y6681963D01*
X4638000Y6679283D01*
X4638000Y6539918D01*
X4634573Y6531645D01*
X4632458Y6529970D01*
X4445858Y6414465D01*
X4437020Y6413024D01*
X4431448Y6416119D01*
X4317028Y6529970D01*
X4245334Y6601307D01*
X4241887Y6609571D01*
X4245293Y6617852D01*
X4431451Y6803084D01*
X4439729Y6806488D01*
X4445857Y6804737D01*
G37*
%TD.AperFunction*%
%TD*%
%TA.AperFunction,Conductor*%
%TO.N,Net-(Q10A-E1)*%
G36*
X8169563Y9066232D02*
G01*
X8173954Y9061212D01*
X8314641Y8754129D01*
X8314971Y8745180D01*
X8312277Y8740983D01*
X8216249Y8644955D01*
X8207976Y8641528D01*
X8202709Y8642781D01*
X7866814Y8812132D01*
X7860969Y8818916D01*
X7861253Y8827010D01*
X7936986Y9012071D01*
X7943290Y9018428D01*
X7945229Y9019049D01*
X8160740Y9067751D01*
X8169563Y9066232D01*
G37*
%TD.AperFunction*%
%TD*%
%TA.AperFunction,Conductor*%
%TO.N,Net-(Q10A-E1)*%
G36*
X8414268Y8653328D02*
G01*
X8450634Y8629958D01*
X8469802Y8617639D01*
X8537093Y8606776D01*
X8600447Y8616187D01*
X8652101Y8636225D01*
X8675999Y8651828D01*
X8684799Y8653480D01*
X8691000Y8649956D01*
X8839179Y8489029D01*
X8874628Y8450530D01*
X8877711Y8442123D01*
X8873946Y8433998D01*
X8868616Y8431196D01*
X8605303Y8371305D01*
X8596476Y8372812D01*
X8593859Y8375060D01*
X8574318Y8397654D01*
X8574317Y8397655D01*
X8523123Y8421367D01*
X8454505Y8449018D01*
X8453513Y8449473D01*
X8377086Y8489035D01*
X8375228Y8490232D01*
X8308914Y8542512D01*
X8304539Y8550325D01*
X8306970Y8558944D01*
X8307876Y8559964D01*
X8399671Y8651759D01*
X8407943Y8655185D01*
X8414268Y8653328D01*
G37*
%TD.AperFunction*%
%TD*%
%TA.AperFunction,Conductor*%
%TO.N,Net-(Q8B-C2)*%
G36*
X8121452Y22210279D02*
G01*
X8228913Y22171056D01*
X8235508Y22165001D01*
X8236600Y22160066D01*
X8236600Y22024035D01*
X8233173Y22015762D01*
X8228912Y22013044D01*
X8121452Y21973822D01*
X8112505Y21974205D01*
X8112021Y21974444D01*
X7906839Y22081681D01*
X7901094Y22088550D01*
X7901889Y22097469D01*
X7906839Y22102419D01*
X8017137Y22160066D01*
X8112021Y22209658D01*
X8120940Y22210452D01*
X8121452Y22210279D01*
G37*
%TD.AperFunction*%
%TD*%
%TA.AperFunction,Conductor*%
%TO.N,Net-(Q8B-C2)*%
G36*
X8295105Y22191136D02*
G01*
X8339898Y22156385D01*
X8508284Y22025749D01*
X8512720Y22017970D01*
X8510356Y22009333D01*
X8505509Y22005663D01*
X8251818Y21902774D01*
X8242864Y21902840D01*
X8238157Y21906470D01*
X8219476Y21930698D01*
X8219475Y21930699D01*
X8219474Y21930700D01*
X8173509Y21961964D01*
X8108653Y21989240D01*
X8027893Y22008532D01*
X8027879Y22008534D01*
X7944988Y22015008D01*
X7937007Y22019068D01*
X7934199Y22026672D01*
X7934199Y22156385D01*
X7937626Y22164658D01*
X7945899Y22168085D01*
X7946022Y22168085D01*
X8035988Y22166823D01*
X8117917Y22165232D01*
X8125718Y22165080D01*
X8125718Y22165081D01*
X8125720Y22165080D01*
X8200012Y22166833D01*
X8255482Y22175892D01*
X8281870Y22191895D01*
X8290720Y22193254D01*
X8295105Y22191136D01*
G37*
%TD.AperFunction*%
%TD*%
%TA.AperFunction,Conductor*%
%TO.N,Net-(U3D--)*%
G36*
X3524866Y12826573D02*
G01*
X3527287Y12823047D01*
X3636901Y12576122D01*
X3637125Y12567170D01*
X3633935Y12562591D01*
X3455728Y12405800D01*
X3447254Y12402908D01*
X3440272Y12405800D01*
X3262064Y12562591D01*
X3258116Y12570629D01*
X3259097Y12576120D01*
X3368713Y12823048D01*
X3375202Y12829218D01*
X3379407Y12830000D01*
X3516593Y12830000D01*
X3524866Y12826573D01*
G37*
%TD.AperFunction*%
%TD*%
%TA.AperFunction,Conductor*%
%TO.N,Net-(U3D--)*%
G36*
X2428015Y11699517D02*
G01*
X2429711Y11698114D01*
X2525789Y11602036D01*
X2529216Y11593763D01*
X2526750Y11586578D01*
X2333528Y11338253D01*
X2325743Y11333828D01*
X2319714Y11334672D01*
X2102591Y11427040D01*
X2096319Y11433432D01*
X2095846Y11434866D01*
X2048323Y11617910D01*
X2049561Y11626777D01*
X2056708Y11632173D01*
X2057434Y11632337D01*
X2419247Y11701334D01*
X2428015Y11699517D01*
G37*
%TD.AperFunction*%
%TD*%
%TA.AperFunction,Conductor*%
%TO.N,Net-(U3D--)*%
G36*
X2605288Y12134248D02*
G01*
X2760259Y12086517D01*
X2789119Y12077628D01*
X2796017Y12071917D01*
X2796685Y12070406D01*
X2874590Y11853788D01*
X2874165Y11844843D01*
X2870102Y11840114D01*
X2599270Y11658283D01*
X2590491Y11656517D01*
X2584475Y11659724D01*
X2488423Y11755776D01*
X2484996Y11764049D01*
X2485467Y11767333D01*
X2590664Y12126343D01*
X2596279Y12133317D01*
X2605182Y12134279D01*
X2605288Y12134248D01*
G37*
%TD.AperFunction*%
%TD*%
%TA.AperFunction,Conductor*%
%TO.N,Net-(U3D--)*%
G36*
X3257339Y12528576D02*
G01*
X3440568Y12406145D01*
X3445543Y12398701D01*
X3444791Y12391737D01*
X3351716Y12178515D01*
X3345265Y12172304D01*
X3338865Y12171691D01*
X3164035Y12204036D01*
X3157890Y12207268D01*
X3060478Y12304680D01*
X3057051Y12312953D01*
X3059985Y12320701D01*
X3242077Y12526599D01*
X3250123Y12530525D01*
X3257339Y12528576D01*
G37*
%TD.AperFunction*%
%TD*%
%TA.AperFunction,Conductor*%
%TO.N,Net-(U3D--)*%
G36*
X3084507Y12338212D02*
G01*
X3085569Y12337271D01*
X3182247Y12240593D01*
X3185674Y12232320D01*
X3183450Y12225458D01*
X3000066Y11972214D01*
X2992438Y11967523D01*
X2984941Y11968830D01*
X2799112Y12071285D01*
X2793522Y12078280D01*
X2793068Y12081135D01*
X2785841Y12294490D01*
X2788986Y12302872D01*
X2796116Y12306498D01*
X3075882Y12340612D01*
X3084507Y12338212D01*
G37*
%TD.AperFunction*%
%TD*%
%TA.AperFunction,Conductor*%
%TO.N,Net-(U3D-+)*%
G36*
X2105157Y14269003D02*
G01*
X2280104Y14102862D01*
X2283743Y14094680D01*
X2281973Y14088183D01*
X2153127Y13881732D01*
X2152236Y13880305D01*
X2144948Y13875101D01*
X2142310Y13874800D01*
X2003991Y13874800D01*
X1995718Y13878227D01*
X1993307Y13881732D01*
X1966228Y13942414D01*
X1891446Y14109997D01*
X1891205Y14118946D01*
X1895123Y14124131D01*
X2090094Y14269891D01*
X2098773Y14272099D01*
X2105157Y14269003D01*
G37*
%TD.AperFunction*%
%TD*%
%TA.AperFunction,Conductor*%
%TO.N,Net-(U3D-+)*%
G36*
X2150583Y14061773D02*
G01*
X2152234Y14059697D01*
X2281973Y13851819D01*
X2283446Y13842986D01*
X2280104Y13837140D01*
X2105157Y13670998D01*
X2096798Y13667786D01*
X2090094Y13670111D01*
X1895125Y13815869D01*
X1890551Y13823568D01*
X1891446Y13830004D01*
X1993307Y14058268D01*
X1999807Y14064426D01*
X2003991Y14065200D01*
X2142310Y14065200D01*
X2150583Y14061773D01*
G37*
%TD.AperFunction*%
%TD*%
%TA.AperFunction,Conductor*%
%TO.N,Net-(U3D-+)*%
G36*
X2329768Y14389164D02*
G01*
X2497197Y14185236D01*
X2499854Y14177813D01*
X2499854Y14042555D01*
X2496427Y14034282D01*
X2488154Y14030855D01*
X2486967Y14030915D01*
X2069574Y14073492D01*
X2061691Y14077741D01*
X2059121Y14086319D01*
X2059288Y14087422D01*
X2095914Y14269409D01*
X2100906Y14276842D01*
X2101830Y14277396D01*
X2315188Y14392047D01*
X2324097Y14392944D01*
X2329768Y14389164D01*
G37*
%TD.AperFunction*%
%TD*%
%TA.AperFunction,Conductor*%
%TO.N,Net-(U3D-+)*%
G36*
X4138374Y14209488D02*
G01*
X4146115Y14204988D01*
X4148456Y14199039D01*
X4158902Y14092902D01*
X4156302Y14084333D01*
X4148405Y14080113D01*
X4148399Y14080112D01*
X4148397Y14080112D01*
X3645039Y14030857D01*
X3636472Y14033461D01*
X3632256Y14041362D01*
X3632200Y14042501D01*
X3632200Y14175480D01*
X3635627Y14183753D01*
X3637741Y14185427D01*
X3755640Y14258332D01*
X3763348Y14259975D01*
X4138374Y14209488D01*
G37*
%TD.AperFunction*%
%TD*%
%TA.AperFunction,Conductor*%
%TO.N,Net-(U3C--)*%
G36*
X4573970Y15846961D02*
G01*
X4574255Y15846686D01*
X4668116Y15752825D01*
X4671543Y15744552D01*
X4668116Y15736279D01*
X4666127Y15734683D01*
X4537581Y15652836D01*
X4529584Y15651131D01*
X4155228Y15706534D01*
X4147546Y15711135D01*
X4145263Y15717392D01*
X4138765Y15823633D01*
X4141680Y15832097D01*
X4149729Y15836022D01*
X4150030Y15836037D01*
X4565588Y15850106D01*
X4573970Y15846961D01*
G37*
%TD.AperFunction*%
%TD*%
%TA.AperFunction,Conductor*%
%TO.N,Net-(U3C--)*%
G36*
X4594834Y17452806D02*
G01*
X4780059Y17293340D01*
X4784092Y17285345D01*
X4782715Y17278905D01*
X4666718Y17064510D01*
X4659768Y17058865D01*
X4656428Y17058378D01*
X4517972Y17058378D01*
X4509699Y17061805D01*
X4507682Y17064510D01*
X4391684Y17278905D01*
X4390761Y17287813D01*
X4394338Y17293338D01*
X4579566Y17452807D01*
X4588072Y17455606D01*
X4594834Y17452806D01*
G37*
%TD.AperFunction*%
%TD*%
%TA.AperFunction,Conductor*%
%TO.N,Net-(U3C--)*%
G36*
X4763320Y17647281D02*
G01*
X5010247Y17537665D01*
X5016418Y17531176D01*
X5017200Y17526971D01*
X5017200Y17389786D01*
X5013773Y17381513D01*
X5010247Y17379092D01*
X4763321Y17269477D01*
X4754369Y17269253D01*
X4749790Y17272443D01*
X4653827Y17381513D01*
X4592998Y17450651D01*
X4590107Y17459124D01*
X4592999Y17466106D01*
X4749792Y17644316D01*
X4757828Y17648262D01*
X4763320Y17647281D01*
G37*
%TD.AperFunction*%
%TD*%
%TA.AperFunction,Conductor*%
%TO.N,Net-(U3C--)*%
G36*
X5105409Y17644314D02*
G01*
X5262200Y17466106D01*
X5265092Y17457632D01*
X5262200Y17450650D01*
X5105409Y17272443D01*
X5097371Y17268495D01*
X5091878Y17269477D01*
X4844953Y17379092D01*
X4838782Y17385581D01*
X4838000Y17389786D01*
X4838000Y17526971D01*
X4841427Y17535244D01*
X4844951Y17537664D01*
X5091879Y17647281D01*
X5100830Y17647504D01*
X5105409Y17644314D01*
G37*
%TD.AperFunction*%
%TD*%
%TA.AperFunction,Conductor*%
%TO.N,Net-(U6D--)*%
G36*
X8480085Y12079987D02*
G01*
X8728066Y11981406D01*
X8834822Y11938967D01*
X8841244Y11932727D01*
X8841523Y11924174D01*
X8775901Y11739701D01*
X8769900Y11733055D01*
X8768201Y11732404D01*
X8552055Y11668383D01*
X8543149Y11669319D01*
X8538593Y11673764D01*
X8394463Y11924174D01*
X8369643Y11967297D01*
X8368486Y11976176D01*
X8371508Y11981404D01*
X8467492Y12077388D01*
X8475764Y12080814D01*
X8480085Y12079987D01*
G37*
%TD.AperFunction*%
%TD*%
%TA.AperFunction,Conductor*%
%TO.N,Net-(U6D--)*%
G36*
X8587014Y12066927D02*
G01*
X8594139Y12061505D01*
X8595722Y12056019D01*
X8596626Y12029800D01*
X8596627Y12029798D01*
X8614189Y11983495D01*
X8646788Y11928577D01*
X8646794Y11928567D01*
X8646799Y11928561D01*
X8646802Y11928556D01*
X8693117Y11867789D01*
X8693140Y11867762D01*
X8744286Y11812141D01*
X8747364Y11803732D01*
X8743947Y11795949D01*
X8652051Y11704053D01*
X8643778Y11700626D01*
X8635859Y11703714D01*
X8580238Y11754860D01*
X8580211Y11754883D01*
X8519444Y11801198D01*
X8519439Y11801201D01*
X8519433Y11801206D01*
X8519423Y11801212D01*
X8464505Y11833811D01*
X8418202Y11851373D01*
X8418200Y11851374D01*
X8391981Y11852278D01*
X8383831Y11855988D01*
X8381073Y11860985D01*
X8312415Y12121289D01*
X8313618Y12130162D01*
X8320744Y12135585D01*
X8326712Y12135585D01*
X8587014Y12066927D01*
G37*
%TD.AperFunction*%
%TD*%
%TA.AperFunction,Conductor*%
%TO.N,Net-(U6D--)*%
G36*
X8850701Y11521773D02*
G01*
X8852718Y11519068D01*
X8968715Y11304675D01*
X8969638Y11295767D01*
X8966059Y11290240D01*
X8780834Y11130773D01*
X8772328Y11127973D01*
X8765566Y11130773D01*
X8580340Y11290240D01*
X8576307Y11298235D01*
X8577684Y11304675D01*
X8693682Y11519068D01*
X8700633Y11524713D01*
X8703972Y11525200D01*
X8842428Y11525200D01*
X8850701Y11521773D01*
G37*
%TD.AperFunction*%
%TD*%
%TA.AperFunction,Conductor*%
%TO.N,Net-(U6D--)*%
G36*
X8780834Y11729228D02*
G01*
X8966059Y11569762D01*
X8970092Y11561767D01*
X8968715Y11555327D01*
X8852718Y11340932D01*
X8845768Y11335287D01*
X8842428Y11334800D01*
X8703972Y11334800D01*
X8695699Y11338227D01*
X8693682Y11340932D01*
X8577684Y11555327D01*
X8576761Y11564235D01*
X8580338Y11569760D01*
X8765566Y11729229D01*
X8774072Y11732028D01*
X8780834Y11729228D01*
G37*
%TD.AperFunction*%
%TD*%
%TA.AperFunction,Conductor*%
%TO.N,Net-(U6D-+)*%
G36*
X9085634Y14269228D02*
G01*
X9270859Y14109762D01*
X9274892Y14101767D01*
X9273515Y14095327D01*
X9157518Y13880932D01*
X9150568Y13875287D01*
X9147228Y13874800D01*
X9008772Y13874800D01*
X9000499Y13878227D01*
X8998482Y13880932D01*
X8882484Y14095327D01*
X8881561Y14104235D01*
X8885138Y14109760D01*
X9070366Y14269229D01*
X9078872Y14272028D01*
X9085634Y14269228D01*
G37*
%TD.AperFunction*%
%TD*%
%TA.AperFunction,Conductor*%
%TO.N,Net-(U6D-+)*%
G36*
X9155501Y14061773D02*
G01*
X9157518Y14059068D01*
X9273515Y13844675D01*
X9274438Y13835767D01*
X9270859Y13830240D01*
X9085634Y13670773D01*
X9077128Y13667973D01*
X9070366Y13670773D01*
X8885140Y13830240D01*
X8881107Y13838235D01*
X8882484Y13844675D01*
X8998482Y14059068D01*
X9005433Y14064713D01*
X9008772Y14065200D01*
X9147228Y14065200D01*
X9155501Y14061773D01*
G37*
%TD.AperFunction*%
%TD*%
%TA.AperFunction,Conductor*%
%TO.N,Net-(U6D-+)*%
G36*
X8203584Y15943199D02*
G01*
X8310804Y15891172D01*
X8449261Y15823989D01*
X8455208Y15817295D01*
X8455809Y15814482D01*
X8458305Y15785929D01*
X8458594Y15782628D01*
X8485278Y15736373D01*
X8488813Y15730245D01*
X8529587Y15663603D01*
X8530333Y15662171D01*
X8565757Y15580890D01*
X8566592Y15578015D01*
X8579900Y15492472D01*
X8577786Y15483770D01*
X8570138Y15479112D01*
X8568339Y15478973D01*
X8438658Y15478973D01*
X8430385Y15482400D01*
X8427331Y15487742D01*
X8422995Y15504492D01*
X8410793Y15551645D01*
X8364268Y15602193D01*
X8364267Y15602194D01*
X8364266Y15602195D01*
X8304867Y15633799D01*
X8304864Y15633800D01*
X8247431Y15649644D01*
X8216821Y15652105D01*
X8208849Y15656184D01*
X8206089Y15662930D01*
X8186807Y15931835D01*
X8189633Y15940332D01*
X8197640Y15944342D01*
X8203584Y15943199D01*
G37*
%TD.AperFunction*%
%TD*%
%TA.AperFunction,Conductor*%
%TO.N,Net-(U6D-+)*%
G36*
X8824484Y14654862D02*
G01*
X9154176Y14479826D01*
X9159877Y14472920D01*
X9159465Y14464932D01*
X9081097Y14279742D01*
X9074717Y14273459D01*
X9072701Y14272846D01*
X8857373Y14228123D01*
X8848576Y14229796D01*
X8844237Y14234979D01*
X8712192Y14543879D01*
X8712092Y14552832D01*
X8714676Y14556748D01*
X8810729Y14652801D01*
X8819001Y14656227D01*
X8824484Y14654862D01*
G37*
%TD.AperFunction*%
%TD*%
%TA.AperFunction,Conductor*%
%TO.N,Net-(U6C-+)*%
G36*
X7684585Y18137156D02*
G01*
X7686868Y18135826D01*
X7917421Y18001511D01*
X7922844Y17994385D01*
X7921641Y17985511D01*
X7917421Y17981291D01*
X7684587Y17845648D01*
X7675713Y17844445D01*
X7670967Y17846976D01*
X7647099Y17867994D01*
X7647097Y17867995D01*
X7647098Y17867995D01*
X7593519Y17888659D01*
X7593513Y17888661D01*
X7520209Y17903410D01*
X7520188Y17903413D01*
X7430797Y17912256D01*
X7340338Y17914873D01*
X7332167Y17918538D01*
X7328976Y17926568D01*
X7328976Y18056235D01*
X7332403Y18064508D01*
X7340337Y18067930D01*
X7430797Y18070548D01*
X7520195Y18079392D01*
X7593513Y18094143D01*
X7647099Y18114810D01*
X7670967Y18135827D01*
X7679438Y18138721D01*
X7684585Y18137156D01*
G37*
%TD.AperFunction*%
%TD*%
%TA.AperFunction,Conductor*%
%TO.N,Net-(U6C-+)*%
G36*
X6444895Y21284147D02*
G01*
X6448199Y21281846D01*
X6555548Y21175383D01*
X6559009Y21167124D01*
X6555616Y21158837D01*
X6555548Y21158769D01*
X6448199Y21052307D01*
X6439911Y21048914D01*
X6435948Y21049623D01*
X6330613Y21088070D01*
X6324017Y21094126D01*
X6322925Y21099061D01*
X6322925Y21235092D01*
X6326352Y21243365D01*
X6330609Y21246081D01*
X6435949Y21284530D01*
X6444895Y21284147D01*
G37*
%TD.AperFunction*%
%TD*%
%TA.AperFunction,Conductor*%
%TO.N,Net-(U3C-+)*%
G36*
X4038095Y15244299D02*
G01*
X4113546Y15219624D01*
X4120344Y15213796D01*
X4121029Y15204867D01*
X4115201Y15198069D01*
X4113546Y15197384D01*
X3763238Y15082825D01*
X3755256Y15083082D01*
X3639555Y15129362D01*
X3633146Y15135616D01*
X3632200Y15140225D01*
X3632200Y15276783D01*
X3635627Y15285056D01*
X3639555Y15287646D01*
X3755257Y15333928D01*
X3763236Y15334184D01*
X4038095Y15244299D01*
G37*
%TD.AperFunction*%
%TD*%
%TA.AperFunction,Conductor*%
%TO.N,Net-(U3C-+)*%
G36*
X4689363Y23762247D02*
G01*
X4692081Y23757986D01*
X4731303Y23650527D01*
X4730920Y23641580D01*
X4730681Y23641096D01*
X4623444Y23435914D01*
X4616575Y23430169D01*
X4607656Y23430964D01*
X4602706Y23435914D01*
X4495468Y23641096D01*
X4494673Y23650015D01*
X4494846Y23650527D01*
X4534069Y23757986D01*
X4540125Y23764582D01*
X4545060Y23765674D01*
X4681090Y23765674D01*
X4689363Y23762247D01*
G37*
%TD.AperFunction*%
%TD*%
%TA.AperFunction,Conductor*%
%TO.N,Net-(U3C-+)*%
G36*
X669285Y22274245D02*
G01*
X717795Y22228464D01*
X735101Y22212131D01*
X735110Y22212124D01*
X804563Y22155176D01*
X804571Y22155169D01*
X866841Y22113759D01*
X908655Y22095222D01*
X919346Y22090482D01*
X919347Y22090482D01*
X919350Y22090481D01*
X948585Y22088625D01*
X951083Y22088466D01*
X959123Y22084522D01*
X961655Y22079774D01*
X1030380Y21819220D01*
X1029177Y21810346D01*
X1022051Y21804923D01*
X1016083Y21804923D01*
X755529Y21873648D01*
X748403Y21879071D01*
X746837Y21884220D01*
X744822Y21915953D01*
X744820Y21915959D01*
X721544Y21968462D01*
X680134Y22030732D01*
X680127Y22030740D01*
X639922Y22079774D01*
X623172Y22100202D01*
X606839Y22117508D01*
X561058Y22166018D01*
X557872Y22174386D01*
X561293Y22182320D01*
X652983Y22274010D01*
X661255Y22277436D01*
X669285Y22274245D01*
G37*
%TD.AperFunction*%
%TD*%
%TA.AperFunction,Conductor*%
%TO.N,Net-(U3C-+)*%
G36*
X3378065Y16843261D02*
G01*
X3385191Y16837838D01*
X3386757Y16832692D01*
X3388552Y16804405D01*
X3388772Y16800952D01*
X3412048Y16748448D01*
X3453461Y16686177D01*
X3453463Y16686174D01*
X3510423Y16616707D01*
X3510427Y16616703D01*
X3572537Y16550890D01*
X3575723Y16542522D01*
X3572301Y16534587D01*
X3480613Y16442899D01*
X3472340Y16439472D01*
X3464310Y16442663D01*
X3398497Y16504773D01*
X3398493Y16504777D01*
X3329026Y16561737D01*
X3329023Y16561739D01*
X3266752Y16603152D01*
X3214248Y16626428D01*
X3210795Y16626648D01*
X3182509Y16628443D01*
X3174471Y16632386D01*
X3171939Y16637135D01*
X3159004Y16686174D01*
X3103215Y16897689D01*
X3104418Y16906562D01*
X3111544Y16911985D01*
X3117512Y16911985D01*
X3378065Y16843261D01*
G37*
%TD.AperFunction*%
%TD*%
%TA.AperFunction,Conductor*%
%TO.N,Net-(U5A--)*%
G36*
X4971452Y23010379D02*
G01*
X5078913Y22971156D01*
X5085508Y22965101D01*
X5086600Y22960166D01*
X5086600Y22824135D01*
X5083173Y22815862D01*
X5078912Y22813144D01*
X4971452Y22773922D01*
X4962505Y22774305D01*
X4962021Y22774544D01*
X4756839Y22881781D01*
X4751094Y22888650D01*
X4751889Y22897569D01*
X4756839Y22902519D01*
X4867137Y22960166D01*
X4962021Y23009758D01*
X4970940Y23010552D01*
X4971452Y23010379D01*
G37*
%TD.AperFunction*%
%TD*%
%TA.AperFunction,Conductor*%
%TO.N,Net-(U5A--)*%
G36*
X5165670Y23057468D02*
G01*
X5407522Y22935486D01*
X5413365Y22928701D01*
X5412699Y22919771D01*
X5408721Y22915290D01*
X5184553Y22766570D01*
X5175765Y22764852D01*
X5171049Y22766974D01*
X5146091Y22785773D01*
X5146090Y22785774D01*
X5091601Y22801425D01*
X5017787Y22810582D01*
X5017783Y22810583D01*
X5017778Y22810583D01*
X4928219Y22814881D01*
X4928217Y22814882D01*
X4928197Y22814882D01*
X4838092Y22815829D01*
X4829855Y22819342D01*
X4826515Y22827528D01*
X4826515Y22957223D01*
X4829942Y22965496D01*
X4837627Y22968908D01*
X4893200Y22971694D01*
X4924661Y22973271D01*
X4924664Y22973272D01*
X4924673Y22973272D01*
X5010321Y22986834D01*
X5080034Y23007237D01*
X5130387Y23032679D01*
X5151968Y23055130D01*
X5160171Y23058719D01*
X5165670Y23057468D01*
G37*
%TD.AperFunction*%
%TD*%
%TA.AperFunction,Conductor*%
%TO.N,Net-(U5B--)*%
G36*
X6213494Y21809846D02*
G01*
X6213978Y21809607D01*
X6419160Y21702369D01*
X6424905Y21695500D01*
X6424110Y21686581D01*
X6419160Y21681631D01*
X6213978Y21574394D01*
X6205059Y21573599D01*
X6204547Y21573772D01*
X6097088Y21612994D01*
X6090492Y21619050D01*
X6089400Y21623985D01*
X6089400Y21760016D01*
X6092827Y21768289D01*
X6097084Y21771005D01*
X6204547Y21810229D01*
X6213494Y21809846D01*
G37*
%TD.AperFunction*%
%TD*%
%TA.AperFunction,Conductor*%
%TO.N,Net-(U5B--)*%
G36*
X6339606Y21764379D02*
G01*
X6343765Y21756449D01*
X6343813Y21755393D01*
X6343813Y21625543D01*
X6340386Y21617270D01*
X6334232Y21614036D01*
X6266787Y21601619D01*
X6206202Y21566140D01*
X6206198Y21566137D01*
X6161965Y21519942D01*
X6161963Y21519939D01*
X6134015Y21473629D01*
X6134011Y21473619D01*
X6125297Y21447023D01*
X6119465Y21440228D01*
X6112614Y21439071D01*
X5846696Y21474964D01*
X5838956Y21479467D01*
X5836666Y21488124D01*
X5838943Y21493634D01*
X6002456Y21708864D01*
X6010188Y21713376D01*
X6014063Y21713257D01*
X6032715Y21709523D01*
X6042300Y21707603D01*
X6042300Y21707604D01*
X6042302Y21707603D01*
X6095203Y21719291D01*
X6163761Y21739777D01*
X6164405Y21739949D01*
X6246666Y21759286D01*
X6248277Y21759547D01*
X6331058Y21767045D01*
X6339606Y21764379D01*
G37*
%TD.AperFunction*%
%TD*%
M02*
