%TF.GenerationSoftware,KiCad,Pcbnew,7.0.7*%
%TF.CreationDate,2024-02-15T01:29:39-05:00*%
%TF.ProjectId,3374_VCO,33333734-5f56-4434-9f2e-6b696361645f,0*%
%TF.SameCoordinates,PX640ad70PY37b6b20*%
%TF.FileFunction,Copper,L1,Top*%
%TF.FilePolarity,Positive*%
%FSLAX46Y46*%
G04 Gerber Fmt 4.6, Leading zero omitted, Abs format (unit mm)*
G04 Created by KiCad (PCBNEW 7.0.7) date 2024-02-15 01:29:39*
%MOMM*%
%LPD*%
G01*
G04 APERTURE LIST*
G04 Aperture macros list*
%AMRoundRect*
0 Rectangle with rounded corners*
0 $1 Rounding radius*
0 $2 $3 $4 $5 $6 $7 $8 $9 X,Y pos of 4 corners*
0 Add a 4 corners polygon primitive as box body*
4,1,4,$2,$3,$4,$5,$6,$7,$8,$9,$2,$3,0*
0 Add four circle primitives for the rounded corners*
1,1,$1+$1,$2,$3*
1,1,$1+$1,$4,$5*
1,1,$1+$1,$6,$7*
1,1,$1+$1,$8,$9*
0 Add four rect primitives between the rounded corners*
20,1,$1+$1,$2,$3,$4,$5,0*
20,1,$1+$1,$4,$5,$6,$7,0*
20,1,$1+$1,$6,$7,$8,$9,0*
20,1,$1+$1,$8,$9,$2,$3,0*%
G04 Aperture macros list end*
%TA.AperFunction,SMDPad,CuDef*%
%ADD10RoundRect,0.100000X-0.130000X-0.100000X0.130000X-0.100000X0.130000X0.100000X-0.130000X0.100000X0*%
%TD*%
%TA.AperFunction,SMDPad,CuDef*%
%ADD11RoundRect,0.100000X0.130000X0.100000X-0.130000X0.100000X-0.130000X-0.100000X0.130000X-0.100000X0*%
%TD*%
%TA.AperFunction,SMDPad,CuDef*%
%ADD12RoundRect,0.100000X0.100000X-0.130000X0.100000X0.130000X-0.100000X0.130000X-0.100000X-0.130000X0*%
%TD*%
%TA.AperFunction,SMDPad,CuDef*%
%ADD13RoundRect,0.100000X-0.100000X0.130000X-0.100000X-0.130000X0.100000X-0.130000X0.100000X0.130000X0*%
%TD*%
%TA.AperFunction,SMDPad,CuDef*%
%ADD14R,0.774700X0.254000*%
%TD*%
%TA.AperFunction,SMDPad,CuDef*%
%ADD15R,0.400000X0.650000*%
%TD*%
%TA.AperFunction,SMDPad,CuDef*%
%ADD16RoundRect,0.135000X0.135000X0.185000X-0.135000X0.185000X-0.135000X-0.185000X0.135000X-0.185000X0*%
%TD*%
%TA.AperFunction,SMDPad,CuDef*%
%ADD17R,0.558800X0.240000*%
%TD*%
%TA.AperFunction,SMDPad,CuDef*%
%ADD18R,0.457200X0.240000*%
%TD*%
%TA.AperFunction,SMDPad,CuDef*%
%ADD19R,0.240000X0.457200*%
%TD*%
%TA.AperFunction,ComponentPad*%
%ADD20C,1.016000*%
%TD*%
%TA.AperFunction,FiducialPad,Local*%
%ADD21C,1.016000*%
%TD*%
%TA.AperFunction,ViaPad*%
%ADD22C,0.604800*%
%TD*%
%TA.AperFunction,Conductor*%
%ADD23C,0.152400*%
%TD*%
G04 APERTURE END LIST*
D10*
%TO.P,R8,1*%
%TO.N,Net-(U6D-+)*%
X9103400Y16814800D03*
%TO.P,R8,2*%
%TO.N,GND*%
X9743400Y16814800D03*
%TD*%
D11*
%TO.P,R3,1*%
%TO.N,TRIANGLE_A*%
X5908000Y19859600D03*
%TO.P,R3,2*%
%TO.N,Net-(U3C--)*%
X5268000Y19859600D03*
%TD*%
D12*
%TO.P,R5,1*%
%TO.N,Net-(U3D--)*%
X762000Y18639600D03*
%TO.P,R5,2*%
%TO.N,Net-(R5-Pad2)*%
X762000Y19279600D03*
%TD*%
%TO.P,R11,1*%
%TO.N,Net-(D1C-K)*%
X3098800Y15515400D03*
%TO.P,R11,2*%
%TO.N,Net-(U3D--)*%
X3098800Y16155400D03*
%TD*%
D10*
%TO.P,R16,1*%
%TO.N,Net-(D1B-K)*%
X8925600Y11125200D03*
%TO.P,R16,2*%
%TO.N,CF_B*%
X9565600Y11125200D03*
%TD*%
D13*
%TO.P,R4,1*%
%TO.N,Net-(R4-Pad1)*%
X8077200Y19990800D03*
%TO.P,R4,2*%
%TO.N,Net-(U6D--)*%
X8077200Y19350800D03*
%TD*%
D14*
%TO.P,U3,1*%
%TO.N,Net-(C9-Pad2)*%
X7029450Y15609222D03*
%TO.P,U3,2,-*%
%TO.N,Net-(Q15A-C1)*%
X7029450Y16109348D03*
%TO.P,U3,3,+*%
%TO.N,GND*%
X7029450Y16609474D03*
%TO.P,U3,4,V+*%
%TO.N,+12V*%
X7029450Y17109600D03*
%TO.P,U3,5,+*%
%TO.N,Net-(D1D-K)*%
X7029450Y17609726D03*
%TO.P,U3,6,-*%
%TO.N,TRIANGLE_A*%
X7029450Y18109852D03*
%TO.P,U3,7*%
X7029450Y18609978D03*
%TO.P,U3,8*%
%TO.N,SAWTOOTH_A*%
X4146550Y18609978D03*
%TO.P,U3,9,-*%
%TO.N,Net-(U3C--)*%
X4146550Y18109852D03*
%TO.P,U3,10,+*%
%TO.N,Net-(U3C-+)*%
X4146550Y17609726D03*
%TO.P,U3,11,V-*%
%TO.N,-5V*%
X4146550Y17109600D03*
%TO.P,U3,12,+*%
%TO.N,Net-(U3D-+)*%
X4146550Y16609474D03*
%TO.P,U3,13,-*%
%TO.N,Net-(U3D--)*%
X4146550Y16109348D03*
%TO.P,U3,14*%
%TO.N,Net-(D1C-K)*%
X4146550Y15609222D03*
%TD*%
D13*
%TO.P,R6,1*%
%TO.N,TRIANGLE_B*%
X8077200Y18670000D03*
%TO.P,R6,2*%
%TO.N,Net-(C2-Pad1)*%
X8077200Y18030000D03*
%TD*%
D10*
%TO.P,R10,1*%
%TO.N,Net-(U6D-+)*%
X9103400Y16200800D03*
%TO.P,R10,2*%
%TO.N,+5V*%
X9743400Y16200800D03*
%TD*%
%TO.P,C6,1*%
%TO.N,+5V*%
X8874800Y21285200D03*
%TO.P,C6,2*%
%TO.N,GND*%
X9514800Y21285200D03*
%TD*%
%TO.P,C14,1*%
%TO.N,VTC*%
X9078000Y3505200D03*
%TO.P,C14,2*%
%TO.N,GND*%
X9718000Y3505200D03*
%TD*%
D11*
%TO.P,C5,1*%
%TO.N,GND*%
X9514800Y21894800D03*
%TO.P,C5,2*%
%TO.N,-5V*%
X8874800Y21894800D03*
%TD*%
D10*
%TO.P,R19,1*%
%TO.N,IREF_A*%
X1458000Y4114800D03*
%TO.P,R19,2*%
%TO.N,Net-(Q15A-C1)*%
X2098000Y4114800D03*
%TD*%
D11*
%TO.P,R20,1*%
%TO.N,IREF_B*%
X9718000Y4114800D03*
%TO.P,R20,2*%
%TO.N,Net-(Q14A-C1)*%
X9078000Y4114800D03*
%TD*%
D13*
%TO.P,C9,1*%
%TO.N,Net-(Q15A-C1)*%
X8077200Y16028400D03*
%TO.P,C9,2*%
%TO.N,Net-(C9-Pad2)*%
X8077200Y15388400D03*
%TD*%
D15*
%TO.P,Q6,1,B2*%
%TO.N,Net-(Q6A-B1)*%
X3588000Y609600D03*
%TO.P,Q6,2,B1*%
X4238000Y609600D03*
%TO.P,Q6,3,C1*%
X4888000Y609600D03*
%TO.P,Q6,4,E1*%
%TO.N,Net-(Q4A-C1)*%
X4888000Y2509600D03*
%TO.P,Q6,5,E2*%
%TO.N,Net-(Q4A-B1)*%
X4238000Y2509600D03*
%TO.P,Q6,6,C2*%
%TO.N,Net-(D1D-K)*%
X3588000Y2509600D03*
%TD*%
%TO.P,D1,1,K*%
%TO.N,Net-(D1A-K)*%
X3588000Y9609600D03*
%TO.P,D1,2,K*%
%TO.N,Net-(D1B-K)*%
X4238000Y9609600D03*
%TO.P,D1,3,A*%
%TO.N,Net-(D1C-A)*%
X4888000Y9609600D03*
%TO.P,D1,4,K*%
%TO.N,Net-(D1C-K)*%
X4888000Y11509600D03*
%TO.P,D1,5,K*%
%TO.N,Net-(D1D-K)*%
X4238000Y11509600D03*
%TO.P,D1,6,A*%
%TO.N,Net-(D1A-A)*%
X3588000Y11509600D03*
%TD*%
D11*
%TO.P,R18,1*%
%TO.N,Net-(C18-Pad2)*%
X9565600Y8585200D03*
%TO.P,R18,2*%
%TO.N,Net-(Q14A-E1)*%
X8925600Y8585200D03*
%TD*%
D16*
%TO.P,R22,1*%
%TO.N,+5V*%
X9933400Y1422400D03*
%TO.P,R22,2*%
%TO.N,VTC*%
X8913400Y1422400D03*
%TD*%
D10*
%TO.P,C11,1*%
%TO.N,Net-(D1B-K)*%
X8925600Y9194800D03*
%TO.P,C11,2*%
%TO.N,CF_B*%
X9565600Y9194800D03*
%TD*%
D17*
%TO.P,U1,1,EN*%
%TO.N,+5V*%
X3339892Y23400150D03*
D18*
%TO.P,U1,2,V-*%
%TO.N,-5V*%
X3288000Y23000100D03*
%TO.P,U1,3*%
%TO.N,Net-(C4-Pad1)*%
X3288000Y22600050D03*
%TO.P,U1,4*%
%TO.N,VTH_A*%
X3288000Y22200000D03*
D19*
%TO.P,U1,5*%
%TO.N,Net-(U3C-+)*%
X3412925Y21675076D03*
%TO.P,U1,6,NC*%
%TO.N,unconnected-(U1C-NC-Pad6)*%
X3812975Y21675076D03*
%TO.P,U1,7,NC*%
%TO.N,unconnected-(U1C-NC-Pad7)*%
X4213025Y21675076D03*
%TO.P,U1,8*%
%TO.N,Net-(U5B--)*%
X4613075Y21675076D03*
D18*
%TO.P,U1,9*%
%TO.N,GND*%
X4738000Y22200000D03*
%TO.P,U1,10*%
%TO.N,VTH_A*%
X4738000Y22600050D03*
%TO.P,U1,11,V+*%
%TO.N,+5V*%
X4738000Y23000100D03*
%TO.P,U1,12,GND*%
%TO.N,GND*%
X4738000Y23400150D03*
D19*
%TO.P,U1,13*%
%TO.N,Net-(R5-Pad2)*%
X4613075Y23925074D03*
%TO.P,U1,14,NC*%
%TO.N,unconnected-(U1C-NC-Pad14)*%
X4213025Y23925074D03*
%TO.P,U1,15,NC*%
%TO.N,unconnected-(U1C-NC-Pad15)*%
X3812975Y23925074D03*
%TO.P,U1,16*%
%TO.N,Net-(R5-Pad2)*%
X3412925Y23925074D03*
%TD*%
D11*
%TO.P,R9,1*%
%TO.N,Net-(U3D-+)*%
X2301200Y16205200D03*
%TO.P,R9,2*%
%TO.N,+5V*%
X1661200Y16205200D03*
%TD*%
D15*
%TO.P,Q7,1,B2*%
%TO.N,Net-(Q15B-C2)*%
X6288000Y609600D03*
%TO.P,Q7,2,B1*%
X6938000Y609600D03*
%TO.P,Q7,3,C1*%
X7588000Y609600D03*
%TO.P,Q7,4,E1*%
%TO.N,Net-(Q5A-C1)*%
X7588000Y2509600D03*
%TO.P,Q7,5,E2*%
%TO.N,Net-(Q5A-B1)*%
X6938000Y2509600D03*
%TO.P,Q7,6,C2*%
%TO.N,Net-(Q6A-B1)*%
X6288000Y2509600D03*
%TD*%
%TO.P,Q3,1,B2*%
%TO.N,Net-(Q3A-B1)*%
X6288000Y6609600D03*
%TO.P,Q3,2,B1*%
X6938000Y6609600D03*
%TO.P,Q3,3,C1*%
X7588000Y6609600D03*
%TO.P,Q3,4,E1*%
%TO.N,Net-(Q1A-C1)*%
X7588000Y8509600D03*
%TO.P,Q3,5,E2*%
%TO.N,Net-(Q1A-B1)*%
X6938000Y8509600D03*
%TO.P,Q3,6,C2*%
%TO.N,Net-(D1C-A)*%
X6288000Y8509600D03*
%TD*%
%TO.P,Q5,1,B2*%
%TO.N,Net-(Q5A-B1)*%
X6288000Y3609600D03*
%TO.P,Q5,2,B1*%
X6938000Y3609600D03*
%TO.P,Q5,3,C1*%
%TO.N,Net-(Q5A-C1)*%
X7588000Y3609600D03*
%TO.P,Q5,4,E1*%
%TO.N,Net-(Q3A-B1)*%
X7588000Y5509600D03*
%TO.P,Q5,5,E2*%
X6938000Y5509600D03*
%TO.P,Q5,6,C2*%
%TO.N,Net-(Q5A-B1)*%
X6288000Y5509600D03*
%TD*%
D10*
%TO.P,R21,1*%
%TO.N,Net-(C9-Pad2)*%
X1458000Y3505200D03*
%TO.P,R21,2*%
%TO.N,Net-(Q15A-E1)*%
X2098000Y3505200D03*
%TD*%
D13*
%TO.P,C7,1*%
%TO.N,GND*%
X3098800Y17755600D03*
%TO.P,C7,2*%
%TO.N,-5V*%
X3098800Y17115600D03*
%TD*%
D17*
%TO.P,U2,1,EN*%
%TO.N,+5V*%
X7836108Y22200000D03*
D18*
%TO.P,U2,2,V-*%
%TO.N,-5V*%
X7888000Y22600050D03*
%TO.P,U2,3*%
%TO.N,Net-(C2-Pad1)*%
X7888000Y23000100D03*
%TO.P,U2,4*%
%TO.N,VTH_B*%
X7888000Y23400150D03*
D19*
%TO.P,U2,5*%
%TO.N,Net-(U6C-+)*%
X7763075Y23925074D03*
%TO.P,U2,6,NC*%
%TO.N,unconnected-(U2C-NC-Pad6)*%
X7363025Y23925074D03*
%TO.P,U2,7,NC*%
%TO.N,unconnected-(U2C-NC-Pad7)*%
X6962975Y23925074D03*
%TO.P,U2,8*%
%TO.N,Net-(U5A--)*%
X6562925Y23925074D03*
D18*
%TO.P,U2,9*%
%TO.N,GND*%
X6438000Y23400150D03*
%TO.P,U2,10*%
%TO.N,VTH_B*%
X6438000Y23000100D03*
%TO.P,U2,11,V+*%
%TO.N,+5V*%
X6438000Y22600050D03*
%TO.P,U2,12,GND*%
%TO.N,GND*%
X6438000Y22200000D03*
D19*
%TO.P,U2,13*%
%TO.N,Net-(R4-Pad1)*%
X6562925Y21675076D03*
%TO.P,U2,14,NC*%
%TO.N,unconnected-(U2C-NC-Pad14)*%
X6962975Y21675076D03*
%TO.P,U2,15,NC*%
%TO.N,unconnected-(U2C-NC-Pad15)*%
X7363025Y21675076D03*
%TO.P,U2,16*%
%TO.N,Net-(R4-Pad1)*%
X7763075Y21675076D03*
%TD*%
D11*
%TO.P,R15,1*%
%TO.N,+12V*%
X9514800Y13665200D03*
%TO.P,R15,2*%
%TO.N,VTH_B*%
X8874800Y13665200D03*
%TD*%
D15*
%TO.P,Q4,1,B2*%
%TO.N,Net-(Q4A-B1)*%
X3588000Y3609600D03*
%TO.P,Q4,2,B1*%
X4238000Y3609600D03*
%TO.P,Q4,3,C1*%
%TO.N,Net-(Q4A-C1)*%
X4888000Y3609600D03*
%TO.P,Q4,4,E1*%
%TO.N,-5V*%
X4888000Y5509600D03*
%TO.P,Q4,5,E2*%
X4238000Y5509600D03*
%TO.P,Q4,6,C2*%
%TO.N,Net-(Q4A-B1)*%
X3588000Y5509600D03*
%TD*%
D11*
%TO.P,R12,1*%
%TO.N,VTH_A*%
X2301200Y14274800D03*
%TO.P,R12,2*%
%TO.N,GND*%
X1661200Y14274800D03*
%TD*%
D10*
%TO.P,C3,1*%
%TO.N,GND*%
X1407200Y23900000D03*
%TO.P,C3,2*%
%TO.N,-5V*%
X2047200Y23900000D03*
%TD*%
%TO.P,C10,1*%
%TO.N,Net-(Q10A-E1)*%
X8925600Y11734800D03*
%TO.P,C10,2*%
%TO.N,GND*%
X9565600Y11734800D03*
%TD*%
D11*
%TO.P,R2,1*%
%TO.N,Net-(U3C--)*%
X4587200Y19859600D03*
%TO.P,R2,2*%
%TO.N,SAWTOOTH_A*%
X3947200Y19859600D03*
%TD*%
D10*
%TO.P,C13,1*%
%TO.N,Net-(Q3A-B1)*%
X9078000Y6654800D03*
%TO.P,C13,2*%
%TO.N,GND*%
X9718000Y6654800D03*
%TD*%
D13*
%TO.P,C8,1*%
%TO.N,+12V*%
X8077200Y17349200D03*
%TO.P,C8,2*%
%TO.N,GND*%
X8077200Y16709200D03*
%TD*%
D15*
%TO.P,Q1,1,B2*%
%TO.N,Net-(Q1A-B1)*%
X6288000Y9609600D03*
%TO.P,Q1,2,B1*%
X6938000Y9609600D03*
%TO.P,Q1,3,C1*%
%TO.N,Net-(Q1A-C1)*%
X7588000Y9609600D03*
%TO.P,Q1,4,E1*%
%TO.N,+12V*%
X7588000Y11509600D03*
%TO.P,Q1,5,E2*%
X6938000Y11509600D03*
%TO.P,Q1,6,C2*%
%TO.N,Net-(Q1A-B1)*%
X6288000Y11509600D03*
%TD*%
D11*
%TO.P,C4,1*%
%TO.N,Net-(C4-Pad1)*%
X2098000Y21894800D03*
%TO.P,C4,2*%
%TO.N,GND*%
X1458000Y21894800D03*
%TD*%
%TO.P,R17,1*%
%TO.N,Net-(D1D-K)*%
X2098000Y9194800D03*
%TO.P,R17,2*%
%TO.N,CF_A*%
X1458000Y9194800D03*
%TD*%
D10*
%TO.P,R1,1*%
%TO.N,TRIANGLE_A*%
X1458000Y21285200D03*
%TO.P,R1,2*%
%TO.N,Net-(C4-Pad1)*%
X2098000Y21285200D03*
%TD*%
%TO.P,C2,1*%
%TO.N,Net-(C2-Pad1)*%
X8976400Y24028400D03*
%TO.P,C2,2*%
%TO.N,GND*%
X9616400Y24028400D03*
%TD*%
%TO.P,R13,1*%
%TO.N,VTH_B*%
X8874800Y14274800D03*
%TO.P,R13,2*%
%TO.N,GND*%
X9514800Y14274800D03*
%TD*%
D11*
%TO.P,C1,1*%
%TO.N,+5V*%
X2047200Y24500000D03*
%TO.P,C1,2*%
%TO.N,GND*%
X1407200Y24500000D03*
%TD*%
%TO.P,R7,1*%
%TO.N,Net-(U3D-+)*%
X2301200Y16814800D03*
%TO.P,R7,2*%
%TO.N,GND*%
X1661200Y16814800D03*
%TD*%
%TO.P,C12,1*%
%TO.N,Net-(D1D-K)*%
X2098000Y8585200D03*
%TO.P,C12,2*%
%TO.N,CF_A*%
X1458000Y8585200D03*
%TD*%
D15*
%TO.P,Q2,1,E2*%
%TO.N,GND*%
X3588000Y6609600D03*
%TO.P,Q2,2,B2*%
%TO.N,Net-(Q2A-C1)*%
X4238000Y6609600D03*
%TO.P,Q2,3,C1*%
X4888000Y6609600D03*
%TO.P,Q2,4,E1*%
%TO.N,+12V*%
X4888000Y8509600D03*
%TO.P,Q2,5,B1*%
%TO.N,SYNC_A*%
X4238000Y8509600D03*
%TO.P,Q2,6,C2*%
%TO.N,Net-(D1D-K)*%
X3588000Y8509600D03*
%TD*%
D10*
%TO.P,R14,1*%
%TO.N,+12V*%
X1661200Y13665200D03*
%TO.P,R14,2*%
%TO.N,VTH_A*%
X2301200Y13665200D03*
%TD*%
D20*
%TO.P,J2,1,Pin_1*%
%TO.N,-5V*%
X1778000Y22860000D03*
%TO.P,J2,2,Pin_2*%
%TO.N,SAWTOOTH_A*%
X1778000Y20320000D03*
%TO.P,J2,3,Pin_3*%
%TO.N,SYNC_A*%
X1778000Y17780000D03*
%TO.P,J2,4,Pin_4*%
%TO.N,VTH_A*%
X1778000Y15240000D03*
%TO.P,J2,5,Pin_5*%
%TO.N,TRIANGLE_A*%
X1778000Y12700000D03*
%TO.P,J2,6,Pin_6*%
%TO.N,CF_A*%
X1778000Y10160000D03*
D21*
%TO.P,J2,7,Pin_7*%
%TO.N,CV_A*%
X1778000Y7620000D03*
D20*
%TO.P,J2,8,Pin_8*%
%TO.N,IREF_A*%
X1778000Y5080000D03*
%TO.P,J2,9,Pin_9*%
%TO.N,GND*%
X1778000Y2540000D03*
%TD*%
%TO.P,J1,1,Pin_1*%
%TO.N,+12V*%
X9398000Y22860000D03*
%TO.P,J1,2,Pin_2*%
%TO.N,SAWTOOTH_B*%
X9398000Y20320000D03*
%TO.P,J1,3,Pin_3*%
%TO.N,unconnected-(J1-Pin_3-Pad3)*%
X9398000Y17780000D03*
%TO.P,J1,4,Pin_4*%
%TO.N,VTH_B*%
X9398000Y15240000D03*
%TO.P,J1,5,Pin_5*%
%TO.N,TRIANGLE_B*%
X9398000Y12700000D03*
%TO.P,J1,6,Pin_6*%
%TO.N,CF_B*%
X9398000Y10160000D03*
%TO.P,J1,7,Pin_7*%
%TO.N,CV_B*%
X9398000Y7620000D03*
%TO.P,J1,8,Pin_8*%
%TO.N,IREF_B*%
X9398000Y5080000D03*
%TO.P,J1,9,Pin_9*%
%TO.N,VTC*%
X9398000Y2540000D03*
%TD*%
D22*
%TO.N,+12V*%
X5613194Y16237387D03*
X1115200Y13411200D03*
X3311560Y10714202D03*
X4923700Y7719600D03*
X10248474Y13990074D03*
X7422723Y10724877D03*
%TO.N,GND*%
X10293200Y14745876D03*
X1115200Y14484600D03*
X3350430Y7399600D03*
X1748720Y18796123D03*
X4218000Y1409600D03*
X10273443Y23837043D03*
X10304347Y16803287D03*
X10007600Y584200D03*
X10187998Y11939600D03*
X886600Y24260702D03*
X6353796Y24844996D03*
X965212Y22301200D03*
X10151962Y3137969D03*
X5882492Y15429600D03*
X4411340Y14927961D03*
X5423146Y22968932D03*
X10157600Y6208800D03*
X1161523Y17041094D03*
X5977733Y21830233D03*
X7328000Y1399600D03*
X10010000Y21540000D03*
%TO.N,-5V*%
X8572351Y22365703D03*
X4148778Y7388902D03*
X4118500Y4730298D03*
X5440793Y18143626D03*
%TO.N,+5V*%
X10298000Y15827404D03*
X8304228Y21094527D03*
X2585572Y24513400D03*
X5359400Y24841200D03*
X1161500Y15989353D03*
X10617200Y1422400D03*
%TO.N,Net-(Q10A-E1)*%
X8078000Y12599600D03*
%TO.N,SAWTOOTH_A*%
X2815796Y18996800D03*
%TO.N,SYNC_A*%
X2849008Y6521558D03*
%TO.N,TRIANGLE_A*%
X5183317Y19203823D03*
X965200Y20878800D03*
%TO.N,Net-(Q15A-C1)*%
X2933698Y584200D03*
X5894747Y12594755D03*
X2565400Y11506200D03*
%TO.N,TRIANGLE_B*%
X10007600Y19047600D03*
X4114800Y20534400D03*
%TO.N,Net-(C9-Pad2)*%
X6589631Y12895574D03*
X1070300Y11526249D03*
%TO.N,Net-(Q14A-C1)*%
X6558355Y1641714D03*
X10210800Y8178800D03*
%TO.N,Net-(C18-Pad2)*%
X10278000Y13189596D03*
%TO.N,Net-(Q14A-E1)*%
X8331200Y7224800D03*
%TO.N,Net-(Q15B-C2)*%
X5858743Y1328857D03*
%TO.N,Net-(Q15A-E1)*%
X2585629Y1904836D03*
%TO.N,Net-(R4-Pad1)*%
X5136000Y21170070D03*
%TO.N,Net-(U6D--)*%
X8607941Y19224066D03*
%TO.N,Net-(D1A-K)*%
X7873994Y14713000D03*
X5560200Y10553897D03*
X7311075Y12604986D03*
%TO.N,Net-(R5-Pad2)*%
X4657904Y24516258D03*
%TO.N,Net-(U6D-+)*%
X8716784Y17092322D03*
%TO.N,Net-(D1B-K)*%
X5567992Y9669600D03*
X5691644Y17041638D03*
X6350000Y7580400D03*
%TO.N,Net-(D1A-A)*%
X3710061Y12594200D03*
%TO.N,Net-(U5B--)*%
X3288391Y19587923D03*
%TO.N,Net-(U6C-+)*%
X8338335Y24835281D03*
%TO.N,Net-(U5A--)*%
X5638798Y23774400D03*
%TD*%
D23*
%TO.N,VTH_A*%
X2556600Y21570200D02*
X3186400Y22200000D01*
X2483200Y20015852D02*
X2556600Y20089252D01*
X2483200Y19983490D02*
X2483200Y20015852D01*
X1981510Y19481800D02*
X2483200Y19983490D01*
X1524000Y19481800D02*
X1981510Y19481800D01*
X1190600Y18297289D02*
X1190600Y19148400D01*
X889000Y17995689D02*
X1190600Y18297289D01*
X889000Y17519519D02*
X889000Y17995689D01*
X630523Y17261042D02*
X889000Y17519519D01*
X630523Y16565277D02*
X630523Y17261042D01*
X635000Y16213801D02*
X635000Y16560800D01*
X2556600Y20089252D02*
X2556600Y21570200D01*
X630500Y16209301D02*
X635000Y16213801D01*
X630500Y15769405D02*
X630500Y16209301D01*
X1250305Y15149600D02*
X630500Y15769405D01*
X2301200Y14626400D02*
X1778000Y15149600D01*
X1778000Y15149600D02*
X1250305Y15149600D01*
X1190600Y19148400D02*
X1524000Y19481800D01*
X2301200Y13574800D02*
X2301200Y14626400D01*
X635000Y16560800D02*
X630523Y16565277D01*
%TO.N,Net-(U3D--)*%
X325700Y15643153D02*
X325700Y18127100D01*
X533400Y15435453D02*
X325700Y15643153D01*
X533400Y12902890D02*
X533400Y15435453D01*
X1472890Y11963400D02*
X533400Y12902890D01*
X2173200Y11963400D02*
X1472890Y11963400D01*
X2759800Y14510911D02*
X2759800Y12550000D01*
X2759800Y12550000D02*
X2173200Y11963400D01*
X2670200Y15781511D02*
X2670200Y14600511D01*
X3044089Y16155400D02*
X2670200Y15781511D01*
%TO.N,GND*%
X1661200Y14184400D02*
X1415400Y14184400D01*
%TO.N,+12V*%
X1278800Y13574800D02*
X1115200Y13411200D01*
%TO.N,Net-(U3D--)*%
X325700Y18127100D02*
X838200Y18639600D01*
%TO.N,+12V*%
X1661200Y13574800D02*
X1278800Y13574800D01*
%TO.N,GND*%
X1415400Y14184400D02*
X1115200Y14484600D01*
%TO.N,Net-(U3D--)*%
X2670200Y14600511D02*
X2759800Y14510911D01*
%TO.N,GND*%
X5423146Y22479396D02*
X5423146Y22968932D01*
X5143750Y22200000D02*
X5423146Y22479396D01*
X4738000Y22200000D02*
X5143750Y22200000D01*
%TO.N,VTH_A*%
X4093800Y22600050D02*
X3693750Y22200000D01*
X3693750Y22200000D02*
X3288000Y22200000D01*
X4738000Y22600050D02*
X4093800Y22600050D01*
%TO.N,GND*%
X5971146Y22936200D02*
X5971146Y22145896D01*
X5455878Y22936200D02*
X5423146Y22968932D01*
X5971146Y23339046D02*
X5971146Y22936200D01*
X6032250Y23400150D02*
X5971146Y23339046D01*
X6438000Y23400150D02*
X6032250Y23400150D01*
%TO.N,Net-(U5A--)*%
X5789472Y23925074D02*
X5638798Y23774400D01*
X6562925Y23925074D02*
X5789472Y23925074D01*
%TO.N,VTH_B*%
X6843750Y23000100D02*
X6438000Y23000100D01*
X7888000Y23400150D02*
X7243800Y23400150D01*
X7243800Y23400150D02*
X6843750Y23000100D01*
%TO.N,+12V*%
X7588000Y11509600D02*
X7588000Y10890154D01*
X7029450Y17109600D02*
X7446400Y17109600D01*
X6938000Y11509600D02*
X7588000Y11509600D01*
X9514800Y13574800D02*
X9833200Y13574800D01*
X9833200Y13574800D02*
X10248474Y13990074D01*
X5637635Y16237387D02*
X5613194Y16237387D01*
X6509848Y17109600D02*
X5637635Y16237387D01*
X7029450Y17109600D02*
X6509848Y17109600D01*
X7446400Y17109600D02*
X7686000Y17349200D01*
X4888000Y7755300D02*
X4888000Y8509600D01*
X4923700Y7719600D02*
X4888000Y7755300D01*
X7588000Y10890154D02*
X7422723Y10724877D01*
X7686000Y17349200D02*
X8026400Y17349200D01*
%TO.N,GND*%
X9718000Y6564400D02*
X10073600Y6208800D01*
X9514800Y21285200D02*
X9755200Y21285200D01*
X1407200Y24500000D02*
X1125898Y24500000D01*
X1125898Y24500000D02*
X886600Y24260702D01*
X7029450Y16609474D02*
X6489700Y16609474D01*
X5927154Y21823646D02*
X5971146Y21823646D01*
X9718000Y3505200D02*
X9784731Y3505200D01*
X5971146Y21836820D02*
X5977733Y21830233D01*
X1478217Y16724400D02*
X1661200Y16724400D01*
X5882492Y15720639D02*
X5882492Y15429600D01*
X10076276Y14745876D02*
X10293200Y14745876D01*
X6144204Y16263978D02*
X6144204Y15982351D01*
X9743400Y16724400D02*
X10225460Y16724400D01*
X6025250Y22200000D02*
X6438000Y22200000D01*
X1161523Y17041094D02*
X1478217Y16724400D01*
X10225460Y16724400D02*
X10304347Y16803287D01*
X9659184Y21894800D02*
X10010000Y21543984D01*
X2514600Y17994710D02*
X2753710Y17755600D01*
X1407200Y23900000D02*
X1407200Y24500000D01*
X1748720Y18796123D02*
X1748720Y18760590D01*
X5023198Y23400150D02*
X5423146Y23000202D01*
X4738000Y23400150D02*
X5023198Y23400150D01*
X1371612Y21894800D02*
X965212Y22301200D01*
X5971146Y22145896D02*
X6025250Y22200000D01*
X1992710Y18516600D02*
X2083110Y18516600D01*
X10010000Y21543984D02*
X10010000Y21540000D01*
X10073600Y6208800D02*
X10157600Y6208800D01*
X9718000Y24028400D02*
X10082086Y24028400D01*
X3588000Y7162030D02*
X3350430Y7399600D01*
X10082086Y24028400D02*
X10273443Y23837043D01*
X6144204Y15982351D02*
X5882492Y15720639D01*
X2753710Y17755600D02*
X3098800Y17755600D01*
X2514600Y18085110D02*
X2514600Y17994710D01*
X9755200Y21285200D02*
X10010000Y21540000D01*
X9565600Y11644400D02*
X9860800Y11939600D01*
X5971146Y22145896D02*
X5971146Y21836820D01*
X9860800Y11939600D02*
X10187998Y11939600D01*
X5423146Y23000202D02*
X5423146Y22968932D01*
X6489700Y16609474D02*
X6144204Y16263978D01*
X9514800Y14184400D02*
X10076276Y14745876D01*
X7926674Y16609474D02*
X8026400Y16709200D01*
X5971146Y21823646D02*
X5977733Y21830233D01*
X1748720Y18760590D02*
X1992710Y18516600D01*
X3588000Y6609600D02*
X3588000Y7162030D01*
X2083110Y18516600D02*
X2514600Y18085110D01*
X7029450Y16609474D02*
X7926674Y16609474D01*
X9784731Y3505200D02*
X10151962Y3137969D01*
%TO.N,-5V*%
X8874800Y21894800D02*
X8476000Y22293600D01*
X4146550Y17109600D02*
X4617974Y17109600D01*
X4238000Y4849798D02*
X4238000Y5509600D01*
X8476000Y22293600D02*
X8169550Y22600050D01*
X4118500Y4730298D02*
X4238000Y4849798D01*
X4762500Y17254126D02*
X4762500Y17465333D01*
X2047200Y23845289D02*
X1778000Y23576089D01*
X4617974Y17109600D02*
X4762500Y17254126D01*
X8572351Y22365703D02*
X8548103Y22365703D01*
X1918100Y23000100D02*
X3288000Y23000100D01*
X8169550Y22600050D02*
X7888000Y22600050D01*
X8548103Y22365703D02*
X8476000Y22293600D01*
X4762500Y17465333D02*
X5440793Y18143626D01*
X4146550Y17109600D02*
X3155600Y17109600D01*
X1778000Y23576089D02*
X1778000Y22860000D01*
X4888000Y5509600D02*
X4238000Y5509600D01*
%TO.N,+5V*%
X8684127Y21094527D02*
X8304228Y21094527D01*
X6438000Y22600050D02*
X6939650Y22600050D01*
X8304228Y21833772D02*
X8304228Y21094527D01*
X6939650Y22600050D02*
X7339700Y22200000D01*
X9789800Y16064000D02*
X10061404Y16064000D01*
X2047200Y24500000D02*
X2572172Y24500000D01*
X8874800Y21285200D02*
X8684127Y21094527D01*
X3925200Y23400150D02*
X4325250Y23000100D01*
X10061404Y16064000D02*
X10298000Y15827404D01*
X3339892Y23400150D02*
X3925200Y23400150D01*
X7988508Y22200000D02*
X7988508Y22149492D01*
X1161500Y15989353D02*
X1286947Y16114800D01*
X3187492Y23400150D02*
X2585572Y24002070D01*
X9933400Y1422400D02*
X10617200Y1422400D01*
X7988508Y22149492D02*
X8304228Y21833772D01*
X1286947Y16114800D02*
X1661200Y16114800D01*
X4325250Y23000100D02*
X4738000Y23000100D01*
X2585572Y24002070D02*
X2585572Y24513400D01*
X2572172Y24500000D02*
X2585572Y24513400D01*
X7339700Y22200000D02*
X7836108Y22200000D01*
%TO.N,VTC*%
X8913400Y2055400D02*
X9398000Y2540000D01*
X9078000Y2860000D02*
X9398000Y2540000D01*
X8913400Y1422400D02*
X8913400Y2055400D01*
X9078000Y2769600D02*
X9398000Y2449600D01*
X9078000Y3505200D02*
X9078000Y2860000D01*
%TO.N,Net-(Q1A-C1)*%
X7588000Y8509600D02*
X7588000Y9609600D01*
%TO.N,Net-(C2-Pad1)*%
X9080345Y18516600D02*
X8661400Y18097655D01*
X7888000Y23000100D02*
X8300750Y23000100D01*
X9703110Y23596600D02*
X10541000Y22758710D01*
X8906850Y23596600D02*
X9703110Y23596600D01*
X8976400Y23675750D02*
X8902050Y23601400D01*
X8661400Y18097655D02*
X8144855Y18097655D01*
X8902050Y23601400D02*
X8906850Y23596600D01*
X10312154Y18516600D02*
X9080345Y18516600D01*
X10541000Y18745446D02*
X10312154Y18516600D01*
X10541000Y22758710D02*
X10541000Y18745446D01*
X8874800Y23574150D02*
X8902050Y23601400D01*
X8144855Y18097655D02*
X8077200Y18030000D01*
X8976400Y24028400D02*
X8976400Y23675750D01*
X8300750Y23000100D02*
X8874800Y23574150D01*
%TO.N,CF_A*%
X1458000Y9104400D02*
X1458000Y8494800D01*
X1778000Y9569511D02*
X1458000Y9249511D01*
X1778000Y10069600D02*
X1778000Y9569511D01*
X1458000Y9249511D02*
X1458000Y9190800D01*
%TO.N,Net-(C4-Pad1)*%
X2788050Y22600050D02*
X3288000Y22600050D01*
X2098000Y21910000D02*
X2788050Y22600050D01*
X2098000Y21894800D02*
X2098000Y21285200D01*
%TO.N,Net-(Q10A-E1)*%
X8925600Y11644400D02*
X8078000Y12492000D01*
X8078000Y12492000D02*
X8078000Y12599600D01*
%TO.N,CF_B*%
X9398000Y10069600D02*
X9398000Y10867200D01*
X9398000Y10867200D02*
X9565600Y11034800D01*
X9398000Y10069600D02*
X9398000Y9272000D01*
X9398000Y9272000D02*
X9565600Y9104400D01*
%TO.N,SAWTOOTH_A*%
X4146550Y18959600D02*
X2852996Y18959600D01*
X4146550Y19283450D02*
X4146550Y18959600D01*
X2852996Y18959600D02*
X2815796Y18996800D01*
X3947200Y19859600D02*
X3947200Y19482800D01*
X4146550Y18959600D02*
X4146550Y18609978D01*
X3947200Y19482800D02*
X4146550Y19283450D01*
%TO.N,SYNC_A*%
X4238000Y8032200D02*
X4161800Y7956000D01*
X3135044Y7956000D02*
X2819400Y7640356D01*
X2819400Y7640356D02*
X2819400Y6551166D01*
X4161800Y7956000D02*
X3135044Y7956000D01*
X4238000Y8509600D02*
X4238000Y8032200D01*
X2819400Y6551166D02*
X2849008Y6521558D01*
%TO.N,TRIANGLE_A*%
X5908000Y19804889D02*
X5306934Y19203823D01*
X1458000Y21285200D02*
X1051600Y20878800D01*
X5306934Y19203823D02*
X5183317Y19203823D01*
X7029450Y18609978D02*
X7029450Y18838950D01*
X7029450Y18109852D02*
X7029450Y18609978D01*
X7029450Y18838950D02*
X6008800Y19859600D01*
X1051600Y20788400D02*
X965200Y20788400D01*
%TO.N,IREF_A*%
X1778000Y4622800D02*
X1458000Y4302800D01*
X1778000Y4989600D02*
X1778000Y4622800D01*
X1458000Y4302800D02*
X1458000Y4079111D01*
%TO.N,Net-(Q15A-C1)*%
X6413500Y13566048D02*
X5894747Y13047295D01*
X7029450Y16109348D02*
X6683359Y16109348D01*
X8026400Y16028400D02*
X7110398Y16028400D01*
X2540000Y4466400D02*
X2540000Y5372255D01*
X2274800Y4024400D02*
X2183111Y4024400D01*
X3116629Y2725906D02*
X2565400Y3277135D01*
X2565400Y3277135D02*
X2565400Y3733800D01*
X2098000Y4024400D02*
X2540000Y4466400D01*
X999400Y10448200D02*
X2057400Y11506200D01*
X2933698Y584200D02*
X3116629Y767131D01*
X6413500Y15839489D02*
X6413500Y13566048D01*
X2565400Y3733800D02*
X2274800Y4024400D01*
X2057400Y11506200D02*
X2565400Y11506200D01*
X6683359Y16109348D02*
X6413500Y15839489D01*
X5894747Y13047295D02*
X5894747Y12594755D01*
X7110398Y16028400D02*
X7029450Y16109348D01*
X999400Y6912855D02*
X999400Y10448200D01*
X2540000Y5372255D02*
X999400Y6912855D01*
X3116629Y767131D02*
X3116629Y2725906D01*
%TO.N,VTH_B*%
X8711889Y24458600D02*
X10403248Y24458600D01*
X10403248Y24458600D02*
X10845800Y24016048D01*
X8874800Y13574800D02*
X8874800Y14184400D01*
X10577984Y15296400D02*
X9544800Y15296400D01*
X10845800Y24016048D02*
X10845800Y15564216D01*
X10845800Y15564216D02*
X10577984Y15296400D01*
X7989600Y23400150D02*
X8517800Y23928350D01*
X8517800Y23928350D02*
X8517800Y24264511D01*
X8517800Y24264511D02*
X8711889Y24458600D01*
X8874800Y14626400D02*
X9398000Y15149600D01*
X8874800Y14184400D02*
X8874800Y14626400D01*
%TO.N,TRIANGLE_B*%
X8954093Y18821400D02*
X9781400Y18821400D01*
X8062000Y18670000D02*
X6197600Y20534400D01*
X6197600Y20534400D02*
X4114800Y20534400D01*
X8802693Y18670000D02*
X8954093Y18821400D01*
X9781400Y18821400D02*
X10007600Y19047600D01*
X8077200Y18670000D02*
X8802693Y18670000D01*
%TO.N,IREF_B*%
X9398000Y4521200D02*
X9718000Y4201200D01*
X9718000Y4201200D02*
X9718000Y4079111D01*
X9398000Y4989600D02*
X9398000Y4521200D01*
%TO.N,Net-(C9-Pad2)*%
X694600Y4093089D02*
X1372889Y3414800D01*
X7029450Y13335393D02*
X6589631Y12895574D01*
X7515978Y15609222D02*
X7736800Y15388400D01*
X7029450Y15609222D02*
X7029450Y13335393D01*
X7736800Y15388400D02*
X8026400Y15388400D01*
X1070300Y11526249D02*
X694600Y11150549D01*
X7029450Y15609222D02*
X7515978Y15609222D01*
X694600Y11150549D02*
X694600Y4093089D01*
%TO.N,Net-(Q3A-B1)*%
X8023200Y5509600D02*
X7588000Y5509600D01*
X9078000Y6564400D02*
X8023200Y5509600D01*
X6938000Y6609600D02*
X7588000Y6609600D01*
X7588000Y5509600D02*
X6938000Y5509600D01*
X6938000Y5509600D02*
X6938000Y6609600D01*
X6288000Y6609600D02*
X6938000Y6609600D01*
%TO.N,Net-(Q14A-C1)*%
X8661400Y5385110D02*
X9092890Y5816600D01*
X9890310Y5629400D02*
X10378954Y5629400D01*
X8619400Y3741311D02*
X8619400Y2687000D01*
X8661400Y4441000D02*
X8661400Y5385110D01*
X9078000Y4114800D02*
X8992889Y4114800D01*
X6872441Y1955800D02*
X6558355Y1641714D01*
X10688600Y7701000D02*
X10210800Y8178800D01*
X10688600Y5939046D02*
X10688600Y7701000D01*
X9092890Y5816600D02*
X9703110Y5816600D01*
X9703110Y5816600D02*
X9890310Y5629400D01*
X9078000Y4024400D02*
X8661400Y4441000D01*
X10378954Y5629400D02*
X10688600Y5939046D01*
X8992889Y4114800D02*
X8619400Y3741311D01*
X8619400Y2687000D02*
X7888200Y1955800D01*
X7888200Y1955800D02*
X6872441Y1955800D01*
%TO.N,Net-(Q2A-C1)*%
X4888000Y6609600D02*
X4238000Y6609600D01*
%TO.N,Net-(C18-Pad2)*%
X9565600Y8494800D02*
X10779000Y9708200D01*
X10779000Y9708200D02*
X10779000Y12688596D01*
X10779000Y12688596D02*
X10278000Y13189596D01*
%TO.N,Net-(Q4A-B1)*%
X4238000Y3659600D02*
X3588000Y3659600D01*
X4238000Y2509600D02*
X4238000Y3609600D01*
X3588000Y3659600D02*
X3588000Y5559600D01*
%TO.N,Net-(Q4A-C1)*%
X4888000Y2509600D02*
X4888000Y3609600D01*
%TO.N,Net-(Q1A-B1)*%
X6640400Y10678406D02*
X6288000Y11030806D01*
X6640400Y10087000D02*
X6640400Y10678406D01*
X6938000Y9609600D02*
X6288000Y9609600D01*
X6288000Y11030806D02*
X6288000Y11509600D01*
X6938000Y8509600D02*
X6938000Y9609600D01*
X6288000Y9734600D02*
X6640400Y10087000D01*
%TO.N,Net-(Q5A-B1)*%
X6938000Y2509600D02*
X6938000Y3609600D01*
X6288000Y3609600D02*
X6288000Y5509600D01*
X6938000Y3659600D02*
X6288000Y3659600D01*
%TO.N,Net-(Q5A-C1)*%
X7588000Y2509600D02*
X7588000Y3609600D01*
%TO.N,Net-(Q6A-B1)*%
X6288000Y2489200D02*
X5994400Y2195600D01*
X5994400Y2195600D02*
X5975244Y2195600D01*
X4238000Y609600D02*
X3588000Y609600D01*
X4888000Y1108356D02*
X4888000Y609600D01*
X5975244Y2195600D02*
X4888000Y1108356D01*
X4888000Y609600D02*
X4238000Y609600D01*
%TO.N,Net-(Q14A-E1)*%
X8331200Y7224800D02*
X8331200Y7900400D01*
X8331200Y7900400D02*
X8925600Y8494800D01*
%TO.N,Net-(Q15B-C2)*%
X5858743Y1328857D02*
X6288000Y899600D01*
X6288000Y899600D02*
X6288000Y609600D01*
X6938000Y609600D02*
X7588000Y609600D01*
X6288000Y609600D02*
X6938000Y609600D01*
%TO.N,Net-(Q15A-E1)*%
X2098000Y3414800D02*
X2098000Y3286800D01*
X2585629Y2799171D02*
X2585629Y1904836D01*
X2098000Y3286800D02*
X2585629Y2799171D01*
%TO.N,Net-(U3C--)*%
X4146550Y18109852D02*
X4536780Y18109852D01*
X4587200Y19045712D02*
X4587200Y19859600D01*
X4762500Y18870412D02*
X4587200Y19045712D01*
X5268000Y19859600D02*
X4587200Y19859600D01*
X4536780Y18109852D02*
X4762500Y18335572D01*
X4762500Y18335572D02*
X4762500Y18870412D01*
%TO.N,Net-(R4-Pad1)*%
X7763075Y20304925D02*
X7763075Y21675076D01*
X6607375Y21217876D02*
X6562925Y21262326D01*
X6470669Y21170070D02*
X5136000Y21170070D01*
X8077200Y19990800D02*
X7763075Y20304925D01*
X6562925Y21262326D02*
X6470669Y21170070D01*
X6562925Y21262326D02*
X6562925Y21675076D01*
X7718625Y21217876D02*
X6607375Y21217876D01*
%TO.N,Net-(U6D--)*%
X8481207Y19350800D02*
X8607941Y19224066D01*
X8077200Y19350800D02*
X8481207Y19350800D01*
%TO.N,Net-(U3D--)*%
X4075098Y16180800D02*
X4146550Y16109348D01*
X3230548Y16109348D02*
X3200400Y16079200D01*
X3200400Y16180800D02*
X4075098Y16180800D01*
%TO.N,Net-(D1A-K)*%
X7873994Y14713000D02*
X7873994Y13167905D01*
X3637852Y9858400D02*
X4333349Y10553897D01*
X7873994Y13167905D02*
X7311075Y12604986D01*
X4333349Y10553897D02*
X5560200Y10553897D01*
%TO.N,Net-(R5-Pad2)*%
X3412925Y24337824D02*
X3412925Y24540460D01*
X4657904Y24516258D02*
X4613075Y24471429D01*
X4523920Y24382274D02*
X3457375Y24382274D01*
X355600Y24571411D02*
X355600Y19762200D01*
X4657904Y24516258D02*
X4523920Y24382274D01*
X3457375Y24382274D02*
X3412925Y24337824D01*
X2908985Y25044400D02*
X828589Y25044400D01*
X3412925Y24337824D02*
X3412925Y23925074D01*
X355600Y19762200D02*
X838200Y19279600D01*
X3412925Y24540460D02*
X2908985Y25044400D01*
X4613075Y24471429D02*
X4613075Y23925074D01*
X828589Y25044400D02*
X355600Y24571411D01*
%TO.N,Net-(U3D-+)*%
X4116624Y16639400D02*
X2386200Y16639400D01*
X2301200Y16114800D02*
X2301200Y16724400D01*
%TO.N,Net-(D1C-K)*%
X3200400Y15540800D02*
X4078128Y15540800D01*
X4753890Y12850850D02*
X3098800Y14505940D01*
X4078128Y15540800D02*
X4146550Y15609222D01*
X4888000Y11509600D02*
X4753890Y11643710D01*
X4753890Y11643710D02*
X4753890Y12850850D01*
X3098800Y14505940D02*
X3098800Y15540800D01*
%TO.N,Net-(U6D-+)*%
X8716784Y16991906D02*
X8984290Y16724400D01*
X8716784Y17092322D02*
X8716784Y16991906D01*
X9103400Y16110400D02*
X9103400Y16724400D01*
%TO.N,Net-(D1B-K)*%
X8661400Y10770600D02*
X8661400Y9368600D01*
X5082204Y15439097D02*
X5363490Y15157811D01*
X5363490Y12375064D02*
X5627969Y12110585D01*
X8661400Y9368600D02*
X8925600Y9104400D01*
X8750089Y9104400D02*
X8840489Y9104400D01*
X5567992Y9795157D02*
X5567992Y9669600D01*
X5082204Y16457335D02*
X5082204Y15439097D01*
X7641000Y7580400D02*
X8016600Y7956000D01*
X5666507Y17041638D02*
X5082204Y16457335D01*
X5199949Y10163200D02*
X5567992Y9795157D01*
X4373704Y10163200D02*
X5199949Y10163200D01*
X8925600Y11034800D02*
X8661400Y10770600D01*
X6350000Y7580400D02*
X7641000Y7580400D01*
X4238000Y9609600D02*
X4238000Y10027496D01*
X4238000Y10027496D02*
X4373704Y10163200D01*
X6091200Y10333246D02*
X5567992Y9810038D01*
X5627969Y11259785D02*
X6091200Y10796554D01*
X5363490Y15157811D02*
X5363490Y12375064D01*
X8016600Y8370911D02*
X8750089Y9104400D01*
X5691644Y17041638D02*
X5666507Y17041638D01*
X8016600Y7956000D02*
X8016600Y8370911D01*
X6091200Y10796554D02*
X6091200Y10333246D01*
X5567992Y9810038D02*
X5567992Y9669600D01*
X5627969Y12110585D02*
X5627969Y11259785D01*
%TO.N,Net-(D1C-A)*%
X5842348Y8509600D02*
X6288000Y8509600D01*
X4888000Y9463948D02*
X5842348Y8509600D01*
%TO.N,Net-(D1D-K)*%
X7029450Y17609726D02*
X5438126Y17609726D01*
X5316600Y11990902D02*
X5316600Y11079154D01*
X5316600Y11079154D02*
X5128746Y10891300D01*
X2514600Y7224490D02*
X2514600Y7866520D01*
X2298000Y7007890D02*
X2514600Y7224490D01*
X3588000Y2685587D02*
X3149600Y3123987D01*
X2098000Y9104400D02*
X2098000Y8494800D01*
X4762500Y15327749D02*
X5058690Y15031559D01*
X5067300Y17127874D02*
X4762500Y16823074D01*
X3511600Y10163200D02*
X4238000Y10889600D01*
X2514600Y7866520D02*
X3157680Y8509600D01*
X5058690Y15031559D02*
X5058690Y12248812D01*
X5067300Y17238900D02*
X5067300Y17127874D01*
X3159400Y9155200D02*
X3159400Y10163200D01*
X2148800Y9155200D02*
X3159400Y9155200D01*
X5128746Y10891300D02*
X4238000Y10891300D01*
X4762500Y16823074D02*
X4762500Y15327749D01*
X5438126Y17609726D02*
X5067300Y17238900D01*
X3157680Y8509600D02*
X3588000Y8509600D01*
X4238000Y10891300D02*
X4238000Y11509600D01*
X3149600Y5410446D02*
X2298000Y6262046D01*
X2298000Y6262046D02*
X2298000Y7007890D01*
X3157680Y8936480D02*
X3157680Y8509600D01*
X3149600Y3123987D02*
X3149600Y5410446D01*
X4238000Y10889600D02*
X4238000Y10891300D01*
X3159400Y9155200D02*
X3159400Y8938200D01*
X3159400Y10163200D02*
X3511600Y10163200D01*
X3159400Y8938200D02*
X3157680Y8936480D01*
X5058690Y12248812D02*
X5316600Y11990902D01*
%TO.N,Net-(D1A-A)*%
X3588000Y11509600D02*
X3588000Y12472139D01*
X3588000Y12472139D02*
X3710061Y12594200D01*
%TO.N,Net-(U3C-+)*%
X2279220Y18758380D02*
X2279220Y19250820D01*
X3155148Y18421400D02*
X2616200Y18421400D01*
X2757391Y19807871D02*
X2921000Y19971480D01*
X3412925Y21599325D02*
X3412925Y21675076D01*
X3527400Y18049148D02*
X3155148Y18421400D01*
X2616200Y18421400D02*
X2279220Y18758380D01*
X3606800Y17609726D02*
X3527400Y17689126D01*
X2921000Y19971480D02*
X2921000Y21107400D01*
X4146550Y17609726D02*
X3606800Y17609726D01*
X2279220Y19250820D02*
X2757391Y19728991D01*
X2921000Y21107400D02*
X3412925Y21599325D01*
X2757391Y19728991D02*
X2757391Y19807871D01*
X3527400Y17689126D02*
X3527400Y18049148D01*
%TO.N,Net-(U5B--)*%
X4568625Y21217876D02*
X3793476Y21217876D01*
X4613075Y21675076D02*
X4613075Y21262326D01*
X3288391Y20712791D02*
X3288391Y19587923D01*
X4613075Y21262326D02*
X4568625Y21217876D01*
X3793476Y21217876D02*
X3288391Y20712791D01*
%TO.N,Net-(U6C-+)*%
X8338335Y24835281D02*
X7763075Y24260021D01*
X7763075Y24260021D02*
X7763075Y23925074D01*
%TD*%
%TA.AperFunction,Conductor*%
%TO.N,+12V*%
G36*
X1638049Y13647328D02*
G01*
X1641970Y13639278D01*
X1641991Y13638570D01*
X1641991Y13508776D01*
X1638564Y13500503D01*
X1631914Y13497189D01*
X1557278Y13486738D01*
X1487347Y13456694D01*
X1487346Y13456694D01*
X1433631Y13416791D01*
X1397557Y13375341D01*
X1397556Y13375340D01*
X1384709Y13349121D01*
X1377992Y13343199D01*
X1371433Y13342902D01*
X1370214Y13343199D01*
X1327116Y13353703D01*
X1110864Y13406408D01*
X1103637Y13411696D01*
X1102267Y13420545D01*
X1105164Y13425847D01*
X1294078Y13623984D01*
X1302266Y13627606D01*
X1306509Y13626917D01*
X1334019Y13617005D01*
X1387978Y13620496D01*
X1458862Y13632384D01*
X1544061Y13645045D01*
X1544567Y13645097D01*
X1557899Y13645905D01*
X1629584Y13650249D01*
X1638049Y13647328D01*
G37*
%TD.AperFunction*%
%TD*%
%TA.AperFunction,Conductor*%
%TO.N,Net-(Q14A-C1)*%
G36*
X7028296Y2027813D02*
G01*
X7032925Y2020147D01*
X7033057Y2018392D01*
X7033057Y1888694D01*
X7029630Y1880421D01*
X7024245Y1877356D01*
X6960456Y1861108D01*
X6909545Y1815334D01*
X6909543Y1815332D01*
X6877337Y1756833D01*
X6860861Y1700170D01*
X6858061Y1669896D01*
X6853887Y1661974D01*
X6847120Y1659295D01*
X6577577Y1642941D01*
X6569111Y1645861D01*
X6565189Y1653911D01*
X6566397Y1659841D01*
X6688086Y1903775D01*
X6694845Y1909646D01*
X6697721Y1910220D01*
X6729364Y1912476D01*
X6781832Y1941547D01*
X6849022Y1981286D01*
X6849708Y1981631D01*
X6931445Y2016218D01*
X6934245Y2017010D01*
X7019605Y2029960D01*
X7028296Y2027813D01*
G37*
%TD.AperFunction*%
%TD*%
%TA.AperFunction,Conductor*%
%TO.N,Net-(U6C-+)*%
G36*
X8328496Y24829664D02*
G01*
X8333919Y24822538D01*
X8333919Y24816570D01*
X8265195Y24556017D01*
X8259772Y24548891D01*
X8254623Y24547325D01*
X8222890Y24545311D01*
X8222884Y24545309D01*
X8170381Y24522033D01*
X8108109Y24480620D01*
X8108101Y24480614D01*
X8038638Y24423656D01*
X7972824Y24361544D01*
X7964456Y24358358D01*
X7956521Y24361780D01*
X7864832Y24453469D01*
X7861405Y24461742D01*
X7864594Y24469769D01*
X7926711Y24535588D01*
X7983670Y24605055D01*
X8025083Y24667329D01*
X8048360Y24719834D01*
X8048360Y24719837D01*
X8048361Y24719839D01*
X8050376Y24751570D01*
X8054320Y24759610D01*
X8059066Y24762142D01*
X8319625Y24830867D01*
X8328496Y24829664D01*
G37*
%TD.AperFunction*%
%TD*%
%TA.AperFunction,Conductor*%
%TO.N,VTH_B*%
G36*
X9874582Y15414549D02*
G01*
X9875616Y15414013D01*
X9906628Y15395906D01*
X9988070Y15382905D01*
X10104809Y15375934D01*
X10226252Y15373524D01*
X10229308Y15373053D01*
X10230444Y15372719D01*
X10232535Y15372105D01*
X10232537Y15372104D01*
X10232538Y15372104D01*
X10363458Y15372104D01*
X10363462Y15372104D01*
X10363940Y15372245D01*
X10367267Y15372719D01*
X10391121Y15372639D01*
X10399381Y15369185D01*
X10402780Y15360940D01*
X10402781Y15231414D01*
X10399354Y15223141D01*
X10391577Y15219725D01*
X10247598Y15213610D01*
X10219615Y15210148D01*
X10107680Y15196299D01*
X9993233Y15171956D01*
X9914447Y15144272D01*
X9914445Y15144271D01*
X9886100Y15120739D01*
X9877546Y15118091D01*
X9875747Y15118401D01*
X9433281Y15230785D01*
X9426106Y15236143D01*
X9424821Y15245005D01*
X9430179Y15252180D01*
X9432066Y15253085D01*
X9865634Y15414868D01*
X9874582Y15414549D01*
G37*
%TD.AperFunction*%
%TD*%
%TA.AperFunction,Conductor*%
%TO.N,GND*%
G36*
X5425494Y22968663D02*
G01*
X5586464Y22936507D01*
X5589395Y22935503D01*
X5628335Y22916033D01*
X5634202Y22909268D01*
X5633567Y22900336D01*
X5613400Y22860001D01*
X5613400Y22811372D01*
X5612620Y22807172D01*
X5488382Y22484155D01*
X5482214Y22477663D01*
X5481162Y22477255D01*
X5417059Y22455887D01*
X5408127Y22456522D01*
X5405086Y22458714D01*
X5386498Y22477302D01*
X5383908Y22481230D01*
X5283202Y22732996D01*
X5283198Y22733003D01*
X5234365Y22806253D01*
X5232400Y22812743D01*
X5232400Y22860001D01*
X5232399Y22860002D01*
X5212113Y22880287D01*
X5208686Y22888560D01*
X5209285Y22892257D01*
X5229840Y22953921D01*
X5235707Y22960684D01*
X5240489Y22961910D01*
X5422770Y22968880D01*
X5425494Y22968663D01*
G37*
%TD.AperFunction*%
%TD*%
%TA.AperFunction,Conductor*%
%TO.N,+5V*%
G36*
X2342548Y24669008D02*
G01*
X2569304Y24552196D01*
X2575089Y24545361D01*
X2574347Y24536437D01*
X2570635Y24532196D01*
X2347688Y24376835D01*
X2338941Y24374916D01*
X2336647Y24375574D01*
X2315622Y24384000D01*
X2315621Y24384000D01*
X2272776Y24384000D01*
X2267230Y24385398D01*
X2207946Y24417312D01*
X2207944Y24417313D01*
X2132798Y24422312D01*
X2058697Y24423601D01*
X2050484Y24427171D01*
X2047200Y24435299D01*
X2047200Y24565336D01*
X2050627Y24573609D01*
X2058034Y24577004D01*
X2127717Y24582175D01*
X2197126Y24597955D01*
X2234927Y24620165D01*
X2235500Y24620459D01*
X2293073Y24646068D01*
X2331232Y24668672D01*
X2340097Y24669939D01*
X2342548Y24669008D01*
G37*
%TD.AperFunction*%
%TD*%
%TA.AperFunction,Conductor*%
%TO.N,TRIANGLE_B*%
G36*
X10002087Y19090473D02*
G01*
X10005521Y19082203D01*
X10003947Y19076331D01*
X9868414Y18842172D01*
X9861304Y18836728D01*
X9858067Y18836335D01*
X9827598Y18836911D01*
X9774734Y18813993D01*
X9706757Y18781076D01*
X9706167Y18780829D01*
X9625906Y18752292D01*
X9619713Y18751839D01*
X9534351Y18768748D01*
X9526901Y18773717D01*
X9524924Y18780130D01*
X9524127Y18881341D01*
X9527489Y18889639D01*
X9533181Y18892828D01*
X9596422Y18907497D01*
X9649356Y18949186D01*
X9684778Y19002774D01*
X9704610Y19055258D01*
X9709197Y19083801D01*
X9713894Y19091423D01*
X9720735Y19093642D01*
X9993811Y19093892D01*
X10002087Y19090473D01*
G37*
%TD.AperFunction*%
%TD*%
%TA.AperFunction,Conductor*%
%TO.N,GND*%
G36*
X9721309Y21941354D02*
G01*
X9767493Y21900297D01*
X9786261Y21887323D01*
X9820169Y21863881D01*
X9844863Y21851362D01*
X9868195Y21839532D01*
X9908669Y21827347D01*
X9929654Y21827401D01*
X9937936Y21823995D01*
X9940997Y21818685D01*
X10009568Y21558713D01*
X10008365Y21549839D01*
X10001239Y21544416D01*
X9995271Y21544416D01*
X9735299Y21612987D01*
X9728173Y21618410D01*
X9726583Y21624330D01*
X9726637Y21645315D01*
X9714452Y21685789D01*
X9656041Y21738737D01*
X9652213Y21746833D01*
X9652208Y21747839D01*
X9653687Y21786491D01*
X9612631Y21832675D01*
X9609696Y21841132D01*
X9613102Y21848718D01*
X9705266Y21940882D01*
X9713538Y21944308D01*
X9721309Y21941354D01*
G37*
%TD.AperFunction*%
%TD*%
%TA.AperFunction,Conductor*%
%TO.N,Net-(D1A-K)*%
G36*
X5311009Y10699652D02*
G01*
X5313292Y10698322D01*
X5543845Y10564007D01*
X5549268Y10556881D01*
X5548065Y10548007D01*
X5543845Y10543787D01*
X5311011Y10408144D01*
X5302137Y10406941D01*
X5297391Y10409472D01*
X5273523Y10430490D01*
X5273521Y10430491D01*
X5273522Y10430491D01*
X5219943Y10451155D01*
X5219937Y10451157D01*
X5146633Y10465906D01*
X5146612Y10465909D01*
X5057221Y10474752D01*
X4966762Y10477369D01*
X4958591Y10481034D01*
X4955400Y10489064D01*
X4955400Y10618731D01*
X4958827Y10627004D01*
X4966761Y10630426D01*
X5057221Y10633044D01*
X5146619Y10641888D01*
X5219937Y10656639D01*
X5273523Y10677306D01*
X5297391Y10698323D01*
X5305862Y10701217D01*
X5311009Y10699652D01*
G37*
%TD.AperFunction*%
%TD*%
%TA.AperFunction,Conductor*%
%TO.N,Net-(Q15B-C2)*%
G36*
X6138008Y1255718D02*
G01*
X6145134Y1250295D01*
X6146700Y1245149D01*
X6148495Y1216862D01*
X6148715Y1213409D01*
X6171991Y1160905D01*
X6213404Y1098634D01*
X6213410Y1098626D01*
X6270368Y1029162D01*
X6332480Y963347D01*
X6335666Y954979D01*
X6332244Y947044D01*
X6234798Y849598D01*
X6229393Y846528D01*
X6108319Y815915D01*
X6099458Y817209D01*
X6094108Y824390D01*
X6093914Y825316D01*
X6070600Y965200D01*
X6026695Y1015608D01*
X5996122Y1029162D01*
X5974191Y1038885D01*
X5970738Y1039105D01*
X5942452Y1040900D01*
X5934414Y1044843D01*
X5931882Y1049592D01*
X5918947Y1098631D01*
X5863158Y1310146D01*
X5864361Y1319019D01*
X5871487Y1324442D01*
X5877455Y1324442D01*
X6138008Y1255718D01*
G37*
%TD.AperFunction*%
%TD*%
%TA.AperFunction,Conductor*%
%TO.N,VTC*%
G36*
X9000971Y2329078D02*
G01*
X9003400Y2327623D01*
X9206110Y2169959D01*
X9210537Y2162175D01*
X9208162Y2153541D01*
X9204530Y2150453D01*
X8951445Y2012407D01*
X8942541Y2011453D01*
X8935571Y2017075D01*
X8935377Y2017446D01*
X8892469Y2103262D01*
X8891834Y2112194D01*
X8892237Y2113235D01*
X8985528Y2323140D01*
X8992019Y2329306D01*
X9000971Y2329078D01*
G37*
%TD.AperFunction*%
%TD*%
%TA.AperFunction,Conductor*%
%TO.N,GND*%
G36*
X3366982Y7389184D02*
G01*
X3379473Y7380568D01*
X3589158Y7235940D01*
X3594023Y7228422D01*
X3594112Y7224763D01*
X3590239Y7195725D01*
X3605885Y7142732D01*
X3605885Y7142731D01*
X3630777Y7074152D01*
X3630915Y7073718D01*
X3653746Y6991348D01*
X3654107Y6989443D01*
X3662845Y6906124D01*
X3660300Y6897539D01*
X3652429Y6893268D01*
X3651209Y6893204D01*
X3516900Y6893204D01*
X3508627Y6896631D01*
X3505200Y6904904D01*
X3505200Y6959601D01*
X3458815Y7026353D01*
X3458813Y7026356D01*
X3409839Y7067481D01*
X3409834Y7067484D01*
X3361213Y7092585D01*
X3361214Y7092585D01*
X3333937Y7099843D01*
X3326824Y7105283D01*
X3325290Y7112164D01*
X3348684Y7380569D01*
X3352816Y7388512D01*
X3361356Y7391208D01*
X3366982Y7389184D01*
G37*
%TD.AperFunction*%
%TD*%
%TA.AperFunction,Conductor*%
%TO.N,CF_B*%
G36*
X9410649Y10127913D02*
G01*
X9411629Y10126042D01*
X9588884Y9697440D01*
X9588879Y9688486D01*
X9586679Y9685044D01*
X9557184Y9653014D01*
X9557184Y9653013D01*
X9512131Y9570494D01*
X9479420Y9461222D01*
X9479419Y9461216D01*
X9481893Y9343437D01*
X9481894Y9343433D01*
X9538065Y9243099D01*
X9539116Y9234206D01*
X9536129Y9229111D01*
X9444788Y9137770D01*
X9436515Y9134343D01*
X9428242Y9137770D01*
X9426737Y9139618D01*
X9367933Y9229111D01*
X9348776Y9258266D01*
X9347210Y9261828D01*
X9326621Y9343435D01*
X9311915Y9401724D01*
X9311577Y9403976D01*
X9304801Y9533955D01*
X9304793Y9534302D01*
X9305491Y9631621D01*
X9293038Y9670077D01*
X9292732Y9676149D01*
X9389380Y10124041D01*
X9394475Y10131403D01*
X9403285Y10133008D01*
X9410649Y10127913D01*
G37*
%TD.AperFunction*%
%TD*%
%TA.AperFunction,Conductor*%
%TO.N,+5V*%
G36*
X8377335Y21695900D02*
G01*
X8380757Y21687965D01*
X8383373Y21597506D01*
X8392216Y21508115D01*
X8392219Y21508094D01*
X8406968Y21434790D01*
X8406970Y21434784D01*
X8427634Y21381205D01*
X8427635Y21381204D01*
X8448652Y21357337D01*
X8451547Y21348865D01*
X8449981Y21343716D01*
X8314338Y21110882D01*
X8307212Y21105459D01*
X8298338Y21106662D01*
X8294118Y21110882D01*
X8158474Y21343716D01*
X8157271Y21352590D01*
X8159800Y21357335D01*
X8180819Y21381204D01*
X8201486Y21434790D01*
X8216237Y21508108D01*
X8225081Y21597506D01*
X8227699Y21687966D01*
X8231364Y21696136D01*
X8239394Y21699327D01*
X8369062Y21699327D01*
X8377335Y21695900D01*
G37*
%TD.AperFunction*%
%TD*%
%TA.AperFunction,Conductor*%
%TO.N,Net-(Q10A-E1)*%
G36*
X8096037Y12592471D02*
G01*
X8348844Y12486778D01*
X8355154Y12480426D01*
X8355942Y12474549D01*
X8352190Y12444197D01*
X8362965Y12389707D01*
X8389962Y12324728D01*
X8433783Y12254121D01*
X8487979Y12190953D01*
X8490765Y12182443D01*
X8487372Y12175062D01*
X8395651Y12083341D01*
X8387378Y12079914D01*
X8379105Y12083341D01*
X8379002Y12083445D01*
X8316209Y12147833D01*
X8253738Y12212250D01*
X8199665Y12263210D01*
X8153792Y12295709D01*
X8153791Y12295710D01*
X8153792Y12295710D01*
X8123763Y12302875D01*
X8116511Y12308128D01*
X8114878Y12312739D01*
X8104818Y12389707D01*
X8079926Y12580160D01*
X8082251Y12588806D01*
X8090011Y12593276D01*
X8096037Y12592471D01*
G37*
%TD.AperFunction*%
%TD*%
%TA.AperFunction,Conductor*%
%TO.N,Net-(D1B-K)*%
G36*
X5866435Y10198536D02*
G01*
X5957788Y10107183D01*
X5961215Y10098910D01*
X5958502Y10091419D01*
X5905590Y10027932D01*
X5905588Y10027931D01*
X5905588Y10027929D01*
X5864861Y9956116D01*
X5841561Y9889689D01*
X5834095Y9834165D01*
X5834095Y9834163D01*
X5839333Y9803915D01*
X5837368Y9795179D01*
X5832705Y9791294D01*
X5585700Y9677386D01*
X5576752Y9677034D01*
X5570175Y9683111D01*
X5569150Y9689087D01*
X5579756Y9803915D01*
X5594058Y9958770D01*
X5598231Y9966692D01*
X5602397Y9968915D01*
X5614950Y9972617D01*
X5631951Y9977630D01*
X5631951Y9977631D01*
X5631953Y9977631D01*
X5675675Y10012891D01*
X5727093Y10066742D01*
X5787349Y10133478D01*
X5847846Y10197146D01*
X5849987Y10198916D01*
X5851841Y10200108D01*
X5860651Y10201695D01*
X5866435Y10198536D01*
G37*
%TD.AperFunction*%
%TD*%
%TA.AperFunction,Conductor*%
%TO.N,GND*%
G36*
X9780109Y6611212D02*
G01*
X9837722Y6561706D01*
X9902726Y6521166D01*
X9962511Y6496043D01*
X9985985Y6491216D01*
X10012693Y6485722D01*
X10012694Y6485722D01*
X10012699Y6485721D01*
X10040009Y6488633D01*
X10048597Y6486103D01*
X10052153Y6481237D01*
X10150971Y6226969D01*
X10150774Y6218017D01*
X10144304Y6211826D01*
X10138291Y6211166D01*
X9872221Y6252002D01*
X9864564Y6256645D01*
X9862501Y6261387D01*
X9857309Y6288767D01*
X9830220Y6332927D01*
X9830215Y6332934D01*
X9786507Y6385057D01*
X9729895Y6444483D01*
X9693285Y6481237D01*
X9672359Y6502245D01*
X9668949Y6510524D01*
X9672375Y6518773D01*
X9764213Y6610611D01*
X9772485Y6614037D01*
X9780109Y6611212D01*
G37*
%TD.AperFunction*%
%TD*%
%TA.AperFunction,Conductor*%
%TO.N,TRIANGLE_B*%
G36*
X4377608Y20678827D02*
G01*
X4401476Y20657809D01*
X4455061Y20637142D01*
X4528380Y20622391D01*
X4617778Y20613547D01*
X4708238Y20610929D01*
X4716409Y20607264D01*
X4719600Y20599234D01*
X4719600Y20469567D01*
X4716173Y20461294D01*
X4708238Y20457872D01*
X4617778Y20455255D01*
X4528386Y20446412D01*
X4528365Y20446409D01*
X4455060Y20431660D01*
X4455054Y20431658D01*
X4401475Y20410994D01*
X4377609Y20389977D01*
X4369136Y20387082D01*
X4363987Y20388648D01*
X4131154Y20524290D01*
X4125731Y20531416D01*
X4126934Y20540290D01*
X4131154Y20544510D01*
X4363990Y20680155D01*
X4372862Y20681357D01*
X4377608Y20678827D01*
G37*
%TD.AperFunction*%
%TD*%
%TA.AperFunction,Conductor*%
%TO.N,Net-(R5-Pad2)*%
G36*
X4381585Y24600482D02*
G01*
X4639497Y24522152D01*
X4646416Y24516470D01*
X4647291Y24507558D01*
X4644085Y24502410D01*
X4444376Y24315774D01*
X4435991Y24312629D01*
X4431611Y24313641D01*
X4404142Y24325925D01*
X4349028Y24326824D01*
X4349016Y24326823D01*
X4276141Y24319555D01*
X4188491Y24310528D01*
X4188151Y24310503D01*
X4100543Y24306617D01*
X4092127Y24309674D01*
X4088336Y24317788D01*
X4088325Y24318306D01*
X4088325Y24448049D01*
X4091752Y24456322D01*
X4098679Y24459671D01*
X4177747Y24468809D01*
X4253081Y24495265D01*
X4312150Y24531022D01*
X4352777Y24569258D01*
X4368113Y24595236D01*
X4375268Y24600616D01*
X4381585Y24600482D01*
G37*
%TD.AperFunction*%
%TD*%
%TA.AperFunction,Conductor*%
%TO.N,-5V*%
G36*
X8589673Y22357139D02*
G01*
X8829743Y22233690D01*
X8835534Y22226859D01*
X8835739Y22220430D01*
X8829095Y22194025D01*
X8829095Y22194018D01*
X8830513Y22142387D01*
X8845454Y22080396D01*
X8845454Y22080395D01*
X8877112Y22013879D01*
X8877115Y22013874D01*
X8922220Y21956850D01*
X8924665Y21948236D01*
X8921317Y21941319D01*
X8829467Y21849469D01*
X8821194Y21846042D01*
X8812921Y21849469D01*
X8812654Y21849744D01*
X8757427Y21908716D01*
X8703832Y21970549D01*
X8703831Y21970549D01*
X8658528Y22021002D01*
X8619910Y22054656D01*
X8604983Y22059747D01*
X8593893Y22063529D01*
X8587169Y22069443D01*
X8585984Y22074027D01*
X8572637Y22346162D01*
X8575655Y22354592D01*
X8583750Y22358420D01*
X8589673Y22357139D01*
G37*
%TD.AperFunction*%
%TD*%
%TA.AperFunction,Conductor*%
%TO.N,GND*%
G36*
X1244345Y22228096D02*
G01*
X1251471Y22222673D01*
X1253047Y22217346D01*
X1254426Y22188715D01*
X1274479Y22139714D01*
X1274482Y22139708D01*
X1310925Y22081579D01*
X1310929Y22081573D01*
X1361883Y22017010D01*
X1361884Y22017009D01*
X1417801Y21956945D01*
X1420930Y21948555D01*
X1417510Y21940700D01*
X1325712Y21848902D01*
X1317439Y21845475D01*
X1309467Y21848611D01*
X1309154Y21848902D01*
X1249406Y21904525D01*
X1249403Y21904528D01*
X1249402Y21904529D01*
X1184839Y21955483D01*
X1184833Y21955487D01*
X1182507Y21956945D01*
X1168080Y21965990D01*
X1126704Y21991930D01*
X1126698Y21991933D01*
X1077697Y22011986D01*
X1049066Y22013365D01*
X1040967Y22017186D01*
X1038316Y22022067D01*
X969627Y22282488D01*
X970830Y22291362D01*
X977956Y22296785D01*
X983924Y22296785D01*
X1244345Y22228096D01*
G37*
%TD.AperFunction*%
%TD*%
%TA.AperFunction,Conductor*%
%TO.N,+12V*%
G36*
X4961354Y8313872D02*
G01*
X4964766Y8306195D01*
X4969199Y8219295D01*
X4969201Y8219283D01*
X4982950Y8133820D01*
X4982953Y8133807D01*
X4985260Y8126030D01*
X5003585Y8064248D01*
X5029221Y8014035D01*
X5051731Y7992549D01*
X5055349Y7984359D01*
X5054112Y7978845D01*
X4932721Y7736603D01*
X4925951Y7730742D01*
X4917019Y7731385D01*
X4912527Y7735353D01*
X4911693Y7736603D01*
X4763266Y7959163D01*
X4761527Y7967948D01*
X4763631Y7972663D01*
X4782338Y7997665D01*
X4782338Y7997668D01*
X4782340Y7997670D01*
X4797780Y8052196D01*
X4797780Y8052198D01*
X4806702Y8126030D01*
X4810809Y8215597D01*
X4811687Y8305713D01*
X4815194Y8313952D01*
X4823386Y8317299D01*
X4953081Y8317299D01*
X4961354Y8313872D01*
G37*
%TD.AperFunction*%
%TD*%
%TA.AperFunction,Conductor*%
%TO.N,Net-(U6D--)*%
G36*
X8116660Y19426185D02*
G01*
X8201389Y19420633D01*
X8201917Y19420572D01*
X8286764Y19406771D01*
X8286765Y19406771D01*
X8357334Y19393434D01*
X8357337Y19393434D01*
X8357341Y19393433D01*
X8390972Y19390392D01*
X8411149Y19388566D01*
X8411150Y19388566D01*
X8411150Y19388567D01*
X8411152Y19388566D01*
X8438785Y19397749D01*
X8447715Y19397106D01*
X8451091Y19394559D01*
X8551901Y19284703D01*
X8635615Y19193477D01*
X8638684Y19185064D01*
X8634906Y19176946D01*
X8629572Y19174153D01*
X8368141Y19115112D01*
X8359317Y19116633D01*
X8354942Y19121620D01*
X8342802Y19147910D01*
X8305801Y19177000D01*
X8305800Y19177000D01*
X8236881Y19177000D01*
X8228608Y19180427D01*
X8226384Y19183532D01*
X8221488Y19193477D01*
X8187596Y19262317D01*
X8187595Y19262318D01*
X8187596Y19262318D01*
X8114218Y19273128D01*
X8106532Y19277724D01*
X8104223Y19284703D01*
X8104223Y19414509D01*
X8107650Y19422782D01*
X8115923Y19426209D01*
X8116660Y19426185D01*
G37*
%TD.AperFunction*%
%TD*%
%TA.AperFunction,Conductor*%
%TO.N,Net-(U6D-+)*%
G36*
X8734587Y17084727D02*
G01*
X8982243Y16973652D01*
X8988389Y16967140D01*
X8988722Y16959824D01*
X8984607Y16945119D01*
X8982208Y16909664D01*
X8982208Y16909652D01*
X8987894Y16867274D01*
X8987895Y16867270D01*
X9005330Y16822101D01*
X9005331Y16822098D01*
X9032087Y16786400D01*
X9034307Y16777725D01*
X9030998Y16771110D01*
X8938471Y16678583D01*
X8930198Y16675156D01*
X8922140Y16678373D01*
X8884529Y16714097D01*
X8884529Y16714096D01*
X8842047Y16749646D01*
X8804132Y16775953D01*
X8804131Y16775954D01*
X8804129Y16775955D01*
X8771978Y16791779D01*
X8771973Y16791781D01*
X8755608Y16794449D01*
X8747994Y16799162D01*
X8745853Y16804794D01*
X8739399Y16867270D01*
X8718161Y17072852D01*
X8720719Y17081431D01*
X8728597Y17085690D01*
X8734587Y17084727D01*
G37*
%TD.AperFunction*%
%TD*%
%TA.AperFunction,Conductor*%
%TO.N,GND*%
G36*
X1219200Y24358600D02*
G01*
X1207200Y24352600D01*
X1207200Y24460200D01*
X1219200Y24460200D01*
X1219200Y24358600D01*
G37*
%TD.AperFunction*%
%TD*%
%TA.AperFunction,Conductor*%
%TO.N,GND*%
G36*
X9902817Y11989223D02*
G01*
X10168898Y11943696D01*
X10176475Y11938923D01*
X10178457Y11930191D01*
X10175980Y11924755D01*
X10005602Y11716509D01*
X9997711Y11712276D01*
X9990833Y11713708D01*
X9985828Y11716509D01*
X9966267Y11727457D01*
X9966266Y11727457D01*
X9914018Y11743121D01*
X9850226Y11747565D01*
X9782490Y11732447D01*
X9726377Y11694787D01*
X9717598Y11693022D01*
X9711584Y11696229D01*
X9619776Y11788037D01*
X9616349Y11796310D01*
X9619776Y11804583D01*
X9620641Y11805367D01*
X9685406Y11858246D01*
X9686929Y11859299D01*
X9760691Y11902081D01*
X9761022Y11902258D01*
X9826348Y11934025D01*
X9874123Y11961178D01*
X9891430Y11984638D01*
X9899098Y11989260D01*
X9902817Y11989223D01*
G37*
%TD.AperFunction*%
%TD*%
%TA.AperFunction,Conductor*%
%TO.N,+5V*%
G36*
X8520650Y21306487D02*
G01*
X8544313Y21290283D01*
X8544318Y21290280D01*
X8544324Y21290276D01*
X8595741Y21259800D01*
X8661393Y21259800D01*
X8661400Y21259800D01*
X8726016Y21267349D01*
X8781364Y21302425D01*
X8790183Y21303958D01*
X8795897Y21300814D01*
X8887675Y21209036D01*
X8891102Y21200763D01*
X8887675Y21192490D01*
X8886594Y21191535D01*
X8819765Y21139448D01*
X8817789Y21138203D01*
X8740182Y21099549D01*
X8739638Y21099312D01*
X8669635Y21072907D01*
X8669632Y21072906D01*
X8640315Y21060260D01*
X8617334Y21050347D01*
X8617330Y21050345D01*
X8597062Y21028044D01*
X8588962Y21024226D01*
X8585614Y21024551D01*
X8323181Y21088993D01*
X8315964Y21094293D01*
X8314609Y21103145D01*
X8317517Y21108443D01*
X8505587Y21304925D01*
X8513783Y21308531D01*
X8520650Y21306487D01*
G37*
%TD.AperFunction*%
%TD*%
%TA.AperFunction,Conductor*%
%TO.N,IREF_B*%
G36*
X9415822Y5050685D02*
G01*
X9417079Y5049023D01*
X9657951Y4663303D01*
X9659426Y4654471D01*
X9657918Y4650857D01*
X9637582Y4618671D01*
X9612774Y4538348D01*
X9612773Y4538343D01*
X9602795Y4433120D01*
X9602795Y4433119D01*
X9623024Y4320013D01*
X9623025Y4320009D01*
X9683832Y4223945D01*
X9685361Y4215121D01*
X9682219Y4209414D01*
X9590694Y4117889D01*
X9582421Y4114462D01*
X9574148Y4117889D01*
X9573007Y4119214D01*
X9494754Y4225332D01*
X9493377Y4227763D01*
X9454819Y4320009D01*
X9442020Y4350630D01*
X9441760Y4351401D01*
X9412544Y4463326D01*
X9393600Y4544860D01*
X9393599Y4544863D01*
X9374733Y4573868D01*
X9372855Y4580816D01*
X9395469Y5043398D01*
X9399296Y5051493D01*
X9407726Y5054512D01*
X9415822Y5050685D01*
G37*
%TD.AperFunction*%
%TD*%
%TA.AperFunction,Conductor*%
%TO.N,-5V*%
G36*
X1944479Y23833538D02*
G01*
X1945897Y23832329D01*
X2037395Y23740831D01*
X2040822Y23732558D01*
X2039068Y23726396D01*
X1979179Y23629728D01*
X1962025Y23515840D01*
X1962025Y23515838D01*
X1962025Y23515836D01*
X1975862Y23409871D01*
X1975862Y23409869D01*
X1975863Y23409868D01*
X2004070Y23329110D01*
X2025886Y23296936D01*
X2027692Y23288166D01*
X2026298Y23284457D01*
X1796143Y22891481D01*
X1789005Y22886074D01*
X1780134Y22887298D01*
X1774727Y22894436D01*
X1774384Y22896472D01*
X1738405Y23356419D01*
X1739967Y23363229D01*
X1757865Y23393850D01*
X1773717Y23478174D01*
X1799313Y23592954D01*
X1799821Y23594625D01*
X1813441Y23629728D01*
X1848508Y23720108D01*
X1849929Y23722721D01*
X1928142Y23830912D01*
X1935766Y23835608D01*
X1944479Y23833538D01*
G37*
%TD.AperFunction*%
%TD*%
%TA.AperFunction,Conductor*%
%TO.N,Net-(Q15A-C1)*%
G36*
X5956819Y13200355D02*
G01*
X5958186Y13199183D01*
X6049885Y13107484D01*
X6053312Y13099211D01*
X6051692Y13093272D01*
X6018191Y13036416D01*
X6018191Y13036415D01*
X6015291Y12967791D01*
X6034867Y12903465D01*
X6034869Y12903460D01*
X6034870Y12903457D01*
X6064208Y12851647D01*
X6084080Y12828261D01*
X6086826Y12819738D01*
X6084002Y12813018D01*
X5907316Y12609352D01*
X5899306Y12605348D01*
X5890811Y12608181D01*
X5887420Y12613196D01*
X5875603Y12647373D01*
X5798202Y12871249D01*
X5798738Y12880186D01*
X5800300Y12882594D01*
X5820877Y12907057D01*
X5836607Y12965398D01*
X5855073Y13041722D01*
X5855308Y13042466D01*
X5887941Y13125335D01*
X5889374Y13127939D01*
X5940468Y13197817D01*
X5948118Y13202471D01*
X5956819Y13200355D01*
G37*
%TD.AperFunction*%
%TD*%
%TA.AperFunction,Conductor*%
%TO.N,Net-(D1A-A)*%
G36*
X3713052Y12581009D02*
G01*
X3716364Y12575934D01*
X3800429Y12319000D01*
X3799745Y12310072D01*
X3795560Y12305472D01*
X3769694Y12289124D01*
X3769691Y12289121D01*
X3732816Y12246700D01*
X3732815Y12246698D01*
X3698821Y12185522D01*
X3698820Y12185520D01*
X3677095Y12117997D01*
X3673885Y12108019D01*
X3665441Y12028354D01*
X3665310Y12027121D01*
X3661030Y12019255D01*
X3653675Y12016654D01*
X3523954Y12016654D01*
X3515681Y12020081D01*
X3512254Y12028354D01*
X3512262Y12028799D01*
X3515655Y12117877D01*
X3515672Y12118153D01*
X3523288Y12207138D01*
X3526216Y12246700D01*
X3528762Y12281089D01*
X3528761Y12281097D01*
X3528762Y12281100D01*
X3526993Y12319000D01*
X3526160Y12336862D01*
X3512936Y12364422D01*
X3512448Y12373362D01*
X3514771Y12377289D01*
X3696533Y12580106D01*
X3704604Y12583979D01*
X3713052Y12581009D01*
G37*
%TD.AperFunction*%
%TD*%
%TA.AperFunction,Conductor*%
%TO.N,-5V*%
G36*
X5430954Y18138009D02*
G01*
X5436377Y18130883D01*
X5436377Y18124915D01*
X5367653Y17864362D01*
X5362230Y17857236D01*
X5357081Y17855670D01*
X5325348Y17853656D01*
X5325342Y17853654D01*
X5272839Y17830378D01*
X5210567Y17788965D01*
X5210559Y17788959D01*
X5141096Y17732001D01*
X5075282Y17669889D01*
X5066914Y17666703D01*
X5058979Y17670125D01*
X4967290Y17761814D01*
X4963863Y17770087D01*
X4967052Y17778114D01*
X5029169Y17843933D01*
X5086128Y17913400D01*
X5127541Y17975674D01*
X5150818Y18028179D01*
X5150818Y18028182D01*
X5150819Y18028184D01*
X5152834Y18059915D01*
X5156778Y18067955D01*
X5161524Y18070487D01*
X5422083Y18139212D01*
X5430954Y18138009D01*
G37*
%TD.AperFunction*%
%TD*%
%TA.AperFunction,Conductor*%
%TO.N,+5V*%
G36*
X10407141Y1543168D02*
G01*
X10413255Y1536625D01*
X10414000Y1532517D01*
X10414000Y1312283D01*
X10410573Y1304010D01*
X10402300Y1300583D01*
X10398192Y1301328D01*
X10218392Y1368753D01*
X10211849Y1374867D01*
X10210800Y1379708D01*
X10210800Y1465092D01*
X10214227Y1473365D01*
X10218392Y1476047D01*
X10398192Y1543472D01*
X10407141Y1543168D01*
G37*
%TD.AperFunction*%
%TD*%
%TA.AperFunction,Conductor*%
%TO.N,GND*%
G36*
X5024770Y23473162D02*
G01*
X5116353Y23452671D01*
X5120423Y23450895D01*
X5191967Y23401687D01*
X5200551Y23395783D01*
X5202409Y23394195D01*
X5264989Y23328225D01*
X5314297Y23274736D01*
X5349459Y23260056D01*
X5355773Y23253706D01*
X5356329Y23251985D01*
X5419470Y22988448D01*
X5418065Y22979604D01*
X5410818Y22974344D01*
X5404859Y22974477D01*
X5146904Y23048635D01*
X5139900Y23054215D01*
X5138548Y23061485D01*
X5143545Y23097576D01*
X5143546Y23097581D01*
X5141629Y23167390D01*
X5141628Y23167395D01*
X5123856Y23241377D01*
X5082671Y23300058D01*
X5082669Y23300059D01*
X5082669Y23300060D01*
X5043456Y23313044D01*
X5018541Y23321294D01*
X5011765Y23327148D01*
X5010519Y23332401D01*
X5010519Y23461743D01*
X5013946Y23470016D01*
X5022219Y23473443D01*
X5024770Y23473162D01*
G37*
%TD.AperFunction*%
%TD*%
%TA.AperFunction,Conductor*%
%TO.N,VTH_A*%
G36*
X1334540Y15418772D02*
G01*
X1342500Y15414670D01*
X1345228Y15406140D01*
X1322781Y15136773D01*
X1318679Y15128813D01*
X1310149Y15126085D01*
X1303215Y15129120D01*
X1022505Y15386437D01*
X1018722Y15394554D01*
X1019944Y15400290D01*
X1037858Y15436118D01*
X1044622Y15441983D01*
X1049289Y15442543D01*
X1334540Y15418772D01*
G37*
%TD.AperFunction*%
%TD*%
%TA.AperFunction,Conductor*%
%TO.N,TRIANGLE_A*%
G36*
X5612777Y19604771D02*
G01*
X5614550Y19603316D01*
X5705938Y19511928D01*
X5709365Y19503655D01*
X5705938Y19495382D01*
X5705781Y19495227D01*
X5640999Y19432844D01*
X5575454Y19371450D01*
X5523083Y19318665D01*
X5523075Y19318656D01*
X5489232Y19273833D01*
X5489230Y19273829D01*
X5481311Y19244037D01*
X5475874Y19236922D01*
X5471305Y19235416D01*
X5202779Y19205373D01*
X5194176Y19207858D01*
X5189851Y19215699D01*
X5190763Y19221698D01*
X5300457Y19471685D01*
X5306918Y19477882D01*
X5312877Y19478556D01*
X5334612Y19475346D01*
X5343175Y19474081D01*
X5343175Y19474082D01*
X5343177Y19474081D01*
X5398178Y19483245D01*
X5463869Y19508439D01*
X5478365Y19517053D01*
X5482037Y19518462D01*
X5496677Y19521373D01*
X5496678Y19521374D01*
X5496679Y19521374D01*
X5524688Y19540090D01*
X5580331Y19577269D01*
X5596551Y19601545D01*
X5603994Y19606518D01*
X5612777Y19604771D01*
G37*
%TD.AperFunction*%
%TD*%
%TA.AperFunction,Conductor*%
%TO.N,Net-(U5B--)*%
G36*
X3363061Y20189296D02*
G01*
X3366483Y20181361D01*
X3369099Y20090902D01*
X3377942Y20001511D01*
X3377945Y20001490D01*
X3392694Y19928186D01*
X3392696Y19928180D01*
X3413360Y19874601D01*
X3413361Y19874600D01*
X3434378Y19850733D01*
X3437273Y19842261D01*
X3435707Y19837112D01*
X3300064Y19604278D01*
X3292938Y19598855D01*
X3284064Y19600058D01*
X3279844Y19604278D01*
X3144200Y19837112D01*
X3142997Y19845986D01*
X3145526Y19850731D01*
X3166545Y19874600D01*
X3187212Y19928186D01*
X3201963Y20001504D01*
X3210807Y20090902D01*
X3213425Y20181362D01*
X3217090Y20189532D01*
X3225120Y20192723D01*
X3354788Y20192723D01*
X3363061Y20189296D01*
G37*
%TD.AperFunction*%
%TD*%
%TA.AperFunction,Conductor*%
%TO.N,Net-(C9-Pad2)*%
G36*
X6971443Y13369077D02*
G01*
X7063132Y13277388D01*
X7066559Y13269115D01*
X7063368Y13261085D01*
X7001256Y13195271D01*
X6944298Y13125808D01*
X6944292Y13125800D01*
X6902879Y13063528D01*
X6879603Y13011025D01*
X6879601Y13011019D01*
X6877587Y12979286D01*
X6873643Y12971246D01*
X6868895Y12968714D01*
X6608342Y12899990D01*
X6599468Y12901193D01*
X6594045Y12908319D01*
X6594045Y12914283D01*
X6662770Y13174842D01*
X6668193Y13181967D01*
X6673341Y13183533D01*
X6677419Y13183792D01*
X6705073Y13185548D01*
X6705075Y13185549D01*
X6705078Y13185549D01*
X6757583Y13208826D01*
X6757582Y13208826D01*
X6819853Y13250236D01*
X6819854Y13250238D01*
X6819857Y13250239D01*
X6889324Y13307198D01*
X6955143Y13369315D01*
X6963508Y13372499D01*
X6971443Y13369077D01*
G37*
%TD.AperFunction*%
%TD*%
%TA.AperFunction,Conductor*%
%TO.N,-5V*%
G36*
X4310335Y5306128D02*
G01*
X4313762Y5297855D01*
X4313754Y5297425D01*
X4310468Y5208052D01*
X4310453Y5207789D01*
X4303141Y5118494D01*
X4298053Y5044318D01*
X4301025Y4988401D01*
X4314452Y4960822D01*
X4314992Y4951884D01*
X4312680Y4947932D01*
X4131960Y4744455D01*
X4123904Y4740544D01*
X4115443Y4743476D01*
X4112109Y4748536D01*
X4044560Y4951884D01*
X4026828Y5005267D01*
X4027472Y5014196D01*
X4031616Y5018802D01*
X4057460Y5035374D01*
X4094039Y5078180D01*
X4140200Y5156200D01*
X4140200Y5216413D01*
X4140511Y5219093D01*
X4158945Y5297425D01*
X4159677Y5300536D01*
X4164908Y5307803D01*
X4171066Y5309555D01*
X4302062Y5309555D01*
X4310335Y5306128D01*
G37*
%TD.AperFunction*%
%TD*%
%TA.AperFunction,Conductor*%
%TO.N,GND*%
G36*
X9754777Y24103635D02*
G01*
X9838766Y24097189D01*
X9839431Y24097099D01*
X9923431Y24080732D01*
X9923432Y24080731D01*
X9993273Y24064127D01*
X9993273Y24064128D01*
X10046704Y24056178D01*
X10074606Y24063748D01*
X10083485Y24062607D01*
X10086614Y24059995D01*
X10177427Y23952200D01*
X10261486Y23852423D01*
X10264195Y23843888D01*
X10260076Y23835937D01*
X10254669Y23833381D01*
X9991256Y23784597D01*
X9982497Y23786460D01*
X9978261Y23791757D01*
X9977916Y23792620D01*
X9967692Y23818188D01*
X9936022Y23862403D01*
X9880600Y23901400D01*
X9880599Y23901400D01*
X9808571Y23901400D01*
X9801170Y23904038D01*
X9746498Y23948689D01*
X9742258Y23956577D01*
X9742199Y23957751D01*
X9742199Y24091968D01*
X9745626Y24100241D01*
X9753899Y24103668D01*
X9754777Y24103635D01*
G37*
%TD.AperFunction*%
%TD*%
%TA.AperFunction,Conductor*%
%TO.N,+12V*%
G36*
X6008154Y16692881D02*
G01*
X6096410Y16604625D01*
X6099837Y16596352D01*
X6096572Y16588244D01*
X6037627Y16526927D01*
X6034087Y16523244D01*
X6034001Y16523155D01*
X6034000Y16523155D01*
X5975365Y16455238D01*
X5975365Y16455237D01*
X5931779Y16394763D01*
X5906380Y16343701D01*
X5906380Y16343700D01*
X5903181Y16312372D01*
X5898932Y16304490D01*
X5894191Y16302165D01*
X5632060Y16241230D01*
X5623226Y16242694D01*
X5618015Y16249977D01*
X5618193Y16255948D01*
X5644180Y16343701D01*
X5694870Y16514871D01*
X5700504Y16521829D01*
X5705831Y16523244D01*
X5737272Y16523927D01*
X5790367Y16544346D01*
X5853421Y16582453D01*
X5853429Y16582459D01*
X5923271Y16636383D01*
X5924944Y16637930D01*
X5968399Y16678075D01*
X5969982Y16679300D01*
X5992868Y16694007D01*
X5992872Y16694013D01*
X5993555Y16694451D01*
X6002368Y16696041D01*
X6008154Y16692881D01*
G37*
%TD.AperFunction*%
%TD*%
%TA.AperFunction,Conductor*%
%TO.N,Net-(R5-Pad2)*%
G36*
X4662722Y24503642D02*
G01*
X4666625Y24499073D01*
X4784052Y24254233D01*
X4784540Y24245291D01*
X4781362Y24240505D01*
X4758787Y24220038D01*
X4749802Y24206205D01*
X4749800Y24206201D01*
X4724466Y24104867D01*
X4724307Y24104340D01*
X4694826Y24020750D01*
X4691485Y23963175D01*
X4689951Y23936709D01*
X4689915Y23936096D01*
X4686015Y23928036D01*
X4678235Y23925074D01*
X4548510Y23925074D01*
X4540237Y23928501D01*
X4536810Y23936709D01*
X4536317Y24025462D01*
X4533612Y24104340D01*
X4533354Y24111859D01*
X4533905Y24115824D01*
X4546600Y24155400D01*
X4538368Y24175527D01*
X4511638Y24240881D01*
X4493753Y24265758D01*
X4491706Y24274476D01*
X4493624Y24279234D01*
X4646448Y24500660D01*
X4653966Y24505521D01*
X4662722Y24503642D01*
G37*
%TD.AperFunction*%
%TD*%
%TA.AperFunction,Conductor*%
%TO.N,Net-(D1B-K)*%
G36*
X6612808Y7724827D02*
G01*
X6636676Y7703809D01*
X6690261Y7683142D01*
X6763580Y7668391D01*
X6852978Y7659547D01*
X6943438Y7656929D01*
X6951609Y7653264D01*
X6954800Y7645234D01*
X6954800Y7515567D01*
X6951373Y7507294D01*
X6943438Y7503872D01*
X6852978Y7501255D01*
X6763586Y7492412D01*
X6763565Y7492409D01*
X6690260Y7477660D01*
X6690254Y7477658D01*
X6636675Y7456994D01*
X6612809Y7435977D01*
X6604336Y7433082D01*
X6599187Y7434648D01*
X6366354Y7570290D01*
X6360931Y7577416D01*
X6362134Y7586290D01*
X6366354Y7590510D01*
X6599190Y7726155D01*
X6608062Y7727357D01*
X6612808Y7724827D01*
G37*
%TD.AperFunction*%
%TD*%
%TA.AperFunction,Conductor*%
%TO.N,+5V*%
G36*
X2591772Y24531336D02*
G01*
X2596339Y24527445D01*
X2748600Y24307670D01*
X2750495Y24298918D01*
X2746982Y24292469D01*
X2722010Y24269077D01*
X2722009Y24269076D01*
X2682645Y24216407D01*
X2652455Y24150044D01*
X2647643Y24078684D01*
X2680233Y24018679D01*
X2681171Y24009773D01*
X2678225Y24004822D01*
X2586664Y23913261D01*
X2578391Y23909834D01*
X2570118Y23913261D01*
X2568700Y23914978D01*
X2517657Y23990434D01*
X2516072Y23993869D01*
X2491080Y24084214D01*
X2490707Y24086264D01*
X2482932Y24171052D01*
X2476604Y24237750D01*
X2458627Y24268167D01*
X2457368Y24277031D01*
X2458143Y24279162D01*
X2576169Y24525834D01*
X2582830Y24531816D01*
X2591772Y24531336D01*
G37*
%TD.AperFunction*%
%TD*%
%TA.AperFunction,Conductor*%
%TO.N,Net-(R4-Pad1)*%
G36*
X5398808Y21314497D02*
G01*
X5422676Y21293479D01*
X5476261Y21272812D01*
X5549580Y21258061D01*
X5638978Y21249217D01*
X5729438Y21246599D01*
X5737609Y21242934D01*
X5740800Y21234904D01*
X5740800Y21105237D01*
X5737373Y21096964D01*
X5729438Y21093542D01*
X5638978Y21090925D01*
X5549586Y21082082D01*
X5549565Y21082079D01*
X5476260Y21067330D01*
X5476254Y21067328D01*
X5422675Y21046664D01*
X5398809Y21025647D01*
X5390336Y21022752D01*
X5385187Y21024318D01*
X5152354Y21159960D01*
X5146931Y21167086D01*
X5148134Y21175960D01*
X5152354Y21180180D01*
X5385190Y21315825D01*
X5394062Y21317027D01*
X5398808Y21314497D01*
G37*
%TD.AperFunction*%
%TD*%
%TA.AperFunction,Conductor*%
%TO.N,GND*%
G36*
X9993736Y21541086D02*
G01*
X9994838Y21541029D01*
X10002925Y21537184D01*
X10005926Y21528747D01*
X10004087Y21523024D01*
X9858269Y21295824D01*
X9850917Y21290713D01*
X9847429Y21290486D01*
X9823000Y21292569D01*
X9817804Y21293012D01*
X9817803Y21293012D01*
X9817801Y21293012D01*
X9764822Y21274394D01*
X9696452Y21246227D01*
X9695950Y21246046D01*
X9613678Y21220618D01*
X9611565Y21220173D01*
X9527842Y21210506D01*
X9519230Y21212962D01*
X9514877Y21220787D01*
X9514800Y21222129D01*
X9514800Y21351940D01*
X9518227Y21360213D01*
X9524049Y21363381D01*
X9588828Y21377253D01*
X9644628Y21416717D01*
X9644628Y21416720D01*
X9644629Y21416720D01*
X9651408Y21459284D01*
X9654646Y21465674D01*
X9706333Y21517904D01*
X9712493Y21545685D01*
X9717630Y21553020D01*
X9724511Y21554837D01*
X9993736Y21541086D01*
G37*
%TD.AperFunction*%
%TD*%
%TA.AperFunction,Conductor*%
%TO.N,Net-(D1B-K)*%
G36*
X5681604Y17036339D02*
G01*
X5686809Y17029053D01*
X5686627Y17023081D01*
X5609720Y16764209D01*
X5604079Y16757254D01*
X5598744Y16755843D01*
X5567313Y16755198D01*
X5514202Y16734861D01*
X5451134Y16696852D01*
X5451126Y16696846D01*
X5381262Y16642998D01*
X5334097Y16599451D01*
X5332486Y16598205D01*
X5311367Y16584631D01*
X5302555Y16583040D01*
X5296768Y16586200D01*
X5208150Y16674818D01*
X5204723Y16683091D01*
X5207990Y16691200D01*
X5249985Y16734861D01*
X5270573Y16756265D01*
X5329258Y16824143D01*
X5329259Y16824144D01*
X5372909Y16884572D01*
X5398364Y16935586D01*
X5401598Y16966904D01*
X5405856Y16974779D01*
X5410595Y16977098D01*
X5672771Y17037811D01*
X5681604Y17036339D01*
G37*
%TD.AperFunction*%
%TD*%
%TA.AperFunction,Conductor*%
%TO.N,GND*%
G36*
X9938680Y3451280D02*
G01*
X10093316Y3385008D01*
X10099570Y3378599D01*
X10099461Y3369645D01*
X10096980Y3365981D01*
X9987801Y3256802D01*
X9979528Y3253375D01*
X9974919Y3254321D01*
X9820283Y3320593D01*
X9814029Y3327002D01*
X9814138Y3335956D01*
X9816616Y3339617D01*
X9925799Y3448800D01*
X9934071Y3452226D01*
X9938680Y3451280D01*
G37*
%TD.AperFunction*%
%TD*%
%TA.AperFunction,Conductor*%
%TO.N,TRIANGLE_A*%
G36*
X1381320Y21300809D02*
G01*
X1473037Y21209092D01*
X1476464Y21200819D01*
X1473037Y21192546D01*
X1473002Y21192511D01*
X1409114Y21129158D01*
X1346180Y21065273D01*
X1346181Y21065274D01*
X1297101Y21009531D01*
X1297096Y21009525D01*
X1266393Y20962298D01*
X1260233Y20931950D01*
X1255229Y20924524D01*
X1250570Y20922718D01*
X984493Y20881213D01*
X975791Y20883324D01*
X971130Y20890970D01*
X971773Y20896981D01*
X982389Y20924524D01*
X1069891Y21151545D01*
X1076063Y21158030D01*
X1081809Y21158992D01*
X1112442Y21156348D01*
X1166649Y21169550D01*
X1190860Y21180718D01*
X1231204Y21199326D01*
X1231205Y21199328D01*
X1231214Y21199331D01*
X1301678Y21245670D01*
X1365347Y21301345D01*
X1373829Y21304210D01*
X1381320Y21300809D01*
G37*
%TD.AperFunction*%
%TD*%
%TA.AperFunction,Conductor*%
%TO.N,GND*%
G36*
X10273596Y14746606D02*
G01*
X10281865Y14743170D01*
X10285283Y14734893D01*
X10283698Y14729025D01*
X10148734Y14496905D01*
X10141613Y14491475D01*
X10135132Y14491618D01*
X10106958Y14500415D01*
X10106960Y14500415D01*
X10051788Y14502332D01*
X9985261Y14490263D01*
X9985259Y14490263D01*
X9985257Y14490262D01*
X9914096Y14459884D01*
X9914094Y14459883D01*
X9914092Y14459882D01*
X9853175Y14413121D01*
X9844526Y14410802D01*
X9837778Y14414129D01*
X9746011Y14505896D01*
X9742584Y14514169D01*
X9746011Y14522442D01*
X9746466Y14522874D01*
X9810179Y14579965D01*
X9810511Y14580242D01*
X9879072Y14632792D01*
X9936636Y14675961D01*
X9976220Y14712908D01*
X9987946Y14739882D01*
X9994386Y14746102D01*
X9998684Y14746916D01*
X10273596Y14746606D01*
G37*
%TD.AperFunction*%
%TD*%
%TA.AperFunction,Conductor*%
%TO.N,Net-(C18-Pad2)*%
G36*
X10557265Y13116457D02*
G01*
X10564391Y13111034D01*
X10565957Y13105888D01*
X10567752Y13077601D01*
X10567972Y13074148D01*
X10591248Y13021644D01*
X10632661Y12959373D01*
X10632667Y12959365D01*
X10689625Y12889901D01*
X10751737Y12824086D01*
X10754923Y12815718D01*
X10751501Y12807783D01*
X10659813Y12716095D01*
X10651540Y12712668D01*
X10643510Y12715859D01*
X10577695Y12777971D01*
X10508231Y12834929D01*
X10508223Y12834935D01*
X10445952Y12876348D01*
X10393448Y12899624D01*
X10389995Y12899844D01*
X10361709Y12901639D01*
X10353671Y12905582D01*
X10351139Y12910331D01*
X10338204Y12959370D01*
X10282415Y13170885D01*
X10283618Y13179758D01*
X10290744Y13185181D01*
X10296712Y13185181D01*
X10557265Y13116457D01*
G37*
%TD.AperFunction*%
%TD*%
%TA.AperFunction,Conductor*%
%TO.N,+5V*%
G36*
X9804110Y16138855D02*
G01*
X9887419Y16130170D01*
X9889295Y16129816D01*
X9971695Y16107124D01*
X9972075Y16107004D01*
X10014250Y16091810D01*
X10040677Y16082288D01*
X10040677Y16082289D01*
X10040688Y16082285D01*
X10093682Y16066807D01*
X10122688Y16070754D01*
X10131347Y16068474D01*
X10133884Y16065822D01*
X10287552Y15843934D01*
X10289445Y15835182D01*
X10284594Y15827654D01*
X10278972Y15825619D01*
X10010676Y15801693D01*
X10002131Y15804372D01*
X9998338Y15810312D01*
X9991021Y15837547D01*
X9991019Y15837553D01*
X9991018Y15837558D01*
X9965793Y15886090D01*
X9965788Y15886096D01*
X9965786Y15886100D01*
X9924536Y15934951D01*
X9924534Y15934952D01*
X9866561Y15972678D01*
X9800599Y15985915D01*
X9793162Y15990902D01*
X9791201Y15997386D01*
X9791201Y16127217D01*
X9794628Y16135490D01*
X9802901Y16138917D01*
X9804110Y16138855D01*
G37*
%TD.AperFunction*%
%TD*%
%TA.AperFunction,Conductor*%
%TO.N,-5V*%
G36*
X8053453Y22674928D02*
G01*
X8142382Y22665801D01*
X8144236Y22665458D01*
X8231607Y22641869D01*
X8232009Y22641745D01*
X8274267Y22626908D01*
X8304721Y22616215D01*
X8320407Y22611827D01*
X8360787Y22600529D01*
X8391653Y22605298D01*
X8400351Y22603174D01*
X8402908Y22600606D01*
X8561555Y22381960D01*
X8563640Y22373251D01*
X8558956Y22365619D01*
X8553391Y22363462D01*
X8286171Y22333447D01*
X8277567Y22335929D01*
X8273699Y22341580D01*
X8266852Y22363462D01*
X8264524Y22370904D01*
X8260455Y22377747D01*
X8259704Y22379249D01*
X8259536Y22379654D01*
X8259536Y22379658D01*
X8257650Y22382481D01*
X8257499Y22382720D01*
X8234906Y22420719D01*
X8187715Y22470415D01*
X8122939Y22504400D01*
X8122937Y22504400D01*
X8052266Y22504400D01*
X8043993Y22507827D01*
X8040566Y22516100D01*
X8040566Y22663288D01*
X8043993Y22671561D01*
X8052266Y22674988D01*
X8053453Y22674928D01*
G37*
%TD.AperFunction*%
%TD*%
%TA.AperFunction,Conductor*%
%TO.N,CF_B*%
G36*
X9520011Y11080170D02*
G01*
X9521462Y11078937D01*
X9613080Y10987319D01*
X9616507Y10979046D01*
X9614893Y10973116D01*
X9566745Y10891219D01*
X9558708Y10793434D01*
X9578582Y10702500D01*
X9578583Y10702498D01*
X9609587Y10633346D01*
X9609588Y10633345D01*
X9609589Y10633343D01*
X9630230Y10606933D01*
X9632625Y10598304D01*
X9631315Y10594184D01*
X9414960Y10192125D01*
X9408022Y10186463D01*
X9399113Y10187366D01*
X9393451Y10194304D01*
X9393034Y10196333D01*
X9340551Y10652789D01*
X9341918Y10659752D01*
X9357102Y10687393D01*
X9369955Y10763229D01*
X9391294Y10865944D01*
X9391796Y10867674D01*
X9433925Y10979596D01*
X9435364Y10982286D01*
X9503684Y11077488D01*
X9511291Y11082209D01*
X9520011Y11080170D01*
G37*
%TD.AperFunction*%
%TD*%
%TA.AperFunction,Conductor*%
%TO.N,+12V*%
G36*
X7660030Y11270120D02*
G01*
X7663457Y11261847D01*
X7663435Y11261128D01*
X7658205Y11176179D01*
X7658150Y11175663D01*
X7645269Y11090534D01*
X7633098Y11019714D01*
X7629339Y10965776D01*
X7639108Y10938245D01*
X7638645Y10929303D01*
X7636124Y10925835D01*
X7437415Y10737782D01*
X7429051Y10734584D01*
X7420875Y10738238D01*
X7417997Y10743547D01*
X7355354Y11004285D01*
X7356753Y11013128D01*
X7361626Y11017544D01*
X7387865Y11030257D01*
X7429486Y11066065D01*
X7469615Y11119474D01*
X7499853Y11189097D01*
X7510376Y11263486D01*
X7514929Y11271198D01*
X7521962Y11273547D01*
X7651757Y11273547D01*
X7660030Y11270120D01*
G37*
%TD.AperFunction*%
%TD*%
%TA.AperFunction,Conductor*%
%TO.N,Net-(Q15A-E1)*%
G36*
X2658736Y2506209D02*
G01*
X2662158Y2498274D01*
X2664774Y2407815D01*
X2673617Y2318424D01*
X2673620Y2318403D01*
X2688369Y2245099D01*
X2688371Y2245093D01*
X2709035Y2191514D01*
X2709036Y2191513D01*
X2730053Y2167646D01*
X2732948Y2159174D01*
X2731382Y2154025D01*
X2595739Y1921191D01*
X2588613Y1915768D01*
X2579739Y1916971D01*
X2575519Y1921191D01*
X2439875Y2154025D01*
X2438672Y2162899D01*
X2441201Y2167644D01*
X2462220Y2191513D01*
X2482887Y2245099D01*
X2497638Y2318417D01*
X2506482Y2407815D01*
X2509100Y2498275D01*
X2512765Y2506445D01*
X2520795Y2509636D01*
X2650463Y2509636D01*
X2658736Y2506209D01*
G37*
%TD.AperFunction*%
%TD*%
%TA.AperFunction,Conductor*%
%TO.N,CF_A*%
G36*
X1774286Y10132787D02*
G01*
X1779300Y10125368D01*
X1779534Y10123283D01*
X1789810Y9658261D01*
X1787632Y9651200D01*
X1767937Y9623643D01*
X1767933Y9623636D01*
X1746301Y9544644D01*
X1714017Y9435700D01*
X1713751Y9434980D01*
X1660211Y9314855D01*
X1658881Y9312594D01*
X1580610Y9208336D01*
X1572902Y9203777D01*
X1564229Y9206003D01*
X1562980Y9207087D01*
X1471432Y9298635D01*
X1468005Y9306908D01*
X1469874Y9313252D01*
X1531556Y9408814D01*
X1554571Y9521218D01*
X1548063Y9625757D01*
X1526300Y9705660D01*
X1507270Y9737859D01*
X1506010Y9746725D01*
X1507578Y9750258D01*
X1758076Y10129475D01*
X1765494Y10134488D01*
X1774286Y10132787D01*
G37*
%TD.AperFunction*%
%TD*%
%TA.AperFunction,Conductor*%
%TO.N,GND*%
G36*
X6044298Y22430296D02*
G01*
X6047719Y22422409D01*
X6050680Y22332609D01*
X6060451Y22243918D01*
X6169882Y22169074D01*
X6248489Y22115311D01*
X6254347Y22111305D01*
X6259241Y22103806D01*
X6257399Y22095043D01*
X6251442Y22090548D01*
X6197599Y22072600D01*
X6146797Y22021797D01*
X5988328Y21841302D01*
X5980295Y21837346D01*
X5971817Y21840229D01*
X5969493Y21843018D01*
X5829251Y22077629D01*
X5827948Y22086488D01*
X5830399Y22091232D01*
X5850986Y22115311D01*
X5870693Y22169081D01*
X5884378Y22242505D01*
X5892356Y22331936D01*
X5894655Y22422321D01*
X5898292Y22430504D01*
X5906352Y22433723D01*
X6036025Y22433723D01*
X6044298Y22430296D01*
G37*
%TD.AperFunction*%
%TD*%
%TA.AperFunction,Conductor*%
%TO.N,SYNC_A*%
G36*
X2892712Y7117042D02*
G01*
X2896126Y7109321D01*
X2900259Y7021808D01*
X2913193Y6935654D01*
X2913194Y6935645D01*
X2932847Y6865430D01*
X2932848Y6865428D01*
X2957655Y6814622D01*
X2971421Y6801083D01*
X2979914Y6792731D01*
X2983410Y6784487D01*
X2982112Y6779032D01*
X2858219Y6538446D01*
X2851385Y6532660D01*
X2842460Y6533401D01*
X2838017Y6537412D01*
X2691062Y6762747D01*
X2689413Y6771548D01*
X2691589Y6776273D01*
X2710686Y6801083D01*
X2727023Y6855458D01*
X2736949Y6929219D01*
X2736948Y6929219D01*
X2736950Y6929226D01*
X2741872Y7018758D01*
X2743049Y7108922D01*
X2746584Y7117149D01*
X2754748Y7120469D01*
X2884439Y7120469D01*
X2892712Y7117042D01*
G37*
%TD.AperFunction*%
%TD*%
%TA.AperFunction,Conductor*%
%TO.N,Net-(Q14A-E1)*%
G36*
X8404307Y7826173D02*
G01*
X8407729Y7818238D01*
X8410345Y7727778D01*
X8419188Y7638388D01*
X8419191Y7638367D01*
X8433940Y7565062D01*
X8433942Y7565056D01*
X8454605Y7511478D01*
X8454606Y7511477D01*
X8475623Y7487610D01*
X8478518Y7479138D01*
X8476952Y7473989D01*
X8341309Y7241155D01*
X8334183Y7235732D01*
X8325309Y7236935D01*
X8321089Y7241155D01*
X8185446Y7473989D01*
X8184243Y7482863D01*
X8186772Y7487608D01*
X8207791Y7511477D01*
X8228458Y7565063D01*
X8243209Y7638381D01*
X8252053Y7727779D01*
X8254671Y7818239D01*
X8258336Y7826409D01*
X8266366Y7829600D01*
X8396034Y7829600D01*
X8404307Y7826173D01*
G37*
%TD.AperFunction*%
%TD*%
%TA.AperFunction,Conductor*%
%TO.N,Net-(U5A--)*%
G36*
X6085874Y23978911D02*
G01*
X6093639Y23974451D01*
X6096072Y23967391D01*
X6096832Y23859932D01*
X6093463Y23851635D01*
X6087815Y23848462D01*
X6057230Y23841259D01*
X6022666Y23833120D01*
X5966554Y23793895D01*
X5966551Y23793892D01*
X5927417Y23743235D01*
X5904151Y23693211D01*
X5897825Y23665497D01*
X5892642Y23658194D01*
X5885759Y23656420D01*
X5615722Y23671662D01*
X5607655Y23675549D01*
X5604700Y23684002D01*
X5606564Y23689708D01*
X5753473Y23916177D01*
X5760851Y23921252D01*
X5764359Y23921460D01*
X5793908Y23918734D01*
X5846901Y23936915D01*
X5915324Y23964608D01*
X5915801Y23964776D01*
X5924393Y23967391D01*
X5996729Y23989407D01*
X6001633Y23989816D01*
X6085874Y23978911D01*
G37*
%TD.AperFunction*%
%TD*%
%TA.AperFunction,Conductor*%
%TO.N,GND*%
G36*
X10032631Y16911945D02*
G01*
X10286484Y16810803D01*
X10292901Y16804557D01*
X10293022Y16795603D01*
X10289385Y16790737D01*
X10077257Y16623939D01*
X10068635Y16621519D01*
X10063901Y16623167D01*
X10049092Y16632269D01*
X10040016Y16637848D01*
X10025234Y16640519D01*
X9988799Y16647102D01*
X9988795Y16647103D01*
X9988798Y16647103D01*
X9944145Y16648869D01*
X9920254Y16649813D01*
X9920243Y16649813D01*
X9920241Y16649813D01*
X9837435Y16649129D01*
X9755216Y16648317D01*
X9746909Y16651661D01*
X9743401Y16659900D01*
X9743400Y16660016D01*
X9743400Y16789883D01*
X9746827Y16798156D01*
X9754075Y16801538D01*
X9766287Y16802611D01*
X9829081Y16808127D01*
X9829084Y16808128D01*
X9829088Y16808128D01*
X9902494Y16827771D01*
X9961138Y16855120D01*
X9985742Y16873332D01*
X10002536Y16885760D01*
X10002537Y16885762D01*
X10002542Y16885765D01*
X10018871Y16908003D01*
X10026528Y16912641D01*
X10032631Y16911945D01*
G37*
%TD.AperFunction*%
%TD*%
%TA.AperFunction,Conductor*%
%TO.N,Net-(Q15A-C1)*%
G36*
X3189051Y1068952D02*
G01*
X3192478Y1060679D01*
X3192418Y1059491D01*
X3183928Y976279D01*
X3183587Y974431D01*
X3162672Y896599D01*
X3161451Y892057D01*
X3161323Y891643D01*
X3147088Y850978D01*
X3137299Y823016D01*
X3137298Y823015D01*
X3122446Y770037D01*
X3126675Y741156D01*
X3124482Y732474D01*
X3121828Y729890D01*
X2901018Y574633D01*
X2892279Y572678D01*
X2884717Y577474D01*
X2882642Y583078D01*
X2880846Y601642D01*
X2856729Y850980D01*
X2859344Y859542D01*
X2865237Y863375D01*
X2892378Y870924D01*
X2940556Y896600D01*
X2988992Y938349D01*
X3026360Y996750D01*
X3039466Y1062952D01*
X3044434Y1070401D01*
X3050943Y1072379D01*
X3180778Y1072379D01*
X3189051Y1068952D01*
G37*
%TD.AperFunction*%
%TD*%
%TA.AperFunction,Conductor*%
%TO.N,GND*%
G36*
X1364452Y14473802D02*
G01*
X1372594Y14470075D01*
X1374229Y14467830D01*
X1396997Y14427204D01*
X1397001Y14427199D01*
X1422398Y14401801D01*
X1422400Y14401800D01*
X1447800Y14401800D01*
X1490477Y14401800D01*
X1498750Y14398373D01*
X1501439Y14394189D01*
X1550529Y14262579D01*
X1551267Y14258490D01*
X1551267Y14121697D01*
X1547840Y14113424D01*
X1539567Y14109997D01*
X1537908Y14110115D01*
X1452960Y14122286D01*
X1450313Y14122989D01*
X1368408Y14155407D01*
X1367750Y14155716D01*
X1300217Y14192704D01*
X1247562Y14219298D01*
X1216386Y14220410D01*
X1208240Y14224130D01*
X1206464Y14226626D01*
X1079300Y14466691D01*
X1078457Y14475604D01*
X1084163Y14482505D01*
X1090067Y14483858D01*
X1364452Y14473802D01*
G37*
%TD.AperFunction*%
%TD*%
%TA.AperFunction,Conductor*%
%TO.N,GND*%
G36*
X1374126Y24572295D02*
G01*
X1378405Y24564428D01*
X1378470Y24563196D01*
X1378470Y24433367D01*
X1375043Y24425094D01*
X1369094Y24421900D01*
X1303305Y24408567D01*
X1303304Y24408567D01*
X1271702Y24337053D01*
X1266233Y24331317D01*
X1219200Y24307800D01*
X1219196Y24307798D01*
X1179869Y24272611D01*
X1179866Y24272607D01*
X1172718Y24245282D01*
X1167309Y24238145D01*
X1160425Y24236584D01*
X891833Y24259028D01*
X883874Y24263132D01*
X881148Y24271661D01*
X883153Y24277296D01*
X1035648Y24499985D01*
X1043147Y24504872D01*
X1046785Y24504977D01*
X1075889Y24501239D01*
X1128887Y24517181D01*
X1128888Y24517182D01*
X1128900Y24517185D01*
X1156114Y24527197D01*
X1197470Y24542409D01*
X1197874Y24542539D01*
X1280254Y24565634D01*
X1282175Y24566002D01*
X1365539Y24574831D01*
X1374126Y24572295D01*
G37*
%TD.AperFunction*%
%TD*%
%TA.AperFunction,Conductor*%
%TO.N,Net-(D1A-K)*%
G36*
X7692887Y13078489D02*
G01*
X7784576Y12986800D01*
X7788003Y12978527D01*
X7784812Y12970497D01*
X7722700Y12904683D01*
X7665742Y12835220D01*
X7665736Y12835212D01*
X7624323Y12772940D01*
X7601047Y12720437D01*
X7601045Y12720431D01*
X7599031Y12688698D01*
X7595087Y12680658D01*
X7590339Y12678126D01*
X7329786Y12609402D01*
X7320912Y12610605D01*
X7315489Y12617731D01*
X7315489Y12623695D01*
X7384214Y12884254D01*
X7389637Y12891379D01*
X7394785Y12892945D01*
X7398863Y12893204D01*
X7426517Y12894960D01*
X7426519Y12894961D01*
X7426522Y12894961D01*
X7479027Y12918238D01*
X7479026Y12918239D01*
X7541297Y12959648D01*
X7541298Y12959650D01*
X7541301Y12959651D01*
X7610768Y13016610D01*
X7676587Y13078727D01*
X7684952Y13081911D01*
X7692887Y13078489D01*
G37*
%TD.AperFunction*%
%TD*%
%TA.AperFunction,Conductor*%
%TO.N,SAWTOOTH_A*%
G36*
X3106489Y19115903D02*
G01*
X3128904Y19093971D01*
X3128905Y19093971D01*
X3128906Y19093970D01*
X3180468Y19070248D01*
X3251530Y19051878D01*
X3338570Y19040012D01*
X3426863Y19036275D01*
X3434983Y19032501D01*
X3438067Y19024585D01*
X3438067Y18894900D01*
X3434640Y18886627D01*
X3426570Y18883202D01*
X3336334Y18881639D01*
X3246837Y18875666D01*
X3173180Y18864447D01*
X3119005Y18846952D01*
X3094450Y18827350D01*
X3085846Y18824867D01*
X3080891Y18826609D01*
X2853571Y18970568D01*
X2848415Y18977890D01*
X2849946Y18986713D01*
X2854325Y18990776D01*
X3092806Y19117866D01*
X3101717Y19118732D01*
X3106489Y19115903D01*
G37*
%TD.AperFunction*%
%TD*%
%TA.AperFunction,Conductor*%
%TO.N,GND*%
G36*
X1969937Y18763337D02*
G01*
X2006075Y18758561D01*
X2013828Y18754080D01*
X2016171Y18745672D01*
X2014342Y18729185D01*
X2013467Y18687105D01*
X2013467Y18687101D01*
X2020707Y18642523D01*
X2041955Y18607184D01*
X2101152Y18571633D01*
X2106480Y18564436D01*
X2106606Y18559335D01*
X2085239Y18451180D01*
X2080274Y18443728D01*
X2072218Y18441850D01*
X2013321Y18449688D01*
X2010814Y18450309D01*
X1952826Y18471705D01*
X1952183Y18471987D01*
X1903991Y18496683D01*
X1865979Y18514822D01*
X1845200Y18516159D01*
X1837164Y18520110D01*
X1835147Y18523346D01*
X1729594Y18777378D01*
X1729585Y18786330D01*
X1735910Y18792669D01*
X1741930Y18793464D01*
X1969937Y18763337D01*
G37*
%TD.AperFunction*%
%TD*%
%TA.AperFunction,Conductor*%
%TO.N,GND*%
G36*
X6060190Y15989490D02*
G01*
X6060924Y15988816D01*
X6152737Y15897003D01*
X6156164Y15888730D01*
X6154050Y15882022D01*
X6114109Y15824952D01*
X6094656Y15756522D01*
X6094213Y15692143D01*
X6094213Y15692141D01*
X6105683Y15639191D01*
X6117800Y15613785D01*
X6118268Y15604843D01*
X6114158Y15599314D01*
X5897978Y15440770D01*
X5889280Y15438641D01*
X5881624Y15443286D01*
X5879439Y15448838D01*
X5847830Y15717611D01*
X5850267Y15726226D01*
X5853203Y15728868D01*
X5877578Y15744244D01*
X5907848Y15789068D01*
X5907851Y15789073D01*
X5907852Y15789073D01*
X5928221Y15824954D01*
X5943252Y15851432D01*
X5943363Y15851616D01*
X5989282Y15923421D01*
X5989724Y15924022D01*
X6043705Y15988083D01*
X6051655Y15992201D01*
X6060190Y15989490D01*
G37*
%TD.AperFunction*%
%TD*%
%TA.AperFunction,Conductor*%
%TO.N,+12V*%
G36*
X10238806Y13983989D02*
G01*
X10244070Y13976745D01*
X10243940Y13970786D01*
X10169023Y13709615D01*
X10163448Y13702607D01*
X10161663Y13701805D01*
X10126183Y13689311D01*
X10075038Y13639274D01*
X10010145Y13576768D01*
X10008332Y13575339D01*
X9926192Y13522801D01*
X9922315Y13521212D01*
X9829813Y13501596D01*
X9821009Y13503232D01*
X9815941Y13510614D01*
X9815686Y13513041D01*
X9815686Y13642408D01*
X9819113Y13650681D01*
X9823883Y13653572D01*
X9890477Y13674463D01*
X9935782Y13732168D01*
X9958114Y13805095D01*
X9963985Y13874221D01*
X9960792Y13910479D01*
X9963480Y13919019D01*
X9969712Y13922878D01*
X10229963Y13985388D01*
X10238806Y13983989D01*
G37*
%TD.AperFunction*%
%TD*%
%TA.AperFunction,Conductor*%
%TO.N,Net-(C9-Pad2)*%
G36*
X1113795Y11493742D02*
G01*
X1119228Y11486624D01*
X1119198Y11480515D01*
X1051618Y11235390D01*
X1046116Y11228326D01*
X1040339Y11226800D01*
X1002212Y11226800D01*
X957170Y11217481D01*
X931647Y11212200D01*
X923912Y11210005D01*
X857064Y11191032D01*
X798266Y11146540D01*
X797698Y11146160D01*
X762827Y11125686D01*
X761105Y11124856D01*
X641840Y11078960D01*
X632888Y11079187D01*
X626719Y11085677D01*
X626208Y11092378D01*
X633310Y11124856D01*
X644924Y11177977D01*
X647754Y11183409D01*
X711195Y11252195D01*
X711198Y11252198D01*
X768305Y11328104D01*
X768783Y11328662D01*
X821193Y11382476D01*
X835028Y11418368D01*
X841200Y11424853D01*
X842933Y11425463D01*
X1104922Y11494934D01*
X1113795Y11493742D01*
G37*
%TD.AperFunction*%
%TD*%
%TA.AperFunction,Conductor*%
%TO.N,Net-(Q14A-C1)*%
G36*
X10490065Y8105661D02*
G01*
X10497191Y8100238D01*
X10498757Y8095092D01*
X10500552Y8066805D01*
X10500772Y8063352D01*
X10524048Y8010848D01*
X10565461Y7948577D01*
X10565467Y7948569D01*
X10622425Y7879105D01*
X10684537Y7813290D01*
X10687723Y7804922D01*
X10684301Y7796987D01*
X10592613Y7705299D01*
X10584340Y7701872D01*
X10576310Y7705063D01*
X10510495Y7767175D01*
X10441031Y7824133D01*
X10441023Y7824139D01*
X10378752Y7865552D01*
X10326248Y7888828D01*
X10322795Y7889048D01*
X10294509Y7890843D01*
X10286471Y7894786D01*
X10283939Y7899535D01*
X10271004Y7948574D01*
X10215215Y8160089D01*
X10216418Y8168962D01*
X10223544Y8174385D01*
X10229512Y8174385D01*
X10490065Y8105661D01*
G37*
%TD.AperFunction*%
%TD*%
%TA.AperFunction,Conductor*%
%TO.N,Net-(D1B-K)*%
G36*
X5277590Y10192994D02*
G01*
X5277740Y10192841D01*
X5340085Y10127999D01*
X5401348Y10062317D01*
X5453978Y10009774D01*
X5453982Y10009771D01*
X5453985Y10009768D01*
X5498676Y9975765D01*
X5498679Y9975765D01*
X5498682Y9975762D01*
X5528449Y9967748D01*
X5535547Y9962288D01*
X5537037Y9957725D01*
X5566487Y9689066D01*
X5563982Y9680469D01*
X5556132Y9676161D01*
X5550133Y9677087D01*
X5300494Y9787264D01*
X5294309Y9793740D01*
X5293648Y9799707D01*
X5298211Y9830002D01*
X5289243Y9885065D01*
X5264268Y9950842D01*
X5264267Y9950844D01*
X5264263Y9950852D01*
X5222144Y10022110D01*
X5222143Y10022112D01*
X5222142Y10022113D01*
X5222141Y10022115D01*
X5168656Y10085452D01*
X5165937Y10093982D01*
X5169322Y10101271D01*
X5261047Y10192996D01*
X5269317Y10196421D01*
X5277590Y10192994D01*
G37*
%TD.AperFunction*%
%TD*%
%TA.AperFunction,Conductor*%
%TO.N,VTC*%
G36*
X9136898Y3205215D02*
G01*
X9311165Y3009164D01*
X9314100Y3000704D01*
X9310193Y2992646D01*
X9307172Y2990699D01*
X9111122Y2903566D01*
X9102170Y2903338D01*
X9095678Y2909506D01*
X9094704Y2915155D01*
X9101285Y3000704D01*
X9116487Y3198341D01*
X9120539Y3206325D01*
X9129050Y3209108D01*
X9136898Y3205215D01*
G37*
%TD.AperFunction*%
%TD*%
%TA.AperFunction,Conductor*%
%TO.N,-5V*%
G36*
X2762493Y23072780D02*
G01*
X2766127Y23064597D01*
X2766131Y23064301D01*
X2766132Y22934773D01*
X2762705Y22926500D01*
X2755289Y22923104D01*
X2615867Y22912867D01*
X2615868Y22912866D01*
X2592356Y22907978D01*
X2481716Y22884973D01*
X2481707Y22884970D01*
X2373065Y22848040D01*
X2373053Y22848035D01*
X2299275Y22809874D01*
X2299268Y22809870D01*
X2274025Y22782871D01*
X2265872Y22779169D01*
X2263565Y22779320D01*
X1849158Y22848035D01*
X1813859Y22853889D01*
X1806259Y22858622D01*
X1804232Y22867344D01*
X1808966Y22874945D01*
X1810763Y22876003D01*
X1888537Y22912866D01*
X2228139Y23073830D01*
X2237080Y23074275D01*
X2237656Y23074053D01*
X2270163Y23060421D01*
X2352151Y23058521D01*
X2468813Y23064466D01*
X2610143Y23072359D01*
X2754135Y23075997D01*
X2762493Y23072780D01*
G37*
%TD.AperFunction*%
%TD*%
%TA.AperFunction,Conductor*%
%TO.N,VTH_B*%
G36*
X9385860Y15215616D02*
G01*
X9388534Y15207069D01*
X9388167Y15205030D01*
X9267977Y14765346D01*
X9262490Y14758269D01*
X9258800Y14756923D01*
X9219050Y14749638D01*
X9219048Y14749637D01*
X9139136Y14711850D01*
X9051223Y14645244D01*
X8980208Y14550163D01*
X8980207Y14550160D01*
X8953133Y14435953D01*
X8947892Y14428696D01*
X8941750Y14426954D01*
X8812403Y14426954D01*
X8804130Y14430381D01*
X8800703Y14438654D01*
X8800861Y14440571D01*
X8823422Y14576422D01*
X8824321Y14579361D01*
X8882031Y14705466D01*
X8882907Y14707044D01*
X8950039Y14808374D01*
X9001818Y14880609D01*
X9012000Y14915958D01*
X9015740Y14921697D01*
X9369380Y15217095D01*
X9377927Y15219768D01*
X9385860Y15215616D01*
G37*
%TD.AperFunction*%
%TD*%
%TA.AperFunction,Conductor*%
%TO.N,Net-(Q15A-C1)*%
G36*
X2356540Y11689698D02*
G01*
X2620295Y11632083D01*
X2627646Y11626970D01*
X2629228Y11618156D01*
X2626480Y11612810D01*
X2445030Y11411940D01*
X2436942Y11408098D01*
X2430059Y11409917D01*
X2406057Y11425217D01*
X2354290Y11444557D01*
X2353721Y11417184D01*
X2350123Y11408984D01*
X2341781Y11405730D01*
X2338586Y11406244D01*
X2223481Y11441634D01*
X2223468Y11441637D01*
X2104195Y11452070D01*
X2096289Y11456161D01*
X2059958Y11499039D01*
X2057226Y11507565D01*
X2061322Y11515528D01*
X2061574Y11515735D01*
X2128491Y11568789D01*
X2130299Y11569968D01*
X2206502Y11610163D01*
X2206972Y11610384D01*
X2275271Y11638795D01*
X2325924Y11663076D01*
X2345104Y11685813D01*
X2353056Y11689925D01*
X2356540Y11689698D01*
G37*
%TD.AperFunction*%
%TD*%
%TA.AperFunction,Conductor*%
%TO.N,VTH_A*%
G36*
X1804917Y15218277D02*
G01*
X1806619Y15217094D01*
X2160256Y14921698D01*
X2163998Y14915957D01*
X2174179Y14880611D01*
X2174183Y14880603D01*
X2225959Y14808374D01*
X2293086Y14707051D01*
X2293971Y14705458D01*
X2351674Y14579367D01*
X2352577Y14576415D01*
X2375138Y14440571D01*
X2373113Y14431848D01*
X2365513Y14427112D01*
X2363596Y14426954D01*
X2221500Y14426954D01*
X2213227Y14430381D01*
X2209800Y14438654D01*
X2209800Y14503402D01*
X2159000Y14630400D01*
X2036869Y14711845D01*
X2036849Y14711857D01*
X1956952Y14749636D01*
X1956946Y14749638D01*
X1917198Y14756923D01*
X1909678Y14761785D01*
X1908021Y14765346D01*
X1876515Y14880603D01*
X1787832Y15205032D01*
X1788956Y15213914D01*
X1796033Y15219401D01*
X1804917Y15218277D01*
G37*
%TD.AperFunction*%
%TD*%
%TA.AperFunction,Conductor*%
%TO.N,+5V*%
G36*
X1637967Y16187177D02*
G01*
X1642128Y16179248D01*
X1642176Y16178190D01*
X1642177Y16048245D01*
X1638750Y16039972D01*
X1632710Y16036760D01*
X1569749Y16024521D01*
X1513591Y15989365D01*
X1473200Y15943755D01*
X1473199Y15943753D01*
X1448265Y15898653D01*
X1447845Y15898000D01*
X1426482Y15869171D01*
X1418803Y15864564D01*
X1415597Y15864532D01*
X1161245Y15897071D01*
X1153474Y15901520D01*
X1151125Y15910161D01*
X1153318Y15915627D01*
X1313889Y16132934D01*
X1321560Y16137549D01*
X1325485Y16137473D01*
X1352460Y16132327D01*
X1403327Y16143767D01*
X1469315Y16163633D01*
X1469655Y16163724D01*
X1549162Y16182496D01*
X1549964Y16182627D01*
X1629419Y16189842D01*
X1637967Y16187177D01*
G37*
%TD.AperFunction*%
%TD*%
%TA.AperFunction,Conductor*%
%TO.N,GND*%
G36*
X1456558Y17021795D02*
G01*
X1462824Y17019475D01*
X1492235Y16997381D01*
X1496792Y16989672D01*
X1496490Y16984925D01*
X1479793Y16924174D01*
X1511749Y16865310D01*
X1511751Y16865307D01*
X1511752Y16865306D01*
X1562515Y16819223D01*
X1626350Y16802855D01*
X1633513Y16797481D01*
X1635144Y16791522D01*
X1635144Y16661831D01*
X1631717Y16653558D01*
X1623444Y16650131D01*
X1621671Y16650266D01*
X1536241Y16663362D01*
X1533407Y16664172D01*
X1451706Y16699169D01*
X1451007Y16699526D01*
X1383893Y16739778D01*
X1331468Y16769316D01*
X1331464Y16769317D01*
X1299736Y16771789D01*
X1291754Y16775849D01*
X1290152Y16778278D01*
X1280680Y16797481D01*
X1169483Y17022927D01*
X1168898Y17031862D01*
X1174801Y17038595D01*
X1180734Y17039777D01*
X1456558Y17021795D01*
G37*
%TD.AperFunction*%
%TD*%
%TA.AperFunction,Conductor*%
%TO.N,IREF_A*%
G36*
X1775041Y5052750D02*
G01*
X1780243Y5045461D01*
X1780530Y5043397D01*
X1803143Y4580818D01*
X1801265Y4573868D01*
X1782398Y4544863D01*
X1782397Y4544860D01*
X1763454Y4463326D01*
X1734237Y4351401D01*
X1733974Y4350621D01*
X1682621Y4227763D01*
X1681243Y4225331D01*
X1602995Y4119218D01*
X1595327Y4114593D01*
X1586634Y4116745D01*
X1585305Y4117889D01*
X1493780Y4209414D01*
X1490353Y4217687D01*
X1492167Y4223945D01*
X1552974Y4320009D01*
X1573203Y4433119D01*
X1563225Y4538345D01*
X1538417Y4618669D01*
X1518081Y4650857D01*
X1516559Y4659681D01*
X1518046Y4663299D01*
X1758922Y5049025D01*
X1766209Y5054225D01*
X1775041Y5052750D01*
G37*
%TD.AperFunction*%
%TD*%
%TA.AperFunction,Conductor*%
%TO.N,Net-(D1A-K)*%
G36*
X7879884Y14700867D02*
G01*
X7884102Y14696649D01*
X7959957Y14566443D01*
X8019746Y14463814D01*
X8020949Y14454940D01*
X8018417Y14450192D01*
X7997400Y14426326D01*
X7976736Y14372747D01*
X7976734Y14372741D01*
X7961985Y14299436D01*
X7961982Y14299415D01*
X7953139Y14210023D01*
X7950523Y14119562D01*
X7946859Y14111391D01*
X7938828Y14108200D01*
X7809160Y14108200D01*
X7800887Y14111627D01*
X7797465Y14119562D01*
X7794847Y14210023D01*
X7794846Y14210024D01*
X7786003Y14299421D01*
X7771252Y14372740D01*
X7750585Y14426325D01*
X7729568Y14450193D01*
X7726674Y14458664D01*
X7728238Y14463810D01*
X7863884Y14696648D01*
X7871010Y14702070D01*
X7879884Y14700867D01*
G37*
%TD.AperFunction*%
%TD*%
M02*
