%TF.GenerationSoftware,KiCad,Pcbnew,8.0.3*%
%TF.CreationDate,2024-12-12T22:43:46-05:00*%
%TF.ProjectId,3374_VCO,33333734-5f56-4434-9f2e-6b696361645f,0*%
%TF.SameCoordinates,PX640ad70PY37b6b20*%
%TF.FileFunction,Paste,Bot*%
%TF.FilePolarity,Positive*%
%FSLAX46Y46*%
G04 Gerber Fmt 4.6, Leading zero omitted, Abs format (unit mm)*
G04 Created by KiCad (PCBNEW 8.0.3) date 2024-12-12 22:43:46*
%MOMM*%
%LPD*%
G01*
G04 APERTURE LIST*
G04 Aperture macros list*
%AMRoundRect*
0 Rectangle with rounded corners*
0 $1 Rounding radius*
0 $2 $3 $4 $5 $6 $7 $8 $9 X,Y pos of 4 corners*
0 Add a 4 corners polygon primitive as box body*
4,1,4,$2,$3,$4,$5,$6,$7,$8,$9,$2,$3,0*
0 Add four circle primitives for the rounded corners*
1,1,$1+$1,$2,$3*
1,1,$1+$1,$4,$5*
1,1,$1+$1,$6,$7*
1,1,$1+$1,$8,$9*
0 Add four rect primitives between the rounded corners*
20,1,$1+$1,$2,$3,$4,$5,0*
20,1,$1+$1,$4,$5,$6,$7,0*
20,1,$1+$1,$6,$7,$8,$9,0*
20,1,$1+$1,$8,$9,$2,$3,0*%
G04 Aperture macros list end*
%ADD10R,0.650000X0.750000*%
%ADD11R,0.250000X0.500000*%
%ADD12RoundRect,0.050000X0.075000X0.200000X-0.075000X0.200000X-0.075000X-0.200000X0.075000X-0.200000X0*%
%ADD13R,0.400000X0.650000*%
%ADD14RoundRect,0.079500X0.100500X-0.079500X0.100500X0.079500X-0.100500X0.079500X-0.100500X-0.079500X0*%
%ADD15RoundRect,0.079500X-0.079500X-0.100500X0.079500X-0.100500X0.079500X0.100500X-0.079500X0.100500X0*%
%ADD16RoundRect,0.079500X0.079500X0.100500X-0.079500X0.100500X-0.079500X-0.100500X0.079500X-0.100500X0*%
%ADD17RoundRect,0.172500X0.172500X-0.232500X0.172500X0.232500X-0.172500X0.232500X-0.172500X-0.232500X0*%
%ADD18RoundRect,0.075000X0.075000X-0.247500X0.075000X0.247500X-0.075000X0.247500X-0.075000X-0.247500X0*%
%ADD19RoundRect,0.140000X0.140000X0.170000X-0.140000X0.170000X-0.140000X-0.170000X0.140000X-0.170000X0*%
%ADD20R,0.774700X0.254000*%
G04 APERTURE END LIST*
D10*
%TO.C,U5*%
X3688000Y22330800D03*
X4488000Y22330800D03*
D11*
X4838000Y21380800D03*
X4338000Y21380800D03*
X3838000Y21380800D03*
X3338000Y21380800D03*
X3338000Y23280800D03*
X3838000Y23280800D03*
X4338000Y23280800D03*
X4838000Y23280800D03*
%TD*%
D12*
%TO.C,U7*%
X9418200Y533400D03*
X8768200Y533400D03*
%TD*%
D13*
%TO.C,Q8*%
X7588000Y3609600D03*
X6938000Y3609600D03*
X6288000Y3609600D03*
X6288000Y5509600D03*
X6938000Y5509600D03*
X7588000Y5509600D03*
%TD*%
D14*
%TO.C,R27*%
X7638000Y11796200D03*
X7638000Y12486200D03*
%TD*%
D15*
%TO.C,R26*%
X5293800Y17472778D03*
X5983800Y17472778D03*
%TD*%
D16*
%TO.C,C16*%
X5323400Y11986378D03*
X4633400Y11986378D03*
%TD*%
D15*
%TO.C,R24*%
X6043000Y18710000D03*
X6733000Y18710000D03*
%TD*%
D13*
%TO.C,Q10*%
X7588000Y609600D03*
X6938000Y609600D03*
X6288000Y609600D03*
X6288000Y2509600D03*
X6938000Y2509600D03*
X7588000Y2509600D03*
%TD*%
%TO.C,Q6*%
X7588000Y6609600D03*
X6938000Y6609600D03*
X6288000Y6609600D03*
X6288000Y8509600D03*
X6938000Y8509600D03*
X7588000Y8509600D03*
%TD*%
%TO.C,Q11*%
X4888000Y609600D03*
X4238000Y609600D03*
X3588000Y609600D03*
X3588000Y2509600D03*
X4238000Y2509600D03*
X4888000Y2509600D03*
%TD*%
D14*
%TO.C,C14*%
X3657600Y11742978D03*
X3657600Y12432978D03*
%TD*%
D16*
%TO.C,C12*%
X7983000Y24434800D03*
X7293000Y24434800D03*
%TD*%
D13*
%TO.C,Q9*%
X4888000Y3609600D03*
X4238000Y3609600D03*
X3588000Y3609600D03*
X3588000Y5509600D03*
X4238000Y5509600D03*
X4888000Y5509600D03*
%TD*%
D17*
%TO.C,U4*%
X6663000Y22330800D03*
X7513000Y22330800D03*
D18*
X7738000Y21303300D03*
X7088000Y21303300D03*
X6438000Y21303300D03*
X6438000Y23358300D03*
X7088000Y23358300D03*
X7738000Y23358300D03*
%TD*%
D15*
%TO.C,C15*%
X5954200Y11986378D03*
X6644200Y11986378D03*
%TD*%
%TO.C,R25*%
X6614600Y17472778D03*
X7304600Y17472778D03*
%TD*%
D19*
%TO.C,C13*%
X7112000Y19710400D03*
X6152000Y19710400D03*
%TD*%
D13*
%TO.C,Q7*%
X4888000Y6609600D03*
X4238000Y6609600D03*
X3588000Y6609600D03*
X3588000Y8509600D03*
X4238000Y8509600D03*
X4888000Y8509600D03*
%TD*%
D20*
%TO.C,U6*%
X4146550Y13208000D03*
X4146550Y13708126D03*
X4146550Y14208252D03*
X4146550Y14708378D03*
X4146550Y15208504D03*
X4146550Y15708630D03*
X4146550Y16208756D03*
X7029450Y16208756D03*
X7029450Y15708630D03*
X7029450Y15208504D03*
X7029450Y14708378D03*
X7029450Y14208252D03*
X7029450Y13708126D03*
X7029450Y13208000D03*
%TD*%
M02*
