%TF.GenerationSoftware,KiCad,Pcbnew,7.0.7*%
%TF.CreationDate,2024-02-15T01:29:39-05:00*%
%TF.ProjectId,3374_VCO,33333734-5f56-4434-9f2e-6b696361645f,0*%
%TF.SameCoordinates,PX640ad70PY37b6b20*%
%TF.FileFunction,Soldermask,Bot*%
%TF.FilePolarity,Negative*%
%FSLAX46Y46*%
G04 Gerber Fmt 4.6, Leading zero omitted, Abs format (unit mm)*
G04 Created by KiCad (PCBNEW 7.0.7) date 2024-02-15 01:29:39*
%MOMM*%
%LPD*%
G01*
G04 APERTURE LIST*
G04 Aperture macros list*
%AMRoundRect*
0 Rectangle with rounded corners*
0 $1 Rounding radius*
0 $2 $3 $4 $5 $6 $7 $8 $9 X,Y pos of 4 corners*
0 Add a 4 corners polygon primitive as box body*
4,1,4,$2,$3,$4,$5,$6,$7,$8,$9,$2,$3,0*
0 Add four circle primitives for the rounded corners*
1,1,$1+$1,$2,$3*
1,1,$1+$1,$4,$5*
1,1,$1+$1,$6,$7*
1,1,$1+$1,$8,$9*
0 Add four rect primitives between the rounded corners*
20,1,$1+$1,$2,$3,$4,$5,0*
20,1,$1+$1,$4,$5,$6,$7,0*
20,1,$1+$1,$6,$7,$8,$9,0*
20,1,$1+$1,$8,$9,$2,$3,0*%
G04 Aperture macros list end*
%ADD10R,0.250000X0.500000*%
%ADD11R,1.600000X0.900000*%
%ADD12RoundRect,0.050000X0.075000X0.200000X-0.075000X0.200000X-0.075000X-0.200000X0.075000X-0.200000X0*%
%ADD13R,0.400000X0.650000*%
%ADD14RoundRect,0.100000X-0.130000X-0.100000X0.130000X-0.100000X0.130000X0.100000X-0.130000X0.100000X0*%
%ADD15RoundRect,0.100000X0.130000X0.100000X-0.130000X0.100000X-0.130000X-0.100000X0.130000X-0.100000X0*%
%ADD16RoundRect,0.100000X0.100000X-0.130000X0.100000X0.130000X-0.100000X0.130000X-0.100000X-0.130000X0*%
%ADD17C,1.016000*%
%ADD18RoundRect,0.100000X-0.100000X0.130000X-0.100000X-0.130000X0.100000X-0.130000X0.100000X0.130000X0*%
%ADD19RoundRect,0.075000X0.075000X-0.247500X0.075000X0.247500X-0.075000X0.247500X-0.075000X-0.247500X0*%
%ADD20R,1.700000X1.010000*%
%ADD21RoundRect,0.140000X0.140000X0.170000X-0.140000X0.170000X-0.140000X-0.170000X0.140000X-0.170000X0*%
%ADD22R,0.774700X0.254000*%
G04 APERTURE END LIST*
D10*
%TO.C,U5*%
X4838000Y21900000D03*
X4338000Y21900000D03*
X3838000Y21900000D03*
X3338000Y21900000D03*
X3338000Y23800000D03*
X3838000Y23800000D03*
X4338000Y23800000D03*
X4838000Y23800000D03*
D11*
X4088000Y22850000D03*
%TD*%
D12*
%TO.C,U7*%
X9418200Y533400D03*
X8768200Y533400D03*
%TD*%
D13*
%TO.C,Q8*%
X7588000Y9609600D03*
X6938000Y9609600D03*
X6288000Y9609600D03*
X6288000Y11509600D03*
X6938000Y11509600D03*
X7588000Y11509600D03*
%TD*%
%TO.C,Q12*%
X7588000Y3609600D03*
X6938000Y3609600D03*
X6288000Y3609600D03*
X6288000Y5509600D03*
X6938000Y5509600D03*
X7588000Y5509600D03*
%TD*%
D14*
%TO.C,R25*%
X5318800Y19874000D03*
X5958800Y19874000D03*
%TD*%
D15*
%TO.C,C20*%
X5298400Y14387600D03*
X4658400Y14387600D03*
%TD*%
D13*
%TO.C,Q14*%
X7588000Y609600D03*
X6938000Y609600D03*
X6288000Y609600D03*
X6288000Y2509600D03*
X6938000Y2509600D03*
X7588000Y2509600D03*
%TD*%
%TO.C,Q10*%
X7588000Y6609600D03*
X6938000Y6609600D03*
X6288000Y6609600D03*
X6288000Y8509600D03*
X6938000Y8509600D03*
X7588000Y8509600D03*
%TD*%
%TO.C,Q15*%
X4888000Y609600D03*
X4238000Y609600D03*
X3588000Y609600D03*
X3588000Y2509600D03*
X4238000Y2509600D03*
X4888000Y2509600D03*
%TD*%
D16*
%TO.C,C18*%
X3657600Y14169200D03*
X3657600Y14809200D03*
%TD*%
D17*
%TO.C,J2*%
X1778000Y22860000D03*
X1778000Y20320000D03*
X1778000Y17780000D03*
X1778000Y15240000D03*
X1778000Y12700000D03*
X1778000Y10160000D03*
X1778000Y7620000D03*
X1778000Y5080000D03*
X1778000Y2540000D03*
%TD*%
D18*
%TO.C,R26*%
X7366000Y14809200D03*
X7366000Y14169200D03*
%TD*%
D13*
%TO.C,Q9*%
X4888000Y9609600D03*
X4238000Y9609600D03*
X3588000Y9609600D03*
X3588000Y11509600D03*
X4238000Y11509600D03*
X4888000Y11509600D03*
%TD*%
D15*
%TO.C,C15*%
X7533600Y24900000D03*
X6893600Y24900000D03*
%TD*%
D13*
%TO.C,Q13*%
X4888000Y3609600D03*
X4238000Y3609600D03*
X3588000Y3609600D03*
X3588000Y5509600D03*
X4238000Y5509600D03*
X4888000Y5509600D03*
%TD*%
D19*
%TO.C,U4*%
X7738000Y21822500D03*
X7088000Y21822500D03*
X6438000Y21822500D03*
X6438000Y23877500D03*
X7088000Y23877500D03*
X7738000Y23877500D03*
D20*
X7088000Y22850000D03*
%TD*%
D15*
%TO.C,C16*%
X4003000Y24900000D03*
X3363000Y24900000D03*
%TD*%
D14*
%TO.C,C19*%
X5979200Y14387600D03*
X6619200Y14387600D03*
%TD*%
%TO.C,R24*%
X6639600Y19874000D03*
X7279600Y19874000D03*
%TD*%
D17*
%TO.C,J1*%
X9398000Y22860000D03*
X9398000Y20320000D03*
X9398000Y17780000D03*
X9398000Y15240000D03*
X9398000Y12700000D03*
X9398000Y10160000D03*
X9398000Y7620000D03*
X9398000Y5080000D03*
X9398000Y2540000D03*
%TD*%
D21*
%TO.C,C17*%
X7388800Y20585200D03*
X6428800Y20585200D03*
%TD*%
D13*
%TO.C,Q11*%
X4888000Y6609600D03*
X4238000Y6609600D03*
X3588000Y6609600D03*
X3588000Y8509600D03*
X4238000Y8509600D03*
X4888000Y8509600D03*
%TD*%
D22*
%TO.C,U6*%
X4146550Y15609222D03*
X4146550Y16109348D03*
X4146550Y16609474D03*
X4146550Y17109600D03*
X4146550Y17609726D03*
X4146550Y18109852D03*
X4146550Y18609978D03*
X7029450Y18609978D03*
X7029450Y18109852D03*
X7029450Y17609726D03*
X7029450Y17109600D03*
X7029450Y16609474D03*
X7029450Y16109348D03*
X7029450Y15609222D03*
%TD*%
M02*
