%TF.GenerationSoftware,KiCad,Pcbnew,7.0.7*%
%TF.CreationDate,2024-02-15T01:29:39-05:00*%
%TF.ProjectId,3374_VCO,33333734-5f56-4434-9f2e-6b696361645f,0*%
%TF.SameCoordinates,PX640ad70PY37b6b20*%
%TF.FileFunction,Soldermask,Top*%
%TF.FilePolarity,Negative*%
%FSLAX46Y46*%
G04 Gerber Fmt 4.6, Leading zero omitted, Abs format (unit mm)*
G04 Created by KiCad (PCBNEW 7.0.7) date 2024-02-15 01:29:39*
%MOMM*%
%LPD*%
G01*
G04 APERTURE LIST*
G04 Aperture macros list*
%AMRoundRect*
0 Rectangle with rounded corners*
0 $1 Rounding radius*
0 $2 $3 $4 $5 $6 $7 $8 $9 X,Y pos of 4 corners*
0 Add a 4 corners polygon primitive as box body*
4,1,4,$2,$3,$4,$5,$6,$7,$8,$9,$2,$3,0*
0 Add four circle primitives for the rounded corners*
1,1,$1+$1,$2,$3*
1,1,$1+$1,$4,$5*
1,1,$1+$1,$6,$7*
1,1,$1+$1,$8,$9*
0 Add four rect primitives between the rounded corners*
20,1,$1+$1,$2,$3,$4,$5,0*
20,1,$1+$1,$4,$5,$6,$7,0*
20,1,$1+$1,$6,$7,$8,$9,0*
20,1,$1+$1,$8,$9,$2,$3,0*%
G04 Aperture macros list end*
%ADD10RoundRect,0.100000X-0.130000X-0.100000X0.130000X-0.100000X0.130000X0.100000X-0.130000X0.100000X0*%
%ADD11RoundRect,0.100000X0.130000X0.100000X-0.130000X0.100000X-0.130000X-0.100000X0.130000X-0.100000X0*%
%ADD12RoundRect,0.100000X0.100000X-0.130000X0.100000X0.130000X-0.100000X0.130000X-0.100000X-0.130000X0*%
%ADD13RoundRect,0.100000X-0.100000X0.130000X-0.100000X-0.130000X0.100000X-0.130000X0.100000X0.130000X0*%
%ADD14R,0.774700X0.254000*%
%ADD15R,0.400000X0.650000*%
%ADD16RoundRect,0.135000X0.135000X0.185000X-0.135000X0.185000X-0.135000X-0.185000X0.135000X-0.185000X0*%
%ADD17R,0.558800X0.240000*%
%ADD18R,0.457200X0.240000*%
%ADD19R,0.240000X0.457200*%
%ADD20C,1.016000*%
G04 APERTURE END LIST*
D10*
%TO.C,R8*%
X9103400Y16814800D03*
X9743400Y16814800D03*
%TD*%
D11*
%TO.C,R3*%
X5908000Y19859600D03*
X5268000Y19859600D03*
%TD*%
D12*
%TO.C,R5*%
X762000Y18639600D03*
X762000Y19279600D03*
%TD*%
%TO.C,R11*%
X3098800Y15515400D03*
X3098800Y16155400D03*
%TD*%
D10*
%TO.C,R16*%
X8925600Y11125200D03*
X9565600Y11125200D03*
%TD*%
D13*
%TO.C,R4*%
X8077200Y19990800D03*
X8077200Y19350800D03*
%TD*%
D14*
%TO.C,U3*%
X7029450Y15609222D03*
X7029450Y16109348D03*
X7029450Y16609474D03*
X7029450Y17109600D03*
X7029450Y17609726D03*
X7029450Y18109852D03*
X7029450Y18609978D03*
X4146550Y18609978D03*
X4146550Y18109852D03*
X4146550Y17609726D03*
X4146550Y17109600D03*
X4146550Y16609474D03*
X4146550Y16109348D03*
X4146550Y15609222D03*
%TD*%
D13*
%TO.C,R6*%
X8077200Y18670000D03*
X8077200Y18030000D03*
%TD*%
D10*
%TO.C,R10*%
X9103400Y16200800D03*
X9743400Y16200800D03*
%TD*%
%TO.C,C6*%
X8874800Y21285200D03*
X9514800Y21285200D03*
%TD*%
%TO.C,C14*%
X9078000Y3505200D03*
X9718000Y3505200D03*
%TD*%
D11*
%TO.C,C5*%
X9514800Y21894800D03*
X8874800Y21894800D03*
%TD*%
D10*
%TO.C,R19*%
X1458000Y4114800D03*
X2098000Y4114800D03*
%TD*%
D11*
%TO.C,R20*%
X9718000Y4114800D03*
X9078000Y4114800D03*
%TD*%
D13*
%TO.C,C9*%
X8077200Y16028400D03*
X8077200Y15388400D03*
%TD*%
D15*
%TO.C,Q6*%
X3588000Y609600D03*
X4238000Y609600D03*
X4888000Y609600D03*
X4888000Y2509600D03*
X4238000Y2509600D03*
X3588000Y2509600D03*
%TD*%
%TO.C,D1*%
X3588000Y9609600D03*
X4238000Y9609600D03*
X4888000Y9609600D03*
X4888000Y11509600D03*
X4238000Y11509600D03*
X3588000Y11509600D03*
%TD*%
D11*
%TO.C,R18*%
X9565600Y8585200D03*
X8925600Y8585200D03*
%TD*%
D16*
%TO.C,R22*%
X9933400Y1422400D03*
X8913400Y1422400D03*
%TD*%
D10*
%TO.C,C11*%
X8925600Y9194800D03*
X9565600Y9194800D03*
%TD*%
D17*
%TO.C,U1*%
X3339892Y23400150D03*
D18*
X3288000Y23000100D03*
X3288000Y22600050D03*
X3288000Y22200000D03*
D19*
X3412925Y21675076D03*
X3812975Y21675076D03*
X4213025Y21675076D03*
X4613075Y21675076D03*
D18*
X4738000Y22200000D03*
X4738000Y22600050D03*
X4738000Y23000100D03*
X4738000Y23400150D03*
D19*
X4613075Y23925074D03*
X4213025Y23925074D03*
X3812975Y23925074D03*
X3412925Y23925074D03*
%TD*%
D11*
%TO.C,R9*%
X2301200Y16205200D03*
X1661200Y16205200D03*
%TD*%
D15*
%TO.C,Q7*%
X6288000Y609600D03*
X6938000Y609600D03*
X7588000Y609600D03*
X7588000Y2509600D03*
X6938000Y2509600D03*
X6288000Y2509600D03*
%TD*%
%TO.C,Q3*%
X6288000Y6609600D03*
X6938000Y6609600D03*
X7588000Y6609600D03*
X7588000Y8509600D03*
X6938000Y8509600D03*
X6288000Y8509600D03*
%TD*%
%TO.C,Q5*%
X6288000Y3609600D03*
X6938000Y3609600D03*
X7588000Y3609600D03*
X7588000Y5509600D03*
X6938000Y5509600D03*
X6288000Y5509600D03*
%TD*%
D10*
%TO.C,R21*%
X1458000Y3505200D03*
X2098000Y3505200D03*
%TD*%
D13*
%TO.C,C7*%
X3098800Y17755600D03*
X3098800Y17115600D03*
%TD*%
D17*
%TO.C,U2*%
X7836108Y22200000D03*
D18*
X7888000Y22600050D03*
X7888000Y23000100D03*
X7888000Y23400150D03*
D19*
X7763075Y23925074D03*
X7363025Y23925074D03*
X6962975Y23925074D03*
X6562925Y23925074D03*
D18*
X6438000Y23400150D03*
X6438000Y23000100D03*
X6438000Y22600050D03*
X6438000Y22200000D03*
D19*
X6562925Y21675076D03*
X6962975Y21675076D03*
X7363025Y21675076D03*
X7763075Y21675076D03*
%TD*%
D11*
%TO.C,R15*%
X9514800Y13665200D03*
X8874800Y13665200D03*
%TD*%
D15*
%TO.C,Q4*%
X3588000Y3609600D03*
X4238000Y3609600D03*
X4888000Y3609600D03*
X4888000Y5509600D03*
X4238000Y5509600D03*
X3588000Y5509600D03*
%TD*%
D11*
%TO.C,R12*%
X2301200Y14274800D03*
X1661200Y14274800D03*
%TD*%
D10*
%TO.C,C3*%
X1407200Y23900000D03*
X2047200Y23900000D03*
%TD*%
%TO.C,C10*%
X8925600Y11734800D03*
X9565600Y11734800D03*
%TD*%
D11*
%TO.C,R2*%
X4587200Y19859600D03*
X3947200Y19859600D03*
%TD*%
D10*
%TO.C,C13*%
X9078000Y6654800D03*
X9718000Y6654800D03*
%TD*%
D13*
%TO.C,C8*%
X8077200Y17349200D03*
X8077200Y16709200D03*
%TD*%
D15*
%TO.C,Q1*%
X6288000Y9609600D03*
X6938000Y9609600D03*
X7588000Y9609600D03*
X7588000Y11509600D03*
X6938000Y11509600D03*
X6288000Y11509600D03*
%TD*%
D11*
%TO.C,C4*%
X2098000Y21894800D03*
X1458000Y21894800D03*
%TD*%
%TO.C,R17*%
X2098000Y9194800D03*
X1458000Y9194800D03*
%TD*%
D10*
%TO.C,R1*%
X1458000Y21285200D03*
X2098000Y21285200D03*
%TD*%
%TO.C,C2*%
X8976400Y24028400D03*
X9616400Y24028400D03*
%TD*%
%TO.C,R13*%
X8874800Y14274800D03*
X9514800Y14274800D03*
%TD*%
D11*
%TO.C,C1*%
X2047200Y24500000D03*
X1407200Y24500000D03*
%TD*%
%TO.C,R7*%
X2301200Y16814800D03*
X1661200Y16814800D03*
%TD*%
%TO.C,C12*%
X2098000Y8585200D03*
X1458000Y8585200D03*
%TD*%
D15*
%TO.C,Q2*%
X3588000Y6609600D03*
X4238000Y6609600D03*
X4888000Y6609600D03*
X4888000Y8509600D03*
X4238000Y8509600D03*
X3588000Y8509600D03*
%TD*%
D10*
%TO.C,R14*%
X1661200Y13665200D03*
X2301200Y13665200D03*
%TD*%
D20*
%TO.C,J2*%
X1778000Y22860000D03*
X1778000Y20320000D03*
X1778000Y17780000D03*
X1778000Y15240000D03*
X1778000Y12700000D03*
X1778000Y10160000D03*
X1778000Y7620000D03*
X1778000Y5080000D03*
X1778000Y2540000D03*
%TD*%
%TO.C,J1*%
X9398000Y22860000D03*
X9398000Y20320000D03*
X9398000Y17780000D03*
X9398000Y15240000D03*
X9398000Y12700000D03*
X9398000Y10160000D03*
X9398000Y7620000D03*
X9398000Y5080000D03*
X9398000Y2540000D03*
%TD*%
M02*
