%TF.GenerationSoftware,KiCad,Pcbnew,7.0.7*%
%TF.CreationDate,2024-02-15T01:29:39-05:00*%
%TF.ProjectId,3374_VCO,33333734-5f56-4434-9f2e-6b696361645f,0*%
%TF.SameCoordinates,PX640ad70PY37b6b20*%
%TF.FileFunction,Copper,L3,Inr*%
%TF.FilePolarity,Positive*%
%FSLAX46Y46*%
G04 Gerber Fmt 4.6, Leading zero omitted, Abs format (unit mm)*
G04 Created by KiCad (PCBNEW 7.0.7) date 2024-02-15 01:29:39*
%MOMM*%
%LPD*%
G01*
G04 APERTURE LIST*
%TA.AperFunction,ComponentPad*%
%ADD10C,1.016000*%
%TD*%
%TA.AperFunction,FiducialPad,Local*%
%ADD11C,1.016000*%
%TD*%
%TA.AperFunction,ViaPad*%
%ADD12C,0.604800*%
%TD*%
%TA.AperFunction,Conductor*%
%ADD13C,0.152400*%
%TD*%
%TA.AperFunction,Conductor*%
%ADD14C,0.200000*%
%TD*%
G04 APERTURE END LIST*
D10*
%TO.N,-5V*%
%TO.C,J2*%
X1778000Y22860000D03*
%TO.N,SAWTOOTH_A*%
X1778000Y20320000D03*
%TO.N,SYNC_A*%
X1778000Y17780000D03*
%TO.N,VTH_A*%
X1778000Y15240000D03*
%TO.N,TRIANGLE_A*%
X1778000Y12700000D03*
%TO.N,CF_A*%
X1778000Y10160000D03*
D11*
%TO.N,CV_A*%
X1778000Y7620000D03*
D10*
%TO.N,IREF_A*%
X1778000Y5080000D03*
%TO.N,GND*%
X1778000Y2540000D03*
%TD*%
%TO.N,+12V*%
%TO.C,J1*%
X9398000Y22860000D03*
%TO.N,SAWTOOTH_B*%
X9398000Y20320000D03*
%TO.N,unconnected-(J1-Pin_3-Pad3)*%
X9398000Y17780000D03*
%TO.N,VTH_B*%
X9398000Y15240000D03*
%TO.N,TRIANGLE_B*%
X9398000Y12700000D03*
%TO.N,CF_B*%
X9398000Y10160000D03*
%TO.N,CV_B*%
X9398000Y7620000D03*
%TO.N,IREF_B*%
X9398000Y5080000D03*
%TO.N,VTC*%
X9398000Y2540000D03*
%TD*%
D12*
%TO.N,+12V*%
X5613194Y16237387D03*
X1115200Y13411200D03*
X3311560Y10714202D03*
X4923700Y7719600D03*
X10248474Y13990074D03*
X7422723Y10724877D03*
%TO.N,GND*%
X10293200Y14745876D03*
X1115200Y14484600D03*
X3350430Y7399600D03*
X1748720Y18796123D03*
X4218000Y1409600D03*
X10273443Y23837043D03*
X10304347Y16803287D03*
X10007600Y584200D03*
X10187998Y11939600D03*
X886600Y24260702D03*
X6353796Y24844996D03*
X965212Y22301200D03*
X10151962Y3137969D03*
X5882492Y15429600D03*
X4411340Y14927961D03*
X5423146Y22968932D03*
X10157600Y6208800D03*
X1161523Y17041094D03*
X5977733Y21830233D03*
X7328000Y1399600D03*
X10010000Y21540000D03*
%TO.N,-5V*%
X8572351Y22365703D03*
X4148778Y7388902D03*
X4118500Y4730298D03*
X5440793Y18143626D03*
%TO.N,+5V*%
X10298000Y15827404D03*
X8304228Y21094527D03*
X2585572Y24513400D03*
X5359400Y24841200D03*
X1161500Y15989353D03*
X10617200Y1422400D03*
%TO.N,Net-(Q10A-E1)*%
X8078000Y12599600D03*
%TO.N,SAWTOOTH_A*%
X2815796Y18996800D03*
%TO.N,SYNC_A*%
X2849008Y6521558D03*
%TO.N,TRIANGLE_A*%
X5183317Y19203823D03*
X965200Y20878800D03*
%TO.N,Net-(Q15A-C1)*%
X2933698Y584200D03*
X5894747Y12594755D03*
X2565400Y11506200D03*
%TO.N,TRIANGLE_B*%
X10007600Y19047600D03*
X4114800Y20534400D03*
%TO.N,Net-(C9-Pad2)*%
X6589631Y12895574D03*
X1070300Y11526249D03*
%TO.N,Net-(Q14A-C1)*%
X6558355Y1641714D03*
X10210800Y8178800D03*
%TO.N,Net-(C18-Pad2)*%
X10278000Y13189596D03*
%TO.N,Net-(Q14A-E1)*%
X8331200Y7224800D03*
%TO.N,Net-(Q15B-C2)*%
X5858743Y1328857D03*
%TO.N,Net-(Q15A-E1)*%
X2585629Y1904836D03*
%TO.N,Net-(R4-Pad1)*%
X5136000Y21170070D03*
%TO.N,Net-(U6D--)*%
X8607941Y19224066D03*
%TO.N,Net-(D1A-K)*%
X7873994Y14713000D03*
X5560200Y10553897D03*
X7311075Y12604986D03*
%TO.N,Net-(R5-Pad2)*%
X4657904Y24516258D03*
%TO.N,Net-(U6D-+)*%
X8716784Y17092322D03*
%TO.N,Net-(D1B-K)*%
X5567992Y9669600D03*
X5691644Y17041638D03*
X6350000Y7580400D03*
%TO.N,Net-(D1A-A)*%
X3710061Y12594200D03*
%TO.N,Net-(U5B--)*%
X3288391Y19587923D03*
%TO.N,Net-(U6C-+)*%
X8338335Y24835281D03*
%TO.N,Net-(U5A--)*%
X5638798Y23774400D03*
%TD*%
D13*
%TO.N,+5V*%
X10820400Y23215600D02*
X10820400Y20980400D01*
X10769600Y23266400D02*
X10820400Y23215600D01*
X10058400Y23266400D02*
X10769600Y23266400D01*
X6549510Y23771396D02*
X9553404Y23771396D01*
X5479706Y24841200D02*
X6549510Y23771396D01*
X5359400Y24841200D02*
X5479706Y24841200D01*
X9553404Y23771396D02*
X10058400Y23266400D01*
D14*
%TO.N,+12V*%
X9398000Y22860000D02*
X9398000Y21844000D01*
X9398000Y22860000D02*
X10138000Y22860000D01*
%TO.N,-5V*%
X1778000Y22860000D02*
X1778000Y22098000D01*
D13*
X4118500Y4920998D02*
X3095898Y5943600D01*
X355600Y5994400D02*
X406400Y5943600D01*
X4118500Y4820698D02*
X4118500Y4920998D01*
X406400Y5943600D02*
X3095898Y5943600D01*
X4148778Y6996480D02*
X3095898Y5943600D01*
X8572351Y22365703D02*
X8505054Y22433000D01*
D14*
X1778000Y22860000D02*
X2641600Y22860000D01*
D13*
X4148778Y7479302D02*
X4148778Y6996480D01*
%TO.N,+5V*%
X10820400Y20980400D02*
X10787111Y20947111D01*
X5153842Y25046758D02*
X3118930Y25046758D01*
X10839400Y15919400D02*
X10839400Y20961400D01*
X10315404Y15900400D02*
X10298000Y15917804D01*
X10820400Y15900400D02*
X10839400Y15919400D01*
X3118930Y25046758D02*
X2585572Y24513400D01*
X355600Y22978754D02*
X1111081Y23734235D01*
X10787111Y20947111D02*
X9784528Y20947111D01*
X1111081Y23734235D02*
X1806407Y23734235D01*
X9784528Y20947111D02*
X9637112Y21094527D01*
X355600Y16795900D02*
X355600Y22978754D01*
X1806407Y23734235D02*
X2585572Y24513400D01*
X10839400Y20961400D02*
X10820400Y20980400D01*
X9637112Y21094527D02*
X8304228Y21094527D01*
X1161500Y15990000D02*
X355600Y16795900D01*
X10820400Y15900400D02*
X10824200Y15896600D01*
X10820400Y15900400D02*
X10315404Y15900400D01*
X5359400Y24841200D02*
X5153842Y25046758D01*
%TD*%
%TA.AperFunction,Conductor*%
%TO.N,-5V*%
G36*
X3302000Y13791200D02*
G01*
X3284407Y13742862D01*
X3239858Y13717142D01*
X3226800Y13716000D01*
X1487880Y13716000D01*
X1439542Y13733593D01*
X1431048Y13741954D01*
X1430032Y13743126D01*
X1416424Y13758831D01*
X1416423Y13758832D01*
X1416421Y13758834D01*
X1306283Y13829615D01*
X1180664Y13866500D01*
X1180662Y13866500D01*
X1049738Y13866500D01*
X1049735Y13866500D01*
X924116Y13829615D01*
X813978Y13758834D01*
X799352Y13741954D01*
X773656Y13727658D01*
X755765Y13709767D01*
X744407Y13678558D01*
X743633Y13677651D01*
X728240Y13659887D01*
X728238Y13659884D01*
X673851Y13540795D01*
X658518Y13434154D01*
X655218Y13411200D01*
X673851Y13281608D01*
X673851Y13281607D01*
X673852Y13281605D01*
X673852Y13281603D01*
X728237Y13162518D01*
X728238Y13162517D01*
X728239Y13162515D01*
X743632Y13144751D01*
X761991Y13096698D01*
X762000Y13095505D01*
X762000Y11893762D01*
X744407Y11845424D01*
X743632Y11844516D01*
X683340Y11774937D01*
X683337Y11774932D01*
X628952Y11655847D01*
X628952Y11655845D01*
X628951Y11655843D01*
X628951Y11655841D01*
X610318Y11526249D01*
X628951Y11396657D01*
X628951Y11396656D01*
X628952Y11396654D01*
X628952Y11396652D01*
X683337Y11277567D01*
X683338Y11277566D01*
X683339Y11277564D01*
X743632Y11207982D01*
X761991Y11159930D01*
X762000Y11158737D01*
X762000Y8128000D01*
X1182312Y8128000D01*
X1230650Y8110407D01*
X1256370Y8065858D01*
X1247437Y8015200D01*
X1244203Y8010087D01*
X1203924Y7951731D01*
X1188504Y7929391D01*
X1188502Y7929389D01*
X1131593Y7779329D01*
X1131592Y7779327D01*
X1131592Y7779325D01*
X1112246Y7620000D01*
X1131592Y7460675D01*
X1131592Y7460673D01*
X1131593Y7460672D01*
X1188502Y7310612D01*
X1188507Y7310604D01*
X1279672Y7178528D01*
X1279674Y7178526D01*
X1279676Y7178523D01*
X1279679Y7178521D01*
X1279684Y7178515D01*
X1399805Y7072098D01*
X1399807Y7072097D01*
X1399809Y7072095D01*
X1541920Y6997509D01*
X1697752Y6959100D01*
X1697754Y6959100D01*
X1858246Y6959100D01*
X1858248Y6959100D01*
X2014080Y6997509D01*
X2156191Y7072095D01*
X2276324Y7178523D01*
X2367496Y7310609D01*
X2424408Y7460675D01*
X2443754Y7620000D01*
X2424408Y7779325D01*
X2367496Y7929391D01*
X2311798Y8010083D01*
X2298820Y8059857D01*
X2320872Y8106330D01*
X2367637Y8127756D01*
X2373688Y8128000D01*
X4242800Y8128000D01*
X4291138Y8110407D01*
X4316858Y8065858D01*
X4318000Y8052800D01*
X4318000Y4393200D01*
X4300407Y4344862D01*
X4255858Y4319142D01*
X4242800Y4318000D01*
X2053366Y4318000D01*
X2005028Y4335593D01*
X1979308Y4380142D01*
X1988241Y4430800D01*
X2018419Y4459786D01*
X2065147Y4484312D01*
X2156191Y4532095D01*
X2276324Y4638523D01*
X2367496Y4770609D01*
X2424408Y4920675D01*
X2443754Y5080000D01*
X2424408Y5239325D01*
X2367496Y5389391D01*
X2276324Y5521477D01*
X2276320Y5521481D01*
X2276315Y5521486D01*
X2156194Y5627903D01*
X2156188Y5627907D01*
X2014083Y5702490D01*
X2014081Y5702491D01*
X1962136Y5715294D01*
X1858248Y5740900D01*
X1697752Y5740900D01*
X1619835Y5721696D01*
X1541918Y5702491D01*
X1541916Y5702490D01*
X1399811Y5627907D01*
X1399805Y5627903D01*
X1279684Y5521486D01*
X1279672Y5521473D01*
X1188507Y5389397D01*
X1188502Y5389389D01*
X1131593Y5239329D01*
X1131592Y5239327D01*
X1131592Y5239325D01*
X1112246Y5080000D01*
X1131592Y4920675D01*
X1131592Y4920673D01*
X1131593Y4920672D01*
X1188502Y4770612D01*
X1188507Y4770604D01*
X1279672Y4638528D01*
X1279674Y4638526D01*
X1279676Y4638523D01*
X1279679Y4638521D01*
X1279684Y4638515D01*
X1399805Y4532098D01*
X1399811Y4532094D01*
X1537581Y4459786D01*
X1572206Y4421744D01*
X1574277Y4370346D01*
X1542826Y4329642D01*
X1502634Y4318000D01*
X329200Y4318000D01*
X280862Y4335593D01*
X255142Y4380142D01*
X254000Y4393200D01*
X254000Y6521558D01*
X2389026Y6521558D01*
X2407659Y6391966D01*
X2407659Y6391965D01*
X2407660Y6391963D01*
X2407660Y6391961D01*
X2462045Y6272876D01*
X2462048Y6272871D01*
X2493471Y6236608D01*
X2547784Y6173927D01*
X2547786Y6173926D01*
X2547787Y6173925D01*
X2657924Y6103144D01*
X2747290Y6076904D01*
X2783546Y6066258D01*
X2783549Y6066258D01*
X2914467Y6066258D01*
X2914470Y6066258D01*
X3040091Y6103144D01*
X3150232Y6173927D01*
X3235969Y6272873D01*
X3290357Y6391966D01*
X3308990Y6521558D01*
X3290357Y6651150D01*
X3290355Y6651155D01*
X3290355Y6651156D01*
X3235970Y6770241D01*
X3235967Y6770246D01*
X3204651Y6806386D01*
X3184672Y6829443D01*
X3166314Y6877493D01*
X3183138Y6926104D01*
X3227272Y6952528D01*
X3262691Y6950841D01*
X3276059Y6946916D01*
X3284968Y6944300D01*
X3284971Y6944300D01*
X3415889Y6944300D01*
X3415892Y6944300D01*
X3541513Y6981186D01*
X3651654Y7051969D01*
X3737391Y7150915D01*
X3791779Y7270008D01*
X3810412Y7399600D01*
X3791779Y7529192D01*
X3791777Y7529197D01*
X3791777Y7529198D01*
X3737392Y7648283D01*
X3737389Y7648288D01*
X3709823Y7680100D01*
X3651654Y7747231D01*
X3651650Y7747234D01*
X3541513Y7818015D01*
X3415894Y7854900D01*
X3415892Y7854900D01*
X3284968Y7854900D01*
X3284965Y7854900D01*
X3159346Y7818015D01*
X3049209Y7747234D01*
X2963470Y7648288D01*
X2963467Y7648283D01*
X2909082Y7529198D01*
X2909082Y7529196D01*
X2909081Y7529194D01*
X2909081Y7529192D01*
X2890448Y7399600D01*
X2909081Y7270008D01*
X2909081Y7270007D01*
X2909082Y7270005D01*
X2909082Y7270003D01*
X2963467Y7150918D01*
X2963470Y7150913D01*
X2985838Y7125100D01*
X3014764Y7091717D01*
X3033123Y7043666D01*
X3016299Y6995055D01*
X2972164Y6968631D01*
X2936748Y6970317D01*
X2914471Y6976858D01*
X2914470Y6976858D01*
X2783546Y6976858D01*
X2783543Y6976858D01*
X2657924Y6939973D01*
X2547787Y6869192D01*
X2462048Y6770246D01*
X2462045Y6770241D01*
X2407660Y6651156D01*
X2407660Y6651154D01*
X2407659Y6651152D01*
X2407659Y6651150D01*
X2389026Y6521558D01*
X254000Y6521558D01*
X254000Y14498900D01*
X271593Y14547238D01*
X316142Y14572958D01*
X329200Y14574100D01*
X581301Y14574100D01*
X629639Y14556507D01*
X655359Y14511958D01*
X655735Y14488196D01*
X655218Y14484600D01*
X673851Y14355008D01*
X673851Y14355007D01*
X673852Y14355005D01*
X673852Y14355003D01*
X728237Y14235918D01*
X728240Y14235913D01*
X759663Y14199649D01*
X813976Y14136969D01*
X813978Y14136968D01*
X813979Y14136967D01*
X924116Y14066186D01*
X1013482Y14039946D01*
X1049738Y14029300D01*
X1049741Y14029300D01*
X1180659Y14029300D01*
X1180662Y14029300D01*
X1306283Y14066186D01*
X1416424Y14136969D01*
X1502161Y14235915D01*
X1556549Y14355008D01*
X1575182Y14484600D01*
X1572467Y14503482D01*
X1583001Y14553830D01*
X1623434Y14585629D01*
X1664894Y14587199D01*
X1697752Y14579100D01*
X1697756Y14579100D01*
X1858246Y14579100D01*
X1858248Y14579100D01*
X2014080Y14617509D01*
X2156191Y14692095D01*
X2276324Y14798523D01*
X2367496Y14930609D01*
X2424408Y15080675D01*
X2443754Y15240000D01*
X2424408Y15399325D01*
X2367496Y15549391D01*
X2360731Y15559192D01*
X2276327Y15681473D01*
X2276326Y15681475D01*
X2276324Y15681477D01*
X2276320Y15681481D01*
X2276315Y15681486D01*
X2156194Y15787903D01*
X2156188Y15787907D01*
X2014083Y15862490D01*
X2014077Y15862492D01*
X1988227Y15868864D01*
X1945505Y15897515D01*
X1931194Y15946924D01*
X1932165Y15954922D01*
X1935900Y15976100D01*
X1935900Y17047344D01*
X1935600Y17054226D01*
X1934158Y17070715D01*
X1934156Y17070719D01*
X1934024Y17072238D01*
X1947338Y17121925D01*
X1989475Y17151430D01*
X1990894Y17151795D01*
X2014080Y17157509D01*
X2156191Y17232095D01*
X2276324Y17338523D01*
X2367496Y17470609D01*
X2424408Y17620675D01*
X2443754Y17780000D01*
X3302000Y17780000D01*
X3302000Y13791200D01*
G37*
%TD.AperFunction*%
%TA.AperFunction,Conductor*%
G36*
X4940882Y22989307D02*
G01*
X4966602Y22944758D01*
X4966974Y22942431D01*
X4981797Y22839340D01*
X4981797Y22839339D01*
X4981798Y22839337D01*
X4981798Y22839335D01*
X5036183Y22720250D01*
X5036186Y22720245D01*
X5054629Y22698961D01*
X5121922Y22621301D01*
X5121924Y22621300D01*
X5121925Y22621299D01*
X5232062Y22550518D01*
X5321428Y22524278D01*
X5357684Y22513632D01*
X5357687Y22513632D01*
X5488605Y22513632D01*
X5488608Y22513632D01*
X5614229Y22550518D01*
X5724370Y22621301D01*
X5810107Y22720247D01*
X5864495Y22839340D01*
X5879313Y22942404D01*
X5903607Y22987744D01*
X5951362Y23006862D01*
X5953748Y23006900D01*
X8665200Y23006900D01*
X8713538Y22989307D01*
X8739258Y22944758D01*
X8739851Y22922640D01*
X8732246Y22860000D01*
X8751592Y22700675D01*
X8751592Y22700673D01*
X8751593Y22700672D01*
X8808502Y22550612D01*
X8808503Y22550610D01*
X8808504Y22550609D01*
X8876688Y22451827D01*
X8890000Y22409109D01*
X8890000Y22173200D01*
X8872407Y22124862D01*
X8827858Y22099142D01*
X8814800Y22098000D01*
X6382502Y22098000D01*
X6334164Y22115593D01*
X6325670Y22123954D01*
X6284382Y22171603D01*
X6278957Y22177864D01*
X6278955Y22177865D01*
X6278953Y22177868D01*
X6168816Y22248648D01*
X6043197Y22285533D01*
X6043195Y22285533D01*
X5912271Y22285533D01*
X5912268Y22285533D01*
X5786649Y22248648D01*
X5676512Y22177868D01*
X5629796Y22123954D01*
X5584846Y22098945D01*
X5572964Y22098000D01*
X3302000Y22098000D01*
X3302000Y20118423D01*
X3284407Y20070085D01*
X3239858Y20044365D01*
X3226800Y20043223D01*
X3222926Y20043223D01*
X3097307Y20006338D01*
X2987170Y19935557D01*
X2901431Y19836611D01*
X2901428Y19836606D01*
X2847043Y19717521D01*
X2847043Y19717519D01*
X2847042Y19717517D01*
X2847042Y19717515D01*
X2838643Y19659100D01*
X2828409Y19587923D01*
X2835587Y19538002D01*
X2825051Y19487653D01*
X2784617Y19455855D01*
X2761152Y19452100D01*
X2750331Y19452100D01*
X2624712Y19415215D01*
X2514575Y19344434D01*
X2514572Y19344432D01*
X2514572Y19344431D01*
X2505027Y19333415D01*
X2428836Y19245488D01*
X2428833Y19245483D01*
X2374448Y19126398D01*
X2374448Y19126396D01*
X2374447Y19126394D01*
X2374447Y19126392D01*
X2355814Y18996800D01*
X2374447Y18867208D01*
X2374447Y18867207D01*
X2374448Y18867205D01*
X2374448Y18867203D01*
X2406966Y18796000D01*
X2208684Y18796000D01*
X2208702Y18796123D01*
X2190069Y18925715D01*
X2190067Y18925720D01*
X2190067Y18925721D01*
X2135682Y19044806D01*
X2135679Y19044811D01*
X2092645Y19094474D01*
X2049944Y19143754D01*
X2049940Y19143757D01*
X1939803Y19214538D01*
X1814184Y19251423D01*
X1814182Y19251423D01*
X1683258Y19251423D01*
X1683255Y19251423D01*
X1557636Y19214538D01*
X1447499Y19143757D01*
X1361760Y19044811D01*
X1361757Y19044806D01*
X1307372Y18925721D01*
X1307372Y18925719D01*
X1307371Y18925717D01*
X1307371Y18925715D01*
X1288738Y18796123D01*
X1307371Y18666531D01*
X1307371Y18666530D01*
X1307372Y18666528D01*
X1307372Y18666526D01*
X1361757Y18547441D01*
X1361760Y18547436D01*
X1366903Y18541501D01*
X1442262Y18454532D01*
X1460621Y18406481D01*
X1443796Y18357870D01*
X1420379Y18338702D01*
X1399812Y18327907D01*
X1399805Y18327903D01*
X1279684Y18221486D01*
X1279672Y18221473D01*
X1188507Y18089397D01*
X1188502Y18089389D01*
X1147769Y17981982D01*
X1114178Y17943024D01*
X1064398Y17934590D01*
X1045625Y17937900D01*
X995100Y17937900D01*
X946762Y17955493D01*
X921042Y18000042D01*
X919900Y18013100D01*
X919900Y20348300D01*
X937493Y20396638D01*
X982042Y20422358D01*
X995100Y20423500D01*
X1036041Y20423500D01*
X1036041Y20421889D01*
X1079628Y20412780D01*
X1111437Y20372354D01*
X1114650Y20339809D01*
X1112246Y20320003D01*
X1112246Y20320000D01*
X1131592Y20160675D01*
X1131592Y20160673D01*
X1131593Y20160672D01*
X1188502Y20010612D01*
X1188507Y20010604D01*
X1279672Y19878528D01*
X1279674Y19878526D01*
X1279676Y19878523D01*
X1279679Y19878521D01*
X1279684Y19878515D01*
X1399805Y19772098D01*
X1399811Y19772094D01*
X1503790Y19717521D01*
X1541920Y19697509D01*
X1697752Y19659100D01*
X1697754Y19659100D01*
X1858246Y19659100D01*
X1858248Y19659100D01*
X2014080Y19697509D01*
X2156191Y19772095D01*
X2276324Y19878523D01*
X2367496Y20010609D01*
X2424408Y20160675D01*
X2443754Y20320000D01*
X2424408Y20479325D01*
X2367496Y20629391D01*
X2343613Y20663992D01*
X2276327Y20761473D01*
X2276326Y20761475D01*
X2276324Y20761477D01*
X2276320Y20761481D01*
X2276315Y20761486D01*
X2156194Y20867903D01*
X2156188Y20867907D01*
X2014083Y20942490D01*
X2014081Y20942491D01*
X1962135Y20955294D01*
X1858248Y20980900D01*
X1697752Y20980900D01*
X1541919Y20942492D01*
X1541920Y20942491D01*
X1519092Y20930510D01*
X1468115Y20923626D01*
X1424639Y20951119D01*
X1409712Y20986393D01*
X1406549Y21008392D01*
X1406547Y21008397D01*
X1406547Y21008398D01*
X1352162Y21127483D01*
X1352159Y21127488D01*
X1315261Y21170070D01*
X1266424Y21226431D01*
X1266420Y21226434D01*
X1156283Y21297215D01*
X1030664Y21334100D01*
X1030662Y21334100D01*
X995100Y21334100D01*
X946762Y21351693D01*
X921042Y21396242D01*
X919900Y21409300D01*
X919900Y21770700D01*
X937493Y21819038D01*
X982042Y21844758D01*
X995100Y21845900D01*
X1030671Y21845900D01*
X1030674Y21845900D01*
X1156295Y21882786D01*
X1266436Y21953569D01*
X1352173Y22052515D01*
X1406561Y22171608D01*
X1408650Y22186144D01*
X1432943Y22231485D01*
X1480697Y22250604D01*
X1518032Y22242028D01*
X1539380Y22230824D01*
X1696893Y22192000D01*
X1859107Y22192000D01*
X2016617Y22230823D01*
X2016618Y22230824D01*
X2160255Y22306210D01*
X2176221Y22320356D01*
X2176221Y22320359D01*
X1987565Y22509015D01*
X1965825Y22555635D01*
X1979139Y22605322D01*
X1983132Y22610527D01*
X1985229Y22613028D01*
X1985233Y22613029D01*
X2015139Y22648671D01*
X2059685Y22674388D01*
X2110343Y22665455D01*
X2125918Y22653504D01*
X2315965Y22463457D01*
X2373828Y22547286D01*
X2373830Y22547290D01*
X2431352Y22698961D01*
X2450905Y22860000D01*
X2443301Y22922636D01*
X2454940Y22972742D01*
X2496064Y23003644D01*
X2517953Y23006900D01*
X4892544Y23006900D01*
X4940882Y22989307D01*
G37*
%TD.AperFunction*%
%TD*%
%TA.AperFunction,Conductor*%
%TO.N,+12V*%
G36*
X10229238Y22989307D02*
G01*
X10254958Y22944758D01*
X10256100Y22931700D01*
X10256100Y22042716D01*
X10238507Y21994378D01*
X10193958Y21968658D01*
X10159714Y21970562D01*
X10075464Y21995300D01*
X10075462Y21995300D01*
X9944538Y21995300D01*
X9944535Y21995300D01*
X9818916Y21958415D01*
X9708779Y21887634D01*
X9708776Y21887632D01*
X9708776Y21887631D01*
X9691610Y21867821D01*
X9623040Y21788688D01*
X9623037Y21788683D01*
X9568652Y21669598D01*
X9568652Y21669596D01*
X9568651Y21669594D01*
X9568651Y21669592D01*
X9552663Y21558397D01*
X9528370Y21513056D01*
X9480615Y21493938D01*
X9478229Y21493900D01*
X8547020Y21493900D01*
X8506365Y21505837D01*
X8495309Y21512942D01*
X8369692Y21549827D01*
X8369690Y21549827D01*
X8238766Y21549827D01*
X8238763Y21549827D01*
X8113144Y21512942D01*
X8003007Y21442161D01*
X7917268Y21343215D01*
X7917265Y21343210D01*
X7862880Y21224125D01*
X7862880Y21224123D01*
X7862879Y21224121D01*
X7862879Y21224119D01*
X7844246Y21094527D01*
X7862879Y20964935D01*
X7862879Y20964934D01*
X7862880Y20964932D01*
X7862880Y20964930D01*
X7917265Y20845845D01*
X7917266Y20845844D01*
X7917267Y20845842D01*
X7937546Y20822439D01*
X7951732Y20806068D01*
X7970091Y20758015D01*
X7970100Y20756822D01*
X7970100Y20264756D01*
X7970400Y20257874D01*
X7971842Y20241385D01*
X7992396Y20176193D01*
X8018116Y20131643D01*
X8033905Y20109096D01*
X8100856Y20062217D01*
X8100857Y20062217D01*
X8100859Y20062215D01*
X8149197Y20044622D01*
X8203195Y20035101D01*
X8203196Y20035100D01*
X8203200Y20035100D01*
X8662789Y20035100D01*
X8682696Y20036573D01*
X8686015Y20036818D01*
X8707904Y20040074D01*
X8714141Y20042683D01*
X8765522Y20045102D01*
X8805899Y20014338D01*
X8805920Y20014352D01*
X8805963Y20014290D01*
X8806439Y20013927D01*
X8807650Y20011846D01*
X8899672Y19878528D01*
X8899674Y19878526D01*
X8899676Y19878523D01*
X8899679Y19878521D01*
X8899684Y19878515D01*
X9019805Y19772098D01*
X9019811Y19772094D01*
X9123790Y19717521D01*
X9161920Y19697509D01*
X9317752Y19659100D01*
X9317754Y19659100D01*
X9478246Y19659100D01*
X9478248Y19659100D01*
X9634080Y19697509D01*
X9776191Y19772095D01*
X9896324Y19878523D01*
X9981552Y20001997D01*
X9990080Y20014352D01*
X9991477Y20013388D01*
X10024679Y20043618D01*
X10076077Y20045698D01*
X10078937Y20044723D01*
X10079214Y20044622D01*
X10133212Y20035101D01*
X10133213Y20035100D01*
X10133217Y20035100D01*
X10180900Y20035100D01*
X10229238Y20017507D01*
X10254958Y19972958D01*
X10256100Y19959900D01*
X10256099Y19549611D01*
X10238505Y19501273D01*
X10193957Y19475553D01*
X10159713Y19477457D01*
X10073064Y19502900D01*
X10073062Y19502900D01*
X9942138Y19502900D01*
X9942135Y19502900D01*
X9816516Y19466015D01*
X9706379Y19395234D01*
X9620640Y19296288D01*
X9620637Y19296283D01*
X9566252Y19177198D01*
X9566252Y19177196D01*
X9566251Y19177194D01*
X9566251Y19177192D01*
X9547618Y19047600D01*
X9566251Y18918008D01*
X9566251Y18918007D01*
X9566252Y18918005D01*
X9566252Y18918003D01*
X9620637Y18798918D01*
X9620640Y18798913D01*
X9646762Y18768767D01*
X9706376Y18699969D01*
X9706378Y18699968D01*
X9706379Y18699967D01*
X9816516Y18629186D01*
X9905882Y18602946D01*
X9942138Y18592300D01*
X9942141Y18592300D01*
X10073059Y18592300D01*
X10073062Y18592300D01*
X10159715Y18617744D01*
X10211050Y18614482D01*
X10248279Y18578984D01*
X10256100Y18545590D01*
X10256100Y17319936D01*
X10238507Y17271598D01*
X10202086Y17247782D01*
X10113263Y17221702D01*
X10003126Y17150921D01*
X9999060Y17147397D01*
X9998030Y17148586D01*
X9959005Y17126880D01*
X9908496Y17136622D01*
X9904002Y17139536D01*
X9890793Y17148785D01*
X9890790Y17148786D01*
X9861594Y17159413D01*
X9822189Y17192478D01*
X9813258Y17243137D01*
X9837447Y17286364D01*
X9896324Y17338523D01*
X9987496Y17470609D01*
X10044408Y17620675D01*
X10063754Y17780000D01*
X10044408Y17939325D01*
X9987496Y18089391D01*
X9896324Y18221477D01*
X9896320Y18221481D01*
X9896315Y18221486D01*
X9776194Y18327903D01*
X9776188Y18327907D01*
X9634083Y18402490D01*
X9634081Y18402491D01*
X9582135Y18415294D01*
X9478248Y18440900D01*
X9317752Y18440900D01*
X9239836Y18421696D01*
X9161918Y18402491D01*
X9161916Y18402490D01*
X9019811Y18327907D01*
X9019805Y18327903D01*
X8899684Y18221486D01*
X8899672Y18221473D01*
X8808507Y18089397D01*
X8808502Y18089389D01*
X8751593Y17939329D01*
X8751592Y17939327D01*
X8751592Y17939325D01*
X8732246Y17780000D01*
X8743671Y17685905D01*
X8750231Y17631887D01*
X8738592Y17581781D01*
X8697469Y17550878D01*
X8675579Y17547622D01*
X8651319Y17547622D01*
X8525700Y17510737D01*
X8415563Y17439956D01*
X8329824Y17341010D01*
X8329821Y17341005D01*
X8275436Y17221920D01*
X8275436Y17221918D01*
X8275435Y17221916D01*
X8275435Y17221914D01*
X8256802Y17092322D01*
X8275435Y16962730D01*
X8275435Y16962729D01*
X8275436Y16962727D01*
X8275436Y16962725D01*
X8329821Y16843640D01*
X8329824Y16843635D01*
X8361247Y16807371D01*
X8415560Y16744691D01*
X8415562Y16744690D01*
X8415563Y16744689D01*
X8525700Y16673908D01*
X8615066Y16647668D01*
X8651322Y16637022D01*
X8651325Y16637022D01*
X8782243Y16637022D01*
X8782246Y16637022D01*
X8907867Y16673908D01*
X9018008Y16744691D01*
X9103745Y16843637D01*
X9158133Y16962730D01*
X9173494Y17069566D01*
X9197786Y17114904D01*
X9245541Y17134022D01*
X9265921Y17131876D01*
X9317752Y17119100D01*
X9317754Y17119100D01*
X9440738Y17119100D01*
X9489076Y17101507D01*
X9514796Y17056958D01*
X9511403Y17018183D01*
X9508279Y17009599D01*
X9503621Y16996803D01*
X9494100Y16942805D01*
X9494100Y15976100D01*
X9476507Y15927762D01*
X9431958Y15902042D01*
X9418900Y15900900D01*
X9317752Y15900900D01*
X9239836Y15881696D01*
X9161918Y15862491D01*
X9161916Y15862490D01*
X9019811Y15787907D01*
X9019805Y15787903D01*
X8899684Y15681486D01*
X8899672Y15681473D01*
X8808507Y15549397D01*
X8808502Y15549389D01*
X8751593Y15399329D01*
X8751592Y15399327D01*
X8751592Y15399325D01*
X8732246Y15240000D01*
X8751592Y15080675D01*
X8751592Y15080673D01*
X8751593Y15080672D01*
X8808502Y14930612D01*
X8808507Y14930604D01*
X8899672Y14798528D01*
X8899674Y14798526D01*
X8899676Y14798523D01*
X8899679Y14798521D01*
X8899684Y14798515D01*
X9019805Y14692098D01*
X9019807Y14692097D01*
X9019809Y14692095D01*
X9161920Y14617509D01*
X9317752Y14579100D01*
X9317754Y14579100D01*
X9478246Y14579100D01*
X9478248Y14579100D01*
X9634080Y14617509D01*
X9742171Y14674241D01*
X9793147Y14681126D01*
X9836624Y14653633D01*
X9850258Y14621418D01*
X9850337Y14621441D01*
X9850536Y14620762D01*
X9851552Y14618362D01*
X9851850Y14616285D01*
X9851852Y14616279D01*
X9906237Y14497194D01*
X9906240Y14497189D01*
X9934726Y14464315D01*
X9991976Y14398245D01*
X9991978Y14398244D01*
X9991979Y14398243D01*
X10102116Y14327462D01*
X10191482Y14301222D01*
X10227738Y14290576D01*
X10227741Y14290576D01*
X10364041Y14290576D01*
X10364041Y14289031D01*
X10407822Y14279872D01*
X10438425Y14242811D01*
X10440659Y14236962D01*
X10440660Y14236960D01*
X10468830Y14189912D01*
X10494153Y14160688D01*
X10505725Y14142682D01*
X10532267Y14084565D01*
X10538297Y14064028D01*
X10547392Y14000777D01*
X10547392Y13979371D01*
X10538298Y13916127D01*
X10532269Y13895592D01*
X10505724Y13837468D01*
X10494155Y13819465D01*
X10439191Y13756031D01*
X10424348Y13735872D01*
X10411828Y13715693D01*
X10411826Y13715689D01*
X10406256Y13697770D01*
X10375105Y13656835D01*
X10334447Y13644896D01*
X10212535Y13644896D01*
X10086916Y13608011D01*
X9976779Y13537230D01*
X9891040Y13438284D01*
X9891037Y13438279D01*
X9836649Y13319187D01*
X9836291Y13317966D01*
X9835767Y13317255D01*
X9834416Y13314296D01*
X9833796Y13314579D01*
X9805789Y13276545D01*
X9755798Y13264422D01*
X9729193Y13272572D01*
X9634080Y13322491D01*
X9478248Y13360900D01*
X9317752Y13360900D01*
X9239836Y13341696D01*
X9161918Y13322491D01*
X9161916Y13322490D01*
X9019811Y13247907D01*
X9019805Y13247903D01*
X8899684Y13141486D01*
X8899672Y13141473D01*
X8808507Y13009397D01*
X8808502Y13009389D01*
X8751593Y12859329D01*
X8751592Y12859327D01*
X8751592Y12859325D01*
X8732246Y12700000D01*
X8751592Y12540675D01*
X8751592Y12540673D01*
X8751593Y12540672D01*
X8808502Y12390612D01*
X8808507Y12390604D01*
X8899672Y12258528D01*
X8899674Y12258526D01*
X8899676Y12258523D01*
X8899679Y12258521D01*
X8899684Y12258515D01*
X9019805Y12152098D01*
X9019807Y12152097D01*
X9019809Y12152095D01*
X9161920Y12077509D01*
X9317752Y12039100D01*
X9317754Y12039100D01*
X9478246Y12039100D01*
X9478248Y12039100D01*
X9634080Y12077509D01*
X9634092Y12077516D01*
X9635145Y12077914D01*
X9635755Y12077923D01*
X9638497Y12078598D01*
X9638653Y12077962D01*
X9686580Y12078611D01*
X9726430Y12046083D01*
X9736255Y11996902D01*
X9730462Y11956609D01*
X9728016Y11939600D01*
X9746649Y11810008D01*
X9746649Y11810007D01*
X9746650Y11810005D01*
X9746650Y11810003D01*
X9801035Y11690918D01*
X9801038Y11690913D01*
X9831424Y11655847D01*
X9886774Y11591969D01*
X9886776Y11591968D01*
X9886777Y11591967D01*
X9996914Y11521186D01*
X10047952Y11506200D01*
X10122536Y11484300D01*
X10122539Y11484300D01*
X10180900Y11484300D01*
X10229238Y11466707D01*
X10254958Y11422158D01*
X10256100Y11409100D01*
X10256100Y8709300D01*
X10238507Y8660962D01*
X10193958Y8635242D01*
X10180900Y8634100D01*
X10145335Y8634100D01*
X10019716Y8597215D01*
X9909579Y8526434D01*
X9823840Y8427488D01*
X9823837Y8427483D01*
X9769452Y8308398D01*
X9769450Y8308390D01*
X9766287Y8286393D01*
X9741992Y8241052D01*
X9694237Y8221935D01*
X9656906Y8230511D01*
X9634080Y8242491D01*
X9478248Y8280900D01*
X9317752Y8280900D01*
X9239836Y8261696D01*
X9161918Y8242491D01*
X9161916Y8242490D01*
X9019811Y8167907D01*
X9019805Y8167903D01*
X8899684Y8061486D01*
X8899672Y8061473D01*
X8808507Y7929397D01*
X8808502Y7929389D01*
X8751593Y7779329D01*
X8751592Y7779327D01*
X8751592Y7779325D01*
X8744727Y7722788D01*
X8734113Y7635381D01*
X8710820Y7589516D01*
X8663497Y7569354D01*
X8618805Y7581184D01*
X8522283Y7643215D01*
X8396664Y7680100D01*
X8396662Y7680100D01*
X8265738Y7680100D01*
X8265735Y7680100D01*
X8140116Y7643215D01*
X8029979Y7572434D01*
X7944240Y7473488D01*
X7944237Y7473483D01*
X7889852Y7354398D01*
X7889852Y7354396D01*
X7889851Y7354394D01*
X7889851Y7354392D01*
X7871218Y7224800D01*
X7889851Y7095208D01*
X7889851Y7095207D01*
X7889852Y7095205D01*
X7889852Y7095203D01*
X7944237Y6976118D01*
X7944240Y6976113D01*
X7975663Y6939849D01*
X8029976Y6877169D01*
X8029978Y6877168D01*
X8029979Y6877167D01*
X8140116Y6806386D01*
X8229482Y6780146D01*
X8265738Y6769500D01*
X8265741Y6769500D01*
X8396659Y6769500D01*
X8396662Y6769500D01*
X8522283Y6806386D01*
X8632424Y6877169D01*
X8718161Y6976115D01*
X8770833Y7091450D01*
X8772547Y7095203D01*
X8772548Y7095205D01*
X8772548Y7095207D01*
X8772549Y7095208D01*
X8777680Y7130896D01*
X8801973Y7176235D01*
X8849727Y7195354D01*
X8898599Y7179304D01*
X8901980Y7176480D01*
X9019805Y7072098D01*
X9019807Y7072097D01*
X9019809Y7072095D01*
X9161920Y6997509D01*
X9317752Y6959100D01*
X9317754Y6959100D01*
X9478246Y6959100D01*
X9478248Y6959100D01*
X9634080Y6997509D01*
X9776191Y7072095D01*
X9896324Y7178523D01*
X9987496Y7310609D01*
X10044408Y7460675D01*
X10063754Y7620000D01*
X10061349Y7639804D01*
X10072986Y7689909D01*
X10114108Y7720813D01*
X10139960Y7722788D01*
X10139960Y7723500D01*
X10145338Y7723500D01*
X10180900Y7723500D01*
X10229238Y7705907D01*
X10254958Y7661358D01*
X10256100Y7648300D01*
X10256100Y6739300D01*
X10238507Y6690962D01*
X10193958Y6665242D01*
X10180900Y6664100D01*
X10092135Y6664100D01*
X9966516Y6627215D01*
X9856379Y6556434D01*
X9770640Y6457488D01*
X9770637Y6457483D01*
X9716252Y6338398D01*
X9716252Y6338396D01*
X9716251Y6338394D01*
X9716251Y6338392D01*
X9697618Y6208800D01*
X9716251Y6079208D01*
X9716251Y6079207D01*
X9716252Y6079205D01*
X9716252Y6079203D01*
X9770637Y5960118D01*
X9770640Y5960113D01*
X9802063Y5923849D01*
X9856376Y5861169D01*
X9856378Y5861168D01*
X9856379Y5861167D01*
X9966516Y5790386D01*
X10055882Y5764146D01*
X10092138Y5753500D01*
X10092141Y5753500D01*
X10180900Y5753500D01*
X10229238Y5735907D01*
X10254958Y5691358D01*
X10256100Y5678300D01*
X10256100Y3668469D01*
X10238507Y3620131D01*
X10193958Y3594411D01*
X10180900Y3593269D01*
X10086497Y3593269D01*
X9960878Y3556384D01*
X9850741Y3485603D01*
X9765002Y3386657D01*
X9764999Y3386652D01*
X9710614Y3267567D01*
X9710612Y3267559D01*
X9705219Y3230051D01*
X9680925Y3184709D01*
X9633170Y3165592D01*
X9612789Y3167739D01*
X9566480Y3179153D01*
X9478248Y3200900D01*
X9317752Y3200900D01*
X9239836Y3181696D01*
X9161918Y3162491D01*
X9161916Y3162490D01*
X9019811Y3087907D01*
X9019805Y3087903D01*
X8899684Y2981486D01*
X8899672Y2981473D01*
X8808507Y2849397D01*
X8808502Y2849389D01*
X8751593Y2699329D01*
X8751592Y2699327D01*
X8751592Y2699325D01*
X8732246Y2540000D01*
X8751592Y2380675D01*
X8751592Y2380673D01*
X8751593Y2380672D01*
X8808502Y2230612D01*
X8808507Y2230604D01*
X8899672Y2098528D01*
X8899674Y2098526D01*
X8899676Y2098523D01*
X8899679Y2098521D01*
X8899684Y2098515D01*
X9019805Y1992098D01*
X9019807Y1992097D01*
X9019809Y1992095D01*
X9161920Y1917509D01*
X9317752Y1879100D01*
X9317754Y1879100D01*
X9478246Y1879100D01*
X9478248Y1879100D01*
X9634080Y1917509D01*
X9776191Y1992095D01*
X9896324Y2098523D01*
X9987496Y2230609D01*
X10044408Y2380675D01*
X10063754Y2540000D01*
X10056661Y2598404D01*
X10068301Y2648510D01*
X10109424Y2679413D01*
X10131314Y2682669D01*
X10180899Y2682669D01*
X10229237Y2665076D01*
X10254957Y2620527D01*
X10256099Y2607469D01*
X10256099Y1728979D01*
X10238506Y1680641D01*
X10237735Y1679738D01*
X10230243Y1671091D01*
X10230238Y1671084D01*
X10175851Y1551995D01*
X10157218Y1422401D01*
X10157218Y1422400D01*
X10175851Y1292808D01*
X10175851Y1292807D01*
X10175852Y1292805D01*
X10175852Y1292803D01*
X10230237Y1173718D01*
X10230238Y1173717D01*
X10230239Y1173715D01*
X10237732Y1165068D01*
X10256090Y1117016D01*
X10256099Y1115823D01*
X10256099Y1086211D01*
X10238506Y1037873D01*
X10193957Y1012153D01*
X10159713Y1014057D01*
X10073064Y1039500D01*
X10073062Y1039500D01*
X9942138Y1039500D01*
X9942135Y1039500D01*
X9816516Y1002615D01*
X9706379Y931834D01*
X9620640Y832888D01*
X9620637Y832883D01*
X9566252Y713798D01*
X9566252Y713796D01*
X9566251Y713794D01*
X9566251Y713792D01*
X9547618Y584200D01*
X9566251Y454608D01*
X9566251Y454607D01*
X9566252Y454605D01*
X9566252Y454603D01*
X9609256Y360439D01*
X9613333Y309161D01*
X9583495Y267260D01*
X9540852Y254000D01*
X3400446Y254000D01*
X3352108Y271593D01*
X3326388Y316142D01*
X3332042Y360439D01*
X3375045Y454603D01*
X3375045Y454604D01*
X3375047Y454608D01*
X3393680Y584200D01*
X3375047Y713792D01*
X3375045Y713797D01*
X3375045Y713798D01*
X3320660Y832883D01*
X3320657Y832888D01*
X3294956Y862548D01*
X3234922Y931831D01*
X3234918Y931834D01*
X3124781Y1002615D01*
X2999162Y1039500D01*
X2999160Y1039500D01*
X2868236Y1039500D01*
X2868233Y1039500D01*
X2742614Y1002615D01*
X2632477Y931834D01*
X2546738Y832888D01*
X2546735Y832883D01*
X2492350Y713798D01*
X2492350Y713796D01*
X2492349Y713794D01*
X2492349Y713792D01*
X2473716Y584200D01*
X2492349Y454608D01*
X2492349Y454607D01*
X2492350Y454605D01*
X2492350Y454603D01*
X2535354Y360439D01*
X2539431Y309161D01*
X2509593Y267260D01*
X2466950Y254000D01*
X329200Y254000D01*
X280862Y271593D01*
X255142Y316142D01*
X254000Y329200D01*
X254000Y1409600D01*
X3758018Y1409600D01*
X3776651Y1280008D01*
X3776651Y1280007D01*
X3776652Y1280005D01*
X3776652Y1280003D01*
X3831037Y1160918D01*
X3831040Y1160913D01*
X3862463Y1124649D01*
X3916776Y1061969D01*
X3916778Y1061968D01*
X3916779Y1061967D01*
X4026916Y991186D01*
X4113662Y965715D01*
X4152538Y954300D01*
X4152541Y954300D01*
X4283459Y954300D01*
X4283462Y954300D01*
X4409083Y991186D01*
X4519224Y1061969D01*
X4604961Y1160915D01*
X4659349Y1280008D01*
X4666373Y1328857D01*
X5398761Y1328857D01*
X5417394Y1199265D01*
X5417394Y1199264D01*
X5417395Y1199262D01*
X5417395Y1199260D01*
X5471780Y1080175D01*
X5471783Y1080170D01*
X5496220Y1051969D01*
X5557519Y981226D01*
X5557521Y981225D01*
X5557522Y981224D01*
X5667659Y910443D01*
X5757025Y884203D01*
X5793281Y873557D01*
X5793284Y873557D01*
X5924202Y873557D01*
X5924205Y873557D01*
X6049826Y910443D01*
X6159967Y981226D01*
X6245704Y1080172D01*
X6290645Y1178580D01*
X6326728Y1215240D01*
X6377935Y1220130D01*
X6380200Y1219504D01*
X6492893Y1186414D01*
X6492896Y1186414D01*
X6623814Y1186414D01*
X6623817Y1186414D01*
X6749438Y1223300D01*
X6799000Y1255152D01*
X6849174Y1266484D01*
X6894896Y1242913D01*
X6908059Y1223129D01*
X6941038Y1150916D01*
X6941040Y1150913D01*
X6970413Y1117016D01*
X7026776Y1051969D01*
X7026778Y1051968D01*
X7026779Y1051967D01*
X7136916Y981186D01*
X7226282Y954946D01*
X7262538Y944300D01*
X7262541Y944300D01*
X7393459Y944300D01*
X7393462Y944300D01*
X7519083Y981186D01*
X7629224Y1051969D01*
X7714961Y1150915D01*
X7769349Y1270008D01*
X7787982Y1399600D01*
X7769349Y1529192D01*
X7769347Y1529197D01*
X7769347Y1529198D01*
X7714962Y1648283D01*
X7714959Y1648288D01*
X7669343Y1700931D01*
X7629224Y1747231D01*
X7629220Y1747234D01*
X7519083Y1818015D01*
X7393464Y1854900D01*
X7393462Y1854900D01*
X7262538Y1854900D01*
X7262535Y1854900D01*
X7136917Y1818015D01*
X7087354Y1786163D01*
X7037178Y1774831D01*
X6991457Y1798403D01*
X6978295Y1818187D01*
X6945317Y1890397D01*
X6945314Y1890402D01*
X6912306Y1928495D01*
X6859579Y1989345D01*
X6859575Y1989348D01*
X6749438Y2060129D01*
X6623819Y2097014D01*
X6623817Y2097014D01*
X6492893Y2097014D01*
X6492890Y2097014D01*
X6367271Y2060129D01*
X6257134Y1989348D01*
X6171395Y1890402D01*
X6171392Y1890397D01*
X6126453Y1791993D01*
X6090370Y1755332D01*
X6039163Y1750442D01*
X6036863Y1751078D01*
X5924207Y1784157D01*
X5924205Y1784157D01*
X5793281Y1784157D01*
X5793278Y1784157D01*
X5667659Y1747272D01*
X5557522Y1676491D01*
X5557519Y1676489D01*
X5557519Y1676488D01*
X5541749Y1658288D01*
X5471783Y1577545D01*
X5471780Y1577540D01*
X5417395Y1458455D01*
X5417395Y1458453D01*
X5417394Y1458451D01*
X5417394Y1458449D01*
X5398761Y1328857D01*
X4666373Y1328857D01*
X4677982Y1409600D01*
X4659349Y1539192D01*
X4659347Y1539197D01*
X4659347Y1539198D01*
X4604962Y1658283D01*
X4604959Y1658288D01*
X4568008Y1700931D01*
X4519224Y1757231D01*
X4519220Y1757234D01*
X4409083Y1828015D01*
X4283464Y1864900D01*
X4283462Y1864900D01*
X4152538Y1864900D01*
X4152535Y1864900D01*
X4026916Y1828015D01*
X3916779Y1757234D01*
X3916776Y1757232D01*
X3916776Y1757231D01*
X3908146Y1747271D01*
X3831040Y1658288D01*
X3831037Y1658283D01*
X3776652Y1539198D01*
X3776652Y1539196D01*
X3776651Y1539194D01*
X3776651Y1539192D01*
X3758018Y1409600D01*
X254000Y1409600D01*
X254000Y2540000D01*
X1112246Y2540000D01*
X1131592Y2380675D01*
X1131592Y2380673D01*
X1131593Y2380672D01*
X1188502Y2230612D01*
X1188507Y2230604D01*
X1279672Y2098528D01*
X1279674Y2098526D01*
X1279676Y2098523D01*
X1279679Y2098521D01*
X1279684Y2098515D01*
X1399805Y1992098D01*
X1399807Y1992097D01*
X1399809Y1992095D01*
X1541920Y1917509D01*
X1697752Y1879100D01*
X1697754Y1879100D01*
X1858246Y1879100D01*
X1858248Y1879100D01*
X2014080Y1917509D01*
X2021886Y1921607D01*
X2072861Y1928495D01*
X2116339Y1901005D01*
X2131270Y1865726D01*
X2144280Y1775244D01*
X2144280Y1775243D01*
X2144281Y1775241D01*
X2144281Y1775239D01*
X2198666Y1656154D01*
X2198669Y1656149D01*
X2230092Y1619886D01*
X2284405Y1557205D01*
X2284407Y1557204D01*
X2284408Y1557203D01*
X2394545Y1486422D01*
X2483911Y1460182D01*
X2520167Y1449536D01*
X2520170Y1449536D01*
X2651088Y1449536D01*
X2651091Y1449536D01*
X2776712Y1486422D01*
X2886853Y1557205D01*
X2972590Y1656151D01*
X3015942Y1751078D01*
X3026976Y1775239D01*
X3026976Y1775240D01*
X3026978Y1775244D01*
X3045611Y1904836D01*
X3026978Y2034428D01*
X3026976Y2034433D01*
X3026976Y2034434D01*
X2972591Y2153519D01*
X2972588Y2153524D01*
X2946887Y2183184D01*
X2886853Y2252467D01*
X2886849Y2252470D01*
X2776712Y2323251D01*
X2651093Y2360136D01*
X2651091Y2360136D01*
X2520167Y2360136D01*
X2520164Y2360136D01*
X2517353Y2359732D01*
X2515423Y2360136D01*
X2514789Y2360136D01*
X2514789Y2360269D01*
X2467004Y2370270D01*
X2435208Y2410706D01*
X2432003Y2443228D01*
X2443754Y2540000D01*
X2424408Y2699325D01*
X2367496Y2849391D01*
X2276324Y2981477D01*
X2276320Y2981481D01*
X2276315Y2981486D01*
X2156194Y3087903D01*
X2156188Y3087907D01*
X2014083Y3162490D01*
X2014081Y3162491D01*
X1962136Y3175294D01*
X1858248Y3200900D01*
X1697752Y3200900D01*
X1619835Y3181696D01*
X1541918Y3162491D01*
X1541916Y3162490D01*
X1399811Y3087907D01*
X1399805Y3087903D01*
X1279684Y2981486D01*
X1279672Y2981473D01*
X1188507Y2849397D01*
X1188502Y2849389D01*
X1131593Y2699329D01*
X1131592Y2699327D01*
X1131592Y2699325D01*
X1112246Y2540000D01*
X254000Y2540000D01*
X254000Y4084900D01*
X271593Y4133238D01*
X316142Y4158958D01*
X329200Y4160100D01*
X1502632Y4160100D01*
X1502634Y4160100D01*
X1502638Y4160101D01*
X1502642Y4160101D01*
X1546562Y4166333D01*
X1586764Y4177978D01*
X1586763Y4177978D01*
X1602762Y4183559D01*
X1602765Y4183562D01*
X1602768Y4183563D01*
X1667771Y4233096D01*
X1667771Y4233097D01*
X1667773Y4233098D01*
X1699224Y4273802D01*
X1699230Y4273811D01*
X1699231Y4273812D01*
X1710169Y4290856D01*
X1714090Y4296965D01*
X1714090Y4296968D01*
X1716321Y4300443D01*
X1757235Y4331622D01*
X1808618Y4329208D01*
X1844735Y4297428D01*
X1868282Y4256644D01*
X1868282Y4256643D01*
X1884071Y4234096D01*
X1951022Y4187217D01*
X1951023Y4187217D01*
X1951025Y4187215D01*
X1999363Y4169622D01*
X2053361Y4160101D01*
X2053362Y4160100D01*
X2053366Y4160100D01*
X4246243Y4160100D01*
X4246244Y4160100D01*
X4253126Y4160400D01*
X4269615Y4161842D01*
X4334807Y4182396D01*
X4363050Y4198703D01*
X4379357Y4208116D01*
X4388642Y4214620D01*
X4401904Y4223905D01*
X4448785Y4290859D01*
X4466378Y4339197D01*
X4475899Y4393196D01*
X4475900Y4393196D01*
X4475900Y4419450D01*
X4493493Y4467788D01*
X4494268Y4468696D01*
X4505461Y4481613D01*
X4559849Y4600706D01*
X4578482Y4730298D01*
X4559849Y4859890D01*
X4505461Y4978983D01*
X4494265Y4991904D01*
X4475909Y5039956D01*
X4475900Y5041147D01*
X4475900Y5080000D01*
X8732246Y5080000D01*
X8751592Y4920675D01*
X8751592Y4920673D01*
X8751593Y4920672D01*
X8808502Y4770612D01*
X8808507Y4770604D01*
X8899672Y4638528D01*
X8899674Y4638526D01*
X8899676Y4638523D01*
X8899679Y4638521D01*
X8899684Y4638515D01*
X9019805Y4532098D01*
X9019807Y4532097D01*
X9019809Y4532095D01*
X9161920Y4457509D01*
X9317752Y4419100D01*
X9317754Y4419100D01*
X9478246Y4419100D01*
X9478248Y4419100D01*
X9634080Y4457509D01*
X9776191Y4532095D01*
X9896324Y4638523D01*
X9987496Y4770609D01*
X10044408Y4920675D01*
X10063754Y5080000D01*
X10044408Y5239325D01*
X9987496Y5389391D01*
X9896324Y5521477D01*
X9896320Y5521481D01*
X9896315Y5521486D01*
X9776194Y5627903D01*
X9776188Y5627907D01*
X9634083Y5702490D01*
X9634081Y5702491D01*
X9582135Y5715294D01*
X9478248Y5740900D01*
X9317752Y5740900D01*
X9239836Y5721696D01*
X9161918Y5702491D01*
X9161916Y5702490D01*
X9019811Y5627907D01*
X9019805Y5627903D01*
X8899684Y5521486D01*
X8899672Y5521473D01*
X8808507Y5389397D01*
X8808502Y5389389D01*
X8751593Y5239329D01*
X8751592Y5239327D01*
X8751592Y5239325D01*
X8732246Y5080000D01*
X4475900Y5080000D01*
X4475900Y7043112D01*
X4493493Y7091450D01*
X4494201Y7092281D01*
X4535739Y7140217D01*
X4590127Y7259310D01*
X4608760Y7388902D01*
X4590127Y7518494D01*
X4561855Y7580400D01*
X5890018Y7580400D01*
X5908651Y7450808D01*
X5908651Y7450807D01*
X5908652Y7450805D01*
X5908652Y7450803D01*
X5963037Y7331718D01*
X5963040Y7331713D01*
X5994463Y7295450D01*
X6048776Y7232769D01*
X6048778Y7232768D01*
X6048779Y7232767D01*
X6158916Y7161986D01*
X6233044Y7140220D01*
X6284538Y7125100D01*
X6284541Y7125100D01*
X6415459Y7125100D01*
X6415462Y7125100D01*
X6541083Y7161986D01*
X6651224Y7232769D01*
X6736961Y7331715D01*
X6791349Y7450808D01*
X6809982Y7580400D01*
X6791349Y7709992D01*
X6791347Y7709997D01*
X6791347Y7709998D01*
X6736962Y7829083D01*
X6736959Y7829088D01*
X6711258Y7858748D01*
X6651224Y7928031D01*
X6651220Y7928034D01*
X6541083Y7998815D01*
X6415464Y8035700D01*
X6415462Y8035700D01*
X6284538Y8035700D01*
X6284535Y8035700D01*
X6158916Y7998815D01*
X6048779Y7928034D01*
X5963040Y7829088D01*
X5963037Y7829083D01*
X5908652Y7709998D01*
X5908652Y7709996D01*
X5908651Y7709994D01*
X5908651Y7709992D01*
X5890018Y7580400D01*
X4561855Y7580400D01*
X4535739Y7637587D01*
X4494266Y7685450D01*
X4475908Y7733501D01*
X4475900Y7734562D01*
X4475900Y8056244D01*
X4475600Y8063126D01*
X4474158Y8079615D01*
X4453604Y8144807D01*
X4440269Y8167905D01*
X4427884Y8189357D01*
X4414427Y8208574D01*
X4412095Y8211904D01*
X4397769Y8221935D01*
X4345143Y8258784D01*
X4345144Y8258784D01*
X4296802Y8276379D01*
X4242804Y8285900D01*
X4242800Y8285900D01*
X2370506Y8285900D01*
X2370504Y8285900D01*
X2361276Y8285529D01*
X2301865Y8271307D01*
X2301863Y8271306D01*
X2255104Y8249882D01*
X2231176Y8236282D01*
X2206792Y8207615D01*
X2162072Y8182195D01*
X2114565Y8189753D01*
X2014083Y8242490D01*
X2014081Y8242491D01*
X1947972Y8258785D01*
X1858248Y8280900D01*
X1697752Y8280900D01*
X1619835Y8261696D01*
X1541918Y8242491D01*
X1541916Y8242490D01*
X1445682Y8191982D01*
X1394705Y8185096D01*
X1357579Y8208574D01*
X1356259Y8207253D01*
X1351609Y8211903D01*
X1284655Y8258784D01*
X1284656Y8258784D01*
X1236314Y8276379D01*
X1182316Y8285900D01*
X1182312Y8285900D01*
X995100Y8285900D01*
X946762Y8303493D01*
X921042Y8348042D01*
X919900Y8361100D01*
X919900Y10160000D01*
X1112246Y10160000D01*
X1131592Y10000675D01*
X1131592Y10000673D01*
X1131593Y10000672D01*
X1188502Y9850612D01*
X1188507Y9850604D01*
X1279672Y9718528D01*
X1279674Y9718526D01*
X1279676Y9718523D01*
X1279679Y9718521D01*
X1279684Y9718515D01*
X1399805Y9612098D01*
X1399811Y9612094D01*
X1537158Y9540008D01*
X1541920Y9537509D01*
X1697752Y9499100D01*
X1697754Y9499100D01*
X1858246Y9499100D01*
X1858248Y9499100D01*
X2014080Y9537509D01*
X2156191Y9612095D01*
X2276324Y9718523D01*
X2367496Y9850609D01*
X2424408Y10000675D01*
X2443754Y10160000D01*
X2424408Y10319325D01*
X2367496Y10469391D01*
X2309166Y10553897D01*
X5100218Y10553897D01*
X5118851Y10424305D01*
X5118851Y10424304D01*
X5118852Y10424302D01*
X5118852Y10424300D01*
X5173237Y10305215D01*
X5173240Y10305210D01*
X5204663Y10268947D01*
X5258976Y10206266D01*
X5258978Y10206265D01*
X5258979Y10206264D01*
X5311505Y10172507D01*
X5342658Y10131574D01*
X5340210Y10080192D01*
X5311505Y10045983D01*
X5266771Y10017235D01*
X5181032Y9918288D01*
X5181029Y9918283D01*
X5126644Y9799198D01*
X5126644Y9799196D01*
X5126643Y9799194D01*
X5126643Y9799192D01*
X5108010Y9669600D01*
X5126643Y9540008D01*
X5126643Y9540007D01*
X5126644Y9540005D01*
X5126644Y9540003D01*
X5181029Y9420918D01*
X5181032Y9420913D01*
X5212455Y9384649D01*
X5266768Y9321969D01*
X5266770Y9321968D01*
X5266771Y9321967D01*
X5376908Y9251186D01*
X5466274Y9224946D01*
X5502530Y9214300D01*
X5502533Y9214300D01*
X5633451Y9214300D01*
X5633454Y9214300D01*
X5759075Y9251186D01*
X5869216Y9321969D01*
X5954953Y9420915D01*
X6009341Y9540008D01*
X6027974Y9669600D01*
X6009341Y9799192D01*
X6009339Y9799197D01*
X6009339Y9799198D01*
X5954954Y9918283D01*
X5954951Y9918288D01*
X5883564Y10000672D01*
X5869216Y10017231D01*
X5869214Y10017232D01*
X5869212Y10017235D01*
X5816686Y10050991D01*
X5785533Y10091925D01*
X5787981Y10143306D01*
X5801989Y10160000D01*
X8732246Y10160000D01*
X8751592Y10000675D01*
X8751592Y10000673D01*
X8751593Y10000672D01*
X8808502Y9850612D01*
X8808507Y9850604D01*
X8899672Y9718528D01*
X8899674Y9718526D01*
X8899676Y9718523D01*
X8899679Y9718521D01*
X8899684Y9718515D01*
X9019805Y9612098D01*
X9019811Y9612094D01*
X9157158Y9540008D01*
X9161920Y9537509D01*
X9317752Y9499100D01*
X9317754Y9499100D01*
X9478246Y9499100D01*
X9478248Y9499100D01*
X9634080Y9537509D01*
X9776191Y9612095D01*
X9896324Y9718523D01*
X9987496Y9850609D01*
X10044408Y10000675D01*
X10063754Y10160000D01*
X10044408Y10319325D01*
X9987496Y10469391D01*
X9896324Y10601477D01*
X9896320Y10601481D01*
X9896315Y10601486D01*
X9776194Y10707903D01*
X9776188Y10707907D01*
X9634083Y10782490D01*
X9634081Y10782491D01*
X9552555Y10802585D01*
X9478248Y10820900D01*
X9317752Y10820900D01*
X9243445Y10802585D01*
X9161918Y10782491D01*
X9161916Y10782490D01*
X9019811Y10707907D01*
X9019805Y10707903D01*
X8899684Y10601486D01*
X8899672Y10601473D01*
X8808507Y10469397D01*
X8808502Y10469389D01*
X8751593Y10319329D01*
X8751592Y10319327D01*
X8751592Y10319325D01*
X8732246Y10160000D01*
X5801989Y10160000D01*
X5816685Y10177515D01*
X5861424Y10206266D01*
X5947161Y10305212D01*
X6001549Y10424305D01*
X6020182Y10553897D01*
X6001549Y10683489D01*
X6001547Y10683494D01*
X6001547Y10683495D01*
X5947162Y10802580D01*
X5947159Y10802585D01*
X5921458Y10832245D01*
X5861424Y10901528D01*
X5861420Y10901531D01*
X5751283Y10972312D01*
X5625664Y11009197D01*
X5625662Y11009197D01*
X5494738Y11009197D01*
X5494735Y11009197D01*
X5369116Y10972312D01*
X5258979Y10901531D01*
X5173240Y10802585D01*
X5173237Y10802580D01*
X5118852Y10683495D01*
X5118852Y10683493D01*
X5118851Y10683491D01*
X5118851Y10683489D01*
X5100218Y10553897D01*
X2309166Y10553897D01*
X2276324Y10601477D01*
X2276320Y10601481D01*
X2276315Y10601486D01*
X2156194Y10707903D01*
X2156188Y10707907D01*
X2014083Y10782490D01*
X2014081Y10782491D01*
X1932555Y10802585D01*
X1858248Y10820900D01*
X1697752Y10820900D01*
X1623445Y10802585D01*
X1541918Y10782491D01*
X1541916Y10782490D01*
X1399811Y10707907D01*
X1399805Y10707903D01*
X1279684Y10601486D01*
X1279672Y10601473D01*
X1188507Y10469397D01*
X1188502Y10469389D01*
X1131593Y10319329D01*
X1131592Y10319327D01*
X1131592Y10319325D01*
X1112246Y10160000D01*
X919900Y10160000D01*
X919900Y10996376D01*
X937493Y11044714D01*
X982042Y11070434D01*
X999459Y11070710D01*
X999459Y11070949D01*
X1135759Y11070949D01*
X1135762Y11070949D01*
X1261383Y11107835D01*
X1371524Y11178618D01*
X1457261Y11277564D01*
X1511649Y11396657D01*
X1527399Y11506200D01*
X2105418Y11506200D01*
X2124051Y11376608D01*
X2124051Y11376607D01*
X2124052Y11376605D01*
X2124052Y11376603D01*
X2178437Y11257518D01*
X2178440Y11257513D01*
X2209863Y11221249D01*
X2264176Y11158569D01*
X2264178Y11158568D01*
X2264179Y11158567D01*
X2374316Y11087786D01*
X2431658Y11070949D01*
X2499938Y11050900D01*
X2499941Y11050900D01*
X2630859Y11050900D01*
X2630862Y11050900D01*
X2756483Y11087786D01*
X2866624Y11158569D01*
X2952361Y11257515D01*
X3006749Y11376608D01*
X3025382Y11506200D01*
X3006749Y11635792D01*
X3006747Y11635797D01*
X3006747Y11635798D01*
X2952362Y11754883D01*
X2952359Y11754888D01*
X2904599Y11810005D01*
X2866624Y11853831D01*
X2866620Y11853834D01*
X2756483Y11924615D01*
X2630864Y11961500D01*
X2630862Y11961500D01*
X2499938Y11961500D01*
X2499935Y11961500D01*
X2374316Y11924615D01*
X2264179Y11853834D01*
X2178440Y11754888D01*
X2178437Y11754883D01*
X2124052Y11635798D01*
X2124052Y11635796D01*
X2124051Y11635794D01*
X2124051Y11635792D01*
X2105418Y11506200D01*
X1527399Y11506200D01*
X1530282Y11526249D01*
X1511649Y11655841D01*
X1511647Y11655846D01*
X1511647Y11655847D01*
X1457262Y11774932D01*
X1457259Y11774937D01*
X1431558Y11804597D01*
X1371524Y11873880D01*
X1371520Y11873883D01*
X1261383Y11944664D01*
X1135764Y11981549D01*
X1135762Y11981549D01*
X1004838Y11981549D01*
X999460Y11981549D01*
X999460Y11983012D01*
X955440Y11992231D01*
X923650Y12032672D01*
X919900Y12056123D01*
X919900Y12700000D01*
X1112246Y12700000D01*
X1131592Y12540675D01*
X1131592Y12540673D01*
X1131593Y12540672D01*
X1188502Y12390612D01*
X1188507Y12390604D01*
X1279672Y12258528D01*
X1279674Y12258526D01*
X1279676Y12258523D01*
X1279679Y12258521D01*
X1279684Y12258515D01*
X1399805Y12152098D01*
X1399807Y12152097D01*
X1399809Y12152095D01*
X1541920Y12077509D01*
X1697752Y12039100D01*
X1697754Y12039100D01*
X1858246Y12039100D01*
X1858248Y12039100D01*
X2014080Y12077509D01*
X2156191Y12152095D01*
X2276324Y12258523D01*
X2367496Y12390609D01*
X2424408Y12540675D01*
X2430907Y12594200D01*
X3250079Y12594200D01*
X3268712Y12464608D01*
X3268712Y12464607D01*
X3268713Y12464605D01*
X3268713Y12464603D01*
X3323098Y12345518D01*
X3323101Y12345513D01*
X3344213Y12321149D01*
X3408837Y12246569D01*
X3408839Y12246568D01*
X3408840Y12246567D01*
X3518977Y12175786D01*
X3557506Y12164473D01*
X3644599Y12138900D01*
X3644602Y12138900D01*
X3775520Y12138900D01*
X3775523Y12138900D01*
X3901144Y12175786D01*
X4011285Y12246569D01*
X4097022Y12345515D01*
X4131843Y12421762D01*
X4151408Y12464603D01*
X4151408Y12464604D01*
X4151410Y12464608D01*
X4170043Y12594200D01*
X4169963Y12594755D01*
X5434765Y12594755D01*
X5453398Y12465163D01*
X5453398Y12465162D01*
X5453399Y12465160D01*
X5453399Y12465158D01*
X5507784Y12346073D01*
X5507787Y12346068D01*
X5529380Y12321149D01*
X5593523Y12247124D01*
X5593525Y12247123D01*
X5593526Y12247122D01*
X5703663Y12176341D01*
X5786241Y12152094D01*
X5829285Y12139455D01*
X5829288Y12139455D01*
X5960206Y12139455D01*
X5960209Y12139455D01*
X6085830Y12176341D01*
X6195971Y12247124D01*
X6281708Y12346070D01*
X6321243Y12432641D01*
X6357325Y12469299D01*
X6408532Y12474189D01*
X6410835Y12473553D01*
X6524169Y12440274D01*
X6524172Y12440274D01*
X6655090Y12440274D01*
X6655093Y12440274D01*
X6780714Y12477160D01*
X6780718Y12477164D01*
X6785288Y12479249D01*
X6836566Y12483329D01*
X6878470Y12453494D01*
X6884936Y12442087D01*
X6924113Y12356302D01*
X6924115Y12356299D01*
X6954573Y12321149D01*
X7009851Y12257355D01*
X7009853Y12257354D01*
X7009854Y12257353D01*
X7119991Y12186572D01*
X7209357Y12160332D01*
X7245613Y12149686D01*
X7245616Y12149686D01*
X7376534Y12149686D01*
X7376537Y12149686D01*
X7502158Y12186572D01*
X7612295Y12257352D01*
X7612295Y12257353D01*
X7612299Y12257355D01*
X7635373Y12283985D01*
X7680321Y12308993D01*
X7730832Y12299259D01*
X7749033Y12283987D01*
X7772111Y12257353D01*
X7776779Y12251966D01*
X7886916Y12181186D01*
X7976282Y12154946D01*
X8012538Y12144300D01*
X8012541Y12144300D01*
X8143459Y12144300D01*
X8143462Y12144300D01*
X8269083Y12181186D01*
X8379224Y12251969D01*
X8464961Y12350915D01*
X8505770Y12440274D01*
X8519347Y12470003D01*
X8519347Y12470004D01*
X8519349Y12470008D01*
X8537982Y12599600D01*
X8519349Y12729192D01*
X8519347Y12729197D01*
X8519347Y12729198D01*
X8464962Y12848283D01*
X8464959Y12848288D01*
X8439258Y12877948D01*
X8379224Y12947231D01*
X8379220Y12947234D01*
X8269083Y13018015D01*
X8143464Y13054900D01*
X8143462Y13054900D01*
X8012538Y13054900D01*
X8012535Y13054900D01*
X7886916Y13018015D01*
X7776777Y12947234D01*
X7776775Y12947232D01*
X7753701Y12920603D01*
X7708750Y12895594D01*
X7658240Y12905331D01*
X7640038Y12920604D01*
X7621164Y12942386D01*
X7612299Y12952617D01*
X7612297Y12952618D01*
X7612295Y12952621D01*
X7502158Y13023401D01*
X7376539Y13060286D01*
X7376537Y13060286D01*
X7245613Y13060286D01*
X7245610Y13060286D01*
X7119995Y13023402D01*
X7115414Y13021309D01*
X7064136Y13017232D01*
X7022234Y13047069D01*
X7015769Y13058474D01*
X6976593Y13144257D01*
X6976590Y13144262D01*
X6950889Y13173922D01*
X6890855Y13243205D01*
X6890851Y13243208D01*
X6780714Y13313989D01*
X6655095Y13350874D01*
X6655093Y13350874D01*
X6524169Y13350874D01*
X6524166Y13350874D01*
X6398547Y13313989D01*
X6288410Y13243208D01*
X6202671Y13144262D01*
X6202669Y13144259D01*
X6163135Y13057691D01*
X6127051Y13021031D01*
X6075844Y13016141D01*
X6073545Y13016777D01*
X5960211Y13050055D01*
X5960209Y13050055D01*
X5829285Y13050055D01*
X5829282Y13050055D01*
X5703663Y13013170D01*
X5593526Y12942389D01*
X5507787Y12843443D01*
X5507784Y12843438D01*
X5453399Y12724353D01*
X5453399Y12724351D01*
X5453398Y12724349D01*
X5453398Y12724347D01*
X5434765Y12594755D01*
X4169963Y12594755D01*
X4151410Y12723792D01*
X4151408Y12723797D01*
X4151408Y12723798D01*
X4097023Y12842883D01*
X4097020Y12842888D01*
X4042912Y12905331D01*
X4011285Y12941831D01*
X4011281Y12941834D01*
X3901144Y13012615D01*
X3775525Y13049500D01*
X3775523Y13049500D01*
X3644599Y13049500D01*
X3644596Y13049500D01*
X3518977Y13012615D01*
X3408840Y12941834D01*
X3323101Y12842888D01*
X3323098Y12842883D01*
X3268713Y12723798D01*
X3268713Y12723796D01*
X3268712Y12723794D01*
X3268712Y12723792D01*
X3250079Y12594200D01*
X2430907Y12594200D01*
X2443754Y12700000D01*
X2424408Y12859325D01*
X2367496Y13009391D01*
X2357825Y13023402D01*
X2276327Y13141473D01*
X2276326Y13141475D01*
X2276324Y13141477D01*
X2276320Y13141481D01*
X2276315Y13141486D01*
X2156194Y13247903D01*
X2156188Y13247907D01*
X2014083Y13322490D01*
X2014081Y13322491D01*
X1954216Y13337246D01*
X1858248Y13360900D01*
X1697752Y13360900D01*
X1619835Y13341696D01*
X1541918Y13322491D01*
X1541916Y13322490D01*
X1399811Y13247907D01*
X1399805Y13247903D01*
X1279684Y13141486D01*
X1279672Y13141473D01*
X1188507Y13009397D01*
X1188502Y13009389D01*
X1131593Y12859329D01*
X1131592Y12859327D01*
X1131592Y12859325D01*
X1112246Y12700000D01*
X919900Y12700000D01*
X919900Y13096104D01*
X919887Y13097889D01*
X919886Y13097893D01*
X909493Y13153047D01*
X909492Y13153048D01*
X909492Y13153052D01*
X891133Y13201105D01*
X862981Y13248127D01*
X861046Y13251807D01*
X832649Y13313988D01*
X831406Y13316710D01*
X825376Y13337246D01*
X816281Y13400499D01*
X816280Y13421899D01*
X825375Y13485160D01*
X831403Y13505687D01*
X858824Y13565732D01*
X863033Y13573028D01*
X862822Y13573151D01*
X864516Y13576058D01*
X864518Y13576060D01*
X878078Y13599327D01*
X895626Y13619821D01*
X916336Y13636644D01*
X919710Y13639089D01*
X981294Y13678667D01*
X1000757Y13687554D01*
X1026432Y13695093D01*
X1062065Y13705554D01*
X1083249Y13708600D01*
X1147149Y13708600D01*
X1168333Y13705554D01*
X1194710Y13697810D01*
X1229640Y13687554D01*
X1249104Y13678667D01*
X1303758Y13643543D01*
X1317924Y13631753D01*
X1318044Y13631625D01*
X1328769Y13621067D01*
X1328772Y13621065D01*
X1328774Y13621063D01*
X1385539Y13585215D01*
X1433877Y13567622D01*
X1487875Y13558101D01*
X1487876Y13558100D01*
X1487880Y13558100D01*
X3230243Y13558100D01*
X3230244Y13558100D01*
X3237126Y13558400D01*
X3253615Y13559842D01*
X3318807Y13580396D01*
X3347050Y13596703D01*
X3363357Y13606116D01*
X3372642Y13612620D01*
X3385904Y13621905D01*
X3432785Y13688859D01*
X3450378Y13737197D01*
X3459899Y13791196D01*
X3459900Y13791196D01*
X3459900Y14927961D01*
X3951358Y14927961D01*
X3969991Y14798369D01*
X3969991Y14798368D01*
X3969992Y14798366D01*
X3969992Y14798364D01*
X4024377Y14679279D01*
X4024380Y14679274D01*
X4046599Y14653633D01*
X4110116Y14580330D01*
X4110118Y14580329D01*
X4110119Y14580328D01*
X4220256Y14509547D01*
X4262327Y14497194D01*
X4345878Y14472661D01*
X4345881Y14472661D01*
X4476799Y14472661D01*
X4476802Y14472661D01*
X4602423Y14509547D01*
X4712564Y14580330D01*
X4798301Y14679276D01*
X4813702Y14713000D01*
X7414012Y14713000D01*
X7432645Y14583408D01*
X7432645Y14583407D01*
X7432646Y14583405D01*
X7432646Y14583403D01*
X7487031Y14464318D01*
X7487034Y14464313D01*
X7518457Y14428049D01*
X7572770Y14365369D01*
X7572772Y14365368D01*
X7572773Y14365367D01*
X7682910Y14294586D01*
X7772276Y14268346D01*
X7808532Y14257700D01*
X7808535Y14257700D01*
X7939453Y14257700D01*
X7939456Y14257700D01*
X8065077Y14294586D01*
X8175218Y14365369D01*
X8260955Y14464315D01*
X8313376Y14579100D01*
X8315341Y14583403D01*
X8315341Y14583404D01*
X8315343Y14583408D01*
X8333976Y14713000D01*
X8315343Y14842592D01*
X8315341Y14842597D01*
X8315341Y14842598D01*
X8260956Y14961683D01*
X8260953Y14961688D01*
X8218062Y15011186D01*
X8175218Y15060631D01*
X8175214Y15060634D01*
X8065077Y15131415D01*
X7939458Y15168300D01*
X7939456Y15168300D01*
X7808532Y15168300D01*
X7808529Y15168300D01*
X7682910Y15131415D01*
X7572773Y15060634D01*
X7572770Y15060632D01*
X7572770Y15060631D01*
X7570103Y15057553D01*
X7487034Y14961688D01*
X7487031Y14961683D01*
X7432646Y14842598D01*
X7432646Y14842596D01*
X7432645Y14842594D01*
X7432645Y14842592D01*
X7414012Y14713000D01*
X4813702Y14713000D01*
X4844476Y14780385D01*
X4852687Y14798364D01*
X4852687Y14798365D01*
X4852689Y14798369D01*
X4871322Y14927961D01*
X4852689Y15057553D01*
X4852687Y15057558D01*
X4852687Y15057559D01*
X4798302Y15176644D01*
X4798299Y15176649D01*
X4772598Y15206309D01*
X4712564Y15275592D01*
X4712560Y15275595D01*
X4602423Y15346376D01*
X4476804Y15383261D01*
X4476802Y15383261D01*
X4345878Y15383261D01*
X4345875Y15383261D01*
X4220256Y15346376D01*
X4110119Y15275595D01*
X4024380Y15176649D01*
X4024377Y15176644D01*
X3969992Y15057559D01*
X3969992Y15057557D01*
X3969991Y15057555D01*
X3969991Y15057553D01*
X3951358Y14927961D01*
X3459900Y14927961D01*
X3459900Y15429600D01*
X5422510Y15429600D01*
X5441143Y15300008D01*
X5441143Y15300007D01*
X5441144Y15300005D01*
X5441144Y15300003D01*
X5495529Y15180918D01*
X5495532Y15180913D01*
X5526955Y15144649D01*
X5581268Y15081969D01*
X5581270Y15081968D01*
X5581271Y15081967D01*
X5691408Y15011186D01*
X5780774Y14984946D01*
X5817030Y14974300D01*
X5817033Y14974300D01*
X5947951Y14974300D01*
X5947954Y14974300D01*
X6073575Y15011186D01*
X6183716Y15081969D01*
X6269453Y15180915D01*
X6323841Y15300008D01*
X6342474Y15429600D01*
X6323841Y15559192D01*
X6323839Y15559197D01*
X6323839Y15559198D01*
X6269454Y15678283D01*
X6269451Y15678288D01*
X6243750Y15707948D01*
X6183716Y15777231D01*
X6183712Y15777234D01*
X6073575Y15848015D01*
X5947956Y15884900D01*
X5947954Y15884900D01*
X5817030Y15884900D01*
X5817027Y15884900D01*
X5691408Y15848015D01*
X5581271Y15777234D01*
X5495532Y15678288D01*
X5495529Y15678283D01*
X5441144Y15559198D01*
X5441144Y15559196D01*
X5441143Y15559194D01*
X5441143Y15559192D01*
X5422510Y15429600D01*
X3459900Y15429600D01*
X3459900Y17546900D01*
X3477493Y17595238D01*
X3522042Y17620958D01*
X3535100Y17622100D01*
X5529417Y17622100D01*
X5577755Y17604507D01*
X5603475Y17559958D01*
X5594542Y17509300D01*
X5555137Y17476235D01*
X5550603Y17474746D01*
X5500560Y17460053D01*
X5390423Y17389272D01*
X5304684Y17290326D01*
X5304681Y17290321D01*
X5250296Y17171236D01*
X5250296Y17171234D01*
X5250295Y17171232D01*
X5250295Y17171230D01*
X5231662Y17041638D01*
X5250295Y16912046D01*
X5250295Y16912045D01*
X5250296Y16912043D01*
X5250296Y16912041D01*
X5304681Y16792956D01*
X5304684Y16792951D01*
X5336107Y16756687D01*
X5390420Y16694007D01*
X5390422Y16694006D01*
X5390423Y16694005D01*
X5500560Y16623224D01*
X5589926Y16596984D01*
X5626182Y16586338D01*
X5626185Y16586338D01*
X5757103Y16586338D01*
X5757106Y16586338D01*
X5882727Y16623224D01*
X5992868Y16694007D01*
X6078605Y16792953D01*
X6132993Y16912046D01*
X6151626Y17041638D01*
X6132993Y17171230D01*
X6132991Y17171235D01*
X6132991Y17171236D01*
X6078606Y17290321D01*
X6078603Y17290326D01*
X6036842Y17338520D01*
X5992868Y17389269D01*
X5992864Y17389272D01*
X5882727Y17460053D01*
X5804616Y17482988D01*
X5763193Y17513487D01*
X5751065Y17563477D01*
X5773908Y17609567D01*
X5803187Y17626861D01*
X5858807Y17644396D01*
X5887050Y17660703D01*
X5903357Y17670116D01*
X5912642Y17676620D01*
X5925904Y17685905D01*
X5972785Y17752859D01*
X5990378Y17801197D01*
X5999899Y17855197D01*
X5999900Y17855197D01*
X5999900Y18724243D01*
X5999600Y18731126D01*
X5998158Y18747615D01*
X5977604Y18812807D01*
X5966732Y18831637D01*
X5951884Y18857357D01*
X5940827Y18873146D01*
X5936095Y18879904D01*
X5936094Y18879905D01*
X5869143Y18926784D01*
X5869144Y18926784D01*
X5820802Y18944379D01*
X5766804Y18953900D01*
X5766800Y18953900D01*
X5686727Y18953900D01*
X5638389Y18971493D01*
X5612669Y19016042D01*
X5618322Y19060338D01*
X5624665Y19074228D01*
X5624665Y19074230D01*
X5624666Y19074231D01*
X5643299Y19203823D01*
X5640388Y19224066D01*
X8147959Y19224066D01*
X8166592Y19094474D01*
X8166592Y19094473D01*
X8166593Y19094471D01*
X8166593Y19094469D01*
X8220978Y18975384D01*
X8220981Y18975379D01*
X8247843Y18944379D01*
X8306717Y18876435D01*
X8306719Y18876434D01*
X8306720Y18876433D01*
X8416857Y18805652D01*
X8506223Y18779412D01*
X8542479Y18768766D01*
X8542482Y18768766D01*
X8673400Y18768766D01*
X8673403Y18768766D01*
X8799024Y18805652D01*
X8909165Y18876435D01*
X8994902Y18975381D01*
X9049290Y19094474D01*
X9067923Y19224066D01*
X9049290Y19353658D01*
X9049288Y19353663D01*
X9049288Y19353664D01*
X8994903Y19472749D01*
X8994900Y19472754D01*
X8968778Y19502900D01*
X8909165Y19571697D01*
X8909161Y19571700D01*
X8799024Y19642481D01*
X8673405Y19679366D01*
X8673403Y19679366D01*
X8542479Y19679366D01*
X8542476Y19679366D01*
X8416857Y19642481D01*
X8306720Y19571700D01*
X8220981Y19472754D01*
X8220978Y19472749D01*
X8166593Y19353664D01*
X8166593Y19353662D01*
X8166592Y19353660D01*
X8166592Y19353658D01*
X8147959Y19224066D01*
X5640388Y19224066D01*
X5624666Y19333415D01*
X5624664Y19333420D01*
X5624664Y19333421D01*
X5570279Y19452506D01*
X5570276Y19452511D01*
X5526613Y19502900D01*
X5484541Y19551454D01*
X5484537Y19551457D01*
X5374400Y19622238D01*
X5248781Y19659123D01*
X5248779Y19659123D01*
X5117855Y19659123D01*
X5117852Y19659123D01*
X4992233Y19622238D01*
X4882096Y19551457D01*
X4796357Y19452511D01*
X4796354Y19452506D01*
X4741969Y19333421D01*
X4741969Y19333419D01*
X4741968Y19333417D01*
X4741968Y19333415D01*
X4736629Y19296283D01*
X4723335Y19203823D01*
X4741968Y19074228D01*
X4748312Y19060338D01*
X4752388Y19009060D01*
X4722549Y18967159D01*
X4679907Y18953900D01*
X3347107Y18953900D01*
X3298769Y18971493D01*
X3273049Y19016042D01*
X3272672Y19018399D01*
X3268600Y19046722D01*
X3279136Y19097071D01*
X3319571Y19128869D01*
X3343035Y19132623D01*
X3353850Y19132623D01*
X3353853Y19132623D01*
X3479474Y19169509D01*
X3589615Y19240292D01*
X3675352Y19339238D01*
X3706150Y19406677D01*
X3729738Y19458326D01*
X3729738Y19458327D01*
X3729740Y19458331D01*
X3748373Y19587923D01*
X3729740Y19717515D01*
X3729738Y19717520D01*
X3729738Y19717521D01*
X3675353Y19836606D01*
X3675350Y19836611D01*
X3630002Y19888945D01*
X3589615Y19935554D01*
X3589613Y19935555D01*
X3589611Y19935558D01*
X3486229Y20001997D01*
X3455076Y20042930D01*
X3452828Y20078316D01*
X3457576Y20105248D01*
X3459900Y20118421D01*
X3459900Y20534400D01*
X3654818Y20534400D01*
X3673451Y20404808D01*
X3673451Y20404807D01*
X3673452Y20404805D01*
X3673452Y20404803D01*
X3727837Y20285718D01*
X3727840Y20285713D01*
X3745999Y20264757D01*
X3813576Y20186769D01*
X3813578Y20186768D01*
X3813579Y20186767D01*
X3923716Y20115986D01*
X4013082Y20089746D01*
X4049338Y20079100D01*
X4049341Y20079100D01*
X4180259Y20079100D01*
X4180262Y20079100D01*
X4305883Y20115986D01*
X4416024Y20186769D01*
X4501761Y20285715D01*
X4556149Y20404808D01*
X4574782Y20534400D01*
X4556149Y20663992D01*
X4556147Y20663997D01*
X4556147Y20663998D01*
X4501762Y20783083D01*
X4501759Y20783088D01*
X4467662Y20822437D01*
X4416024Y20882031D01*
X4416020Y20882034D01*
X4305883Y20952815D01*
X4180264Y20989700D01*
X4180262Y20989700D01*
X4049338Y20989700D01*
X4049335Y20989700D01*
X3923716Y20952815D01*
X3813579Y20882034D01*
X3727840Y20783088D01*
X3727837Y20783083D01*
X3673452Y20663998D01*
X3673452Y20663996D01*
X3673451Y20663994D01*
X3673451Y20663992D01*
X3654818Y20534400D01*
X3459900Y20534400D01*
X3459900Y21170070D01*
X4676018Y21170070D01*
X4694651Y21040478D01*
X4694651Y21040477D01*
X4694652Y21040475D01*
X4694652Y21040473D01*
X4749037Y20921388D01*
X4749040Y20921383D01*
X4780463Y20885120D01*
X4834776Y20822439D01*
X4834778Y20822438D01*
X4834779Y20822437D01*
X4944916Y20751656D01*
X5034282Y20725416D01*
X5070538Y20714770D01*
X5070541Y20714770D01*
X5201459Y20714770D01*
X5201462Y20714770D01*
X5327083Y20751656D01*
X5437224Y20822439D01*
X5522961Y20921385D01*
X5577349Y21040478D01*
X5595982Y21170070D01*
X5577349Y21299662D01*
X5577347Y21299667D01*
X5577347Y21299668D01*
X5522962Y21418753D01*
X5522959Y21418758D01*
X5497258Y21448418D01*
X5437224Y21517701D01*
X5437220Y21517704D01*
X5327083Y21588485D01*
X5201464Y21625370D01*
X5201462Y21625370D01*
X5070538Y21625370D01*
X5070535Y21625370D01*
X4944916Y21588485D01*
X4834779Y21517704D01*
X4834776Y21517702D01*
X4834776Y21517701D01*
X4824496Y21505837D01*
X4749040Y21418758D01*
X4749037Y21418753D01*
X4694652Y21299668D01*
X4694652Y21299666D01*
X4694651Y21299664D01*
X4694651Y21299662D01*
X4676018Y21170070D01*
X3459900Y21170070D01*
X3459900Y21864900D01*
X3477493Y21913238D01*
X3522042Y21938958D01*
X3535100Y21940100D01*
X5446762Y21940100D01*
X5495100Y21922507D01*
X5520820Y21877958D01*
X5521196Y21854200D01*
X5517751Y21830233D01*
X5536384Y21700641D01*
X5536384Y21700640D01*
X5536385Y21700638D01*
X5536385Y21700636D01*
X5590770Y21581551D01*
X5590773Y21581546D01*
X5618258Y21549827D01*
X5676509Y21482602D01*
X5676511Y21482601D01*
X5676512Y21482600D01*
X5786649Y21411819D01*
X5876015Y21385579D01*
X5912271Y21374933D01*
X5912274Y21374933D01*
X6043192Y21374933D01*
X6043195Y21374933D01*
X6168816Y21411819D01*
X6278957Y21482602D01*
X6364694Y21581548D01*
X6419082Y21700641D01*
X6437715Y21830233D01*
X6434269Y21854199D01*
X6444805Y21904547D01*
X6485239Y21936345D01*
X6508704Y21940100D01*
X8394939Y21940100D01*
X8416124Y21937055D01*
X8506889Y21910403D01*
X8506892Y21910403D01*
X8637810Y21910403D01*
X8637813Y21910403D01*
X8728577Y21937055D01*
X8749763Y21940100D01*
X8818243Y21940100D01*
X8818244Y21940100D01*
X8825126Y21940400D01*
X8841615Y21941842D01*
X8906807Y21962396D01*
X8935050Y21978703D01*
X8951357Y21988116D01*
X8961615Y21995300D01*
X8973904Y22003905D01*
X9020785Y22070859D01*
X9038378Y22119197D01*
X9040259Y22129867D01*
X9048471Y22176434D01*
X9049867Y22176188D01*
X9069484Y22218306D01*
X9116095Y22240067D01*
X9155060Y22232258D01*
X9155128Y22232436D01*
X9156200Y22232030D01*
X9157629Y22231743D01*
X9159381Y22230824D01*
X9316893Y22192000D01*
X9479107Y22192000D01*
X9636617Y22230823D01*
X9636618Y22230824D01*
X9780255Y22306210D01*
X9796221Y22320356D01*
X9796221Y22320359D01*
X9607565Y22509015D01*
X9585825Y22555635D01*
X9599139Y22605322D01*
X9603132Y22610527D01*
X9605229Y22613028D01*
X9605233Y22613029D01*
X9635139Y22648671D01*
X9679685Y22674388D01*
X9730343Y22665455D01*
X9745918Y22653504D01*
X9935965Y22463457D01*
X9993828Y22547286D01*
X9993830Y22547290D01*
X10051352Y22698961D01*
X10070905Y22860000D01*
X10063301Y22922636D01*
X10074940Y22972742D01*
X10116064Y23003644D01*
X10137953Y23006900D01*
X10180900Y23006900D01*
X10229238Y22989307D01*
G37*
%TD.AperFunction*%
%TD*%
%TA.AperFunction,Conductor*%
%TO.N,-5V*%
G36*
X2428833Y18748118D02*
G01*
X2428836Y18748113D01*
X2460259Y18711850D01*
X2514572Y18649169D01*
X2514574Y18649168D01*
X2514575Y18649167D01*
X2624712Y18578386D01*
X2714078Y18552146D01*
X2750334Y18541500D01*
X2750337Y18541500D01*
X2881255Y18541500D01*
X2881258Y18541500D01*
X3006879Y18578386D01*
X3117020Y18649169D01*
X3202757Y18748115D01*
X3202944Y18748524D01*
X3204551Y18752042D01*
X3240636Y18788701D01*
X3272954Y18796000D01*
X4953673Y18796000D01*
X4986727Y18786295D01*
X4987343Y18787642D01*
X4992231Y18785410D01*
X4992233Y18785410D01*
X4992234Y18785409D01*
X5117855Y18748523D01*
X5117858Y18748523D01*
X5248776Y18748523D01*
X5248779Y18748523D01*
X5374400Y18785409D01*
X5374400Y18785410D01*
X5379291Y18787642D01*
X5379906Y18786295D01*
X5412961Y18796000D01*
X5766800Y18796000D01*
X5815138Y18778407D01*
X5840858Y18733858D01*
X5842000Y18720800D01*
X5842000Y17855200D01*
X5824407Y17806862D01*
X5779858Y17781142D01*
X5766800Y17780000D01*
X2443754Y17780000D01*
X2424408Y17939325D01*
X2367496Y18089391D01*
X2276324Y18221477D01*
X2276320Y18221481D01*
X2276315Y18221486D01*
X2156194Y18327903D01*
X2156191Y18327905D01*
X2095368Y18359828D01*
X2060744Y18397870D01*
X2058673Y18449269D01*
X2073481Y18475657D01*
X2135681Y18547438D01*
X2190069Y18666531D01*
X2208684Y18796000D01*
X2406966Y18796000D01*
X2428833Y18748118D01*
G37*
%TD.AperFunction*%
%TD*%
%TA.AperFunction,Conductor*%
%TO.N,+5V*%
G36*
X9836789Y17000407D02*
G01*
X9862509Y16955858D01*
X9862885Y16932100D01*
X9844365Y16803287D01*
X9862998Y16673695D01*
X9862998Y16673694D01*
X9862999Y16673692D01*
X9862999Y16673690D01*
X9917384Y16554605D01*
X9917387Y16554600D01*
X9948810Y16518336D01*
X10003123Y16455656D01*
X10003125Y16455655D01*
X10003126Y16455654D01*
X10113263Y16384873D01*
X10202629Y16358633D01*
X10238885Y16347987D01*
X10238888Y16347987D01*
X10369806Y16347987D01*
X10369809Y16347987D01*
X10414000Y16360963D01*
X10414000Y15184928D01*
X10358664Y15201176D01*
X10358662Y15201176D01*
X10227738Y15201176D01*
X10227735Y15201176D01*
X10159092Y15181020D01*
X10107756Y15184283D01*
X10070527Y15219781D01*
X10063255Y15244105D01*
X10044408Y15399325D01*
X9987496Y15549391D01*
X9896324Y15681477D01*
X9896320Y15681481D01*
X9896315Y15681486D01*
X9776194Y15787903D01*
X9776191Y15787905D01*
X9692252Y15831960D01*
X9657628Y15870002D01*
X9652000Y15898546D01*
X9652000Y16942800D01*
X9669593Y16991138D01*
X9714142Y17016858D01*
X9727200Y17018000D01*
X9788451Y17018000D01*
X9836789Y17000407D01*
G37*
%TD.AperFunction*%
%TD*%
%TA.AperFunction,Conductor*%
%TO.N,+5V*%
G36*
X5922052Y25128407D02*
G01*
X5947772Y25083858D01*
X5942118Y25039561D01*
X5912448Y24974594D01*
X5912448Y24974592D01*
X5912447Y24974590D01*
X5912447Y24974588D01*
X5893814Y24844996D01*
X5912447Y24715404D01*
X5912447Y24715403D01*
X5912448Y24715401D01*
X5912448Y24715399D01*
X5966833Y24596314D01*
X5966836Y24596309D01*
X5998259Y24560046D01*
X6052572Y24497365D01*
X6052574Y24497364D01*
X6052575Y24497363D01*
X6162712Y24426582D01*
X6252078Y24400342D01*
X6288334Y24389696D01*
X6288337Y24389696D01*
X6419255Y24389696D01*
X6419258Y24389696D01*
X6544879Y24426582D01*
X6655020Y24497365D01*
X6740757Y24596311D01*
X6790707Y24705686D01*
X6795143Y24715399D01*
X6795143Y24715400D01*
X6795145Y24715404D01*
X6813778Y24844996D01*
X6795145Y24974588D01*
X6795143Y24974593D01*
X6795143Y24974594D01*
X6765474Y25039561D01*
X6761397Y25090839D01*
X6791235Y25132741D01*
X6833878Y25146000D01*
X7862690Y25146000D01*
X7911028Y25128407D01*
X7936748Y25083858D01*
X7931094Y25039561D01*
X7896987Y24964879D01*
X7896987Y24964877D01*
X7896986Y24964875D01*
X7896986Y24964873D01*
X7878353Y24835281D01*
X7896986Y24705689D01*
X7896986Y24705688D01*
X7896987Y24705686D01*
X7896987Y24705684D01*
X7951372Y24586599D01*
X7951375Y24586594D01*
X7982798Y24550330D01*
X8037111Y24487650D01*
X8037113Y24487649D01*
X8037114Y24487648D01*
X8147251Y24416867D01*
X8236617Y24390627D01*
X8272873Y24379981D01*
X8272876Y24379981D01*
X8403794Y24379981D01*
X8403797Y24379981D01*
X8529418Y24416867D01*
X8639559Y24487650D01*
X8725296Y24586596D01*
X8779684Y24705689D01*
X8798317Y24835281D01*
X8779684Y24964873D01*
X8779682Y24964878D01*
X8779682Y24964879D01*
X8745576Y25039561D01*
X8741499Y25090839D01*
X8771337Y25132740D01*
X8813980Y25146000D01*
X10846800Y25146000D01*
X10895138Y25128407D01*
X10920858Y25083858D01*
X10922000Y25070800D01*
X10922000Y329200D01*
X10904407Y280862D01*
X10859858Y255142D01*
X10846800Y254000D01*
X10489200Y254000D01*
X10440862Y271593D01*
X10415142Y316142D01*
X10414000Y329200D01*
X10414000Y361723D01*
X10420795Y392961D01*
X10448949Y454608D01*
X10467582Y584200D01*
X10448949Y713792D01*
X10448947Y713797D01*
X10448947Y713798D01*
X10420796Y775440D01*
X10414000Y806679D01*
X10414000Y2724093D01*
X10431593Y2772431D01*
X10448548Y2787358D01*
X10453186Y2790338D01*
X10538923Y2889284D01*
X10593311Y3008377D01*
X10611944Y3137969D01*
X10593311Y3267561D01*
X10593309Y3267566D01*
X10593309Y3267567D01*
X10538924Y3386652D01*
X10538921Y3386657D01*
X10506786Y3423742D01*
X10453186Y3485600D01*
X10448540Y3488586D01*
X10417390Y3529522D01*
X10414000Y3551846D01*
X10414000Y5791301D01*
X10431593Y5839639D01*
X10448544Y5854563D01*
X10458824Y5861169D01*
X10544561Y5960115D01*
X10598949Y6079208D01*
X10617582Y6208800D01*
X10598949Y6338392D01*
X10598947Y6338397D01*
X10598947Y6338398D01*
X10544562Y6457483D01*
X10544559Y6457488D01*
X10512424Y6494573D01*
X10458824Y6556431D01*
X10458821Y6556433D01*
X10458819Y6556435D01*
X10448543Y6563039D01*
X10417391Y6603973D01*
X10414000Y6626300D01*
X10414000Y6626301D01*
X10414000Y7727114D01*
X10431592Y7775449D01*
X10448540Y7790371D01*
X10512024Y7831169D01*
X10597761Y7930115D01*
X10652149Y8049208D01*
X10670782Y8178800D01*
X10652149Y8308392D01*
X10652147Y8308397D01*
X10652147Y8308398D01*
X10597762Y8427483D01*
X10597759Y8427488D01*
X10552411Y8479822D01*
X10512024Y8526431D01*
X10512022Y8526432D01*
X10512020Y8526435D01*
X10448544Y8567228D01*
X10417391Y8608161D01*
X10414000Y8630490D01*
X10414000Y11502568D01*
X10431592Y11550903D01*
X10448543Y11565827D01*
X10468196Y11578457D01*
X10489218Y11591966D01*
X10489218Y11591967D01*
X10489222Y11591969D01*
X10574959Y11690915D01*
X10629347Y11810008D01*
X10647980Y11939600D01*
X10629347Y12069192D01*
X10629345Y12069197D01*
X10629345Y12069198D01*
X10574960Y12188283D01*
X10574957Y12188288D01*
X10542822Y12225373D01*
X10489222Y12287231D01*
X10448543Y12313374D01*
X10417391Y12354308D01*
X10414000Y12376636D01*
X10414000Y12698715D01*
X10431593Y12747053D01*
X10464392Y12768498D01*
X10464188Y12768946D01*
X10467141Y12770295D01*
X10468021Y12770871D01*
X10469083Y12771182D01*
X10579224Y12841965D01*
X10664961Y12940911D01*
X10700173Y13018014D01*
X10719347Y13059999D01*
X10719347Y13060000D01*
X10719349Y13060004D01*
X10737982Y13189596D01*
X10719349Y13319188D01*
X10719347Y13319193D01*
X10719347Y13319194D01*
X10664962Y13438279D01*
X10664959Y13438284D01*
X10619611Y13490618D01*
X10579224Y13537227D01*
X10579222Y13537228D01*
X10579220Y13537231D01*
X10574707Y13540131D01*
X10543554Y13581065D01*
X10546002Y13632446D01*
X10558526Y13652632D01*
X10635435Y13741389D01*
X10689823Y13860482D01*
X10708456Y13990074D01*
X10689823Y14119666D01*
X10689821Y14119671D01*
X10689821Y14119672D01*
X10635436Y14238757D01*
X10635433Y14238762D01*
X10588162Y14293315D01*
X10569803Y14341367D01*
X10586628Y14389978D01*
X10592620Y14396165D01*
X10594420Y14398243D01*
X10594424Y14398245D01*
X10680161Y14497191D01*
X10734549Y14616284D01*
X10753182Y14745876D01*
X10734549Y14875468D01*
X10734547Y14875473D01*
X10734547Y14875474D01*
X10680162Y14994559D01*
X10680159Y14994564D01*
X10654458Y15024224D01*
X10594424Y15093507D01*
X10594420Y15093510D01*
X10484283Y15164291D01*
X10414000Y15184928D01*
X10414000Y16360963D01*
X10495430Y16384873D01*
X10605571Y16455656D01*
X10691308Y16554602D01*
X10745696Y16673695D01*
X10764329Y16803287D01*
X10745696Y16932879D01*
X10745694Y16932884D01*
X10745694Y16932885D01*
X10691309Y17051970D01*
X10691306Y17051975D01*
X10656417Y17092238D01*
X10605571Y17150918D01*
X10605567Y17150921D01*
X10495433Y17221700D01*
X10495431Y17221701D01*
X10468011Y17229753D01*
X10426589Y17260254D01*
X10414000Y17301906D01*
X10414000Y18825123D01*
X10420795Y18856361D01*
X10448949Y18918008D01*
X10467582Y19047600D01*
X10448949Y19177192D01*
X10448947Y19177197D01*
X10448947Y19177198D01*
X10420796Y19238840D01*
X10414000Y19270079D01*
X10414000Y20193000D01*
X10133217Y20193000D01*
X10084879Y20210593D01*
X10059159Y20255142D01*
X10058565Y20277264D01*
X10059591Y20285715D01*
X10063754Y20320000D01*
X10044408Y20479325D01*
X9987496Y20629391D01*
X9963613Y20663992D01*
X9896327Y20761473D01*
X9896326Y20761475D01*
X9896324Y20761477D01*
X9896320Y20761481D01*
X9896315Y20761486D01*
X9776194Y20867903D01*
X9776188Y20867907D01*
X9634083Y20942490D01*
X9634081Y20942491D01*
X9582135Y20955294D01*
X9478248Y20980900D01*
X9317752Y20980900D01*
X9239836Y20961696D01*
X9161918Y20942491D01*
X9161916Y20942490D01*
X9019811Y20867907D01*
X9019805Y20867903D01*
X8899684Y20761486D01*
X8899672Y20761473D01*
X8808507Y20629397D01*
X8808502Y20629389D01*
X8751593Y20479329D01*
X8751592Y20479327D01*
X8751592Y20479325D01*
X8742544Y20404808D01*
X8732246Y20320000D01*
X8737435Y20277264D01*
X8725796Y20227158D01*
X8684672Y20196256D01*
X8662783Y20193000D01*
X8203200Y20193000D01*
X8154862Y20210593D01*
X8129142Y20255142D01*
X8128000Y20268200D01*
X8128000Y21260800D01*
X8145593Y21309138D01*
X8190142Y21334858D01*
X8203200Y21336000D01*
X9554304Y21336000D01*
X9602642Y21318407D01*
X9619920Y21295701D01*
X9620133Y21295837D01*
X9621847Y21293170D01*
X9622709Y21292037D01*
X9623038Y21291317D01*
X9623040Y21291313D01*
X9643910Y21267228D01*
X9708776Y21192369D01*
X9708778Y21192368D01*
X9708779Y21192367D01*
X9818916Y21121586D01*
X9908282Y21095346D01*
X9944538Y21084700D01*
X9944541Y21084700D01*
X10075459Y21084700D01*
X10075462Y21084700D01*
X10201083Y21121586D01*
X10311224Y21192369D01*
X10396961Y21291315D01*
X10451349Y21410408D01*
X10469982Y21540000D01*
X10451349Y21669592D01*
X10451347Y21669597D01*
X10451347Y21669598D01*
X10420796Y21736495D01*
X10414000Y21767734D01*
X10414000Y23164800D01*
X10030133Y23164800D01*
X9981795Y23182393D01*
X9968245Y23197281D01*
X9896324Y23301477D01*
X9896315Y23301486D01*
X9776194Y23407903D01*
X9776188Y23407907D01*
X9634083Y23482490D01*
X9634081Y23482491D01*
X9582135Y23495294D01*
X9478248Y23520900D01*
X9317752Y23520900D01*
X9239836Y23501696D01*
X9161918Y23482491D01*
X9161916Y23482490D01*
X9019811Y23407907D01*
X9019805Y23407903D01*
X8899684Y23301486D01*
X8899675Y23301477D01*
X8827755Y23197281D01*
X8785817Y23167495D01*
X8765867Y23164800D01*
X5882556Y23164800D01*
X5834218Y23182393D01*
X5814152Y23208761D01*
X5810108Y23217615D01*
X5810107Y23217616D01*
X5810107Y23217617D01*
X5795164Y23234862D01*
X5776807Y23282914D01*
X5793632Y23331524D01*
X5825464Y23352698D01*
X5824984Y23353749D01*
X5829874Y23355983D01*
X5829876Y23355985D01*
X5829881Y23355986D01*
X5940022Y23426769D01*
X6025759Y23525715D01*
X6080147Y23644808D01*
X6098780Y23774400D01*
X6089773Y23837043D01*
X9813461Y23837043D01*
X9832094Y23707451D01*
X9832094Y23707450D01*
X9832095Y23707448D01*
X9832095Y23707446D01*
X9886480Y23588361D01*
X9886483Y23588356D01*
X9917906Y23552093D01*
X9972219Y23489412D01*
X9972221Y23489411D01*
X9972222Y23489410D01*
X10082359Y23418629D01*
X10171725Y23392389D01*
X10207981Y23381743D01*
X10207984Y23381743D01*
X10338902Y23381743D01*
X10338905Y23381743D01*
X10464526Y23418629D01*
X10574667Y23489412D01*
X10660404Y23588358D01*
X10714792Y23707451D01*
X10733425Y23837043D01*
X10714792Y23966635D01*
X10714790Y23966640D01*
X10714790Y23966641D01*
X10660405Y24085726D01*
X10660402Y24085731D01*
X10628945Y24122034D01*
X10574667Y24184674D01*
X10574663Y24184677D01*
X10464526Y24255458D01*
X10338907Y24292343D01*
X10338905Y24292343D01*
X10207981Y24292343D01*
X10207978Y24292343D01*
X10082359Y24255458D01*
X9972222Y24184677D01*
X9972219Y24184675D01*
X9972219Y24184674D01*
X9955053Y24164864D01*
X9886483Y24085731D01*
X9886480Y24085726D01*
X9832095Y23966641D01*
X9832095Y23966639D01*
X9832094Y23966637D01*
X9832094Y23966635D01*
X9813461Y23837043D01*
X6089773Y23837043D01*
X6080147Y23903992D01*
X6080145Y23903997D01*
X6080145Y23903998D01*
X6025760Y24023083D01*
X6025757Y24023088D01*
X5971480Y24085726D01*
X5940022Y24122031D01*
X5940018Y24122034D01*
X5829881Y24192815D01*
X5704262Y24229700D01*
X5704260Y24229700D01*
X5573336Y24229700D01*
X5573333Y24229700D01*
X5447714Y24192815D01*
X5337577Y24122034D01*
X5251838Y24023088D01*
X5251835Y24023083D01*
X5197450Y23903998D01*
X5197450Y23903996D01*
X5197449Y23903994D01*
X5197449Y23903992D01*
X5178816Y23774400D01*
X5197449Y23644808D01*
X5197449Y23644807D01*
X5197450Y23644805D01*
X5197450Y23644803D01*
X5251835Y23525718D01*
X5251838Y23525713D01*
X5266777Y23508473D01*
X5285136Y23460421D01*
X5268312Y23411810D01*
X5236474Y23390622D01*
X5236951Y23389578D01*
X5232059Y23387345D01*
X5121925Y23316567D01*
X5036183Y23217615D01*
X5032140Y23208761D01*
X4996056Y23172100D01*
X4963736Y23164800D01*
X2410133Y23164800D01*
X2361795Y23182393D01*
X2348245Y23197281D01*
X2276324Y23301477D01*
X2276315Y23301486D01*
X2156194Y23407903D01*
X2156188Y23407907D01*
X2014083Y23482490D01*
X2014081Y23482491D01*
X1962135Y23495294D01*
X1858248Y23520900D01*
X1697752Y23520900D01*
X1619835Y23501696D01*
X1541918Y23482491D01*
X1541916Y23482490D01*
X1399811Y23407907D01*
X1399805Y23407903D01*
X1279684Y23301486D01*
X1279675Y23301477D01*
X1207755Y23197281D01*
X1165817Y23167495D01*
X1145867Y23164800D01*
X762000Y23164800D01*
X762000Y22752882D01*
X744407Y22704544D01*
X727457Y22689620D01*
X663987Y22648831D01*
X578252Y22549888D01*
X578249Y22549883D01*
X523864Y22430798D01*
X523864Y22430796D01*
X523863Y22430794D01*
X523863Y22430792D01*
X509941Y22333969D01*
X506797Y22312095D01*
X505230Y22301200D01*
X523863Y22171608D01*
X523863Y22171607D01*
X523864Y22171605D01*
X523864Y22171603D01*
X578249Y22052518D01*
X578252Y22052513D01*
X663990Y21953567D01*
X699069Y21931024D01*
X727455Y21912781D01*
X758608Y21871848D01*
X762000Y21849519D01*
X762000Y21330490D01*
X744407Y21282152D01*
X727456Y21267228D01*
X663979Y21226435D01*
X578240Y21127488D01*
X578237Y21127483D01*
X523852Y21008398D01*
X523852Y21008396D01*
X523851Y21008394D01*
X523851Y21008392D01*
X505218Y20878800D01*
X523851Y20749208D01*
X523851Y20749207D01*
X523852Y20749205D01*
X523852Y20749203D01*
X578237Y20630118D01*
X578240Y20630113D01*
X614503Y20588263D01*
X663976Y20531169D01*
X663977Y20531169D01*
X663978Y20531167D01*
X727456Y20490373D01*
X758609Y20449440D01*
X762000Y20427112D01*
X762000Y17780000D01*
X1045625Y17780000D01*
X1093963Y17762407D01*
X1119683Y17717858D01*
X1120273Y17713886D01*
X1129614Y17636959D01*
X1131592Y17620674D01*
X1141643Y17594172D01*
X1142332Y17542736D01*
X1109798Y17502892D01*
X1092515Y17495353D01*
X970439Y17459509D01*
X860302Y17388728D01*
X774563Y17289782D01*
X774560Y17289777D01*
X720175Y17170692D01*
X720175Y17170690D01*
X720174Y17170688D01*
X720174Y17170686D01*
X712757Y17119100D01*
X701542Y17041098D01*
X701541Y17041094D01*
X720174Y16911502D01*
X720174Y16911501D01*
X720175Y16911499D01*
X720175Y16911497D01*
X774560Y16792412D01*
X774563Y16792407D01*
X805986Y16756144D01*
X860299Y16693463D01*
X860301Y16693462D01*
X860302Y16693461D01*
X970439Y16622680D01*
X1059805Y16596440D01*
X1096061Y16585794D01*
X1096064Y16585794D01*
X1226982Y16585794D01*
X1226985Y16585794D01*
X1352606Y16622680D01*
X1462747Y16693463D01*
X1548484Y16792409D01*
X1602872Y16911502D01*
X1621505Y17041094D01*
X1621504Y17041097D01*
X1621505Y17041098D01*
X1621505Y17043900D01*
X1622171Y17045731D01*
X1622270Y17046418D01*
X1622413Y17046398D01*
X1639098Y17092238D01*
X1683647Y17117958D01*
X1696705Y17119100D01*
X1702800Y17119100D01*
X1751138Y17101507D01*
X1776858Y17056958D01*
X1778000Y17043900D01*
X1778000Y15976100D01*
X1760407Y15927762D01*
X1715858Y15902042D01*
X1702800Y15900900D01*
X1697752Y15900900D01*
X1619835Y15881696D01*
X1541918Y15862491D01*
X1541916Y15862490D01*
X1399811Y15787907D01*
X1399805Y15787903D01*
X1279684Y15681486D01*
X1279672Y15681473D01*
X1188507Y15549397D01*
X1188502Y15549389D01*
X1131593Y15399329D01*
X1131592Y15399327D01*
X1131592Y15399325D01*
X1112246Y15240000D01*
X1131592Y15080675D01*
X1131592Y15080673D01*
X1131593Y15080672D01*
X1146348Y15041766D01*
X1147039Y14990331D01*
X1114506Y14950485D01*
X1076035Y14939900D01*
X1049735Y14939900D01*
X924116Y14903015D01*
X813979Y14832235D01*
X749615Y14757954D01*
X704665Y14732945D01*
X692783Y14732000D01*
X329200Y14732000D01*
X280862Y14749593D01*
X255142Y14794142D01*
X254000Y14807200D01*
X254000Y24260702D01*
X426618Y24260702D01*
X445251Y24131110D01*
X445251Y24131109D01*
X445252Y24131107D01*
X445252Y24131105D01*
X499637Y24012020D01*
X499640Y24012015D01*
X531063Y23975751D01*
X585376Y23913071D01*
X585378Y23913070D01*
X585379Y23913069D01*
X695516Y23842288D01*
X784882Y23816048D01*
X821138Y23805402D01*
X821141Y23805402D01*
X952059Y23805402D01*
X952062Y23805402D01*
X1077683Y23842288D01*
X1187824Y23913071D01*
X1273561Y24012017D01*
X1327949Y24131110D01*
X1346582Y24260702D01*
X1327949Y24390294D01*
X1327947Y24390299D01*
X1327947Y24390300D01*
X1273562Y24509385D01*
X1273559Y24509390D01*
X1267608Y24516258D01*
X4197922Y24516258D01*
X4216555Y24386666D01*
X4216555Y24386665D01*
X4216556Y24386663D01*
X4216556Y24386661D01*
X4270941Y24267576D01*
X4270944Y24267571D01*
X4302367Y24231307D01*
X4356680Y24168627D01*
X4356682Y24168626D01*
X4356683Y24168625D01*
X4466820Y24097844D01*
X4556186Y24071604D01*
X4592442Y24060958D01*
X4592445Y24060958D01*
X4723363Y24060958D01*
X4723366Y24060958D01*
X4848987Y24097844D01*
X4959128Y24168627D01*
X5044865Y24267573D01*
X5099253Y24386666D01*
X5117886Y24516258D01*
X5099253Y24645850D01*
X5099251Y24645855D01*
X5099251Y24645856D01*
X5044866Y24764941D01*
X5044863Y24764946D01*
X5019162Y24794606D01*
X4959128Y24863889D01*
X4959124Y24863892D01*
X4848987Y24934673D01*
X4723368Y24971558D01*
X4723366Y24971558D01*
X4592442Y24971558D01*
X4592439Y24971558D01*
X4466820Y24934673D01*
X4356683Y24863892D01*
X4270944Y24764946D01*
X4270941Y24764941D01*
X4216556Y24645856D01*
X4216556Y24645854D01*
X4216555Y24645852D01*
X4216555Y24645850D01*
X4197922Y24516258D01*
X1267608Y24516258D01*
X1247858Y24539050D01*
X1187824Y24608333D01*
X1187820Y24608336D01*
X1077683Y24679117D01*
X952064Y24716002D01*
X952062Y24716002D01*
X821138Y24716002D01*
X821135Y24716002D01*
X695516Y24679117D01*
X585379Y24608336D01*
X499640Y24509390D01*
X499637Y24509385D01*
X445252Y24390300D01*
X445252Y24390298D01*
X445251Y24390296D01*
X445251Y24390294D01*
X426618Y24260702D01*
X254000Y24260702D01*
X254000Y25070800D01*
X271593Y25119138D01*
X316142Y25144858D01*
X329200Y25146000D01*
X5873714Y25146000D01*
X5922052Y25128407D01*
G37*
%TD.AperFunction*%
%TD*%
M02*
