%TF.GenerationSoftware,KiCad,Pcbnew,7.0.7*%
%TF.CreationDate,2024-02-15T01:29:39-05:00*%
%TF.ProjectId,3374_VCO,33333734-5f56-4434-9f2e-6b696361645f,0*%
%TF.SameCoordinates,PX640ad70PY37b6b20*%
%TF.FileFunction,Copper,L2,Inr*%
%TF.FilePolarity,Positive*%
%FSLAX46Y46*%
G04 Gerber Fmt 4.6, Leading zero omitted, Abs format (unit mm)*
G04 Created by KiCad (PCBNEW 7.0.7) date 2024-02-15 01:29:39*
%MOMM*%
%LPD*%
G01*
G04 APERTURE LIST*
%TA.AperFunction,ComponentPad*%
%ADD10C,1.016000*%
%TD*%
%TA.AperFunction,FiducialPad,Local*%
%ADD11C,1.016000*%
%TD*%
%TA.AperFunction,ViaPad*%
%ADD12C,0.604800*%
%TD*%
G04 APERTURE END LIST*
D10*
%TO.N,-5V*%
%TO.C,J2*%
X1778000Y22860000D03*
%TO.N,SAWTOOTH_A*%
X1778000Y20320000D03*
%TO.N,SYNC_A*%
X1778000Y17780000D03*
%TO.N,VTH_A*%
X1778000Y15240000D03*
%TO.N,TRIANGLE_A*%
X1778000Y12700000D03*
%TO.N,CF_A*%
X1778000Y10160000D03*
D11*
%TO.N,CV_A*%
X1778000Y7620000D03*
D10*
%TO.N,IREF_A*%
X1778000Y5080000D03*
%TO.N,GND*%
X1778000Y2540000D03*
%TD*%
%TO.N,+12V*%
%TO.C,J1*%
X9398000Y22860000D03*
%TO.N,SAWTOOTH_B*%
X9398000Y20320000D03*
%TO.N,unconnected-(J1-Pin_3-Pad3)*%
X9398000Y17780000D03*
%TO.N,VTH_B*%
X9398000Y15240000D03*
%TO.N,TRIANGLE_B*%
X9398000Y12700000D03*
%TO.N,CF_B*%
X9398000Y10160000D03*
%TO.N,CV_B*%
X9398000Y7620000D03*
%TO.N,IREF_B*%
X9398000Y5080000D03*
%TO.N,VTC*%
X9398000Y2540000D03*
%TD*%
D12*
%TO.N,+12V*%
X5613194Y16237387D03*
X1115200Y13411200D03*
X3311560Y10714202D03*
X4923700Y7719600D03*
X10248474Y13990074D03*
X7422723Y10724877D03*
%TO.N,GND*%
X10293200Y14745876D03*
X1115200Y14484600D03*
X3350430Y7399600D03*
X1748720Y18796123D03*
X4218000Y1409600D03*
X10273443Y23837043D03*
X10304347Y16803287D03*
X10007600Y584200D03*
X10187998Y11939600D03*
X886600Y24260702D03*
X6353796Y24844996D03*
X965212Y22301200D03*
X10151962Y3137969D03*
X5882492Y15429600D03*
X4411340Y14927961D03*
X5423146Y22968932D03*
X10157600Y6208800D03*
X1161523Y17041094D03*
X5977733Y21830233D03*
X7328000Y1399600D03*
X10010000Y21540000D03*
%TO.N,-5V*%
X8572351Y22365703D03*
X4148778Y7388902D03*
X4118500Y4730298D03*
X5440793Y18143626D03*
%TO.N,+5V*%
X10298000Y15827404D03*
X8304228Y21094527D03*
X2585572Y24513400D03*
X5359400Y24841200D03*
X1161500Y15989353D03*
X10617200Y1422400D03*
%TO.N,Net-(Q10A-E1)*%
X8078000Y12599600D03*
%TO.N,SAWTOOTH_A*%
X2815796Y18996800D03*
%TO.N,SYNC_A*%
X2849008Y6521558D03*
%TO.N,TRIANGLE_A*%
X5183317Y19203823D03*
X965200Y20878800D03*
%TO.N,Net-(Q15A-C1)*%
X2933698Y584200D03*
X5894747Y12594755D03*
X2565400Y11506200D03*
%TO.N,TRIANGLE_B*%
X10007600Y19047600D03*
X4114800Y20534400D03*
%TO.N,Net-(C9-Pad2)*%
X6589631Y12895574D03*
X1070300Y11526249D03*
%TO.N,Net-(Q14A-C1)*%
X6558355Y1641714D03*
X10210800Y8178800D03*
%TO.N,Net-(C18-Pad2)*%
X10278000Y13189596D03*
%TO.N,Net-(Q14A-E1)*%
X8331200Y7224800D03*
%TO.N,Net-(Q15B-C2)*%
X5858743Y1328857D03*
%TO.N,Net-(Q15A-E1)*%
X2585629Y1904836D03*
%TO.N,Net-(R4-Pad1)*%
X5136000Y21170070D03*
%TO.N,Net-(U6D--)*%
X8607941Y19224066D03*
%TO.N,Net-(D1A-K)*%
X7873994Y14713000D03*
X5560200Y10553897D03*
X7311075Y12604986D03*
%TO.N,Net-(R5-Pad2)*%
X4657904Y24516258D03*
%TO.N,Net-(U6D-+)*%
X8716784Y17092322D03*
%TO.N,Net-(D1B-K)*%
X5567992Y9669600D03*
X5691644Y17041638D03*
X6350000Y7580400D03*
%TO.N,Net-(D1A-A)*%
X3710061Y12594200D03*
%TO.N,Net-(U5B--)*%
X3288391Y19587923D03*
%TO.N,Net-(U6C-+)*%
X8338335Y24835281D03*
%TO.N,Net-(U5A--)*%
X5638798Y23774400D03*
%TD*%
%TA.AperFunction,Conductor*%
%TO.N,GND*%
G36*
X4929391Y25128407D02*
G01*
X4955111Y25083858D01*
X4949457Y25039563D01*
X4922409Y24980334D01*
X4886325Y24943674D01*
X4835118Y24938784D01*
X4832819Y24939420D01*
X4723368Y24971558D01*
X4723366Y24971558D01*
X4592442Y24971558D01*
X4592439Y24971558D01*
X4466820Y24934673D01*
X4356683Y24863892D01*
X4270944Y24764946D01*
X4270941Y24764941D01*
X4216556Y24645856D01*
X4216556Y24645854D01*
X4216555Y24645852D01*
X4216555Y24645850D01*
X4208035Y24586594D01*
X4197922Y24516258D01*
X4216555Y24386666D01*
X4216556Y24386661D01*
X4270941Y24267576D01*
X4270944Y24267571D01*
X4273419Y24264715D01*
X4356680Y24168627D01*
X4356682Y24168626D01*
X4356683Y24168625D01*
X4466820Y24097844D01*
X4556186Y24071604D01*
X4592442Y24060958D01*
X4592445Y24060958D01*
X4723363Y24060958D01*
X4723366Y24060958D01*
X4848987Y24097844D01*
X4959128Y24168627D01*
X5044865Y24267573D01*
X5094896Y24377127D01*
X5130978Y24413785D01*
X5182185Y24418675D01*
X5184445Y24418051D01*
X5293938Y24385900D01*
X5293941Y24385900D01*
X5424859Y24385900D01*
X5424862Y24385900D01*
X5550483Y24422786D01*
X5660624Y24493569D01*
X5746361Y24592515D01*
X5800749Y24711608D01*
X5819382Y24841200D01*
X5800749Y24970792D01*
X5800747Y24970797D01*
X5800747Y24970798D01*
X5769344Y25039561D01*
X5765267Y25090839D01*
X5795105Y25132740D01*
X5837748Y25146000D01*
X7862690Y25146000D01*
X7911028Y25128407D01*
X7936748Y25083858D01*
X7931094Y25039561D01*
X7896987Y24964879D01*
X7896987Y24964877D01*
X7896986Y24964875D01*
X7896986Y24964873D01*
X7878353Y24835281D01*
X7896986Y24705689D01*
X7896986Y24705688D01*
X7896987Y24705686D01*
X7896987Y24705684D01*
X7951372Y24586599D01*
X7951375Y24586594D01*
X7982798Y24550330D01*
X8037111Y24487650D01*
X8037113Y24487649D01*
X8037114Y24487648D01*
X8147251Y24416867D01*
X8236617Y24390627D01*
X8272873Y24379981D01*
X8272876Y24379981D01*
X8403794Y24379981D01*
X8403797Y24379981D01*
X8529418Y24416867D01*
X8639559Y24487650D01*
X8725296Y24586596D01*
X8779684Y24705689D01*
X8798317Y24835281D01*
X8779684Y24964873D01*
X8779682Y24964878D01*
X8779682Y24964879D01*
X8745576Y25039561D01*
X8741499Y25090839D01*
X8771337Y25132740D01*
X8813980Y25146000D01*
X10846800Y25146000D01*
X10895138Y25128407D01*
X10920858Y25083858D01*
X10922000Y25070800D01*
X10922000Y1905452D01*
X10904407Y1857114D01*
X10859858Y1831394D01*
X10813615Y1839549D01*
X10813174Y1838581D01*
X10809446Y1840284D01*
X10809200Y1840327D01*
X10808748Y1840603D01*
X10808285Y1840814D01*
X10682664Y1877700D01*
X10682662Y1877700D01*
X10551738Y1877700D01*
X10551735Y1877700D01*
X10426116Y1840815D01*
X10315979Y1770034D01*
X10230240Y1671088D01*
X10230237Y1671083D01*
X10175852Y1551998D01*
X10175852Y1551996D01*
X10175851Y1551994D01*
X10175851Y1551992D01*
X10157218Y1422400D01*
X10175851Y1292808D01*
X10175851Y1292807D01*
X10175852Y1292805D01*
X10175852Y1292803D01*
X10230237Y1173718D01*
X10230240Y1173713D01*
X10261663Y1137449D01*
X10315976Y1074769D01*
X10315978Y1074768D01*
X10315979Y1074767D01*
X10426116Y1003986D01*
X10515482Y977746D01*
X10551738Y967100D01*
X10551741Y967100D01*
X10682659Y967100D01*
X10682662Y967100D01*
X10808283Y1003986D01*
X10808283Y1003987D01*
X10813174Y1006219D01*
X10814010Y1004387D01*
X10856314Y1013945D01*
X10902037Y990377D01*
X10921915Y942933D01*
X10922000Y939349D01*
X10922000Y329200D01*
X10904407Y280862D01*
X10859858Y255142D01*
X10846800Y254000D01*
X3400446Y254000D01*
X3352108Y271593D01*
X3326388Y316142D01*
X3332042Y360439D01*
X3375045Y454603D01*
X3375045Y454604D01*
X3375047Y454608D01*
X3393680Y584200D01*
X3375047Y713792D01*
X3375045Y713797D01*
X3375045Y713798D01*
X3320660Y832883D01*
X3320657Y832888D01*
X3294956Y862548D01*
X3234922Y931831D01*
X3234918Y931834D01*
X3124781Y1002615D01*
X2999162Y1039500D01*
X2999160Y1039500D01*
X2868236Y1039500D01*
X2868233Y1039500D01*
X2742614Y1002615D01*
X2632477Y931834D01*
X2546738Y832888D01*
X2546735Y832883D01*
X2492350Y713798D01*
X2492350Y713796D01*
X2492349Y713794D01*
X2492349Y713792D01*
X2473716Y584200D01*
X2492349Y454608D01*
X2492349Y454607D01*
X2492350Y454605D01*
X2492350Y454603D01*
X2535354Y360439D01*
X2539431Y309161D01*
X2509593Y267260D01*
X2466950Y254000D01*
X329200Y254000D01*
X280862Y271593D01*
X255142Y316142D01*
X254000Y329200D01*
X254000Y1328857D01*
X5398761Y1328857D01*
X5417394Y1199265D01*
X5417394Y1199264D01*
X5417395Y1199262D01*
X5417395Y1199260D01*
X5471780Y1080175D01*
X5471783Y1080170D01*
X5476465Y1074767D01*
X5557519Y981226D01*
X5557521Y981225D01*
X5557522Y981224D01*
X5667659Y910443D01*
X5757025Y884203D01*
X5793281Y873557D01*
X5793284Y873557D01*
X5924202Y873557D01*
X5924205Y873557D01*
X6049826Y910443D01*
X6159967Y981226D01*
X6245704Y1080172D01*
X6290645Y1178580D01*
X6326728Y1215240D01*
X6377935Y1220130D01*
X6380200Y1219504D01*
X6492893Y1186414D01*
X6492896Y1186414D01*
X6623814Y1186414D01*
X6623817Y1186414D01*
X6749438Y1223300D01*
X6859579Y1294083D01*
X6945316Y1393029D01*
X6999704Y1512122D01*
X7018337Y1641714D01*
X6999704Y1771306D01*
X6999702Y1771311D01*
X6999702Y1771312D01*
X6945317Y1890397D01*
X6945314Y1890402D01*
X6918767Y1921038D01*
X6859579Y1989345D01*
X6859575Y1989348D01*
X6749438Y2060129D01*
X6623819Y2097014D01*
X6623817Y2097014D01*
X6492893Y2097014D01*
X6492890Y2097014D01*
X6367271Y2060129D01*
X6257134Y1989348D01*
X6257131Y1989346D01*
X6257131Y1989345D01*
X6254414Y1986209D01*
X6171395Y1890402D01*
X6171392Y1890397D01*
X6126453Y1791993D01*
X6090370Y1755332D01*
X6039163Y1750442D01*
X6036863Y1751078D01*
X5924207Y1784157D01*
X5924205Y1784157D01*
X5793281Y1784157D01*
X5793278Y1784157D01*
X5667659Y1747272D01*
X5557522Y1676491D01*
X5557519Y1676489D01*
X5557519Y1676488D01*
X5552836Y1671083D01*
X5471783Y1577545D01*
X5471780Y1577540D01*
X5417395Y1458455D01*
X5417395Y1458453D01*
X5417394Y1458451D01*
X5417394Y1458449D01*
X5398761Y1328857D01*
X254000Y1328857D01*
X254000Y2540000D01*
X1105094Y2540000D01*
X1124647Y2378961D01*
X1182169Y2227288D01*
X1182174Y2227280D01*
X1240033Y2143456D01*
X1430081Y2333504D01*
X1476702Y2355244D01*
X1526389Y2341930D01*
X1540858Y2328672D01*
X1570767Y2293029D01*
X1570768Y2293029D01*
X1572867Y2290527D01*
X1590460Y2242189D01*
X1572866Y2193851D01*
X1568434Y2189015D01*
X1379776Y2000358D01*
X1379777Y2000357D01*
X1395743Y1986212D01*
X1395747Y1986209D01*
X1539381Y1910824D01*
X1539382Y1910823D01*
X1696893Y1872000D01*
X1859107Y1872000D01*
X2016618Y1910824D01*
X2022959Y1914151D01*
X2073936Y1921038D01*
X2117413Y1893546D01*
X2132342Y1858270D01*
X2135034Y1839549D01*
X2144280Y1775241D01*
X2144281Y1775239D01*
X2198666Y1656154D01*
X2198669Y1656149D01*
X2230092Y1619886D01*
X2284405Y1557205D01*
X2284407Y1557204D01*
X2284408Y1557203D01*
X2394545Y1486422D01*
X2483911Y1460182D01*
X2520167Y1449536D01*
X2520170Y1449536D01*
X2651088Y1449536D01*
X2651091Y1449536D01*
X2776712Y1486422D01*
X2886853Y1557205D01*
X2972590Y1656151D01*
X3015942Y1751078D01*
X3026976Y1775239D01*
X3026976Y1775240D01*
X3026978Y1775244D01*
X3045611Y1904836D01*
X3026978Y2034428D01*
X3026976Y2034433D01*
X3026976Y2034434D01*
X2972591Y2153519D01*
X2972588Y2153524D01*
X2912819Y2222500D01*
X2886853Y2252467D01*
X2886849Y2252470D01*
X2776712Y2323251D01*
X2651093Y2360136D01*
X2651091Y2360136D01*
X2520167Y2360136D01*
X2514789Y2360136D01*
X2514789Y2362823D01*
X2474219Y2371357D01*
X2442464Y2411825D01*
X2439282Y2444279D01*
X2450905Y2540000D01*
X8732246Y2540000D01*
X8751592Y2380675D01*
X8751592Y2380673D01*
X8751593Y2380672D01*
X8808502Y2230612D01*
X8808507Y2230604D01*
X8899672Y2098528D01*
X8899674Y2098526D01*
X8899676Y2098523D01*
X8899679Y2098521D01*
X8899684Y2098515D01*
X9019805Y1992098D01*
X9019807Y1992097D01*
X9019809Y1992095D01*
X9161920Y1917509D01*
X9317752Y1879100D01*
X9317754Y1879100D01*
X9478246Y1879100D01*
X9478248Y1879100D01*
X9634080Y1917509D01*
X9776191Y1992095D01*
X9896324Y2098523D01*
X9987496Y2230609D01*
X10044408Y2380675D01*
X10063754Y2540000D01*
X10044408Y2699325D01*
X9987496Y2849391D01*
X9987492Y2849397D01*
X9896327Y2981473D01*
X9896326Y2981475D01*
X9896324Y2981477D01*
X9896320Y2981481D01*
X9896315Y2981486D01*
X9776194Y3087903D01*
X9776188Y3087907D01*
X9634083Y3162490D01*
X9634081Y3162491D01*
X9582135Y3175294D01*
X9478248Y3200900D01*
X9317752Y3200900D01*
X9239836Y3181696D01*
X9161918Y3162491D01*
X9161916Y3162490D01*
X9019811Y3087907D01*
X9019805Y3087903D01*
X8899684Y2981486D01*
X8899672Y2981473D01*
X8808507Y2849397D01*
X8808502Y2849389D01*
X8751593Y2699329D01*
X8751592Y2699327D01*
X8751592Y2699325D01*
X8732246Y2540000D01*
X2450905Y2540000D01*
X2450905Y2540001D01*
X2431352Y2701040D01*
X2373830Y2852711D01*
X2373828Y2852716D01*
X2315964Y2936546D01*
X2125916Y2746497D01*
X2079296Y2724758D01*
X2029609Y2738072D01*
X2015140Y2751329D01*
X1985233Y2786971D01*
X1985231Y2786973D01*
X1983131Y2789475D01*
X1965538Y2837813D01*
X1983132Y2886151D01*
X1987564Y2890988D01*
X2176221Y3079645D01*
X2160256Y3093789D01*
X2160252Y3093792D01*
X2016618Y3169177D01*
X2016617Y3169178D01*
X1859107Y3208000D01*
X1696893Y3208000D01*
X1539382Y3169178D01*
X1539381Y3169177D01*
X1395744Y3093791D01*
X1379777Y3079645D01*
X1379777Y3079643D01*
X1568434Y2890986D01*
X1590174Y2844366D01*
X1576860Y2794679D01*
X1572867Y2789474D01*
X1540863Y2751333D01*
X1496314Y2725613D01*
X1445656Y2734546D01*
X1430081Y2746497D01*
X1240033Y2936545D01*
X1182172Y2852719D01*
X1182171Y2852717D01*
X1124647Y2701040D01*
X1105094Y2540000D01*
X254000Y2540000D01*
X254000Y5080000D01*
X1112246Y5080000D01*
X1131592Y4920675D01*
X1131592Y4920673D01*
X1131593Y4920672D01*
X1188502Y4770612D01*
X1188507Y4770604D01*
X1279672Y4638528D01*
X1279674Y4638526D01*
X1279676Y4638523D01*
X1279679Y4638521D01*
X1279684Y4638515D01*
X1399805Y4532098D01*
X1399807Y4532097D01*
X1399809Y4532095D01*
X1541920Y4457509D01*
X1697752Y4419100D01*
X1697754Y4419100D01*
X1858246Y4419100D01*
X1858248Y4419100D01*
X2014080Y4457509D01*
X2156191Y4532095D01*
X2276324Y4638523D01*
X2339671Y4730298D01*
X3658518Y4730298D01*
X3677151Y4600706D01*
X3677151Y4600705D01*
X3677152Y4600703D01*
X3677152Y4600701D01*
X3731537Y4481616D01*
X3731540Y4481611D01*
X3752423Y4457511D01*
X3817276Y4382667D01*
X3817278Y4382666D01*
X3817279Y4382665D01*
X3927416Y4311884D01*
X4016782Y4285644D01*
X4053038Y4274998D01*
X4053041Y4274998D01*
X4183959Y4274998D01*
X4183962Y4274998D01*
X4309583Y4311884D01*
X4419724Y4382667D01*
X4505461Y4481613D01*
X4559849Y4600706D01*
X4578482Y4730298D01*
X4559849Y4859890D01*
X4559847Y4859895D01*
X4559847Y4859896D01*
X4505462Y4978981D01*
X4505459Y4978986D01*
X4479758Y5008646D01*
X4419724Y5077929D01*
X4419720Y5077932D01*
X4416502Y5080000D01*
X8732246Y5080000D01*
X8751592Y4920675D01*
X8751592Y4920673D01*
X8751593Y4920672D01*
X8808502Y4770612D01*
X8808507Y4770604D01*
X8899672Y4638528D01*
X8899674Y4638526D01*
X8899676Y4638523D01*
X8899679Y4638521D01*
X8899684Y4638515D01*
X9019805Y4532098D01*
X9019807Y4532097D01*
X9019809Y4532095D01*
X9161920Y4457509D01*
X9317752Y4419100D01*
X9317754Y4419100D01*
X9478246Y4419100D01*
X9478248Y4419100D01*
X9634080Y4457509D01*
X9776191Y4532095D01*
X9896324Y4638523D01*
X9987496Y4770609D01*
X10044408Y4920675D01*
X10063754Y5080000D01*
X10044408Y5239325D01*
X9987496Y5389391D01*
X9896324Y5521477D01*
X9896320Y5521481D01*
X9896315Y5521486D01*
X9776194Y5627903D01*
X9776188Y5627907D01*
X9634083Y5702490D01*
X9634081Y5702491D01*
X9582135Y5715294D01*
X9478248Y5740900D01*
X9317752Y5740900D01*
X9239836Y5721696D01*
X9161918Y5702491D01*
X9161916Y5702490D01*
X9019811Y5627907D01*
X9019805Y5627903D01*
X8899684Y5521486D01*
X8899672Y5521473D01*
X8808507Y5389397D01*
X8808502Y5389389D01*
X8751593Y5239329D01*
X8751592Y5239327D01*
X8751592Y5239325D01*
X8732246Y5080000D01*
X4416502Y5080000D01*
X4309583Y5148713D01*
X4183964Y5185598D01*
X4183962Y5185598D01*
X4053038Y5185598D01*
X4053035Y5185598D01*
X3927416Y5148713D01*
X3817279Y5077932D01*
X3731540Y4978986D01*
X3731537Y4978981D01*
X3677152Y4859896D01*
X3677152Y4859894D01*
X3677151Y4859892D01*
X3677151Y4859890D01*
X3658518Y4730298D01*
X2339671Y4730298D01*
X2367496Y4770609D01*
X2424408Y4920675D01*
X2443754Y5080000D01*
X2424408Y5239325D01*
X2367496Y5389391D01*
X2276324Y5521477D01*
X2276320Y5521481D01*
X2276315Y5521486D01*
X2156194Y5627903D01*
X2156188Y5627907D01*
X2014083Y5702490D01*
X2014081Y5702491D01*
X1962136Y5715294D01*
X1858248Y5740900D01*
X1697752Y5740900D01*
X1619835Y5721696D01*
X1541918Y5702491D01*
X1541916Y5702490D01*
X1399811Y5627907D01*
X1399805Y5627903D01*
X1279684Y5521486D01*
X1279672Y5521473D01*
X1188507Y5389397D01*
X1188502Y5389389D01*
X1131593Y5239329D01*
X1131592Y5239327D01*
X1131592Y5239325D01*
X1112246Y5080000D01*
X254000Y5080000D01*
X254000Y6521558D01*
X2389026Y6521558D01*
X2407659Y6391966D01*
X2407659Y6391965D01*
X2407660Y6391963D01*
X2407660Y6391961D01*
X2462045Y6272876D01*
X2462048Y6272871D01*
X2493471Y6236608D01*
X2547784Y6173927D01*
X2547786Y6173926D01*
X2547787Y6173925D01*
X2657924Y6103144D01*
X2747290Y6076904D01*
X2783546Y6066258D01*
X2783549Y6066258D01*
X2914467Y6066258D01*
X2914470Y6066258D01*
X3040091Y6103144D01*
X3150232Y6173927D01*
X3235969Y6272873D01*
X3290357Y6391966D01*
X3308990Y6521558D01*
X3290357Y6651150D01*
X3290355Y6651155D01*
X3290355Y6651156D01*
X3235970Y6770241D01*
X3235967Y6770246D01*
X3204651Y6806386D01*
X3150232Y6869189D01*
X3150228Y6869192D01*
X3040091Y6939973D01*
X2914472Y6976858D01*
X2914470Y6976858D01*
X2783546Y6976858D01*
X2783543Y6976858D01*
X2657924Y6939973D01*
X2547787Y6869192D01*
X2462048Y6770246D01*
X2462045Y6770241D01*
X2407660Y6651156D01*
X2407660Y6651154D01*
X2407659Y6651152D01*
X2407659Y6651150D01*
X2389026Y6521558D01*
X254000Y6521558D01*
X254000Y7620000D01*
X1112246Y7620000D01*
X1131592Y7460675D01*
X1131592Y7460673D01*
X1131593Y7460672D01*
X1188502Y7310612D01*
X1188507Y7310604D01*
X1279672Y7178528D01*
X1279674Y7178526D01*
X1279676Y7178523D01*
X1279679Y7178521D01*
X1279684Y7178515D01*
X1399805Y7072098D01*
X1399807Y7072097D01*
X1399809Y7072095D01*
X1541920Y6997509D01*
X1697752Y6959100D01*
X1697754Y6959100D01*
X1858246Y6959100D01*
X1858248Y6959100D01*
X2014080Y6997509D01*
X2156191Y7072095D01*
X2276324Y7178523D01*
X2367496Y7310609D01*
X2397188Y7388902D01*
X3688796Y7388902D01*
X3707429Y7259310D01*
X3707429Y7259309D01*
X3707430Y7259307D01*
X3707430Y7259305D01*
X3761815Y7140220D01*
X3761818Y7140215D01*
X3793241Y7103952D01*
X3847554Y7041271D01*
X3847556Y7041270D01*
X3847557Y7041269D01*
X3957694Y6970488D01*
X4047060Y6944248D01*
X4083316Y6933602D01*
X4083319Y6933602D01*
X4214237Y6933602D01*
X4214240Y6933602D01*
X4339861Y6970488D01*
X4450002Y7041271D01*
X4535739Y7140217D01*
X4590127Y7259310D01*
X4591037Y7265646D01*
X4615327Y7310987D01*
X4663080Y7330109D01*
X4706128Y7318209D01*
X4732616Y7301186D01*
X4821982Y7274946D01*
X4858238Y7264300D01*
X4858241Y7264300D01*
X4989159Y7264300D01*
X4989162Y7264300D01*
X5114783Y7301186D01*
X5224924Y7371969D01*
X5310661Y7470915D01*
X5360661Y7580400D01*
X5890018Y7580400D01*
X5908651Y7450808D01*
X5908651Y7450807D01*
X5908652Y7450805D01*
X5908652Y7450803D01*
X5963037Y7331718D01*
X5963040Y7331713D01*
X5989492Y7301186D01*
X6048776Y7232769D01*
X6048778Y7232768D01*
X6048779Y7232767D01*
X6158916Y7161986D01*
X6248282Y7135746D01*
X6284538Y7125100D01*
X6284541Y7125100D01*
X6415459Y7125100D01*
X6415462Y7125100D01*
X6541083Y7161986D01*
X6638824Y7224800D01*
X7871218Y7224800D01*
X7889851Y7095208D01*
X7889851Y7095207D01*
X7889852Y7095205D01*
X7889852Y7095203D01*
X7944237Y6976118D01*
X7944240Y6976113D01*
X7975556Y6939973D01*
X8029976Y6877169D01*
X8029978Y6877168D01*
X8029979Y6877167D01*
X8140116Y6806386D01*
X8229482Y6780146D01*
X8265738Y6769500D01*
X8265741Y6769500D01*
X8396659Y6769500D01*
X8396662Y6769500D01*
X8522283Y6806386D01*
X8632424Y6877169D01*
X8718161Y6976115D01*
X8772549Y7095208D01*
X8777680Y7130896D01*
X8801973Y7176235D01*
X8849727Y7195354D01*
X8898599Y7179304D01*
X8901980Y7176480D01*
X9019805Y7072098D01*
X9019807Y7072097D01*
X9019809Y7072095D01*
X9161920Y6997509D01*
X9317752Y6959100D01*
X9317754Y6959100D01*
X9478246Y6959100D01*
X9478248Y6959100D01*
X9634080Y6997509D01*
X9776191Y7072095D01*
X9896324Y7178523D01*
X9987496Y7310609D01*
X10044408Y7460675D01*
X10063754Y7620000D01*
X10061349Y7639804D01*
X10072986Y7689909D01*
X10114108Y7720813D01*
X10139960Y7722788D01*
X10139960Y7723500D01*
X10276259Y7723500D01*
X10276262Y7723500D01*
X10401883Y7760386D01*
X10512024Y7831169D01*
X10597761Y7930115D01*
X10652149Y8049208D01*
X10670782Y8178800D01*
X10652149Y8308392D01*
X10652147Y8308397D01*
X10652147Y8308398D01*
X10597762Y8427483D01*
X10597759Y8427488D01*
X10572058Y8457148D01*
X10512024Y8526431D01*
X10512020Y8526434D01*
X10401883Y8597215D01*
X10276264Y8634100D01*
X10276262Y8634100D01*
X10145338Y8634100D01*
X10145335Y8634100D01*
X10019716Y8597215D01*
X9909579Y8526434D01*
X9823840Y8427488D01*
X9823837Y8427483D01*
X9769452Y8308398D01*
X9769450Y8308390D01*
X9766287Y8286393D01*
X9741992Y8241052D01*
X9694237Y8221935D01*
X9656906Y8230511D01*
X9634080Y8242491D01*
X9478248Y8280900D01*
X9317752Y8280900D01*
X9239836Y8261696D01*
X9161918Y8242491D01*
X9161916Y8242490D01*
X9019811Y8167907D01*
X9019805Y8167903D01*
X8899684Y8061486D01*
X8899672Y8061473D01*
X8808507Y7929397D01*
X8808502Y7929389D01*
X8751593Y7779329D01*
X8751592Y7779327D01*
X8751592Y7779325D01*
X8744727Y7722788D01*
X8734113Y7635381D01*
X8710820Y7589516D01*
X8663497Y7569354D01*
X8618805Y7581184D01*
X8522283Y7643215D01*
X8396664Y7680100D01*
X8396662Y7680100D01*
X8265738Y7680100D01*
X8265735Y7680100D01*
X8140116Y7643215D01*
X8029979Y7572434D01*
X7944240Y7473488D01*
X7944237Y7473483D01*
X7889852Y7354398D01*
X7889852Y7354396D01*
X7889851Y7354394D01*
X7889851Y7354392D01*
X7871218Y7224800D01*
X6638824Y7224800D01*
X6651224Y7232769D01*
X6736961Y7331715D01*
X6791349Y7450808D01*
X6809982Y7580400D01*
X6791349Y7709992D01*
X6791347Y7709997D01*
X6791347Y7709998D01*
X6736962Y7829083D01*
X6736959Y7829088D01*
X6711258Y7858748D01*
X6651224Y7928031D01*
X6651220Y7928034D01*
X6541083Y7998815D01*
X6415464Y8035700D01*
X6415462Y8035700D01*
X6284538Y8035700D01*
X6284535Y8035700D01*
X6158916Y7998815D01*
X6048779Y7928034D01*
X5963040Y7829088D01*
X5963037Y7829083D01*
X5908652Y7709998D01*
X5908652Y7709996D01*
X5908651Y7709994D01*
X5908651Y7709992D01*
X5890018Y7580400D01*
X5360661Y7580400D01*
X5361019Y7581184D01*
X5365047Y7590003D01*
X5365047Y7590004D01*
X5365049Y7590008D01*
X5383682Y7719600D01*
X5365049Y7849192D01*
X5365047Y7849197D01*
X5365047Y7849198D01*
X5310662Y7968283D01*
X5310659Y7968288D01*
X5284207Y7998815D01*
X5224924Y8067231D01*
X5224920Y8067234D01*
X5114783Y8138015D01*
X4989164Y8174900D01*
X4989162Y8174900D01*
X4858238Y8174900D01*
X4858235Y8174900D01*
X4732616Y8138015D01*
X4622479Y8067234D01*
X4536740Y7968288D01*
X4536737Y7968283D01*
X4482352Y7849198D01*
X4482350Y7849191D01*
X4481439Y7842852D01*
X4457145Y7797511D01*
X4409389Y7778394D01*
X4366349Y7790294D01*
X4339861Y7807317D01*
X4214242Y7844202D01*
X4214240Y7844202D01*
X4083316Y7844202D01*
X4083313Y7844202D01*
X3957694Y7807317D01*
X3847557Y7736536D01*
X3761818Y7637590D01*
X3761815Y7637585D01*
X3707430Y7518500D01*
X3707430Y7518498D01*
X3707429Y7518496D01*
X3707429Y7518494D01*
X3688796Y7388902D01*
X2397188Y7388902D01*
X2424408Y7460675D01*
X2443754Y7620000D01*
X2424408Y7779325D01*
X2367496Y7929391D01*
X2340650Y7968285D01*
X2276327Y8061473D01*
X2276326Y8061475D01*
X2276324Y8061477D01*
X2276320Y8061481D01*
X2276315Y8061486D01*
X2156194Y8167903D01*
X2156188Y8167907D01*
X2014083Y8242490D01*
X2014081Y8242491D01*
X1962136Y8255294D01*
X1858248Y8280900D01*
X1697752Y8280900D01*
X1619835Y8261696D01*
X1541918Y8242491D01*
X1541916Y8242490D01*
X1399811Y8167907D01*
X1399805Y8167903D01*
X1279684Y8061486D01*
X1279672Y8061473D01*
X1188507Y7929397D01*
X1188502Y7929389D01*
X1131593Y7779329D01*
X1131592Y7779327D01*
X1131592Y7779325D01*
X1112246Y7620000D01*
X254000Y7620000D01*
X254000Y10160000D01*
X1112246Y10160000D01*
X1131592Y10000675D01*
X1131592Y10000673D01*
X1131593Y10000672D01*
X1188502Y9850612D01*
X1188507Y9850604D01*
X1279672Y9718528D01*
X1279674Y9718526D01*
X1279676Y9718523D01*
X1279679Y9718521D01*
X1279684Y9718515D01*
X1399805Y9612098D01*
X1399811Y9612094D01*
X1537158Y9540008D01*
X1541920Y9537509D01*
X1697752Y9499100D01*
X1697754Y9499100D01*
X1858246Y9499100D01*
X1858248Y9499100D01*
X2014080Y9537509D01*
X2156191Y9612095D01*
X2276324Y9718523D01*
X2367496Y9850609D01*
X2424408Y10000675D01*
X2443754Y10160000D01*
X2424408Y10319325D01*
X2367496Y10469391D01*
X2287970Y10584605D01*
X2276327Y10601473D01*
X2276326Y10601475D01*
X2276324Y10601477D01*
X2276320Y10601481D01*
X2276315Y10601486D01*
X2156194Y10707903D01*
X2156188Y10707907D01*
X2144194Y10714202D01*
X2851578Y10714202D01*
X2870211Y10584610D01*
X2870211Y10584609D01*
X2870212Y10584607D01*
X2870212Y10584605D01*
X2924597Y10465520D01*
X2924600Y10465515D01*
X2956023Y10429251D01*
X3010336Y10366571D01*
X3010338Y10366570D01*
X3010339Y10366569D01*
X3120476Y10295788D01*
X3209739Y10269578D01*
X3246098Y10258902D01*
X3246101Y10258902D01*
X3377019Y10258902D01*
X3377022Y10258902D01*
X3502643Y10295788D01*
X3612784Y10366571D01*
X3698521Y10465517D01*
X3738883Y10553897D01*
X5100218Y10553897D01*
X5118851Y10424305D01*
X5118851Y10424304D01*
X5118852Y10424302D01*
X5118852Y10424300D01*
X5173237Y10305215D01*
X5173240Y10305210D01*
X5204116Y10269578D01*
X5258976Y10206266D01*
X5258978Y10206265D01*
X5258979Y10206264D01*
X5311505Y10172507D01*
X5342658Y10131574D01*
X5340210Y10080192D01*
X5311505Y10045983D01*
X5266771Y10017235D01*
X5181032Y9918288D01*
X5181029Y9918283D01*
X5126644Y9799198D01*
X5126644Y9799196D01*
X5126643Y9799194D01*
X5126643Y9799192D01*
X5108010Y9669600D01*
X5126643Y9540008D01*
X5126643Y9540007D01*
X5126644Y9540005D01*
X5126644Y9540003D01*
X5181029Y9420918D01*
X5181032Y9420913D01*
X5212455Y9384649D01*
X5266768Y9321969D01*
X5266770Y9321968D01*
X5266771Y9321967D01*
X5376908Y9251186D01*
X5466274Y9224946D01*
X5502530Y9214300D01*
X5502533Y9214300D01*
X5633451Y9214300D01*
X5633454Y9214300D01*
X5759075Y9251186D01*
X5869216Y9321969D01*
X5954953Y9420915D01*
X6009341Y9540008D01*
X6027974Y9669600D01*
X6009341Y9799192D01*
X6009339Y9799197D01*
X6009339Y9799198D01*
X5954954Y9918283D01*
X5954951Y9918288D01*
X5883564Y10000672D01*
X5869216Y10017231D01*
X5869214Y10017232D01*
X5869212Y10017235D01*
X5816686Y10050991D01*
X5785533Y10091925D01*
X5787981Y10143306D01*
X5801989Y10160000D01*
X8732246Y10160000D01*
X8751592Y10000675D01*
X8751592Y10000673D01*
X8751593Y10000672D01*
X8808502Y9850612D01*
X8808507Y9850604D01*
X8899672Y9718528D01*
X8899674Y9718526D01*
X8899676Y9718523D01*
X8899679Y9718521D01*
X8899684Y9718515D01*
X9019805Y9612098D01*
X9019811Y9612094D01*
X9157158Y9540008D01*
X9161920Y9537509D01*
X9317752Y9499100D01*
X9317754Y9499100D01*
X9478246Y9499100D01*
X9478248Y9499100D01*
X9634080Y9537509D01*
X9776191Y9612095D01*
X9896324Y9718523D01*
X9987496Y9850609D01*
X10044408Y10000675D01*
X10063754Y10160000D01*
X10044408Y10319325D01*
X9987496Y10469391D01*
X9907970Y10584605D01*
X9896327Y10601473D01*
X9896326Y10601475D01*
X9896324Y10601477D01*
X9896320Y10601481D01*
X9896315Y10601486D01*
X9776194Y10707903D01*
X9776188Y10707907D01*
X9634083Y10782490D01*
X9634081Y10782491D01*
X9552555Y10802585D01*
X9478248Y10820900D01*
X9317752Y10820900D01*
X9243445Y10802585D01*
X9161918Y10782491D01*
X9161916Y10782490D01*
X9019811Y10707907D01*
X9019805Y10707903D01*
X8899684Y10601486D01*
X8899672Y10601473D01*
X8808507Y10469397D01*
X8808502Y10469389D01*
X8751593Y10319329D01*
X8751592Y10319327D01*
X8751592Y10319325D01*
X8732246Y10160000D01*
X5801989Y10160000D01*
X5816685Y10177515D01*
X5861424Y10206266D01*
X5947161Y10305212D01*
X6001549Y10424305D01*
X6020182Y10553897D01*
X6001549Y10683489D01*
X6001547Y10683494D01*
X6001547Y10683495D01*
X5982648Y10724877D01*
X6962741Y10724877D01*
X6981374Y10595285D01*
X6981374Y10595284D01*
X6981375Y10595282D01*
X6981375Y10595280D01*
X7035760Y10476195D01*
X7035763Y10476190D01*
X7067186Y10439927D01*
X7121499Y10377246D01*
X7121501Y10377245D01*
X7121502Y10377244D01*
X7231639Y10306463D01*
X7267995Y10295788D01*
X7357261Y10269577D01*
X7357264Y10269577D01*
X7488182Y10269577D01*
X7488185Y10269577D01*
X7613806Y10306463D01*
X7723947Y10377246D01*
X7809684Y10476192D01*
X7864072Y10595285D01*
X7882705Y10724877D01*
X7864072Y10854469D01*
X7864070Y10854474D01*
X7864070Y10854475D01*
X7809685Y10973560D01*
X7809682Y10973565D01*
X7778806Y11009197D01*
X7723947Y11072508D01*
X7723943Y11072511D01*
X7613806Y11143292D01*
X7488187Y11180177D01*
X7488185Y11180177D01*
X7357261Y11180177D01*
X7357258Y11180177D01*
X7231639Y11143292D01*
X7121502Y11072511D01*
X7035763Y10973565D01*
X7035760Y10973560D01*
X6981375Y10854475D01*
X6981375Y10854473D01*
X6981374Y10854471D01*
X6981374Y10854469D01*
X6962741Y10724877D01*
X5982648Y10724877D01*
X5947162Y10802580D01*
X5947159Y10802585D01*
X5921458Y10832245D01*
X5861424Y10901528D01*
X5861420Y10901531D01*
X5751283Y10972312D01*
X5625664Y11009197D01*
X5625662Y11009197D01*
X5494738Y11009197D01*
X5494735Y11009197D01*
X5369116Y10972312D01*
X5258979Y10901531D01*
X5173240Y10802585D01*
X5173237Y10802580D01*
X5118852Y10683495D01*
X5118852Y10683493D01*
X5118851Y10683491D01*
X5118851Y10683489D01*
X5100218Y10553897D01*
X3738883Y10553897D01*
X3752909Y10584610D01*
X3771542Y10714202D01*
X3752909Y10843794D01*
X3752907Y10843799D01*
X3752907Y10843800D01*
X3698522Y10962885D01*
X3698519Y10962890D01*
X3658393Y11009197D01*
X3612784Y11061833D01*
X3612780Y11061836D01*
X3502643Y11132617D01*
X3377024Y11169502D01*
X3377022Y11169502D01*
X3246098Y11169502D01*
X3246095Y11169502D01*
X3120476Y11132617D01*
X3010339Y11061836D01*
X3010336Y11061834D01*
X3010336Y11061833D01*
X3000863Y11050900D01*
X2924600Y10962890D01*
X2924597Y10962885D01*
X2870212Y10843800D01*
X2870212Y10843798D01*
X2870211Y10843796D01*
X2870211Y10843794D01*
X2851578Y10714202D01*
X2144194Y10714202D01*
X2014083Y10782490D01*
X2014081Y10782491D01*
X1932555Y10802585D01*
X1858248Y10820900D01*
X1697752Y10820900D01*
X1623445Y10802585D01*
X1541918Y10782491D01*
X1541916Y10782490D01*
X1399811Y10707907D01*
X1399805Y10707903D01*
X1279684Y10601486D01*
X1279672Y10601473D01*
X1188507Y10469397D01*
X1188502Y10469389D01*
X1131593Y10319329D01*
X1131592Y10319327D01*
X1131592Y10319325D01*
X1112246Y10160000D01*
X254000Y10160000D01*
X254000Y11526249D01*
X610318Y11526249D01*
X628951Y11396657D01*
X628951Y11396656D01*
X628952Y11396654D01*
X628952Y11396652D01*
X683337Y11277567D01*
X683340Y11277562D01*
X700713Y11257513D01*
X769076Y11178618D01*
X769078Y11178617D01*
X769079Y11178616D01*
X879216Y11107835D01*
X947497Y11087786D01*
X1004838Y11070949D01*
X1004841Y11070949D01*
X1135759Y11070949D01*
X1135762Y11070949D01*
X1261383Y11107835D01*
X1371524Y11178618D01*
X1457261Y11277564D01*
X1511649Y11396657D01*
X1527399Y11506200D01*
X2105418Y11506200D01*
X2124051Y11376608D01*
X2124051Y11376607D01*
X2124052Y11376605D01*
X2124052Y11376603D01*
X2178437Y11257518D01*
X2178440Y11257513D01*
X2209863Y11221249D01*
X2264176Y11158569D01*
X2264178Y11158568D01*
X2264179Y11158567D01*
X2374316Y11087786D01*
X2431658Y11070949D01*
X2499938Y11050900D01*
X2499941Y11050900D01*
X2630859Y11050900D01*
X2630862Y11050900D01*
X2756483Y11087786D01*
X2866624Y11158569D01*
X2952361Y11257515D01*
X3006749Y11376608D01*
X3025382Y11506200D01*
X3006749Y11635792D01*
X3006747Y11635797D01*
X3006747Y11635798D01*
X2952362Y11754883D01*
X2952359Y11754888D01*
X2926658Y11784548D01*
X2866624Y11853831D01*
X2866620Y11853834D01*
X2756483Y11924615D01*
X2630864Y11961500D01*
X2630862Y11961500D01*
X2499938Y11961500D01*
X2499935Y11961500D01*
X2374316Y11924615D01*
X2264179Y11853834D01*
X2178440Y11754888D01*
X2178437Y11754883D01*
X2124052Y11635798D01*
X2124052Y11635796D01*
X2124051Y11635794D01*
X2124051Y11635792D01*
X2105418Y11506200D01*
X1527399Y11506200D01*
X1530282Y11526249D01*
X1511649Y11655841D01*
X1511647Y11655846D01*
X1511647Y11655847D01*
X1457262Y11774932D01*
X1457259Y11774937D01*
X1431558Y11804597D01*
X1371524Y11873880D01*
X1371520Y11873883D01*
X1261383Y11944664D01*
X1135764Y11981549D01*
X1135762Y11981549D01*
X1004838Y11981549D01*
X1004835Y11981549D01*
X879216Y11944664D01*
X769079Y11873883D01*
X683340Y11774937D01*
X683337Y11774932D01*
X628952Y11655847D01*
X628952Y11655845D01*
X628951Y11655843D01*
X628951Y11655841D01*
X610318Y11526249D01*
X254000Y11526249D01*
X254000Y13411200D01*
X655218Y13411200D01*
X673851Y13281608D01*
X673851Y13281607D01*
X673852Y13281605D01*
X673852Y13281603D01*
X728237Y13162518D01*
X728240Y13162513D01*
X746468Y13141477D01*
X813976Y13063569D01*
X813978Y13063568D01*
X813979Y13063567D01*
X924116Y12992786D01*
X997686Y12971184D01*
X1049738Y12955900D01*
X1059410Y12955900D01*
X1107748Y12938307D01*
X1133468Y12893758D01*
X1132425Y12862706D01*
X1131593Y12859333D01*
X1131592Y12859326D01*
X1131592Y12859325D01*
X1112246Y12700000D01*
X1131592Y12540675D01*
X1131592Y12540673D01*
X1131593Y12540672D01*
X1188502Y12390612D01*
X1188507Y12390604D01*
X1279672Y12258528D01*
X1279674Y12258526D01*
X1279676Y12258523D01*
X1279679Y12258521D01*
X1279684Y12258515D01*
X1399805Y12152098D01*
X1399807Y12152097D01*
X1399809Y12152095D01*
X1541920Y12077509D01*
X1697752Y12039100D01*
X1697754Y12039100D01*
X1858246Y12039100D01*
X1858248Y12039100D01*
X2014080Y12077509D01*
X2156191Y12152095D01*
X2276324Y12258523D01*
X2367496Y12390609D01*
X2424408Y12540675D01*
X2430907Y12594200D01*
X3250079Y12594200D01*
X3268712Y12464608D01*
X3268712Y12464607D01*
X3268713Y12464605D01*
X3268713Y12464603D01*
X3323098Y12345518D01*
X3323101Y12345513D01*
X3354524Y12309249D01*
X3408837Y12246569D01*
X3408839Y12246568D01*
X3408840Y12246567D01*
X3518977Y12175786D01*
X3599651Y12152098D01*
X3644599Y12138900D01*
X3644602Y12138900D01*
X3775520Y12138900D01*
X3775523Y12138900D01*
X3901144Y12175786D01*
X4011285Y12246569D01*
X4097022Y12345515D01*
X4140297Y12440274D01*
X4151408Y12464603D01*
X4151408Y12464604D01*
X4151410Y12464608D01*
X4170043Y12594200D01*
X4169963Y12594755D01*
X5434765Y12594755D01*
X5453398Y12465163D01*
X5453398Y12465162D01*
X5453399Y12465160D01*
X5453399Y12465158D01*
X5507784Y12346073D01*
X5507787Y12346068D01*
X5539210Y12309805D01*
X5593523Y12247124D01*
X5593525Y12247123D01*
X5593526Y12247122D01*
X5703663Y12176341D01*
X5786241Y12152094D01*
X5829285Y12139455D01*
X5829288Y12139455D01*
X5960206Y12139455D01*
X5960209Y12139455D01*
X6085830Y12176341D01*
X6195971Y12247124D01*
X6281708Y12346070D01*
X6321243Y12432641D01*
X6357325Y12469299D01*
X6408532Y12474189D01*
X6410835Y12473553D01*
X6524169Y12440274D01*
X6524172Y12440274D01*
X6655090Y12440274D01*
X6655093Y12440274D01*
X6780714Y12477160D01*
X6780718Y12477164D01*
X6785288Y12479249D01*
X6836566Y12483329D01*
X6878470Y12453494D01*
X6884936Y12442087D01*
X6924113Y12356302D01*
X6924115Y12356299D01*
X6955538Y12320035D01*
X7009851Y12257355D01*
X7009853Y12257354D01*
X7009854Y12257353D01*
X7119991Y12186572D01*
X7154835Y12176341D01*
X7245613Y12149686D01*
X7245616Y12149686D01*
X7376534Y12149686D01*
X7376537Y12149686D01*
X7502158Y12186572D01*
X7612295Y12257352D01*
X7612295Y12257353D01*
X7612299Y12257355D01*
X7635373Y12283985D01*
X7680321Y12308993D01*
X7730832Y12299259D01*
X7749033Y12283987D01*
X7772111Y12257353D01*
X7776779Y12251966D01*
X7886916Y12181186D01*
X7976282Y12154946D01*
X8012538Y12144300D01*
X8012541Y12144300D01*
X8143459Y12144300D01*
X8143462Y12144300D01*
X8269083Y12181186D01*
X8379224Y12251969D01*
X8464961Y12350915D01*
X8505770Y12440274D01*
X8519347Y12470003D01*
X8519347Y12470004D01*
X8519349Y12470008D01*
X8537982Y12599600D01*
X8523546Y12700000D01*
X8732246Y12700000D01*
X8751592Y12540675D01*
X8751592Y12540673D01*
X8751593Y12540672D01*
X8808502Y12390612D01*
X8808507Y12390604D01*
X8899672Y12258528D01*
X8899674Y12258526D01*
X8899676Y12258523D01*
X8899679Y12258521D01*
X8899684Y12258515D01*
X9019805Y12152098D01*
X9019807Y12152097D01*
X9019809Y12152095D01*
X9161920Y12077509D01*
X9317752Y12039100D01*
X9317754Y12039100D01*
X9478246Y12039100D01*
X9478248Y12039100D01*
X9634080Y12077509D01*
X9776191Y12152095D01*
X9896324Y12258523D01*
X9987496Y12390609D01*
X10044408Y12540675D01*
X10062201Y12687212D01*
X10085492Y12733074D01*
X10132816Y12753237D01*
X10158036Y12750300D01*
X10212538Y12734296D01*
X10212541Y12734296D01*
X10343459Y12734296D01*
X10343462Y12734296D01*
X10469083Y12771182D01*
X10579224Y12841965D01*
X10664961Y12940911D01*
X10701678Y13021309D01*
X10719347Y13059999D01*
X10719347Y13060000D01*
X10719349Y13060004D01*
X10737982Y13189596D01*
X10719349Y13319188D01*
X10719347Y13319193D01*
X10719347Y13319194D01*
X10664962Y13438279D01*
X10664959Y13438284D01*
X10588058Y13527032D01*
X10579224Y13537227D01*
X10579222Y13537228D01*
X10579220Y13537231D01*
X10574707Y13540131D01*
X10543554Y13581065D01*
X10546002Y13632446D01*
X10558526Y13652632D01*
X10635435Y13741389D01*
X10689823Y13860482D01*
X10708456Y13990074D01*
X10689823Y14119666D01*
X10689821Y14119671D01*
X10689821Y14119672D01*
X10635436Y14238757D01*
X10635433Y14238762D01*
X10609732Y14268422D01*
X10549698Y14337705D01*
X10549694Y14337708D01*
X10439557Y14408489D01*
X10313938Y14445374D01*
X10313936Y14445374D01*
X10183012Y14445374D01*
X10183009Y14445374D01*
X10057390Y14408489D01*
X9947253Y14337708D01*
X9861514Y14238762D01*
X9861511Y14238757D01*
X9807126Y14119672D01*
X9807126Y14119670D01*
X9807125Y14119668D01*
X9807125Y14119666D01*
X9788492Y13990074D01*
X9807125Y13860482D01*
X9807125Y13860481D01*
X9807126Y13860479D01*
X9807126Y13860477D01*
X9861511Y13741392D01*
X9861514Y13741387D01*
X9895184Y13702530D01*
X9947250Y13642443D01*
X9947252Y13642442D01*
X9951765Y13639541D01*
X9982918Y13598608D01*
X9980472Y13547226D01*
X9967942Y13527032D01*
X9891040Y13438284D01*
X9891037Y13438279D01*
X9836649Y13319187D01*
X9836291Y13317966D01*
X9835767Y13317255D01*
X9834416Y13314296D01*
X9833796Y13314579D01*
X9805789Y13276545D01*
X9755798Y13264422D01*
X9729193Y13272572D01*
X9634080Y13322491D01*
X9478248Y13360900D01*
X9317752Y13360900D01*
X9239836Y13341696D01*
X9161918Y13322491D01*
X9161916Y13322490D01*
X9019811Y13247907D01*
X9019805Y13247903D01*
X8899684Y13141486D01*
X8899672Y13141473D01*
X8808507Y13009397D01*
X8808502Y13009389D01*
X8751593Y12859329D01*
X8751592Y12859327D01*
X8751592Y12859325D01*
X8732246Y12700000D01*
X8523546Y12700000D01*
X8519349Y12729192D01*
X8519347Y12729197D01*
X8519347Y12729198D01*
X8464962Y12848283D01*
X8464959Y12848288D01*
X8439258Y12877948D01*
X8379224Y12947231D01*
X8379220Y12947234D01*
X8269083Y13018015D01*
X8143464Y13054900D01*
X8143462Y13054900D01*
X8012538Y13054900D01*
X8012535Y13054900D01*
X7886916Y13018015D01*
X7776777Y12947234D01*
X7776775Y12947232D01*
X7753701Y12920603D01*
X7708750Y12895594D01*
X7658240Y12905331D01*
X7640038Y12920604D01*
X7612299Y12952617D01*
X7612297Y12952618D01*
X7612295Y12952621D01*
X7502158Y13023401D01*
X7376539Y13060286D01*
X7376537Y13060286D01*
X7245613Y13060286D01*
X7245610Y13060286D01*
X7119995Y13023402D01*
X7115414Y13021309D01*
X7064136Y13017232D01*
X7022234Y13047069D01*
X7015769Y13058474D01*
X6976593Y13144257D01*
X6976590Y13144262D01*
X6937307Y13189596D01*
X6890855Y13243205D01*
X6890851Y13243208D01*
X6780714Y13313989D01*
X6655095Y13350874D01*
X6655093Y13350874D01*
X6524169Y13350874D01*
X6524166Y13350874D01*
X6398547Y13313989D01*
X6288410Y13243208D01*
X6202671Y13144262D01*
X6202669Y13144259D01*
X6163135Y13057691D01*
X6127051Y13021031D01*
X6075844Y13016141D01*
X6073545Y13016777D01*
X5960211Y13050055D01*
X5960209Y13050055D01*
X5829285Y13050055D01*
X5829282Y13050055D01*
X5703663Y13013170D01*
X5593526Y12942389D01*
X5593523Y12942387D01*
X5593523Y12942386D01*
X5589989Y12938307D01*
X5507787Y12843443D01*
X5507784Y12843438D01*
X5453399Y12724353D01*
X5453399Y12724351D01*
X5453398Y12724349D01*
X5453398Y12724347D01*
X5434765Y12594755D01*
X4169963Y12594755D01*
X4151410Y12723792D01*
X4151408Y12723797D01*
X4151408Y12723798D01*
X4097023Y12842883D01*
X4097020Y12842888D01*
X4042912Y12905331D01*
X4011285Y12941831D01*
X4011281Y12941834D01*
X3901144Y13012615D01*
X3775525Y13049500D01*
X3775523Y13049500D01*
X3644599Y13049500D01*
X3644596Y13049500D01*
X3518977Y13012615D01*
X3408840Y12941834D01*
X3408837Y12941832D01*
X3408837Y12941831D01*
X3391671Y12922021D01*
X3323101Y12842888D01*
X3323098Y12842883D01*
X3268713Y12723798D01*
X3268713Y12723796D01*
X3268712Y12723794D01*
X3268712Y12723792D01*
X3250079Y12594200D01*
X2430907Y12594200D01*
X2443754Y12700000D01*
X2424408Y12859325D01*
X2379612Y12977444D01*
X2367497Y13009389D01*
X2367492Y13009397D01*
X2276327Y13141473D01*
X2276326Y13141475D01*
X2276324Y13141477D01*
X2276320Y13141481D01*
X2276315Y13141486D01*
X2156194Y13247903D01*
X2156188Y13247907D01*
X2014083Y13322490D01*
X2014081Y13322491D01*
X1962135Y13335294D01*
X1858248Y13360900D01*
X1697752Y13360900D01*
X1697751Y13360900D01*
X1666973Y13353315D01*
X1615830Y13358831D01*
X1580197Y13395930D01*
X1574546Y13415619D01*
X1556549Y13540792D01*
X1556547Y13540797D01*
X1556547Y13540798D01*
X1502162Y13659883D01*
X1502159Y13659888D01*
X1476458Y13689548D01*
X1416424Y13758831D01*
X1416420Y13758834D01*
X1306283Y13829615D01*
X1180664Y13866500D01*
X1180662Y13866500D01*
X1049738Y13866500D01*
X1049735Y13866500D01*
X924116Y13829615D01*
X813979Y13758834D01*
X813976Y13758832D01*
X813976Y13758831D01*
X798861Y13741387D01*
X728240Y13659888D01*
X728237Y13659883D01*
X673852Y13540798D01*
X673852Y13540796D01*
X673851Y13540794D01*
X673851Y13540792D01*
X655218Y13411200D01*
X254000Y13411200D01*
X254000Y15989353D01*
X701518Y15989353D01*
X720151Y15859761D01*
X720151Y15859760D01*
X720152Y15859758D01*
X720152Y15859756D01*
X774537Y15740671D01*
X774540Y15740666D01*
X792993Y15719371D01*
X860276Y15641722D01*
X860278Y15641721D01*
X860279Y15641720D01*
X970416Y15570939D01*
X1005935Y15560510D01*
X1096038Y15534053D01*
X1096041Y15534053D01*
X1096078Y15534042D01*
X1137501Y15503543D01*
X1149629Y15453553D01*
X1145206Y15435223D01*
X1131592Y15399327D01*
X1127434Y15365084D01*
X1112246Y15240000D01*
X1131592Y15080675D01*
X1131592Y15080673D01*
X1131593Y15080672D01*
X1188502Y14930612D01*
X1188507Y14930604D01*
X1279672Y14798528D01*
X1279674Y14798526D01*
X1279676Y14798523D01*
X1279679Y14798521D01*
X1279684Y14798515D01*
X1399805Y14692098D01*
X1399807Y14692097D01*
X1399809Y14692095D01*
X1541920Y14617509D01*
X1697752Y14579100D01*
X1697754Y14579100D01*
X1858246Y14579100D01*
X1858248Y14579100D01*
X2014080Y14617509D01*
X2156191Y14692095D01*
X2179788Y14713000D01*
X7414012Y14713000D01*
X7432645Y14583408D01*
X7432645Y14583407D01*
X7432646Y14583405D01*
X7432646Y14583403D01*
X7487031Y14464318D01*
X7487034Y14464313D01*
X7503445Y14445374D01*
X7572770Y14365369D01*
X7572772Y14365368D01*
X7572773Y14365367D01*
X7682910Y14294586D01*
X7772276Y14268346D01*
X7808532Y14257700D01*
X7808535Y14257700D01*
X7939453Y14257700D01*
X7939456Y14257700D01*
X8065077Y14294586D01*
X8175218Y14365369D01*
X8260955Y14464315D01*
X8315343Y14583408D01*
X8333976Y14713000D01*
X8315343Y14842592D01*
X8315341Y14842597D01*
X8315341Y14842598D01*
X8260956Y14961683D01*
X8260953Y14961688D01*
X8235252Y14991348D01*
X8175218Y15060631D01*
X8175214Y15060634D01*
X8065077Y15131415D01*
X7939458Y15168300D01*
X7939456Y15168300D01*
X7808532Y15168300D01*
X7808529Y15168300D01*
X7682910Y15131415D01*
X7572773Y15060634D01*
X7487034Y14961688D01*
X7487031Y14961683D01*
X7432646Y14842598D01*
X7432646Y14842596D01*
X7432645Y14842594D01*
X7432645Y14842592D01*
X7414012Y14713000D01*
X2179788Y14713000D01*
X2276324Y14798523D01*
X2367496Y14930609D01*
X2424408Y15080675D01*
X2443754Y15240000D01*
X8732246Y15240000D01*
X8751592Y15080675D01*
X8751592Y15080673D01*
X8751593Y15080672D01*
X8808502Y14930612D01*
X8808507Y14930604D01*
X8899672Y14798528D01*
X8899674Y14798526D01*
X8899676Y14798523D01*
X8899679Y14798521D01*
X8899684Y14798515D01*
X9019805Y14692098D01*
X9019807Y14692097D01*
X9019809Y14692095D01*
X9161920Y14617509D01*
X9317752Y14579100D01*
X9317754Y14579100D01*
X9478246Y14579100D01*
X9478248Y14579100D01*
X9634080Y14617509D01*
X9776191Y14692095D01*
X9896324Y14798523D01*
X9987496Y14930609D01*
X10044408Y15080675D01*
X10063754Y15240000D01*
X10054649Y15314981D01*
X10066288Y15365084D01*
X10107411Y15395986D01*
X10150485Y15396197D01*
X10232538Y15372104D01*
X10232541Y15372104D01*
X10363459Y15372104D01*
X10363462Y15372104D01*
X10489083Y15408990D01*
X10599224Y15479773D01*
X10684961Y15578719D01*
X10739349Y15697812D01*
X10757982Y15827404D01*
X10739349Y15956996D01*
X10739347Y15957001D01*
X10739347Y15957002D01*
X10684962Y16076087D01*
X10684959Y16076092D01*
X10647826Y16118945D01*
X10599224Y16175035D01*
X10599220Y16175038D01*
X10489083Y16245819D01*
X10363464Y16282704D01*
X10363462Y16282704D01*
X10232538Y16282704D01*
X10232535Y16282704D01*
X10106916Y16245819D01*
X9996779Y16175038D01*
X9911040Y16076092D01*
X9911037Y16076087D01*
X9856652Y15957002D01*
X9856650Y15956994D01*
X9843544Y15865846D01*
X9819250Y15820504D01*
X9771495Y15801387D01*
X9734164Y15809963D01*
X9634080Y15862491D01*
X9478248Y15900900D01*
X9317752Y15900900D01*
X9239836Y15881696D01*
X9161918Y15862491D01*
X9161916Y15862490D01*
X9019811Y15787907D01*
X9019805Y15787903D01*
X8899684Y15681486D01*
X8899672Y15681473D01*
X8808507Y15549397D01*
X8808502Y15549389D01*
X8751593Y15399329D01*
X8751592Y15399327D01*
X8751592Y15399325D01*
X8732246Y15240000D01*
X2443754Y15240000D01*
X2424408Y15399325D01*
X2367496Y15549391D01*
X2347254Y15578717D01*
X2276327Y15681473D01*
X2276326Y15681475D01*
X2276324Y15681477D01*
X2276320Y15681481D01*
X2276315Y15681486D01*
X2156194Y15787903D01*
X2156188Y15787907D01*
X2014083Y15862490D01*
X2014081Y15862491D01*
X1950504Y15878161D01*
X1858248Y15900900D01*
X1697752Y15900900D01*
X1695550Y15900900D01*
X1647212Y15918493D01*
X1621492Y15963042D01*
X1621115Y15986801D01*
X1621482Y15989353D01*
X1602849Y16118945D01*
X1602847Y16118950D01*
X1602847Y16118951D01*
X1548758Y16237387D01*
X5153212Y16237387D01*
X5171845Y16107795D01*
X5171845Y16107794D01*
X5171846Y16107792D01*
X5171846Y16107790D01*
X5226231Y15988705D01*
X5226234Y15988700D01*
X5227880Y15986801D01*
X5311970Y15889756D01*
X5311972Y15889755D01*
X5311973Y15889754D01*
X5422110Y15818973D01*
X5482003Y15801387D01*
X5547732Y15782087D01*
X5547735Y15782087D01*
X5678653Y15782087D01*
X5678656Y15782087D01*
X5804277Y15818973D01*
X5914418Y15889756D01*
X6000155Y15988702D01*
X6030953Y16056141D01*
X6054541Y16107790D01*
X6054541Y16107791D01*
X6054543Y16107795D01*
X6073176Y16237387D01*
X6054543Y16366979D01*
X6054541Y16366984D01*
X6054541Y16366985D01*
X6000156Y16486070D01*
X6000153Y16486075D01*
X5938651Y16557052D01*
X5920292Y16605105D01*
X5937117Y16653715D01*
X5954825Y16669559D01*
X5992868Y16694007D01*
X6078605Y16792953D01*
X6132993Y16912046D01*
X6151626Y17041638D01*
X6144339Y17092322D01*
X8256802Y17092322D01*
X8275435Y16962730D01*
X8275435Y16962729D01*
X8275436Y16962727D01*
X8275436Y16962725D01*
X8329821Y16843640D01*
X8329824Y16843635D01*
X8361247Y16807371D01*
X8415560Y16744691D01*
X8415562Y16744690D01*
X8415563Y16744689D01*
X8525700Y16673908D01*
X8587367Y16655801D01*
X8651322Y16637022D01*
X8651325Y16637022D01*
X8782243Y16637022D01*
X8782246Y16637022D01*
X8907867Y16673908D01*
X9018008Y16744691D01*
X9103745Y16843637D01*
X9158133Y16962730D01*
X9173494Y17069566D01*
X9197786Y17114904D01*
X9245541Y17134022D01*
X9265921Y17131876D01*
X9317752Y17119100D01*
X9317754Y17119100D01*
X9478246Y17119100D01*
X9478248Y17119100D01*
X9634080Y17157509D01*
X9776191Y17232095D01*
X9896324Y17338523D01*
X9987496Y17470609D01*
X10044408Y17620675D01*
X10063754Y17780000D01*
X10044408Y17939325D01*
X9987496Y18089391D01*
X9987492Y18089397D01*
X9896327Y18221473D01*
X9896326Y18221475D01*
X9896324Y18221477D01*
X9896320Y18221481D01*
X9896315Y18221486D01*
X9776194Y18327903D01*
X9776188Y18327907D01*
X9634083Y18402490D01*
X9634081Y18402491D01*
X9582135Y18415294D01*
X9478248Y18440900D01*
X9317752Y18440900D01*
X9239836Y18421696D01*
X9161918Y18402491D01*
X9161916Y18402490D01*
X9019811Y18327907D01*
X9019805Y18327903D01*
X8899684Y18221486D01*
X8899672Y18221473D01*
X8808507Y18089397D01*
X8808502Y18089389D01*
X8751593Y17939329D01*
X8751592Y17939327D01*
X8751592Y17939325D01*
X8732246Y17780000D01*
X8743377Y17688326D01*
X8750231Y17631887D01*
X8738592Y17581781D01*
X8697469Y17550878D01*
X8675579Y17547622D01*
X8651319Y17547622D01*
X8525700Y17510737D01*
X8415563Y17439956D01*
X8329824Y17341010D01*
X8329821Y17341005D01*
X8275436Y17221920D01*
X8275436Y17221918D01*
X8275435Y17221916D01*
X8275435Y17221914D01*
X8256802Y17092322D01*
X6144339Y17092322D01*
X6132993Y17171230D01*
X6132991Y17171235D01*
X6132991Y17171236D01*
X6078606Y17290321D01*
X6078603Y17290326D01*
X6036846Y17338515D01*
X5992868Y17389269D01*
X5992864Y17389272D01*
X5882727Y17460053D01*
X5757108Y17496938D01*
X5757106Y17496938D01*
X5626182Y17496938D01*
X5626179Y17496938D01*
X5500560Y17460053D01*
X5390423Y17389272D01*
X5304684Y17290326D01*
X5304681Y17290321D01*
X5250296Y17171236D01*
X5250296Y17171234D01*
X5250295Y17171232D01*
X5250295Y17171230D01*
X5231662Y17041638D01*
X5250295Y16912046D01*
X5250295Y16912045D01*
X5250296Y16912043D01*
X5250296Y16912041D01*
X5304681Y16792956D01*
X5304684Y16792951D01*
X5366186Y16721975D01*
X5384545Y16673923D01*
X5367721Y16625312D01*
X5350011Y16609468D01*
X5311974Y16585023D01*
X5226234Y16486075D01*
X5226231Y16486070D01*
X5171846Y16366985D01*
X5171846Y16366983D01*
X5171845Y16366981D01*
X5171845Y16366979D01*
X5159728Y16282704D01*
X5153306Y16238038D01*
X5153212Y16237387D01*
X1548758Y16237387D01*
X1548462Y16238036D01*
X1548459Y16238041D01*
X1522758Y16267701D01*
X1462724Y16336984D01*
X1462720Y16336987D01*
X1352583Y16407768D01*
X1226964Y16444653D01*
X1226962Y16444653D01*
X1096038Y16444653D01*
X1096035Y16444653D01*
X970416Y16407768D01*
X860279Y16336987D01*
X774540Y16238041D01*
X774537Y16238036D01*
X720152Y16118951D01*
X720152Y16118949D01*
X720151Y16118947D01*
X720151Y16118945D01*
X701518Y15989353D01*
X254000Y15989353D01*
X254000Y17780000D01*
X1112246Y17780000D01*
X1131592Y17620675D01*
X1131592Y17620673D01*
X1131593Y17620672D01*
X1188502Y17470612D01*
X1188507Y17470604D01*
X1279672Y17338528D01*
X1279674Y17338526D01*
X1279676Y17338523D01*
X1279679Y17338521D01*
X1279684Y17338515D01*
X1399805Y17232098D01*
X1399811Y17232094D01*
X1515765Y17171236D01*
X1541920Y17157509D01*
X1697752Y17119100D01*
X1697754Y17119100D01*
X1858246Y17119100D01*
X1858248Y17119100D01*
X2014080Y17157509D01*
X2156191Y17232095D01*
X2276324Y17338523D01*
X2367496Y17470609D01*
X2424408Y17620675D01*
X2443754Y17780000D01*
X2424408Y17939325D01*
X2367496Y18089391D01*
X2367492Y18089397D01*
X2330061Y18143626D01*
X4980811Y18143626D01*
X4999444Y18014034D01*
X4999444Y18014033D01*
X4999445Y18014031D01*
X4999445Y18014029D01*
X5053830Y17894944D01*
X5053833Y17894939D01*
X5085256Y17858675D01*
X5139569Y17795995D01*
X5139571Y17795994D01*
X5139572Y17795993D01*
X5249709Y17725212D01*
X5339075Y17698972D01*
X5375331Y17688326D01*
X5375334Y17688326D01*
X5506252Y17688326D01*
X5506255Y17688326D01*
X5631876Y17725212D01*
X5742017Y17795995D01*
X5827754Y17894941D01*
X5882142Y18014034D01*
X5900775Y18143626D01*
X5882142Y18273218D01*
X5882140Y18273223D01*
X5882140Y18273224D01*
X5827755Y18392309D01*
X5827752Y18392314D01*
X5785651Y18440900D01*
X5742017Y18491257D01*
X5742013Y18491260D01*
X5631876Y18562041D01*
X5506257Y18598926D01*
X5506255Y18598926D01*
X5375331Y18598926D01*
X5375328Y18598926D01*
X5249709Y18562041D01*
X5139572Y18491260D01*
X5053833Y18392314D01*
X5053830Y18392309D01*
X4999445Y18273224D01*
X4999445Y18273222D01*
X4999444Y18273220D01*
X4999444Y18273218D01*
X4980811Y18143626D01*
X2330061Y18143626D01*
X2276327Y18221473D01*
X2276326Y18221475D01*
X2276324Y18221477D01*
X2276320Y18221481D01*
X2276315Y18221486D01*
X2156194Y18327903D01*
X2156188Y18327907D01*
X2014083Y18402490D01*
X2014081Y18402491D01*
X1962135Y18415294D01*
X1858248Y18440900D01*
X1697752Y18440900D01*
X1619835Y18421696D01*
X1541918Y18402491D01*
X1541916Y18402490D01*
X1399811Y18327907D01*
X1399805Y18327903D01*
X1279684Y18221486D01*
X1279672Y18221473D01*
X1188507Y18089397D01*
X1188502Y18089389D01*
X1131593Y17939329D01*
X1131592Y17939327D01*
X1131592Y17939325D01*
X1112246Y17780000D01*
X254000Y17780000D01*
X254000Y18996800D01*
X2355814Y18996800D01*
X2374447Y18867208D01*
X2374447Y18867207D01*
X2374448Y18867205D01*
X2374448Y18867203D01*
X2428833Y18748118D01*
X2428836Y18748113D01*
X2460259Y18711850D01*
X2514572Y18649169D01*
X2514574Y18649168D01*
X2514575Y18649167D01*
X2624712Y18578386D01*
X2714078Y18552146D01*
X2750334Y18541500D01*
X2750337Y18541500D01*
X2881255Y18541500D01*
X2881258Y18541500D01*
X3006879Y18578386D01*
X3117020Y18649169D01*
X3202757Y18748115D01*
X3257145Y18867208D01*
X3275778Y18996800D01*
X3268600Y19046722D01*
X3279136Y19097070D01*
X3319570Y19128868D01*
X3343035Y19132623D01*
X3353850Y19132623D01*
X3353853Y19132623D01*
X3479474Y19169509D01*
X3532868Y19203823D01*
X4723335Y19203823D01*
X4741968Y19074231D01*
X4741968Y19074230D01*
X4741969Y19074228D01*
X4741969Y19074226D01*
X4796354Y18955141D01*
X4796357Y18955136D01*
X4827780Y18918873D01*
X4882093Y18856192D01*
X4882095Y18856191D01*
X4882096Y18856190D01*
X4992233Y18785409D01*
X5048911Y18768767D01*
X5117855Y18748523D01*
X5117858Y18748523D01*
X5248776Y18748523D01*
X5248779Y18748523D01*
X5374400Y18785409D01*
X5484541Y18856192D01*
X5570278Y18955138D01*
X5612504Y19047600D01*
X5624664Y19074226D01*
X5624664Y19074227D01*
X5624666Y19074231D01*
X5643299Y19203823D01*
X5640388Y19224066D01*
X8147959Y19224066D01*
X8166592Y19094474D01*
X8166592Y19094473D01*
X8166593Y19094471D01*
X8166593Y19094469D01*
X8220978Y18975384D01*
X8220981Y18975379D01*
X8238522Y18955136D01*
X8306717Y18876435D01*
X8306719Y18876434D01*
X8306720Y18876433D01*
X8416857Y18805652D01*
X8506223Y18779412D01*
X8542479Y18768766D01*
X8542482Y18768766D01*
X8673400Y18768766D01*
X8673403Y18768766D01*
X8799024Y18805652D01*
X8909165Y18876435D01*
X8994902Y18975381D01*
X9027883Y19047600D01*
X9547618Y19047600D01*
X9566251Y18918008D01*
X9566251Y18918007D01*
X9566252Y18918005D01*
X9566252Y18918003D01*
X9620637Y18798918D01*
X9620640Y18798913D01*
X9632342Y18785409D01*
X9706376Y18699969D01*
X9706378Y18699968D01*
X9706379Y18699967D01*
X9816516Y18629186D01*
X9905882Y18602946D01*
X9942138Y18592300D01*
X9942141Y18592300D01*
X10073059Y18592300D01*
X10073062Y18592300D01*
X10198683Y18629186D01*
X10308824Y18699969D01*
X10394561Y18798915D01*
X10448949Y18918008D01*
X10467582Y19047600D01*
X10448949Y19177192D01*
X10448947Y19177197D01*
X10448947Y19177198D01*
X10394562Y19296283D01*
X10394559Y19296288D01*
X10362384Y19333419D01*
X10308824Y19395231D01*
X10308820Y19395234D01*
X10198683Y19466015D01*
X10073064Y19502900D01*
X10073062Y19502900D01*
X9942138Y19502900D01*
X9942135Y19502900D01*
X9816516Y19466015D01*
X9706379Y19395234D01*
X9620640Y19296288D01*
X9620637Y19296283D01*
X9566252Y19177198D01*
X9566252Y19177196D01*
X9566251Y19177194D01*
X9566251Y19177192D01*
X9547618Y19047600D01*
X9027883Y19047600D01*
X9049290Y19094474D01*
X9067923Y19224066D01*
X9049290Y19353658D01*
X9049288Y19353663D01*
X9049288Y19353664D01*
X8994903Y19472749D01*
X8994900Y19472754D01*
X8968778Y19502900D01*
X8909165Y19571697D01*
X8909161Y19571700D01*
X8799024Y19642481D01*
X8673405Y19679366D01*
X8673403Y19679366D01*
X8542479Y19679366D01*
X8542476Y19679366D01*
X8416857Y19642481D01*
X8306720Y19571700D01*
X8220981Y19472754D01*
X8220978Y19472749D01*
X8166593Y19353664D01*
X8166593Y19353662D01*
X8166592Y19353660D01*
X8166592Y19353658D01*
X8147959Y19224066D01*
X5640388Y19224066D01*
X5624666Y19333415D01*
X5624664Y19333420D01*
X5624664Y19333421D01*
X5570279Y19452506D01*
X5570276Y19452511D01*
X5526613Y19502900D01*
X5484541Y19551454D01*
X5484537Y19551457D01*
X5374400Y19622238D01*
X5248781Y19659123D01*
X5248779Y19659123D01*
X5117855Y19659123D01*
X5117852Y19659123D01*
X4992233Y19622238D01*
X4882096Y19551457D01*
X4796357Y19452511D01*
X4796354Y19452506D01*
X4741969Y19333421D01*
X4741969Y19333419D01*
X4741968Y19333417D01*
X4741968Y19333415D01*
X4723335Y19203823D01*
X3532868Y19203823D01*
X3589615Y19240292D01*
X3675352Y19339238D01*
X3710050Y19415215D01*
X3729738Y19458326D01*
X3729738Y19458327D01*
X3729740Y19458331D01*
X3748373Y19587923D01*
X3729740Y19717515D01*
X3729738Y19717520D01*
X3729738Y19717521D01*
X3675353Y19836606D01*
X3675350Y19836611D01*
X3639039Y19878515D01*
X3589615Y19935554D01*
X3589611Y19935557D01*
X3479474Y20006338D01*
X3353855Y20043223D01*
X3353853Y20043223D01*
X3222929Y20043223D01*
X3222926Y20043223D01*
X3097307Y20006338D01*
X2987170Y19935557D01*
X2901431Y19836611D01*
X2901428Y19836606D01*
X2847043Y19717521D01*
X2847043Y19717519D01*
X2847042Y19717517D01*
X2847042Y19717515D01*
X2836253Y19642480D01*
X2828409Y19587923D01*
X2835587Y19538002D01*
X2825051Y19487653D01*
X2784617Y19455855D01*
X2761152Y19452100D01*
X2750331Y19452100D01*
X2624712Y19415215D01*
X2514575Y19344434D01*
X2514572Y19344432D01*
X2514572Y19344431D01*
X2510071Y19339236D01*
X2428836Y19245488D01*
X2428833Y19245483D01*
X2374448Y19126398D01*
X2374448Y19126396D01*
X2374447Y19126394D01*
X2374447Y19126392D01*
X2355814Y18996800D01*
X254000Y18996800D01*
X254000Y20878800D01*
X505218Y20878800D01*
X523851Y20749208D01*
X523851Y20749207D01*
X523852Y20749205D01*
X523852Y20749203D01*
X578237Y20630118D01*
X578240Y20630113D01*
X609663Y20593850D01*
X663976Y20531169D01*
X663978Y20531168D01*
X663979Y20531167D01*
X774116Y20460386D01*
X863482Y20434146D01*
X899738Y20423500D01*
X899741Y20423500D01*
X1036041Y20423500D01*
X1036041Y20421889D01*
X1079628Y20412780D01*
X1111437Y20372354D01*
X1114650Y20339809D01*
X1112246Y20320003D01*
X1112246Y20320000D01*
X1131592Y20160675D01*
X1131592Y20160673D01*
X1131593Y20160672D01*
X1188502Y20010612D01*
X1188507Y20010604D01*
X1279672Y19878528D01*
X1279674Y19878526D01*
X1279676Y19878523D01*
X1279679Y19878521D01*
X1279684Y19878515D01*
X1399805Y19772098D01*
X1399811Y19772094D01*
X1503790Y19717521D01*
X1541920Y19697509D01*
X1697752Y19659100D01*
X1697754Y19659100D01*
X1858246Y19659100D01*
X1858248Y19659100D01*
X2014080Y19697509D01*
X2156191Y19772095D01*
X2276324Y19878523D01*
X2367496Y20010609D01*
X2424408Y20160675D01*
X2443754Y20320000D01*
X2424408Y20479325D01*
X2403521Y20534400D01*
X3654818Y20534400D01*
X3673451Y20404808D01*
X3673451Y20404807D01*
X3673452Y20404805D01*
X3673452Y20404803D01*
X3727837Y20285718D01*
X3727840Y20285713D01*
X3759263Y20249449D01*
X3813576Y20186769D01*
X3813578Y20186768D01*
X3813579Y20186767D01*
X3923716Y20115986D01*
X4013082Y20089746D01*
X4049338Y20079100D01*
X4049341Y20079100D01*
X4180259Y20079100D01*
X4180262Y20079100D01*
X4305883Y20115986D01*
X4416024Y20186769D01*
X4501761Y20285715D01*
X4517418Y20320000D01*
X8732246Y20320000D01*
X8751592Y20160675D01*
X8751592Y20160673D01*
X8751593Y20160672D01*
X8808502Y20010612D01*
X8808507Y20010604D01*
X8899672Y19878528D01*
X8899674Y19878526D01*
X8899676Y19878523D01*
X8899679Y19878521D01*
X8899684Y19878515D01*
X9019805Y19772098D01*
X9019811Y19772094D01*
X9123790Y19717521D01*
X9161920Y19697509D01*
X9317752Y19659100D01*
X9317754Y19659100D01*
X9478246Y19659100D01*
X9478248Y19659100D01*
X9634080Y19697509D01*
X9776191Y19772095D01*
X9896324Y19878523D01*
X9987496Y20010609D01*
X10044408Y20160675D01*
X10063754Y20320000D01*
X10044408Y20479325D01*
X9987496Y20629391D01*
X9955246Y20676113D01*
X9896327Y20761473D01*
X9896326Y20761475D01*
X9896324Y20761477D01*
X9896320Y20761481D01*
X9896315Y20761486D01*
X9776194Y20867903D01*
X9776188Y20867907D01*
X9634083Y20942490D01*
X9634081Y20942491D01*
X9582135Y20955294D01*
X9478248Y20980900D01*
X9317752Y20980900D01*
X9252967Y20964932D01*
X9161918Y20942491D01*
X9161916Y20942490D01*
X9019811Y20867907D01*
X9019805Y20867903D01*
X8899684Y20761486D01*
X8899672Y20761473D01*
X8808507Y20629397D01*
X8808502Y20629389D01*
X8751593Y20479329D01*
X8751592Y20479327D01*
X8751592Y20479325D01*
X8732246Y20320000D01*
X4517418Y20320000D01*
X4556149Y20404808D01*
X4574782Y20534400D01*
X4556149Y20663992D01*
X4556147Y20663997D01*
X4556147Y20663998D01*
X4501762Y20783083D01*
X4501759Y20783088D01*
X4467662Y20822437D01*
X4416024Y20882031D01*
X4416020Y20882034D01*
X4305883Y20952815D01*
X4180264Y20989700D01*
X4180262Y20989700D01*
X4049338Y20989700D01*
X4049335Y20989700D01*
X3923716Y20952815D01*
X3813579Y20882034D01*
X3813576Y20882032D01*
X3813576Y20882031D01*
X3801338Y20867907D01*
X3727840Y20783088D01*
X3727837Y20783083D01*
X3673452Y20663998D01*
X3673452Y20663996D01*
X3673451Y20663994D01*
X3673451Y20663992D01*
X3654818Y20534400D01*
X2403521Y20534400D01*
X2367496Y20629391D01*
X2335246Y20676113D01*
X2276327Y20761473D01*
X2276326Y20761475D01*
X2276324Y20761477D01*
X2276320Y20761481D01*
X2276315Y20761486D01*
X2156194Y20867903D01*
X2156188Y20867907D01*
X2014083Y20942490D01*
X2014081Y20942491D01*
X1962135Y20955294D01*
X1858248Y20980900D01*
X1697752Y20980900D01*
X1541919Y20942492D01*
X1541920Y20942491D01*
X1519092Y20930510D01*
X1468115Y20923626D01*
X1424639Y20951119D01*
X1409712Y20986393D01*
X1406549Y21008392D01*
X1406547Y21008397D01*
X1406547Y21008398D01*
X1352162Y21127483D01*
X1352159Y21127488D01*
X1315261Y21170070D01*
X4676018Y21170070D01*
X4694651Y21040478D01*
X4694651Y21040477D01*
X4694652Y21040475D01*
X4694652Y21040473D01*
X4749037Y20921388D01*
X4749040Y20921383D01*
X4780463Y20885120D01*
X4834776Y20822439D01*
X4834778Y20822438D01*
X4834779Y20822437D01*
X4944916Y20751656D01*
X5034282Y20725416D01*
X5070538Y20714770D01*
X5070541Y20714770D01*
X5201459Y20714770D01*
X5201462Y20714770D01*
X5327083Y20751656D01*
X5437224Y20822439D01*
X5522961Y20921385D01*
X5577349Y21040478D01*
X5585120Y21094527D01*
X7844246Y21094527D01*
X7862879Y20964935D01*
X7862879Y20964934D01*
X7862880Y20964932D01*
X7862880Y20964930D01*
X7917265Y20845845D01*
X7917268Y20845840D01*
X7948691Y20809576D01*
X8003004Y20746896D01*
X8003006Y20746895D01*
X8003007Y20746894D01*
X8113144Y20676113D01*
X8202510Y20649873D01*
X8238766Y20639227D01*
X8238769Y20639227D01*
X8369687Y20639227D01*
X8369690Y20639227D01*
X8495311Y20676113D01*
X8605452Y20746896D01*
X8691189Y20845842D01*
X8735327Y20942491D01*
X8745575Y20964930D01*
X8745575Y20964931D01*
X8745577Y20964935D01*
X8764210Y21094527D01*
X8745577Y21224119D01*
X8745575Y21224124D01*
X8745575Y21224125D01*
X8691190Y21343210D01*
X8691187Y21343215D01*
X8665486Y21372875D01*
X8605452Y21442158D01*
X8605448Y21442161D01*
X8495311Y21512942D01*
X8369692Y21549827D01*
X8369690Y21549827D01*
X8238766Y21549827D01*
X8238763Y21549827D01*
X8113144Y21512942D01*
X8003007Y21442161D01*
X7917268Y21343215D01*
X7917265Y21343210D01*
X7862880Y21224125D01*
X7862880Y21224123D01*
X7862879Y21224121D01*
X7862879Y21224119D01*
X7844246Y21094527D01*
X5585120Y21094527D01*
X5595982Y21170070D01*
X5577349Y21299662D01*
X5577347Y21299667D01*
X5577347Y21299668D01*
X5522962Y21418753D01*
X5522959Y21418758D01*
X5497258Y21448418D01*
X5437224Y21517701D01*
X5437220Y21517704D01*
X5327083Y21588485D01*
X5201464Y21625370D01*
X5201462Y21625370D01*
X5070538Y21625370D01*
X5070535Y21625370D01*
X4944916Y21588485D01*
X4834779Y21517704D01*
X4834776Y21517702D01*
X4834776Y21517701D01*
X4817610Y21497891D01*
X4749040Y21418758D01*
X4749037Y21418753D01*
X4694652Y21299668D01*
X4694652Y21299666D01*
X4694651Y21299664D01*
X4694651Y21299662D01*
X4676018Y21170070D01*
X1315261Y21170070D01*
X1315260Y21170071D01*
X1266424Y21226431D01*
X1266420Y21226434D01*
X1156283Y21297215D01*
X1030664Y21334100D01*
X1030662Y21334100D01*
X899738Y21334100D01*
X899735Y21334100D01*
X774116Y21297215D01*
X663979Y21226434D01*
X578240Y21127488D01*
X578237Y21127483D01*
X523852Y21008398D01*
X523852Y21008396D01*
X523851Y21008394D01*
X523851Y21008392D01*
X505218Y20878800D01*
X254000Y20878800D01*
X254000Y22860000D01*
X1112246Y22860000D01*
X1131592Y22700675D01*
X1131592Y22700673D01*
X1131593Y22700672D01*
X1188502Y22550612D01*
X1188507Y22550604D01*
X1279672Y22418528D01*
X1279674Y22418526D01*
X1279676Y22418523D01*
X1279679Y22418521D01*
X1279684Y22418515D01*
X1399805Y22312098D01*
X1399807Y22312097D01*
X1399809Y22312095D01*
X1541920Y22237509D01*
X1697752Y22199100D01*
X1697754Y22199100D01*
X1858246Y22199100D01*
X1858248Y22199100D01*
X2014080Y22237509D01*
X2156191Y22312095D01*
X2216702Y22365703D01*
X8112369Y22365703D01*
X8131002Y22236111D01*
X8131002Y22236110D01*
X8131003Y22236108D01*
X8131003Y22236106D01*
X8185388Y22117021D01*
X8185391Y22117016D01*
X8216814Y22080753D01*
X8271127Y22018072D01*
X8271129Y22018071D01*
X8271130Y22018070D01*
X8381267Y21947289D01*
X8470633Y21921049D01*
X8506889Y21910403D01*
X8506892Y21910403D01*
X8637810Y21910403D01*
X8637813Y21910403D01*
X8763434Y21947289D01*
X8873575Y22018072D01*
X8959312Y22117018D01*
X9009868Y22227722D01*
X9045952Y22264383D01*
X9097159Y22269273D01*
X9113216Y22263071D01*
X9161920Y22237509D01*
X9317752Y22199100D01*
X9317754Y22199100D01*
X9478246Y22199100D01*
X9478248Y22199100D01*
X9634080Y22237509D01*
X9776191Y22312095D01*
X9896324Y22418523D01*
X9987496Y22550609D01*
X10044408Y22700675D01*
X10063754Y22860000D01*
X10044408Y23019325D01*
X9987496Y23169391D01*
X9896324Y23301477D01*
X9896320Y23301481D01*
X9896315Y23301486D01*
X9776194Y23407903D01*
X9776188Y23407907D01*
X9634083Y23482490D01*
X9634081Y23482491D01*
X9582135Y23495294D01*
X9478248Y23520900D01*
X9317752Y23520900D01*
X9239836Y23501696D01*
X9161918Y23482491D01*
X9161916Y23482490D01*
X9019811Y23407907D01*
X9019805Y23407903D01*
X8899684Y23301486D01*
X8899672Y23301473D01*
X8808507Y23169397D01*
X8808502Y23169389D01*
X8751593Y23019329D01*
X8751592Y23019327D01*
X8751592Y23019325D01*
X8736063Y22891436D01*
X8735119Y22883661D01*
X8711827Y22837797D01*
X8664503Y22817634D01*
X8639282Y22820572D01*
X8637818Y22821002D01*
X8637815Y22821003D01*
X8637813Y22821003D01*
X8506889Y22821003D01*
X8506886Y22821003D01*
X8381267Y22784118D01*
X8271130Y22713337D01*
X8185391Y22614391D01*
X8185388Y22614386D01*
X8131003Y22495301D01*
X8131003Y22495299D01*
X8131002Y22495297D01*
X8131002Y22495295D01*
X8112369Y22365703D01*
X2216702Y22365703D01*
X2276324Y22418523D01*
X2367496Y22550609D01*
X2424408Y22700675D01*
X2443754Y22860000D01*
X2424408Y23019325D01*
X2367496Y23169391D01*
X2276324Y23301477D01*
X2276320Y23301481D01*
X2276315Y23301486D01*
X2156194Y23407903D01*
X2156188Y23407907D01*
X2014083Y23482490D01*
X2014081Y23482491D01*
X1962135Y23495294D01*
X1858248Y23520900D01*
X1697752Y23520900D01*
X1619835Y23501696D01*
X1541918Y23482491D01*
X1541916Y23482490D01*
X1399811Y23407907D01*
X1399805Y23407903D01*
X1279684Y23301486D01*
X1279672Y23301473D01*
X1188507Y23169397D01*
X1188502Y23169389D01*
X1131593Y23019329D01*
X1131592Y23019327D01*
X1131592Y23019325D01*
X1112246Y22860000D01*
X254000Y22860000D01*
X254000Y23774400D01*
X5178816Y23774400D01*
X5197449Y23644808D01*
X5197449Y23644807D01*
X5197450Y23644805D01*
X5197450Y23644803D01*
X5251835Y23525718D01*
X5251838Y23525713D01*
X5256009Y23520900D01*
X5337574Y23426769D01*
X5337576Y23426768D01*
X5337577Y23426767D01*
X5447714Y23355986D01*
X5537080Y23329746D01*
X5573336Y23319100D01*
X5573339Y23319100D01*
X5704257Y23319100D01*
X5704260Y23319100D01*
X5829881Y23355986D01*
X5940022Y23426769D01*
X6025759Y23525715D01*
X6080147Y23644808D01*
X6098780Y23774400D01*
X6080147Y23903992D01*
X6080145Y23903997D01*
X6080145Y23903998D01*
X6025760Y24023083D01*
X6025757Y24023088D01*
X5995418Y24058100D01*
X5940022Y24122031D01*
X5940018Y24122034D01*
X5829881Y24192815D01*
X5704262Y24229700D01*
X5704260Y24229700D01*
X5573336Y24229700D01*
X5573333Y24229700D01*
X5447714Y24192815D01*
X5337577Y24122034D01*
X5251838Y24023088D01*
X5251835Y24023083D01*
X5197450Y23903998D01*
X5197450Y23903996D01*
X5197449Y23903994D01*
X5197449Y23903992D01*
X5178816Y23774400D01*
X254000Y23774400D01*
X254000Y24513400D01*
X2125590Y24513400D01*
X2144223Y24383808D01*
X2144223Y24383807D01*
X2144224Y24383805D01*
X2144224Y24383803D01*
X2198609Y24264718D01*
X2198612Y24264713D01*
X2228952Y24229700D01*
X2284348Y24165769D01*
X2284350Y24165768D01*
X2284351Y24165767D01*
X2394488Y24094986D01*
X2483854Y24068746D01*
X2520110Y24058100D01*
X2520113Y24058100D01*
X2651031Y24058100D01*
X2651034Y24058100D01*
X2776655Y24094986D01*
X2886796Y24165769D01*
X2972533Y24264715D01*
X3023869Y24377124D01*
X3026919Y24383803D01*
X3026919Y24383804D01*
X3026921Y24383808D01*
X3045554Y24513400D01*
X3026921Y24642992D01*
X3026919Y24642997D01*
X3026919Y24642998D01*
X2972534Y24762083D01*
X2972531Y24762088D01*
X2909108Y24835281D01*
X2886796Y24861031D01*
X2886792Y24861034D01*
X2776655Y24931815D01*
X2651036Y24968700D01*
X2651034Y24968700D01*
X2520110Y24968700D01*
X2520107Y24968700D01*
X2394488Y24931815D01*
X2284351Y24861034D01*
X2198612Y24762088D01*
X2198609Y24762083D01*
X2144224Y24642998D01*
X2144224Y24642996D01*
X2144223Y24642994D01*
X2144223Y24642992D01*
X2125590Y24513400D01*
X254000Y24513400D01*
X254000Y25070800D01*
X271593Y25119138D01*
X316142Y25144858D01*
X329200Y25146000D01*
X4881053Y25146000D01*
X4929391Y25128407D01*
G37*
%TD.AperFunction*%
%TD*%
M02*
