%TF.GenerationSoftware,KiCad,Pcbnew,8.0.3*%
%TF.CreationDate,2024-12-12T22:43:46-05:00*%
%TF.ProjectId,3374_VCO,33333734-5f56-4434-9f2e-6b696361645f,0*%
%TF.SameCoordinates,PX640ad70PY37b6b20*%
%TF.FileFunction,Copper,L3,Inr*%
%TF.FilePolarity,Positive*%
%FSLAX46Y46*%
G04 Gerber Fmt 4.6, Leading zero omitted, Abs format (unit mm)*
G04 Created by KiCad (PCBNEW 8.0.3) date 2024-12-12 22:43:46*
%MOMM*%
%LPD*%
G01*
G04 APERTURE LIST*
%TA.AperFunction,ComponentPad*%
%ADD10C,1.016000*%
%TD*%
%TA.AperFunction,FiducialPad,Local*%
%ADD11C,1.016000*%
%TD*%
%TA.AperFunction,ViaPad*%
%ADD12C,0.604800*%
%TD*%
%TA.AperFunction,Conductor*%
%ADD13C,0.200000*%
%TD*%
G04 APERTURE END LIST*
D10*
%TO.N,-5V*%
%TO.C,J2*%
X1778000Y22860000D03*
%TO.N,SAWTOOTH_A*%
X1778000Y20320000D03*
%TO.N,SYNC_A*%
X1778000Y17780000D03*
%TO.N,VTH_A*%
X1778000Y15240000D03*
%TO.N,TRIANGLE_A*%
X1778000Y12700000D03*
%TO.N,CF_A*%
X1778000Y10160000D03*
D11*
%TO.N,CV_A*%
X1778000Y7620000D03*
D10*
%TO.N,IREF_A*%
X1778000Y5080000D03*
%TO.N,GND*%
X1778000Y2540000D03*
%TD*%
%TO.N,+12V*%
%TO.C,J1*%
X9398000Y22860000D03*
%TO.N,SAWTOOTH_B*%
X9398000Y20320000D03*
%TO.N,unconnected-(J1-Pin_3-Pad3)*%
X9398000Y17780000D03*
%TO.N,VTH_B*%
X9398000Y15240000D03*
%TO.N,TRIANGLE_B*%
X9398000Y12700000D03*
%TO.N,CF_B*%
X9398000Y10160000D03*
%TO.N,CV_B*%
X9398000Y7620000D03*
%TO.N,IREF_B*%
X9398000Y5080000D03*
%TO.N,VTC*%
X9398000Y2540000D03*
%TD*%
D12*
%TO.N,+12V*%
X5613194Y13836165D03*
X1229963Y16988391D03*
X6934200Y7569200D03*
X4684000Y7719600D03*
X10010000Y15983262D03*
%TO.N,GND*%
X10007600Y17018000D03*
X1219208Y16103608D03*
X6385715Y20471744D03*
X3680600Y7399600D03*
X2997200Y15748006D03*
X4218000Y1409600D03*
X10007600Y584200D03*
X4485660Y19610580D03*
X9194800Y24831464D03*
X10151962Y3137969D03*
X9956800Y11887200D03*
X5478400Y23681699D03*
X2898000Y13319881D03*
X5846313Y13075856D03*
X2554113Y24505373D03*
X2838123Y21230000D03*
X4411340Y12526739D03*
X7328000Y1399600D03*
%TO.N,-5V*%
X8439859Y23889299D03*
X3298000Y20580000D03*
X5440793Y15742404D03*
%TO.N,+5V*%
X2751684Y23774400D03*
X4928176Y24201901D03*
X1200318Y11929758D03*
X9956800Y10972800D03*
X7128962Y20327037D03*
X10617200Y1422400D03*
%TO.N,CF_A*%
X3775116Y10990180D03*
X1393102Y18723698D03*
%TO.N,CF_B*%
X5691644Y14640416D03*
%TO.N,SAWTOOTH_A*%
X3403600Y17627600D03*
%TO.N,SYNC_A*%
X2667844Y10737000D03*
%TO.N,TRIANGLE_A*%
X5183317Y16802601D03*
X5220954Y18327046D03*
%TO.N,Net-(Q9A-B1)*%
X10238361Y21844006D03*
%TO.N,/VCO A/SQUARE_A*%
X4977316Y20656916D03*
%TO.N,/VCO B/SQUARE_B*%
X6009387Y24461765D03*
%TO.N,Net-(C10-Pad2)*%
X7087468Y10916272D03*
X1320800Y8483600D03*
%TO.N,Net-(Q11A-C1)*%
X1752600Y1272400D03*
X2553424Y9471800D03*
X6328000Y10790000D03*
%TO.N,Net-(C4-Pad1)*%
X914400Y23317186D03*
X3048355Y18379829D03*
%TO.N,Net-(C14-Pad2)*%
X5070400Y10988745D03*
%TO.N,Net-(Q10A-C1)*%
X4597400Y10210800D03*
X6558355Y1641714D03*
%TO.N,Net-(C7-Pad1)*%
X8549916Y19847284D03*
%TO.N,Net-(Q11B-C2)*%
X5858743Y1328857D03*
%TO.N,Net-(Q11A-E1)*%
X2626162Y2058702D03*
%TO.N,Net-(Q10A-E1)*%
X8887600Y8436381D03*
%TO.N,Net-(Q8B-C2)*%
X8523334Y22013297D03*
%TO.N,Net-(U6D--)*%
X8308000Y12140000D03*
%TO.N,Net-(U6D-+)*%
X8185358Y15951042D03*
%TO.N,Net-(U6C-+)*%
X7933776Y17991401D03*
%TO.N,Net-(U3C-+)*%
X1034796Y21800507D03*
X3098800Y16916400D03*
%TO.N,Net-(U5A--)*%
X5424498Y22926419D03*
%TO.N,Net-(U5B--)*%
X5827800Y21477649D03*
%TD*%
D13*
%TO.N,+12V*%
X9398000Y22860000D02*
X9398000Y21844000D01*
X9398000Y22860000D02*
X10138000Y22860000D01*
%TO.N,-5V*%
X1778000Y22860000D02*
X1778000Y22098000D01*
X1778000Y22860000D02*
X2641600Y22860000D01*
%TD*%
%TA.AperFunction,Conductor*%
%TO.N,-5V*%
G36*
X8492995Y24183653D02*
G01*
X8554299Y24165653D01*
X8573769Y24156761D01*
X8647327Y24109488D01*
X8671190Y24084857D01*
X8686123Y24059915D01*
X8687435Y24057725D01*
X8689359Y24055068D01*
X8688874Y24054717D01*
X8697109Y24041909D01*
X8700483Y24034521D01*
X8700483Y24034519D01*
X8700484Y24034519D01*
X8723653Y23983784D01*
X8729682Y23963249D01*
X8738776Y23900002D01*
X8738776Y23878596D01*
X8729682Y23815349D01*
X8723652Y23794813D01*
X8697087Y23736644D01*
X8687689Y23721895D01*
X8687824Y23721799D01*
X8685920Y23719117D01*
X8685899Y23719083D01*
X8685884Y23719067D01*
X8685878Y23719058D01*
X8657618Y23670575D01*
X8657616Y23670570D01*
X8640021Y23622230D01*
X8630500Y23568232D01*
X8630500Y23568227D01*
X8630500Y23369984D01*
X8631300Y23354108D01*
X8632820Y23339067D01*
X8634610Y23333767D01*
X8655342Y23272353D01*
X8655342Y23272352D01*
X8682248Y23228510D01*
X8698635Y23206396D01*
X8747528Y23174080D01*
X8778152Y23132750D01*
X8776377Y23084680D01*
X8751592Y23019327D01*
X8737681Y22904762D01*
X8732246Y22860000D01*
X8751592Y22700675D01*
X8751592Y22700673D01*
X8751593Y22700672D01*
X8783513Y22616506D01*
X8788400Y22589840D01*
X8788400Y22510444D01*
X8770807Y22462106D01*
X8726258Y22436386D01*
X8692014Y22438290D01*
X8588798Y22468597D01*
X8588796Y22468597D01*
X8457872Y22468597D01*
X8457869Y22468597D01*
X8332250Y22431712D01*
X8222112Y22360930D01*
X8222110Y22360929D01*
X8192845Y22327154D01*
X8147894Y22302145D01*
X8136013Y22301200D01*
X3606800Y22301200D01*
X3606800Y18598706D01*
X3589207Y18550368D01*
X3544658Y18524648D01*
X3494000Y18533581D01*
X3463196Y18567467D01*
X3435317Y18628512D01*
X3435314Y18628517D01*
X3409613Y18658177D01*
X3349579Y18727460D01*
X3349575Y18727463D01*
X3239438Y18798244D01*
X3113819Y18835129D01*
X3113817Y18835129D01*
X2982893Y18835129D01*
X2982890Y18835129D01*
X2857271Y18798244D01*
X2747134Y18727463D01*
X2747131Y18727461D01*
X2747131Y18727460D01*
X2729965Y18707650D01*
X2661395Y18628517D01*
X2661392Y18628512D01*
X2607007Y18509427D01*
X2607007Y18509425D01*
X2607006Y18509423D01*
X2607006Y18509421D01*
X2588373Y18379829D01*
X2607006Y18250237D01*
X2607006Y18250236D01*
X2607007Y18250234D01*
X2607007Y18250232D01*
X2661392Y18131147D01*
X2661395Y18131142D01*
X2692818Y18094878D01*
X2747131Y18032198D01*
X2747133Y18032197D01*
X2747134Y18032196D01*
X2857271Y17961415D01*
X2882632Y17953969D01*
X2948806Y17934538D01*
X2990228Y17904040D01*
X3002356Y17854051D01*
X2996024Y17831146D01*
X2962251Y17757194D01*
X2945943Y17643770D01*
X2943618Y17627600D01*
X2962251Y17498008D01*
X2962251Y17498007D01*
X2962252Y17498005D01*
X2962252Y17498003D01*
X2985466Y17447172D01*
X2989543Y17395894D01*
X2959705Y17353992D01*
X2938250Y17343780D01*
X2907716Y17334814D01*
X2907713Y17334813D01*
X2797579Y17264034D01*
X2797576Y17264032D01*
X2797576Y17264031D01*
X2780410Y17244221D01*
X2711840Y17165088D01*
X2711837Y17165083D01*
X2657452Y17045998D01*
X2657452Y17045996D01*
X2657451Y17045994D01*
X2657451Y17045992D01*
X2638818Y16916400D01*
X2657451Y16786808D01*
X2657451Y16786807D01*
X2657452Y16786805D01*
X2657452Y16786803D01*
X2711837Y16667718D01*
X2711840Y16667713D01*
X2743263Y16631449D01*
X2797576Y16568769D01*
X2797578Y16568768D01*
X2797579Y16568767D01*
X2907716Y16497986D01*
X2997082Y16471746D01*
X3033338Y16461100D01*
X3033341Y16461100D01*
X3164259Y16461100D01*
X3164262Y16461100D01*
X3289883Y16497986D01*
X3400024Y16568769D01*
X3474768Y16655028D01*
X3519719Y16680037D01*
X3570229Y16670302D01*
X3602664Y16630377D01*
X3606800Y16605782D01*
X3606800Y16205200D01*
X5817600Y16205200D01*
X5865938Y16187607D01*
X5891658Y16143058D01*
X5892800Y16130000D01*
X5892800Y15416800D01*
X5875207Y15368462D01*
X5830658Y15342742D01*
X5817600Y15341600D01*
X3412160Y15341600D01*
X3363822Y15359193D01*
X3338102Y15403742D01*
X3347035Y15454400D01*
X3355328Y15466046D01*
X3384159Y15499319D01*
X3384161Y15499321D01*
X3414959Y15566760D01*
X3438547Y15618409D01*
X3438547Y15618410D01*
X3438549Y15618414D01*
X3457182Y15748006D01*
X3438549Y15877598D01*
X3438547Y15877603D01*
X3438547Y15877604D01*
X3384162Y15996689D01*
X3384159Y15996694D01*
X3358458Y16026354D01*
X3298424Y16095637D01*
X3298420Y16095640D01*
X3188283Y16166421D01*
X3062664Y16203306D01*
X3062662Y16203306D01*
X2931738Y16203306D01*
X2931735Y16203306D01*
X2890386Y16191164D01*
X2839050Y16194427D01*
X2801821Y16229924D01*
X2796237Y16253764D01*
X2794001Y16256000D01*
X2794000Y16256000D01*
X2361200Y16256000D01*
X2312862Y16273593D01*
X2287142Y16318142D01*
X2286000Y16331200D01*
X2286000Y17329109D01*
X2299311Y17371827D01*
X2367496Y17470609D01*
X2424408Y17620675D01*
X2443754Y17780000D01*
X2424408Y17939325D01*
X2367496Y18089391D01*
X2345683Y18120993D01*
X2276327Y18221473D01*
X2276326Y18221475D01*
X2276324Y18221477D01*
X2276320Y18221481D01*
X2276315Y18221486D01*
X2156194Y18327903D01*
X2156188Y18327907D01*
X2014083Y18402490D01*
X2014080Y18402491D01*
X1862070Y18439958D01*
X1819350Y18468607D01*
X1805038Y18518016D01*
X1811665Y18544212D01*
X1814477Y18550368D01*
X1834451Y18594106D01*
X1853084Y18723698D01*
X1834451Y18853290D01*
X1834449Y18853295D01*
X1834449Y18853296D01*
X1780064Y18972381D01*
X1780061Y18972386D01*
X1754360Y19002046D01*
X1694326Y19071329D01*
X1694322Y19071332D01*
X1584185Y19142113D01*
X1458566Y19178998D01*
X1458564Y19178998D01*
X1327640Y19178998D01*
X1327637Y19178998D01*
X1202019Y19142113D01*
X1188155Y19133203D01*
X1137979Y19121871D01*
X1092258Y19145443D01*
X1072385Y19192890D01*
X1072300Y19196466D01*
X1072300Y19937635D01*
X1089893Y19985973D01*
X1134442Y20011693D01*
X1185100Y20002760D01*
X1209386Y19980356D01*
X1279676Y19878523D01*
X1279680Y19878520D01*
X1279684Y19878515D01*
X1399805Y19772098D01*
X1399807Y19772097D01*
X1399809Y19772095D01*
X1541920Y19697509D01*
X1697752Y19659100D01*
X1697754Y19659100D01*
X1858246Y19659100D01*
X1858248Y19659100D01*
X2014080Y19697509D01*
X2156191Y19772095D01*
X2276324Y19878523D01*
X2367496Y20010609D01*
X2424408Y20160675D01*
X2443754Y20320000D01*
X2424408Y20479325D01*
X2367496Y20629391D01*
X2346612Y20659647D01*
X2276327Y20761473D01*
X2276326Y20761475D01*
X2276324Y20761477D01*
X2276320Y20761481D01*
X2276315Y20761486D01*
X2156194Y20867903D01*
X2156188Y20867907D01*
X2014083Y20942490D01*
X2014081Y20942491D01*
X1962136Y20955294D01*
X1858248Y20980900D01*
X1697752Y20980900D01*
X1619836Y20961696D01*
X1541918Y20942491D01*
X1541916Y20942490D01*
X1399811Y20867907D01*
X1399805Y20867903D01*
X1279684Y20761486D01*
X1279675Y20761477D01*
X1209388Y20659647D01*
X1167450Y20629861D01*
X1116177Y20634000D01*
X1079560Y20670128D01*
X1072300Y20702366D01*
X1072300Y21230000D01*
X2378141Y21230000D01*
X2396774Y21100408D01*
X2396774Y21100407D01*
X2396775Y21100405D01*
X2396775Y21100403D01*
X2451160Y20981318D01*
X2451163Y20981313D01*
X2482586Y20945049D01*
X2536899Y20882369D01*
X2536901Y20882368D01*
X2536902Y20882367D01*
X2647039Y20811586D01*
X2732447Y20786508D01*
X2772661Y20774700D01*
X2772664Y20774700D01*
X2903582Y20774700D01*
X2903585Y20774700D01*
X3029206Y20811586D01*
X3139347Y20882369D01*
X3225084Y20981315D01*
X3279472Y21100408D01*
X3298105Y21230000D01*
X3279472Y21359592D01*
X3279470Y21359597D01*
X3279470Y21359598D01*
X3225085Y21478683D01*
X3225082Y21478688D01*
X3199381Y21508348D01*
X3139347Y21577631D01*
X3139343Y21577634D01*
X3029206Y21648415D01*
X2903587Y21685300D01*
X2903585Y21685300D01*
X2772661Y21685300D01*
X2772658Y21685300D01*
X2647039Y21648415D01*
X2536902Y21577634D01*
X2536899Y21577632D01*
X2536899Y21577631D01*
X2519886Y21557997D01*
X2451163Y21478688D01*
X2451160Y21478683D01*
X2396775Y21359598D01*
X2396775Y21359596D01*
X2396774Y21359594D01*
X2396774Y21359592D01*
X2378141Y21230000D01*
X1072300Y21230000D01*
X1072300Y21280704D01*
X1089893Y21329042D01*
X1126313Y21352858D01*
X1225879Y21382093D01*
X1336020Y21452876D01*
X1421757Y21551822D01*
X1476145Y21670915D01*
X1494778Y21800507D01*
X1476145Y21930099D01*
X1476143Y21930104D01*
X1476143Y21930105D01*
X1421758Y22049190D01*
X1421755Y22049195D01*
X1396054Y22078855D01*
X1336020Y22148138D01*
X1336016Y22148141D01*
X1225880Y22218921D01*
X1126313Y22248157D01*
X1084891Y22278657D01*
X1072300Y22320311D01*
X1072300Y22465137D01*
X1089893Y22513475D01*
X1134442Y22539195D01*
X1185100Y22530262D01*
X1209389Y22507855D01*
X1240034Y22463457D01*
X1477338Y22700761D01*
X1505932Y22651235D01*
X1569235Y22587932D01*
X1618758Y22559340D01*
X1379777Y22320358D01*
X1379777Y22320356D01*
X1395745Y22306210D01*
X1395744Y22306210D01*
X1539381Y22230824D01*
X1539382Y22230823D01*
X1696893Y22192000D01*
X1859107Y22192000D01*
X2016617Y22230823D01*
X2016618Y22230824D01*
X2160252Y22306209D01*
X2160256Y22306212D01*
X2176221Y22320356D01*
X2176222Y22320358D01*
X1937240Y22559340D01*
X1986765Y22587932D01*
X2050068Y22651235D01*
X2078661Y22700760D01*
X2315964Y22463457D01*
X2373830Y22547288D01*
X2431352Y22698961D01*
X2450905Y22860000D01*
X2443301Y22922636D01*
X2454940Y22972742D01*
X2496064Y23003644D01*
X2517953Y23006900D01*
X4889316Y23006900D01*
X4937654Y22989307D01*
X4963374Y22944758D01*
X4964516Y22931700D01*
X4964516Y22926423D01*
X4964516Y22926421D01*
X4964516Y22926419D01*
X4983149Y22796827D01*
X4983149Y22796826D01*
X4983150Y22796824D01*
X4983150Y22796822D01*
X5037535Y22677737D01*
X5037538Y22677732D01*
X5060498Y22651235D01*
X5123274Y22578788D01*
X5123276Y22578787D01*
X5123277Y22578786D01*
X5233414Y22508005D01*
X5322780Y22481765D01*
X5359036Y22471119D01*
X5359039Y22471119D01*
X5489957Y22471119D01*
X5489960Y22471119D01*
X5615581Y22508005D01*
X5725722Y22578788D01*
X5811459Y22677734D01*
X5865847Y22796827D01*
X5884480Y22926419D01*
X5884479Y22926422D01*
X5884480Y22926423D01*
X5884480Y22931700D01*
X5902073Y22980038D01*
X5946622Y23005758D01*
X5959680Y23006900D01*
X8052790Y23006900D01*
X8052800Y23006900D01*
X8066557Y23007500D01*
X8079615Y23008642D01*
X8144807Y23029196D01*
X8189356Y23054916D01*
X8211904Y23070705D01*
X8258785Y23137659D01*
X8276378Y23185997D01*
X8285899Y23239996D01*
X8285900Y23239996D01*
X8285900Y23525765D01*
X8285895Y23527240D01*
X8285893Y23527392D01*
X8285887Y23528278D01*
X8275492Y23583442D01*
X8257133Y23631494D01*
X8228965Y23678541D01*
X8194176Y23718690D01*
X8182606Y23736693D01*
X8156063Y23794814D01*
X8150034Y23815345D01*
X8140939Y23878602D01*
X8140939Y23899997D01*
X8150034Y23963259D01*
X8156062Y23983784D01*
X8182608Y24041913D01*
X8194174Y24059909D01*
X8228965Y24100058D01*
X8229744Y24100963D01*
X8230518Y24101870D01*
X8230519Y24101873D01*
X8232694Y24104421D01*
X8232971Y24104185D01*
X8251127Y24121530D01*
X8305954Y24156766D01*
X8325416Y24165653D01*
X8386722Y24183654D01*
X8407908Y24186699D01*
X8471809Y24186699D01*
X8492995Y24183653D01*
G37*
%TD.AperFunction*%
%TD*%
%TA.AperFunction,Conductor*%
%TO.N,+12V*%
G36*
X10229238Y22989307D02*
G01*
X10254958Y22944758D01*
X10256100Y22931700D01*
X10256100Y22374506D01*
X10238507Y22326168D01*
X10193958Y22300448D01*
X10180900Y22299306D01*
X10172896Y22299306D01*
X10047277Y22262421D01*
X9937140Y22191640D01*
X9851401Y22092694D01*
X9851398Y22092689D01*
X9797013Y21973604D01*
X9797013Y21973602D01*
X9797012Y21973600D01*
X9797012Y21973598D01*
X9778379Y21844006D01*
X9797012Y21714414D01*
X9797012Y21714413D01*
X9797013Y21714411D01*
X9797013Y21714409D01*
X9851398Y21595324D01*
X9851401Y21595319D01*
X9883740Y21557998D01*
X9919486Y21516745D01*
X9937845Y21468694D01*
X9921021Y21420083D01*
X9876886Y21393659D01*
X9862654Y21392300D01*
X6882400Y21392300D01*
X6875159Y21391985D01*
X6868634Y21391700D01*
X6856890Y21390673D01*
X6855585Y21390558D01*
X6790393Y21370004D01*
X6790392Y21370004D01*
X6745844Y21344285D01*
X6745840Y21344282D01*
X6723295Y21328495D01*
X6676416Y21261545D01*
X6658821Y21213203D01*
X6649300Y21159205D01*
X6649300Y20969326D01*
X6631707Y20920988D01*
X6587158Y20895268D01*
X6552914Y20897172D01*
X6451179Y20927044D01*
X6451177Y20927044D01*
X6320253Y20927044D01*
X6320250Y20927044D01*
X6194631Y20890159D01*
X6084494Y20819378D01*
X5998755Y20720432D01*
X5998752Y20720427D01*
X5944367Y20601342D01*
X5944367Y20601340D01*
X5944366Y20601338D01*
X5944366Y20601336D01*
X5925733Y20471744D01*
X5944366Y20342152D01*
X5944366Y20342151D01*
X5944367Y20342149D01*
X5944367Y20342147D01*
X5998752Y20223062D01*
X5998755Y20223057D01*
X6017334Y20201616D01*
X6084491Y20124113D01*
X6084493Y20124112D01*
X6084494Y20124111D01*
X6194631Y20053330D01*
X6277509Y20028995D01*
X6320253Y20016444D01*
X6320256Y20016444D01*
X6451174Y20016444D01*
X6451177Y20016444D01*
X6569643Y20051229D01*
X6620979Y20047966D01*
X6658208Y20012469D01*
X6662548Y20001688D01*
X6671593Y19973001D01*
X6671596Y19972993D01*
X6697315Y19928445D01*
X6697318Y19928441D01*
X6713105Y19905896D01*
X6780056Y19859017D01*
X6780057Y19859017D01*
X6780059Y19859015D01*
X6828397Y19841422D01*
X6882395Y19831901D01*
X6882396Y19831900D01*
X8026985Y19831900D01*
X8075323Y19814307D01*
X8101043Y19769758D01*
X8101414Y19767439D01*
X8104936Y19742944D01*
X8108567Y19717689D01*
X8108568Y19717687D01*
X8162953Y19598602D01*
X8162956Y19598597D01*
X8194379Y19562333D01*
X8248692Y19499653D01*
X8248694Y19499652D01*
X8248695Y19499651D01*
X8358832Y19428870D01*
X8448198Y19402630D01*
X8484454Y19391984D01*
X8484457Y19391984D01*
X8615375Y19391984D01*
X8615378Y19391984D01*
X8740999Y19428870D01*
X8851140Y19499653D01*
X8936877Y19598599D01*
X8983822Y19701396D01*
X9019904Y19738054D01*
X9071111Y19742944D01*
X9087169Y19736742D01*
X9161920Y19697509D01*
X9317752Y19659100D01*
X9317754Y19659100D01*
X9478246Y19659100D01*
X9478248Y19659100D01*
X9634080Y19697509D01*
X9776191Y19772095D01*
X9879301Y19863443D01*
X9927148Y19882327D01*
X9972299Y19868755D01*
X9986209Y19859015D01*
X10034547Y19841422D01*
X10088545Y19831901D01*
X10088546Y19831900D01*
X10088550Y19831900D01*
X10180900Y19831900D01*
X10229238Y19814307D01*
X10254958Y19769758D01*
X10256100Y19756700D01*
X10256100Y17520011D01*
X10238507Y17471673D01*
X10193958Y17445953D01*
X10159714Y17447857D01*
X10097065Y17466252D01*
X10074913Y17472757D01*
X10033491Y17503255D01*
X10021363Y17553245D01*
X10025785Y17571571D01*
X10044408Y17620675D01*
X10063754Y17780000D01*
X10044408Y17939325D01*
X9987496Y18089391D01*
X9896324Y18221477D01*
X9896320Y18221481D01*
X9896315Y18221486D01*
X9776194Y18327903D01*
X9776188Y18327907D01*
X9634083Y18402490D01*
X9634081Y18402491D01*
X9582136Y18415294D01*
X9478248Y18440900D01*
X9317752Y18440900D01*
X9239836Y18421696D01*
X9161918Y18402491D01*
X9161916Y18402490D01*
X9019811Y18327907D01*
X9019805Y18327903D01*
X8899684Y18221486D01*
X8899672Y18221473D01*
X8808507Y18089397D01*
X8808502Y18089389D01*
X8751593Y17939329D01*
X8751592Y17939327D01*
X8751592Y17939325D01*
X8732246Y17780000D01*
X8751592Y17620675D01*
X8751592Y17620673D01*
X8751593Y17620672D01*
X8808502Y17470612D01*
X8808507Y17470604D01*
X8899672Y17338528D01*
X8899674Y17338526D01*
X8899676Y17338523D01*
X8899679Y17338521D01*
X8899684Y17338515D01*
X9019805Y17232098D01*
X9019811Y17232094D01*
X9100000Y17190007D01*
X9161920Y17157509D01*
X9317752Y17119100D01*
X9317754Y17119100D01*
X9475369Y17119100D01*
X9523707Y17101507D01*
X9549427Y17056958D01*
X9549803Y17033197D01*
X9547618Y17018000D01*
X9566251Y16888408D01*
X9566251Y16888407D01*
X9566252Y16888405D01*
X9566252Y16888403D01*
X9620637Y16769318D01*
X9620640Y16769313D01*
X9650493Y16734861D01*
X9706376Y16670369D01*
X9706378Y16670368D01*
X9706379Y16670367D01*
X9816516Y16599586D01*
X9905882Y16573346D01*
X9942138Y16562700D01*
X9942141Y16562700D01*
X10073059Y16562700D01*
X10073062Y16562700D01*
X10159715Y16588144D01*
X10211050Y16584882D01*
X10248279Y16549384D01*
X10256100Y16515990D01*
X10256100Y16210992D01*
X10259706Y16177447D01*
X10259710Y16177425D01*
X10266505Y16146191D01*
X10277166Y16114158D01*
X10293793Y16077752D01*
X10299824Y16057215D01*
X10308918Y15993965D01*
X10308917Y15972560D01*
X10299823Y15909314D01*
X10293794Y15888780D01*
X10277165Y15852365D01*
X10277162Y15852358D01*
X10266504Y15820335D01*
X10266499Y15820316D01*
X10259709Y15789101D01*
X10259706Y15789079D01*
X10256100Y15755538D01*
X10256100Y12373207D01*
X10238507Y12324869D01*
X10193958Y12299149D01*
X10153120Y12304361D01*
X10153044Y12304099D01*
X10151409Y12304580D01*
X10149662Y12304802D01*
X10147883Y12305615D01*
X10052488Y12333625D01*
X10011065Y12364124D01*
X9998937Y12414114D01*
X10003358Y12432435D01*
X10044408Y12540675D01*
X10063754Y12700000D01*
X10044408Y12859325D01*
X9987496Y13009391D01*
X9966612Y13039647D01*
X9896327Y13141473D01*
X9896326Y13141475D01*
X9896324Y13141477D01*
X9896320Y13141481D01*
X9896315Y13141486D01*
X9776194Y13247903D01*
X9776188Y13247907D01*
X9634083Y13322490D01*
X9634081Y13322491D01*
X9582136Y13335294D01*
X9478248Y13360900D01*
X9317752Y13360900D01*
X9239836Y13341696D01*
X9161918Y13322491D01*
X9161916Y13322490D01*
X9019811Y13247907D01*
X9019805Y13247903D01*
X8899684Y13141486D01*
X8899672Y13141473D01*
X8808507Y13009397D01*
X8808502Y13009389D01*
X8751593Y12859329D01*
X8751592Y12859327D01*
X8751592Y12859325D01*
X8741404Y12775422D01*
X8732246Y12700000D01*
X8751593Y12540666D01*
X8751680Y12540316D01*
X8751659Y12540126D01*
X8752141Y12536160D01*
X8751219Y12536049D01*
X8746162Y12489173D01*
X8709060Y12453543D01*
X8657736Y12450097D01*
X8621832Y12473080D01*
X8609224Y12487631D01*
X8609222Y12487632D01*
X8609220Y12487635D01*
X8499083Y12558415D01*
X8373464Y12595300D01*
X8373462Y12595300D01*
X8242538Y12595300D01*
X8242535Y12595300D01*
X8116916Y12558415D01*
X8006779Y12487634D01*
X7921040Y12388688D01*
X7921037Y12388683D01*
X7866652Y12269598D01*
X7866652Y12269596D01*
X7866651Y12269594D01*
X7866651Y12269592D01*
X7848018Y12140000D01*
X7866651Y12010408D01*
X7866651Y12010407D01*
X7866652Y12010405D01*
X7866652Y12010403D01*
X7921037Y11891318D01*
X7921040Y11891313D01*
X7952463Y11855049D01*
X8006776Y11792369D01*
X8006778Y11792368D01*
X8006779Y11792367D01*
X8116916Y11721586D01*
X8206282Y11695346D01*
X8242538Y11684700D01*
X8242541Y11684700D01*
X8373459Y11684700D01*
X8373462Y11684700D01*
X8499083Y11721586D01*
X8609224Y11792369D01*
X8694961Y11891315D01*
X8725759Y11958754D01*
X8749347Y12010403D01*
X8749347Y12010404D01*
X8749349Y12010408D01*
X8767982Y12140000D01*
X8767982Y12140003D01*
X8767982Y12140004D01*
X8757376Y12213761D01*
X8767910Y12264110D01*
X8808344Y12295909D01*
X8859758Y12294278D01*
X8893696Y12267185D01*
X8899671Y12258529D01*
X8899674Y12258526D01*
X8899676Y12258523D01*
X8899679Y12258521D01*
X8899684Y12258515D01*
X9019805Y12152098D01*
X9019807Y12152097D01*
X9019809Y12152095D01*
X9161920Y12077509D01*
X9317752Y12039100D01*
X9317754Y12039100D01*
X9431873Y12039100D01*
X9480211Y12021507D01*
X9505931Y11976958D01*
X9506307Y11953197D01*
X9496818Y11887204D01*
X9496818Y11887203D01*
X9496818Y11887200D01*
X9515451Y11757608D01*
X9515451Y11757607D01*
X9515452Y11757605D01*
X9515452Y11757603D01*
X9569837Y11638518D01*
X9569840Y11638513D01*
X9651319Y11544482D01*
X9669678Y11496429D01*
X9652853Y11447819D01*
X9617100Y11423517D01*
X9584400Y11413207D01*
X9584392Y11413204D01*
X9539844Y11387485D01*
X9539840Y11387482D01*
X9517295Y11371695D01*
X9470416Y11304745D01*
X9452821Y11256403D01*
X9443300Y11202405D01*
X9443300Y10896100D01*
X9425707Y10847762D01*
X9381158Y10822042D01*
X9368100Y10820900D01*
X9317752Y10820900D01*
X9239836Y10801696D01*
X9161918Y10782491D01*
X9161916Y10782490D01*
X9019811Y10707907D01*
X9019805Y10707903D01*
X8899684Y10601486D01*
X8899672Y10601473D01*
X8808507Y10469397D01*
X8808502Y10469389D01*
X8751593Y10319329D01*
X8751592Y10319327D01*
X8751592Y10319325D01*
X8732246Y10160000D01*
X8751592Y10000675D01*
X8751592Y10000673D01*
X8751593Y10000672D01*
X8808502Y9850612D01*
X8808507Y9850604D01*
X8899672Y9718528D01*
X8899674Y9718526D01*
X8899676Y9718523D01*
X8899679Y9718521D01*
X8899684Y9718515D01*
X9019805Y9612098D01*
X9019807Y9612097D01*
X9019809Y9612095D01*
X9161920Y9537509D01*
X9317752Y9499100D01*
X9317754Y9499100D01*
X9478246Y9499100D01*
X9478248Y9499100D01*
X9634080Y9537509D01*
X9776191Y9612095D01*
X9896324Y9718523D01*
X9987496Y9850609D01*
X10044408Y10000675D01*
X10063754Y10160000D01*
X10044408Y10319325D01*
X10029954Y10357435D01*
X10029264Y10408869D01*
X10061797Y10448714D01*
X10100268Y10459300D01*
X10180900Y10459300D01*
X10229238Y10441707D01*
X10254958Y10397158D01*
X10256100Y10384100D01*
X10256100Y3668469D01*
X10238507Y3620131D01*
X10193958Y3594411D01*
X10180900Y3593269D01*
X10086497Y3593269D01*
X9960878Y3556384D01*
X9850741Y3485603D01*
X9765002Y3386657D01*
X9764999Y3386652D01*
X9710614Y3267567D01*
X9710612Y3267559D01*
X9705219Y3230051D01*
X9680925Y3184709D01*
X9633170Y3165592D01*
X9612789Y3167739D01*
X9566480Y3179153D01*
X9478248Y3200900D01*
X9317752Y3200900D01*
X9239836Y3181696D01*
X9161918Y3162491D01*
X9161916Y3162490D01*
X9019811Y3087907D01*
X9019805Y3087903D01*
X8899684Y2981486D01*
X8899672Y2981473D01*
X8808507Y2849397D01*
X8808502Y2849389D01*
X8751593Y2699329D01*
X8751593Y2699328D01*
X8751592Y2699325D01*
X8732246Y2540000D01*
X8751592Y2380675D01*
X8751592Y2380673D01*
X8751593Y2380672D01*
X8808502Y2230612D01*
X8808507Y2230604D01*
X8899672Y2098528D01*
X8899674Y2098526D01*
X8899676Y2098523D01*
X8899679Y2098521D01*
X8899684Y2098515D01*
X9019805Y1992098D01*
X9019807Y1992097D01*
X9019809Y1992095D01*
X9161920Y1917509D01*
X9317752Y1879100D01*
X9317754Y1879100D01*
X9478246Y1879100D01*
X9478248Y1879100D01*
X9634080Y1917509D01*
X9776191Y1992095D01*
X9896324Y2098523D01*
X9987496Y2230609D01*
X10044408Y2380675D01*
X10063754Y2540000D01*
X10056662Y2598404D01*
X10068301Y2648510D01*
X10109424Y2679413D01*
X10131314Y2682669D01*
X10180900Y2682669D01*
X10229238Y2665076D01*
X10254958Y2620527D01*
X10256100Y2607469D01*
X10256100Y1728979D01*
X10238507Y1680641D01*
X10237734Y1679735D01*
X10230240Y1671087D01*
X10230238Y1671084D01*
X10175851Y1551995D01*
X10171407Y1521085D01*
X10157218Y1422400D01*
X10175851Y1292808D01*
X10175851Y1292807D01*
X10175852Y1292805D01*
X10175852Y1292803D01*
X10230237Y1173716D01*
X10230238Y1173715D01*
X10237732Y1165067D01*
X10256091Y1117015D01*
X10256100Y1115822D01*
X10256100Y1086211D01*
X10238507Y1037873D01*
X10193958Y1012153D01*
X10159714Y1014057D01*
X10073064Y1039500D01*
X10073062Y1039500D01*
X9942138Y1039500D01*
X9942135Y1039500D01*
X9816516Y1002615D01*
X9706379Y931834D01*
X9620640Y832888D01*
X9620637Y832883D01*
X9566252Y713798D01*
X9566252Y713796D01*
X9566251Y713794D01*
X9566251Y713792D01*
X9547618Y584200D01*
X9566251Y454608D01*
X9566251Y454607D01*
X9566252Y454605D01*
X9566252Y454603D01*
X9609256Y360439D01*
X9613333Y309161D01*
X9583495Y267260D01*
X9540852Y254000D01*
X329200Y254000D01*
X280862Y271593D01*
X255142Y316142D01*
X254000Y329200D01*
X254000Y1272400D01*
X1292618Y1272400D01*
X1311251Y1142808D01*
X1311251Y1142807D01*
X1311252Y1142805D01*
X1311252Y1142803D01*
X1365637Y1023718D01*
X1365640Y1023713D01*
X1383922Y1002615D01*
X1451376Y924769D01*
X1451378Y924768D01*
X1451379Y924767D01*
X1561516Y853986D01*
X1650882Y827746D01*
X1687138Y817100D01*
X1687141Y817100D01*
X1818059Y817100D01*
X1818062Y817100D01*
X1943683Y853986D01*
X2053824Y924769D01*
X2139561Y1023715D01*
X2193949Y1142808D01*
X2212582Y1272400D01*
X2193949Y1401992D01*
X2193947Y1401997D01*
X2193947Y1401998D01*
X2190475Y1409600D01*
X3758018Y1409600D01*
X3776651Y1280008D01*
X3776651Y1280007D01*
X3776652Y1280005D01*
X3776652Y1280003D01*
X3831037Y1160918D01*
X3831040Y1160913D01*
X3846731Y1142805D01*
X3916776Y1061969D01*
X3916778Y1061968D01*
X3916779Y1061967D01*
X4026916Y991186D01*
X4113662Y965715D01*
X4152538Y954300D01*
X4152541Y954300D01*
X4283459Y954300D01*
X4283462Y954300D01*
X4409083Y991186D01*
X4519224Y1061969D01*
X4604961Y1160915D01*
X4659349Y1280008D01*
X4666373Y1328857D01*
X5398761Y1328857D01*
X5417394Y1199265D01*
X5417394Y1199264D01*
X5417395Y1199262D01*
X5417395Y1199260D01*
X5471780Y1080175D01*
X5471783Y1080170D01*
X5496220Y1051969D01*
X5557519Y981226D01*
X5557521Y981225D01*
X5557522Y981224D01*
X5667659Y910443D01*
X5757025Y884203D01*
X5793281Y873557D01*
X5793284Y873557D01*
X5924202Y873557D01*
X5924205Y873557D01*
X6049826Y910443D01*
X6159967Y981226D01*
X6245704Y1080172D01*
X6290645Y1178580D01*
X6326728Y1215240D01*
X6377935Y1220130D01*
X6380200Y1219504D01*
X6492893Y1186414D01*
X6492896Y1186414D01*
X6623814Y1186414D01*
X6623817Y1186414D01*
X6749438Y1223300D01*
X6799000Y1255152D01*
X6849174Y1266484D01*
X6894896Y1242913D01*
X6908059Y1223129D01*
X6941038Y1150916D01*
X6941040Y1150913D01*
X6948066Y1142805D01*
X7026776Y1051969D01*
X7026778Y1051968D01*
X7026779Y1051967D01*
X7136916Y981186D01*
X7226282Y954946D01*
X7262538Y944300D01*
X7262541Y944300D01*
X7393459Y944300D01*
X7393462Y944300D01*
X7519083Y981186D01*
X7629224Y1051969D01*
X7714961Y1150915D01*
X7769349Y1270008D01*
X7787982Y1399600D01*
X7769349Y1529192D01*
X7769347Y1529197D01*
X7769347Y1529198D01*
X7714962Y1648283D01*
X7714959Y1648288D01*
X7678109Y1690814D01*
X7629224Y1747231D01*
X7629220Y1747234D01*
X7519083Y1818015D01*
X7393464Y1854900D01*
X7393462Y1854900D01*
X7262538Y1854900D01*
X7262535Y1854900D01*
X7136917Y1818015D01*
X7087354Y1786163D01*
X7037178Y1774831D01*
X6991457Y1798403D01*
X6978295Y1818187D01*
X6945317Y1890397D01*
X6945314Y1890402D01*
X6907097Y1934506D01*
X6859579Y1989345D01*
X6859575Y1989348D01*
X6749438Y2060129D01*
X6623819Y2097014D01*
X6623817Y2097014D01*
X6492893Y2097014D01*
X6492890Y2097014D01*
X6367271Y2060129D01*
X6257134Y1989348D01*
X6171395Y1890402D01*
X6171392Y1890397D01*
X6126453Y1791993D01*
X6090370Y1755332D01*
X6039163Y1750442D01*
X6036863Y1751078D01*
X5924207Y1784157D01*
X5924205Y1784157D01*
X5793281Y1784157D01*
X5793278Y1784157D01*
X5667659Y1747272D01*
X5557522Y1676491D01*
X5557519Y1676489D01*
X5557519Y1676488D01*
X5541749Y1658288D01*
X5471783Y1577545D01*
X5471780Y1577540D01*
X5417395Y1458455D01*
X5417395Y1458453D01*
X5417394Y1458451D01*
X5417394Y1458449D01*
X5398761Y1328857D01*
X4666373Y1328857D01*
X4677982Y1409600D01*
X4659349Y1539192D01*
X4659347Y1539197D01*
X4659347Y1539198D01*
X4604962Y1658283D01*
X4604959Y1658288D01*
X4579258Y1687948D01*
X4519224Y1757231D01*
X4519220Y1757234D01*
X4409083Y1828015D01*
X4283464Y1864900D01*
X4283462Y1864900D01*
X4152538Y1864900D01*
X4152535Y1864900D01*
X4026916Y1828015D01*
X3916779Y1757234D01*
X3916776Y1757232D01*
X3916776Y1757231D01*
X3908146Y1747271D01*
X3831040Y1658288D01*
X3831037Y1658283D01*
X3776652Y1539198D01*
X3776652Y1539196D01*
X3776651Y1539194D01*
X3776651Y1539192D01*
X3758018Y1409600D01*
X2190475Y1409600D01*
X2139562Y1521083D01*
X2139559Y1521088D01*
X2112777Y1551995D01*
X2053824Y1620031D01*
X2053820Y1620034D01*
X1943683Y1690815D01*
X1818064Y1727700D01*
X1818062Y1727700D01*
X1687138Y1727700D01*
X1687135Y1727700D01*
X1561516Y1690815D01*
X1451379Y1620034D01*
X1365640Y1521088D01*
X1365637Y1521083D01*
X1311252Y1401998D01*
X1311252Y1401996D01*
X1311251Y1401994D01*
X1311251Y1401992D01*
X1292618Y1272400D01*
X254000Y1272400D01*
X254000Y2540000D01*
X1112246Y2540000D01*
X1131592Y2380675D01*
X1131592Y2380673D01*
X1131593Y2380672D01*
X1188502Y2230612D01*
X1188507Y2230604D01*
X1279672Y2098528D01*
X1279674Y2098526D01*
X1279676Y2098523D01*
X1279679Y2098521D01*
X1279684Y2098515D01*
X1399805Y1992098D01*
X1399807Y1992097D01*
X1399809Y1992095D01*
X1541920Y1917509D01*
X1697752Y1879100D01*
X1697754Y1879100D01*
X1858246Y1879100D01*
X1858248Y1879100D01*
X2014080Y1917509D01*
X2085728Y1955114D01*
X2136704Y1961999D01*
X2180181Y1934506D01*
X2189079Y1919767D01*
X2239200Y1810018D01*
X2239202Y1810015D01*
X2261609Y1784157D01*
X2324938Y1711071D01*
X2324940Y1711070D01*
X2324941Y1711069D01*
X2435078Y1640288D01*
X2504057Y1620034D01*
X2560700Y1603402D01*
X2560703Y1603402D01*
X2691621Y1603402D01*
X2691624Y1603402D01*
X2817245Y1640288D01*
X2927386Y1711071D01*
X3013123Y1810017D01*
X3062213Y1917509D01*
X3067509Y1929105D01*
X3067509Y1929106D01*
X3067511Y1929110D01*
X3086144Y2058702D01*
X3067511Y2188294D01*
X3067509Y2188299D01*
X3067509Y2188300D01*
X3013124Y2307385D01*
X3013121Y2307390D01*
X2987420Y2337050D01*
X2927386Y2406333D01*
X2927382Y2406336D01*
X2817245Y2477117D01*
X2691626Y2514002D01*
X2691624Y2514002D01*
X2560700Y2514002D01*
X2560698Y2514002D01*
X2560694Y2514001D01*
X2535968Y2506741D01*
X2484631Y2510004D01*
X2447403Y2545503D01*
X2440132Y2569827D01*
X2424408Y2699325D01*
X2424407Y2699328D01*
X2367497Y2849389D01*
X2367492Y2849397D01*
X2276327Y2981473D01*
X2276326Y2981475D01*
X2276324Y2981477D01*
X2276320Y2981481D01*
X2276315Y2981486D01*
X2156194Y3087903D01*
X2156188Y3087907D01*
X2014083Y3162490D01*
X2014081Y3162491D01*
X1962136Y3175294D01*
X1858248Y3200900D01*
X1697752Y3200900D01*
X1619836Y3181696D01*
X1541918Y3162491D01*
X1541916Y3162490D01*
X1399811Y3087907D01*
X1399805Y3087903D01*
X1279684Y2981486D01*
X1279672Y2981473D01*
X1188507Y2849397D01*
X1188502Y2849389D01*
X1131593Y2699329D01*
X1131593Y2699328D01*
X1131592Y2699325D01*
X1112246Y2540000D01*
X254000Y2540000D01*
X254000Y5080000D01*
X1112246Y5080000D01*
X1131592Y4920675D01*
X1131592Y4920673D01*
X1131593Y4920672D01*
X1188502Y4770612D01*
X1188507Y4770604D01*
X1279672Y4638528D01*
X1279674Y4638526D01*
X1279676Y4638523D01*
X1279679Y4638521D01*
X1279684Y4638515D01*
X1399805Y4532098D01*
X1399807Y4532097D01*
X1399809Y4532095D01*
X1541920Y4457509D01*
X1697752Y4419100D01*
X1697754Y4419100D01*
X1858246Y4419100D01*
X1858248Y4419100D01*
X2014080Y4457509D01*
X2156191Y4532095D01*
X2276324Y4638523D01*
X2367496Y4770609D01*
X2424408Y4920675D01*
X2443754Y5080000D01*
X8732246Y5080000D01*
X8751592Y4920675D01*
X8751592Y4920673D01*
X8751593Y4920672D01*
X8808502Y4770612D01*
X8808507Y4770604D01*
X8899672Y4638528D01*
X8899674Y4638526D01*
X8899676Y4638523D01*
X8899679Y4638521D01*
X8899684Y4638515D01*
X9019805Y4532098D01*
X9019807Y4532097D01*
X9019809Y4532095D01*
X9161920Y4457509D01*
X9317752Y4419100D01*
X9317754Y4419100D01*
X9478246Y4419100D01*
X9478248Y4419100D01*
X9634080Y4457509D01*
X9776191Y4532095D01*
X9896324Y4638523D01*
X9987496Y4770609D01*
X10044408Y4920675D01*
X10063754Y5080000D01*
X10044408Y5239325D01*
X9987496Y5389391D01*
X9896324Y5521477D01*
X9896320Y5521481D01*
X9896315Y5521486D01*
X9776194Y5627903D01*
X9776188Y5627907D01*
X9634083Y5702490D01*
X9634081Y5702491D01*
X9582136Y5715294D01*
X9478248Y5740900D01*
X9317752Y5740900D01*
X9239836Y5721696D01*
X9161918Y5702491D01*
X9161916Y5702490D01*
X9019811Y5627907D01*
X9019805Y5627903D01*
X8899684Y5521486D01*
X8899672Y5521473D01*
X8808507Y5389397D01*
X8808502Y5389389D01*
X8751593Y5239329D01*
X8751592Y5239327D01*
X8751592Y5239325D01*
X8732246Y5080000D01*
X2443754Y5080000D01*
X2424408Y5239325D01*
X2367496Y5389391D01*
X2276324Y5521477D01*
X2276320Y5521481D01*
X2276315Y5521486D01*
X2156194Y5627903D01*
X2156188Y5627907D01*
X2014083Y5702490D01*
X2014081Y5702491D01*
X1962136Y5715294D01*
X1858248Y5740900D01*
X1697752Y5740900D01*
X1619836Y5721696D01*
X1541918Y5702491D01*
X1541916Y5702490D01*
X1399811Y5627907D01*
X1399805Y5627903D01*
X1279684Y5521486D01*
X1279672Y5521473D01*
X1188507Y5389397D01*
X1188502Y5389389D01*
X1131593Y5239329D01*
X1131592Y5239327D01*
X1131592Y5239325D01*
X1112246Y5080000D01*
X254000Y5080000D01*
X254000Y8483600D01*
X860818Y8483600D01*
X879451Y8354008D01*
X879451Y8354007D01*
X879452Y8354005D01*
X879452Y8354003D01*
X933837Y8234918D01*
X933840Y8234913D01*
X965263Y8198649D01*
X1019576Y8135969D01*
X1019578Y8135968D01*
X1019579Y8135967D01*
X1129716Y8065186D01*
X1156761Y8057245D01*
X1198185Y8026747D01*
X1210313Y7976757D01*
X1197465Y7942374D01*
X1188506Y7929395D01*
X1188502Y7929389D01*
X1131593Y7779329D01*
X1131592Y7779327D01*
X1131592Y7779325D01*
X1112246Y7620000D01*
X1131592Y7460675D01*
X1131592Y7460673D01*
X1131593Y7460672D01*
X1188502Y7310612D01*
X1188507Y7310604D01*
X1279672Y7178528D01*
X1279674Y7178526D01*
X1279676Y7178523D01*
X1279679Y7178521D01*
X1279684Y7178515D01*
X1399805Y7072098D01*
X1399807Y7072097D01*
X1399809Y7072095D01*
X1541920Y6997509D01*
X1697752Y6959100D01*
X1697754Y6959100D01*
X1858246Y6959100D01*
X1858248Y6959100D01*
X2014080Y6997509D01*
X2156191Y7072095D01*
X2276324Y7178523D01*
X2367496Y7310609D01*
X2401246Y7399600D01*
X3220618Y7399600D01*
X3239251Y7270008D01*
X3239251Y7270007D01*
X3239252Y7270005D01*
X3239252Y7270003D01*
X3293637Y7150918D01*
X3293640Y7150913D01*
X3325063Y7114649D01*
X3379376Y7051969D01*
X3379378Y7051968D01*
X3379379Y7051967D01*
X3489516Y6981186D01*
X3564734Y6959100D01*
X3615138Y6944300D01*
X3615141Y6944300D01*
X3746059Y6944300D01*
X3746062Y6944300D01*
X3871683Y6981186D01*
X3981824Y7051969D01*
X4067561Y7150915D01*
X4121949Y7270008D01*
X4140582Y7399600D01*
X4121949Y7529192D01*
X4121947Y7529197D01*
X4121947Y7529198D01*
X4067562Y7648283D01*
X4067559Y7648288D01*
X4041858Y7677948D01*
X3981824Y7747231D01*
X3981820Y7747234D01*
X3871683Y7818015D01*
X3746064Y7854900D01*
X3746062Y7854900D01*
X3615138Y7854900D01*
X3615135Y7854900D01*
X3489516Y7818015D01*
X3379379Y7747234D01*
X3293640Y7648288D01*
X3293637Y7648283D01*
X3239252Y7529198D01*
X3239252Y7529196D01*
X3239251Y7529194D01*
X3239251Y7529192D01*
X3220618Y7399600D01*
X2401246Y7399600D01*
X2424408Y7460675D01*
X2443754Y7620000D01*
X2424408Y7779325D01*
X2367496Y7929391D01*
X2331817Y7981081D01*
X2276327Y8061473D01*
X2276326Y8061475D01*
X2276324Y8061477D01*
X2276320Y8061481D01*
X2276315Y8061486D01*
X2156194Y8167903D01*
X2156188Y8167907D01*
X2014083Y8242490D01*
X2014081Y8242491D01*
X1962136Y8255294D01*
X1858248Y8280900D01*
X1858246Y8280900D01*
X1838423Y8280900D01*
X1790085Y8298493D01*
X1764365Y8343042D01*
X1763988Y8366799D01*
X1773993Y8436381D01*
X8427618Y8436381D01*
X8446251Y8306789D01*
X8446251Y8306788D01*
X8446252Y8306786D01*
X8446252Y8306784D01*
X8500637Y8187699D01*
X8500640Y8187694D01*
X8532063Y8151430D01*
X8586376Y8088750D01*
X8586378Y8088749D01*
X8586379Y8088748D01*
X8696517Y8017967D01*
X8749581Y8002386D01*
X8791005Y7971887D01*
X8803133Y7921898D01*
X8798709Y7903566D01*
X8751593Y7779329D01*
X8751592Y7779327D01*
X8751592Y7779325D01*
X8732246Y7620000D01*
X8751592Y7460675D01*
X8751592Y7460673D01*
X8751593Y7460672D01*
X8808502Y7310612D01*
X8808507Y7310604D01*
X8899672Y7178528D01*
X8899674Y7178526D01*
X8899676Y7178523D01*
X8899679Y7178521D01*
X8899684Y7178515D01*
X9019805Y7072098D01*
X9019807Y7072097D01*
X9019809Y7072095D01*
X9161920Y6997509D01*
X9317752Y6959100D01*
X9317754Y6959100D01*
X9478246Y6959100D01*
X9478248Y6959100D01*
X9634080Y6997509D01*
X9776191Y7072095D01*
X9896324Y7178523D01*
X9987496Y7310609D01*
X10044408Y7460675D01*
X10063754Y7620000D01*
X10044408Y7779325D01*
X9987496Y7929391D01*
X9951817Y7981081D01*
X9896327Y8061473D01*
X9896326Y8061475D01*
X9896324Y8061477D01*
X9896320Y8061481D01*
X9896315Y8061486D01*
X9776194Y8167903D01*
X9776188Y8167907D01*
X9634083Y8242490D01*
X9634081Y8242491D01*
X9582136Y8255294D01*
X9478248Y8280900D01*
X9412012Y8280900D01*
X9363674Y8298493D01*
X9337954Y8343042D01*
X9337578Y8366803D01*
X9347582Y8436378D01*
X9347582Y8436379D01*
X9347582Y8436381D01*
X9328949Y8565973D01*
X9328947Y8565978D01*
X9328947Y8565979D01*
X9274562Y8685064D01*
X9274559Y8685069D01*
X9233647Y8732283D01*
X9188824Y8784012D01*
X9188820Y8784015D01*
X9078683Y8854796D01*
X8953064Y8891681D01*
X8953062Y8891681D01*
X8822138Y8891681D01*
X8822135Y8891681D01*
X8696516Y8854796D01*
X8586379Y8784015D01*
X8500640Y8685069D01*
X8500637Y8685064D01*
X8446252Y8565979D01*
X8446252Y8565977D01*
X8446251Y8565975D01*
X8446251Y8565973D01*
X8427618Y8436381D01*
X1773993Y8436381D01*
X1780782Y8483600D01*
X1762149Y8613192D01*
X1762147Y8613197D01*
X1762147Y8613198D01*
X1707762Y8732283D01*
X1707759Y8732288D01*
X1662939Y8784012D01*
X1622024Y8831231D01*
X1622020Y8831234D01*
X1511883Y8902015D01*
X1386264Y8938900D01*
X1386262Y8938900D01*
X1255338Y8938900D01*
X1255335Y8938900D01*
X1129716Y8902015D01*
X1019579Y8831234D01*
X933840Y8732288D01*
X933837Y8732283D01*
X879452Y8613198D01*
X879452Y8613196D01*
X879451Y8613194D01*
X879451Y8613192D01*
X860818Y8483600D01*
X254000Y8483600D01*
X254000Y10160000D01*
X1112246Y10160000D01*
X1131592Y10000675D01*
X1131592Y10000673D01*
X1131593Y10000672D01*
X1188502Y9850612D01*
X1188507Y9850604D01*
X1279672Y9718528D01*
X1279674Y9718526D01*
X1279676Y9718523D01*
X1279679Y9718521D01*
X1279684Y9718515D01*
X1399805Y9612098D01*
X1399807Y9612097D01*
X1399809Y9612095D01*
X1541920Y9537509D01*
X1697752Y9499100D01*
X1697754Y9499100D01*
X1858245Y9499100D01*
X1858248Y9499100D01*
X2000989Y9534283D01*
X2052130Y9528769D01*
X2087763Y9491670D01*
X2093418Y9471970D01*
X2093442Y9471802D01*
X2093442Y9471800D01*
X2112075Y9342208D01*
X2112075Y9342207D01*
X2112076Y9342205D01*
X2112076Y9342203D01*
X2166461Y9223118D01*
X2166464Y9223113D01*
X2197887Y9186849D01*
X2252200Y9124169D01*
X2252202Y9124168D01*
X2252203Y9124167D01*
X2362340Y9053386D01*
X2451706Y9027146D01*
X2487962Y9016500D01*
X2487965Y9016500D01*
X2618883Y9016500D01*
X2618886Y9016500D01*
X2744507Y9053386D01*
X2854648Y9124169D01*
X2940385Y9223115D01*
X2994773Y9342208D01*
X3013406Y9471800D01*
X2994773Y9601392D01*
X2994771Y9601397D01*
X2994771Y9601398D01*
X2940386Y9720483D01*
X2940383Y9720488D01*
X2910044Y9755500D01*
X2854648Y9819431D01*
X2854644Y9819434D01*
X2744507Y9890215D01*
X2618888Y9927100D01*
X2618886Y9927100D01*
X2500357Y9927100D01*
X2452019Y9944693D01*
X2426299Y9989242D01*
X2425705Y10011359D01*
X2443754Y10160000D01*
X2437585Y10210800D01*
X4137418Y10210800D01*
X4156051Y10081208D01*
X4156051Y10081207D01*
X4156052Y10081205D01*
X4156052Y10081203D01*
X4210437Y9962118D01*
X4210440Y9962113D01*
X4225535Y9944693D01*
X4296176Y9863169D01*
X4296178Y9863168D01*
X4296179Y9863167D01*
X4406316Y9792386D01*
X4495682Y9766146D01*
X4531938Y9755500D01*
X4531941Y9755500D01*
X4662859Y9755500D01*
X4662862Y9755500D01*
X4788483Y9792386D01*
X4898624Y9863169D01*
X4984361Y9962115D01*
X5038749Y10081208D01*
X5057382Y10210800D01*
X5038749Y10340392D01*
X5038747Y10340396D01*
X4999194Y10427005D01*
X4995117Y10478283D01*
X5024955Y10520185D01*
X5067598Y10533445D01*
X5135859Y10533445D01*
X5135862Y10533445D01*
X5261483Y10570331D01*
X5371624Y10641114D01*
X5457361Y10740060D01*
X5480168Y10790000D01*
X5868018Y10790000D01*
X5886651Y10660408D01*
X5886651Y10660407D01*
X5886652Y10660405D01*
X5886652Y10660403D01*
X5941037Y10541318D01*
X5941040Y10541313D01*
X5947858Y10533445D01*
X6026776Y10442369D01*
X6026778Y10442368D01*
X6026779Y10442367D01*
X6136916Y10371586D01*
X6166716Y10362836D01*
X6262538Y10334700D01*
X6262541Y10334700D01*
X6393459Y10334700D01*
X6393462Y10334700D01*
X6519083Y10371586D01*
X6577097Y10408869D01*
X6629222Y10442367D01*
X6629223Y10442368D01*
X6645344Y10460972D01*
X6708142Y10533445D01*
X6712995Y10539046D01*
X6757945Y10564056D01*
X6808455Y10554321D01*
X6810483Y10553063D01*
X6896384Y10497858D01*
X6985750Y10471618D01*
X7022006Y10460972D01*
X7022009Y10460972D01*
X7152927Y10460972D01*
X7152930Y10460972D01*
X7278551Y10497858D01*
X7388692Y10568641D01*
X7474429Y10667587D01*
X7509660Y10744732D01*
X7528815Y10786675D01*
X7528815Y10786676D01*
X7528817Y10786680D01*
X7547450Y10916272D01*
X7528817Y11045864D01*
X7528815Y11045869D01*
X7528815Y11045870D01*
X7474430Y11164955D01*
X7474427Y11164960D01*
X7448726Y11194620D01*
X7388692Y11263903D01*
X7388688Y11263906D01*
X7278551Y11334687D01*
X7152932Y11371572D01*
X7152930Y11371572D01*
X7022006Y11371572D01*
X7022003Y11371572D01*
X6896384Y11334687D01*
X6786247Y11263906D01*
X6786244Y11263904D01*
X6786244Y11263903D01*
X6764547Y11238863D01*
X6702472Y11167226D01*
X6657521Y11142216D01*
X6607011Y11151952D01*
X6604984Y11153210D01*
X6519083Y11208415D01*
X6393464Y11245300D01*
X6393462Y11245300D01*
X6262538Y11245300D01*
X6262535Y11245300D01*
X6136916Y11208415D01*
X6026779Y11137634D01*
X5941040Y11038688D01*
X5941037Y11038683D01*
X5886652Y10919598D01*
X5886652Y10919596D01*
X5886651Y10919594D01*
X5886651Y10919592D01*
X5868018Y10790000D01*
X5480168Y10790000D01*
X5511749Y10859153D01*
X5530382Y10988745D01*
X5511749Y11118337D01*
X5511747Y11118342D01*
X5511747Y11118343D01*
X5457362Y11237428D01*
X5457359Y11237433D01*
X5431658Y11267093D01*
X5371624Y11336376D01*
X5371620Y11336379D01*
X5261483Y11407160D01*
X5135864Y11444045D01*
X5135862Y11444045D01*
X5004938Y11444045D01*
X5004935Y11444045D01*
X4879316Y11407160D01*
X4769179Y11336379D01*
X4769176Y11336377D01*
X4769176Y11336376D01*
X4767712Y11334686D01*
X4683440Y11237433D01*
X4683437Y11237428D01*
X4629052Y11118343D01*
X4629052Y11118341D01*
X4629051Y11118339D01*
X4629051Y11118337D01*
X4617598Y11038683D01*
X4610418Y10988745D01*
X4629051Y10859151D01*
X4668606Y10772540D01*
X4672683Y10721262D01*
X4642845Y10679360D01*
X4600202Y10666100D01*
X4531935Y10666100D01*
X4406316Y10629215D01*
X4296179Y10558434D01*
X4210440Y10459488D01*
X4210437Y10459483D01*
X4156052Y10340398D01*
X4156052Y10340396D01*
X4156052Y10340395D01*
X4156051Y10340392D01*
X4137418Y10210800D01*
X2437585Y10210800D01*
X2436334Y10221101D01*
X2447972Y10271202D01*
X2489095Y10302105D01*
X2532171Y10302316D01*
X2602382Y10281700D01*
X2602385Y10281700D01*
X2733303Y10281700D01*
X2733306Y10281700D01*
X2858927Y10318586D01*
X2969068Y10389369D01*
X3054805Y10488315D01*
X3091489Y10568641D01*
X3109191Y10607403D01*
X3109191Y10607404D01*
X3109193Y10607408D01*
X3127826Y10737000D01*
X3109193Y10866592D01*
X3109191Y10866597D01*
X3109191Y10866598D01*
X3054806Y10985683D01*
X3054803Y10985688D01*
X3050911Y10990180D01*
X3315134Y10990180D01*
X3333767Y10860588D01*
X3333767Y10860587D01*
X3333768Y10860585D01*
X3333768Y10860583D01*
X3388153Y10741498D01*
X3388156Y10741493D01*
X3401916Y10725614D01*
X3473892Y10642549D01*
X3473894Y10642548D01*
X3473895Y10642547D01*
X3584032Y10571766D01*
X3647729Y10553063D01*
X3709654Y10534880D01*
X3709657Y10534880D01*
X3840575Y10534880D01*
X3840578Y10534880D01*
X3966199Y10571766D01*
X4076340Y10642549D01*
X4162077Y10741495D01*
X4210608Y10847762D01*
X4216463Y10860583D01*
X4216463Y10860584D01*
X4216465Y10860588D01*
X4235098Y10990180D01*
X4216465Y11119772D01*
X4216463Y11119777D01*
X4216463Y11119778D01*
X4162078Y11238863D01*
X4162075Y11238868D01*
X4104995Y11304741D01*
X4076340Y11337811D01*
X4076336Y11337814D01*
X3966199Y11408595D01*
X3840580Y11445480D01*
X3840578Y11445480D01*
X3709654Y11445480D01*
X3709651Y11445480D01*
X3584032Y11408595D01*
X3473895Y11337814D01*
X3473892Y11337812D01*
X3473892Y11337811D01*
X3456726Y11318001D01*
X3388156Y11238868D01*
X3388153Y11238863D01*
X3333768Y11119778D01*
X3333768Y11119776D01*
X3333767Y11119774D01*
X3333767Y11119772D01*
X3315134Y10990180D01*
X3050911Y10990180D01*
X3008880Y11038685D01*
X2969068Y11084631D01*
X2969064Y11084634D01*
X2858927Y11155415D01*
X2733308Y11192300D01*
X2733306Y11192300D01*
X2602382Y11192300D01*
X2602379Y11192300D01*
X2476760Y11155415D01*
X2366623Y11084634D01*
X2280884Y10985688D01*
X2280881Y10985683D01*
X2226496Y10866598D01*
X2226494Y10866590D01*
X2215492Y10790073D01*
X2191198Y10744732D01*
X2143443Y10725614D01*
X2106111Y10734190D01*
X2014083Y10782490D01*
X2014081Y10782491D01*
X1962136Y10795294D01*
X1858248Y10820900D01*
X1697752Y10820900D01*
X1619836Y10801696D01*
X1541918Y10782491D01*
X1541916Y10782490D01*
X1399811Y10707907D01*
X1399805Y10707903D01*
X1279684Y10601486D01*
X1279672Y10601473D01*
X1188507Y10469397D01*
X1188502Y10469389D01*
X1131593Y10319329D01*
X1131592Y10319327D01*
X1131592Y10319325D01*
X1112246Y10160000D01*
X254000Y10160000D01*
X254000Y11349300D01*
X271593Y11397638D01*
X316142Y11423358D01*
X329200Y11424500D01*
X1448790Y11424500D01*
X1448800Y11424500D01*
X1462557Y11425100D01*
X1475615Y11426242D01*
X1540807Y11446796D01*
X1585356Y11472516D01*
X1607904Y11488305D01*
X1654785Y11555259D01*
X1672378Y11603597D01*
X1681899Y11657596D01*
X1681900Y11657596D01*
X1681900Y11963900D01*
X1699493Y12012238D01*
X1744042Y12037958D01*
X1757100Y12039100D01*
X1858246Y12039100D01*
X1858248Y12039100D01*
X2014080Y12077509D01*
X2156191Y12152095D01*
X2276324Y12258523D01*
X2367496Y12390609D01*
X2419123Y12526739D01*
X3951358Y12526739D01*
X3969991Y12397147D01*
X3969991Y12397146D01*
X3969992Y12397144D01*
X3969992Y12397142D01*
X4024377Y12278057D01*
X4024380Y12278052D01*
X4055803Y12241788D01*
X4110116Y12179108D01*
X4110118Y12179107D01*
X4110119Y12179106D01*
X4220256Y12108325D01*
X4309622Y12082085D01*
X4345878Y12071439D01*
X4345881Y12071439D01*
X4476799Y12071439D01*
X4476802Y12071439D01*
X4602423Y12108325D01*
X4712564Y12179108D01*
X4798301Y12278054D01*
X4852689Y12397147D01*
X4871322Y12526739D01*
X4852689Y12656331D01*
X4852687Y12656336D01*
X4852687Y12656337D01*
X4798302Y12775422D01*
X4798299Y12775427D01*
X4772598Y12805087D01*
X4712564Y12874370D01*
X4712560Y12874373D01*
X4602423Y12945154D01*
X4476804Y12982039D01*
X4476802Y12982039D01*
X4345878Y12982039D01*
X4345875Y12982039D01*
X4220256Y12945154D01*
X4110119Y12874373D01*
X4110116Y12874371D01*
X4110116Y12874370D01*
X4092950Y12854560D01*
X4024380Y12775427D01*
X4024377Y12775422D01*
X3969992Y12656337D01*
X3969992Y12656335D01*
X3969991Y12656333D01*
X3969991Y12656331D01*
X3951358Y12526739D01*
X2419123Y12526739D01*
X2424408Y12540675D01*
X2443754Y12700000D01*
X2424408Y12859325D01*
X2367496Y13009391D01*
X2346612Y13039647D01*
X2276327Y13141473D01*
X2276326Y13141475D01*
X2276324Y13141477D01*
X2276320Y13141481D01*
X2276315Y13141486D01*
X2156194Y13247903D01*
X2156188Y13247907D01*
X2019054Y13319881D01*
X2438018Y13319881D01*
X2456651Y13190289D01*
X2456651Y13190288D01*
X2456652Y13190286D01*
X2456652Y13190284D01*
X2511037Y13071199D01*
X2511040Y13071194D01*
X2529294Y13050128D01*
X2596776Y12972250D01*
X2596778Y12972249D01*
X2596779Y12972248D01*
X2706916Y12901467D01*
X2796282Y12875227D01*
X2832538Y12864581D01*
X2832541Y12864581D01*
X2963459Y12864581D01*
X2963462Y12864581D01*
X3089083Y12901467D01*
X3199224Y12972250D01*
X3284961Y13071196D01*
X3287089Y13075856D01*
X5386331Y13075856D01*
X5404964Y12946264D01*
X5404964Y12946263D01*
X5404965Y12946261D01*
X5404965Y12946259D01*
X5459350Y12827174D01*
X5459353Y12827169D01*
X5490776Y12790905D01*
X5545089Y12728225D01*
X5545091Y12728224D01*
X5545092Y12728223D01*
X5655229Y12657442D01*
X5744595Y12631202D01*
X5780851Y12620556D01*
X5780854Y12620556D01*
X5911772Y12620556D01*
X5911775Y12620556D01*
X6037396Y12657442D01*
X6147537Y12728225D01*
X6233274Y12827171D01*
X6287662Y12946264D01*
X6306295Y13075856D01*
X6287662Y13205448D01*
X6287660Y13205453D01*
X6287660Y13205454D01*
X6233275Y13324539D01*
X6233272Y13324544D01*
X6201769Y13360900D01*
X6147537Y13423487D01*
X6147533Y13423490D01*
X6037396Y13494271D01*
X5911777Y13531156D01*
X5911775Y13531156D01*
X5780851Y13531156D01*
X5780848Y13531156D01*
X5655229Y13494271D01*
X5545092Y13423490D01*
X5459353Y13324544D01*
X5459350Y13324539D01*
X5404965Y13205454D01*
X5404965Y13205452D01*
X5404964Y13205450D01*
X5404964Y13205448D01*
X5386331Y13075856D01*
X3287089Y13075856D01*
X3339349Y13190289D01*
X3357982Y13319881D01*
X3339349Y13449473D01*
X3339347Y13449478D01*
X3339347Y13449479D01*
X3284962Y13568564D01*
X3284959Y13568569D01*
X3259258Y13598229D01*
X3199224Y13667512D01*
X3199220Y13667515D01*
X3089083Y13738296D01*
X2963464Y13775181D01*
X2963462Y13775181D01*
X2832538Y13775181D01*
X2832535Y13775181D01*
X2706916Y13738296D01*
X2596779Y13667515D01*
X2511040Y13568569D01*
X2511037Y13568564D01*
X2456652Y13449479D01*
X2456652Y13449477D01*
X2456651Y13449475D01*
X2456651Y13449473D01*
X2438018Y13319881D01*
X2019054Y13319881D01*
X2014083Y13322490D01*
X2014081Y13322491D01*
X1962136Y13335294D01*
X1858248Y13360900D01*
X1697752Y13360900D01*
X1619836Y13341696D01*
X1541918Y13322491D01*
X1541916Y13322490D01*
X1399811Y13247907D01*
X1399805Y13247903D01*
X1279684Y13141486D01*
X1279675Y13141477D01*
X1209388Y13039647D01*
X1167450Y13009861D01*
X1116177Y13014000D01*
X1079560Y13050128D01*
X1072300Y13082366D01*
X1072300Y14857635D01*
X1089893Y14905973D01*
X1134442Y14931693D01*
X1185100Y14922760D01*
X1209386Y14900356D01*
X1279676Y14798523D01*
X1279680Y14798520D01*
X1279684Y14798515D01*
X1399805Y14692098D01*
X1399811Y14692094D01*
X1498274Y14640416D01*
X1541920Y14617509D01*
X1697752Y14579100D01*
X1697754Y14579100D01*
X1858246Y14579100D01*
X1858248Y14579100D01*
X2014080Y14617509D01*
X2156191Y14692095D01*
X2276324Y14798523D01*
X2367496Y14930609D01*
X2424408Y15080675D01*
X2443754Y15240000D01*
X2424408Y15399325D01*
X2367496Y15549391D01*
X2276324Y15681477D01*
X2276320Y15681481D01*
X2276315Y15681486D01*
X2156194Y15787903D01*
X2156188Y15787907D01*
X2014083Y15862490D01*
X2014081Y15862491D01*
X1952764Y15877604D01*
X1858248Y15900900D01*
X1736830Y15900900D01*
X1688492Y15918493D01*
X1662772Y15963042D01*
X1662395Y15986802D01*
X1663817Y15996691D01*
X1679190Y16103608D01*
X1660557Y16233200D01*
X1660555Y16233205D01*
X1660555Y16233206D01*
X1606170Y16352291D01*
X1606167Y16352296D01*
X1578533Y16384187D01*
X1520432Y16451239D01*
X1520428Y16451242D01*
X1410291Y16522023D01*
X1284672Y16558908D01*
X1284670Y16558908D01*
X1153746Y16558908D01*
X1148368Y16558908D01*
X1148368Y16561580D01*
X1107756Y16570123D01*
X1076001Y16610591D01*
X1073099Y16628353D01*
X1072611Y16628305D01*
X1072287Y16631635D01*
X1072287Y16631645D01*
X1061892Y16686809D01*
X1043533Y16734861D01*
X1015365Y16781908D01*
X1015364Y16781909D01*
X1015363Y16781911D01*
X984280Y16817781D01*
X972710Y16835785D01*
X946167Y16893906D01*
X940138Y16914437D01*
X931043Y16977694D01*
X931043Y16999089D01*
X940137Y17062347D01*
X946168Y17082881D01*
X950770Y17092956D01*
X972711Y17141002D01*
X984284Y17159007D01*
X1015452Y17194974D01*
X1015868Y17195460D01*
X1016133Y17195767D01*
X1016908Y17196675D01*
X1045185Y17245181D01*
X1062778Y17293519D01*
X1072299Y17347518D01*
X1072300Y17347518D01*
X1072300Y17397635D01*
X1089893Y17445973D01*
X1134442Y17471693D01*
X1185100Y17462760D01*
X1209386Y17440356D01*
X1279676Y17338523D01*
X1279680Y17338520D01*
X1279684Y17338515D01*
X1399805Y17232098D01*
X1399811Y17232094D01*
X1480000Y17190007D01*
X1541920Y17157509D01*
X1697752Y17119100D01*
X1697754Y17119100D01*
X1858246Y17119100D01*
X1858248Y17119100D01*
X2014080Y17157509D01*
X2017950Y17159541D01*
X2068924Y17166429D01*
X2112403Y17138939D01*
X2128100Y17092956D01*
X2128100Y16331211D01*
X2128700Y16317435D01*
X2129613Y16306997D01*
X2129842Y16304385D01*
X2150396Y16239193D01*
X2176115Y16194645D01*
X2176118Y16194641D01*
X2191905Y16172096D01*
X2258856Y16125217D01*
X2258857Y16125217D01*
X2258859Y16125215D01*
X2307197Y16107622D01*
X2361195Y16098101D01*
X2361196Y16098100D01*
X2361200Y16098100D01*
X2539537Y16098100D01*
X2587875Y16080507D01*
X2613595Y16035958D01*
X2607941Y15991661D01*
X2555852Y15877604D01*
X2555852Y15877602D01*
X2555851Y15877600D01*
X2555851Y15877598D01*
X2537218Y15748006D01*
X2555851Y15618414D01*
X2555851Y15618413D01*
X2555852Y15618411D01*
X2555852Y15618409D01*
X2610237Y15499324D01*
X2610240Y15499319D01*
X2613339Y15495743D01*
X2695976Y15400375D01*
X2695978Y15400374D01*
X2695979Y15400373D01*
X2806116Y15329592D01*
X2857665Y15314456D01*
X2931738Y15292706D01*
X2931741Y15292706D01*
X3062659Y15292706D01*
X3062662Y15292706D01*
X3140351Y15315518D01*
X3191684Y15312256D01*
X3226033Y15281525D01*
X3226120Y15281580D01*
X3226134Y15281589D01*
X3226195Y15281627D01*
X3226561Y15281053D01*
X3226660Y15280963D01*
X3227076Y15280244D01*
X3227079Y15280239D01*
X3242865Y15257696D01*
X3309816Y15210817D01*
X3309817Y15210817D01*
X3309819Y15210815D01*
X3358157Y15193222D01*
X3412155Y15183701D01*
X3412156Y15183700D01*
X5438754Y15183700D01*
X5487092Y15166107D01*
X5512812Y15121558D01*
X5503879Y15070900D01*
X5479410Y15045238D01*
X5390423Y14988051D01*
X5304684Y14889104D01*
X5304681Y14889099D01*
X5250296Y14770014D01*
X5250296Y14770012D01*
X5250295Y14770010D01*
X5250295Y14770008D01*
X5231662Y14640416D01*
X5250295Y14510824D01*
X5250295Y14510823D01*
X5250296Y14510821D01*
X5250296Y14510819D01*
X5304681Y14391734D01*
X5304684Y14391729D01*
X5336107Y14355465D01*
X5390420Y14292785D01*
X5390422Y14292784D01*
X5390423Y14292783D01*
X5500560Y14222002D01*
X5589926Y14195762D01*
X5626182Y14185116D01*
X5626185Y14185116D01*
X5757103Y14185116D01*
X5757106Y14185116D01*
X5882727Y14222002D01*
X5992868Y14292785D01*
X6078605Y14391731D01*
X6132993Y14510824D01*
X6151626Y14640416D01*
X6132993Y14770008D01*
X6132991Y14770013D01*
X6132991Y14770014D01*
X6078606Y14889099D01*
X6078603Y14889104D01*
X6049439Y14922760D01*
X5992868Y14988047D01*
X5992864Y14988050D01*
X5882725Y15058832D01*
X5881050Y15059597D01*
X5880139Y15060494D01*
X5878203Y15061738D01*
X5878463Y15062144D01*
X5844394Y15095686D01*
X5839512Y15146894D01*
X5868688Y15189259D01*
X5889681Y15199714D01*
X5909607Y15205996D01*
X5954156Y15231716D01*
X5965986Y15240000D01*
X8732246Y15240000D01*
X8751592Y15080675D01*
X8751592Y15080673D01*
X8751593Y15080672D01*
X8808502Y14930612D01*
X8808507Y14930604D01*
X8899672Y14798528D01*
X8899674Y14798526D01*
X8899676Y14798523D01*
X8899679Y14798521D01*
X8899684Y14798515D01*
X9019805Y14692098D01*
X9019811Y14692094D01*
X9118274Y14640416D01*
X9161920Y14617509D01*
X9317752Y14579100D01*
X9317754Y14579100D01*
X9478246Y14579100D01*
X9478248Y14579100D01*
X9634080Y14617509D01*
X9776191Y14692095D01*
X9896324Y14798523D01*
X9987496Y14930609D01*
X10044408Y15080675D01*
X10063754Y15240000D01*
X10044408Y15399325D01*
X9987496Y15549391D01*
X9896324Y15681477D01*
X9896320Y15681481D01*
X9896315Y15681486D01*
X9776194Y15787903D01*
X9776188Y15787907D01*
X9634083Y15862490D01*
X9634081Y15862491D01*
X9572764Y15877604D01*
X9478248Y15900900D01*
X9317752Y15900900D01*
X9239836Y15881696D01*
X9161918Y15862491D01*
X9161916Y15862490D01*
X9019811Y15787907D01*
X9019805Y15787903D01*
X8899684Y15681486D01*
X8899672Y15681473D01*
X8808507Y15549397D01*
X8808502Y15549389D01*
X8751593Y15399329D01*
X8751592Y15399327D01*
X8751592Y15399325D01*
X8732246Y15240000D01*
X5965986Y15240000D01*
X5976704Y15247505D01*
X6017694Y15306047D01*
X6023583Y15314456D01*
X6023583Y15314457D01*
X6023585Y15314459D01*
X6041178Y15362797D01*
X6050699Y15416796D01*
X6050700Y15416796D01*
X6050700Y15951042D01*
X7725376Y15951042D01*
X7744009Y15821450D01*
X7744009Y15821449D01*
X7744010Y15821447D01*
X7744010Y15821445D01*
X7798395Y15702360D01*
X7798398Y15702355D01*
X7816493Y15681473D01*
X7884134Y15603411D01*
X7884136Y15603410D01*
X7884137Y15603409D01*
X7994274Y15532628D01*
X8083640Y15506388D01*
X8119896Y15495742D01*
X8119899Y15495742D01*
X8250817Y15495742D01*
X8250820Y15495742D01*
X8376441Y15532628D01*
X8486582Y15603411D01*
X8572319Y15702357D01*
X8611387Y15787903D01*
X8626705Y15821445D01*
X8626705Y15821446D01*
X8626707Y15821450D01*
X8645340Y15951042D01*
X8626707Y16080634D01*
X8626705Y16080639D01*
X8626705Y16080640D01*
X8572320Y16199725D01*
X8572317Y16199730D01*
X8546616Y16229390D01*
X8486582Y16298673D01*
X8486578Y16298676D01*
X8376441Y16369457D01*
X8250822Y16406342D01*
X8250820Y16406342D01*
X8119896Y16406342D01*
X8119893Y16406342D01*
X7994274Y16369457D01*
X7884137Y16298676D01*
X7884134Y16298674D01*
X7884134Y16298673D01*
X7866968Y16278863D01*
X7798398Y16199730D01*
X7798395Y16199725D01*
X7744010Y16080640D01*
X7744010Y16080638D01*
X7744009Y16080636D01*
X7744009Y16080634D01*
X7725376Y15951042D01*
X6050700Y15951042D01*
X6050700Y16129990D01*
X6050700Y16130000D01*
X6050100Y16143757D01*
X6048958Y16156815D01*
X6028404Y16222007D01*
X6002684Y16266556D01*
X5986895Y16289104D01*
X5973225Y16298676D01*
X5919943Y16335984D01*
X5919944Y16335984D01*
X5871602Y16353579D01*
X5817604Y16363100D01*
X5817600Y16363100D01*
X5569600Y16363100D01*
X5521262Y16380693D01*
X5495542Y16425242D01*
X5504475Y16475900D01*
X5512768Y16487546D01*
X5542642Y16522022D01*
X5570278Y16553916D01*
X5605923Y16631967D01*
X5624664Y16673004D01*
X5624664Y16673005D01*
X5624666Y16673009D01*
X5643299Y16802601D01*
X5624666Y16932193D01*
X5624664Y16932198D01*
X5624664Y16932199D01*
X5570279Y17051284D01*
X5570276Y17051289D01*
X5534171Y17092956D01*
X5484541Y17150232D01*
X5484537Y17150235D01*
X5374400Y17221016D01*
X5248781Y17257901D01*
X5248779Y17257901D01*
X5117855Y17257901D01*
X5117852Y17257901D01*
X4992233Y17221016D01*
X4882096Y17150235D01*
X4796357Y17051289D01*
X4796354Y17051284D01*
X4741969Y16932199D01*
X4741969Y16932197D01*
X4741968Y16932195D01*
X4741968Y16932193D01*
X4723335Y16802601D01*
X4741968Y16673009D01*
X4741968Y16673008D01*
X4741969Y16673006D01*
X4741969Y16673004D01*
X4796354Y16553919D01*
X4796357Y16553914D01*
X4853866Y16487546D01*
X4872225Y16439494D01*
X4855400Y16390883D01*
X4811266Y16364459D01*
X4797034Y16363100D01*
X3839900Y16363100D01*
X3791562Y16380693D01*
X3765842Y16425242D01*
X3764700Y16438300D01*
X3764700Y16605790D01*
X3762514Y16631964D01*
X3762514Y16631967D01*
X3758378Y16656562D01*
X3725219Y16729940D01*
X3692784Y16769865D01*
X3692782Y16769867D01*
X3692776Y16769874D01*
X3673632Y16789635D01*
X3673630Y16789636D01*
X3598633Y16826068D01*
X3562842Y16863014D01*
X3557058Y16904413D01*
X3558782Y16916400D01*
X3540149Y17045992D01*
X3537732Y17051284D01*
X3516933Y17096827D01*
X3512856Y17148105D01*
X3542693Y17190007D01*
X3564151Y17200221D01*
X3573943Y17203097D01*
X3594683Y17209186D01*
X3704824Y17279969D01*
X3790561Y17378915D01*
X3844949Y17498008D01*
X3863582Y17627600D01*
X3844949Y17757192D01*
X3844947Y17757197D01*
X3844947Y17757198D01*
X3790562Y17876283D01*
X3790559Y17876288D01*
X3762532Y17908632D01*
X3704824Y17975231D01*
X3704820Y17975234D01*
X3594683Y18046015D01*
X3503149Y18072891D01*
X3461726Y18103390D01*
X3449598Y18153380D01*
X3455931Y18176285D01*
X3489704Y18250237D01*
X3497866Y18307008D01*
X3508603Y18327046D01*
X4760972Y18327046D01*
X4779605Y18197454D01*
X4779605Y18197453D01*
X4779606Y18197451D01*
X4779606Y18197449D01*
X4833991Y18078364D01*
X4833994Y18078359D01*
X4862021Y18046015D01*
X4919730Y17979415D01*
X4919732Y17979414D01*
X4919733Y17979413D01*
X5029870Y17908632D01*
X5119236Y17882392D01*
X5155492Y17871746D01*
X5155495Y17871746D01*
X5286413Y17871746D01*
X5286416Y17871746D01*
X5412037Y17908632D01*
X5522178Y17979415D01*
X5532564Y17991401D01*
X7473794Y17991401D01*
X7492427Y17861809D01*
X7492427Y17861808D01*
X7492428Y17861806D01*
X7492428Y17861804D01*
X7546813Y17742719D01*
X7546816Y17742714D01*
X7578239Y17706450D01*
X7632552Y17643770D01*
X7632554Y17643769D01*
X7632555Y17643768D01*
X7742692Y17572987D01*
X7809927Y17553245D01*
X7868314Y17536101D01*
X7868317Y17536101D01*
X7999235Y17536101D01*
X7999238Y17536101D01*
X8124859Y17572987D01*
X8235000Y17643770D01*
X8320737Y17742716D01*
X8375125Y17861809D01*
X8393758Y17991401D01*
X8375125Y18120993D01*
X8375123Y18120998D01*
X8375123Y18120999D01*
X8320738Y18240084D01*
X8320735Y18240089D01*
X8295034Y18269749D01*
X8235000Y18339032D01*
X8234996Y18339035D01*
X8124859Y18409816D01*
X7999240Y18446701D01*
X7999238Y18446701D01*
X7868314Y18446701D01*
X7868311Y18446701D01*
X7742692Y18409816D01*
X7632555Y18339035D01*
X7632552Y18339033D01*
X7632552Y18339032D01*
X7622909Y18327903D01*
X7546816Y18240089D01*
X7546813Y18240084D01*
X7492428Y18120999D01*
X7492428Y18120997D01*
X7492427Y18120995D01*
X7492427Y18120993D01*
X7473794Y17991401D01*
X5532564Y17991401D01*
X5607915Y18078361D01*
X5642175Y18153380D01*
X5662301Y18197449D01*
X5662301Y18197450D01*
X5662303Y18197454D01*
X5680936Y18327046D01*
X5662303Y18456638D01*
X5662301Y18456643D01*
X5662301Y18456644D01*
X5607916Y18575729D01*
X5607913Y18575734D01*
X5582212Y18605394D01*
X5522178Y18674677D01*
X5522174Y18674680D01*
X5412037Y18745461D01*
X5286418Y18782346D01*
X5286416Y18782346D01*
X5155492Y18782346D01*
X5155489Y18782346D01*
X5029870Y18745461D01*
X4919733Y18674680D01*
X4833994Y18575734D01*
X4833991Y18575729D01*
X4779606Y18456644D01*
X4779606Y18456642D01*
X4779605Y18456640D01*
X4779605Y18456638D01*
X4760972Y18327046D01*
X3508603Y18327046D01*
X3522159Y18352347D01*
X3552834Y18368940D01*
X3623607Y18387902D01*
X3668156Y18413622D01*
X3690704Y18429411D01*
X3737585Y18496365D01*
X3755178Y18544703D01*
X3764699Y18598702D01*
X3764700Y18598702D01*
X3764700Y19610580D01*
X4025678Y19610580D01*
X4044311Y19480988D01*
X4044311Y19480987D01*
X4044312Y19480985D01*
X4044312Y19480983D01*
X4098697Y19361898D01*
X4098700Y19361893D01*
X4130123Y19325629D01*
X4184436Y19262949D01*
X4184438Y19262948D01*
X4184439Y19262947D01*
X4294576Y19192166D01*
X4383942Y19165926D01*
X4420198Y19155280D01*
X4420201Y19155280D01*
X4551119Y19155280D01*
X4551122Y19155280D01*
X4676743Y19192166D01*
X4786884Y19262949D01*
X4872621Y19361895D01*
X4927009Y19480988D01*
X4945642Y19610580D01*
X4927009Y19740172D01*
X4927007Y19740177D01*
X4927007Y19740178D01*
X4872622Y19859263D01*
X4872619Y19859268D01*
X4832215Y19905896D01*
X4786884Y19958211D01*
X4786880Y19958214D01*
X4676743Y20028995D01*
X4551124Y20065880D01*
X4551122Y20065880D01*
X4420198Y20065880D01*
X4420195Y20065880D01*
X4294576Y20028995D01*
X4184439Y19958214D01*
X4098700Y19859268D01*
X4098697Y19859263D01*
X4044312Y19740178D01*
X4044312Y19740176D01*
X4044311Y19740174D01*
X4044311Y19740172D01*
X4025678Y19610580D01*
X3764700Y19610580D01*
X3764700Y20656916D01*
X4517334Y20656916D01*
X4535967Y20527324D01*
X4535967Y20527323D01*
X4535968Y20527321D01*
X4535968Y20527319D01*
X4590353Y20408234D01*
X4590356Y20408229D01*
X4621779Y20371965D01*
X4676092Y20309285D01*
X4676094Y20309284D01*
X4676095Y20309283D01*
X4786232Y20238502D01*
X4838833Y20223057D01*
X4911854Y20201616D01*
X4911857Y20201616D01*
X5042775Y20201616D01*
X5042778Y20201616D01*
X5168399Y20238502D01*
X5278540Y20309285D01*
X5364277Y20408231D01*
X5418665Y20527324D01*
X5437298Y20656916D01*
X5418665Y20786508D01*
X5418663Y20786513D01*
X5418663Y20786514D01*
X5364278Y20905599D01*
X5364275Y20905604D01*
X5338574Y20935264D01*
X5278540Y21004547D01*
X5278536Y21004550D01*
X5168399Y21075331D01*
X5042780Y21112216D01*
X5042778Y21112216D01*
X4911854Y21112216D01*
X4911851Y21112216D01*
X4786232Y21075331D01*
X4676095Y21004550D01*
X4590356Y20905604D01*
X4590353Y20905599D01*
X4535968Y20786514D01*
X4535968Y20786512D01*
X4535967Y20786510D01*
X4535967Y20786508D01*
X4517334Y20656916D01*
X3764700Y20656916D01*
X3764700Y21477649D01*
X5367818Y21477649D01*
X5386451Y21348057D01*
X5386451Y21348056D01*
X5386452Y21348054D01*
X5386452Y21348052D01*
X5440837Y21228967D01*
X5440840Y21228962D01*
X5454496Y21213203D01*
X5526576Y21130018D01*
X5526578Y21130017D01*
X5526579Y21130016D01*
X5636716Y21059235D01*
X5726082Y21032995D01*
X5762338Y21022349D01*
X5762341Y21022349D01*
X5893259Y21022349D01*
X5893262Y21022349D01*
X6018883Y21059235D01*
X6129024Y21130018D01*
X6214761Y21228964D01*
X6245559Y21296403D01*
X6269147Y21348052D01*
X6269147Y21348053D01*
X6269149Y21348057D01*
X6287782Y21477649D01*
X6269149Y21607241D01*
X6269147Y21607246D01*
X6269147Y21607247D01*
X6214762Y21726332D01*
X6214759Y21726337D01*
X6181590Y21764615D01*
X6129024Y21825280D01*
X6129020Y21825283D01*
X6018883Y21896064D01*
X5893264Y21932949D01*
X5893262Y21932949D01*
X5762338Y21932949D01*
X5762335Y21932949D01*
X5636716Y21896064D01*
X5526579Y21825283D01*
X5440840Y21726337D01*
X5440837Y21726332D01*
X5386452Y21607247D01*
X5386452Y21607245D01*
X5386451Y21607243D01*
X5386451Y21607241D01*
X5367818Y21477649D01*
X3764700Y21477649D01*
X3764700Y22068100D01*
X3782293Y22116438D01*
X3826842Y22142158D01*
X3839900Y22143300D01*
X7995258Y22143300D01*
X8043596Y22125707D01*
X8069316Y22081158D01*
X8069692Y22057399D01*
X8063352Y22013297D01*
X8081985Y21883705D01*
X8081985Y21883704D01*
X8081986Y21883702D01*
X8081986Y21883700D01*
X8136371Y21764615D01*
X8136374Y21764610D01*
X8167797Y21728346D01*
X8222110Y21665666D01*
X8222112Y21665665D01*
X8222113Y21665664D01*
X8332250Y21594883D01*
X8421616Y21568643D01*
X8457872Y21557997D01*
X8457875Y21557997D01*
X8588793Y21557997D01*
X8588796Y21557997D01*
X8714417Y21594883D01*
X8824558Y21665666D01*
X8910295Y21764612D01*
X8964683Y21883705D01*
X8983316Y22013297D01*
X8964683Y22142889D01*
X8964495Y22143300D01*
X8951675Y22171371D01*
X8941826Y22192937D01*
X8937750Y22244214D01*
X8967587Y22286116D01*
X9017378Y22299036D01*
X9045178Y22290762D01*
X9159381Y22230824D01*
X9159382Y22230823D01*
X9316893Y22192000D01*
X9479107Y22192000D01*
X9636617Y22230823D01*
X9636618Y22230824D01*
X9780252Y22306209D01*
X9780256Y22306212D01*
X9796221Y22320356D01*
X9796222Y22320357D01*
X9557240Y22559339D01*
X9606765Y22587932D01*
X9670068Y22651235D01*
X9698661Y22700760D01*
X9935964Y22463457D01*
X9993830Y22547288D01*
X10051352Y22698961D01*
X10070905Y22860000D01*
X10063301Y22922636D01*
X10074940Y22972742D01*
X10116064Y23003644D01*
X10137953Y23006900D01*
X10180900Y23006900D01*
X10229238Y22989307D01*
G37*
%TD.AperFunction*%
%TD*%
%TA.AperFunction,Conductor*%
%TO.N,+5V*%
G36*
X8769236Y25128407D02*
G01*
X8794956Y25083858D01*
X8789302Y25039561D01*
X8753452Y24961062D01*
X8753452Y24961060D01*
X8753451Y24961058D01*
X8753451Y24961056D01*
X8734818Y24831464D01*
X8753451Y24701872D01*
X8753451Y24701871D01*
X8753452Y24701869D01*
X8753452Y24701867D01*
X8807837Y24582782D01*
X8807840Y24582777D01*
X8839263Y24546513D01*
X8893576Y24483833D01*
X8893578Y24483832D01*
X8893579Y24483831D01*
X9003716Y24413050D01*
X9093082Y24386810D01*
X9129338Y24376164D01*
X9129341Y24376164D01*
X9260259Y24376164D01*
X9260262Y24376164D01*
X9385883Y24413050D01*
X9496024Y24483833D01*
X9581761Y24582779D01*
X9636149Y24701872D01*
X9654782Y24831464D01*
X9636149Y24961056D01*
X9636147Y24961061D01*
X9636147Y24961062D01*
X9600298Y25039561D01*
X9596221Y25090839D01*
X9626059Y25132741D01*
X9668702Y25146000D01*
X10846800Y25146000D01*
X10895138Y25128407D01*
X10920858Y25083858D01*
X10922000Y25070800D01*
X10922000Y329200D01*
X10904407Y280862D01*
X10859858Y255142D01*
X10846800Y254000D01*
X10489200Y254000D01*
X10440862Y271593D01*
X10415142Y316142D01*
X10414000Y329200D01*
X10414000Y361723D01*
X10420795Y392961D01*
X10448949Y454608D01*
X10467582Y584200D01*
X10448949Y713792D01*
X10448947Y713797D01*
X10448947Y713798D01*
X10420796Y775440D01*
X10414000Y806679D01*
X10414000Y2724093D01*
X10431593Y2772431D01*
X10448548Y2787358D01*
X10453186Y2790338D01*
X10538923Y2889284D01*
X10593311Y3008377D01*
X10611944Y3137969D01*
X10593311Y3267561D01*
X10593309Y3267566D01*
X10593309Y3267567D01*
X10538924Y3386652D01*
X10538921Y3386657D01*
X10506786Y3423742D01*
X10453186Y3485600D01*
X10448540Y3488586D01*
X10417390Y3529522D01*
X10414000Y3551846D01*
X10414000Y10617200D01*
X9907096Y10617200D01*
X9858758Y10634793D01*
X9857230Y10636112D01*
X9776194Y10707903D01*
X9776191Y10707905D01*
X9641452Y10778622D01*
X9606828Y10816664D01*
X9601200Y10845208D01*
X9601200Y11202400D01*
X9618793Y11250738D01*
X9663342Y11276458D01*
X9676400Y11277600D01*
X10414000Y11277600D01*
X10414000Y11862476D01*
X10414766Y11873180D01*
X10416782Y11887199D01*
X10414765Y11901229D01*
X10414000Y11911930D01*
X10414000Y15755531D01*
X10420794Y15786766D01*
X10451349Y15853670D01*
X10469982Y15983262D01*
X10451349Y16112854D01*
X10451347Y16112859D01*
X10451347Y16112860D01*
X10420796Y16179757D01*
X10414000Y16210996D01*
X10414000Y16795523D01*
X10420795Y16826761D01*
X10448949Y16888408D01*
X10467582Y17018000D01*
X10448949Y17147592D01*
X10448947Y17147597D01*
X10448947Y17147598D01*
X10420796Y17209240D01*
X10414000Y17240479D01*
X10414000Y19989800D01*
X10088550Y19989800D01*
X10040212Y20007393D01*
X10014492Y20051942D01*
X10018237Y20091666D01*
X10030542Y20124113D01*
X10044408Y20160675D01*
X10063754Y20320000D01*
X10044408Y20479325D01*
X9987496Y20629391D01*
X9965545Y20661193D01*
X9896327Y20761473D01*
X9896326Y20761475D01*
X9896324Y20761477D01*
X9896320Y20761481D01*
X9896315Y20761486D01*
X9776194Y20867903D01*
X9776188Y20867907D01*
X9634083Y20942490D01*
X9634081Y20942491D01*
X9582136Y20955294D01*
X9478248Y20980900D01*
X9317752Y20980900D01*
X9239836Y20961696D01*
X9161918Y20942491D01*
X9161916Y20942490D01*
X9019811Y20867907D01*
X9019805Y20867903D01*
X8899684Y20761486D01*
X8899672Y20761473D01*
X8808507Y20629397D01*
X8808502Y20629389D01*
X8751593Y20479329D01*
X8751592Y20479327D01*
X8751592Y20479325D01*
X8737399Y20362446D01*
X8736877Y20358139D01*
X8713585Y20312275D01*
X8666261Y20292112D01*
X8641041Y20295050D01*
X8615385Y20302583D01*
X8615379Y20302584D01*
X8615378Y20302584D01*
X8484454Y20302584D01*
X8484451Y20302584D01*
X8358832Y20265699D01*
X8248695Y20194919D01*
X8162953Y20095967D01*
X8134545Y20033761D01*
X8098462Y19997100D01*
X8066141Y19989800D01*
X6882400Y19989800D01*
X6834062Y20007393D01*
X6808342Y20051942D01*
X6807200Y20065000D01*
X6807200Y20282298D01*
X6813995Y20313536D01*
X6827064Y20342152D01*
X6845697Y20471744D01*
X6827064Y20601336D01*
X6814253Y20629389D01*
X6813995Y20629955D01*
X6807200Y20661193D01*
X6807200Y21159200D01*
X6824793Y21207538D01*
X6869342Y21233258D01*
X6882400Y21234400D01*
X10414000Y21234400D01*
X10414000Y21374604D01*
X10431593Y21422942D01*
X10448544Y21437866D01*
X10500794Y21471446D01*
X10539585Y21496375D01*
X10625322Y21595321D01*
X10679710Y21714414D01*
X10698343Y21844006D01*
X10679710Y21973598D01*
X10679708Y21973603D01*
X10679708Y21973604D01*
X10625323Y22092689D01*
X10625320Y22092694D01*
X10581825Y22142889D01*
X10539585Y22191637D01*
X10539581Y22191640D01*
X10448544Y22250146D01*
X10417391Y22291079D01*
X10414000Y22313408D01*
X10414000Y23164800D01*
X10030133Y23164800D01*
X9981795Y23182393D01*
X9968245Y23197281D01*
X9896324Y23301477D01*
X9896315Y23301486D01*
X9776194Y23407903D01*
X9776188Y23407907D01*
X9634083Y23482490D01*
X9634081Y23482491D01*
X9582136Y23495294D01*
X9478248Y23520900D01*
X9317752Y23520900D01*
X9239836Y23501696D01*
X9161918Y23482491D01*
X9161916Y23482490D01*
X9019811Y23407907D01*
X9019810Y23407906D01*
X8913466Y23313695D01*
X8865618Y23294811D01*
X8816826Y23311101D01*
X8789920Y23354943D01*
X8788400Y23369984D01*
X8788400Y23568227D01*
X8805993Y23616565D01*
X8806767Y23617472D01*
X8826820Y23640614D01*
X8881208Y23759707D01*
X8899841Y23889299D01*
X8881208Y24018891D01*
X8881206Y24018895D01*
X8844115Y24100113D01*
X8826820Y24137984D01*
X8826818Y24137986D01*
X8826816Y24137990D01*
X8806767Y24161128D01*
X8788409Y24209180D01*
X8788400Y24210372D01*
X8788400Y24231600D01*
X8771458Y24231600D01*
X8730802Y24243538D01*
X8630942Y24307714D01*
X8505323Y24344599D01*
X8505321Y24344599D01*
X8374397Y24344599D01*
X8374394Y24344599D01*
X8248775Y24307714D01*
X8148916Y24243538D01*
X8136204Y24239806D01*
X8115923Y24219525D01*
X8110407Y24204368D01*
X8109633Y24203461D01*
X8052899Y24137987D01*
X8052896Y24137982D01*
X7998511Y24018897D01*
X7998511Y24018895D01*
X7998511Y24018894D01*
X7998510Y24018891D01*
X7979877Y23889299D01*
X7998510Y23759707D01*
X7998510Y23759706D01*
X7998511Y23759704D01*
X7998511Y23759702D01*
X8052896Y23640617D01*
X8052897Y23640616D01*
X8052898Y23640614D01*
X8109632Y23575139D01*
X8127991Y23527087D01*
X8128000Y23525894D01*
X8128000Y23240000D01*
X8110407Y23191662D01*
X8065858Y23165942D01*
X8052800Y23164800D01*
X5854730Y23164800D01*
X5806392Y23182393D01*
X5797897Y23190755D01*
X5792242Y23197281D01*
X5768377Y23224823D01*
X5750020Y23272874D01*
X5766845Y23321485D01*
X5775970Y23330903D01*
X5779615Y23334063D01*
X5779624Y23334068D01*
X5865361Y23433014D01*
X5919749Y23552107D01*
X5938382Y23681699D01*
X5919749Y23811291D01*
X5919747Y23811296D01*
X5919747Y23811297D01*
X5879226Y23900026D01*
X5875149Y23951304D01*
X5904987Y23993205D01*
X5947630Y24006465D01*
X6074846Y24006465D01*
X6074849Y24006465D01*
X6200470Y24043351D01*
X6310611Y24114134D01*
X6396348Y24213080D01*
X6427146Y24280519D01*
X6450734Y24332168D01*
X6450734Y24332169D01*
X6450736Y24332173D01*
X6469369Y24461765D01*
X6450736Y24591357D01*
X6450734Y24591362D01*
X6450734Y24591363D01*
X6396349Y24710448D01*
X6396346Y24710453D01*
X6358563Y24754056D01*
X6310611Y24809396D01*
X6310607Y24809399D01*
X6200470Y24880180D01*
X6074851Y24917065D01*
X6074849Y24917065D01*
X5943925Y24917065D01*
X5943922Y24917065D01*
X5818303Y24880180D01*
X5708166Y24809399D01*
X5622427Y24710453D01*
X5622424Y24710448D01*
X5568039Y24591363D01*
X5568039Y24591361D01*
X5568038Y24591359D01*
X5568038Y24591357D01*
X5549405Y24461765D01*
X5568038Y24332173D01*
X5568038Y24332172D01*
X5568039Y24332170D01*
X5568039Y24332168D01*
X5608561Y24243438D01*
X5612638Y24192160D01*
X5582800Y24150259D01*
X5540157Y24136999D01*
X5412935Y24136999D01*
X5287316Y24100114D01*
X5177179Y24029333D01*
X5091440Y23930387D01*
X5091437Y23930382D01*
X5037052Y23811297D01*
X5037052Y23811295D01*
X5037051Y23811293D01*
X5037051Y23811291D01*
X5018418Y23681699D01*
X5037051Y23552107D01*
X5037051Y23552106D01*
X5037052Y23552104D01*
X5037052Y23552102D01*
X5091437Y23433017D01*
X5091440Y23433012D01*
X5134518Y23383298D01*
X5152877Y23335246D01*
X5136052Y23286635D01*
X5126935Y23277223D01*
X5123277Y23274054D01*
X5080618Y23224822D01*
X5056754Y23197281D01*
X5051098Y23190754D01*
X5006148Y23165745D01*
X4994266Y23164800D01*
X2410133Y23164800D01*
X2361795Y23182393D01*
X2348245Y23197281D01*
X2276324Y23301477D01*
X2276315Y23301486D01*
X2156194Y23407903D01*
X2156188Y23407907D01*
X2014083Y23482490D01*
X2014081Y23482491D01*
X1962136Y23495294D01*
X1858248Y23520900D01*
X1697752Y23520900D01*
X1541920Y23482491D01*
X1448935Y23433689D01*
X1397958Y23426804D01*
X1354482Y23454298D01*
X1345584Y23469037D01*
X1301362Y23565869D01*
X1301359Y23565874D01*
X1257434Y23616565D01*
X1215624Y23664817D01*
X1215620Y23664820D01*
X1105483Y23735601D01*
X979864Y23772486D01*
X979862Y23772486D01*
X848938Y23772486D01*
X848935Y23772486D01*
X723316Y23735601D01*
X613179Y23664820D01*
X527440Y23565874D01*
X527437Y23565869D01*
X473052Y23446784D01*
X473052Y23446782D01*
X473051Y23446780D01*
X473051Y23446778D01*
X454418Y23317186D01*
X473051Y23187594D01*
X473051Y23187593D01*
X473052Y23187591D01*
X473052Y23187589D01*
X527437Y23068504D01*
X527440Y23068499D01*
X558863Y23032235D01*
X613176Y22969555D01*
X613178Y22969554D01*
X613179Y22969553D01*
X723316Y22898772D01*
X812682Y22872532D01*
X848938Y22861886D01*
X848942Y22861886D01*
X849901Y22861748D01*
X850498Y22861428D01*
X854098Y22860371D01*
X853876Y22859618D01*
X895243Y22837455D01*
X914362Y22789700D01*
X914400Y22787313D01*
X914400Y22295971D01*
X896807Y22247633D01*
X860389Y22223818D01*
X843711Y22218921D01*
X843709Y22218920D01*
X733575Y22148141D01*
X647836Y22049195D01*
X647833Y22049190D01*
X593448Y21930105D01*
X593448Y21930103D01*
X593447Y21930101D01*
X593447Y21930099D01*
X574814Y21800507D01*
X593447Y21670915D01*
X593447Y21670914D01*
X593448Y21670912D01*
X593448Y21670910D01*
X647833Y21551825D01*
X647836Y21551820D01*
X684100Y21509970D01*
X733572Y21452876D01*
X843713Y21382093D01*
X860386Y21377198D01*
X901808Y21346701D01*
X914400Y21305044D01*
X914400Y17347522D01*
X896807Y17299184D01*
X896032Y17298276D01*
X843003Y17237079D01*
X843000Y17237074D01*
X788615Y17117989D01*
X788615Y17117987D01*
X788614Y17117985D01*
X788614Y17117983D01*
X769981Y16988391D01*
X788614Y16858799D01*
X788614Y16858798D01*
X788615Y16858796D01*
X788615Y16858794D01*
X843000Y16739709D01*
X843001Y16739708D01*
X843002Y16739706D01*
X896032Y16678506D01*
X914391Y16630454D01*
X914400Y16629261D01*
X914400Y16475151D01*
X896807Y16426813D01*
X896032Y16425905D01*
X832248Y16352296D01*
X832245Y16352291D01*
X777860Y16233206D01*
X777860Y16233204D01*
X777859Y16233202D01*
X777859Y16233200D01*
X759226Y16103608D01*
X777859Y15974016D01*
X777859Y15974015D01*
X777860Y15974013D01*
X777860Y15974011D01*
X832245Y15854926D01*
X832246Y15854925D01*
X832247Y15854923D01*
X896032Y15781311D01*
X914391Y15733259D01*
X914400Y15732066D01*
X914400Y12242800D01*
X1268904Y12242800D01*
X1317242Y12225207D01*
X1318770Y12223888D01*
X1399805Y12152098D01*
X1399806Y12152098D01*
X1399809Y12152095D01*
X1483750Y12108039D01*
X1518372Y12070001D01*
X1524000Y12041456D01*
X1524000Y11657600D01*
X1506407Y11609262D01*
X1461858Y11583542D01*
X1448800Y11582400D01*
X329200Y11582400D01*
X280862Y11599993D01*
X255142Y11644542D01*
X254000Y11657600D01*
X254000Y24505373D01*
X2094131Y24505373D01*
X2112764Y24375781D01*
X2112764Y24375780D01*
X2112765Y24375778D01*
X2112765Y24375776D01*
X2167150Y24256691D01*
X2167153Y24256686D01*
X2178633Y24243438D01*
X2252889Y24157742D01*
X2252891Y24157741D01*
X2252892Y24157740D01*
X2363029Y24086959D01*
X2452395Y24060719D01*
X2488651Y24050073D01*
X2488654Y24050073D01*
X2619572Y24050073D01*
X2619575Y24050073D01*
X2745196Y24086959D01*
X2855337Y24157742D01*
X2941074Y24256688D01*
X2995462Y24375781D01*
X3014095Y24505373D01*
X2995462Y24634965D01*
X2995460Y24634970D01*
X2995460Y24634971D01*
X2941075Y24754056D01*
X2941072Y24754061D01*
X2893123Y24809396D01*
X2855337Y24853004D01*
X2855333Y24853007D01*
X2745196Y24923788D01*
X2619577Y24960673D01*
X2619575Y24960673D01*
X2488651Y24960673D01*
X2488648Y24960673D01*
X2363029Y24923788D01*
X2252892Y24853007D01*
X2167153Y24754061D01*
X2167150Y24754056D01*
X2112765Y24634971D01*
X2112765Y24634969D01*
X2112764Y24634967D01*
X2112764Y24634965D01*
X2094131Y24505373D01*
X254000Y24505373D01*
X254000Y25070800D01*
X271593Y25119138D01*
X316142Y25144858D01*
X329200Y25146000D01*
X8720898Y25146000D01*
X8769236Y25128407D01*
G37*
%TD.AperFunction*%
%TD*%
M02*
