%TF.GenerationSoftware,KiCad,Pcbnew,8.0.3*%
%TF.CreationDate,2024-12-12T22:43:46-05:00*%
%TF.ProjectId,3374_VCO,33333734-5f56-4434-9f2e-6b696361645f,0*%
%TF.SameCoordinates,PX640ad70PY37b6b20*%
%TF.FileFunction,Copper,L2,Inr*%
%TF.FilePolarity,Positive*%
%FSLAX46Y46*%
G04 Gerber Fmt 4.6, Leading zero omitted, Abs format (unit mm)*
G04 Created by KiCad (PCBNEW 8.0.3) date 2024-12-12 22:43:46*
%MOMM*%
%LPD*%
G01*
G04 APERTURE LIST*
%TA.AperFunction,ComponentPad*%
%ADD10C,1.016000*%
%TD*%
%TA.AperFunction,FiducialPad,Local*%
%ADD11C,1.016000*%
%TD*%
%TA.AperFunction,ViaPad*%
%ADD12C,0.604800*%
%TD*%
G04 APERTURE END LIST*
D10*
%TO.N,-5V*%
%TO.C,J2*%
X1778000Y22860000D03*
%TO.N,SAWTOOTH_A*%
X1778000Y20320000D03*
%TO.N,SYNC_A*%
X1778000Y17780000D03*
%TO.N,VTH_A*%
X1778000Y15240000D03*
%TO.N,TRIANGLE_A*%
X1778000Y12700000D03*
%TO.N,CF_A*%
X1778000Y10160000D03*
D11*
%TO.N,CV_A*%
X1778000Y7620000D03*
D10*
%TO.N,IREF_A*%
X1778000Y5080000D03*
%TO.N,GND*%
X1778000Y2540000D03*
%TD*%
%TO.N,+12V*%
%TO.C,J1*%
X9398000Y22860000D03*
%TO.N,SAWTOOTH_B*%
X9398000Y20320000D03*
%TO.N,unconnected-(J1-Pin_3-Pad3)*%
X9398000Y17780000D03*
%TO.N,VTH_B*%
X9398000Y15240000D03*
%TO.N,TRIANGLE_B*%
X9398000Y12700000D03*
%TO.N,CF_B*%
X9398000Y10160000D03*
%TO.N,CV_B*%
X9398000Y7620000D03*
%TO.N,IREF_B*%
X9398000Y5080000D03*
%TO.N,VTC*%
X9398000Y2540000D03*
%TD*%
D12*
%TO.N,+12V*%
X5613194Y13836165D03*
X1229963Y16988391D03*
X6934200Y7569200D03*
X4684000Y7719600D03*
X10010000Y15983262D03*
%TO.N,GND*%
X10007600Y17018000D03*
X1219208Y16103608D03*
X6385715Y20471744D03*
X3680600Y7399600D03*
X2997200Y15748006D03*
X4218000Y1409600D03*
X10007600Y584200D03*
X4485660Y19610580D03*
X9194800Y24831464D03*
X10151962Y3137969D03*
X9956800Y11887200D03*
X5478400Y23681699D03*
X2898000Y13319881D03*
X5846313Y13075856D03*
X2554113Y24505373D03*
X2838123Y21230000D03*
X4411340Y12526739D03*
X7328000Y1399600D03*
%TO.N,-5V*%
X8439859Y23889299D03*
X3298000Y20580000D03*
X5440793Y15742404D03*
%TO.N,+5V*%
X2751684Y23774400D03*
X4928176Y24201901D03*
X1200318Y11929758D03*
X9956800Y10972800D03*
X7128962Y20327037D03*
X10617200Y1422400D03*
%TO.N,CF_A*%
X3775116Y10990180D03*
X1393102Y18723698D03*
%TO.N,CF_B*%
X5691644Y14640416D03*
%TO.N,SAWTOOTH_A*%
X3403600Y17627600D03*
%TO.N,SYNC_A*%
X2667844Y10737000D03*
%TO.N,TRIANGLE_A*%
X5183317Y16802601D03*
X5220954Y18327046D03*
%TO.N,Net-(Q9A-B1)*%
X10238361Y21844006D03*
%TO.N,/VCO A/SQUARE_A*%
X4977316Y20656916D03*
%TO.N,/VCO B/SQUARE_B*%
X6009387Y24461765D03*
%TO.N,Net-(C10-Pad2)*%
X7087468Y10916272D03*
X1320800Y8483600D03*
%TO.N,Net-(Q11A-C1)*%
X1752600Y1272400D03*
X2553424Y9471800D03*
X6328000Y10790000D03*
%TO.N,Net-(C4-Pad1)*%
X914400Y23317186D03*
X3048355Y18379829D03*
%TO.N,Net-(C14-Pad2)*%
X5070400Y10988745D03*
%TO.N,Net-(Q10A-C1)*%
X4597400Y10210800D03*
X6558355Y1641714D03*
%TO.N,Net-(C7-Pad1)*%
X8549916Y19847284D03*
%TO.N,Net-(Q11B-C2)*%
X5858743Y1328857D03*
%TO.N,Net-(Q11A-E1)*%
X2626162Y2058702D03*
%TO.N,Net-(Q10A-E1)*%
X8887600Y8436381D03*
%TO.N,Net-(Q8B-C2)*%
X8523334Y22013297D03*
%TO.N,Net-(U6D--)*%
X8308000Y12140000D03*
%TO.N,Net-(U6D-+)*%
X8185358Y15951042D03*
%TO.N,Net-(U6C-+)*%
X7933776Y17991401D03*
%TO.N,Net-(U3C-+)*%
X1034796Y21800507D03*
X3098800Y16916400D03*
%TO.N,Net-(U5A--)*%
X5424498Y22926419D03*
%TO.N,Net-(U5B--)*%
X5827800Y21477649D03*
%TD*%
%TA.AperFunction,Conductor*%
%TO.N,GND*%
G36*
X10895138Y25128407D02*
G01*
X10920858Y25083858D01*
X10922000Y25070800D01*
X10922000Y1905452D01*
X10904407Y1857114D01*
X10859858Y1831394D01*
X10813615Y1839549D01*
X10813174Y1838581D01*
X10809446Y1840284D01*
X10809200Y1840327D01*
X10808748Y1840603D01*
X10808285Y1840814D01*
X10682664Y1877700D01*
X10682662Y1877700D01*
X10551738Y1877700D01*
X10551735Y1877700D01*
X10426116Y1840815D01*
X10315979Y1770034D01*
X10230240Y1671088D01*
X10230237Y1671083D01*
X10175852Y1551998D01*
X10175852Y1551996D01*
X10175851Y1551994D01*
X10175851Y1551992D01*
X10157218Y1422400D01*
X10175851Y1292808D01*
X10175851Y1292807D01*
X10175852Y1292805D01*
X10175852Y1292803D01*
X10230237Y1173718D01*
X10230240Y1173713D01*
X10257024Y1142803D01*
X10315976Y1074769D01*
X10315978Y1074768D01*
X10315979Y1074767D01*
X10426116Y1003986D01*
X10515482Y977746D01*
X10551738Y967100D01*
X10551741Y967100D01*
X10682659Y967100D01*
X10682662Y967100D01*
X10808283Y1003986D01*
X10808285Y1003987D01*
X10813174Y1006219D01*
X10814010Y1004387D01*
X10856314Y1013945D01*
X10902037Y990377D01*
X10921915Y942933D01*
X10922000Y939349D01*
X10922000Y329200D01*
X10904407Y280862D01*
X10859858Y255142D01*
X10846800Y254000D01*
X329200Y254000D01*
X280862Y271593D01*
X255142Y316142D01*
X254000Y329200D01*
X254000Y2540000D01*
X1105094Y2540000D01*
X1124647Y2378961D01*
X1182169Y2227290D01*
X1182171Y2227286D01*
X1240034Y2143457D01*
X1477338Y2380761D01*
X1505932Y2331235D01*
X1569235Y2267932D01*
X1618759Y2239340D01*
X1379777Y2000358D01*
X1379777Y2000356D01*
X1395745Y1986210D01*
X1395744Y1986210D01*
X1539381Y1910824D01*
X1539382Y1910823D01*
X1688247Y1874131D01*
X1730969Y1845481D01*
X1745281Y1796072D01*
X1724484Y1749023D01*
X1691436Y1728962D01*
X1561516Y1690815D01*
X1451379Y1620034D01*
X1365640Y1521088D01*
X1365637Y1521083D01*
X1311252Y1401998D01*
X1311252Y1401996D01*
X1311251Y1401994D01*
X1311251Y1401992D01*
X1292618Y1272400D01*
X1311251Y1142808D01*
X1311251Y1142807D01*
X1311252Y1142805D01*
X1311252Y1142803D01*
X1365637Y1023718D01*
X1365640Y1023713D01*
X1382733Y1003987D01*
X1451376Y924769D01*
X1451378Y924768D01*
X1451379Y924767D01*
X1561516Y853986D01*
X1650882Y827746D01*
X1687138Y817100D01*
X1687141Y817100D01*
X1818059Y817100D01*
X1818062Y817100D01*
X1943683Y853986D01*
X2053824Y924769D01*
X2139561Y1023715D01*
X2193949Y1142808D01*
X2212582Y1272400D01*
X2204464Y1328857D01*
X5398761Y1328857D01*
X5417394Y1199265D01*
X5417394Y1199264D01*
X5417395Y1199262D01*
X5417395Y1199260D01*
X5471780Y1080175D01*
X5471783Y1080170D01*
X5476465Y1074767D01*
X5557519Y981226D01*
X5557521Y981225D01*
X5557522Y981224D01*
X5667659Y910443D01*
X5757025Y884203D01*
X5793281Y873557D01*
X5793284Y873557D01*
X5924202Y873557D01*
X5924205Y873557D01*
X6049826Y910443D01*
X6159967Y981226D01*
X6245704Y1080172D01*
X6290645Y1178580D01*
X6326728Y1215240D01*
X6377935Y1220130D01*
X6380200Y1219504D01*
X6492893Y1186414D01*
X6492896Y1186414D01*
X6623814Y1186414D01*
X6623817Y1186414D01*
X6749438Y1223300D01*
X6859579Y1294083D01*
X6945316Y1393029D01*
X6999704Y1512122D01*
X7018337Y1641714D01*
X6999704Y1771306D01*
X6999702Y1771311D01*
X6999702Y1771312D01*
X6945317Y1890397D01*
X6945314Y1890402D01*
X6911773Y1929110D01*
X6859579Y1989345D01*
X6859575Y1989348D01*
X6749438Y2060129D01*
X6623819Y2097014D01*
X6623817Y2097014D01*
X6492893Y2097014D01*
X6492890Y2097014D01*
X6367271Y2060129D01*
X6257134Y1989348D01*
X6171395Y1890402D01*
X6171392Y1890397D01*
X6126453Y1791993D01*
X6090370Y1755332D01*
X6039163Y1750442D01*
X6036863Y1751078D01*
X5924207Y1784157D01*
X5924205Y1784157D01*
X5793281Y1784157D01*
X5793278Y1784157D01*
X5667659Y1747272D01*
X5557522Y1676491D01*
X5557519Y1676489D01*
X5557519Y1676488D01*
X5552836Y1671083D01*
X5471783Y1577545D01*
X5471780Y1577540D01*
X5417395Y1458455D01*
X5417395Y1458453D01*
X5417394Y1458451D01*
X5417394Y1458449D01*
X5398761Y1328857D01*
X2204464Y1328857D01*
X2193949Y1401992D01*
X2193947Y1401997D01*
X2193947Y1401998D01*
X2139562Y1521083D01*
X2139559Y1521088D01*
X2112775Y1551998D01*
X2053824Y1620031D01*
X2053820Y1620034D01*
X1943683Y1690815D01*
X1828463Y1724646D01*
X1787040Y1755145D01*
X1774912Y1805135D01*
X1797755Y1851225D01*
X1844879Y1871849D01*
X1849649Y1872000D01*
X1859107Y1872000D01*
X2016615Y1910823D01*
X2088681Y1948646D01*
X2139658Y1955532D01*
X2183135Y1928039D01*
X2192033Y1913299D01*
X2239199Y1810020D01*
X2239202Y1810015D01*
X2261609Y1784157D01*
X2324938Y1711071D01*
X2324940Y1711070D01*
X2324941Y1711069D01*
X2435078Y1640288D01*
X2504057Y1620034D01*
X2560700Y1603402D01*
X2560703Y1603402D01*
X2691621Y1603402D01*
X2691624Y1603402D01*
X2817245Y1640288D01*
X2927386Y1711071D01*
X3013123Y1810017D01*
X3059160Y1910824D01*
X3067509Y1929105D01*
X3067509Y1929106D01*
X3067511Y1929110D01*
X3086144Y2058702D01*
X3067511Y2188294D01*
X3067509Y2188299D01*
X3067509Y2188300D01*
X3013124Y2307385D01*
X3013121Y2307390D01*
X2987420Y2337050D01*
X2927386Y2406333D01*
X2927382Y2406336D01*
X2817245Y2477117D01*
X2691626Y2514002D01*
X2691624Y2514002D01*
X2560700Y2514002D01*
X2556009Y2512625D01*
X2542872Y2508768D01*
X2491535Y2512033D01*
X2462208Y2540000D01*
X8732246Y2540000D01*
X8751592Y2380675D01*
X8751592Y2380673D01*
X8751593Y2380672D01*
X8808502Y2230612D01*
X8808507Y2230604D01*
X8899672Y2098528D01*
X8899674Y2098526D01*
X8899676Y2098523D01*
X8899679Y2098521D01*
X8899684Y2098515D01*
X9019805Y1992098D01*
X9019807Y1992097D01*
X9019809Y1992095D01*
X9161920Y1917509D01*
X9317752Y1879100D01*
X9317754Y1879100D01*
X9478246Y1879100D01*
X9478248Y1879100D01*
X9634080Y1917509D01*
X9776191Y1992095D01*
X9896324Y2098523D01*
X9987496Y2230609D01*
X10044408Y2380675D01*
X10063754Y2540000D01*
X10044408Y2699325D01*
X9987496Y2849391D01*
X9987492Y2849397D01*
X9896327Y2981473D01*
X9896326Y2981475D01*
X9896324Y2981477D01*
X9896320Y2981481D01*
X9896315Y2981486D01*
X9776194Y3087903D01*
X9776188Y3087907D01*
X9634083Y3162490D01*
X9634081Y3162491D01*
X9582136Y3175294D01*
X9478248Y3200900D01*
X9317752Y3200900D01*
X9239836Y3181696D01*
X9161918Y3162491D01*
X9161916Y3162490D01*
X9019811Y3087907D01*
X9019805Y3087903D01*
X8899684Y2981486D01*
X8899672Y2981473D01*
X8808507Y2849397D01*
X8808502Y2849389D01*
X8751593Y2699329D01*
X8751592Y2699327D01*
X8751592Y2699325D01*
X8732246Y2540000D01*
X2462208Y2540000D01*
X2454309Y2547533D01*
X2447037Y2571859D01*
X2431351Y2701040D01*
X2373830Y2852711D01*
X2373828Y2852715D01*
X2315964Y2936545D01*
X2078660Y2699241D01*
X2050068Y2748765D01*
X1986765Y2812068D01*
X1937239Y2840662D01*
X2176221Y3079644D01*
X2176221Y3079645D01*
X2160252Y3093792D01*
X2016614Y3169178D01*
X1859107Y3208000D01*
X1696893Y3208000D01*
X1539382Y3169178D01*
X1539381Y3169177D01*
X1395746Y3093792D01*
X1395745Y3093792D01*
X1379777Y3079646D01*
X1379776Y3079645D01*
X1618759Y2840662D01*
X1569235Y2812068D01*
X1505932Y2748765D01*
X1477338Y2699241D01*
X1240034Y2936545D01*
X1240033Y2936545D01*
X1182174Y2852721D01*
X1182169Y2852713D01*
X1124647Y2701040D01*
X1105094Y2540000D01*
X254000Y2540000D01*
X254000Y5080000D01*
X1112246Y5080000D01*
X1131592Y4920675D01*
X1131592Y4920673D01*
X1131593Y4920672D01*
X1188502Y4770612D01*
X1188507Y4770604D01*
X1279672Y4638528D01*
X1279674Y4638526D01*
X1279676Y4638523D01*
X1279679Y4638521D01*
X1279684Y4638515D01*
X1399805Y4532098D01*
X1399807Y4532097D01*
X1399809Y4532095D01*
X1541920Y4457509D01*
X1697752Y4419100D01*
X1697754Y4419100D01*
X1858246Y4419100D01*
X1858248Y4419100D01*
X2014080Y4457509D01*
X2156191Y4532095D01*
X2276324Y4638523D01*
X2367496Y4770609D01*
X2424408Y4920675D01*
X2443754Y5080000D01*
X8732246Y5080000D01*
X8751592Y4920675D01*
X8751592Y4920673D01*
X8751593Y4920672D01*
X8808502Y4770612D01*
X8808507Y4770604D01*
X8899672Y4638528D01*
X8899674Y4638526D01*
X8899676Y4638523D01*
X8899679Y4638521D01*
X8899684Y4638515D01*
X9019805Y4532098D01*
X9019807Y4532097D01*
X9019809Y4532095D01*
X9161920Y4457509D01*
X9317752Y4419100D01*
X9317754Y4419100D01*
X9478246Y4419100D01*
X9478248Y4419100D01*
X9634080Y4457509D01*
X9776191Y4532095D01*
X9896324Y4638523D01*
X9987496Y4770609D01*
X10044408Y4920675D01*
X10063754Y5080000D01*
X10044408Y5239325D01*
X9987496Y5389391D01*
X9896324Y5521477D01*
X9896320Y5521481D01*
X9896315Y5521486D01*
X9776194Y5627903D01*
X9776188Y5627907D01*
X9634083Y5702490D01*
X9634081Y5702491D01*
X9582136Y5715294D01*
X9478248Y5740900D01*
X9317752Y5740900D01*
X9239836Y5721696D01*
X9161918Y5702491D01*
X9161916Y5702490D01*
X9019811Y5627907D01*
X9019805Y5627903D01*
X8899684Y5521486D01*
X8899672Y5521473D01*
X8808507Y5389397D01*
X8808502Y5389389D01*
X8751593Y5239329D01*
X8751592Y5239327D01*
X8751592Y5239325D01*
X8732246Y5080000D01*
X2443754Y5080000D01*
X2424408Y5239325D01*
X2367496Y5389391D01*
X2276324Y5521477D01*
X2276320Y5521481D01*
X2276315Y5521486D01*
X2156194Y5627903D01*
X2156188Y5627907D01*
X2014083Y5702490D01*
X2014081Y5702491D01*
X1962136Y5715294D01*
X1858248Y5740900D01*
X1697752Y5740900D01*
X1619836Y5721696D01*
X1541918Y5702491D01*
X1541916Y5702490D01*
X1399811Y5627907D01*
X1399805Y5627903D01*
X1279684Y5521486D01*
X1279672Y5521473D01*
X1188507Y5389397D01*
X1188502Y5389389D01*
X1131593Y5239329D01*
X1131592Y5239327D01*
X1131592Y5239325D01*
X1112246Y5080000D01*
X254000Y5080000D01*
X254000Y8483600D01*
X860818Y8483600D01*
X879451Y8354008D01*
X879451Y8354007D01*
X879452Y8354005D01*
X879452Y8354003D01*
X933837Y8234918D01*
X933840Y8234913D01*
X965263Y8198649D01*
X1019576Y8135969D01*
X1019578Y8135968D01*
X1019579Y8135967D01*
X1129716Y8065186D01*
X1156761Y8057245D01*
X1198185Y8026747D01*
X1210313Y7976757D01*
X1197465Y7942374D01*
X1188506Y7929395D01*
X1188502Y7929389D01*
X1131593Y7779329D01*
X1131592Y7779327D01*
X1131592Y7779325D01*
X1112246Y7620000D01*
X1131592Y7460675D01*
X1131592Y7460673D01*
X1131593Y7460672D01*
X1188502Y7310612D01*
X1188507Y7310604D01*
X1279672Y7178528D01*
X1279674Y7178526D01*
X1279676Y7178523D01*
X1279679Y7178521D01*
X1279684Y7178515D01*
X1399805Y7072098D01*
X1399807Y7072097D01*
X1399809Y7072095D01*
X1541920Y6997509D01*
X1697752Y6959100D01*
X1697754Y6959100D01*
X1858246Y6959100D01*
X1858248Y6959100D01*
X2014080Y6997509D01*
X2156191Y7072095D01*
X2276324Y7178523D01*
X2367496Y7310609D01*
X2424408Y7460675D01*
X2443754Y7620000D01*
X2431660Y7719600D01*
X4224018Y7719600D01*
X4242651Y7590008D01*
X4242651Y7590007D01*
X4242652Y7590005D01*
X4242652Y7590003D01*
X4297037Y7470918D01*
X4297040Y7470913D01*
X4324167Y7439608D01*
X4382776Y7371969D01*
X4382778Y7371968D01*
X4382779Y7371967D01*
X4492916Y7301186D01*
X4582282Y7274946D01*
X4618538Y7264300D01*
X4618541Y7264300D01*
X4749459Y7264300D01*
X4749462Y7264300D01*
X4875083Y7301186D01*
X4985224Y7371969D01*
X5070961Y7470915D01*
X5115846Y7569200D01*
X6474218Y7569200D01*
X6492851Y7439608D01*
X6492851Y7439607D01*
X6492852Y7439605D01*
X6492852Y7439603D01*
X6547237Y7320518D01*
X6547240Y7320513D01*
X6578663Y7284249D01*
X6632976Y7221569D01*
X6632978Y7221568D01*
X6632979Y7221567D01*
X6743116Y7150786D01*
X6832482Y7124546D01*
X6868738Y7113900D01*
X6868741Y7113900D01*
X6999659Y7113900D01*
X6999662Y7113900D01*
X7125283Y7150786D01*
X7235424Y7221569D01*
X7321161Y7320515D01*
X7375549Y7439608D01*
X7394182Y7569200D01*
X7375549Y7698792D01*
X7375547Y7698797D01*
X7375547Y7698798D01*
X7321162Y7817883D01*
X7321159Y7817888D01*
X7294028Y7849198D01*
X7235424Y7916831D01*
X7235420Y7916834D01*
X7125283Y7987615D01*
X6999664Y8024500D01*
X6999662Y8024500D01*
X6868738Y8024500D01*
X6868735Y8024500D01*
X6743116Y7987615D01*
X6632979Y7916834D01*
X6547240Y7817888D01*
X6547237Y7817883D01*
X6492852Y7698798D01*
X6492852Y7698796D01*
X6492851Y7698794D01*
X6492851Y7698792D01*
X6474218Y7569200D01*
X5115846Y7569200D01*
X5125349Y7590008D01*
X5143982Y7719600D01*
X5125349Y7849192D01*
X5125347Y7849197D01*
X5125347Y7849198D01*
X5070962Y7968283D01*
X5070959Y7968288D01*
X5027911Y8017967D01*
X4985224Y8067231D01*
X4985220Y8067234D01*
X4875083Y8138015D01*
X4749464Y8174900D01*
X4749462Y8174900D01*
X4618538Y8174900D01*
X4618535Y8174900D01*
X4492916Y8138015D01*
X4382779Y8067234D01*
X4297040Y7968288D01*
X4297037Y7968283D01*
X4242652Y7849198D01*
X4242652Y7849196D01*
X4242651Y7849194D01*
X4242651Y7849192D01*
X4224018Y7719600D01*
X2431660Y7719600D01*
X2424408Y7779325D01*
X2377290Y7903566D01*
X2367497Y7929389D01*
X2367492Y7929397D01*
X2276327Y8061473D01*
X2276326Y8061475D01*
X2276324Y8061477D01*
X2276320Y8061481D01*
X2276315Y8061486D01*
X2156194Y8167903D01*
X2156188Y8167907D01*
X2014083Y8242490D01*
X2014081Y8242491D01*
X1962136Y8255294D01*
X1858248Y8280900D01*
X1858246Y8280900D01*
X1838423Y8280900D01*
X1790085Y8298493D01*
X1764365Y8343042D01*
X1763988Y8366799D01*
X1773993Y8436381D01*
X8427618Y8436381D01*
X8446251Y8306789D01*
X8446251Y8306788D01*
X8446252Y8306786D01*
X8446252Y8306784D01*
X8500637Y8187699D01*
X8500640Y8187694D01*
X8532063Y8151430D01*
X8586376Y8088750D01*
X8586378Y8088749D01*
X8586379Y8088748D01*
X8696517Y8017967D01*
X8749581Y8002386D01*
X8791005Y7971887D01*
X8803133Y7921898D01*
X8798709Y7903566D01*
X8751593Y7779329D01*
X8751592Y7779327D01*
X8751592Y7779325D01*
X8732246Y7620000D01*
X8751592Y7460675D01*
X8751592Y7460673D01*
X8751593Y7460672D01*
X8808502Y7310612D01*
X8808507Y7310604D01*
X8899672Y7178528D01*
X8899674Y7178526D01*
X8899676Y7178523D01*
X8899679Y7178521D01*
X8899684Y7178515D01*
X9019805Y7072098D01*
X9019807Y7072097D01*
X9019809Y7072095D01*
X9161920Y6997509D01*
X9317752Y6959100D01*
X9317754Y6959100D01*
X9478246Y6959100D01*
X9478248Y6959100D01*
X9634080Y6997509D01*
X9776191Y7072095D01*
X9896324Y7178523D01*
X9987496Y7310609D01*
X10044408Y7460675D01*
X10063754Y7620000D01*
X10044408Y7779325D01*
X9997290Y7903566D01*
X9987497Y7929389D01*
X9987492Y7929397D01*
X9896327Y8061473D01*
X9896326Y8061475D01*
X9896324Y8061477D01*
X9896320Y8061481D01*
X9896315Y8061486D01*
X9776194Y8167903D01*
X9776188Y8167907D01*
X9634083Y8242490D01*
X9634081Y8242491D01*
X9582136Y8255294D01*
X9478248Y8280900D01*
X9412012Y8280900D01*
X9363674Y8298493D01*
X9337954Y8343042D01*
X9337578Y8366803D01*
X9347582Y8436378D01*
X9347582Y8436379D01*
X9347582Y8436381D01*
X9328949Y8565973D01*
X9328947Y8565978D01*
X9328947Y8565979D01*
X9274562Y8685064D01*
X9274559Y8685069D01*
X9233647Y8732283D01*
X9188824Y8784012D01*
X9188820Y8784015D01*
X9078683Y8854796D01*
X8953064Y8891681D01*
X8953062Y8891681D01*
X8822138Y8891681D01*
X8822135Y8891681D01*
X8696516Y8854796D01*
X8586379Y8784015D01*
X8500640Y8685069D01*
X8500637Y8685064D01*
X8446252Y8565979D01*
X8446252Y8565977D01*
X8446251Y8565975D01*
X8446251Y8565973D01*
X8427618Y8436381D01*
X1773993Y8436381D01*
X1780782Y8483600D01*
X1762149Y8613192D01*
X1762147Y8613197D01*
X1762147Y8613198D01*
X1707762Y8732283D01*
X1707759Y8732288D01*
X1662939Y8784012D01*
X1622024Y8831231D01*
X1622020Y8831234D01*
X1511883Y8902015D01*
X1386264Y8938900D01*
X1386262Y8938900D01*
X1255338Y8938900D01*
X1255335Y8938900D01*
X1129716Y8902015D01*
X1019579Y8831234D01*
X933840Y8732288D01*
X933837Y8732283D01*
X879452Y8613198D01*
X879452Y8613196D01*
X879451Y8613194D01*
X879451Y8613192D01*
X860818Y8483600D01*
X254000Y8483600D01*
X254000Y10160000D01*
X1112246Y10160000D01*
X1131592Y10000675D01*
X1131592Y10000673D01*
X1131593Y10000672D01*
X1188502Y9850612D01*
X1188507Y9850604D01*
X1279672Y9718528D01*
X1279674Y9718526D01*
X1279676Y9718523D01*
X1279679Y9718521D01*
X1279684Y9718515D01*
X1399805Y9612098D01*
X1399807Y9612097D01*
X1399809Y9612095D01*
X1541920Y9537509D01*
X1697752Y9499100D01*
X1697754Y9499100D01*
X1858245Y9499100D01*
X1858248Y9499100D01*
X2000989Y9534283D01*
X2052130Y9528769D01*
X2087763Y9491670D01*
X2093418Y9471970D01*
X2093442Y9471802D01*
X2093442Y9471800D01*
X2112075Y9342208D01*
X2112075Y9342207D01*
X2112076Y9342205D01*
X2112076Y9342203D01*
X2166461Y9223118D01*
X2166464Y9223113D01*
X2197887Y9186849D01*
X2252200Y9124169D01*
X2252202Y9124168D01*
X2252203Y9124167D01*
X2362340Y9053386D01*
X2451706Y9027146D01*
X2487962Y9016500D01*
X2487965Y9016500D01*
X2618883Y9016500D01*
X2618886Y9016500D01*
X2744507Y9053386D01*
X2854648Y9124169D01*
X2940385Y9223115D01*
X2994773Y9342208D01*
X3013406Y9471800D01*
X2994773Y9601392D01*
X2994771Y9601397D01*
X2994771Y9601398D01*
X2940386Y9720483D01*
X2940383Y9720488D01*
X2910044Y9755500D01*
X2854648Y9819431D01*
X2854644Y9819434D01*
X2744507Y9890215D01*
X2618888Y9927100D01*
X2618886Y9927100D01*
X2500357Y9927100D01*
X2452019Y9944693D01*
X2426299Y9989242D01*
X2425705Y10011359D01*
X2443754Y10160000D01*
X2437585Y10210800D01*
X4137418Y10210800D01*
X4156051Y10081208D01*
X4156051Y10081207D01*
X4156052Y10081205D01*
X4156052Y10081203D01*
X4210437Y9962118D01*
X4210440Y9962113D01*
X4225535Y9944693D01*
X4296176Y9863169D01*
X4296178Y9863168D01*
X4296179Y9863167D01*
X4406316Y9792386D01*
X4495682Y9766146D01*
X4531938Y9755500D01*
X4531941Y9755500D01*
X4662859Y9755500D01*
X4662862Y9755500D01*
X4788483Y9792386D01*
X4898624Y9863169D01*
X4984361Y9962115D01*
X5038749Y10081208D01*
X5050078Y10160000D01*
X8732246Y10160000D01*
X8751592Y10000675D01*
X8751592Y10000673D01*
X8751593Y10000672D01*
X8808502Y9850612D01*
X8808507Y9850604D01*
X8899672Y9718528D01*
X8899674Y9718526D01*
X8899676Y9718523D01*
X8899679Y9718521D01*
X8899684Y9718515D01*
X9019805Y9612098D01*
X9019807Y9612097D01*
X9019809Y9612095D01*
X9161920Y9537509D01*
X9317752Y9499100D01*
X9317754Y9499100D01*
X9478246Y9499100D01*
X9478248Y9499100D01*
X9634080Y9537509D01*
X9776191Y9612095D01*
X9896324Y9718523D01*
X9987496Y9850609D01*
X10044408Y10000675D01*
X10063754Y10160000D01*
X10044408Y10319325D01*
X10003360Y10427559D01*
X10002670Y10478991D01*
X10035203Y10518836D01*
X10052482Y10526374D01*
X10147883Y10554386D01*
X10258024Y10625169D01*
X10343761Y10724115D01*
X10398149Y10843208D01*
X10416782Y10972800D01*
X10398149Y11102392D01*
X10398147Y11102397D01*
X10398147Y11102398D01*
X10343762Y11221483D01*
X10343759Y11221488D01*
X10318058Y11251148D01*
X10258024Y11320431D01*
X10258020Y11320434D01*
X10147883Y11391215D01*
X10022264Y11428100D01*
X10022262Y11428100D01*
X9891338Y11428100D01*
X9891335Y11428100D01*
X9765716Y11391215D01*
X9655579Y11320434D01*
X9569840Y11221488D01*
X9569837Y11221483D01*
X9515452Y11102398D01*
X9515452Y11102396D01*
X9515451Y11102394D01*
X9515451Y11102392D01*
X9496818Y10972800D01*
X9496818Y10972798D01*
X9496818Y10972797D01*
X9506307Y10906803D01*
X9495773Y10856453D01*
X9455338Y10824655D01*
X9431873Y10820900D01*
X9317752Y10820900D01*
X9239836Y10801696D01*
X9161918Y10782491D01*
X9161916Y10782490D01*
X9019811Y10707907D01*
X9019805Y10707903D01*
X8899684Y10601486D01*
X8899672Y10601473D01*
X8808507Y10469397D01*
X8808502Y10469389D01*
X8751593Y10319329D01*
X8751592Y10319327D01*
X8751592Y10319325D01*
X8732246Y10160000D01*
X5050078Y10160000D01*
X5057382Y10210800D01*
X5038749Y10340392D01*
X5038747Y10340396D01*
X4999194Y10427005D01*
X4995117Y10478283D01*
X5024955Y10520185D01*
X5067598Y10533445D01*
X5135859Y10533445D01*
X5135862Y10533445D01*
X5261483Y10570331D01*
X5371624Y10641114D01*
X5457361Y10740060D01*
X5480168Y10790000D01*
X5868018Y10790000D01*
X5886651Y10660408D01*
X5886651Y10660407D01*
X5886652Y10660405D01*
X5886652Y10660403D01*
X5941037Y10541318D01*
X5941040Y10541313D01*
X5959348Y10520185D01*
X6026776Y10442369D01*
X6026778Y10442368D01*
X6026779Y10442367D01*
X6136916Y10371586D01*
X6166716Y10362836D01*
X6262538Y10334700D01*
X6262541Y10334700D01*
X6393459Y10334700D01*
X6393462Y10334700D01*
X6519083Y10371586D01*
X6546754Y10389369D01*
X6629222Y10442367D01*
X6629223Y10442368D01*
X6645344Y10460972D01*
X6708142Y10533445D01*
X6712995Y10539046D01*
X6757945Y10564056D01*
X6808455Y10554321D01*
X6810483Y10553063D01*
X6896384Y10497858D01*
X6985750Y10471618D01*
X7022006Y10460972D01*
X7022009Y10460972D01*
X7152927Y10460972D01*
X7152930Y10460972D01*
X7278551Y10497858D01*
X7388692Y10568641D01*
X7474429Y10667587D01*
X7509660Y10744732D01*
X7528815Y10786675D01*
X7528815Y10786676D01*
X7528817Y10786680D01*
X7547450Y10916272D01*
X7528817Y11045864D01*
X7528815Y11045869D01*
X7528815Y11045870D01*
X7474430Y11164955D01*
X7474427Y11164960D01*
X7436773Y11208414D01*
X7388692Y11263903D01*
X7388688Y11263906D01*
X7278551Y11334687D01*
X7152932Y11371572D01*
X7152930Y11371572D01*
X7022006Y11371572D01*
X7022003Y11371572D01*
X6896384Y11334687D01*
X6786247Y11263906D01*
X6786244Y11263904D01*
X6786244Y11263903D01*
X6764547Y11238863D01*
X6702472Y11167226D01*
X6657521Y11142216D01*
X6607011Y11151952D01*
X6604984Y11153210D01*
X6519083Y11208415D01*
X6393464Y11245300D01*
X6393462Y11245300D01*
X6262538Y11245300D01*
X6262535Y11245300D01*
X6136916Y11208415D01*
X6026779Y11137634D01*
X5941040Y11038688D01*
X5941037Y11038683D01*
X5886652Y10919598D01*
X5886652Y10919596D01*
X5886651Y10919594D01*
X5886651Y10919592D01*
X5868018Y10790000D01*
X5480168Y10790000D01*
X5511749Y10859153D01*
X5530382Y10988745D01*
X5511749Y11118337D01*
X5511747Y11118342D01*
X5511747Y11118343D01*
X5457362Y11237428D01*
X5457359Y11237433D01*
X5431658Y11267093D01*
X5371624Y11336376D01*
X5371620Y11336379D01*
X5261483Y11407160D01*
X5135864Y11444045D01*
X5135862Y11444045D01*
X5004938Y11444045D01*
X5004935Y11444045D01*
X4879316Y11407160D01*
X4769179Y11336379D01*
X4769176Y11336377D01*
X4769176Y11336376D01*
X4767712Y11334686D01*
X4683440Y11237433D01*
X4683437Y11237428D01*
X4629052Y11118343D01*
X4629052Y11118341D01*
X4629051Y11118339D01*
X4629051Y11118337D01*
X4617598Y11038683D01*
X4610418Y10988745D01*
X4629051Y10859151D01*
X4668606Y10772540D01*
X4672683Y10721262D01*
X4642845Y10679360D01*
X4600202Y10666100D01*
X4531935Y10666100D01*
X4406316Y10629215D01*
X4296179Y10558434D01*
X4210440Y10459488D01*
X4210437Y10459483D01*
X4156052Y10340398D01*
X4156052Y10340396D01*
X4156052Y10340395D01*
X4156051Y10340392D01*
X4137418Y10210800D01*
X2437585Y10210800D01*
X2436334Y10221101D01*
X2447972Y10271202D01*
X2489095Y10302105D01*
X2532171Y10302316D01*
X2602382Y10281700D01*
X2602385Y10281700D01*
X2733303Y10281700D01*
X2733306Y10281700D01*
X2858927Y10318586D01*
X2969068Y10389369D01*
X3054805Y10488315D01*
X3091489Y10568641D01*
X3109191Y10607403D01*
X3109191Y10607404D01*
X3109193Y10607408D01*
X3127826Y10737000D01*
X3109193Y10866592D01*
X3109191Y10866597D01*
X3109191Y10866598D01*
X3054806Y10985683D01*
X3054803Y10985688D01*
X3050911Y10990180D01*
X3315134Y10990180D01*
X3333767Y10860588D01*
X3333767Y10860587D01*
X3333768Y10860585D01*
X3333768Y10860583D01*
X3388153Y10741498D01*
X3388156Y10741493D01*
X3405687Y10721262D01*
X3473892Y10642549D01*
X3473894Y10642548D01*
X3473895Y10642547D01*
X3584032Y10571766D01*
X3647729Y10553063D01*
X3709654Y10534880D01*
X3709657Y10534880D01*
X3840575Y10534880D01*
X3840578Y10534880D01*
X3966199Y10571766D01*
X4076340Y10642549D01*
X4162077Y10741495D01*
X4208526Y10843203D01*
X4216463Y10860583D01*
X4216463Y10860584D01*
X4216465Y10860588D01*
X4235098Y10990180D01*
X4216465Y11119772D01*
X4216463Y11119777D01*
X4216463Y11119778D01*
X4162078Y11238863D01*
X4162075Y11238868D01*
X4136374Y11268528D01*
X4076340Y11337811D01*
X4076336Y11337814D01*
X3966199Y11408595D01*
X3840580Y11445480D01*
X3840578Y11445480D01*
X3709654Y11445480D01*
X3709651Y11445480D01*
X3584032Y11408595D01*
X3473895Y11337814D01*
X3473892Y11337812D01*
X3473892Y11337811D01*
X3458835Y11320434D01*
X3388156Y11238868D01*
X3388153Y11238863D01*
X3333768Y11119778D01*
X3333768Y11119776D01*
X3333767Y11119774D01*
X3333767Y11119772D01*
X3315134Y10990180D01*
X3050911Y10990180D01*
X3008880Y11038685D01*
X2969068Y11084631D01*
X2969064Y11084634D01*
X2858927Y11155415D01*
X2733308Y11192300D01*
X2733306Y11192300D01*
X2602382Y11192300D01*
X2602379Y11192300D01*
X2476760Y11155415D01*
X2366623Y11084634D01*
X2280884Y10985688D01*
X2280881Y10985683D01*
X2226496Y10866598D01*
X2226494Y10866590D01*
X2215492Y10790073D01*
X2191198Y10744732D01*
X2143443Y10725614D01*
X2106111Y10734190D01*
X2014083Y10782490D01*
X2014081Y10782491D01*
X1962136Y10795294D01*
X1858248Y10820900D01*
X1697752Y10820900D01*
X1619836Y10801696D01*
X1541918Y10782491D01*
X1541916Y10782490D01*
X1399811Y10707907D01*
X1399805Y10707903D01*
X1279684Y10601486D01*
X1279672Y10601473D01*
X1188507Y10469397D01*
X1188502Y10469389D01*
X1131593Y10319329D01*
X1131592Y10319327D01*
X1131592Y10319325D01*
X1112246Y10160000D01*
X254000Y10160000D01*
X254000Y11929758D01*
X740336Y11929758D01*
X758969Y11800166D01*
X758969Y11800165D01*
X758970Y11800163D01*
X758970Y11800161D01*
X813355Y11681076D01*
X813358Y11681071D01*
X844781Y11644807D01*
X899094Y11582127D01*
X899096Y11582126D01*
X899097Y11582125D01*
X1009234Y11511344D01*
X1098600Y11485104D01*
X1134856Y11474458D01*
X1134859Y11474458D01*
X1265777Y11474458D01*
X1265780Y11474458D01*
X1391401Y11511344D01*
X1501542Y11582127D01*
X1587279Y11681073D01*
X1618077Y11748512D01*
X1641665Y11800161D01*
X1641665Y11800162D01*
X1641667Y11800166D01*
X1660300Y11929758D01*
X1656930Y11953197D01*
X1667464Y12003546D01*
X1707898Y12035345D01*
X1731364Y12039100D01*
X1858246Y12039100D01*
X1858248Y12039100D01*
X2014080Y12077509D01*
X2133146Y12140000D01*
X7848018Y12140000D01*
X7866651Y12010408D01*
X7866651Y12010407D01*
X7866652Y12010405D01*
X7866652Y12010403D01*
X7921037Y11891318D01*
X7921040Y11891313D01*
X7952463Y11855049D01*
X8006776Y11792369D01*
X8006778Y11792368D01*
X8006779Y11792367D01*
X8116916Y11721586D01*
X8206282Y11695346D01*
X8242538Y11684700D01*
X8242541Y11684700D01*
X8373459Y11684700D01*
X8373462Y11684700D01*
X8499083Y11721586D01*
X8609224Y11792369D01*
X8694961Y11891315D01*
X8749349Y12010408D01*
X8767982Y12140000D01*
X8767982Y12140003D01*
X8767982Y12140004D01*
X8757376Y12213761D01*
X8767910Y12264110D01*
X8808344Y12295909D01*
X8859758Y12294278D01*
X8893696Y12267185D01*
X8899671Y12258529D01*
X8899674Y12258526D01*
X8899676Y12258523D01*
X8899679Y12258521D01*
X8899684Y12258515D01*
X9019805Y12152098D01*
X9019807Y12152097D01*
X9019809Y12152095D01*
X9161920Y12077509D01*
X9317752Y12039100D01*
X9317754Y12039100D01*
X9478246Y12039100D01*
X9478248Y12039100D01*
X9634080Y12077509D01*
X9776191Y12152095D01*
X9896324Y12258523D01*
X9987496Y12390609D01*
X10044408Y12540675D01*
X10063754Y12700000D01*
X10044408Y12859325D01*
X9987496Y13009391D01*
X9896324Y13141477D01*
X9896320Y13141481D01*
X9896315Y13141486D01*
X9776194Y13247903D01*
X9776188Y13247907D01*
X9634083Y13322490D01*
X9634081Y13322491D01*
X9582136Y13335294D01*
X9478248Y13360900D01*
X9317752Y13360900D01*
X9239836Y13341696D01*
X9161918Y13322491D01*
X9161916Y13322490D01*
X9019811Y13247907D01*
X9019805Y13247903D01*
X8899684Y13141486D01*
X8899672Y13141473D01*
X8808507Y13009397D01*
X8808502Y13009389D01*
X8751593Y12859329D01*
X8751592Y12859327D01*
X8751592Y12859325D01*
X8732246Y12700000D01*
X8751593Y12540666D01*
X8751680Y12540316D01*
X8751659Y12540126D01*
X8752141Y12536160D01*
X8751219Y12536049D01*
X8746162Y12489173D01*
X8709060Y12453543D01*
X8657736Y12450097D01*
X8621832Y12473080D01*
X8609224Y12487631D01*
X8609222Y12487632D01*
X8609220Y12487635D01*
X8499083Y12558415D01*
X8373464Y12595300D01*
X8373462Y12595300D01*
X8242538Y12595300D01*
X8242535Y12595300D01*
X8116916Y12558415D01*
X8006779Y12487634D01*
X7921040Y12388688D01*
X7921037Y12388683D01*
X7866652Y12269598D01*
X7866652Y12269596D01*
X7866651Y12269594D01*
X7866651Y12269592D01*
X7848018Y12140000D01*
X2133146Y12140000D01*
X2156191Y12152095D01*
X2276324Y12258523D01*
X2367496Y12390609D01*
X2424408Y12540675D01*
X2443754Y12700000D01*
X2424408Y12859325D01*
X2367496Y13009391D01*
X2276324Y13141477D01*
X2276320Y13141481D01*
X2276315Y13141486D01*
X2156194Y13247903D01*
X2156188Y13247907D01*
X2014083Y13322490D01*
X2014081Y13322491D01*
X1962136Y13335294D01*
X1858248Y13360900D01*
X1697752Y13360900D01*
X1619836Y13341696D01*
X1541918Y13322491D01*
X1541916Y13322490D01*
X1399811Y13247907D01*
X1399805Y13247903D01*
X1279684Y13141486D01*
X1279672Y13141473D01*
X1188507Y13009397D01*
X1188502Y13009389D01*
X1131593Y12859329D01*
X1131592Y12859327D01*
X1131592Y12859325D01*
X1112246Y12700000D01*
X1131592Y12540675D01*
X1131592Y12540673D01*
X1131593Y12540672D01*
X1156223Y12475727D01*
X1156914Y12424292D01*
X1124381Y12384446D01*
X1107096Y12376907D01*
X1009234Y12348173D01*
X899097Y12277392D01*
X899094Y12277390D01*
X899094Y12277389D01*
X892338Y12269592D01*
X813358Y12178446D01*
X813355Y12178441D01*
X758970Y12059356D01*
X758970Y12059354D01*
X758969Y12059352D01*
X758969Y12059350D01*
X740336Y11929758D01*
X254000Y11929758D01*
X254000Y13836165D01*
X5153212Y13836165D01*
X5171845Y13706573D01*
X5171845Y13706572D01*
X5171846Y13706570D01*
X5171846Y13706568D01*
X5226231Y13587483D01*
X5226234Y13587478D01*
X5257657Y13551214D01*
X5311970Y13488534D01*
X5311972Y13488533D01*
X5311973Y13488532D01*
X5422110Y13417751D01*
X5511476Y13391511D01*
X5547732Y13380865D01*
X5547735Y13380865D01*
X5678653Y13380865D01*
X5678656Y13380865D01*
X5804277Y13417751D01*
X5914418Y13488534D01*
X6000155Y13587480D01*
X6054543Y13706573D01*
X6073176Y13836165D01*
X6054543Y13965757D01*
X6054541Y13965762D01*
X6054541Y13965763D01*
X6000156Y14084848D01*
X6000153Y14084853D01*
X5938651Y14155830D01*
X5920292Y14203883D01*
X5937117Y14252493D01*
X5954825Y14268337D01*
X5992868Y14292785D01*
X6078605Y14391731D01*
X6132993Y14510824D01*
X6151626Y14640416D01*
X6132993Y14770008D01*
X6132991Y14770013D01*
X6132991Y14770014D01*
X6078606Y14889099D01*
X6078603Y14889104D01*
X6052902Y14918764D01*
X5992868Y14988047D01*
X5992864Y14988050D01*
X5882727Y15058831D01*
X5757108Y15095716D01*
X5757106Y15095716D01*
X5626182Y15095716D01*
X5626179Y15095716D01*
X5500560Y15058831D01*
X5390423Y14988050D01*
X5304684Y14889104D01*
X5304681Y14889099D01*
X5250296Y14770014D01*
X5250296Y14770012D01*
X5250295Y14770010D01*
X5250295Y14770008D01*
X5231662Y14640416D01*
X5250295Y14510824D01*
X5250295Y14510823D01*
X5250296Y14510821D01*
X5250296Y14510819D01*
X5304681Y14391734D01*
X5304684Y14391729D01*
X5366186Y14320753D01*
X5384545Y14272701D01*
X5367721Y14224090D01*
X5350011Y14208246D01*
X5311974Y14183801D01*
X5226234Y14084853D01*
X5226231Y14084848D01*
X5171846Y13965763D01*
X5171846Y13965761D01*
X5171845Y13965759D01*
X5171845Y13965757D01*
X5153212Y13836165D01*
X254000Y13836165D01*
X254000Y15240000D01*
X1112246Y15240000D01*
X1131592Y15080675D01*
X1131592Y15080673D01*
X1131593Y15080672D01*
X1188502Y14930612D01*
X1188507Y14930604D01*
X1279672Y14798528D01*
X1279674Y14798526D01*
X1279676Y14798523D01*
X1279679Y14798521D01*
X1279684Y14798515D01*
X1399805Y14692098D01*
X1399811Y14692094D01*
X1498274Y14640416D01*
X1541920Y14617509D01*
X1697752Y14579100D01*
X1697754Y14579100D01*
X1858246Y14579100D01*
X1858248Y14579100D01*
X2014080Y14617509D01*
X2156191Y14692095D01*
X2276324Y14798523D01*
X2367496Y14930609D01*
X2424408Y15080675D01*
X2443754Y15240000D01*
X8732246Y15240000D01*
X8751592Y15080675D01*
X8751592Y15080673D01*
X8751593Y15080672D01*
X8808502Y14930612D01*
X8808507Y14930604D01*
X8899672Y14798528D01*
X8899674Y14798526D01*
X8899676Y14798523D01*
X8899679Y14798521D01*
X8899684Y14798515D01*
X9019805Y14692098D01*
X9019811Y14692094D01*
X9118274Y14640416D01*
X9161920Y14617509D01*
X9317752Y14579100D01*
X9317754Y14579100D01*
X9478246Y14579100D01*
X9478248Y14579100D01*
X9634080Y14617509D01*
X9776191Y14692095D01*
X9896324Y14798523D01*
X9987496Y14930609D01*
X10044408Y15080675D01*
X10063754Y15240000D01*
X10044408Y15399325D01*
X10032422Y15430930D01*
X10031731Y15482365D01*
X10064264Y15522211D01*
X10081544Y15529748D01*
X10201083Y15564848D01*
X10311224Y15635631D01*
X10396961Y15734577D01*
X10451349Y15853670D01*
X10469982Y15983262D01*
X10451349Y16112854D01*
X10451347Y16112859D01*
X10451347Y16112860D01*
X10396962Y16231945D01*
X10396959Y16231950D01*
X10371258Y16261610D01*
X10311224Y16330893D01*
X10311220Y16330896D01*
X10201083Y16401677D01*
X10075464Y16438562D01*
X10075462Y16438562D01*
X9944538Y16438562D01*
X9944535Y16438562D01*
X9818916Y16401677D01*
X9708779Y16330896D01*
X9623040Y16231950D01*
X9623037Y16231945D01*
X9568652Y16112860D01*
X9568652Y16112858D01*
X9568651Y16112856D01*
X9568651Y16112854D01*
X9551144Y15991087D01*
X9550018Y15983259D01*
X9550018Y15977884D01*
X9547647Y15977884D01*
X9538962Y15936435D01*
X9498519Y15904648D01*
X9475074Y15900900D01*
X9317752Y15900900D01*
X9239836Y15881696D01*
X9161918Y15862491D01*
X9161916Y15862490D01*
X9019811Y15787907D01*
X9019805Y15787903D01*
X8899684Y15681486D01*
X8899672Y15681473D01*
X8808507Y15549397D01*
X8808502Y15549389D01*
X8751593Y15399329D01*
X8751592Y15399327D01*
X8751592Y15399325D01*
X8732246Y15240000D01*
X2443754Y15240000D01*
X2424408Y15399325D01*
X2367496Y15549391D01*
X2323720Y15612812D01*
X2276327Y15681473D01*
X2276326Y15681475D01*
X2276324Y15681477D01*
X2276320Y15681481D01*
X2276315Y15681486D01*
X2207552Y15742404D01*
X4980811Y15742404D01*
X4999444Y15612812D01*
X4999444Y15612811D01*
X4999445Y15612809D01*
X4999445Y15612807D01*
X5053830Y15493722D01*
X5053833Y15493717D01*
X5063670Y15482365D01*
X5139569Y15394773D01*
X5139571Y15394772D01*
X5139572Y15394771D01*
X5249709Y15323990D01*
X5339075Y15297750D01*
X5375331Y15287104D01*
X5375334Y15287104D01*
X5506252Y15287104D01*
X5506255Y15287104D01*
X5631876Y15323990D01*
X5742017Y15394773D01*
X5827754Y15493719D01*
X5882142Y15612812D01*
X5900775Y15742404D01*
X5882142Y15871996D01*
X5882140Y15872001D01*
X5882140Y15872002D01*
X5846043Y15951042D01*
X7725376Y15951042D01*
X7744009Y15821450D01*
X7744009Y15821449D01*
X7744010Y15821447D01*
X7744010Y15821445D01*
X7798395Y15702360D01*
X7798398Y15702355D01*
X7816493Y15681473D01*
X7884134Y15603411D01*
X7884136Y15603410D01*
X7884137Y15603409D01*
X7994274Y15532628D01*
X8083640Y15506388D01*
X8119896Y15495742D01*
X8119899Y15495742D01*
X8250817Y15495742D01*
X8250820Y15495742D01*
X8376441Y15532628D01*
X8486582Y15603411D01*
X8572319Y15702357D01*
X8611387Y15787903D01*
X8626705Y15821445D01*
X8626705Y15821446D01*
X8626707Y15821450D01*
X8645340Y15951042D01*
X8626707Y16080634D01*
X8626705Y16080639D01*
X8626705Y16080640D01*
X8572320Y16199725D01*
X8572317Y16199730D01*
X8544398Y16231950D01*
X8486582Y16298673D01*
X8486578Y16298676D01*
X8376441Y16369457D01*
X8250822Y16406342D01*
X8250820Y16406342D01*
X8119896Y16406342D01*
X8119893Y16406342D01*
X7994274Y16369457D01*
X7884137Y16298676D01*
X7798398Y16199730D01*
X7798395Y16199725D01*
X7744010Y16080640D01*
X7744010Y16080638D01*
X7744009Y16080636D01*
X7744009Y16080634D01*
X7725376Y15951042D01*
X5846043Y15951042D01*
X5827755Y15991087D01*
X5827752Y15991092D01*
X5802051Y16020752D01*
X5742017Y16090035D01*
X5742013Y16090038D01*
X5631876Y16160819D01*
X5506257Y16197704D01*
X5506255Y16197704D01*
X5375331Y16197704D01*
X5375328Y16197704D01*
X5249709Y16160819D01*
X5139572Y16090038D01*
X5139569Y16090036D01*
X5139569Y16090035D01*
X5131423Y16080634D01*
X5053833Y15991092D01*
X5053830Y15991087D01*
X4999445Y15872002D01*
X4999445Y15872000D01*
X4999444Y15871998D01*
X4999444Y15871996D01*
X4980811Y15742404D01*
X2207552Y15742404D01*
X2156194Y15787903D01*
X2156188Y15787907D01*
X2014083Y15862490D01*
X2014081Y15862491D01*
X1962136Y15875294D01*
X1858248Y15900900D01*
X1697752Y15900900D01*
X1619836Y15881696D01*
X1541918Y15862491D01*
X1541916Y15862490D01*
X1399811Y15787907D01*
X1399805Y15787903D01*
X1279684Y15681486D01*
X1279672Y15681473D01*
X1188507Y15549397D01*
X1188502Y15549389D01*
X1131593Y15399329D01*
X1131592Y15399327D01*
X1131592Y15399325D01*
X1112246Y15240000D01*
X254000Y15240000D01*
X254000Y16988391D01*
X769981Y16988391D01*
X788614Y16858799D01*
X788614Y16858798D01*
X788615Y16858796D01*
X788615Y16858794D01*
X843000Y16739709D01*
X843003Y16739704D01*
X874426Y16703440D01*
X928739Y16640760D01*
X928741Y16640759D01*
X928742Y16640758D01*
X1038879Y16569977D01*
X1093568Y16553919D01*
X1164501Y16533091D01*
X1164504Y16533091D01*
X1295422Y16533091D01*
X1295425Y16533091D01*
X1421046Y16569977D01*
X1531187Y16640760D01*
X1616924Y16739706D01*
X1671312Y16858799D01*
X1689945Y16988391D01*
X1689945Y16988394D01*
X1689945Y16988395D01*
X1683503Y17033197D01*
X1694037Y17083547D01*
X1734472Y17115345D01*
X1757937Y17119100D01*
X1858246Y17119100D01*
X1858248Y17119100D01*
X2014080Y17157509D01*
X2156191Y17232095D01*
X2276324Y17338523D01*
X2367496Y17470609D01*
X2424408Y17620675D01*
X2443754Y17780000D01*
X2424408Y17939325D01*
X2367496Y18089391D01*
X2345679Y18120999D01*
X2276327Y18221473D01*
X2276326Y18221475D01*
X2276324Y18221477D01*
X2276320Y18221481D01*
X2276315Y18221486D01*
X2156194Y18327903D01*
X2156188Y18327907D01*
X2057260Y18379829D01*
X2588373Y18379829D01*
X2607006Y18250237D01*
X2607006Y18250236D01*
X2607007Y18250234D01*
X2607007Y18250232D01*
X2661392Y18131147D01*
X2661395Y18131142D01*
X2685443Y18103390D01*
X2747131Y18032198D01*
X2747133Y18032197D01*
X2747134Y18032196D01*
X2857271Y17961415D01*
X2882632Y17953969D01*
X2948806Y17934538D01*
X2990228Y17904040D01*
X3002356Y17854051D01*
X2996024Y17831146D01*
X2962251Y17757194D01*
X2960169Y17742714D01*
X2943618Y17627600D01*
X2962251Y17498008D01*
X2962251Y17498007D01*
X2962252Y17498005D01*
X2962252Y17498003D01*
X2985466Y17447172D01*
X2989543Y17395894D01*
X2959705Y17353992D01*
X2938250Y17343780D01*
X2907716Y17334814D01*
X2907713Y17334813D01*
X2797579Y17264034D01*
X2797576Y17264032D01*
X2797576Y17264031D01*
X2780410Y17244221D01*
X2711840Y17165088D01*
X2711837Y17165083D01*
X2657452Y17045998D01*
X2657452Y17045996D01*
X2657452Y17045995D01*
X2657451Y17045992D01*
X2638818Y16916400D01*
X2657451Y16786808D01*
X2657451Y16786807D01*
X2657452Y16786805D01*
X2657452Y16786803D01*
X2711837Y16667718D01*
X2711840Y16667713D01*
X2735197Y16640758D01*
X2797576Y16568769D01*
X2797578Y16568768D01*
X2797579Y16568767D01*
X2907716Y16497986D01*
X2997082Y16471746D01*
X3033338Y16461100D01*
X3033341Y16461100D01*
X3164259Y16461100D01*
X3164262Y16461100D01*
X3289883Y16497986D01*
X3400024Y16568769D01*
X3485761Y16667715D01*
X3540149Y16786808D01*
X3542420Y16802601D01*
X4723335Y16802601D01*
X4741968Y16673009D01*
X4741968Y16673008D01*
X4741969Y16673006D01*
X4741969Y16673004D01*
X4796354Y16553919D01*
X4796357Y16553914D01*
X4814400Y16533092D01*
X4882093Y16454970D01*
X4882095Y16454969D01*
X4882096Y16454968D01*
X4992233Y16384187D01*
X5081599Y16357947D01*
X5117855Y16347301D01*
X5117858Y16347301D01*
X5248776Y16347301D01*
X5248779Y16347301D01*
X5374400Y16384187D01*
X5484541Y16454970D01*
X5570278Y16553916D01*
X5601076Y16621355D01*
X5624664Y16673004D01*
X5624664Y16673005D01*
X5624666Y16673009D01*
X5643299Y16802601D01*
X5624666Y16932193D01*
X5624664Y16932198D01*
X5624664Y16932199D01*
X5570279Y17051284D01*
X5570276Y17051289D01*
X5542324Y17083547D01*
X5484541Y17150232D01*
X5484537Y17150235D01*
X5374400Y17221016D01*
X5248781Y17257901D01*
X5248779Y17257901D01*
X5117855Y17257901D01*
X5117852Y17257901D01*
X4992233Y17221016D01*
X4882096Y17150235D01*
X4796357Y17051289D01*
X4796354Y17051284D01*
X4741969Y16932199D01*
X4741969Y16932197D01*
X4741968Y16932195D01*
X4741968Y16932193D01*
X4723335Y16802601D01*
X3542420Y16802601D01*
X3558782Y16916400D01*
X3540149Y17045992D01*
X3540147Y17045996D01*
X3516933Y17096827D01*
X3512856Y17148105D01*
X3542693Y17190007D01*
X3564151Y17200221D01*
X3573943Y17203097D01*
X3594683Y17209186D01*
X3704824Y17279969D01*
X3790561Y17378915D01*
X3844949Y17498008D01*
X3863582Y17627600D01*
X3844949Y17757192D01*
X3844947Y17757197D01*
X3844947Y17757198D01*
X3790562Y17876283D01*
X3790559Y17876288D01*
X3748757Y17924529D01*
X3704824Y17975231D01*
X3704820Y17975234D01*
X3594683Y18046015D01*
X3503149Y18072891D01*
X3461726Y18103390D01*
X3449598Y18153380D01*
X3455931Y18176285D01*
X3465597Y18197449D01*
X3489704Y18250237D01*
X3500748Y18327046D01*
X4760972Y18327046D01*
X4779605Y18197454D01*
X4779605Y18197453D01*
X4779606Y18197451D01*
X4779606Y18197449D01*
X4833991Y18078364D01*
X4833994Y18078359D01*
X4862021Y18046015D01*
X4919730Y17979415D01*
X4919732Y17979414D01*
X4919733Y17979413D01*
X5029870Y17908632D01*
X5119236Y17882392D01*
X5155492Y17871746D01*
X5155495Y17871746D01*
X5286413Y17871746D01*
X5286416Y17871746D01*
X5412037Y17908632D01*
X5522178Y17979415D01*
X5532564Y17991401D01*
X7473794Y17991401D01*
X7492427Y17861809D01*
X7492427Y17861808D01*
X7492428Y17861806D01*
X7492428Y17861804D01*
X7546813Y17742719D01*
X7546816Y17742714D01*
X7578239Y17706450D01*
X7632552Y17643770D01*
X7632554Y17643769D01*
X7632555Y17643768D01*
X7742692Y17572987D01*
X7832058Y17546747D01*
X7868314Y17536101D01*
X7868317Y17536101D01*
X7999235Y17536101D01*
X7999238Y17536101D01*
X8124859Y17572987D01*
X8235000Y17643770D01*
X8320737Y17742716D01*
X8337764Y17780000D01*
X8732246Y17780000D01*
X8751592Y17620675D01*
X8751592Y17620673D01*
X8751593Y17620672D01*
X8808502Y17470612D01*
X8808507Y17470604D01*
X8899672Y17338528D01*
X8899674Y17338526D01*
X8899676Y17338523D01*
X8899679Y17338521D01*
X8899684Y17338515D01*
X9019805Y17232098D01*
X9019811Y17232094D01*
X9100000Y17190007D01*
X9161920Y17157509D01*
X9317752Y17119100D01*
X9317754Y17119100D01*
X9478246Y17119100D01*
X9478248Y17119100D01*
X9634080Y17157509D01*
X9776191Y17232095D01*
X9896324Y17338523D01*
X9987496Y17470609D01*
X10044408Y17620675D01*
X10063754Y17780000D01*
X10044408Y17939325D01*
X9987496Y18089391D01*
X9965679Y18120999D01*
X9896327Y18221473D01*
X9896326Y18221475D01*
X9896324Y18221477D01*
X9896320Y18221481D01*
X9896315Y18221486D01*
X9776194Y18327903D01*
X9776188Y18327907D01*
X9634083Y18402490D01*
X9634081Y18402491D01*
X9582136Y18415294D01*
X9478248Y18440900D01*
X9317752Y18440900D01*
X9239836Y18421696D01*
X9161918Y18402491D01*
X9161916Y18402490D01*
X9019811Y18327907D01*
X9019805Y18327903D01*
X8899684Y18221486D01*
X8899672Y18221473D01*
X8808507Y18089397D01*
X8808502Y18089389D01*
X8751593Y17939329D01*
X8751592Y17939327D01*
X8751592Y17939325D01*
X8732246Y17780000D01*
X8337764Y17780000D01*
X8375125Y17861809D01*
X8393758Y17991401D01*
X8375125Y18120993D01*
X8375123Y18120998D01*
X8375123Y18120999D01*
X8320738Y18240084D01*
X8320735Y18240089D01*
X8267524Y18301497D01*
X8235000Y18339032D01*
X8234996Y18339035D01*
X8124859Y18409816D01*
X7999240Y18446701D01*
X7999238Y18446701D01*
X7868314Y18446701D01*
X7868311Y18446701D01*
X7742692Y18409816D01*
X7632555Y18339035D01*
X7632552Y18339033D01*
X7632552Y18339032D01*
X7622909Y18327903D01*
X7546816Y18240089D01*
X7546813Y18240084D01*
X7492428Y18120999D01*
X7492428Y18120997D01*
X7492427Y18120995D01*
X7492427Y18120993D01*
X7473794Y17991401D01*
X5532564Y17991401D01*
X5607915Y18078361D01*
X5642175Y18153380D01*
X5662301Y18197449D01*
X5662301Y18197450D01*
X5662303Y18197454D01*
X5680936Y18327046D01*
X5662303Y18456638D01*
X5662301Y18456643D01*
X5662301Y18456644D01*
X5607916Y18575729D01*
X5607913Y18575734D01*
X5562178Y18628514D01*
X5522178Y18674677D01*
X5522174Y18674680D01*
X5412037Y18745461D01*
X5286418Y18782346D01*
X5286416Y18782346D01*
X5155492Y18782346D01*
X5155489Y18782346D01*
X5029870Y18745461D01*
X4919733Y18674680D01*
X4833994Y18575734D01*
X4833991Y18575729D01*
X4779606Y18456644D01*
X4779606Y18456642D01*
X4779605Y18456640D01*
X4779605Y18456638D01*
X4760972Y18327046D01*
X3500748Y18327046D01*
X3508337Y18379829D01*
X3489704Y18509421D01*
X3489702Y18509426D01*
X3489702Y18509427D01*
X3435317Y18628512D01*
X3435314Y18628517D01*
X3409613Y18658177D01*
X3349579Y18727460D01*
X3349575Y18727463D01*
X3239438Y18798244D01*
X3113819Y18835129D01*
X3113817Y18835129D01*
X2982893Y18835129D01*
X2982890Y18835129D01*
X2857271Y18798244D01*
X2747134Y18727463D01*
X2747131Y18727461D01*
X2747131Y18727460D01*
X2729965Y18707650D01*
X2661395Y18628517D01*
X2661392Y18628512D01*
X2607007Y18509427D01*
X2607007Y18509425D01*
X2607006Y18509423D01*
X2607006Y18509421D01*
X2588373Y18379829D01*
X2057260Y18379829D01*
X2014083Y18402490D01*
X2014080Y18402491D01*
X1862070Y18439958D01*
X1819350Y18468607D01*
X1805038Y18518016D01*
X1811665Y18544212D01*
X1834450Y18594104D01*
X1834449Y18594104D01*
X1834451Y18594106D01*
X1853084Y18723698D01*
X1834451Y18853290D01*
X1834449Y18853295D01*
X1834449Y18853296D01*
X1780064Y18972381D01*
X1780061Y18972386D01*
X1754360Y19002046D01*
X1694326Y19071329D01*
X1694322Y19071332D01*
X1584185Y19142113D01*
X1458566Y19178998D01*
X1458564Y19178998D01*
X1327640Y19178998D01*
X1327637Y19178998D01*
X1202018Y19142113D01*
X1091881Y19071332D01*
X1006142Y18972386D01*
X1006139Y18972381D01*
X951754Y18853296D01*
X951754Y18853294D01*
X951753Y18853292D01*
X951753Y18853290D01*
X933120Y18723698D01*
X951753Y18594106D01*
X951753Y18594105D01*
X951754Y18594103D01*
X951754Y18594101D01*
X1006139Y18475016D01*
X1006142Y18475011D01*
X1022063Y18456638D01*
X1091878Y18376067D01*
X1091880Y18376066D01*
X1091881Y18376065D01*
X1202018Y18305284D01*
X1214915Y18301497D01*
X1256339Y18270999D01*
X1268467Y18221009D01*
X1255619Y18186625D01*
X1188504Y18089391D01*
X1188502Y18089389D01*
X1131593Y17939329D01*
X1131592Y17939327D01*
X1131592Y17939325D01*
X1112246Y17780000D01*
X1131592Y17620675D01*
X1131592Y17620673D01*
X1131593Y17620672D01*
X1166485Y17528669D01*
X1167176Y17477234D01*
X1134643Y17437388D01*
X1117359Y17429849D01*
X1038878Y17406805D01*
X928742Y17336025D01*
X928739Y17336023D01*
X928739Y17336022D01*
X911573Y17316212D01*
X843003Y17237079D01*
X843000Y17237074D01*
X788615Y17117989D01*
X788615Y17117987D01*
X788614Y17117985D01*
X788614Y17117983D01*
X769981Y16988391D01*
X254000Y16988391D01*
X254000Y20320000D01*
X1112246Y20320000D01*
X1131592Y20160675D01*
X1131592Y20160673D01*
X1131593Y20160672D01*
X1188502Y20010612D01*
X1188507Y20010604D01*
X1279672Y19878528D01*
X1279674Y19878526D01*
X1279676Y19878523D01*
X1279679Y19878521D01*
X1279684Y19878515D01*
X1399805Y19772098D01*
X1399807Y19772097D01*
X1399809Y19772095D01*
X1541920Y19697509D01*
X1697752Y19659100D01*
X1697754Y19659100D01*
X1858246Y19659100D01*
X1858248Y19659100D01*
X2014080Y19697509D01*
X2156191Y19772095D01*
X2241062Y19847284D01*
X8089934Y19847284D01*
X8108567Y19717692D01*
X8108567Y19717691D01*
X8108568Y19717689D01*
X8108568Y19717687D01*
X8162953Y19598602D01*
X8162956Y19598597D01*
X8194379Y19562333D01*
X8248692Y19499653D01*
X8248694Y19499652D01*
X8248695Y19499651D01*
X8358832Y19428870D01*
X8448198Y19402630D01*
X8484454Y19391984D01*
X8484457Y19391984D01*
X8615375Y19391984D01*
X8615378Y19391984D01*
X8740999Y19428870D01*
X8851140Y19499653D01*
X8936877Y19598599D01*
X8983822Y19701396D01*
X9019904Y19738054D01*
X9071111Y19742944D01*
X9087169Y19736742D01*
X9161920Y19697509D01*
X9317752Y19659100D01*
X9317754Y19659100D01*
X9478246Y19659100D01*
X9478248Y19659100D01*
X9634080Y19697509D01*
X9776191Y19772095D01*
X9896324Y19878523D01*
X9987496Y20010609D01*
X10044408Y20160675D01*
X10063754Y20320000D01*
X10044408Y20479325D01*
X9987496Y20629391D01*
X9956242Y20674671D01*
X9896327Y20761473D01*
X9896326Y20761475D01*
X9896324Y20761477D01*
X9896320Y20761481D01*
X9896315Y20761486D01*
X9776194Y20867903D01*
X9776188Y20867907D01*
X9634083Y20942490D01*
X9634081Y20942491D01*
X9582136Y20955294D01*
X9478248Y20980900D01*
X9317752Y20980900D01*
X9239836Y20961696D01*
X9161918Y20942491D01*
X9161916Y20942490D01*
X9019811Y20867907D01*
X9019805Y20867903D01*
X8899684Y20761486D01*
X8899672Y20761473D01*
X8808507Y20629397D01*
X8808502Y20629389D01*
X8751593Y20479329D01*
X8751592Y20479327D01*
X8751592Y20479325D01*
X8742959Y20408229D01*
X8736877Y20358139D01*
X8713585Y20312275D01*
X8666261Y20292112D01*
X8641041Y20295050D01*
X8615385Y20302583D01*
X8615379Y20302584D01*
X8615378Y20302584D01*
X8484454Y20302584D01*
X8484451Y20302584D01*
X8358832Y20265699D01*
X8248695Y20194918D01*
X8162956Y20095972D01*
X8162953Y20095967D01*
X8108568Y19976882D01*
X8108568Y19976880D01*
X8108567Y19976878D01*
X8108567Y19976876D01*
X8089934Y19847284D01*
X2241062Y19847284D01*
X2276324Y19878523D01*
X2367496Y20010609D01*
X2424408Y20160675D01*
X2443754Y20320000D01*
X2424408Y20479325D01*
X2386227Y20580000D01*
X2838018Y20580000D01*
X2856651Y20450408D01*
X2856651Y20450407D01*
X2856652Y20450405D01*
X2856652Y20450403D01*
X2911037Y20331318D01*
X2911040Y20331313D01*
X2920843Y20320000D01*
X2996776Y20232369D01*
X2996778Y20232368D01*
X2996779Y20232367D01*
X3106916Y20161586D01*
X3196282Y20135346D01*
X3232538Y20124700D01*
X3232541Y20124700D01*
X3363459Y20124700D01*
X3363462Y20124700D01*
X3489083Y20161586D01*
X3599224Y20232369D01*
X3684961Y20331315D01*
X3715759Y20398754D01*
X3739347Y20450403D01*
X3739347Y20450404D01*
X3739349Y20450408D01*
X3757982Y20580000D01*
X3746923Y20656916D01*
X4517334Y20656916D01*
X4535967Y20527324D01*
X4535967Y20527323D01*
X4535968Y20527321D01*
X4535968Y20527319D01*
X4590353Y20408234D01*
X4590356Y20408229D01*
X4621779Y20371965D01*
X4676092Y20309285D01*
X4676094Y20309284D01*
X4676095Y20309283D01*
X4786232Y20238502D01*
X4875598Y20212262D01*
X4911854Y20201616D01*
X4911857Y20201616D01*
X5042775Y20201616D01*
X5042778Y20201616D01*
X5168399Y20238502D01*
X5278540Y20309285D01*
X5293922Y20327037D01*
X6668980Y20327037D01*
X6687613Y20197445D01*
X6687613Y20197444D01*
X6687614Y20197442D01*
X6687614Y20197440D01*
X6741999Y20078355D01*
X6742002Y20078350D01*
X6773425Y20042086D01*
X6827738Y19979406D01*
X6827740Y19979405D01*
X6827741Y19979404D01*
X6937878Y19908623D01*
X7027244Y19882383D01*
X7063500Y19871737D01*
X7063503Y19871737D01*
X7194421Y19871737D01*
X7194424Y19871737D01*
X7320045Y19908623D01*
X7430186Y19979406D01*
X7515923Y20078352D01*
X7570311Y20197445D01*
X7588944Y20327037D01*
X7570311Y20456629D01*
X7570309Y20456634D01*
X7570309Y20456635D01*
X7515924Y20575720D01*
X7515921Y20575725D01*
X7469420Y20629389D01*
X7430186Y20674668D01*
X7430182Y20674671D01*
X7320045Y20745452D01*
X7194426Y20782337D01*
X7194424Y20782337D01*
X7063500Y20782337D01*
X7063497Y20782337D01*
X6937878Y20745452D01*
X6827741Y20674671D01*
X6742002Y20575725D01*
X6741999Y20575720D01*
X6687614Y20456635D01*
X6687614Y20456633D01*
X6687613Y20456631D01*
X6687613Y20456629D01*
X6668980Y20327037D01*
X5293922Y20327037D01*
X5364277Y20408231D01*
X5418665Y20527324D01*
X5437298Y20656916D01*
X5418665Y20786508D01*
X5418663Y20786513D01*
X5418663Y20786514D01*
X5364278Y20905599D01*
X5364275Y20905604D01*
X5338574Y20935264D01*
X5278540Y21004547D01*
X5278536Y21004550D01*
X5168399Y21075331D01*
X5042780Y21112216D01*
X5042778Y21112216D01*
X4911854Y21112216D01*
X4911851Y21112216D01*
X4786232Y21075331D01*
X4676095Y21004550D01*
X4590356Y20905604D01*
X4590353Y20905599D01*
X4535968Y20786514D01*
X4535968Y20786512D01*
X4535967Y20786510D01*
X4535967Y20786508D01*
X4517334Y20656916D01*
X3746923Y20656916D01*
X3739349Y20709592D01*
X3739347Y20709597D01*
X3739347Y20709598D01*
X3684962Y20828683D01*
X3684959Y20828688D01*
X3650975Y20867907D01*
X3599224Y20927631D01*
X3599220Y20927634D01*
X3489083Y20998415D01*
X3363464Y21035300D01*
X3363462Y21035300D01*
X3232538Y21035300D01*
X3232535Y21035300D01*
X3106916Y20998415D01*
X2996779Y20927634D01*
X2911040Y20828688D01*
X2911037Y20828683D01*
X2856652Y20709598D01*
X2856652Y20709596D01*
X2856651Y20709594D01*
X2856651Y20709592D01*
X2838018Y20580000D01*
X2386227Y20580000D01*
X2367496Y20629391D01*
X2336242Y20674671D01*
X2276327Y20761473D01*
X2276326Y20761475D01*
X2276324Y20761477D01*
X2276320Y20761481D01*
X2276315Y20761486D01*
X2156194Y20867903D01*
X2156188Y20867907D01*
X2014083Y20942490D01*
X2014081Y20942491D01*
X1962136Y20955294D01*
X1858248Y20980900D01*
X1697752Y20980900D01*
X1619836Y20961696D01*
X1541918Y20942491D01*
X1541916Y20942490D01*
X1399811Y20867907D01*
X1399805Y20867903D01*
X1279684Y20761486D01*
X1279672Y20761473D01*
X1188507Y20629397D01*
X1188502Y20629389D01*
X1131593Y20479329D01*
X1131592Y20479327D01*
X1131592Y20479325D01*
X1112246Y20320000D01*
X254000Y20320000D01*
X254000Y21800507D01*
X574814Y21800507D01*
X593447Y21670915D01*
X593447Y21670914D01*
X593448Y21670912D01*
X593448Y21670910D01*
X647833Y21551825D01*
X647836Y21551820D01*
X679259Y21515556D01*
X733572Y21452876D01*
X733574Y21452875D01*
X733575Y21452874D01*
X843712Y21382093D01*
X933078Y21355853D01*
X969334Y21345207D01*
X969337Y21345207D01*
X1100255Y21345207D01*
X1100258Y21345207D01*
X1225879Y21382093D01*
X1336020Y21452876D01*
X1357486Y21477649D01*
X5367818Y21477649D01*
X5386451Y21348057D01*
X5386451Y21348056D01*
X5386452Y21348054D01*
X5386452Y21348052D01*
X5440837Y21228967D01*
X5440840Y21228962D01*
X5472263Y21192698D01*
X5526576Y21130018D01*
X5526578Y21130017D01*
X5526579Y21130016D01*
X5636716Y21059235D01*
X5718231Y21035300D01*
X5762338Y21022349D01*
X5762341Y21022349D01*
X5893259Y21022349D01*
X5893262Y21022349D01*
X6018883Y21059235D01*
X6129024Y21130018D01*
X6214761Y21228964D01*
X6245559Y21296403D01*
X6269147Y21348052D01*
X6269147Y21348053D01*
X6269149Y21348057D01*
X6287782Y21477649D01*
X6269149Y21607241D01*
X6269147Y21607246D01*
X6269147Y21607247D01*
X6214762Y21726332D01*
X6214759Y21726337D01*
X6181590Y21764615D01*
X6129024Y21825280D01*
X6129020Y21825283D01*
X6018883Y21896064D01*
X5893264Y21932949D01*
X5893262Y21932949D01*
X5762338Y21932949D01*
X5762335Y21932949D01*
X5636716Y21896064D01*
X5526579Y21825283D01*
X5440840Y21726337D01*
X5440837Y21726332D01*
X5386452Y21607247D01*
X5386452Y21607245D01*
X5386451Y21607243D01*
X5386451Y21607241D01*
X5367818Y21477649D01*
X1357486Y21477649D01*
X1421757Y21551822D01*
X1476145Y21670915D01*
X1494778Y21800507D01*
X1476145Y21930099D01*
X1476143Y21930104D01*
X1476143Y21930105D01*
X1438150Y22013297D01*
X8063352Y22013297D01*
X8081985Y21883705D01*
X8081985Y21883704D01*
X8081986Y21883702D01*
X8081986Y21883700D01*
X8136371Y21764615D01*
X8136374Y21764610D01*
X8167797Y21728346D01*
X8222110Y21665666D01*
X8222112Y21665665D01*
X8222113Y21665664D01*
X8332250Y21594883D01*
X8421616Y21568643D01*
X8457872Y21557997D01*
X8457875Y21557997D01*
X8588793Y21557997D01*
X8588796Y21557997D01*
X8714417Y21594883D01*
X8824558Y21665666D01*
X8910295Y21764612D01*
X8946553Y21844006D01*
X9778379Y21844006D01*
X9797012Y21714414D01*
X9797012Y21714413D01*
X9797013Y21714411D01*
X9797013Y21714409D01*
X9851398Y21595324D01*
X9851401Y21595319D01*
X9882824Y21559055D01*
X9937137Y21496375D01*
X9937139Y21496374D01*
X9937140Y21496373D01*
X10047277Y21425592D01*
X10136643Y21399352D01*
X10172899Y21388706D01*
X10172902Y21388706D01*
X10303820Y21388706D01*
X10303823Y21388706D01*
X10429444Y21425592D01*
X10539585Y21496375D01*
X10625322Y21595321D01*
X10679710Y21714414D01*
X10698343Y21844006D01*
X10679710Y21973598D01*
X10679708Y21973603D01*
X10679708Y21973604D01*
X10625323Y22092689D01*
X10625320Y22092694D01*
X10581825Y22142889D01*
X10539585Y22191637D01*
X10539581Y22191640D01*
X10429444Y22262421D01*
X10303825Y22299306D01*
X10303823Y22299306D01*
X10172899Y22299306D01*
X10172896Y22299306D01*
X10047277Y22262421D01*
X9937140Y22191640D01*
X9851401Y22092694D01*
X9851398Y22092689D01*
X9797013Y21973604D01*
X9797013Y21973602D01*
X9797012Y21973600D01*
X9797012Y21973598D01*
X9778379Y21844006D01*
X8946553Y21844006D01*
X8964683Y21883705D01*
X8983316Y22013297D01*
X8964683Y22142889D01*
X8964681Y22142893D01*
X8937011Y22203482D01*
X8932934Y22254760D01*
X8962772Y22296662D01*
X9012563Y22309582D01*
X9040360Y22301309D01*
X9161920Y22237509D01*
X9317752Y22199100D01*
X9317754Y22199100D01*
X9478246Y22199100D01*
X9478248Y22199100D01*
X9634080Y22237509D01*
X9776191Y22312095D01*
X9896324Y22418523D01*
X9987496Y22550609D01*
X10044408Y22700675D01*
X10063754Y22860000D01*
X10044408Y23019325D01*
X9987496Y23169391D01*
X9974935Y23187589D01*
X9896327Y23301473D01*
X9896326Y23301475D01*
X9896324Y23301477D01*
X9896320Y23301481D01*
X9896315Y23301486D01*
X9776194Y23407903D01*
X9776188Y23407907D01*
X9634083Y23482490D01*
X9634081Y23482491D01*
X9582136Y23495294D01*
X9478248Y23520900D01*
X9317752Y23520900D01*
X9239836Y23501696D01*
X9161918Y23482491D01*
X9161916Y23482490D01*
X9019811Y23407907D01*
X9019805Y23407903D01*
X8899684Y23301486D01*
X8899672Y23301473D01*
X8808507Y23169397D01*
X8808502Y23169389D01*
X8751593Y23019329D01*
X8751592Y23019327D01*
X8751592Y23019325D01*
X8732246Y22860000D01*
X8751592Y22700675D01*
X8751592Y22700673D01*
X8751593Y22700672D01*
X8808502Y22550612D01*
X8808506Y22550606D01*
X8817786Y22537161D01*
X8830765Y22487386D01*
X8808712Y22440913D01*
X8761947Y22419488D01*
X8719588Y22430094D01*
X8719308Y22429478D01*
X8715985Y22430996D01*
X8715240Y22431182D01*
X8714415Y22431712D01*
X8588798Y22468597D01*
X8588796Y22468597D01*
X8457872Y22468597D01*
X8457869Y22468597D01*
X8332250Y22431712D01*
X8222113Y22360931D01*
X8136374Y22261985D01*
X8136371Y22261980D01*
X8081986Y22142895D01*
X8081986Y22142893D01*
X8081986Y22142892D01*
X8081985Y22142889D01*
X8063352Y22013297D01*
X1438150Y22013297D01*
X1421758Y22049190D01*
X1421755Y22049195D01*
X1396054Y22078855D01*
X1336020Y22148138D01*
X1336016Y22148141D01*
X1225879Y22218922D01*
X1100260Y22255807D01*
X1100258Y22255807D01*
X969334Y22255807D01*
X969331Y22255807D01*
X843712Y22218922D01*
X733575Y22148141D01*
X733572Y22148139D01*
X733572Y22148138D01*
X729024Y22142889D01*
X647836Y22049195D01*
X647833Y22049190D01*
X593448Y21930105D01*
X593448Y21930103D01*
X593447Y21930101D01*
X593447Y21930099D01*
X574814Y21800507D01*
X254000Y21800507D01*
X254000Y23317186D01*
X454418Y23317186D01*
X473051Y23187594D01*
X473051Y23187593D01*
X473052Y23187591D01*
X473052Y23187589D01*
X527437Y23068504D01*
X527440Y23068499D01*
X558863Y23032235D01*
X613176Y22969555D01*
X613178Y22969554D01*
X613179Y22969553D01*
X723316Y22898772D01*
X806473Y22874355D01*
X848938Y22861886D01*
X848941Y22861886D01*
X979859Y22861886D01*
X979862Y22861886D01*
X1022326Y22874355D01*
X1073662Y22871093D01*
X1110891Y22835595D01*
X1118163Y22811269D01*
X1131592Y22700675D01*
X1131592Y22700673D01*
X1131593Y22700672D01*
X1188502Y22550612D01*
X1188507Y22550604D01*
X1279672Y22418528D01*
X1279674Y22418526D01*
X1279676Y22418523D01*
X1279679Y22418521D01*
X1279684Y22418515D01*
X1399805Y22312098D01*
X1399807Y22312097D01*
X1399809Y22312095D01*
X1541920Y22237509D01*
X1697752Y22199100D01*
X1697754Y22199100D01*
X1858246Y22199100D01*
X1858248Y22199100D01*
X2014080Y22237509D01*
X2156191Y22312095D01*
X2276324Y22418523D01*
X2367496Y22550609D01*
X2424408Y22700675D01*
X2443754Y22860000D01*
X2435689Y22926419D01*
X4964516Y22926419D01*
X4983149Y22796827D01*
X4983149Y22796826D01*
X4983150Y22796824D01*
X4983150Y22796822D01*
X5037535Y22677737D01*
X5037538Y22677732D01*
X5068961Y22641468D01*
X5123274Y22578788D01*
X5123276Y22578787D01*
X5123277Y22578786D01*
X5233414Y22508005D01*
X5303636Y22487386D01*
X5359036Y22471119D01*
X5359039Y22471119D01*
X5489957Y22471119D01*
X5489960Y22471119D01*
X5615581Y22508005D01*
X5725722Y22578788D01*
X5811459Y22677734D01*
X5865847Y22796827D01*
X5884480Y22926419D01*
X5865847Y23056011D01*
X5865845Y23056016D01*
X5865845Y23056017D01*
X5811460Y23175102D01*
X5811457Y23175107D01*
X5785756Y23204767D01*
X5725722Y23274050D01*
X5725718Y23274053D01*
X5615581Y23344834D01*
X5489962Y23381719D01*
X5489960Y23381719D01*
X5359036Y23381719D01*
X5359033Y23381719D01*
X5233414Y23344834D01*
X5123277Y23274053D01*
X5037538Y23175107D01*
X5037535Y23175102D01*
X4983150Y23056017D01*
X4983150Y23056015D01*
X4983149Y23056013D01*
X4983149Y23056011D01*
X4964516Y22926419D01*
X2435689Y22926419D01*
X2424408Y23019325D01*
X2367496Y23169391D01*
X2354935Y23187589D01*
X2276327Y23301473D01*
X2276326Y23301475D01*
X2276324Y23301477D01*
X2276320Y23301481D01*
X2276315Y23301486D01*
X2156194Y23407903D01*
X2156188Y23407907D01*
X2014083Y23482490D01*
X2014081Y23482491D01*
X1962136Y23495294D01*
X1858248Y23520900D01*
X1697752Y23520900D01*
X1541920Y23482491D01*
X1448935Y23433689D01*
X1397958Y23426804D01*
X1354482Y23454298D01*
X1345584Y23469037D01*
X1301362Y23565869D01*
X1301359Y23565874D01*
X1275658Y23595534D01*
X1215624Y23664817D01*
X1215620Y23664820D01*
X1105483Y23735601D01*
X979864Y23772486D01*
X979862Y23772486D01*
X848938Y23772486D01*
X848935Y23772486D01*
X723316Y23735601D01*
X613179Y23664820D01*
X527440Y23565874D01*
X527437Y23565869D01*
X473052Y23446784D01*
X473052Y23446782D01*
X473051Y23446780D01*
X473051Y23446778D01*
X454418Y23317186D01*
X254000Y23317186D01*
X254000Y23774400D01*
X2291702Y23774400D01*
X2310335Y23644808D01*
X2310335Y23644807D01*
X2310336Y23644805D01*
X2310336Y23644803D01*
X2364721Y23525718D01*
X2364724Y23525713D01*
X2368895Y23520900D01*
X2450460Y23426769D01*
X2450462Y23426768D01*
X2450463Y23426767D01*
X2560600Y23355986D01*
X2598584Y23344833D01*
X2686222Y23319100D01*
X2686225Y23319100D01*
X2817143Y23319100D01*
X2817146Y23319100D01*
X2942767Y23355986D01*
X3052908Y23426769D01*
X3138645Y23525715D01*
X3193033Y23644808D01*
X3211666Y23774400D01*
X3193033Y23903992D01*
X3193031Y23903997D01*
X3193031Y23903998D01*
X3138646Y24023083D01*
X3138643Y24023088D01*
X3112942Y24052748D01*
X3052908Y24122031D01*
X3052904Y24122034D01*
X2942767Y24192815D01*
X2911823Y24201901D01*
X4468194Y24201901D01*
X4486827Y24072309D01*
X4486827Y24072308D01*
X4486828Y24072306D01*
X4486828Y24072304D01*
X4541213Y23953219D01*
X4541216Y23953214D01*
X4572639Y23916950D01*
X4626952Y23854270D01*
X4626954Y23854269D01*
X4626955Y23854268D01*
X4737092Y23783487D01*
X4826458Y23757247D01*
X4862714Y23746601D01*
X4862717Y23746601D01*
X4993635Y23746601D01*
X4993638Y23746601D01*
X5119259Y23783487D01*
X5229400Y23854270D01*
X5259753Y23889299D01*
X7979877Y23889299D01*
X7998510Y23759707D01*
X7998510Y23759706D01*
X7998511Y23759704D01*
X7998511Y23759702D01*
X8052896Y23640617D01*
X8052899Y23640612D01*
X8084322Y23604348D01*
X8138635Y23541668D01*
X8138637Y23541667D01*
X8138638Y23541666D01*
X8248775Y23470885D01*
X8330876Y23446778D01*
X8374397Y23433999D01*
X8374400Y23433999D01*
X8505318Y23433999D01*
X8505321Y23433999D01*
X8630942Y23470885D01*
X8741083Y23541668D01*
X8826820Y23640614D01*
X8881208Y23759707D01*
X8899841Y23889299D01*
X8881208Y24018891D01*
X8881206Y24018896D01*
X8881206Y24018897D01*
X8826821Y24137982D01*
X8826818Y24137987D01*
X8801117Y24167647D01*
X8741083Y24236930D01*
X8741079Y24236933D01*
X8630942Y24307714D01*
X8505323Y24344599D01*
X8505321Y24344599D01*
X8374397Y24344599D01*
X8374394Y24344599D01*
X8248775Y24307714D01*
X8138638Y24236933D01*
X8052899Y24137987D01*
X8052896Y24137982D01*
X7998511Y24018897D01*
X7998511Y24018895D01*
X7998510Y24018893D01*
X7998510Y24018891D01*
X7979877Y23889299D01*
X5259753Y23889299D01*
X5315137Y23953216D01*
X5369525Y24072309D01*
X5388158Y24201901D01*
X5369525Y24331493D01*
X5369523Y24331498D01*
X5369523Y24331499D01*
X5315138Y24450584D01*
X5315135Y24450589D01*
X5305451Y24461765D01*
X5549405Y24461765D01*
X5568038Y24332173D01*
X5568038Y24332172D01*
X5568039Y24332170D01*
X5568039Y24332168D01*
X5622424Y24213083D01*
X5622427Y24213078D01*
X5653850Y24176814D01*
X5708163Y24114134D01*
X5708165Y24114133D01*
X5708166Y24114132D01*
X5818303Y24043351D01*
X5887313Y24023088D01*
X5943925Y24006465D01*
X5943928Y24006465D01*
X6074846Y24006465D01*
X6074849Y24006465D01*
X6200470Y24043351D01*
X6310611Y24114134D01*
X6396348Y24213080D01*
X6427146Y24280519D01*
X6450734Y24332168D01*
X6450734Y24332169D01*
X6450736Y24332173D01*
X6469369Y24461765D01*
X6450736Y24591357D01*
X6450734Y24591362D01*
X6450734Y24591363D01*
X6396349Y24710448D01*
X6396346Y24710453D01*
X6370645Y24740113D01*
X6310611Y24809396D01*
X6310607Y24809399D01*
X6200470Y24880180D01*
X6074851Y24917065D01*
X6074849Y24917065D01*
X5943925Y24917065D01*
X5943922Y24917065D01*
X5818303Y24880180D01*
X5708166Y24809399D01*
X5622427Y24710453D01*
X5622424Y24710448D01*
X5568039Y24591363D01*
X5568039Y24591361D01*
X5568038Y24591359D01*
X5568038Y24591357D01*
X5549405Y24461765D01*
X5305451Y24461765D01*
X5289434Y24480249D01*
X5229400Y24549532D01*
X5229396Y24549535D01*
X5119259Y24620316D01*
X4993640Y24657201D01*
X4993638Y24657201D01*
X4862714Y24657201D01*
X4862711Y24657201D01*
X4737092Y24620316D01*
X4626955Y24549535D01*
X4541216Y24450589D01*
X4541213Y24450584D01*
X4486828Y24331499D01*
X4486828Y24331497D01*
X4486827Y24331495D01*
X4486827Y24331493D01*
X4468194Y24201901D01*
X2911823Y24201901D01*
X2817148Y24229700D01*
X2817146Y24229700D01*
X2686222Y24229700D01*
X2686219Y24229700D01*
X2560600Y24192815D01*
X2450463Y24122034D01*
X2450460Y24122032D01*
X2450460Y24122031D01*
X2433294Y24102221D01*
X2364724Y24023088D01*
X2364721Y24023083D01*
X2310336Y23903998D01*
X2310336Y23903996D01*
X2310335Y23903994D01*
X2310335Y23903992D01*
X2291702Y23774400D01*
X254000Y23774400D01*
X254000Y25070800D01*
X271593Y25119138D01*
X316142Y25144858D01*
X329200Y25146000D01*
X10846800Y25146000D01*
X10895138Y25128407D01*
G37*
%TD.AperFunction*%
%TD*%
M02*
