%TF.GenerationSoftware,KiCad,Pcbnew,8.0.3*%
%TF.CreationDate,2024-12-12T22:43:46-05:00*%
%TF.ProjectId,3374_VCO,33333734-5f56-4434-9f2e-6b696361645f,0*%
%TF.SameCoordinates,PX640ad70PY37b6b20*%
%TF.FileFunction,Legend,Top*%
%TF.FilePolarity,Positive*%
%FSLAX46Y46*%
G04 Gerber Fmt 4.6, Leading zero omitted, Abs format (unit mm)*
G04 Created by KiCad (PCBNEW 8.0.3) date 2024-12-12 22:43:46*
%MOMM*%
%LPD*%
G01*
G04 APERTURE LIST*
G04 Aperture macros list*
%AMRoundRect*
0 Rectangle with rounded corners*
0 $1 Rounding radius*
0 $2 $3 $4 $5 $6 $7 $8 $9 X,Y pos of 4 corners*
0 Add a 4 corners polygon primitive as box body*
4,1,4,$2,$3,$4,$5,$6,$7,$8,$9,$2,$3,0*
0 Add four circle primitives for the rounded corners*
1,1,$1+$1,$2,$3*
1,1,$1+$1,$4,$5*
1,1,$1+$1,$6,$7*
1,1,$1+$1,$8,$9*
0 Add four rect primitives between the rounded corners*
20,1,$1+$1,$2,$3,$4,$5,0*
20,1,$1+$1,$4,$5,$6,$7,0*
20,1,$1+$1,$6,$7,$8,$9,0*
20,1,$1+$1,$8,$9,$2,$3,0*%
G04 Aperture macros list end*
%ADD10C,1.200000*%
%ADD11C,0.150000*%
%ADD12C,0.152400*%
%ADD13C,0.120000*%
%ADD14RoundRect,0.100000X0.130000X0.100000X-0.130000X0.100000X-0.130000X-0.100000X0.130000X-0.100000X0*%
%ADD15RoundRect,0.100000X0.100000X-0.130000X0.100000X0.130000X-0.100000X0.130000X-0.100000X-0.130000X0*%
%ADD16R,0.774700X0.254000*%
%ADD17RoundRect,0.100000X-0.130000X-0.100000X0.130000X-0.100000X0.130000X0.100000X-0.130000X0.100000X0*%
%ADD18RoundRect,0.100000X-0.100000X0.130000X-0.100000X-0.130000X0.100000X-0.130000X0.100000X0.130000X0*%
%ADD19R,0.400000X0.650000*%
%ADD20R,0.558800X0.240000*%
%ADD21R,0.457200X0.240000*%
%ADD22R,0.240000X0.457200*%
%ADD23C,1.016000*%
G04 APERTURE END LIST*
D10*
X6188000Y25400000D02*
G75*
G02*
X4988000Y25400000I-600000J0D01*
G01*
X4988000Y25400000D02*
G75*
G02*
X6188000Y25400000I600000J0D01*
G01*
D11*
X3848341Y10477381D02*
X4467388Y10477381D01*
X4467388Y10477381D02*
X4134055Y10096429D01*
X4134055Y10096429D02*
X4276912Y10096429D01*
X4276912Y10096429D02*
X4372150Y10048810D01*
X4372150Y10048810D02*
X4419769Y10001191D01*
X4419769Y10001191D02*
X4467388Y9905953D01*
X4467388Y9905953D02*
X4467388Y9667858D01*
X4467388Y9667858D02*
X4419769Y9572620D01*
X4419769Y9572620D02*
X4372150Y9525000D01*
X4372150Y9525000D02*
X4276912Y9477381D01*
X4276912Y9477381D02*
X3991198Y9477381D01*
X3991198Y9477381D02*
X3895960Y9525000D01*
X3895960Y9525000D02*
X3848341Y9572620D01*
X4800722Y10477381D02*
X5419769Y10477381D01*
X5419769Y10477381D02*
X5086436Y10096429D01*
X5086436Y10096429D02*
X5229293Y10096429D01*
X5229293Y10096429D02*
X5324531Y10048810D01*
X5324531Y10048810D02*
X5372150Y10001191D01*
X5372150Y10001191D02*
X5419769Y9905953D01*
X5419769Y9905953D02*
X5419769Y9667858D01*
X5419769Y9667858D02*
X5372150Y9572620D01*
X5372150Y9572620D02*
X5324531Y9525000D01*
X5324531Y9525000D02*
X5229293Y9477381D01*
X5229293Y9477381D02*
X4943579Y9477381D01*
X4943579Y9477381D02*
X4848341Y9525000D01*
X4848341Y9525000D02*
X4800722Y9572620D01*
X5753103Y10477381D02*
X6419769Y10477381D01*
X6419769Y10477381D02*
X5991198Y9477381D01*
X7229293Y10144048D02*
X7229293Y9477381D01*
X6991198Y10525000D02*
X6753103Y9810715D01*
X6753103Y9810715D02*
X7372150Y9810715D01*
D12*
%TO.C,U3*%
X4406900Y16981678D02*
X4406900Y16668496D01*
X4406900Y12748260D02*
X4406900Y12435078D01*
X4406900Y12435078D02*
X6769100Y12435078D01*
X6769100Y16981678D02*
X4406900Y16981678D01*
X6769100Y16668496D02*
X6769100Y16981678D01*
X6769100Y12435078D02*
X6769100Y12748260D01*
D11*
X7763000Y13208378D02*
G75*
G02*
X7613000Y13208378I-75000J0D01*
G01*
X7613000Y13208378D02*
G75*
G02*
X7763000Y13208378I75000J0D01*
G01*
D13*
%TO.C,Q4*%
X3078000Y2259600D02*
X3078000Y359600D01*
X5398000Y859600D02*
X5398000Y2259600D01*
%TO.C,U1*%
D11*
X2888000Y22992075D02*
G75*
G02*
X2738000Y22992075I-75000J0D01*
G01*
X2738000Y22992075D02*
G75*
G02*
X2888000Y22992075I75000J0D01*
G01*
D13*
%TO.C,Q5*%
X5778000Y2259600D02*
X5778000Y359600D01*
X8098000Y859600D02*
X8098000Y2259600D01*
%TO.C,Q3*%
X5778000Y5259600D02*
X5778000Y3359600D01*
X8098000Y3859600D02*
X8098000Y5259600D01*
%TO.C,U2*%
D11*
X8438000Y21592075D02*
G75*
G02*
X8288000Y21592075I-75000J0D01*
G01*
X8288000Y21592075D02*
G75*
G02*
X8438000Y21592075I75000J0D01*
G01*
D13*
%TO.C,Q2*%
X3078000Y5259600D02*
X3078000Y3359600D01*
X5398000Y3859600D02*
X5398000Y5259600D01*
%TO.C,Q1*%
X3078000Y8259600D02*
X3078000Y6359600D01*
X5398000Y6859600D02*
X5398000Y8259600D01*
%TD*%
%LPC*%
D14*
%TO.C,R5*%
X5908000Y17458378D03*
X5268000Y17458378D03*
%TD*%
D15*
%TO.C,R14*%
X2794000Y12075200D03*
X2794000Y12715200D03*
%TD*%
D14*
%TO.C,R17*%
X2098000Y11430000D03*
X1458000Y11430000D03*
%TD*%
D15*
%TO.C,R1*%
X1388000Y23810000D03*
X1388000Y24450000D03*
%TD*%
D16*
%TO.C,U3*%
X7029450Y13208000D03*
X7029450Y13708126D03*
X7029450Y14208252D03*
X7029450Y14708378D03*
X7029450Y15208504D03*
X7029450Y15708630D03*
X7029450Y16208756D03*
X4146550Y16208756D03*
X4146550Y15708630D03*
X4146550Y15208504D03*
X4146550Y14708378D03*
X4146550Y14208252D03*
X4146550Y13708126D03*
X4146550Y13208000D03*
%TD*%
D14*
%TO.C,C6*%
X7127200Y19812000D03*
X6487200Y19812000D03*
%TD*%
D17*
%TO.C,C11*%
X9078000Y3810000D03*
X9718000Y3810000D03*
%TD*%
%TO.C,C3*%
X7300000Y24384000D03*
X7940000Y24384000D03*
%TD*%
%TO.C,R20*%
X1458000Y6350000D03*
X2098000Y6350000D03*
%TD*%
D14*
%TO.C,R21*%
X9718000Y6350000D03*
X9078000Y6350000D03*
%TD*%
D17*
%TO.C,R18*%
X8773200Y11125200D03*
X9413200Y11125200D03*
%TD*%
D18*
%TO.C,C10*%
X8077200Y13627178D03*
X8077200Y12987178D03*
%TD*%
D17*
%TO.C,R16*%
X8773200Y11734800D03*
X9413200Y11734800D03*
%TD*%
D19*
%TO.C,Q4*%
X3588000Y609600D03*
X4238000Y609600D03*
X4888000Y609600D03*
X4888000Y2509600D03*
X4238000Y2509600D03*
X3588000Y2509600D03*
%TD*%
D17*
%TO.C,R19*%
X7300000Y9017000D03*
X7940000Y9017000D03*
%TD*%
D14*
%TO.C,R23*%
X9743400Y1397000D03*
X9103400Y1397000D03*
%TD*%
D20*
%TO.C,U1*%
X3339892Y22892150D03*
D21*
X3288000Y22492100D03*
X3288000Y22092050D03*
X3288000Y21692000D03*
D22*
X3412925Y21167076D03*
X3812975Y21167076D03*
X4213025Y21167076D03*
X4613075Y21167076D03*
D21*
X4738000Y21692000D03*
X4738000Y22092050D03*
X4738000Y22492100D03*
X4738000Y22892150D03*
D22*
X4613075Y23417074D03*
X4213025Y23417074D03*
X3812975Y23417074D03*
X3412925Y23417074D03*
%TD*%
D14*
%TO.C,R12*%
X2098000Y13665200D03*
X1458000Y13665200D03*
%TD*%
D19*
%TO.C,Q5*%
X6288000Y609600D03*
X6938000Y609600D03*
X7588000Y609600D03*
X7588000Y2509600D03*
X6938000Y2509600D03*
X6288000Y2509600D03*
%TD*%
%TO.C,Q3*%
X6288000Y3609600D03*
X6938000Y3609600D03*
X7588000Y3609600D03*
X7588000Y5509600D03*
X6938000Y5509600D03*
X6288000Y5509600D03*
%TD*%
D17*
%TO.C,R22*%
X1458000Y3860800D03*
X2098000Y3860800D03*
%TD*%
D18*
%TO.C,C8*%
X3098800Y15204400D03*
X3098800Y14564400D03*
%TD*%
D20*
%TO.C,U2*%
X7836108Y21692000D03*
D21*
X7888000Y22092050D03*
X7888000Y22492100D03*
X7888000Y22892150D03*
D22*
X7763075Y23417074D03*
X7363025Y23417074D03*
X6962975Y23417074D03*
X6562925Y23417074D03*
D21*
X6438000Y22892150D03*
X6438000Y22492100D03*
X6438000Y22092050D03*
X6438000Y21692000D03*
D22*
X6562925Y21167076D03*
X6962975Y21167076D03*
X7363025Y21167076D03*
X7763075Y21167076D03*
%TD*%
D14*
%TO.C,R9*%
X9489400Y16205200D03*
X8849400Y16205200D03*
%TD*%
D19*
%TO.C,Q2*%
X3588000Y3609600D03*
X4238000Y3609600D03*
X4888000Y3609600D03*
X4888000Y5509600D03*
X4238000Y5509600D03*
X3588000Y5509600D03*
%TD*%
D17*
%TO.C,C1*%
X4658000Y24840000D03*
X5298000Y24840000D03*
%TD*%
D14*
%TO.C,R8*%
X2402800Y16205200D03*
X1762800Y16205200D03*
%TD*%
%TO.C,C5*%
X4130000Y20066000D03*
X3490000Y20066000D03*
%TD*%
D17*
%TO.C,R13*%
X9078000Y13665200D03*
X9718000Y13665200D03*
%TD*%
D14*
%TO.C,R4*%
X4587200Y17458378D03*
X3947200Y17458378D03*
%TD*%
D18*
%TO.C,C9*%
X8077200Y14947978D03*
X8077200Y14307978D03*
%TD*%
D15*
%TO.C,C4*%
X2032000Y23810000D03*
X2032000Y24450000D03*
%TD*%
D17*
%TO.C,R11*%
X9078000Y14274800D03*
X9718000Y14274800D03*
%TD*%
D14*
%TO.C,R3*%
X4587200Y18110000D03*
X3947200Y18110000D03*
%TD*%
D17*
%TO.C,C7*%
X9078000Y18745200D03*
X9718000Y18745200D03*
%TD*%
%TO.C,R7*%
X8849400Y16814800D03*
X9489400Y16814800D03*
%TD*%
D15*
%TO.C,R15*%
X3448000Y11760000D03*
X3448000Y12400000D03*
%TD*%
D14*
%TO.C,C2*%
X3748000Y24390000D03*
X3108000Y24390000D03*
%TD*%
%TO.C,R10*%
X2098000Y14274800D03*
X1458000Y14274800D03*
%TD*%
D19*
%TO.C,Q1*%
X3588000Y6609600D03*
X4238000Y6609600D03*
X4888000Y6609600D03*
X4888000Y8509600D03*
X4238000Y8509600D03*
X3588000Y8509600D03*
%TD*%
D17*
%TO.C,R6*%
X1762800Y16814800D03*
X2402800Y16814800D03*
%TD*%
%TO.C,R2*%
X9078000Y19354800D03*
X9718000Y19354800D03*
%TD*%
D23*
%TO.C,J2*%
X1778000Y22860000D03*
X1778000Y20320000D03*
X1778000Y17780000D03*
X1778000Y15240000D03*
X1778000Y12700000D03*
X1778000Y10160000D03*
X1778000Y7620000D03*
X1778000Y5080000D03*
X1778000Y2540000D03*
%TD*%
%TO.C,J1*%
X9398000Y22860000D03*
X9398000Y20320000D03*
X9398000Y17780000D03*
X9398000Y15240000D03*
X9398000Y12700000D03*
X9398000Y10160000D03*
X9398000Y7620000D03*
X9398000Y5080000D03*
X9398000Y2540000D03*
%TD*%
%LPD*%
M02*
