%TF.GenerationSoftware,KiCad,Pcbnew,7.0.7*%
%TF.CreationDate,2024-02-15T01:29:39-05:00*%
%TF.ProjectId,3374_VCO,33333734-5f56-4434-9f2e-6b696361645f,0*%
%TF.SameCoordinates,PX640ad70PY37b6b20*%
%TF.FileFunction,Copper,L4,Bot*%
%TF.FilePolarity,Positive*%
%FSLAX46Y46*%
G04 Gerber Fmt 4.6, Leading zero omitted, Abs format (unit mm)*
G04 Created by KiCad (PCBNEW 7.0.7) date 2024-02-15 01:29:39*
%MOMM*%
%LPD*%
G01*
G04 APERTURE LIST*
G04 Aperture macros list*
%AMRoundRect*
0 Rectangle with rounded corners*
0 $1 Rounding radius*
0 $2 $3 $4 $5 $6 $7 $8 $9 X,Y pos of 4 corners*
0 Add a 4 corners polygon primitive as box body*
4,1,4,$2,$3,$4,$5,$6,$7,$8,$9,$2,$3,0*
0 Add four circle primitives for the rounded corners*
1,1,$1+$1,$2,$3*
1,1,$1+$1,$4,$5*
1,1,$1+$1,$6,$7*
1,1,$1+$1,$8,$9*
0 Add four rect primitives between the rounded corners*
20,1,$1+$1,$2,$3,$4,$5,0*
20,1,$1+$1,$4,$5,$6,$7,0*
20,1,$1+$1,$6,$7,$8,$9,0*
20,1,$1+$1,$8,$9,$2,$3,0*%
G04 Aperture macros list end*
%TA.AperFunction,SMDPad,CuDef*%
%ADD10R,0.250000X0.500000*%
%TD*%
%TA.AperFunction,SMDPad,CuDef*%
%ADD11R,1.600000X0.900000*%
%TD*%
%TA.AperFunction,SMDPad,CuDef*%
%ADD12RoundRect,0.050000X0.075000X0.200000X-0.075000X0.200000X-0.075000X-0.200000X0.075000X-0.200000X0*%
%TD*%
%TA.AperFunction,SMDPad,CuDef*%
%ADD13R,0.400000X0.650000*%
%TD*%
%TA.AperFunction,SMDPad,CuDef*%
%ADD14RoundRect,0.100000X-0.130000X-0.100000X0.130000X-0.100000X0.130000X0.100000X-0.130000X0.100000X0*%
%TD*%
%TA.AperFunction,SMDPad,CuDef*%
%ADD15RoundRect,0.100000X0.130000X0.100000X-0.130000X0.100000X-0.130000X-0.100000X0.130000X-0.100000X0*%
%TD*%
%TA.AperFunction,SMDPad,CuDef*%
%ADD16RoundRect,0.100000X0.100000X-0.130000X0.100000X0.130000X-0.100000X0.130000X-0.100000X-0.130000X0*%
%TD*%
%TA.AperFunction,ComponentPad*%
%ADD17C,1.016000*%
%TD*%
%TA.AperFunction,FiducialPad,Local*%
%ADD18C,1.016000*%
%TD*%
%TA.AperFunction,SMDPad,CuDef*%
%ADD19RoundRect,0.100000X-0.100000X0.130000X-0.100000X-0.130000X0.100000X-0.130000X0.100000X0.130000X0*%
%TD*%
%TA.AperFunction,SMDPad,CuDef*%
%ADD20RoundRect,0.075000X0.075000X-0.247500X0.075000X0.247500X-0.075000X0.247500X-0.075000X-0.247500X0*%
%TD*%
%TA.AperFunction,SMDPad,CuDef*%
%ADD21R,1.700000X1.010000*%
%TD*%
%TA.AperFunction,SMDPad,CuDef*%
%ADD22RoundRect,0.140000X0.140000X0.170000X-0.140000X0.170000X-0.140000X-0.170000X0.140000X-0.170000X0*%
%TD*%
%TA.AperFunction,SMDPad,CuDef*%
%ADD23R,0.774700X0.254000*%
%TD*%
%TA.AperFunction,ViaPad*%
%ADD24C,0.604800*%
%TD*%
%TA.AperFunction,Conductor*%
%ADD25C,0.152400*%
%TD*%
G04 APERTURE END LIST*
D10*
%TO.P,U5,1*%
%TO.N,Net-(R4-Pad1)*%
X4838000Y21900000D03*
%TO.P,U5,2,-*%
%TO.N,Net-(U5A--)*%
X4338000Y21900000D03*
%TO.P,U5,3,+*%
%TO.N,TRIANGLE_B*%
X3838000Y21900000D03*
%TO.P,U5,4,V-*%
%TO.N,GND*%
X3338000Y21900000D03*
%TO.P,U5,5,+*%
%TO.N,TRIANGLE_A*%
X3338000Y23800000D03*
%TO.P,U5,6,-*%
%TO.N,Net-(U5B--)*%
X3838000Y23800000D03*
%TO.P,U5,7*%
%TO.N,Net-(R5-Pad2)*%
X4338000Y23800000D03*
%TO.P,U5,8,V+*%
%TO.N,+5V*%
X4838000Y23800000D03*
D11*
%TO.P,U5,9,PAD*%
%TO.N,GND*%
X4088000Y22850000D03*
%TD*%
D12*
%TO.P,U7,1,-*%
%TO.N,GND*%
X9418200Y533400D03*
%TO.P,U7,2,+*%
%TO.N,VTC*%
X8768200Y533400D03*
%TD*%
D13*
%TO.P,Q8,1,B2*%
%TO.N,Net-(Q10A-E1)*%
X7588000Y9609600D03*
%TO.P,Q8,2,B1*%
X6938000Y9609600D03*
%TO.P,Q8,3,C1*%
X6288000Y9609600D03*
%TO.P,Q8,4,E1*%
%TO.N,Net-(Q8A-E1)*%
X6288000Y11509600D03*
%TO.P,Q8,5,E2*%
%TO.N,Net-(Q8B-E2)*%
X6938000Y11509600D03*
%TO.P,Q8,6,C2*%
%TO.N,Net-(D1A-A)*%
X7588000Y11509600D03*
%TD*%
%TO.P,Q12,1,B2*%
%TO.N,Net-(Q12A-B1)*%
X7588000Y3609600D03*
%TO.P,Q12,2,B1*%
X6938000Y3609600D03*
%TO.P,Q12,3,C1*%
X6288000Y3609600D03*
%TO.P,Q12,4,E1*%
%TO.N,Net-(Q10A-C1)*%
X6288000Y5509600D03*
%TO.P,Q12,5,E2*%
%TO.N,Net-(Q10A-B1)*%
X6938000Y5509600D03*
%TO.P,Q12,6,C2*%
%TO.N,Net-(Q12B-C2)*%
X7588000Y5509600D03*
%TD*%
D14*
%TO.P,R25,1*%
%TO.N,TRIANGLE_B*%
X5318800Y19874000D03*
%TO.P,R25,2*%
%TO.N,Net-(U6C--)*%
X5958800Y19874000D03*
%TD*%
D15*
%TO.P,C20,1*%
%TO.N,+12V*%
X5298400Y14387600D03*
%TO.P,C20,2*%
%TO.N,GND*%
X4658400Y14387600D03*
%TD*%
D13*
%TO.P,Q14,1,B2*%
%TO.N,CV_B*%
X7588000Y609600D03*
%TO.P,Q14,2,B1*%
%TO.N,GND*%
X6938000Y609600D03*
%TO.P,Q14,3,C1*%
%TO.N,Net-(Q14A-C1)*%
X6288000Y609600D03*
%TO.P,Q14,4,E1*%
%TO.N,Net-(Q14A-E1)*%
X6288000Y2509600D03*
%TO.P,Q14,5,E2*%
X6938000Y2509600D03*
%TO.P,Q14,6,C2*%
%TO.N,Net-(Q12A-B1)*%
X7588000Y2509600D03*
%TD*%
%TO.P,Q10,1,B2*%
%TO.N,Net-(Q10A-B1)*%
X7588000Y6609600D03*
%TO.P,Q10,2,B1*%
X6938000Y6609600D03*
%TO.P,Q10,3,C1*%
%TO.N,Net-(Q10A-C1)*%
X6288000Y6609600D03*
%TO.P,Q10,4,E1*%
%TO.N,Net-(Q10A-E1)*%
X6288000Y8509600D03*
%TO.P,Q10,5,E2*%
X6938000Y8509600D03*
%TO.P,Q10,6,C2*%
%TO.N,Net-(Q10A-B1)*%
X7588000Y8509600D03*
%TD*%
%TO.P,Q15,1,B2*%
%TO.N,CV_A*%
X4888000Y609600D03*
%TO.P,Q15,2,B1*%
%TO.N,GND*%
X4238000Y609600D03*
%TO.P,Q15,3,C1*%
%TO.N,Net-(Q15A-C1)*%
X3588000Y609600D03*
%TO.P,Q15,4,E1*%
%TO.N,Net-(Q15A-E1)*%
X3588000Y2509600D03*
%TO.P,Q15,5,E2*%
X4238000Y2509600D03*
%TO.P,Q15,6,C2*%
%TO.N,Net-(Q15B-C2)*%
X4888000Y2509600D03*
%TD*%
D16*
%TO.P,C18,1*%
%TO.N,Net-(Q14A-C1)*%
X3657600Y14169200D03*
%TO.P,C18,2*%
%TO.N,Net-(C18-Pad2)*%
X3657600Y14809200D03*
%TD*%
D17*
%TO.P,J2,1,Pin_1*%
%TO.N,-5V*%
X1778000Y22860000D03*
%TO.P,J2,2,Pin_2*%
%TO.N,SAWTOOTH_A*%
X1778000Y20320000D03*
%TO.P,J2,3,Pin_3*%
%TO.N,SYNC_A*%
X1778000Y17780000D03*
%TO.P,J2,4,Pin_4*%
%TO.N,VTH_A*%
X1778000Y15240000D03*
%TO.P,J2,5,Pin_5*%
%TO.N,TRIANGLE_A*%
X1778000Y12700000D03*
%TO.P,J2,6,Pin_6*%
%TO.N,CF_A*%
X1778000Y10160000D03*
D18*
%TO.P,J2,7,Pin_7*%
%TO.N,CV_A*%
X1778000Y7620000D03*
D17*
%TO.P,J2,8,Pin_8*%
%TO.N,IREF_A*%
X1778000Y5080000D03*
%TO.P,J2,9,Pin_9*%
%TO.N,GND*%
X1778000Y2540000D03*
%TD*%
D19*
%TO.P,R26,1*%
%TO.N,Net-(D1A-K)*%
X7366000Y14809200D03*
%TO.P,R26,2*%
%TO.N,Net-(U6D--)*%
X7366000Y14169200D03*
%TD*%
D13*
%TO.P,Q9,1,B2*%
%TO.N,Net-(Q8B-E2)*%
X4888000Y9609600D03*
%TO.P,Q9,2,B1*%
X4238000Y9609600D03*
%TO.P,Q9,3,C1*%
%TO.N,Net-(Q8A-E1)*%
X3588000Y9609600D03*
%TO.P,Q9,4,E1*%
%TO.N,+12V*%
X3588000Y11509600D03*
%TO.P,Q9,5,E2*%
X4238000Y11509600D03*
%TO.P,Q9,6,C2*%
%TO.N,Net-(Q8B-E2)*%
X4888000Y11509600D03*
%TD*%
D15*
%TO.P,C15,1*%
%TO.N,+12V*%
X7533600Y24900000D03*
%TO.P,C15,2*%
%TO.N,GND*%
X6893600Y24900000D03*
%TD*%
D13*
%TO.P,Q13,1,B2*%
%TO.N,Net-(Q12B-C2)*%
X4888000Y3609600D03*
%TO.P,Q13,2,B1*%
X4238000Y3609600D03*
%TO.P,Q13,3,C1*%
X3588000Y3609600D03*
%TO.P,Q13,4,E1*%
%TO.N,Net-(Q11A-C1)*%
X3588000Y5509600D03*
%TO.P,Q13,5,E2*%
%TO.N,Net-(Q11A-B1)*%
X4238000Y5509600D03*
%TO.P,Q13,6,C2*%
%TO.N,Net-(D1B-K)*%
X4888000Y5509600D03*
%TD*%
D20*
%TO.P,U4,1,VO*%
%TO.N,+5V*%
X7738000Y21822500D03*
%TO.P,U4,2,NC*%
%TO.N,unconnected-(U4-NC-Pad2)*%
X7088000Y21822500D03*
%TO.P,U4,3,GND*%
%TO.N,GND*%
X6438000Y21822500D03*
%TO.P,U4,4,NC*%
%TO.N,unconnected-(U4-NC-Pad4)*%
X6438000Y23877500D03*
%TO.P,U4,5,NC*%
%TO.N,unconnected-(U4-NC-Pad5)*%
X7088000Y23877500D03*
%TO.P,U4,6,VI*%
%TO.N,+12V*%
X7738000Y23877500D03*
D21*
%TO.P,U4,7,GND*%
%TO.N,GND*%
X7088000Y22850000D03*
%TD*%
D15*
%TO.P,C16,1*%
%TO.N,+5V*%
X4003000Y24900000D03*
%TO.P,C16,2*%
%TO.N,GND*%
X3363000Y24900000D03*
%TD*%
D14*
%TO.P,C19,1*%
%TO.N,GND*%
X5979200Y14387600D03*
%TO.P,C19,2*%
%TO.N,-5V*%
X6619200Y14387600D03*
%TD*%
%TO.P,R24,1*%
%TO.N,Net-(U6C--)*%
X6639600Y19874000D03*
%TO.P,R24,2*%
%TO.N,SAWTOOTH_B*%
X7279600Y19874000D03*
%TD*%
D17*
%TO.P,J1,1,Pin_1*%
%TO.N,+12V*%
X9398000Y22860000D03*
%TO.P,J1,2,Pin_2*%
%TO.N,SAWTOOTH_B*%
X9398000Y20320000D03*
%TO.P,J1,3,Pin_3*%
%TO.N,unconnected-(J1-Pin_3-Pad3)*%
X9398000Y17780000D03*
%TO.P,J1,4,Pin_4*%
%TO.N,VTH_B*%
X9398000Y15240000D03*
%TO.P,J1,5,Pin_5*%
%TO.N,TRIANGLE_B*%
X9398000Y12700000D03*
%TO.P,J1,6,Pin_6*%
%TO.N,CF_B*%
X9398000Y10160000D03*
%TO.P,J1,7,Pin_7*%
%TO.N,CV_B*%
X9398000Y7620000D03*
%TO.P,J1,8,Pin_8*%
%TO.N,IREF_B*%
X9398000Y5080000D03*
%TO.P,J1,9,Pin_9*%
%TO.N,VTC*%
X9398000Y2540000D03*
%TD*%
D22*
%TO.P,C17,1*%
%TO.N,+5V*%
X7388800Y20585200D03*
%TO.P,C17,2*%
%TO.N,GND*%
X6428800Y20585200D03*
%TD*%
D13*
%TO.P,Q11,1,B2*%
%TO.N,Net-(Q11A-B1)*%
X4888000Y6609600D03*
%TO.P,Q11,2,B1*%
X4238000Y6609600D03*
%TO.P,Q11,3,C1*%
%TO.N,Net-(Q11A-C1)*%
X3588000Y6609600D03*
%TO.P,Q11,4,E1*%
%TO.N,-5V*%
X3588000Y8509600D03*
%TO.P,Q11,5,E2*%
X4238000Y8509600D03*
%TO.P,Q11,6,C2*%
%TO.N,Net-(Q11A-B1)*%
X4888000Y8509600D03*
%TD*%
D23*
%TO.P,U6,1*%
%TO.N,Net-(C18-Pad2)*%
X4146550Y15609222D03*
%TO.P,U6,2,-*%
%TO.N,Net-(Q14A-C1)*%
X4146550Y16109348D03*
%TO.P,U6,3,+*%
%TO.N,GND*%
X4146550Y16609474D03*
%TO.P,U6,4,V+*%
%TO.N,+12V*%
X4146550Y17109600D03*
%TO.P,U6,5,+*%
%TO.N,Net-(D1B-K)*%
X4146550Y17609726D03*
%TO.P,U6,6,-*%
%TO.N,TRIANGLE_B*%
X4146550Y18109852D03*
%TO.P,U6,7*%
X4146550Y18609978D03*
%TO.P,U6,8*%
%TO.N,SAWTOOTH_B*%
X7029450Y18609978D03*
%TO.P,U6,9,-*%
%TO.N,Net-(U6C--)*%
X7029450Y18109852D03*
%TO.P,U6,10,+*%
%TO.N,Net-(U6C-+)*%
X7029450Y17609726D03*
%TO.P,U6,11,V-*%
%TO.N,-5V*%
X7029450Y17109600D03*
%TO.P,U6,12,+*%
%TO.N,Net-(U6D-+)*%
X7029450Y16609474D03*
%TO.P,U6,13,-*%
%TO.N,Net-(U6D--)*%
X7029450Y16109348D03*
%TO.P,U6,14*%
%TO.N,Net-(D1A-K)*%
X7029450Y15609222D03*
%TD*%
D24*
%TO.N,+12V*%
X5613194Y16237387D03*
X1115200Y13411200D03*
X3311560Y10714202D03*
X4923700Y7719600D03*
X10248474Y13990074D03*
X7422723Y10724877D03*
%TO.N,GND*%
X10293200Y14745876D03*
X1115200Y14484600D03*
X3350430Y7399600D03*
X1748720Y18796123D03*
X4218000Y1409600D03*
X10273443Y23837043D03*
X10304347Y16803287D03*
X10007600Y584200D03*
X10187998Y11939600D03*
X886600Y24260702D03*
X6353796Y24844996D03*
X965212Y22301200D03*
X10151962Y3137969D03*
X5882492Y15429600D03*
X4411340Y14927961D03*
X5423146Y22968932D03*
X10157600Y6208800D03*
X1161523Y17041094D03*
X5977733Y21830233D03*
X7328000Y1399600D03*
X10010000Y21540000D03*
%TO.N,-5V*%
X8572351Y22365703D03*
X4148778Y7388902D03*
X4118500Y4730298D03*
X5440793Y18143626D03*
%TO.N,+5V*%
X10298000Y15827404D03*
X8304228Y21094527D03*
X2585572Y24513400D03*
X5359400Y24841200D03*
X1161500Y15989353D03*
X10617200Y1422400D03*
%TO.N,Net-(Q10A-E1)*%
X8078000Y12599600D03*
%TO.N,SAWTOOTH_A*%
X2815796Y18996800D03*
%TO.N,SYNC_A*%
X2849008Y6521558D03*
%TO.N,TRIANGLE_A*%
X5183317Y19203823D03*
X965200Y20878800D03*
%TO.N,Net-(Q15A-C1)*%
X2933698Y584200D03*
X5894747Y12594755D03*
X2565400Y11506200D03*
%TO.N,TRIANGLE_B*%
X10007600Y19047600D03*
X4114800Y20534400D03*
%TO.N,Net-(C9-Pad2)*%
X6589631Y12895574D03*
X1070300Y11526249D03*
%TO.N,Net-(Q14A-C1)*%
X6558355Y1641714D03*
X10210800Y8178800D03*
%TO.N,Net-(C18-Pad2)*%
X10278000Y13189596D03*
%TO.N,Net-(Q14A-E1)*%
X8331200Y7224800D03*
%TO.N,Net-(Q15B-C2)*%
X5858743Y1328857D03*
%TO.N,Net-(Q15A-E1)*%
X2585629Y1904836D03*
%TO.N,Net-(R4-Pad1)*%
X5136000Y21170070D03*
%TO.N,Net-(U6D--)*%
X8607941Y19224066D03*
%TO.N,Net-(D1A-K)*%
X7873994Y14713000D03*
X5560200Y10553897D03*
X7311075Y12604986D03*
%TO.N,Net-(R5-Pad2)*%
X4657904Y24516258D03*
%TO.N,Net-(U6D-+)*%
X8716784Y17092322D03*
%TO.N,Net-(D1B-K)*%
X5567992Y9669600D03*
X5691644Y17041638D03*
X6350000Y7580400D03*
%TO.N,Net-(D1A-A)*%
X3710061Y12594200D03*
%TO.N,Net-(U5B--)*%
X3288391Y19587923D03*
%TO.N,Net-(U6C-+)*%
X8338335Y24835281D03*
%TO.N,Net-(U5A--)*%
X5638798Y23774400D03*
%TD*%
D25*
%TO.N,TRIANGLE_A*%
X3819391Y19915409D02*
X3819391Y19278031D01*
X3338000Y23759600D02*
X2852844Y23274444D01*
X2852844Y23274444D02*
X2852844Y20881956D01*
X2852844Y20881956D02*
X3819391Y19915409D01*
X3338000Y23800000D02*
X3338000Y23759600D01*
%TO.N,Net-(U5A--)*%
X5998000Y22723448D02*
X5998000Y23415198D01*
X5998000Y23415198D02*
X5638798Y23774400D01*
X5397000Y22122448D02*
X5998000Y22723448D01*
X5397000Y21660018D02*
X5397000Y22122448D01*
X5667000Y21390018D02*
X5397000Y21660018D01*
X5667000Y20854351D02*
X5667000Y21390018D01*
X5437449Y20624800D02*
X5667000Y20854351D01*
X4914551Y20624800D02*
X5437449Y20624800D01*
X4338000Y21900000D02*
X4419600Y21818400D01*
X4419600Y21818400D02*
X4419600Y21119751D01*
X4419600Y21119751D02*
X4914551Y20624800D01*
%TO.N,+12V*%
X4740981Y17109600D02*
X5613194Y16237387D01*
X4238000Y11509600D02*
X3588000Y11509600D01*
X9398000Y22860000D02*
X8380500Y23877500D01*
X3588000Y11509600D02*
X3588000Y10990642D01*
X5298400Y14387600D02*
X5298400Y15922593D01*
X3588000Y10990642D02*
X3311560Y10714202D01*
X7738000Y23877500D02*
X7738000Y24418400D01*
X7738000Y24418400D02*
X7559000Y24597400D01*
X7559000Y24597400D02*
X7559000Y25000000D01*
X8380500Y23877500D02*
X7738000Y23877500D01*
X4146550Y17109600D02*
X4740981Y17109600D01*
X5298400Y15922593D02*
X5613194Y16237387D01*
%TO.N,GND*%
X3738000Y22850000D02*
X3338000Y22450000D01*
X6438000Y21822500D02*
X5985466Y21822500D01*
X9418200Y533400D02*
X9956800Y533400D01*
X6438000Y21822500D02*
X6438000Y20594400D01*
X4658400Y14680901D02*
X4411340Y14927961D01*
X5985466Y21822500D02*
X5977733Y21830233D01*
X3363000Y24900000D02*
X3218600Y25044400D01*
X4658400Y14438400D02*
X4658400Y14680901D01*
X6938000Y1009600D02*
X7328000Y1399600D01*
X4762500Y15279121D02*
X4411340Y14927961D01*
X6938000Y609600D02*
X6938000Y1009600D01*
X5979200Y15332892D02*
X5882492Y15429600D01*
X5304214Y22850000D02*
X4088000Y22850000D01*
X5423146Y22968932D02*
X5304214Y22850000D01*
X9956800Y533400D02*
X10007600Y584200D01*
X4686300Y16609474D02*
X4762500Y16533274D01*
X6438000Y20594400D02*
X6428800Y20585200D01*
X4762500Y16533274D02*
X4762500Y15279121D01*
X3218600Y25044400D02*
X1670298Y25044400D01*
X4146550Y16609474D02*
X4686300Y16609474D01*
X4238000Y1389600D02*
X4218000Y1409600D01*
X4238000Y609600D02*
X4238000Y1389600D01*
X6438000Y22592400D02*
X6438000Y21822500D01*
X3338000Y22450000D02*
X3338000Y21900000D01*
X5885400Y15426692D02*
X5882492Y15429600D01*
X5882492Y15354502D02*
X5882492Y15429600D01*
X1670298Y25044400D02*
X886600Y24260702D01*
X6508800Y25000000D02*
X6353796Y24844996D01*
X5979200Y14387600D02*
X5979200Y15332892D01*
X6919000Y25000000D02*
X6508800Y25000000D01*
X5885400Y15350820D02*
X5885400Y15426692D01*
X9418200Y544600D02*
X9443600Y519200D01*
%TO.N,-5V*%
X4148778Y7388902D02*
X4238000Y7478124D01*
X6430450Y17050350D02*
X6413500Y17033400D01*
X4238000Y8509600D02*
X3588000Y8509600D01*
X6413500Y15066989D02*
X6619200Y14861289D01*
X6430450Y17050350D02*
X6489700Y17109600D01*
X4238000Y7478124D02*
X4238000Y8509600D01*
X6430450Y17050350D02*
X6430450Y17153969D01*
X6430450Y17153969D02*
X5440793Y18143626D01*
X6489700Y17109600D02*
X7029450Y17109600D01*
X6619200Y14861289D02*
X6619200Y14387600D01*
X6413500Y17033400D02*
X6413500Y15066989D01*
%TO.N,+5V*%
X7279600Y20709600D02*
X7378600Y20610600D01*
X4838000Y23888000D02*
X5359400Y24409400D01*
X4003000Y24900000D02*
X4149758Y25046758D01*
X5359400Y24409400D02*
X5359400Y24841200D01*
X7993473Y21094527D02*
X8304228Y21094527D01*
X7738000Y21350000D02*
X7993473Y21094527D01*
X7910701Y20701000D02*
X7504600Y20701000D01*
X7504600Y20701000D02*
X7388800Y20585200D01*
X7910701Y20701000D02*
X8304228Y21094527D01*
X7738000Y21822500D02*
X7738000Y21350000D01*
X5153842Y25046758D02*
X5359400Y24841200D01*
X4149758Y25046758D02*
X5153842Y25046758D01*
%TO.N,VTC*%
X8768200Y544600D02*
X8768200Y1819800D01*
X8768200Y1819800D02*
X9398000Y2449600D01*
%TO.N,Net-(Q10A-E1)*%
X8321400Y10343000D02*
X8321400Y12356200D01*
X6938000Y9609600D02*
X6288000Y9609600D01*
X7588000Y9609600D02*
X8321400Y10343000D01*
X6938000Y8509600D02*
X6288000Y8509600D01*
X7588000Y9609600D02*
X6938000Y9609600D01*
X6938000Y8509600D02*
X6938000Y9609600D01*
X8321400Y12356200D02*
X8078000Y12599600D01*
%TO.N,SAWTOOTH_A*%
X2815796Y19179856D02*
X2815796Y18996800D01*
X1778000Y19975600D02*
X2020052Y19975600D01*
X2020052Y19975600D02*
X2815796Y19179856D01*
%TO.N,SYNC_A*%
X2009551Y10995249D02*
X688997Y10995249D01*
X539800Y11144446D02*
X539800Y17253000D01*
X688997Y10995249D02*
X539800Y11144446D01*
X539800Y17253000D02*
X976400Y17689600D01*
X2463800Y10541000D02*
X2009551Y10995249D01*
X2463800Y10439400D02*
X2463800Y10541000D01*
X2849008Y6521558D02*
X2514600Y6855966D01*
X2514600Y6855966D02*
X2514600Y10388600D01*
X2514600Y10388600D02*
X2463800Y10439400D01*
X976400Y17689600D02*
X1778000Y17689600D01*
%TO.N,TRIANGLE_A*%
X3893599Y19203823D02*
X5183317Y19203823D01*
X965200Y20000690D02*
X1484090Y19481800D01*
X965200Y20788400D02*
X965200Y20000690D01*
X1778000Y12609600D02*
X2924200Y13755800D01*
X2571800Y18465800D02*
X3048000Y18465800D01*
X1484090Y19481800D02*
X1955800Y19481800D01*
X3819391Y19237191D02*
X3819391Y19278031D01*
X2279220Y18758380D02*
X2571800Y18465800D01*
X2924200Y13755800D02*
X2924200Y18458759D01*
X3819391Y19278031D02*
X3893599Y19203823D01*
X1955800Y19481800D02*
X2279220Y19158380D01*
X2279220Y19158380D02*
X2279220Y18758380D01*
X3048000Y18465800D02*
X3819391Y19237191D01*
%TO.N,CV_A*%
X863600Y2094000D02*
X863600Y6615200D01*
X4888000Y609600D02*
X4888000Y1490548D01*
X863600Y6615200D02*
X1778000Y7529600D01*
X4888000Y1490548D02*
X4437948Y1940600D01*
X1625600Y1332000D02*
X863600Y2094000D01*
X3408888Y1940600D02*
X2800288Y1332000D01*
X4437948Y1940600D02*
X3408888Y1940600D01*
X2800288Y1332000D02*
X1625600Y1332000D01*
%TO.N,SAWTOOTH_B*%
X7029450Y18840450D02*
X7279600Y19090600D01*
X7279600Y19090600D02*
X7279600Y19874000D01*
X7279600Y19874000D02*
X7620000Y19874000D01*
X7029450Y18609978D02*
X7029450Y18840450D01*
X7620000Y19874000D02*
X7975600Y20229600D01*
X7975600Y20229600D02*
X9398000Y20229600D01*
%TO.N,Net-(Q15A-C1)*%
X3930009Y13125200D02*
X3490113Y13125200D01*
X5894747Y12594755D02*
X5673874Y12815628D01*
X3490113Y13125200D02*
X3179061Y12814148D01*
X2565400Y11900252D02*
X2565400Y11506200D01*
X3179061Y12513913D02*
X2565400Y11900252D01*
X2959098Y609600D02*
X3588000Y609600D01*
X3179061Y12814148D02*
X3179061Y12513913D01*
X5673874Y12815628D02*
X4239581Y12815628D01*
X4239581Y12815628D02*
X3930009Y13125200D01*
X2933698Y584200D02*
X2959098Y609600D01*
%TO.N,TRIANGLE_B*%
X4114800Y21158200D02*
X4114800Y20534400D01*
X5220845Y18674626D02*
X5553974Y18674626D01*
X10458948Y12609600D02*
X10845800Y12996452D01*
X4146550Y18109852D02*
X4146550Y18609978D01*
X9398000Y12609600D02*
X10458948Y12609600D01*
X3838000Y21435000D02*
X4114800Y21158200D01*
X5553974Y18674626D02*
X5809000Y18929652D01*
X5318800Y19874000D02*
X4775200Y19874000D01*
X3838000Y21900000D02*
X3838000Y21435000D01*
X4033200Y20616000D02*
X4114800Y20534400D01*
X4146550Y18609978D02*
X5156197Y18609978D01*
X5809000Y19329089D02*
X5318800Y19819289D01*
X5809000Y18929652D02*
X5809000Y19329089D01*
X5156197Y18609978D02*
X5220845Y18674626D01*
X4775200Y19874000D02*
X4033200Y20616000D01*
X10845800Y18209400D02*
X10007600Y19047600D01*
X10845800Y12996452D02*
X10845800Y18209400D01*
%TO.N,CV_B*%
X8061800Y4570148D02*
X8321400Y4829748D01*
X8061800Y1151800D02*
X8061800Y4570148D01*
X8321400Y4829748D02*
X8321400Y6453000D01*
X7588000Y678000D02*
X8061800Y1151800D01*
X8321400Y6453000D02*
X9398000Y7529600D01*
%TO.N,Net-(C9-Pad2)*%
X4056261Y13430000D02*
X4245661Y13240600D01*
X4245661Y13240600D02*
X6244605Y13240600D01*
X1070300Y11526249D02*
X1760345Y11526249D01*
X1760345Y11526249D02*
X2874261Y12640165D01*
X2874261Y12940400D02*
X3363861Y13430000D01*
X3363861Y13430000D02*
X4056261Y13430000D01*
X2874261Y12640165D02*
X2874261Y12940400D01*
X6244605Y13240600D02*
X6589631Y12895574D01*
%TO.N,Net-(Q14A-C1)*%
X6367335Y688935D02*
X6367335Y1089189D01*
X4371913Y13545400D02*
X6864037Y13545400D01*
X3229000Y14543089D02*
X4037289Y13734800D01*
X3229000Y15533800D02*
X3229000Y14543089D01*
X8661400Y9728200D02*
X10210800Y8178800D01*
X6864037Y13545400D02*
X7023637Y13385800D01*
X6558355Y1280209D02*
X6558355Y1641714D01*
X4037289Y13734800D02*
X4182513Y13734800D01*
X6367335Y1089189D02*
X6558355Y1280209D01*
X8092180Y13385800D02*
X8661400Y12816580D01*
X4146550Y16109348D02*
X3804548Y16109348D01*
X3804548Y16109348D02*
X3229000Y15533800D01*
X8661400Y12816580D02*
X8661400Y9728200D01*
X4182513Y13734800D02*
X4371913Y13545400D01*
X7023637Y13385800D02*
X8092180Y13385800D01*
%TO.N,Net-(C18-Pad2)*%
X4498165Y13850200D02*
X6990289Y13850200D01*
X4146550Y15609222D02*
X4146550Y15424150D01*
X3657600Y14861953D02*
X3891753Y14627800D01*
X6990289Y13850200D02*
X7129889Y13710600D01*
X3891753Y14627800D02*
X3893711Y14627800D01*
X4086200Y14262165D02*
X4498165Y13850200D01*
X4146550Y15424150D02*
X3657600Y14935200D01*
X4086200Y14435311D02*
X4086200Y14262165D01*
X7129889Y13710600D02*
X9756996Y13710600D01*
X3893711Y14627800D02*
X4086200Y14435311D01*
X3657600Y14935200D02*
X3657600Y14861953D01*
X9756996Y13710600D02*
X10278000Y13189596D01*
%TO.N,Net-(Q11A-B1)*%
X4238000Y5509600D02*
X4238000Y6609600D01*
X5454200Y7175800D02*
X4888000Y6609600D01*
X4888000Y8509600D02*
X5454200Y7943400D01*
X5454200Y7943400D02*
X5454200Y7175800D01*
X4238000Y6609600D02*
X4888000Y6609600D01*
%TO.N,Net-(Q10A-B1)*%
X6938000Y6609600D02*
X7588000Y6609600D01*
X7588000Y6609600D02*
X7588000Y8509600D01*
X6938000Y5509600D02*
X6938000Y6609600D01*
%TO.N,Net-(Q10A-C1)*%
X6288000Y5509600D02*
X6288000Y6609600D01*
%TO.N,Net-(Q12A-B1)*%
X7588000Y2509600D02*
X7588000Y3609600D01*
X6938000Y3609600D02*
X6288000Y3609600D01*
X7588000Y3609600D02*
X6938000Y3609600D01*
%TO.N,Net-(Q14A-E1)*%
X8331200Y7224800D02*
X8016600Y6910200D01*
X5859400Y4163200D02*
X5859400Y2938200D01*
X8016600Y6910200D02*
X8016600Y4956000D01*
X5859400Y2938200D02*
X6288000Y2509600D01*
X7223800Y4163200D02*
X5859400Y4163200D01*
X8016600Y4956000D02*
X7223800Y4163200D01*
X6938000Y2509600D02*
X6288000Y2509600D01*
%TO.N,Net-(Q15B-C2)*%
X5858743Y1328857D02*
X5845143Y1328857D01*
X5845143Y1328857D02*
X4888000Y2286000D01*
%TO.N,Net-(Q8A-E1)*%
X2768600Y10932097D02*
X3159400Y11322897D01*
X2768600Y10565652D02*
X2768600Y10932097D01*
X2819400Y10435541D02*
X2819400Y10514852D01*
X5796198Y11509600D02*
X6288000Y11509600D01*
X2819400Y10514852D02*
X2768600Y10565652D01*
X3159400Y11322897D02*
X3159400Y12063200D01*
X5242598Y12063200D02*
X5796198Y11509600D01*
X3159400Y12063200D02*
X5242598Y12063200D01*
X3520341Y9734600D02*
X2819400Y10435541D01*
%TO.N,Net-(Q8B-E2)*%
X4888000Y11509600D02*
X4888000Y10959600D01*
X4888000Y10959600D02*
X4805394Y10876994D01*
X5365146Y11509600D02*
X4888000Y11509600D01*
X4238000Y9609600D02*
X4888000Y9609600D01*
X4805394Y10876994D02*
X4805394Y9692206D01*
X6861800Y10956000D02*
X5918746Y10956000D01*
X6938000Y11032200D02*
X6861800Y10956000D01*
X5918746Y10956000D02*
X5365146Y11509600D01*
X6938000Y11509600D02*
X6938000Y11032200D01*
%TO.N,Net-(Q11A-C1)*%
X3588000Y5509600D02*
X3588000Y6609600D01*
%TO.N,Net-(Q12B-C2)*%
X4888000Y3609600D02*
X4238000Y3609600D01*
X7511800Y4956000D02*
X7588000Y5032200D01*
X4238000Y3609600D02*
X3588000Y3609600D01*
X4888000Y3734600D02*
X6109400Y4956000D01*
X7588000Y5032200D02*
X7588000Y5509600D01*
X6109400Y4956000D02*
X7511800Y4956000D01*
%TO.N,Net-(Q15A-E1)*%
X4238000Y2509600D02*
X3588000Y2509600D01*
X3588000Y2509600D02*
X3190393Y2509600D01*
X3190393Y2509600D02*
X2585629Y1904836D01*
%TO.N,Net-(R4-Pad1)*%
X4838000Y21468070D02*
X5136000Y21170070D01*
X4838000Y21900000D02*
X4838000Y21468070D01*
%TO.N,Net-(U6D--)*%
X8859458Y16109348D02*
X10134600Y17384490D01*
X8432800Y16109348D02*
X8859458Y16109348D01*
X7029450Y16109348D02*
X8432800Y16109348D01*
X10134600Y18085110D02*
X9703110Y18516600D01*
X8190354Y14159600D02*
X8432800Y14402046D01*
X8432800Y14402046D02*
X8432800Y16109348D01*
X9703110Y18516600D02*
X9612710Y18516600D01*
X9612710Y18516600D02*
X8905244Y19224066D01*
X10134600Y17384490D02*
X10134600Y18085110D01*
X8905244Y19224066D02*
X8607941Y19224066D01*
X7406000Y14159600D02*
X8190354Y14159600D01*
%TO.N,Net-(D1A-K)*%
X7462200Y14713000D02*
X7873994Y14713000D01*
X7029450Y15145750D02*
X7366000Y14809200D01*
X5950897Y10163200D02*
X7612000Y10163200D01*
X5560200Y10553897D02*
X5950897Y10163200D01*
X7852861Y12063200D02*
X7311075Y12604986D01*
X7612000Y10163200D02*
X8016600Y10567800D01*
X8016600Y12063200D02*
X7852861Y12063200D01*
X7029450Y15609222D02*
X7029450Y15145750D01*
X8016600Y10567800D02*
X8016600Y12063200D01*
%TO.N,Net-(R5-Pad2)*%
X4338000Y24196354D02*
X4338000Y23800000D01*
X4657904Y24516258D02*
X4338000Y24196354D01*
%TO.N,Net-(U6D-+)*%
X8233936Y16609474D02*
X7029450Y16609474D01*
X8716784Y17092322D02*
X8233936Y16609474D01*
%TO.N,Net-(D1B-K)*%
X5798000Y7580400D02*
X5778000Y7600400D01*
X5691644Y17041638D02*
X5123556Y17609726D01*
X5123556Y17609726D02*
X4146550Y17609726D01*
X5778000Y9459592D02*
X5567992Y9669600D01*
X5778000Y7600400D02*
X5778000Y9459592D01*
X6350000Y7580400D02*
X5798000Y7580400D01*
X5778000Y6449600D02*
X4888000Y5559600D01*
X5778000Y7560400D02*
X5778000Y6449600D01*
%TO.N,Net-(D1A-A)*%
X7588000Y11509600D02*
X7588000Y11841800D01*
X5230553Y12508000D02*
X3796261Y12508000D01*
X5675313Y12063240D02*
X5230553Y12508000D01*
X7588000Y11841800D02*
X7366560Y12063240D01*
X7366560Y12063240D02*
X5675313Y12063240D01*
X3796261Y12508000D02*
X3710061Y12594200D01*
%TO.N,Net-(U6C--)*%
X7029450Y18109852D02*
X6489700Y18109852D01*
X6413500Y19647900D02*
X6639600Y19874000D01*
X6413500Y18186052D02*
X6413500Y19647900D01*
X5958800Y19874000D02*
X6639600Y19874000D01*
X6489700Y18109852D02*
X6413500Y18186052D01*
%TO.N,Net-(U5B--)*%
X2548044Y23710044D02*
X2548044Y20328270D01*
X3142815Y24304815D02*
X2548044Y23710044D01*
X3838000Y23800000D02*
X3838000Y24267511D01*
X3800696Y24304815D02*
X3142815Y24304815D01*
X2548044Y20328270D02*
X3288391Y19587923D01*
X3838000Y24267511D02*
X3800696Y24304815D01*
%TO.N,Net-(U6C-+)*%
X8387993Y19755066D02*
X7645400Y19012473D01*
X8827889Y19755066D02*
X8387993Y19755066D01*
X9089955Y19493000D02*
X8827889Y19755066D01*
X10026168Y24835281D02*
X10844200Y24017249D01*
X10844200Y24017249D02*
X10844200Y20634090D01*
X8338335Y24835281D02*
X10026168Y24835281D01*
X10844200Y20634090D02*
X9703110Y19493000D01*
X9703110Y19493000D02*
X9089955Y19493000D01*
X7645400Y19012473D02*
X7645400Y17685926D01*
X7569200Y17609726D02*
X7029450Y17609726D01*
X7645400Y17685926D02*
X7569200Y17609726D01*
%TD*%
%TA.AperFunction,Conductor*%
%TO.N,Net-(D1A-K)*%
G36*
X7626303Y14857881D02*
G01*
X7857639Y14723110D01*
X7863062Y14715984D01*
X7861859Y14707110D01*
X7857639Y14702890D01*
X7626303Y14568120D01*
X7617429Y14566917D01*
X7611222Y14570990D01*
X7604272Y14579813D01*
X7604271Y14579814D01*
X7581592Y14599259D01*
X7550007Y14617675D01*
X7510032Y14631409D01*
X7510022Y14631411D01*
X7472590Y14635630D01*
X7464752Y14639962D01*
X7462200Y14647256D01*
X7462200Y14778746D01*
X7465627Y14787019D01*
X7472587Y14790372D01*
X7510032Y14794592D01*
X7540300Y14829558D01*
X7548307Y14833570D01*
X7549147Y14833600D01*
X7581594Y14833600D01*
X7581595Y14833600D01*
X7604273Y14846190D01*
X7611222Y14855012D01*
X7619034Y14859389D01*
X7626303Y14857881D01*
G37*
%TD.AperFunction*%
%TD*%
%TA.AperFunction,Conductor*%
%TO.N,Net-(Q15A-E1)*%
G36*
X2967441Y2378339D02*
G01*
X3059130Y2286650D01*
X3062557Y2278377D01*
X3059366Y2270347D01*
X2997254Y2204533D01*
X2940296Y2135070D01*
X2940290Y2135062D01*
X2898877Y2072790D01*
X2875601Y2020287D01*
X2875599Y2020281D01*
X2873585Y1988548D01*
X2869641Y1980508D01*
X2864893Y1977976D01*
X2604340Y1909252D01*
X2595466Y1910455D01*
X2590043Y1917581D01*
X2590043Y1923545D01*
X2658768Y2184104D01*
X2664191Y2191229D01*
X2669339Y2192795D01*
X2673417Y2193054D01*
X2701071Y2194810D01*
X2701073Y2194811D01*
X2701076Y2194811D01*
X2753581Y2218088D01*
X2815851Y2259498D01*
X2815852Y2259500D01*
X2815855Y2259501D01*
X2885322Y2316460D01*
X2951141Y2378577D01*
X2959506Y2381761D01*
X2967441Y2378339D01*
G37*
%TD.AperFunction*%
%TD*%
%TA.AperFunction,Conductor*%
%TO.N,Net-(Q15A-C1)*%
G36*
X3071234Y787608D02*
G01*
X3075348Y786426D01*
X3124200Y762000D01*
X3175000Y736600D01*
X3175003Y736599D01*
X3247632Y711200D01*
X3311226Y685800D01*
X3311227Y685800D01*
X3378960Y685800D01*
X3387233Y682373D01*
X3390660Y674100D01*
X3390660Y546083D01*
X3387233Y537810D01*
X3378960Y534383D01*
X3378019Y534421D01*
X3294291Y541178D01*
X3293580Y541280D01*
X3210001Y558520D01*
X3209744Y558579D01*
X3140309Y576287D01*
X3140308Y576288D01*
X3140301Y576289D01*
X3105171Y582238D01*
X3087026Y585311D01*
X3087025Y585311D01*
X3087024Y585311D01*
X3059033Y578296D01*
X3050175Y579609D01*
X3047132Y582238D01*
X2880619Y785854D01*
X2878034Y794428D01*
X2882269Y802318D01*
X2890791Y804908D01*
X3071234Y787608D01*
G37*
%TD.AperFunction*%
%TD*%
%TA.AperFunction,Conductor*%
%TO.N,Net-(U5A--)*%
G36*
X5664658Y23832179D02*
G01*
X5903838Y23703763D01*
X5909506Y23696831D01*
X5910000Y23693777D01*
X5910854Y23662707D01*
X5910854Y23662706D01*
X5936890Y23610015D01*
X5973260Y23542408D01*
X5973559Y23541760D01*
X6005489Y23459818D01*
X6006172Y23457208D01*
X6017928Y23374044D01*
X6015693Y23365372D01*
X6007981Y23360821D01*
X6004977Y23360786D01*
X5948367Y23367440D01*
X5940599Y23371749D01*
X5892801Y23431464D01*
X5892800Y23431465D01*
X5806228Y23483366D01*
X5750143Y23517163D01*
X5750140Y23517165D01*
X5695543Y23535305D01*
X5695541Y23535306D01*
X5695539Y23535306D01*
X5666136Y23538998D01*
X5658356Y23543428D01*
X5655901Y23550239D01*
X5647430Y23821508D01*
X5650597Y23829882D01*
X5658759Y23833565D01*
X5664658Y23832179D01*
G37*
%TD.AperFunction*%
%TD*%
%TA.AperFunction,Conductor*%
%TO.N,GND*%
G36*
X5148228Y23060893D02*
G01*
X5404914Y22975342D01*
X5411680Y22969475D01*
X5412315Y22960543D01*
X5408976Y22955486D01*
X5205354Y22774997D01*
X5196890Y22772074D01*
X5192458Y22773240D01*
X5164875Y22786713D01*
X5108937Y22789766D01*
X5108934Y22789766D01*
X5108932Y22789766D01*
X5034698Y22784764D01*
X5034699Y22784764D01*
X4945213Y22777508D01*
X4855635Y22774243D01*
X4847243Y22777366D01*
X4843517Y22785509D01*
X4843509Y22785935D01*
X4843509Y22924438D01*
X4846936Y22932711D01*
X4855208Y22936138D01*
X4932997Y22935726D01*
X4935384Y22935713D01*
X4935385Y22935713D01*
X4935385Y22935714D01*
X4935386Y22935713D01*
X5013448Y22960241D01*
X5075181Y22993769D01*
X5118072Y23030283D01*
X5134692Y23056122D01*
X5142050Y23061226D01*
X5148228Y23060893D01*
G37*
%TD.AperFunction*%
%TD*%
%TA.AperFunction,Conductor*%
%TO.N,+5V*%
G36*
X4850334Y25121877D02*
G01*
X4875155Y25119761D01*
X4933800Y25114760D01*
X4934558Y25114645D01*
X5017757Y25096385D01*
X5018031Y25096318D01*
X5087156Y25077302D01*
X5140261Y25067049D01*
X5140261Y25067050D01*
X5140263Y25067049D01*
X5153076Y25069960D01*
X5168360Y25073431D01*
X5177186Y25071922D01*
X5180130Y25069277D01*
X5269071Y24956750D01*
X5332137Y24876958D01*
X5347947Y24856956D01*
X5350389Y24848341D01*
X5346023Y24840522D01*
X5340553Y24838138D01*
X5075607Y24797248D01*
X5066908Y24799373D01*
X5062796Y24804898D01*
X5053382Y24831424D01*
X5053378Y24831430D01*
X5047513Y24840522D01*
X5024011Y24876958D01*
X5024008Y24876962D01*
X4978131Y24922140D01*
X4978129Y24922141D01*
X4915944Y24956748D01*
X4915940Y24956750D01*
X4915939Y24956750D01*
X4847313Y24968853D01*
X4839761Y24973665D01*
X4837645Y24980375D01*
X4837645Y25110218D01*
X4841072Y25118491D01*
X4849345Y25121918D01*
X4850334Y25121877D01*
G37*
%TD.AperFunction*%
%TD*%
%TA.AperFunction,Conductor*%
%TO.N,Net-(R5-Pad2)*%
G36*
X4655324Y24502993D02*
G01*
X4656473Y24497050D01*
X4637438Y24228091D01*
X4633435Y24220080D01*
X4626716Y24217256D01*
X4596139Y24214767D01*
X4596135Y24214766D01*
X4538763Y24198867D01*
X4479445Y24167214D01*
X4479440Y24167211D01*
X4479440Y24167210D01*
X4419600Y24116632D01*
X4419600Y24116631D01*
X4419600Y24055666D01*
X4416173Y24047393D01*
X4407900Y24043966D01*
X4275457Y24043966D01*
X4267184Y24047393D01*
X4263757Y24055666D01*
X4263895Y24057461D01*
X4277171Y24142989D01*
X4278003Y24145859D01*
X4313505Y24227522D01*
X4313863Y24228212D01*
X4354761Y24295248D01*
X4384875Y24347626D01*
X4387614Y24379463D01*
X4391738Y24387410D01*
X4394151Y24388979D01*
X4639687Y24508399D01*
X4648623Y24508934D01*
X4655324Y24502993D01*
G37*
%TD.AperFunction*%
%TD*%
%TA.AperFunction,Conductor*%
%TO.N,Net-(U6D--)*%
G36*
X8867216Y19294060D02*
G01*
X8869874Y19291225D01*
X8885803Y19267249D01*
X8931413Y19238051D01*
X8931417Y19238049D01*
X8994460Y19203913D01*
X8994759Y19203740D01*
X9065740Y19159696D01*
X9068588Y19157209D01*
X9112588Y19103989D01*
X9115219Y19095429D01*
X9112769Y19089303D01*
X9040666Y18997595D01*
X9032858Y18993209D01*
X9024826Y18995194D01*
X8969373Y19033432D01*
X8969372Y19033433D01*
X8969371Y19033433D01*
X8906380Y19049965D01*
X8901431Y19051264D01*
X8901430Y19051264D01*
X8885443Y19050940D01*
X8837480Y19049965D01*
X8798749Y19040445D01*
X8784959Y19037055D01*
X8784957Y19037055D01*
X8784956Y19037054D01*
X8784955Y19037054D01*
X8759978Y19024441D01*
X8751048Y19023771D01*
X8745392Y19027802D01*
X8741109Y19033433D01*
X8582960Y19241363D01*
X8580680Y19250022D01*
X8585190Y19257757D01*
X8590700Y19260039D01*
X8858558Y19296345D01*
X8867216Y19294060D01*
G37*
%TD.AperFunction*%
%TD*%
%TA.AperFunction,Conductor*%
%TO.N,+5V*%
G36*
X9113216Y22263071D02*
G01*
X9161920Y22237509D01*
X9317752Y22199100D01*
X9317754Y22199100D01*
X9475200Y22199100D01*
X9523538Y22181507D01*
X9549258Y22136958D01*
X9550400Y22123900D01*
X9550400Y21548036D01*
X9550018Y21542689D01*
X9550018Y21537305D01*
X9550400Y21531964D01*
X9550400Y21056100D01*
X9532807Y21007762D01*
X9488258Y20982042D01*
X9475200Y20980900D01*
X9317752Y20980900D01*
X9239836Y20961696D01*
X9161918Y20942491D01*
X9161916Y20942490D01*
X9019811Y20867907D01*
X9019805Y20867903D01*
X8899684Y20761486D01*
X8899672Y20761473D01*
X8808506Y20629396D01*
X8808503Y20629389D01*
X8780438Y20555390D01*
X8746846Y20516432D01*
X8729272Y20509335D01*
X8660033Y20491106D01*
X8656307Y20490324D01*
X8538323Y20471742D01*
X8534536Y20471341D01*
X8402367Y20464071D01*
X8402365Y20464071D01*
X8394377Y20462137D01*
X8388913Y20460813D01*
X8371214Y20458700D01*
X7982575Y20458700D01*
X7980607Y20458752D01*
X7938962Y20460935D01*
X7938960Y20460935D01*
X7922478Y20454608D01*
X7871046Y20453713D01*
X7842358Y20471641D01*
X7828799Y20485200D01*
X7364000Y20485200D01*
X7315662Y20502793D01*
X7289942Y20547342D01*
X7288800Y20560400D01*
X7288800Y21055200D01*
X7488800Y21055200D01*
X7488800Y20685200D01*
X7828799Y20685200D01*
X7828799Y20799985D01*
X7825889Y20825076D01*
X7780585Y20927680D01*
X7780583Y20927683D01*
X7701282Y21006984D01*
X7701277Y21006987D01*
X7598674Y21052290D01*
X7598673Y21052291D01*
X7573591Y21055200D01*
X7488800Y21055200D01*
X7288800Y21055200D01*
X7204014Y21055200D01*
X7178924Y21052290D01*
X7069948Y21004172D01*
X7069316Y21005603D01*
X7027463Y20994855D01*
X6981072Y21017080D01*
X6959821Y21063925D01*
X6959600Y21069671D01*
X6959599Y21271901D01*
X6977194Y21320239D01*
X7021742Y21345959D01*
X7034791Y21347101D01*
X7185446Y21347101D01*
X7185448Y21347101D01*
X7185448Y21347102D01*
X7251922Y21360323D01*
X7327307Y21410693D01*
X7346204Y21438975D01*
X7387685Y21469391D01*
X7439015Y21466028D01*
X7471257Y21438974D01*
X7493573Y21405574D01*
X7571304Y21353637D01*
X7571309Y21353635D01*
X7638000Y21340369D01*
X7638000Y21340372D01*
X7837999Y21340372D01*
X7904693Y21353636D01*
X7982426Y21405574D01*
X8034363Y21483305D01*
X8034365Y21483310D01*
X8048000Y21551854D01*
X8048000Y21722500D01*
X7838000Y21722500D01*
X7837999Y21340372D01*
X7638000Y21340372D01*
X7638000Y21847300D01*
X7655593Y21895638D01*
X7700142Y21921358D01*
X7713200Y21922500D01*
X8047999Y21922500D01*
X8047999Y22074695D01*
X8065592Y22123033D01*
X8110141Y22148753D01*
X8160799Y22139820D01*
X8181122Y22120439D01*
X8181867Y22121083D01*
X8206681Y22092447D01*
X8271127Y22018072D01*
X8271129Y22018071D01*
X8271130Y22018070D01*
X8381267Y21947289D01*
X8465691Y21922500D01*
X8506889Y21910403D01*
X8506892Y21910403D01*
X8637810Y21910403D01*
X8637813Y21910403D01*
X8763434Y21947289D01*
X8873575Y22018072D01*
X8959312Y22117018D01*
X9009868Y22227722D01*
X9045952Y22264383D01*
X9097159Y22269273D01*
X9113216Y22263071D01*
G37*
%TD.AperFunction*%
%TD*%
%TA.AperFunction,Conductor*%
%TO.N,GND*%
G36*
X1276811Y24731110D02*
G01*
X1347955Y24642423D01*
X1350459Y24633825D01*
X1347338Y24627072D01*
X1284415Y24560399D01*
X1227457Y24490936D01*
X1227451Y24490928D01*
X1186038Y24428656D01*
X1162762Y24376153D01*
X1162760Y24376147D01*
X1160746Y24344414D01*
X1156802Y24336374D01*
X1152054Y24333842D01*
X891501Y24265118D01*
X882627Y24266321D01*
X877204Y24273447D01*
X877204Y24279411D01*
X945929Y24539970D01*
X951352Y24547095D01*
X956500Y24548661D01*
X960578Y24548920D01*
X988232Y24550676D01*
X988234Y24550677D01*
X988237Y24550677D01*
X1040742Y24573954D01*
X1103016Y24615367D01*
X1172305Y24672181D01*
X1172673Y24672457D01*
X1257693Y24731110D01*
X1261042Y24733421D01*
X1269797Y24735297D01*
X1276811Y24731110D01*
G37*
%TD.AperFunction*%
%TD*%
%TA.AperFunction,Conductor*%
%TO.N,GND*%
G36*
X9803165Y672101D02*
G01*
X9804400Y666869D01*
X9804400Y423283D01*
X9800973Y415010D01*
X9792700Y411583D01*
X9788592Y412328D01*
X9608792Y479753D01*
X9602249Y485867D01*
X9601200Y490708D01*
X9601200Y576969D01*
X9604627Y585242D01*
X9607668Y587434D01*
X9787468Y677334D01*
X9796400Y677969D01*
X9803165Y672101D01*
G37*
%TD.AperFunction*%
%TD*%
%TA.AperFunction,Conductor*%
%TO.N,SAWTOOTH_B*%
G36*
X8917118Y20425175D02*
G01*
X9362337Y20328002D01*
X9369688Y20322891D01*
X9371272Y20314077D01*
X9366160Y20306725D01*
X9364285Y20305749D01*
X8933453Y20128870D01*
X8924498Y20128898D01*
X8923609Y20129314D01*
X8892265Y20145622D01*
X8811184Y20154223D01*
X8695331Y20156077D01*
X8554879Y20154647D01*
X8411776Y20153495D01*
X8403476Y20156856D01*
X8399982Y20165101D01*
X8399982Y20294727D01*
X8403409Y20303000D01*
X8411037Y20306409D01*
X8553090Y20314221D01*
X8690666Y20335889D01*
X8802807Y20365413D01*
X8879612Y20397404D01*
X8906703Y20422351D01*
X8915109Y20425433D01*
X8917118Y20425175D01*
G37*
%TD.AperFunction*%
%TD*%
%TA.AperFunction,Conductor*%
%TO.N,TRIANGLE_A*%
G36*
X4934126Y19349578D02*
G01*
X4936409Y19348248D01*
X5166962Y19213933D01*
X5172385Y19206807D01*
X5171182Y19197933D01*
X5166962Y19193713D01*
X4934128Y19058070D01*
X4925254Y19056867D01*
X4920508Y19059398D01*
X4896640Y19080416D01*
X4896638Y19080417D01*
X4896639Y19080417D01*
X4843060Y19101081D01*
X4843054Y19101083D01*
X4769750Y19115832D01*
X4769729Y19115835D01*
X4680338Y19124678D01*
X4589879Y19127295D01*
X4581708Y19130960D01*
X4578517Y19138990D01*
X4578517Y19268657D01*
X4581944Y19276930D01*
X4589878Y19280352D01*
X4680338Y19282970D01*
X4769736Y19291814D01*
X4843054Y19306565D01*
X4896640Y19327232D01*
X4920508Y19348249D01*
X4928979Y19351143D01*
X4934126Y19349578D01*
G37*
%TD.AperFunction*%
%TD*%
%TA.AperFunction,Conductor*%
%TO.N,SAWTOOTH_A*%
G36*
X1809187Y20301044D02*
G01*
X1818436Y20295341D01*
X2197402Y20061699D01*
X2202646Y20054441D01*
X2202935Y20052540D01*
X2205451Y20015802D01*
X2239494Y19939737D01*
X2300724Y19840620D01*
X2385185Y19728771D01*
X2443179Y19664886D01*
X2481455Y19622721D01*
X2484478Y19614293D01*
X2481065Y19606585D01*
X2389475Y19514995D01*
X2381202Y19511568D01*
X2372929Y19514995D01*
X2372912Y19515011D01*
X2271365Y19616963D01*
X2171013Y19716162D01*
X2085536Y19795188D01*
X2085534Y19795190D01*
X2020332Y19844936D01*
X2020331Y19844937D01*
X1986092Y19854773D01*
X1979087Y19860351D01*
X1978607Y19861322D01*
X1910910Y20015802D01*
X1792331Y20286390D01*
X1792150Y20295341D01*
X1798352Y20301800D01*
X1807305Y20301982D01*
X1809187Y20301044D01*
G37*
%TD.AperFunction*%
%TD*%
%TA.AperFunction,Conductor*%
%TO.N,GND*%
G36*
X6905430Y25072551D02*
G01*
X6909312Y25064481D01*
X6909330Y25063830D01*
X6909330Y24934049D01*
X6905903Y24925776D01*
X6899171Y24922451D01*
X6845731Y24915353D01*
X6823266Y24912369D01*
X6823265Y24912369D01*
X6751760Y24883338D01*
X6708505Y24772448D01*
X6702306Y24765986D01*
X6697605Y24765000D01*
X6659069Y24765000D01*
X6634679Y24744120D01*
X6626166Y24741343D01*
X6622905Y24742075D01*
X6369588Y24838598D01*
X6363078Y24844745D01*
X6362822Y24853696D01*
X6365441Y24857761D01*
X6560416Y25054586D01*
X6568673Y25058051D01*
X6572965Y25057257D01*
X6600352Y25046613D01*
X6654444Y25048734D01*
X6725620Y25059183D01*
X6811207Y25070717D01*
X6811614Y25070755D01*
X6896979Y25075512D01*
X6905430Y25072551D01*
G37*
%TD.AperFunction*%
%TD*%
%TA.AperFunction,Conductor*%
%TO.N,Net-(D1A-K)*%
G36*
X7590340Y12531847D02*
G01*
X7597466Y12526424D01*
X7599032Y12521278D01*
X7600827Y12492991D01*
X7601047Y12489538D01*
X7624323Y12437034D01*
X7665736Y12374763D01*
X7665742Y12374755D01*
X7722700Y12305291D01*
X7784812Y12239476D01*
X7787998Y12231108D01*
X7784576Y12223173D01*
X7692888Y12131485D01*
X7684615Y12128058D01*
X7676585Y12131249D01*
X7610770Y12193361D01*
X7541306Y12250319D01*
X7541298Y12250325D01*
X7479027Y12291738D01*
X7426523Y12315014D01*
X7423070Y12315234D01*
X7394784Y12317029D01*
X7386746Y12320972D01*
X7384214Y12325721D01*
X7371279Y12374760D01*
X7315490Y12586275D01*
X7316693Y12595148D01*
X7323819Y12600571D01*
X7329787Y12600571D01*
X7590340Y12531847D01*
G37*
%TD.AperFunction*%
%TD*%
%TA.AperFunction,Conductor*%
%TO.N,Net-(Q10A-E1)*%
G36*
X8094695Y12589361D02*
G01*
X8164854Y12542132D01*
X8318580Y12438646D01*
X8323529Y12431183D01*
X8323667Y12427581D01*
X8320248Y12398341D01*
X8336897Y12345341D01*
X8349741Y12311487D01*
X8362894Y12276822D01*
X8363046Y12276365D01*
X8386753Y12194019D01*
X8387142Y12192044D01*
X8396194Y12108581D01*
X8393679Y12099986D01*
X8385824Y12095687D01*
X8384562Y12095619D01*
X8255456Y12095619D01*
X8247183Y12099046D01*
X8244330Y12103700D01*
X8242260Y12110071D01*
X8242108Y12110646D01*
X8229799Y12170487D01*
X8213998Y12194019D01*
X8191414Y12227654D01*
X8141762Y12267996D01*
X8092583Y12292371D01*
X8092579Y12292373D01*
X8092576Y12292374D01*
X8081459Y12295165D01*
X8065128Y12299264D01*
X8057938Y12304602D01*
X8056310Y12311487D01*
X8076494Y12580530D01*
X8080530Y12588524D01*
X8089036Y12591322D01*
X8094695Y12589361D01*
G37*
%TD.AperFunction*%
%TD*%
%TA.AperFunction,Conductor*%
%TO.N,+12V*%
G36*
X5610740Y16224100D02*
G01*
X5611942Y16218167D01*
X5595262Y15948696D01*
X5591330Y15940651D01*
X5584646Y15937767D01*
X5554330Y15935004D01*
X5497590Y15918600D01*
X5497581Y15918597D01*
X5438989Y15886461D01*
X5438982Y15886456D01*
X5393128Y15835588D01*
X5376847Y15771786D01*
X5371481Y15764617D01*
X5365510Y15762979D01*
X5235815Y15762979D01*
X5227542Y15766406D01*
X5224115Y15774679D01*
X5224248Y15776439D01*
X5227929Y15800641D01*
X5237237Y15861816D01*
X5238031Y15864620D01*
X5272734Y15946359D01*
X5273080Y15947042D01*
X5312958Y16014211D01*
X5342156Y16066668D01*
X5344470Y16098335D01*
X5348491Y16106334D01*
X5350923Y16107953D01*
X5595055Y16229367D01*
X5603988Y16229982D01*
X5610740Y16224100D01*
G37*
%TD.AperFunction*%
%TD*%
%TA.AperFunction,Conductor*%
%TO.N,Net-(U6D-+)*%
G36*
X8706945Y17086705D02*
G01*
X8712368Y17079579D01*
X8712368Y17073611D01*
X8643644Y16813058D01*
X8638221Y16805932D01*
X8633072Y16804366D01*
X8601339Y16802352D01*
X8601333Y16802350D01*
X8548830Y16779074D01*
X8486558Y16737661D01*
X8486550Y16737655D01*
X8417087Y16680697D01*
X8351273Y16618585D01*
X8342905Y16615399D01*
X8334970Y16618821D01*
X8243281Y16710510D01*
X8239854Y16718783D01*
X8243043Y16726810D01*
X8305160Y16792629D01*
X8362119Y16862096D01*
X8403532Y16924370D01*
X8426809Y16976875D01*
X8426809Y16976878D01*
X8426810Y16976880D01*
X8428825Y17008611D01*
X8432769Y17016651D01*
X8437515Y17019183D01*
X8698074Y17087908D01*
X8706945Y17086705D01*
G37*
%TD.AperFunction*%
%TD*%
%TA.AperFunction,Conductor*%
%TO.N,GND*%
G36*
X6323918Y21967573D02*
G01*
X6326939Y21962357D01*
X6359177Y21843247D01*
X6429052Y21811434D01*
X6431858Y21809633D01*
X6487078Y21761793D01*
X6490602Y21756383D01*
X6509555Y21694638D01*
X6508707Y21685724D01*
X6501803Y21680020D01*
X6498370Y21679505D01*
X6368911Y21679505D01*
X6360638Y21682932D01*
X6358527Y21685815D01*
X6344958Y21711971D01*
X6344957Y21711970D01*
X6327026Y21649282D01*
X6321456Y21642271D01*
X6315777Y21640800D01*
X6252916Y21640800D01*
X6206176Y21632482D01*
X6206176Y21632481D01*
X6206173Y21632480D01*
X6186652Y21615074D01*
X6178197Y21612126D01*
X6170143Y21616009D01*
X6112917Y21680020D01*
X5987383Y21820439D01*
X5984424Y21828891D01*
X5988308Y21836960D01*
X5990313Y21838402D01*
X6220306Y21969465D01*
X6226099Y21971000D01*
X6315645Y21971000D01*
X6323918Y21967573D01*
G37*
%TD.AperFunction*%
%TD*%
%TA.AperFunction,Conductor*%
%TO.N,GND*%
G36*
X4833061Y15383879D02*
G01*
X4836488Y15375606D01*
X4836315Y15373600D01*
X4821260Y15287076D01*
X4820205Y15283864D01*
X4779965Y15203109D01*
X4779014Y15201527D01*
X4732128Y15135878D01*
X4696365Y15084103D01*
X4696365Y15084101D01*
X4690978Y15051230D01*
X4686258Y15043620D01*
X4683992Y15042347D01*
X4430036Y14934874D01*
X4421081Y14934806D01*
X4414701Y14941089D01*
X4413867Y14947104D01*
X4447227Y15212971D01*
X4451657Y15220751D01*
X4458561Y15223209D01*
X4490881Y15223965D01*
X4552068Y15236690D01*
X4615837Y15265354D01*
X4665983Y15314158D01*
X4683919Y15378737D01*
X4689436Y15385791D01*
X4695193Y15387306D01*
X4824788Y15387306D01*
X4833061Y15383879D01*
G37*
%TD.AperFunction*%
%TD*%
%TA.AperFunction,Conductor*%
%TO.N,VTC*%
G36*
X9382830Y2517084D02*
G01*
X9384495Y2508285D01*
X9383881Y2506269D01*
X9209363Y2076965D01*
X9203073Y2070591D01*
X9199141Y2069687D01*
X9154644Y2067337D01*
X9063046Y2039002D01*
X8961191Y1982142D01*
X8961184Y1982137D01*
X8878501Y1893823D01*
X8878500Y1893822D01*
X8878501Y1893822D01*
X8847652Y1782809D01*
X8846781Y1779676D01*
X8841264Y1772623D01*
X8835508Y1771109D01*
X8706355Y1771109D01*
X8698082Y1774536D01*
X8694655Y1782809D01*
X8694895Y1785169D01*
X8695504Y1788129D01*
X8724153Y1927268D01*
X8725547Y1930869D01*
X8800614Y2057424D01*
X8801949Y2059245D01*
X8890340Y2158139D01*
X8890521Y2158330D01*
X8960759Y2228194D01*
X8979269Y2264956D01*
X8983305Y2269476D01*
X9366634Y2520464D01*
X9375432Y2522128D01*
X9382830Y2517084D01*
G37*
%TD.AperFunction*%
%TD*%
%TA.AperFunction,Conductor*%
%TO.N,+5V*%
G36*
X5362974Y24827694D02*
G01*
X5366237Y24822593D01*
X5430411Y24620404D01*
X5448521Y24563348D01*
X5447757Y24554425D01*
X5446036Y24551949D01*
X5424956Y24528704D01*
X5424953Y24528699D01*
X5407217Y24472061D01*
X5386420Y24397525D01*
X5386174Y24396819D01*
X5351789Y24315457D01*
X5350396Y24313025D01*
X5299037Y24244048D01*
X5291348Y24239458D01*
X5282666Y24241651D01*
X5281380Y24242762D01*
X5189654Y24334488D01*
X5186227Y24342761D01*
X5187898Y24348788D01*
X5221692Y24405002D01*
X5226412Y24472999D01*
X5209278Y24536839D01*
X5182221Y24588415D01*
X5163442Y24611808D01*
X5160935Y24620404D01*
X5163924Y24627020D01*
X5346445Y24826943D01*
X5354553Y24830741D01*
X5362974Y24827694D01*
G37*
%TD.AperFunction*%
%TD*%
%TA.AperFunction,Conductor*%
%TO.N,TRIANGLE_B*%
G36*
X4394065Y20461261D02*
G01*
X4401191Y20455838D01*
X4402757Y20450692D01*
X4404552Y20422405D01*
X4404772Y20418952D01*
X4428048Y20366448D01*
X4469461Y20304177D01*
X4469467Y20304169D01*
X4526425Y20234705D01*
X4588537Y20168890D01*
X4591723Y20160522D01*
X4588301Y20152587D01*
X4496613Y20060899D01*
X4488340Y20057472D01*
X4480310Y20060663D01*
X4414495Y20122775D01*
X4345031Y20179733D01*
X4345023Y20179739D01*
X4282752Y20221152D01*
X4230248Y20244428D01*
X4226795Y20244648D01*
X4198509Y20246443D01*
X4190471Y20250386D01*
X4187939Y20255135D01*
X4175004Y20304174D01*
X4119215Y20515689D01*
X4120418Y20524562D01*
X4127544Y20529985D01*
X4133512Y20529985D01*
X4394065Y20461261D01*
G37*
%TD.AperFunction*%
%TD*%
%TA.AperFunction,Conductor*%
%TO.N,Net-(Q15A-C1)*%
G36*
X5394218Y12890619D02*
G01*
X5477173Y12882773D01*
X5478858Y12882487D01*
X5561292Y12862142D01*
X5561607Y12862053D01*
X5610946Y12846430D01*
X5630317Y12840296D01*
X5630320Y12840296D01*
X5630321Y12840295D01*
X5683261Y12827502D01*
X5711724Y12832658D01*
X5720474Y12830760D01*
X5723216Y12828101D01*
X5883809Y12610901D01*
X5885972Y12602211D01*
X5881357Y12594537D01*
X5875814Y12592331D01*
X5609208Y12559907D01*
X5600581Y12562310D01*
X5596620Y12568055D01*
X5588407Y12594537D01*
X5588313Y12594841D01*
X5561154Y12641820D01*
X5517787Y12688813D01*
X5507458Y12695055D01*
X5457963Y12724967D01*
X5390962Y12737629D01*
X5383469Y12742532D01*
X5381435Y12749125D01*
X5381435Y12878970D01*
X5384862Y12887243D01*
X5393135Y12890670D01*
X5394218Y12890619D01*
G37*
%TD.AperFunction*%
%TD*%
%TA.AperFunction,Conductor*%
%TO.N,GND*%
G36*
X4224334Y1397665D02*
G01*
X4228703Y1393588D01*
X4372006Y1165834D01*
X4373511Y1157007D01*
X4371219Y1152269D01*
X4351506Y1127769D01*
X4333759Y1073637D01*
X4292600Y939802D01*
X4292600Y939800D01*
X4313412Y913815D01*
X4315978Y906288D01*
X4314922Y848399D01*
X4314414Y820478D01*
X4314410Y820265D01*
X4310833Y812055D01*
X4302712Y808778D01*
X4173955Y808778D01*
X4165682Y812205D01*
X4162255Y820478D01*
X4162263Y820924D01*
X4165600Y908459D01*
X4165600Y990600D01*
X4127969Y1066933D01*
X4104484Y1118661D01*
X4082624Y1141191D01*
X4079322Y1149515D01*
X4080712Y1154870D01*
X4208493Y1392893D01*
X4215424Y1398559D01*
X4224334Y1397665D01*
G37*
%TD.AperFunction*%
%TD*%
%TA.AperFunction,Conductor*%
%TO.N,Net-(D1B-K)*%
G36*
X5583865Y9658304D02*
G01*
X5797663Y9492683D01*
X5802105Y9484908D01*
X5801940Y9480992D01*
X5795929Y9452831D01*
X5795929Y9452830D01*
X5806907Y9399830D01*
X5806907Y9399831D01*
X5826683Y9330938D01*
X5826765Y9330620D01*
X5845630Y9247633D01*
X5845753Y9246848D01*
X5853081Y9163543D01*
X5850392Y9155002D01*
X5842451Y9150863D01*
X5841426Y9150818D01*
X5711579Y9150818D01*
X5703306Y9154245D01*
X5700065Y9160442D01*
X5694502Y9191286D01*
X5687801Y9228450D01*
X5652747Y9289813D01*
X5652744Y9289816D01*
X5652742Y9289819D01*
X5607055Y9334843D01*
X5607053Y9334845D01*
X5561120Y9363490D01*
X5561117Y9363491D01*
X5534562Y9372545D01*
X5527838Y9378458D01*
X5526758Y9385293D01*
X5528860Y9399831D01*
X5565120Y9650730D01*
X5569695Y9658426D01*
X5578374Y9660635D01*
X5583865Y9658304D01*
G37*
%TD.AperFunction*%
%TD*%
%TA.AperFunction,Conductor*%
%TO.N,GND*%
G36*
X7317867Y1393566D02*
G01*
X7323758Y1386823D01*
X7324157Y1380849D01*
X7273104Y1118415D01*
X7268160Y1110948D01*
X7261090Y1108961D01*
X7226442Y1110530D01*
X7226433Y1110530D01*
X7160461Y1101905D01*
X7091148Y1077048D01*
X7036423Y1030389D01*
X7036422Y1030387D01*
X7016702Y964680D01*
X7011042Y957741D01*
X7005496Y956343D01*
X6876034Y956343D01*
X6867761Y959770D01*
X6864334Y968043D01*
X6864555Y970308D01*
X6882342Y1060457D01*
X6883708Y1064073D01*
X6931333Y1145796D01*
X6932572Y1147533D01*
X6988823Y1212902D01*
X6988822Y1212902D01*
X7033150Y1264465D01*
X7042766Y1298982D01*
X7048287Y1306030D01*
X7050290Y1306924D01*
X7308934Y1394169D01*
X7317867Y1393566D01*
G37*
%TD.AperFunction*%
%TD*%
%TA.AperFunction,Conductor*%
%TO.N,CV_A*%
G36*
X1762732Y7597368D02*
G01*
X1764083Y7588516D01*
X1763400Y7586530D01*
X1573997Y7163633D01*
X1567488Y7157483D01*
X1566413Y7157132D01*
X1531918Y7147674D01*
X1465883Y7098643D01*
X1465868Y7098630D01*
X1379344Y7020355D01*
X1278029Y6921685D01*
X1175925Y6819750D01*
X1167649Y6816330D01*
X1159386Y6819757D01*
X1067797Y6911346D01*
X1064370Y6919619D01*
X1067430Y6927508D01*
X1164339Y7033600D01*
X1164339Y7033599D01*
X1214299Y7098643D01*
X1249981Y7145097D01*
X1312522Y7243696D01*
X1347674Y7319354D01*
X1350660Y7356068D01*
X1354745Y7364031D01*
X1356255Y7365120D01*
X1746666Y7601323D01*
X1755518Y7602673D01*
X1762732Y7597368D01*
G37*
%TD.AperFunction*%
%TD*%
%TA.AperFunction,Conductor*%
%TO.N,Net-(Q14A-C1)*%
G36*
X6560635Y1628061D02*
G01*
X6563391Y1622717D01*
X6621336Y1359031D01*
X6619765Y1350215D01*
X6617469Y1347591D01*
X6594756Y1328362D01*
X6594752Y1328357D01*
X6581485Y1300541D01*
X6570555Y1277626D01*
X6570553Y1277620D01*
X6542242Y1209251D01*
X6542015Y1208765D01*
X6501898Y1132501D01*
X6500714Y1130683D01*
X6448357Y1064588D01*
X6440534Y1060231D01*
X6431921Y1062682D01*
X6430913Y1063580D01*
X6339123Y1155370D01*
X6335696Y1163643D01*
X6337569Y1169993D01*
X6373524Y1225609D01*
X6384965Y1292972D01*
X6376231Y1356400D01*
X6356792Y1408148D01*
X6355269Y1410529D01*
X6341448Y1432137D01*
X6339877Y1440952D01*
X6343449Y1447112D01*
X6544110Y1628878D01*
X6552541Y1631892D01*
X6560635Y1628061D01*
G37*
%TD.AperFunction*%
%TD*%
%TA.AperFunction,Conductor*%
%TO.N,TRIANGLE_B*%
G36*
X10271313Y18985310D02*
G01*
X10278439Y18979887D01*
X10280005Y18974741D01*
X10281800Y18946454D01*
X10282020Y18943001D01*
X10305296Y18890497D01*
X10346709Y18828226D01*
X10346715Y18828218D01*
X10403673Y18758754D01*
X10465140Y18693623D01*
X10468326Y18685255D01*
X10464661Y18677084D01*
X10464222Y18676690D01*
X10372849Y18598790D01*
X10364330Y18596030D01*
X10358364Y18598240D01*
X10357610Y18598790D01*
X10291863Y18646737D01*
X10291614Y18646930D01*
X10222289Y18703774D01*
X10222271Y18703788D01*
X10160000Y18745201D01*
X10107496Y18768477D01*
X10104043Y18768697D01*
X10075757Y18770492D01*
X10067719Y18774435D01*
X10065187Y18779184D01*
X10052252Y18828223D01*
X9996463Y19039738D01*
X9997666Y19048611D01*
X10004792Y19054034D01*
X10010760Y19054034D01*
X10271313Y18985310D01*
G37*
%TD.AperFunction*%
%TD*%
%TA.AperFunction,Conductor*%
%TO.N,SYNC_A*%
G36*
X2590092Y6984415D02*
G01*
X2593120Y6979169D01*
X2610293Y6914981D01*
X2658463Y6865231D01*
X2719848Y6834954D01*
X2778983Y6820513D01*
X2810357Y6818814D01*
X2818431Y6814945D01*
X2821369Y6808250D01*
X2847069Y6540735D01*
X2844449Y6532172D01*
X2836542Y6527970D01*
X2830566Y6528972D01*
X2823552Y6532172D01*
X2581087Y6642798D01*
X2574984Y6649348D01*
X2574332Y6652019D01*
X2570374Y6684336D01*
X2570374Y6684338D01*
X2537648Y6736462D01*
X2494094Y6802696D01*
X2493266Y6804184D01*
X2455659Y6885242D01*
X2454727Y6888272D01*
X2450347Y6914981D01*
X2440628Y6974249D01*
X2442672Y6982967D01*
X2450282Y6987688D01*
X2452175Y6987842D01*
X2581819Y6987842D01*
X2590092Y6984415D01*
G37*
%TD.AperFunction*%
%TD*%
%TA.AperFunction,Conductor*%
%TO.N,Net-(C9-Pad2)*%
G36*
X1285489Y11677014D02*
G01*
X1308886Y11658548D01*
X1360392Y11632157D01*
X1422400Y11607800D01*
X1491899Y11582400D01*
X1554146Y11582400D01*
X1557336Y11581957D01*
X1640779Y11558312D01*
X1647804Y11552759D01*
X1648846Y11543865D01*
X1644600Y11537689D01*
X1584008Y11492331D01*
X1581630Y11490953D01*
X1500705Y11456055D01*
X1500018Y11455808D01*
X1426010Y11434335D01*
X1369874Y11416015D01*
X1325929Y11383049D01*
X1317254Y11380825D01*
X1314796Y11381455D01*
X1074341Y11471734D01*
X1067800Y11477850D01*
X1067500Y11486799D01*
X1070497Y11491265D01*
X1270290Y11676412D01*
X1278687Y11679521D01*
X1285489Y11677014D01*
G37*
%TD.AperFunction*%
%TD*%
%TA.AperFunction,Conductor*%
%TO.N,Net-(Q15A-C1)*%
G36*
X2533264Y11956085D02*
G01*
X2534274Y11955185D01*
X2626064Y11863395D01*
X2629491Y11855122D01*
X2627618Y11848773D01*
X2591696Y11793173D01*
X2591695Y11793171D01*
X2580318Y11725816D01*
X2589127Y11662394D01*
X2608633Y11610658D01*
X2624006Y11586679D01*
X2625586Y11577864D01*
X2622019Y11571700D01*
X2421497Y11389727D01*
X2413067Y11386705D01*
X2404970Y11390528D01*
X2402209Y11395870D01*
X2362059Y11577864D01*
X2344046Y11659518D01*
X2345610Y11668335D01*
X2347893Y11670952D01*
X2370601Y11690223D01*
X2394746Y11741009D01*
X2423001Y11809450D01*
X2423222Y11809922D01*
X2463294Y11886238D01*
X2464473Y11888051D01*
X2516829Y11954176D01*
X2524650Y11958534D01*
X2533264Y11956085D01*
G37*
%TD.AperFunction*%
%TD*%
%TA.AperFunction,Conductor*%
%TO.N,TRIANGLE_A*%
G36*
X2486654Y13410203D02*
G01*
X2578243Y13318614D01*
X2581670Y13310341D01*
X2578250Y13302075D01*
X2476315Y13199971D01*
X2377645Y13098656D01*
X2299370Y13012132D01*
X2299357Y13012117D01*
X2250326Y12946082D01*
X2240868Y12911587D01*
X2235376Y12904515D01*
X2234367Y12904003D01*
X1811470Y12714600D01*
X1802519Y12714346D01*
X1796010Y12720496D01*
X1795756Y12729447D01*
X1796678Y12731334D01*
X2032876Y13121738D01*
X2040089Y13127041D01*
X2041913Y13127339D01*
X2078646Y13130326D01*
X2154304Y13165478D01*
X2252903Y13228019D01*
X2325482Y13283769D01*
X2364401Y13313661D01*
X2364400Y13313661D01*
X2470492Y13410570D01*
X2478910Y13413618D01*
X2486654Y13410203D01*
G37*
%TD.AperFunction*%
%TD*%
%TA.AperFunction,Conductor*%
%TO.N,+12V*%
G36*
X3659050Y11189920D02*
G01*
X3662477Y11181647D01*
X3662367Y11180055D01*
X3656959Y11140828D01*
X3650689Y11095353D01*
X3650041Y11092809D01*
X3619002Y11010811D01*
X3618720Y11010181D01*
X3583472Y10942440D01*
X3558451Y10889689D01*
X3558450Y10889684D01*
X3558062Y10858810D01*
X3554532Y10850581D01*
X3552003Y10848706D01*
X3314440Y10717997D01*
X3305540Y10717011D01*
X3298549Y10722608D01*
X3297103Y10728498D01*
X3299889Y10858810D01*
X3302914Y11000350D01*
X3306517Y11008546D01*
X3313022Y11011690D01*
X3342142Y11015675D01*
X3396057Y11034370D01*
X3451331Y11068697D01*
X3505200Y11150600D01*
X3505200Y11181648D01*
X3508627Y11189920D01*
X3516900Y11193347D01*
X3650777Y11193347D01*
X3659050Y11189920D01*
G37*
%TD.AperFunction*%
%TD*%
%TA.AperFunction,Conductor*%
%TO.N,GND*%
G36*
X5895386Y15414949D02*
G01*
X5898144Y15411601D01*
X6067499Y15206027D01*
X6070115Y15197463D01*
X6068711Y15192933D01*
X6053819Y15165964D01*
X6053816Y15165955D01*
X6047442Y15110155D01*
X6048723Y15035732D01*
X6052945Y14945943D01*
X6055111Y14856019D01*
X6051884Y14847665D01*
X6043696Y14844040D01*
X6043414Y14844037D01*
X5913703Y14844037D01*
X5905430Y14847464D01*
X5902049Y14854697D01*
X5899499Y14883254D01*
X5894696Y14937076D01*
X5873051Y15016808D01*
X5842961Y15080435D01*
X5842960Y15080436D01*
X5842960Y15080437D01*
X5820606Y15110155D01*
X5809321Y15125158D01*
X5800528Y15131426D01*
X5784339Y15142968D01*
X5779592Y15150561D01*
X5780170Y15156588D01*
X5783672Y15165964D01*
X5875397Y15411602D01*
X5881502Y15418153D01*
X5890451Y15418469D01*
X5895386Y15414949D01*
G37*
%TD.AperFunction*%
%TD*%
%TA.AperFunction,Conductor*%
%TO.N,TRIANGLE_A*%
G36*
X971090Y20866667D02*
G01*
X975308Y20862449D01*
X1051163Y20732243D01*
X1110952Y20629614D01*
X1112155Y20620740D01*
X1109623Y20615992D01*
X1088606Y20592126D01*
X1067942Y20538547D01*
X1067940Y20538541D01*
X1053191Y20465236D01*
X1053188Y20465215D01*
X1044345Y20375823D01*
X1041729Y20285362D01*
X1038065Y20277191D01*
X1030034Y20274000D01*
X900366Y20274000D01*
X892093Y20277427D01*
X888671Y20285362D01*
X886053Y20375823D01*
X877209Y20465221D01*
X862458Y20538540D01*
X841791Y20592125D01*
X820774Y20615993D01*
X817880Y20624464D01*
X819444Y20629610D01*
X955090Y20862448D01*
X962216Y20867870D01*
X971090Y20866667D01*
G37*
%TD.AperFunction*%
%TD*%
%TA.AperFunction,Conductor*%
%TO.N,Net-(U6C-+)*%
G36*
X8601143Y24979708D02*
G01*
X8625011Y24958690D01*
X8678596Y24938023D01*
X8751915Y24923272D01*
X8841313Y24914428D01*
X8931773Y24911810D01*
X8939944Y24908145D01*
X8943135Y24900115D01*
X8943135Y24770448D01*
X8939708Y24762175D01*
X8931773Y24758753D01*
X8841313Y24756136D01*
X8751921Y24747293D01*
X8751900Y24747290D01*
X8678595Y24732541D01*
X8678589Y24732539D01*
X8625010Y24711875D01*
X8601144Y24690858D01*
X8592671Y24687963D01*
X8587522Y24689529D01*
X8354689Y24825171D01*
X8349266Y24832297D01*
X8350469Y24841171D01*
X8354689Y24845391D01*
X8587525Y24981036D01*
X8596397Y24982238D01*
X8601143Y24979708D01*
G37*
%TD.AperFunction*%
%TD*%
%TA.AperFunction,Conductor*%
%TO.N,Net-(D1A-A)*%
G36*
X3991147Y12701160D02*
G01*
X3995840Y12697438D01*
X4014159Y12672899D01*
X4059615Y12640647D01*
X4123964Y12612201D01*
X4123972Y12612199D01*
X4135528Y12609283D01*
X4139035Y12607753D01*
X4155645Y12596966D01*
X4172432Y12594308D01*
X4175358Y12593441D01*
X4183385Y12589867D01*
X4190881Y12586529D01*
X4190884Y12586528D01*
X4220630Y12586528D01*
X4222460Y12586384D01*
X4223273Y12586256D01*
X4251839Y12581731D01*
X4267744Y12585993D01*
X4271723Y12586351D01*
X4286981Y12585089D01*
X4294942Y12580992D01*
X4297715Y12573429D01*
X4297715Y12443715D01*
X4294288Y12435442D01*
X4286015Y12432015D01*
X4285802Y12432017D01*
X4195882Y12433653D01*
X4106125Y12436421D01*
X4031772Y12435924D01*
X3976167Y12427980D01*
X3976159Y12427977D01*
X3949531Y12412437D01*
X3940658Y12411227D01*
X3936350Y12413386D01*
X3724945Y12581564D01*
X3720604Y12589396D01*
X3723073Y12598004D01*
X3727955Y12601611D01*
X3982196Y12701329D01*
X3991147Y12701160D01*
G37*
%TD.AperFunction*%
%TD*%
%TA.AperFunction,Conductor*%
%TO.N,Net-(Q15B-C2)*%
G36*
X5487781Y1794538D02*
G01*
X5553268Y1733461D01*
X5553267Y1733461D01*
X5553271Y1733458D01*
X5622960Y1678186D01*
X5622962Y1678185D01*
X5685677Y1638615D01*
X5738520Y1616929D01*
X5738521Y1616929D01*
X5738524Y1616928D01*
X5770097Y1615656D01*
X5778225Y1611898D01*
X5780887Y1607136D01*
X5854005Y1347486D01*
X5852949Y1338594D01*
X5845914Y1333053D01*
X5839945Y1332954D01*
X5578512Y1397335D01*
X5571299Y1402641D01*
X5569652Y1407706D01*
X5566976Y1439213D01*
X5555290Y1463917D01*
X5542522Y1490911D01*
X5542521Y1490912D01*
X5542520Y1490913D01*
X5542519Y1490916D01*
X5499895Y1552196D01*
X5499891Y1552201D01*
X5442017Y1620791D01*
X5442016Y1620791D01*
X5442007Y1620802D01*
X5379639Y1686213D01*
X5376411Y1694565D01*
X5379834Y1702558D01*
X5471531Y1794255D01*
X5479803Y1797681D01*
X5487781Y1794538D01*
G37*
%TD.AperFunction*%
%TD*%
%TA.AperFunction,Conductor*%
%TO.N,+12V*%
G36*
X7606738Y24982407D02*
G01*
X7632458Y24937858D01*
X7633600Y24924800D01*
X7633600Y24540001D01*
X7689210Y24540001D01*
X7689210Y24540002D01*
X7765048Y24555086D01*
X7845913Y24609118D01*
X7895878Y24621345D01*
X7942013Y24598594D01*
X7950949Y24587256D01*
X7951370Y24586601D01*
X7951373Y24586597D01*
X7951374Y24586596D01*
X8037109Y24487652D01*
X8037114Y24487647D01*
X8147251Y24416867D01*
X8236617Y24390627D01*
X8272873Y24379981D01*
X8272876Y24379981D01*
X8403794Y24379981D01*
X8403797Y24379981D01*
X8529418Y24416867D01*
X8639559Y24487650D01*
X8702469Y24560255D01*
X8744464Y24584730D01*
X8773463Y24590565D01*
X8777163Y24591119D01*
X8850082Y24598334D01*
X8852688Y24598500D01*
X8936339Y24600919D01*
X8949164Y24603761D01*
X8952056Y24604401D01*
X8968321Y24606181D01*
X9475200Y24606181D01*
X9523538Y24588588D01*
X9549258Y24544039D01*
X9550400Y24530981D01*
X9550399Y23603200D01*
X9532805Y23554862D01*
X9488257Y23529142D01*
X9475199Y23528000D01*
X9316893Y23528000D01*
X9159382Y23489178D01*
X9159381Y23489177D01*
X9015744Y23413791D01*
X8999777Y23399645D01*
X8999777Y23399643D01*
X9188434Y23210986D01*
X9210174Y23164366D01*
X9196860Y23114679D01*
X9192867Y23109474D01*
X9160863Y23071333D01*
X9116314Y23045613D01*
X9065656Y23054546D01*
X9050081Y23066497D01*
X8860033Y23256545D01*
X8802172Y23172719D01*
X8802171Y23172717D01*
X8744648Y23021041D01*
X8728208Y22885648D01*
X8704916Y22839784D01*
X8657592Y22819621D01*
X8642856Y22820278D01*
X8637813Y22821003D01*
X8506889Y22821003D01*
X8506886Y22821003D01*
X8477066Y22812246D01*
X8455880Y22809200D01*
X8166100Y22809200D01*
X8117762Y22826793D01*
X8092042Y22871342D01*
X8090900Y22884400D01*
X8090899Y23370056D01*
X8090899Y23370057D01*
X8082028Y23414658D01*
X8082027Y23414660D01*
X8044120Y23471392D01*
X8046825Y23473200D01*
X8030814Y23507535D01*
X8034391Y23530752D01*
X8032920Y23531044D01*
X8048000Y23606854D01*
X8048000Y23777500D01*
X7713200Y23777500D01*
X7664862Y23795093D01*
X7639142Y23839642D01*
X7638000Y23852700D01*
X7638000Y24359631D01*
X7637999Y24359631D01*
X7571306Y24346365D01*
X7493573Y24294426D01*
X7471256Y24261026D01*
X7429773Y24230609D01*
X7378443Y24233974D01*
X7346203Y24261027D01*
X7327307Y24289308D01*
X7247022Y24342951D01*
X7234790Y24359632D01*
X7838000Y24359632D01*
X7838000Y23977500D01*
X8047999Y23977500D01*
X8047999Y24148146D01*
X8047998Y24148147D01*
X8034364Y24216694D01*
X7982426Y24294427D01*
X7904690Y24346366D01*
X7904691Y24346366D01*
X7838000Y24359632D01*
X7234790Y24359632D01*
X7216604Y24384434D01*
X7213600Y24405478D01*
X7213600Y24481068D01*
X7231193Y24529406D01*
X7275742Y24555126D01*
X7303471Y24554823D01*
X7377989Y24540001D01*
X7433599Y24540002D01*
X7433600Y24540002D01*
X7433600Y24924800D01*
X7451193Y24973138D01*
X7495742Y24998858D01*
X7508800Y25000000D01*
X7558400Y25000000D01*
X7606738Y24982407D01*
G37*
%TD.AperFunction*%
%TD*%
%TA.AperFunction,Conductor*%
%TO.N,Net-(D1B-K)*%
G36*
X5326133Y17515376D02*
G01*
X5391947Y17453264D01*
X5461411Y17396307D01*
X5461419Y17396300D01*
X5523689Y17354890D01*
X5554265Y17341335D01*
X5576194Y17331613D01*
X5576195Y17331613D01*
X5576198Y17331612D01*
X5605433Y17329756D01*
X5607931Y17329597D01*
X5615971Y17325653D01*
X5618503Y17320905D01*
X5687228Y17060351D01*
X5686025Y17051477D01*
X5678899Y17046054D01*
X5672931Y17046054D01*
X5412377Y17114779D01*
X5405251Y17120202D01*
X5403685Y17125351D01*
X5401670Y17157084D01*
X5401668Y17157090D01*
X5378392Y17209593D01*
X5336982Y17271863D01*
X5336975Y17271871D01*
X5296770Y17320905D01*
X5280020Y17341333D01*
X5267225Y17354890D01*
X5217906Y17407149D01*
X5214720Y17415517D01*
X5218141Y17423451D01*
X5309831Y17515141D01*
X5318103Y17518567D01*
X5326133Y17515376D01*
G37*
%TD.AperFunction*%
%TD*%
%TA.AperFunction,Conductor*%
%TO.N,TRIANGLE_B*%
G36*
X4187073Y21135773D02*
G01*
X4190500Y21127500D01*
X4190500Y21125895D01*
X4190492Y21125589D01*
X4188266Y21083111D01*
X4192262Y21072700D01*
X4193034Y21068846D01*
X4193945Y21037379D01*
X4202788Y20947988D01*
X4202791Y20947967D01*
X4217540Y20874663D01*
X4217542Y20874657D01*
X4238206Y20821078D01*
X4238207Y20821077D01*
X4259224Y20797210D01*
X4262119Y20788738D01*
X4260553Y20783589D01*
X4124910Y20550755D01*
X4117784Y20545332D01*
X4108910Y20546535D01*
X4104690Y20550755D01*
X3969046Y20783589D01*
X3967843Y20792463D01*
X3970372Y20797208D01*
X3991391Y20821077D01*
X4012058Y20874663D01*
X4026809Y20947981D01*
X4035653Y21037379D01*
X4038271Y21127839D01*
X4041936Y21136009D01*
X4049966Y21139200D01*
X4178800Y21139200D01*
X4187073Y21135773D01*
G37*
%TD.AperFunction*%
%TD*%
%TA.AperFunction,Conductor*%
%TO.N,TRIANGLE_B*%
G36*
X9887689Y12803590D02*
G01*
X9889296Y12802350D01*
X9916385Y12777404D01*
X9993190Y12745413D01*
X10105332Y12715889D01*
X10242909Y12694221D01*
X10384961Y12686409D01*
X10393033Y12682533D01*
X10396018Y12674727D01*
X10396018Y12545195D01*
X10392591Y12536922D01*
X10384318Y12533495D01*
X10384224Y12533495D01*
X10241119Y12534647D01*
X10100667Y12536077D01*
X9984812Y12534223D01*
X9903732Y12525622D01*
X9903731Y12525622D01*
X9872389Y12509314D01*
X9863468Y12508535D01*
X9862545Y12508870D01*
X9431714Y12685749D01*
X9425363Y12692061D01*
X9425335Y12701016D01*
X9431647Y12707367D01*
X9433652Y12708000D01*
X9878876Y12805174D01*
X9887689Y12803590D01*
G37*
%TD.AperFunction*%
%TD*%
%TA.AperFunction,Conductor*%
%TO.N,Net-(D1B-K)*%
G36*
X6107850Y7733404D02*
G01*
X6333740Y7590432D01*
X6338898Y7583112D01*
X6337369Y7574289D01*
X6332999Y7570228D01*
X6093169Y7442026D01*
X6084257Y7441148D01*
X6082219Y7441983D01*
X6051663Y7458008D01*
X5985842Y7461486D01*
X5901688Y7467600D01*
X5901683Y7467600D01*
X5815163Y7467600D01*
X5807278Y7470656D01*
X5733168Y7538264D01*
X5729365Y7546372D01*
X5732409Y7554793D01*
X5732758Y7555159D01*
X5825830Y7648231D01*
X5834102Y7651657D01*
X5839478Y7650348D01*
X5895445Y7621373D01*
X5961893Y7630314D01*
X6023291Y7664168D01*
X6023293Y7664170D01*
X6023295Y7664171D01*
X6071700Y7706001D01*
X6071702Y7706003D01*
X6092618Y7731024D01*
X6100551Y7735172D01*
X6107850Y7733404D01*
G37*
%TD.AperFunction*%
%TD*%
%TA.AperFunction,Conductor*%
%TO.N,-5V*%
G36*
X5720058Y18070487D02*
G01*
X5727184Y18065064D01*
X5728750Y18059918D01*
X5730545Y18031631D01*
X5730765Y18028178D01*
X5754041Y17975674D01*
X5795454Y17913403D01*
X5795460Y17913395D01*
X5852418Y17843931D01*
X5914530Y17778116D01*
X5917716Y17769748D01*
X5914294Y17761813D01*
X5822606Y17670125D01*
X5814333Y17666698D01*
X5806303Y17669889D01*
X5740488Y17732001D01*
X5671024Y17788959D01*
X5671016Y17788965D01*
X5608745Y17830378D01*
X5556241Y17853654D01*
X5552788Y17853874D01*
X5524502Y17855669D01*
X5516464Y17859612D01*
X5513932Y17864361D01*
X5500997Y17913400D01*
X5445208Y18124915D01*
X5446411Y18133788D01*
X5453537Y18139211D01*
X5459505Y18139211D01*
X5720058Y18070487D01*
G37*
%TD.AperFunction*%
%TD*%
%TA.AperFunction,Conductor*%
%TO.N,Net-(Q14A-C1)*%
G36*
X9845289Y8652538D02*
G01*
X9911103Y8590426D01*
X9980567Y8533469D01*
X9980575Y8533462D01*
X10042845Y8492052D01*
X10073421Y8478497D01*
X10095350Y8468775D01*
X10095351Y8468775D01*
X10095354Y8468774D01*
X10124589Y8466918D01*
X10127087Y8466759D01*
X10135127Y8462815D01*
X10137659Y8458067D01*
X10206384Y8197513D01*
X10205181Y8188639D01*
X10198055Y8183216D01*
X10192087Y8183216D01*
X9931533Y8251941D01*
X9924407Y8257364D01*
X9922841Y8262513D01*
X9920826Y8294246D01*
X9920824Y8294252D01*
X9897548Y8346755D01*
X9856138Y8409025D01*
X9856131Y8409033D01*
X9815926Y8458067D01*
X9799176Y8478495D01*
X9786381Y8492052D01*
X9737062Y8544311D01*
X9733876Y8552679D01*
X9737297Y8560613D01*
X9828987Y8652303D01*
X9837259Y8655729D01*
X9845289Y8652538D01*
G37*
%TD.AperFunction*%
%TD*%
%TA.AperFunction,Conductor*%
%TO.N,Net-(C18-Pad2)*%
G36*
X9912489Y13663334D02*
G01*
X9978303Y13601222D01*
X10047767Y13544265D01*
X10047775Y13544258D01*
X10110045Y13502848D01*
X10140621Y13489293D01*
X10162550Y13479571D01*
X10162551Y13479571D01*
X10162554Y13479570D01*
X10191789Y13477714D01*
X10194287Y13477555D01*
X10202327Y13473611D01*
X10204859Y13468863D01*
X10273584Y13208309D01*
X10272381Y13199435D01*
X10265255Y13194012D01*
X10259287Y13194012D01*
X9998733Y13262737D01*
X9991607Y13268160D01*
X9990041Y13273309D01*
X9988026Y13305042D01*
X9988024Y13305048D01*
X9964748Y13357551D01*
X9923338Y13419821D01*
X9923331Y13419829D01*
X9883126Y13468863D01*
X9866376Y13489291D01*
X9853581Y13502848D01*
X9804262Y13555107D01*
X9801076Y13563475D01*
X9804497Y13571409D01*
X9896187Y13663099D01*
X9904459Y13666525D01*
X9912489Y13663334D01*
G37*
%TD.AperFunction*%
%TD*%
%TA.AperFunction,Conductor*%
%TO.N,Net-(C9-Pad2)*%
G36*
X6141406Y13314474D02*
G01*
X6227730Y13299770D01*
X6230871Y13298763D01*
X6275649Y13277017D01*
X6311746Y13259487D01*
X6313296Y13258581D01*
X6379163Y13212919D01*
X6379164Y13212919D01*
X6431073Y13178271D01*
X6431072Y13178271D01*
X6431074Y13178270D01*
X6463746Y13173409D01*
X6471423Y13168803D01*
X6472751Y13166505D01*
X6582536Y12914178D01*
X6582694Y12905224D01*
X6576475Y12898781D01*
X6570474Y12897886D01*
X6304008Y12928446D01*
X6296179Y12932793D01*
X6293648Y12939665D01*
X6292543Y12971633D01*
X6279185Y13032068D01*
X6249929Y13094963D01*
X6200780Y13144385D01*
X6200779Y13144386D01*
X6136353Y13162042D01*
X6129279Y13167534D01*
X6127745Y13173326D01*
X6127745Y13212919D01*
X6127745Y13302942D01*
X6131171Y13311212D01*
X6139444Y13314639D01*
X6141406Y13314474D01*
G37*
%TD.AperFunction*%
%TD*%
%TA.AperFunction,Conductor*%
%TO.N,Net-(R4-Pad1)*%
G36*
X4898773Y21648008D02*
G01*
X4902200Y21639735D01*
X4902200Y21615400D01*
X4954043Y21553209D01*
X4975781Y21527133D01*
X5032000Y21493424D01*
X5086718Y21475373D01*
X5116169Y21471730D01*
X5123956Y21467314D01*
X5126424Y21460503D01*
X5135334Y21189332D01*
X5132180Y21180951D01*
X5124024Y21177254D01*
X5118123Y21178630D01*
X4878677Y21306669D01*
X4872997Y21313593D01*
X4872499Y21316637D01*
X4871567Y21347736D01*
X4845363Y21400420D01*
X4808805Y21468012D01*
X4808506Y21468657D01*
X4805876Y21475374D01*
X4776429Y21550590D01*
X4775741Y21553209D01*
X4763694Y21638091D01*
X4765924Y21646764D01*
X4773634Y21651319D01*
X4775278Y21651435D01*
X4890500Y21651435D01*
X4898773Y21648008D01*
G37*
%TD.AperFunction*%
%TD*%
%TA.AperFunction,Conductor*%
%TO.N,Net-(U5B--)*%
G36*
X2924443Y20061661D02*
G01*
X2990257Y19999549D01*
X3059721Y19942592D01*
X3059729Y19942585D01*
X3121999Y19901175D01*
X3152575Y19887620D01*
X3174504Y19877898D01*
X3174505Y19877898D01*
X3174508Y19877897D01*
X3203743Y19876041D01*
X3206241Y19875882D01*
X3214281Y19871938D01*
X3216813Y19867190D01*
X3285538Y19606636D01*
X3284335Y19597762D01*
X3277209Y19592339D01*
X3271241Y19592339D01*
X3010687Y19661064D01*
X3003561Y19666487D01*
X3001995Y19671636D01*
X2999980Y19703369D01*
X2999978Y19703375D01*
X2976702Y19755878D01*
X2935292Y19818148D01*
X2935285Y19818156D01*
X2895080Y19867190D01*
X2878330Y19887618D01*
X2865535Y19901175D01*
X2816216Y19953434D01*
X2813030Y19961802D01*
X2816451Y19969736D01*
X2908141Y20061426D01*
X2916413Y20064852D01*
X2924443Y20061661D01*
G37*
%TD.AperFunction*%
%TD*%
%TA.AperFunction,Conductor*%
%TO.N,Net-(Q14A-E1)*%
G36*
X8328751Y7211513D02*
G01*
X8329955Y7205580D01*
X8313364Y6936089D01*
X8309435Y6928042D01*
X8302753Y6925157D01*
X8272455Y6922384D01*
X8272445Y6922382D01*
X8215731Y6905960D01*
X8215724Y6905957D01*
X8157156Y6873802D01*
X8157154Y6873800D01*
X8111317Y6822916D01*
X8095046Y6759119D01*
X8089681Y6751950D01*
X8083709Y6750311D01*
X7954013Y6750311D01*
X7945740Y6753738D01*
X7942313Y6762011D01*
X7942446Y6763769D01*
X7943298Y6769375D01*
X7955424Y6849143D01*
X7956216Y6851939D01*
X7990891Y6933686D01*
X7991237Y6934369D01*
X8031075Y7001541D01*
X8060238Y7054001D01*
X8062536Y7085661D01*
X8066552Y7093662D01*
X8068985Y7095283D01*
X8313064Y7216774D01*
X8321997Y7217392D01*
X8328751Y7211513D01*
G37*
%TD.AperFunction*%
%TD*%
%TA.AperFunction,Conductor*%
%TO.N,SAWTOOTH_A*%
G36*
X2580768Y19521978D02*
G01*
X2581089Y19521644D01*
X2641320Y19456447D01*
X2641513Y19456227D01*
X2698588Y19387890D01*
X2746512Y19331601D01*
X2768766Y19311030D01*
X2787379Y19293823D01*
X2787381Y19293821D01*
X2816039Y19283536D01*
X2822668Y19277516D01*
X2823773Y19273104D01*
X2837289Y19000865D01*
X2834276Y18992432D01*
X2826183Y18988599D01*
X2820259Y18989877D01*
X2579952Y19113263D01*
X2574157Y19120090D01*
X2573902Y19126326D01*
X2580827Y19156024D01*
X2577450Y19212026D01*
X2558899Y19279272D01*
X2558897Y19279276D01*
X2558894Y19279284D01*
X2522375Y19351586D01*
X2522371Y19351593D01*
X2471649Y19414641D01*
X2469133Y19423235D01*
X2472491Y19430247D01*
X2564223Y19521979D01*
X2572495Y19525405D01*
X2580768Y19521978D01*
G37*
%TD.AperFunction*%
%TD*%
%TA.AperFunction,Conductor*%
%TO.N,-5V*%
G36*
X4310538Y7972527D02*
G01*
X4313965Y7964254D01*
X4313963Y7964021D01*
X4312174Y7874103D01*
X4308989Y7784338D01*
X4308976Y7709961D01*
X4316468Y7654301D01*
X4316470Y7654295D01*
X4331825Y7627568D01*
X4332975Y7618688D01*
X4330800Y7614411D01*
X4161489Y7403720D01*
X4153636Y7399418D01*
X4145040Y7401929D01*
X4141457Y7406828D01*
X4043029Y7661291D01*
X4043240Y7670241D01*
X4046997Y7674926D01*
X4071666Y7693101D01*
X4104317Y7738347D01*
X4133238Y7802489D01*
X4153905Y7882650D01*
X4160893Y7965241D01*
X4165005Y7973195D01*
X4172551Y7975954D01*
X4302265Y7975954D01*
X4310538Y7972527D01*
G37*
%TD.AperFunction*%
%TD*%
%TA.AperFunction,Conductor*%
%TO.N,+12V*%
G36*
X5247683Y16711125D02*
G01*
X5313497Y16649013D01*
X5382961Y16592056D01*
X5382969Y16592049D01*
X5445239Y16550639D01*
X5475815Y16537084D01*
X5497744Y16527362D01*
X5497745Y16527362D01*
X5497748Y16527361D01*
X5526983Y16525505D01*
X5529481Y16525346D01*
X5537521Y16521402D01*
X5540053Y16516654D01*
X5608778Y16256100D01*
X5607575Y16247226D01*
X5600449Y16241803D01*
X5594481Y16241803D01*
X5333927Y16310528D01*
X5326801Y16315951D01*
X5325235Y16321100D01*
X5323220Y16352833D01*
X5323218Y16352839D01*
X5299942Y16405342D01*
X5258532Y16467612D01*
X5258525Y16467620D01*
X5218320Y16516654D01*
X5201570Y16537082D01*
X5188775Y16550639D01*
X5139456Y16602898D01*
X5136270Y16611266D01*
X5139691Y16619200D01*
X5231381Y16710890D01*
X5239653Y16714316D01*
X5247683Y16711125D01*
G37*
%TD.AperFunction*%
%TD*%
%TA.AperFunction,Conductor*%
%TO.N,GND*%
G36*
X4428256Y14917995D02*
G01*
X4654715Y14771192D01*
X4659793Y14763816D01*
X4659993Y14760213D01*
X4657166Y14731876D01*
X4657167Y14731875D01*
X4657167Y14731873D01*
X4674092Y14680489D01*
X4690405Y14638861D01*
X4700079Y14614173D01*
X4700241Y14613702D01*
X4704496Y14599313D01*
X4723814Y14533976D01*
X4724223Y14531949D01*
X4733159Y14451390D01*
X4730665Y14442789D01*
X4722820Y14438471D01*
X4721530Y14438400D01*
X4591635Y14438400D01*
X4583362Y14441827D01*
X4580201Y14447621D01*
X4566821Y14509328D01*
X4566821Y14509329D01*
X4512385Y14524253D01*
X4501655Y14527195D01*
X4494583Y14532688D01*
X4493744Y14534507D01*
X4470400Y14599313D01*
X4470399Y14599314D01*
X4470399Y14599315D01*
X4430593Y14621001D01*
X4430592Y14621002D01*
X4430591Y14621002D01*
X4413404Y14624769D01*
X4404239Y14626777D01*
X4396892Y14631896D01*
X4395062Y14638861D01*
X4397398Y14680489D01*
X4410210Y14908834D01*
X4414095Y14916901D01*
X4422547Y14919859D01*
X4428256Y14917995D01*
G37*
%TD.AperFunction*%
%TD*%
%TA.AperFunction,Conductor*%
%TO.N,Net-(D1A-K)*%
G36*
X5841318Y10498661D02*
G01*
X5848779Y10493708D01*
X5850757Y10486636D01*
X5849143Y10451947D01*
X5849143Y10451945D01*
X5857693Y10385883D01*
X5857694Y10385879D01*
X5882481Y10316466D01*
X5929105Y10261658D01*
X5994836Y10241904D01*
X6001772Y10236242D01*
X6003168Y10230700D01*
X6003168Y10101241D01*
X5999741Y10092968D01*
X5991468Y10089541D01*
X5989199Y10089763D01*
X5898990Y10107599D01*
X5895356Y10108975D01*
X5813625Y10156732D01*
X5811882Y10157978D01*
X5746525Y10214400D01*
X5694974Y10258882D01*
X5694968Y10258885D01*
X5660427Y10268577D01*
X5653387Y10274112D01*
X5652497Y10276117D01*
X5615632Y10385878D01*
X5565605Y10534827D01*
X5566219Y10543759D01*
X5572971Y10549641D01*
X5578941Y10550032D01*
X5841318Y10498661D01*
G37*
%TD.AperFunction*%
%TD*%
%TA.AperFunction,Conductor*%
%TO.N,CV_B*%
G36*
X9382732Y7597368D02*
G01*
X9384083Y7588516D01*
X9383400Y7586530D01*
X9193997Y7163633D01*
X9187488Y7157483D01*
X9186413Y7157132D01*
X9151918Y7147674D01*
X9085883Y7098643D01*
X9085868Y7098630D01*
X8999344Y7020355D01*
X8898029Y6921685D01*
X8795925Y6819750D01*
X8787649Y6816330D01*
X8779386Y6819757D01*
X8687797Y6911346D01*
X8684370Y6919619D01*
X8687430Y6927508D01*
X8784339Y7033600D01*
X8784339Y7033599D01*
X8834299Y7098643D01*
X8869981Y7145097D01*
X8932522Y7243696D01*
X8967674Y7319354D01*
X8970660Y7356068D01*
X8974745Y7364031D01*
X8976255Y7365120D01*
X9366666Y7601323D01*
X9375518Y7602673D01*
X9382732Y7597368D01*
G37*
%TD.AperFunction*%
%TD*%
%TA.AperFunction,Conductor*%
%TO.N,SYNC_A*%
G36*
X1782407Y17894156D02*
G01*
X1785880Y17885903D01*
X1782499Y17877610D01*
X1780885Y17876249D01*
X1408351Y17615721D01*
X1399608Y17613788D01*
X1396076Y17615020D01*
X1362330Y17633287D01*
X1362329Y17633288D01*
X1362328Y17633288D01*
X1279782Y17651817D01*
X1279779Y17651818D01*
X1279782Y17651818D01*
X1171913Y17653842D01*
X1055839Y17626030D01*
X1055837Y17626030D01*
X1055837Y17626029D01*
X956647Y17560333D01*
X947857Y17558622D01*
X941913Y17561815D01*
X850380Y17653348D01*
X846953Y17661621D01*
X850380Y17669894D01*
X851564Y17670929D01*
X958274Y17752201D01*
X960400Y17753488D01*
X1082439Y17810659D01*
X1083095Y17810920D01*
X1193331Y17846805D01*
X1272883Y17871360D01*
X1300214Y17892482D01*
X1307297Y17894922D01*
X1774114Y17897537D01*
X1782407Y17894156D01*
G37*
%TD.AperFunction*%
%TD*%
M02*
