%TF.GenerationSoftware,KiCad,Pcbnew,8.0.3*%
%TF.CreationDate,2024-12-12T22:43:46-05:00*%
%TF.ProjectId,3374_VCO,33333734-5f56-4434-9f2e-6b696361645f,0*%
%TF.SameCoordinates,PX640ad70PY37b6b20*%
%TF.FileFunction,Paste,Top*%
%TF.FilePolarity,Positive*%
%FSLAX46Y46*%
G04 Gerber Fmt 4.6, Leading zero omitted, Abs format (unit mm)*
G04 Created by KiCad (PCBNEW 8.0.3) date 2024-12-12 22:43:46*
%MOMM*%
%LPD*%
G01*
G04 APERTURE LIST*
G04 Aperture macros list*
%AMRoundRect*
0 Rectangle with rounded corners*
0 $1 Rounding radius*
0 $2 $3 $4 $5 $6 $7 $8 $9 X,Y pos of 4 corners*
0 Add a 4 corners polygon primitive as box body*
4,1,4,$2,$3,$4,$5,$6,$7,$8,$9,$2,$3,0*
0 Add four circle primitives for the rounded corners*
1,1,$1+$1,$2,$3*
1,1,$1+$1,$4,$5*
1,1,$1+$1,$6,$7*
1,1,$1+$1,$8,$9*
0 Add four rect primitives between the rounded corners*
20,1,$1+$1,$2,$3,$4,$5,0*
20,1,$1+$1,$4,$5,$6,$7,0*
20,1,$1+$1,$6,$7,$8,$9,0*
20,1,$1+$1,$8,$9,$2,$3,0*%
G04 Aperture macros list end*
%ADD10RoundRect,0.079500X0.079500X0.100500X-0.079500X0.100500X-0.079500X-0.100500X0.079500X-0.100500X0*%
%ADD11RoundRect,0.079500X0.100500X-0.079500X0.100500X0.079500X-0.100500X0.079500X-0.100500X-0.079500X0*%
%ADD12R,0.774700X0.254000*%
%ADD13RoundRect,0.079500X-0.079500X-0.100500X0.079500X-0.100500X0.079500X0.100500X-0.079500X0.100500X0*%
%ADD14RoundRect,0.079500X-0.100500X0.079500X-0.100500X-0.079500X0.100500X-0.079500X0.100500X0.079500X0*%
%ADD15R,0.400000X0.650000*%
%ADD16R,0.558800X0.240000*%
%ADD17R,0.457200X0.240000*%
%ADD18R,0.240000X0.457200*%
G04 APERTURE END LIST*
D10*
%TO.C,R5*%
X5933000Y17458378D03*
X5243000Y17458378D03*
%TD*%
D11*
%TO.C,R14*%
X2794000Y12050200D03*
X2794000Y12740200D03*
%TD*%
D10*
%TO.C,R17*%
X2123000Y11430000D03*
X1433000Y11430000D03*
%TD*%
D11*
%TO.C,R1*%
X1388000Y23785000D03*
X1388000Y24475000D03*
%TD*%
D12*
%TO.C,U3*%
X7029450Y13208000D03*
X7029450Y13708126D03*
X7029450Y14208252D03*
X7029450Y14708378D03*
X7029450Y15208504D03*
X7029450Y15708630D03*
X7029450Y16208756D03*
X4146550Y16208756D03*
X4146550Y15708630D03*
X4146550Y15208504D03*
X4146550Y14708378D03*
X4146550Y14208252D03*
X4146550Y13708126D03*
X4146550Y13208000D03*
%TD*%
D10*
%TO.C,C6*%
X7152200Y19812000D03*
X6462200Y19812000D03*
%TD*%
D13*
%TO.C,C11*%
X9053000Y3810000D03*
X9743000Y3810000D03*
%TD*%
%TO.C,C3*%
X7275000Y24384000D03*
X7965000Y24384000D03*
%TD*%
%TO.C,R20*%
X1433000Y6350000D03*
X2123000Y6350000D03*
%TD*%
D10*
%TO.C,R21*%
X9743000Y6350000D03*
X9053000Y6350000D03*
%TD*%
D13*
%TO.C,R18*%
X8748200Y11125200D03*
X9438200Y11125200D03*
%TD*%
D14*
%TO.C,C10*%
X8077200Y13652178D03*
X8077200Y12962178D03*
%TD*%
D13*
%TO.C,R16*%
X8748200Y11734800D03*
X9438200Y11734800D03*
%TD*%
D15*
%TO.C,Q4*%
X3588000Y609600D03*
X4238000Y609600D03*
X4888000Y609600D03*
X4888000Y2509600D03*
X4238000Y2509600D03*
X3588000Y2509600D03*
%TD*%
D13*
%TO.C,R19*%
X7275000Y9017000D03*
X7965000Y9017000D03*
%TD*%
D10*
%TO.C,R23*%
X9768400Y1397000D03*
X9078400Y1397000D03*
%TD*%
D16*
%TO.C,U1*%
X3339892Y22892150D03*
D17*
X3288000Y22492100D03*
X3288000Y22092050D03*
X3288000Y21692000D03*
D18*
X3412925Y21167076D03*
X3812975Y21167076D03*
X4213025Y21167076D03*
X4613075Y21167076D03*
D17*
X4738000Y21692000D03*
X4738000Y22092050D03*
X4738000Y22492100D03*
X4738000Y22892150D03*
D18*
X4613075Y23417074D03*
X4213025Y23417074D03*
X3812975Y23417074D03*
X3412925Y23417074D03*
%TD*%
D10*
%TO.C,R12*%
X2123000Y13665200D03*
X1433000Y13665200D03*
%TD*%
D15*
%TO.C,Q5*%
X6288000Y609600D03*
X6938000Y609600D03*
X7588000Y609600D03*
X7588000Y2509600D03*
X6938000Y2509600D03*
X6288000Y2509600D03*
%TD*%
%TO.C,Q3*%
X6288000Y3609600D03*
X6938000Y3609600D03*
X7588000Y3609600D03*
X7588000Y5509600D03*
X6938000Y5509600D03*
X6288000Y5509600D03*
%TD*%
D13*
%TO.C,R22*%
X1433000Y3860800D03*
X2123000Y3860800D03*
%TD*%
D14*
%TO.C,C8*%
X3098800Y15229400D03*
X3098800Y14539400D03*
%TD*%
D16*
%TO.C,U2*%
X7836108Y21692000D03*
D17*
X7888000Y22092050D03*
X7888000Y22492100D03*
X7888000Y22892150D03*
D18*
X7763075Y23417074D03*
X7363025Y23417074D03*
X6962975Y23417074D03*
X6562925Y23417074D03*
D17*
X6438000Y22892150D03*
X6438000Y22492100D03*
X6438000Y22092050D03*
X6438000Y21692000D03*
D18*
X6562925Y21167076D03*
X6962975Y21167076D03*
X7363025Y21167076D03*
X7763075Y21167076D03*
%TD*%
D10*
%TO.C,R9*%
X9514400Y16205200D03*
X8824400Y16205200D03*
%TD*%
D15*
%TO.C,Q2*%
X3588000Y3609600D03*
X4238000Y3609600D03*
X4888000Y3609600D03*
X4888000Y5509600D03*
X4238000Y5509600D03*
X3588000Y5509600D03*
%TD*%
D13*
%TO.C,C1*%
X4633000Y24840000D03*
X5323000Y24840000D03*
%TD*%
D10*
%TO.C,R8*%
X2427800Y16205200D03*
X1737800Y16205200D03*
%TD*%
%TO.C,C5*%
X4155000Y20066000D03*
X3465000Y20066000D03*
%TD*%
D13*
%TO.C,R13*%
X9053000Y13665200D03*
X9743000Y13665200D03*
%TD*%
D10*
%TO.C,R4*%
X4612200Y17458378D03*
X3922200Y17458378D03*
%TD*%
D14*
%TO.C,C9*%
X8077200Y14972978D03*
X8077200Y14282978D03*
%TD*%
D11*
%TO.C,C4*%
X2032000Y23785000D03*
X2032000Y24475000D03*
%TD*%
D13*
%TO.C,R11*%
X9053000Y14274800D03*
X9743000Y14274800D03*
%TD*%
D10*
%TO.C,R3*%
X4612200Y18110000D03*
X3922200Y18110000D03*
%TD*%
D13*
%TO.C,C7*%
X9053000Y18745200D03*
X9743000Y18745200D03*
%TD*%
%TO.C,R7*%
X8824400Y16814800D03*
X9514400Y16814800D03*
%TD*%
D11*
%TO.C,R15*%
X3448000Y11735000D03*
X3448000Y12425000D03*
%TD*%
D10*
%TO.C,C2*%
X3773000Y24390000D03*
X3083000Y24390000D03*
%TD*%
%TO.C,R10*%
X2123000Y14274800D03*
X1433000Y14274800D03*
%TD*%
D15*
%TO.C,Q1*%
X3588000Y6609600D03*
X4238000Y6609600D03*
X4888000Y6609600D03*
X4888000Y8509600D03*
X4238000Y8509600D03*
X3588000Y8509600D03*
%TD*%
D13*
%TO.C,R6*%
X1737800Y16814800D03*
X2427800Y16814800D03*
%TD*%
%TO.C,R2*%
X9053000Y19354800D03*
X9743000Y19354800D03*
%TD*%
M02*
