M48
; DRILL file {KiCad 8.0.3} date 2024-12-12T22:45:05-0500
; FORMAT={-:-/ absolute / metric / decimal}
; #@! TF.CreationDate,2024-12-12T22:45:05-05:00
; #@! TF.GenerationSoftware,Kicad,Pcbnew,8.0.3
; #@! TF.FileFunction,Plated,1,4,PTH
FMAT,2
METRIC
; #@! TA.AperFunction,Plated,PTH,ViaDrill
T1C0.300
; #@! TA.AperFunction,Plated,PTH,ComponentDrill
T2C0.680
%
G90
G05
T1
X0.914Y23.317
X1.035Y21.801
X1.2Y11.93
X1.219Y16.104
X1.23Y16.988
X1.321Y8.484
X1.393Y18.724
X1.753Y1.272
X2.553Y9.472
X2.554Y24.505
X2.626Y2.059
X2.668Y10.737
X2.752Y23.774
X2.838Y21.23
X2.898Y13.32
X2.997Y15.748
X3.048Y18.38
X3.099Y16.916
X3.298Y20.58
X3.404Y17.628
X3.681Y7.4
X3.775Y10.99
X4.218Y1.41
X4.411Y12.527
X4.486Y19.611
X4.597Y10.211
X4.684Y7.72
X4.928Y24.202
X4.977Y20.657
X5.07Y10.989
X5.183Y16.803
X5.221Y18.327
X5.424Y22.926
X5.441Y15.742
X5.478Y23.682
X5.613Y13.836
X5.692Y14.64
X5.828Y21.478
X5.846Y13.076
X5.859Y1.329
X6.009Y24.462
X6.328Y10.79
X6.386Y20.472
X6.558Y1.642
X6.934Y7.569
X7.087Y10.916
X7.129Y20.327
X7.328Y1.4
X7.934Y17.991
X8.185Y15.951
X8.308Y12.14
X8.44Y23.889
X8.523Y22.013
X8.55Y19.847
X8.888Y8.436
X9.195Y24.831
X9.957Y11.887
X9.957Y10.973
X10.008Y17.018
X10.008Y0.584
X10.01Y15.983
X10.152Y3.138
X10.238Y21.844
X10.617Y1.422
T2
X1.778Y22.86
X1.778Y20.32
X1.778Y17.78
X1.778Y15.24
X1.778Y12.7
X1.778Y10.16
X1.778Y7.62
X1.778Y5.08
X1.778Y2.54
X9.398Y22.86
X9.398Y20.32
X9.398Y17.78
X9.398Y15.24
X9.398Y12.7
X9.398Y10.16
X9.398Y7.62
X9.398Y5.08
X9.398Y2.54
M30
