M48
; DRILL file {KiCad 7.0.7} date Thu Feb 15 01:27:47 2024
; FORMAT={-:-/ absolute / metric / decimal}
; #@! TF.CreationDate,2024-02-15T01:27:47-05:00
; #@! TF.GenerationSoftware,Kicad,Pcbnew,7.0.7
; #@! TF.FileFunction,Plated,1,4,PTH
FMAT,2
METRIC
; #@! TA.AperFunction,Plated,PTH,ViaDrill
T1C0.300
; #@! TA.AperFunction,Plated,PTH,ComponentDrill
T2C0.635
%
G90
G05
T1
X0.887Y24.261
X0.965Y20.879
X0.965Y22.301
X1.07Y11.526
X1.115Y14.485
X1.115Y13.411
X1.161Y15.989
X1.162Y17.041
X1.749Y18.796
X2.565Y11.506
X2.586Y24.513
X2.586Y1.905
X2.816Y18.997
X2.849Y6.522
X2.934Y0.584
X3.288Y19.588
X3.312Y10.714
X3.35Y7.4
X3.71Y12.594
X4.115Y20.534
X4.119Y4.73
X4.149Y7.389
X4.218Y1.41
X4.411Y14.928
X4.658Y24.516
X4.924Y7.72
X5.136Y21.17
X5.183Y19.204
X5.359Y24.841
X5.423Y22.969
X5.441Y18.144
X5.56Y10.554
X5.568Y9.67
X5.613Y16.237
X5.639Y23.774
X5.692Y17.042
X5.859Y1.329
X5.882Y15.43
X5.895Y12.595
X5.978Y21.83
X6.35Y7.58
X6.354Y24.845
X6.558Y1.642
X6.59Y12.896
X7.311Y12.605
X7.328Y1.4
X7.423Y10.725
X7.874Y14.713
X8.078Y12.6
X8.304Y21.095
X8.331Y7.225
X8.338Y24.835
X8.572Y22.366
X8.608Y19.224
X8.717Y17.092
X10.008Y19.048
X10.008Y0.584
X10.01Y21.54
X10.152Y3.138
X10.158Y6.209
X10.188Y11.94
X10.211Y8.179
X10.248Y13.99
X10.273Y23.837
X10.278Y13.19
X10.293Y14.746
X10.298Y15.827
X10.304Y16.803
X10.617Y1.422
T2
X1.778Y22.86
X1.778Y20.32
X1.778Y17.78
X1.778Y15.24
X1.778Y12.7
X1.778Y10.16
X1.778Y7.62
X1.778Y5.08
X1.778Y2.54
X9.398Y22.86
X9.398Y20.32
X9.398Y17.78
X9.398Y15.24
X9.398Y12.7
X9.398Y10.16
X9.398Y7.62
X9.398Y5.08
X9.398Y2.54
T0
M30
